<?xml version="1.0" encoding="UTF-8" standalone="no"?>
<!DOCTYPE svg PUBLIC "-//W3C//DTD SVG 1.1//EN"
 "http://www.w3.org/Graphics/SVG/1.1/DTD/svg11.dtd">
<!-- Generated by graphviz version 2.28.0 (20111025.1818)
 -->
<!-- Title: G Pages: 1 -->
<!--zoomable 328 -->
<svg id="main" version="1.1" xmlns="http://www.w3.org/2000/svg" xmlns:xlink="http://www.w3.org/1999/xlink" xml:space="preserve" onload="init(evt)">
        <defs>
                <circle id="rim" cx="0" cy="0" r="7"/>
                <circle id="rim2" cx="0" cy="0" r="3.5"/>
                <g id="zoomPlus">
                        <use xlink:href="#rim" fill="#404040">
                                <set attributeName="fill" to="#808080" begin="zoomplus.mouseover" end="zoomplus.mouseout"/>
                        </use>
                        <path d="M-4,0h8M0,-4v8" fill="none" stroke="white" stroke-width="1.5" pointer-events="none"/>
                </g>
                <g id="zoomMin">
                        <use xlink:href="#rim" fill="#404040">
                                <set attributeName="fill" to="#808080" begin="zoomminus.mouseover" end="zoomminus.mouseout"/>
                        </use>
                        <path d="M-4,0h8" fill="none" stroke="white" stroke-width="1.5" pointer-events="none"/>
                </g>
                <g id="dirArrow">
                        <path fill="none" stroke="white" stroke-width="1.5" d="M0,-3.0v7 M-2.5,-0.5L0,-3.0L2.5,-0.5"/>
                </g>
               <g id="resetDef">
                       <use xlink:href="#rim2" fill="#404040">
                               <set attributeName="fill" to="#808080" begin="reset.mouseover" end="reset.mouseout"/>
                       </use>
               </g>
        </defs>

<script type="text/javascript">
var viewWidth = 1206;
var viewHeight = 328;
var sectionId = 'dynsection-0';
</script>
<script xlink:href="../../svgpan.js"/>
<svg id="graph" class="graph">
<g id="viewport">
<title>G</title>
<polygon fill="white" stroke="white" points="-4,5 -4,-324.124 1203,-324.124 1203,5 -4,5"/>
<!-- Node1 -->
<g id="node1" class="node"><title>Node1</title>
<polygon fill="#bfbfbf" stroke="black" points="1136,-114.624 1136,-133.624 1198,-133.624 1198,-114.624 1136,-114.624"/>
<text text-anchor="middle" x="1167" y="-121.624" font-family="Helvetica,sans-Serif" font-size="10.00">INIReader</text>
</g>
<!-- Node2 -->
<g id="node2" class="node"><title>Node2</title>
<a xlink:title="STL class.">
<polygon fill="white" stroke="#bfbfbf" points="879,-281.624 879,-300.624 971,-300.624 971,-281.624 879,-281.624"/>
<text text-anchor="middle" x="925" y="-288.624" font-family="Helvetica,sans-Serif" font-size="10.00">std::map&lt; K, T &gt;</text>
</a>
</g>
<!-- Node2&#45;&gt;Node1 -->
<g id="edge2" class="edge"><title>Node2&#45;&gt;Node1</title>
<path fill="none" stroke="#9a32cd" stroke-dasharray="5,2" d="M981.188,-283.451C1023.34,-274.979 1080.39,-257.52 1118,-222.124 1144.9,-196.806 1158.67,-153.197 1163.71,-133.853"/>
<polygon fill="#9a32cd" stroke="#9a32cd" points="980.527,-280.014 971.357,-285.32 981.835,-286.891 980.527,-280.014"/>
<text text-anchor="middle" x="1073" y="-283.124" font-family="Helvetica,sans-Serif" font-size="10.00"> def_temp_map</text>
<text text-anchor="middle" x="1073" y="-272.124" font-family="Helvetica,sans-Serif" font-size="10.00">temp_map</text>
</g>
<!-- Node3 -->
<g id="node4" class="node"><title>Node3</title>
<polygon fill="white" stroke="#bfbfbf" points="678.5,-300.624 678.5,-319.624 707.5,-319.624 707.5,-300.624 678.5,-300.624"/>
<text text-anchor="middle" x="693" y="-307.624" font-family="Helvetica,sans-Serif" font-size="10.00">K</text>
</g>
<!-- Node3&#45;&gt;Node2 -->
<g id="edge4" class="edge"><title>Node3&#45;&gt;Node2</title>
<path fill="none" stroke="#9a32cd" stroke-dasharray="5,2" d="M717.786,-308.159C755.692,-305.028 830.443,-298.853 878.77,-294.861"/>
<polygon fill="#9a32cd" stroke="#9a32cd" points="717.377,-304.681 707.699,-308.993 717.953,-311.657 717.377,-304.681"/>
<text text-anchor="middle" x="800" y="-305.124" font-family="Helvetica,sans-Serif" font-size="10.00"> keys</text>
</g>
<!-- Node4 -->
<g id="node6" class="node"><title>Node4</title>
<polygon fill="white" stroke="#bfbfbf" points="678.5,-262.624 678.5,-281.624 707.5,-281.624 707.5,-262.624 678.5,-262.624"/>
<text text-anchor="middle" x="693" y="-269.624" font-family="Helvetica,sans-Serif" font-size="10.00">T</text>
</g>
<!-- Node4&#45;&gt;Node2 -->
<g id="edge6" class="edge"><title>Node4&#45;&gt;Node2</title>
<path fill="none" stroke="#9a32cd" stroke-dasharray="5,2" d="M717.786,-274.089C755.692,-277.22 830.443,-283.396 878.77,-287.388"/>
<polygon fill="#9a32cd" stroke="#9a32cd" points="717.953,-270.591 707.699,-273.256 717.377,-277.567 717.953,-270.591"/>
<text text-anchor="middle" x="800" y="-285.124" font-family="Helvetica,sans-Serif" font-size="10.00"> elements</text>
</g>
<!-- Node5 -->
<g id="node8" class="node"><title>Node5</title>
<polygon fill="white" stroke="#bfbfbf" points="855.5,-152.624 855.5,-171.624 994.5,-171.624 994.5,-152.624 855.5,-152.624"/>
<text text-anchor="middle" x="925" y="-159.624" font-family="Helvetica,sans-Serif" font-size="10.00">std::map&lt; string, KeyMap &gt;</text>
</g>
<!-- Node5&#45;&gt;Node1 -->
<g id="edge8" class="edge"><title>Node5&#45;&gt;Node1</title>
<path fill="none" stroke="#9a32cd" stroke-dasharray="5,2" d="M1004.98,-155.118C1039.84,-151.291 1081.17,-145.746 1118,-138.124 1123.87,-136.91 1130.06,-135.334 1135.97,-133.678"/>
<polygon fill="#9a32cd" stroke="#9a32cd" points="1004.43,-151.657 994.859,-156.202 1005.17,-158.618 1004.43,-151.657"/>
<text text-anchor="middle" x="1073" y="-155.124" font-family="Helvetica,sans-Serif" font-size="10.00"> section_map</text>
</g>
<!-- Node6 -->
<g id="node10" class="node"><title>Node6</title>
<a xlink:title="STL class.">
<polygon fill="white" stroke="#bfbfbf" points="663,-133.624 663,-152.624 723,-152.624 723,-133.624 663,-133.624"/>
<text text-anchor="middle" x="693" y="-140.624" font-family="Helvetica,sans-Serif" font-size="10.00">std::string</text>
</a>
</g>
<!-- Node6&#45;&gt;Node1 -->
<g id="edge34" class="edge"><title>Node6&#45;&gt;Node1</title>
<path fill="none" stroke="#9a32cd" stroke-dasharray="5,2" d="M730.482,-155.908C759.678,-165.333 801.897,-177.173 840,-181.124 963.052,-193.886 1005.53,-218.664 1118,-167.124 1134.68,-159.48 1149.69,-143.983 1158.32,-133.831"/>
<polygon fill="#9a32cd" stroke="#9a32cd" points="731.319,-152.499 720.726,-152.692 729.128,-159.147 731.319,-152.499"/>
<text text-anchor="middle" x="925" y="-245.124" font-family="Helvetica,sans-Serif" font-size="10.00"> currKey</text>
<text text-anchor="middle" x="925" y="-234.124" font-family="Helvetica,sans-Serif" font-size="10.00">currSection</text>
<text text-anchor="middle" x="925" y="-223.124" font-family="Helvetica,sans-Serif" font-size="10.00">currLine</text>
<text text-anchor="middle" x="925" y="-212.124" font-family="Helvetica,sans-Serif" font-size="10.00">defaultSection</text>
<text text-anchor="middle" x="925" y="-201.124" font-family="Helvetica,sans-Serif" font-size="10.00">ini_name</text>
</g>
<!-- Node6&#45;&gt;Node5 -->
<g id="edge10" class="edge"><title>Node6&#45;&gt;Node5</title>
<path fill="none" stroke="#9a32cd" stroke-dasharray="5,2" d="M733.394,-146.379C766.752,-149.134 815.351,-153.149 855.126,-156.435"/>
<polygon fill="#9a32cd" stroke="#9a32cd" points="733.384,-142.866 723.13,-145.531 732.808,-149.842 733.384,-142.866"/>
<text text-anchor="middle" x="800" y="-156.124" font-family="Helvetica,sans-Serif" font-size="10.00"> keys</text>
</g>
<!-- Node15 -->
<g id="node29" class="node"><title>Node15</title>
<polygon fill="white" stroke="#bfbfbf" points="872.5,-114.624 872.5,-133.624 977.5,-133.624 977.5,-114.624 872.5,-114.624"/>
<text text-anchor="middle" x="925" y="-121.624" font-family="Helvetica,sans-Serif" font-size="10.00">std::vector&lt; string &gt;</text>
</g>
<!-- Node6&#45;&gt;Node15 -->
<g id="edge32" class="edge"><title>Node6&#45;&gt;Node15</title>
<path fill="none" stroke="#9a32cd" stroke-dasharray="5,2" d="M733.466,-139.203C747.518,-137.85 763.461,-136.364 778,-135.124 809.279,-132.457 844.357,-129.803 872.29,-127.77"/>
<polygon fill="#9a32cd" stroke="#9a32cd" points="732.758,-135.756 723.143,-140.206 733.435,-142.723 732.758,-135.756"/>
<text text-anchor="middle" x="800" y="-138.124" font-family="Helvetica,sans-Serif" font-size="10.00"> elements</text>
</g>
<!-- Node16 -->
<g id="node33" class="node"><title>Node16</title>
<polygon fill="white" stroke="#bfbfbf" points="840,-76.6242 840,-95.6242 1010,-95.6242 1010,-76.6242 840,-76.6242"/>
<text text-anchor="middle" x="925" y="-83.6242" font-family="Helvetica,sans-Serif" font-size="10.00">std::map&lt; string, DefaultKeyMap &gt;</text>
</g>
<!-- Node6&#45;&gt;Node16 -->
<g id="edge38" class="edge"><title>Node6&#45;&gt;Node16</title>
<path fill="none" stroke="#9a32cd" stroke-dasharray="5,2" d="M730.702,-130.375C745.315,-125.549 762.351,-120.234 778,-116.124 808.409,-108.138 842.84,-100.975 870.626,-95.6523"/>
<polygon fill="#9a32cd" stroke="#9a32cd" points="729.39,-127.123 721.018,-133.617 731.612,-133.761 729.39,-127.123"/>
<text text-anchor="middle" x="800" y="-119.124" font-family="Helvetica,sans-Serif" font-size="10.00"> keys</text>
</g>
<!-- Node7 -->
<g id="node12" class="node"><title>Node7</title>
<a xlink:title="STL class.">
<polygon fill="white" stroke="#bfbfbf" points="454.5,-133.624 454.5,-152.624 579.5,-152.624 579.5,-133.624 454.5,-133.624"/>
<text text-anchor="middle" x="517" y="-140.624" font-family="Helvetica,sans-Serif" font-size="10.00">std::basic_string&lt; char &gt;</text>
</a>
</g>
<!-- Node7&#45;&gt;Node6 -->
<g id="edge12" class="edge"><title>Node7&#45;&gt;Node6</title>
<path fill="none" stroke="midnightblue" d="M589.863,-143.124C615.333,-143.124 642.588,-143.124 662.533,-143.124"/>
<polygon fill="midnightblue" stroke="midnightblue" points="589.836,-139.624 579.836,-143.124 589.836,-146.624 589.836,-139.624"/>
</g>
<!-- Node8 -->
<g id="node14" class="node"><title>Node8</title>
<a xlink:title="STL class.">
<polygon fill="white" stroke="#bfbfbf" points="890.5,-38.6242 890.5,-57.6242 959.5,-57.6242 959.5,-38.6242 890.5,-38.6242"/>
<text text-anchor="middle" x="925" y="-45.6242" font-family="Helvetica,sans-Serif" font-size="10.00">std::fstream</text>
</a>
</g>
<!-- Node8&#45;&gt;Node1 -->
<g id="edge14" class="edge"><title>Node8&#45;&gt;Node1</title>
<path fill="none" stroke="#9a32cd" stroke-dasharray="5,2" d="M969.776,-48.0035C1010.18,-49.5129 1070.88,-55.9793 1118,-79.1242 1135.02,-87.4847 1150.15,-103.924 1158.68,-114.449"/>
<polygon fill="#9a32cd" stroke="#9a32cd" points="969.803,-44.5029 959.707,-47.7143 969.602,-51.5001 969.803,-44.5029"/>
<text text-anchor="middle" x="1073" y="-82.1242" font-family="Helvetica,sans-Serif" font-size="10.00"> ini_file</text>
</g>
<!-- Node9 -->
<g id="node16" class="node"><title>Node9</title>
<a xlink:title="STL class.">
<polygon fill="white" stroke="#bfbfbf" points="626,-38.6242 626,-57.6242 760,-57.6242 760,-38.6242 626,-38.6242"/>
<text text-anchor="middle" x="693" y="-45.6242" font-family="Helvetica,sans-Serif" font-size="10.00">std::basic_fstream&lt; char &gt;</text>
</a>
</g>
<!-- Node9&#45;&gt;Node8 -->
<g id="edge16" class="edge"><title>Node9&#45;&gt;Node8</title>
<path fill="none" stroke="midnightblue" d="M770.387,-48.1242C811.066,-48.1242 859.037,-48.1242 890.412,-48.1242"/>
<polygon fill="midnightblue" stroke="midnightblue" points="770.217,-44.6243 760.217,-48.1242 770.217,-51.6243 770.217,-44.6243"/>
</g>
<!-- Node10 -->
<g id="node18" class="node"><title>Node10</title>
<a xlink:title="STL class.">
<polygon fill="white" stroke="#bfbfbf" points="446.5,-38.6242 446.5,-57.6242 587.5,-57.6242 587.5,-38.6242 446.5,-38.6242"/>
<text text-anchor="middle" x="517" y="-45.6242" font-family="Helvetica,sans-Serif" font-size="10.00">std::basic_iostream&lt; Char &gt;</text>
</a>
</g>
<!-- Node10&#45;&gt;Node9 -->
<g id="edge18" class="edge"><title>Node10&#45;&gt;Node9</title>
<path fill="none" stroke="midnightblue" d="M597.716,-48.1242C607.173,-48.1242 616.747,-48.1242 625.984,-48.1242"/>
<polygon fill="midnightblue" stroke="midnightblue" points="597.52,-44.6243 587.52,-48.1242 597.52,-51.6243 597.52,-44.6243"/>
</g>
<!-- Node11 -->
<g id="node20" class="node"><title>Node11</title>
<a xlink:title="STL class.">
<polygon fill="white" stroke="#bfbfbf" points="270,-61.6242 270,-80.6242 406,-80.6242 406,-61.6242 270,-61.6242"/>
<text text-anchor="middle" x="338" y="-68.6242" font-family="Helvetica,sans-Serif" font-size="10.00">std::basic_istream&lt; Char &gt;</text>
</a>
</g>
<!-- Node11&#45;&gt;Node10 -->
<g id="edge20" class="edge"><title>Node11&#45;&gt;Node10</title>
<path fill="none" stroke="midnightblue" d="M416.102,-61.1053C426.121,-59.8034 436.338,-58.4757 446.229,-57.1906"/>
<polygon fill="midnightblue" stroke="midnightblue" points="415.634,-57.6366 406.168,-62.3961 416.536,-64.5782 415.634,-57.6366"/>
</g>
<!-- Node12 -->
<g id="node22" class="node"><title>Node12</title>
<a xlink:title="STL class.">
<polygon fill="white" stroke="#bfbfbf" points="114,-43.6242 114,-62.6242 230,-62.6242 230,-43.6242 114,-43.6242"/>
<text text-anchor="middle" x="172" y="-50.6242" font-family="Helvetica,sans-Serif" font-size="10.00">std::basic_ios&lt; Char &gt;</text>
</a>
</g>
<!-- Node12&#45;&gt;Node11 -->
<g id="edge22" class="edge"><title>Node12&#45;&gt;Node11</title>
<path fill="none" stroke="midnightblue" d="M240.369,-60.5184C250.096,-61.5859 260.106,-62.6847 269.829,-63.7518"/>
<polygon fill="midnightblue" stroke="midnightblue" points="240.681,-57.0317 230.359,-59.4197 239.918,-63.99 240.681,-57.0317"/>
</g>
<!-- Node14 -->
<g id="node26" class="node"><title>Node14</title>
<a xlink:title="STL class.">
<polygon fill="white" stroke="#bfbfbf" points="268.5,-23.6242 268.5,-42.6242 407.5,-42.6242 407.5,-23.6242 268.5,-23.6242"/>
<text text-anchor="middle" x="338" y="-30.6242" font-family="Helvetica,sans-Serif" font-size="10.00">std::basic_ostream&lt; Char &gt;</text>
</a>
</g>
<!-- Node12&#45;&gt;Node14 -->
<g id="edge28" class="edge"><title>Node12&#45;&gt;Node14</title>
<path fill="none" stroke="midnightblue" d="M240.298,-44.9172C249.572,-43.7862 259.106,-42.6235 268.403,-41.4897"/>
<polygon fill="midnightblue" stroke="midnightblue" points="239.862,-41.4443 230.359,-46.1292 240.709,-48.3928 239.862,-41.4443"/>
</g>
<!-- Node13 -->
<g id="node24" class="node"><title>Node13</title>
<a xlink:title="STL class.">
<polygon fill="white" stroke="#bfbfbf" points="0.5,-43.6242 0.5,-62.6242 75.5,-62.6242 75.5,-43.6242 0.5,-43.6242"/>
<text text-anchor="middle" x="38" y="-50.6242" font-family="Helvetica,sans-Serif" font-size="10.00">std::ios_base</text>
</a>
</g>
<!-- Node13&#45;&gt;Node12 -->
<g id="edge24" class="edge"><title>Node13&#45;&gt;Node12</title>
<path fill="none" stroke="midnightblue" d="M85.7791,-53.1242C94.8829,-53.1242 104.521,-53.1242 113.914,-53.1242"/>
<polygon fill="midnightblue" stroke="midnightblue" points="85.7694,-49.6243 75.7694,-53.1242 85.7693,-56.6243 85.7694,-49.6243"/>
</g>
<!-- Node14&#45;&gt;Node10 -->
<g id="edge26" class="edge"><title>Node14&#45;&gt;Node10</title>
<path fill="none" stroke="midnightblue" d="M417.931,-39.8133C427.446,-40.6197 437.11,-41.4387 446.477,-42.2324"/>
<polygon fill="midnightblue" stroke="midnightblue" points="417.946,-36.3021 407.686,-38.9451 417.355,-43.2771 417.946,-36.3021"/>
</g>
<!-- Node15&#45;&gt;Node1 -->
<g id="edge30" class="edge"><title>Node15&#45;&gt;Node1</title>
<path fill="none" stroke="#9a32cd" stroke-dasharray="5,2" d="M987.964,-124.124C1035.47,-124.124 1098.96,-124.124 1135.88,-124.124"/>
<polygon fill="#9a32cd" stroke="#9a32cd" points="987.781,-120.624 977.781,-124.124 987.781,-127.624 987.781,-120.624"/>
<text text-anchor="middle" x="1073" y="-127.124" font-family="Helvetica,sans-Serif" font-size="10.00"> noOverwriteSection</text>
</g>
<!-- Node16&#45;&gt;Node1 -->
<g id="edge36" class="edge"><title>Node16&#45;&gt;Node1</title>
<path fill="none" stroke="#9a32cd" stroke-dasharray="5,2" d="M1020.22,-93.9239C1051.54,-97.4401 1086.45,-102.366 1118,-109.124 1124.74,-110.569 1131.9,-112.551 1138.56,-114.6"/>
<polygon fill="#9a32cd" stroke="#9a32cd" points="1020.51,-90.4347 1010.19,-92.8312 1019.75,-97.3936 1020.51,-90.4347"/>
<text text-anchor="middle" x="1073" y="-112.124" font-family="Helvetica,sans-Serif" font-size="10.00"> default_map</text>
</g>
<!-- Node17 -->
<g id="node36" class="node"><title>Node17</title>
<a xlink:title="STL iterator class.">
<polygon fill="white" stroke="#bfbfbf" points="861,-0.624219 861,-19.6242 989,-19.6242 989,-0.624219 861,-0.624219"/>
<text text-anchor="middle" x="925" y="-7.62422" font-family="Helvetica,sans-Serif" font-size="10.00">std::map&lt; K, T &gt;::iterator</text>
</a>
</g>
<!-- Node17&#45;&gt;Node1 -->
<g id="edge40" class="edge"><title>Node17&#45;&gt;Node1</title>
<path fill="none" stroke="#9a32cd" stroke-dasharray="5,2" d="M999.248,-0.337831C1037.69,1.01349 1083.77,-3.71536 1118,-27.1242 1148.55,-48.0182 1160.51,-94.1964 1164.4,-114.372"/>
<polygon fill="#9a32cd" stroke="#9a32cd" points="998.955,3.1521 989.14,-0.836769 999.301,-3.83939 998.955,3.1521"/>
<text text-anchor="middle" x="1073" y="-41.1242" font-family="Helvetica,sans-Serif" font-size="10.00"> def_key_it</text>
<text text-anchor="middle" x="1073" y="-30.1242" font-family="Helvetica,sans-Serif" font-size="10.00">key_it</text>
</g>
</g>
</svg>
        <g id="navigator" transform="translate(0 0)" fill="#404254">
                <rect fill="#f2f5e9" fill-opacity="0.5" stroke="#606060" stroke-width=".5" x="0" y="0" width="60" height="60"/>
                <use id="zoomplus" xlink:href="#zoomPlus" x="17" y="9" onmousedown="handleZoom(evt,'in')"/>
                <use id="zoomminus" xlink:href="#zoomMin" x="42" y="9" onmousedown="handleZoom(evt,'out')"/>
                <use id="reset" xlink:href="#resetDef" x="30" y="36" onmousedown="handleReset()"/>
                <g id="arrowUp" xlink:href="#dirArrow" transform="translate(30 24)" onmousedown="handlePan(0,-1)">
                  <use xlink:href="#rim" fill="#404040">
                        <set attributeName="fill" to="#808080" begin="arrowUp.mouseover" end="arrowUp.mouseout"/>
                  </use>
                  <path fill="none" stroke="white" stroke-width="1.5" d="M0,-3.0v7 M-2.5,-0.5L0,-3.0L2.5,-0.5"/>
                </g>
                <g id="arrowRight" xlink:href="#dirArrow" transform="rotate(90) translate(36 -43)" onmousedown="handlePan(1,0)">
                  <use xlink:href="#rim" fill="#404040">
                        <set attributeName="fill" to="#808080" begin="arrowRight.mouseover" end="arrowRight.mouseout"/>
                  </use>
                  <path fill="none" stroke="white" stroke-width="1.5" d="M0,-3.0v7 M-2.5,-0.5L0,-3.0L2.5,-0.5"/>
                </g>
                <g id="arrowDown" xlink:href="#dirArrow" transform="rotate(180) translate(-30 -48)" onmousedown="handlePan(0,1)">
                  <use xlink:href="#rim" fill="#404040">
                        <set attributeName="fill" to="#808080" begin="arrowDown.mouseover" end="arrowDown.mouseout"/>
                  </use>
                  <path fill="none" stroke="white" stroke-width="1.5" d="M0,-3.0v7 M-2.5,-0.5L0,-3.0L2.5,-0.5"/>
                </g>
                <g id="arrowLeft" xlink:href="#dirArrow" transform="rotate(270) translate(-36 17)" onmousedown="handlePan(-1,0)">
                  <use xlink:href="#rim" fill="#404040">
                        <set attributeName="fill" to="#808080" begin="arrowLeft.mouseover" end="arrowLeft.mouseout"/>
                  </use>
                  <path fill="none" stroke="white" stroke-width="1.5" d="M0,-3.0v7 M-2.5,-0.5L0,-3.0L2.5,-0.5"/>
                </g>
        </g>
</svg>
