<?xml version="1.0" encoding="UTF-8" standalone="no"?>
<!DOCTYPE svg PUBLIC "-//W3C//DTD SVG 1.1//EN"
 "http://www.w3.org/Graphics/SVG/1.1/DTD/svg11.dtd">
<!-- Generated by graphviz version 2.28.0 (20111025.1818)
 -->
<!-- Title: G Pages: 1 -->
<!--zoomable 464 -->
<svg id="main" version="1.1" xmlns="http://www.w3.org/2000/svg" xmlns:xlink="http://www.w3.org/1999/xlink" xml:space="preserve" onload="init(evt)">
        <defs>
                <circle id="rim" cx="0" cy="0" r="7"/>
                <circle id="rim2" cx="0" cy="0" r="3.5"/>
                <g id="zoomPlus">
                        <use xlink:href="#rim" fill="#404040">
                                <set attributeName="fill" to="#808080" begin="zoomplus.mouseover" end="zoomplus.mouseout"/>
                        </use>
                        <path d="M-4,0h8M0,-4v8" fill="none" stroke="white" stroke-width="1.5" pointer-events="none"/>
                </g>
                <g id="zoomMin">
                        <use xlink:href="#rim" fill="#404040">
                                <set attributeName="fill" to="#808080" begin="zoomminus.mouseover" end="zoomminus.mouseout"/>
                        </use>
                        <path d="M-4,0h8" fill="none" stroke="white" stroke-width="1.5" pointer-events="none"/>
                </g>
                <g id="dirArrow">
                        <path fill="none" stroke="white" stroke-width="1.5" d="M0,-3.0v7 M-2.5,-0.5L0,-3.0L2.5,-0.5"/>
                </g>
               <g id="resetDef">
                       <use xlink:href="#rim2" fill="#404040">
                               <set attributeName="fill" to="#808080" begin="reset.mouseover" end="reset.mouseout"/>
                       </use>
               </g>
        </defs>

<script type="text/javascript">
var viewWidth = 443;
var viewHeight = 464;
var sectionId = 'dynsection-0';
</script>
<script xlink:href="../../svgpan.js"/>
<svg id="graph" class="graph">
<g id="viewport">
<title>G</title>
<polygon fill="white" stroke="white" points="-4,5 -4,-460 440.19,-460 440.19,5 -4,5"/>
<!-- Node1 -->
<g id="node1" class="node"><title>Node1</title>
<polygon fill="#bfbfbf" stroke="black" points="153.19,-0.5 153.19,-19.5 229.19,-19.5 229.19,-0.5 153.19,-0.5"/>
<text text-anchor="middle" x="191.19" y="-7.5" font-family="Helvetica,sans-Serif" font-size="10.00">cRoundRobin</text>
</g>
<!-- Node2 -->
<g id="node2" class="node"><title>Node2</title>
<a xlink:href="../../d4/d8e/structsProc.xhtml" target="_top" xlink:title="Struct representing a process.">
<polygon fill="white" stroke="black" points="106.19,-136.5 106.19,-155.5 148.19,-155.5 148.19,-136.5 106.19,-136.5"/>
<text text-anchor="middle" x="127.19" y="-143.5" font-family="Helvetica,sans-Serif" font-size="10.00">sProc</text>
</a>
</g>
<!-- Node2&#45;&gt;Node1 -->
<g id="edge2" class="edge"><title>Node2&#45;&gt;Node1</title>
<path fill="none" stroke="#9a32cd" stroke-dasharray="5,2" d="M95.8952,-138.542C51.719,-127.974 -20.7142,-104.441 6.18964,-68 39.8247,-22.4414 109.33,-12.1623 152.914,-10.4579"/>
<polygon fill="#9a32cd" stroke="#9a32cd" points="95.3804,-142.015 105.909,-140.834 96.9421,-135.191 95.3804,-142.015"/>
<text text-anchor="middle" x="33.6896" y="-75.5" font-family="Helvetica,sans-Serif" font-size="10.00"> runningProc</text>
</g>
<!-- Node13 -->
<g id="node24" class="node"><title>Node13</title>
<polygon fill="white" stroke="#bfbfbf" points="70.6896,-68.5 70.6896,-87.5 183.69,-87.5 183.69,-68.5 70.6896,-68.5"/>
<text text-anchor="middle" x="127.19" y="-75.5" font-family="Helvetica,sans-Serif" font-size="10.00">std::queue&lt; sProc * &gt;</text>
</g>
<!-- Node2&#45;&gt;Node13 -->
<g id="edge26" class="edge"><title>Node2&#45;&gt;Node13</title>
<path fill="none" stroke="#9a32cd" stroke-dasharray="5,2" d="M127.19,-126.041C127.19,-113.472 127.19,-97.5631 127.19,-87.8411"/>
<polygon fill="#9a32cd" stroke="#9a32cd" points="123.69,-126.372 127.19,-136.372 130.69,-126.372 123.69,-126.372"/>
<text text-anchor="middle" x="148.69" y="-109.5" font-family="Helvetica,sans-Serif" font-size="10.00"> elements</text>
</g>
<!-- Node14 -->
<g id="node27" class="node"><title>Node14</title>
<polygon fill="white" stroke="#bfbfbf" points="201.69,-68.5 201.69,-87.5 314.69,-87.5 314.69,-68.5 201.69,-68.5"/>
<text text-anchor="middle" x="258.19" y="-75.5" font-family="Helvetica,sans-Serif" font-size="10.00">std::vector&lt; sProc * &gt;</text>
</g>
<!-- Node2&#45;&gt;Node14 -->
<g id="edge30" class="edge"><title>Node2&#45;&gt;Node14</title>
<path fill="none" stroke="#9a32cd" stroke-dasharray="5,2" d="M153.266,-131.862C179.344,-118.724 218.697,-98.8969 241.059,-87.6305"/>
<polygon fill="#9a32cd" stroke="#9a32cd" points="151.671,-128.747 144.316,-136.372 154.821,-134.998 151.671,-128.747"/>
<text text-anchor="middle" x="226.69" y="-109.5" font-family="Helvetica,sans-Serif" font-size="10.00"> elements</text>
</g>
<!-- Node3 -->
<g id="node4" class="node"><title>Node3</title>
<a xlink:href="../../db/d4b/structsPTE.xhtml" target="_top" xlink:title="A struct representing a single page table entry.">
<polygon fill="white" stroke="black" points="21.6896,-204.5 21.6896,-223.5 62.6896,-223.5 62.6896,-204.5 21.6896,-204.5"/>
<text text-anchor="middle" x="42.1896" y="-211.5" font-family="Helvetica,sans-Serif" font-size="10.00">sPTE</text>
</a>
</g>
<!-- Node3&#45;&gt;Node2 -->
<g id="edge4" class="edge"><title>Node3&#45;&gt;Node2</title>
<path fill="none" stroke="#9a32cd" stroke-dasharray="5,2" d="M61.3841,-198.096C78.2487,-185.001 102.201,-166.403 116.075,-155.63"/>
<polygon fill="#9a32cd" stroke="#9a32cd" points="59.0539,-195.474 53.3019,-204.372 63.347,-201.003 59.0539,-195.474"/>
<text text-anchor="middle" x="107.19" y="-177.5" font-family="Helvetica,sans-Serif" font-size="10.00"> PTptr</text>
</g>
<!-- Node4 -->
<g id="node6" class="node"><title>Node4</title>
<a xlink:title="STL class.">
<polygon fill="white" stroke="#bfbfbf" points="81.1896,-204.5 81.1896,-223.5 173.19,-223.5 173.19,-204.5 81.1896,-204.5"/>
<text text-anchor="middle" x="127.19" y="-211.5" font-family="Helvetica,sans-Serif" font-size="10.00">std::istringstream</text>
</a>
</g>
<!-- Node4&#45;&gt;Node2 -->
<g id="edge6" class="edge"><title>Node4&#45;&gt;Node2</title>
<path fill="none" stroke="#9a32cd" stroke-dasharray="5,2" d="M127.19,-194.041C127.19,-181.472 127.19,-165.563 127.19,-155.841"/>
<polygon fill="#9a32cd" stroke="#9a32cd" points="123.69,-194.372 127.19,-204.372 130.69,-194.372 123.69,-194.372"/>
<text text-anchor="middle" x="138.19" y="-177.5" font-family="Helvetica,sans-Serif" font-size="10.00"> data</text>
</g>
<!-- Node5 -->
<g id="node8" class="node"><title>Node5</title>
<a xlink:title="STL class.">
<polygon fill="white" stroke="#bfbfbf" points="13.1896,-262.5 13.1896,-281.5 171.19,-281.5 171.19,-262.5 13.1896,-262.5"/>
<text text-anchor="middle" x="92.1896" y="-269.5" font-family="Helvetica,sans-Serif" font-size="10.00">std::basic_istringstream&lt; char &gt;</text>
</a>
</g>
<!-- Node5&#45;&gt;Node4 -->
<g id="edge8" class="edge"><title>Node5&#45;&gt;Node4</title>
<path fill="none" stroke="midnightblue" d="M103.118,-253.514C109.363,-243.522 116.915,-231.44 121.874,-223.505"/>
<polygon fill="midnightblue" stroke="midnightblue" points="99.9904,-251.915 97.6584,-262.25 105.926,-255.625 99.9904,-251.915"/>
</g>
<!-- Node6 -->
<g id="node10" class="node"><title>Node6</title>
<a xlink:title="STL class.">
<polygon fill="white" stroke="#bfbfbf" points="24.1896,-320.5 24.1896,-339.5 160.19,-339.5 160.19,-320.5 24.1896,-320.5"/>
<text text-anchor="middle" x="92.1896" y="-327.5" font-family="Helvetica,sans-Serif" font-size="10.00">std::basic_istream&lt; Char &gt;</text>
</a>
</g>
<!-- Node6&#45;&gt;Node5 -->
<g id="edge10" class="edge"><title>Node6&#45;&gt;Node5</title>
<path fill="none" stroke="midnightblue" d="M92.1896,-309.953C92.1896,-300.287 92.1896,-289.031 92.1896,-281.505"/>
<polygon fill="midnightblue" stroke="midnightblue" points="88.6897,-310.25 92.1896,-320.25 95.6897,-310.25 88.6897,-310.25"/>
</g>
<!-- Node7 -->
<g id="node12" class="node"><title>Node7</title>
<a xlink:title="STL class.">
<polygon fill="white" stroke="#bfbfbf" points="34.1896,-378.5 34.1896,-397.5 150.19,-397.5 150.19,-378.5 34.1896,-378.5"/>
<text text-anchor="middle" x="92.1896" y="-385.5" font-family="Helvetica,sans-Serif" font-size="10.00">std::basic_ios&lt; Char &gt;</text>
</a>
</g>
<!-- Node7&#45;&gt;Node6 -->
<g id="edge12" class="edge"><title>Node7&#45;&gt;Node6</title>
<path fill="none" stroke="midnightblue" d="M92.1896,-367.953C92.1896,-358.287 92.1896,-347.031 92.1896,-339.505"/>
<polygon fill="midnightblue" stroke="midnightblue" points="88.6897,-368.25 92.1896,-378.25 95.6897,-368.25 88.6897,-368.25"/>
</g>
<!-- Node8 -->
<g id="node14" class="node"><title>Node8</title>
<a xlink:title="STL class.">
<polygon fill="white" stroke="#bfbfbf" points="54.6896,-436.5 54.6896,-455.5 129.69,-455.5 129.69,-436.5 54.6896,-436.5"/>
<text text-anchor="middle" x="92.1896" y="-443.5" font-family="Helvetica,sans-Serif" font-size="10.00">std::ios_base</text>
</a>
</g>
<!-- Node8&#45;&gt;Node7 -->
<g id="edge14" class="edge"><title>Node8&#45;&gt;Node7</title>
<path fill="none" stroke="midnightblue" d="M92.1896,-425.953C92.1896,-416.287 92.1896,-405.031 92.1896,-397.505"/>
<polygon fill="midnightblue" stroke="midnightblue" points="88.6897,-426.25 92.1896,-436.25 95.6897,-426.25 88.6897,-426.25"/>
</g>
<!-- Node9 -->
<g id="node16" class="node"><title>Node9</title>
<a xlink:title="STL class.">
<polygon fill="white" stroke="#bfbfbf" points="207.19,-204.5 207.19,-223.5 267.19,-223.5 267.19,-204.5 207.19,-204.5"/>
<text text-anchor="middle" x="237.19" y="-211.5" font-family="Helvetica,sans-Serif" font-size="10.00">std::string</text>
</a>
</g>
<!-- Node9&#45;&gt;Node2 -->
<g id="edge16" class="edge"><title>Node9&#45;&gt;Node2</title>
<path fill="none" stroke="#9a32cd" stroke-dasharray="5,2" d="M214.131,-199.165C192.241,-186.031 160.022,-166.699 141.574,-155.63"/>
<polygon fill="#9a32cd" stroke="#9a32cd" points="212.433,-202.228 222.809,-204.372 216.035,-196.225 212.433,-202.228"/>
<text text-anchor="middle" x="203.19" y="-177.5" font-family="Helvetica,sans-Serif" font-size="10.00"> rline</text>
</g>
<!-- Node10 -->
<g id="node18" class="node"><title>Node10</title>
<a xlink:title="STL class.">
<polygon fill="white" stroke="#bfbfbf" points="188.69,-262.5 188.69,-281.5 313.69,-281.5 313.69,-262.5 188.69,-262.5"/>
<text text-anchor="middle" x="251.19" y="-269.5" font-family="Helvetica,sans-Serif" font-size="10.00">std::basic_string&lt; char &gt;</text>
</a>
</g>
<!-- Node10&#45;&gt;Node9 -->
<g id="edge18" class="edge"><title>Node10&#45;&gt;Node9</title>
<path fill="none" stroke="midnightblue" d="M246.507,-252.268C244.073,-242.533 241.218,-231.113 239.316,-223.505"/>
<polygon fill="midnightblue" stroke="midnightblue" points="243.181,-253.397 249.002,-262.25 249.972,-251.7 243.181,-253.397"/>
</g>
<!-- Node11 -->
<g id="node20" class="node"><title>Node11</title>
<a xlink:href="../../de/dd4/classcIDManager.xhtml" target="_top" xlink:title="A class for managing unique IDs.">
<polygon fill="white" stroke="black" points="333.19,-68.5 333.19,-87.5 403.19,-87.5 403.19,-68.5 333.19,-68.5"/>
<text text-anchor="middle" x="368.19" y="-75.5" font-family="Helvetica,sans-Serif" font-size="10.00">cIDManager</text>
</a>
</g>
<!-- Node11&#45;&gt;Node1 -->
<g id="edge20" class="edge"><title>Node11&#45;&gt;Node1</title>
<path fill="none" stroke="#9a32cd" stroke-dasharray="5,2" d="M348.049,-62.4684C335.862,-54.2629 319.72,-44.4002 304.19,-38 280.133,-28.0857 251.628,-21.3072 229.266,-17.0218"/>
<polygon fill="#9a32cd" stroke="#9a32cd" points="346.309,-65.5204 356.523,-68.3355 350.293,-59.7652 346.309,-65.5204"/>
<text text-anchor="middle" x="352.19" y="-41.5" font-family="Helvetica,sans-Serif" font-size="10.00"> blockedID</text>
</g>
<!-- Node12 -->
<g id="node22" class="node"><title>Node12</title>
<polygon fill="white" stroke="#bfbfbf" points="301.69,-136.5 301.69,-155.5 434.69,-155.5 434.69,-136.5 301.69,-136.5"/>
<text text-anchor="middle" x="368.19" y="-143.5" font-family="Helvetica,sans-Serif" font-size="10.00">std::queue&lt; unsigned int &gt;</text>
</g>
<!-- Node12&#45;&gt;Node11 -->
<g id="edge22" class="edge"><title>Node12&#45;&gt;Node11</title>
<path fill="none" stroke="#9a32cd" stroke-dasharray="5,2" d="M368.19,-126.041C368.19,-113.472 368.19,-97.5631 368.19,-87.8411"/>
<polygon fill="#9a32cd" stroke="#9a32cd" points="364.69,-126.372 368.19,-136.372 371.69,-126.372 364.69,-126.372"/>
<text text-anchor="middle" x="383.69" y="-109.5" font-family="Helvetica,sans-Serif" font-size="10.00"> freeID</text>
</g>
<!-- Node13&#45;&gt;Node1 -->
<g id="edge24" class="edge"><title>Node13&#45;&gt;Node1</title>
<path fill="none" stroke="#9a32cd" stroke-dasharray="5,2" d="M142.659,-61.0474C155.203,-48.1111 172.419,-30.3567 182.616,-19.8411"/>
<polygon fill="#9a32cd" stroke="#9a32cd" points="140.005,-58.7561 135.557,-68.3717 145.031,-63.6291 140.005,-58.7561"/>
<text text-anchor="middle" x="193.19" y="-41.5" font-family="Helvetica,sans-Serif" font-size="10.00"> readyQueue</text>
</g>
<!-- Node14&#45;&gt;Node1 -->
<g id="edge28" class="edge"><title>Node14&#45;&gt;Node1</title>
<path fill="none" stroke="#9a32cd" stroke-dasharray="5,2" d="M243.88,-60.7129C237.425,-53.5738 229.6,-45.1994 222.19,-38 215.637,-31.6342 207.887,-24.8842 201.775,-19.7256"/>
<polygon fill="#9a32cd" stroke="#9a32cd" points="241.452,-63.2493 250.721,-68.3816 246.676,-58.5894 241.452,-63.2493"/>
<text text-anchor="middle" x="267.19" y="-41.5" font-family="Helvetica,sans-Serif" font-size="10.00"> blockedVector</text>
</g>
</g>
</svg>
        <g id="navigator" transform="translate(0 0)" fill="#404254">
                <rect fill="#f2f5e9" fill-opacity="0.5" stroke="#606060" stroke-width=".5" x="0" y="0" width="60" height="60"/>
                <use id="zoomplus" xlink:href="#zoomPlus" x="17" y="9" onmousedown="handleZoom(evt,'in')"/>
                <use id="zoomminus" xlink:href="#zoomMin" x="42" y="9" onmousedown="handleZoom(evt,'out')"/>
                <use id="reset" xlink:href="#resetDef" x="30" y="36" onmousedown="handleReset()"/>
                <g id="arrowUp" xlink:href="#dirArrow" transform="translate(30 24)" onmousedown="handlePan(0,-1)">
                  <use xlink:href="#rim" fill="#404040">
                        <set attributeName="fill" to="#808080" begin="arrowUp.mouseover" end="arrowUp.mouseout"/>
                  </use>
                  <path fill="none" stroke="white" stroke-width="1.5" d="M0,-3.0v7 M-2.5,-0.5L0,-3.0L2.5,-0.5"/>
                </g>
                <g id="arrowRight" xlink:href="#dirArrow" transform="rotate(90) translate(36 -43)" onmousedown="handlePan(1,0)">
                  <use xlink:href="#rim" fill="#404040">
                        <set attributeName="fill" to="#808080" begin="arrowRight.mouseover" end="arrowRight.mouseout"/>
                  </use>
                  <path fill="none" stroke="white" stroke-width="1.5" d="M0,-3.0v7 M-2.5,-0.5L0,-3.0L2.5,-0.5"/>
                </g>
                <g id="arrowDown" xlink:href="#dirArrow" transform="rotate(180) translate(-30 -48)" onmousedown="handlePan(0,1)">
                  <use xlink:href="#rim" fill="#404040">
                        <set attributeName="fill" to="#808080" begin="arrowDown.mouseover" end="arrowDown.mouseout"/>
                  </use>
                  <path fill="none" stroke="white" stroke-width="1.5" d="M0,-3.0v7 M-2.5,-0.5L0,-3.0L2.5,-0.5"/>
                </g>
                <g id="arrowLeft" xlink:href="#dirArrow" transform="rotate(270) translate(-36 17)" onmousedown="handlePan(-1,0)">
                  <use xlink:href="#rim" fill="#404040">
                        <set attributeName="fill" to="#808080" begin="arrowLeft.mouseover" end="arrowLeft.mouseout"/>
                  </use>
                  <path fill="none" stroke="white" stroke-width="1.5" d="M0,-3.0v7 M-2.5,-0.5L0,-3.0L2.5,-0.5"/>
                </g>
        </g>
</svg>
