<?xml version="1.0" encoding="UTF-8" standalone="no"?>
<!DOCTYPE svg PUBLIC "-//W3C//DTD SVG 1.1//EN"
 "http://www.w3.org/Graphics/SVG/1.1/DTD/svg11.dtd">
<!-- Generated by graphviz version 2.28.0 (20111025.1818)
 -->
<!-- Title: G Pages: 1 -->
<svg width="226pt" height="66pt"
 viewBox="0.00 0.00 226.00 66.00" xmlns="http://www.w3.org/2000/svg" xmlns:xlink="http://www.w3.org/1999/xlink">
<g id="graph1" class="graph" transform="scale(1 1) rotate(0) translate(4 62)">
<title>G</title>
<polygon fill="white" stroke="white" points="-4,5 -4,-62 223,-62 223,5 -4,5"/>
<!-- Node1 -->
<g id="node1" class="node"><title>Node1</title>
<a xlink:href="d7/d38/classcAbsQueuedDevice.xhtml" target="_top" xlink:title="Abstract class for a device which queues requests.">
<polygon fill="white" stroke="black" points="0,-19.5 0,-38.5 104,-38.5 104,-19.5 0,-19.5"/>
<text text-anchor="middle" x="52" y="-26.5" font-family="Helvetica,sans-Serif" font-size="10.00">cAbsQueuedDevice</text>
</a>
</g>
<!-- Node2 -->
<g id="node3" class="node"><title>Node2</title>
<a xlink:href="dd/d36/classcBlockDevice.xhtml" target="_top" xlink:title="Queued block device.">
<polygon fill="white" stroke="black" points="140.5,-38.5 140.5,-57.5 217.5,-57.5 217.5,-38.5 140.5,-38.5"/>
<text text-anchor="middle" x="179" y="-45.5" font-family="Helvetica,sans-Serif" font-size="10.00">cBlockDevice</text>
</a>
</g>
<!-- Node1&#45;&gt;Node2 -->
<g id="edge2" class="edge"><title>Node1&#45;&gt;Node2</title>
<path fill="none" stroke="midnightblue" d="M114.251,-38.3102C123.198,-39.6701 132.18,-41.0353 140.461,-42.2941"/>
<polygon fill="midnightblue" stroke="midnightblue" points="114.615,-34.8254 104.203,-36.7828 113.563,-41.7459 114.615,-34.8254"/>
</g>
<!-- Node3 -->
<g id="node5" class="node"><title>Node3</title>
<a xlink:href="d9/de9/classcCharDevice.xhtml" target="_top" xlink:title="Queued char device.">
<polygon fill="white" stroke="black" points="142,-0.5 142,-19.5 216,-19.5 216,-0.5 142,-0.5"/>
<text text-anchor="middle" x="179" y="-7.5" font-family="Helvetica,sans-Serif" font-size="10.00">cCharDevice</text>
</a>
</g>
<!-- Node1&#45;&gt;Node3 -->
<g id="edge4" class="edge"><title>Node1&#45;&gt;Node3</title>
<path fill="none" stroke="midnightblue" d="M114.097,-19.7132C123.643,-18.2623 133.232,-16.8048 141.973,-15.4761"/>
<polygon fill="midnightblue" stroke="midnightblue" points="113.563,-16.2541 104.203,-21.2172 114.615,-23.1746 113.563,-16.2541"/>
</g>
</g>
</svg>
