<?xml version="1.0" encoding="UTF-8" standalone="no"?>
<!DOCTYPE svg PUBLIC "-//W3C//DTD SVG 1.1//EN"
 "http://www.w3.org/Graphics/SVG/1.1/DTD/svg11.dtd">
<!-- Generated by graphviz version 2.28.0 (20111025.1818)
 -->
<!-- Title: G Pages: 1 -->
<svg width="202pt" height="104pt"
 viewBox="0.00 0.00 202.00 104.00" xmlns="http://www.w3.org/2000/svg" xmlns:xlink="http://www.w3.org/1999/xlink">
<g id="graph1" class="graph" transform="scale(1 1) rotate(0) translate(4 100)">
<title>G</title>
<polygon fill="white" stroke="white" points="-4,5 -4,-100 199,-100 199,5 -4,5"/>
<!-- Node1 -->
<g id="node1" class="node"><title>Node1</title>
<a xlink:href="db/d0e/classAbstractDevice.xhtml" target="_top" xlink:title="AbstractDevice">
<polygon fill="white" stroke="black" points="0,-38.5 0,-57.5 84,-57.5 84,-38.5 0,-38.5"/>
<text text-anchor="middle" x="42" y="-45.5" font-family="Helvetica,sans-Serif" font-size="10.00">AbstractDevice</text>
</a>
</g>
<!-- Node2 -->
<g id="node3" class="node"><title>Node2</title>
<a xlink:href="db/d6d/classBlockDevice.xhtml" target="_top" xlink:title="BlockDevice">
<polygon fill="white" stroke="black" points="121,-76.5 121,-95.5 193,-95.5 193,-76.5 121,-76.5"/>
<text text-anchor="middle" x="157" y="-83.5" font-family="Helvetica,sans-Serif" font-size="10.00">BlockDevice</text>
</a>
</g>
<!-- Node1&#45;&gt;Node2 -->
<g id="edge2" class="edge"><title>Node1&#45;&gt;Node2</title>
<path fill="none" stroke="midnightblue" d="M81.1402,-60.8259C96.3025,-65.9247 113.444,-71.6891 127.494,-76.4141"/>
<polygon fill="midnightblue" stroke="midnightblue" points="82.1087,-57.4591 71.5147,-57.589 79.8775,-64.0939 82.1087,-57.4591"/>
</g>
<!-- Node3 -->
<g id="node5" class="node"><title>Node3</title>
<a xlink:href="d8/d4f/classCharDevice.xhtml" target="_top" xlink:title="CharDevice">
<polygon fill="white" stroke="black" points="123,-38.5 123,-57.5 191,-57.5 191,-38.5 123,-38.5"/>
<text text-anchor="middle" x="157" y="-45.5" font-family="Helvetica,sans-Serif" font-size="10.00">CharDevice</text>
</a>
</g>
<!-- Node1&#45;&gt;Node3 -->
<g id="edge4" class="edge"><title>Node1&#45;&gt;Node3</title>
<path fill="none" stroke="midnightblue" d="M94.1506,-48C103.902,-48 113.868,-48 122.873,-48"/>
<polygon fill="midnightblue" stroke="midnightblue" points="94.1153,-44.5001 84.1153,-48 94.1152,-51.5001 94.1153,-44.5001"/>
</g>
<!-- Node4 -->
<g id="node7" class="node"><title>Node4</title>
<a xlink:href="dc/d14/classClockDevice.xhtml" target="_top" xlink:title="ClockDevice">
<polygon fill="white" stroke="black" points="120.5,-0.5 120.5,-19.5 193.5,-19.5 193.5,-0.5 120.5,-0.5"/>
<text text-anchor="middle" x="157" y="-7.5" font-family="Helvetica,sans-Serif" font-size="10.00">ClockDevice</text>
</a>
</g>
<!-- Node1&#45;&gt;Node4 -->
<g id="edge6" class="edge"><title>Node1&#45;&gt;Node4</title>
<path fill="none" stroke="midnightblue" d="M81.1402,-35.1741C96.3025,-30.0753 113.444,-24.3109 127.494,-19.5859"/>
<polygon fill="midnightblue" stroke="midnightblue" points="79.8775,-31.9061 71.5147,-38.411 82.1087,-38.5409 79.8775,-31.9061"/>
</g>
</g>
</svg>
