<?xml version="1.0" encoding="UTF-8" standalone="no"?>
<!DOCTYPE svg PUBLIC "-//W3C//DTD SVG 1.1//EN"
 "http://www.w3.org/Graphics/SVG/1.1/DTD/svg11.dtd">
<!-- Generated by graphviz version 2.28.0 (20111025.1818)
 -->
<!-- Title: G Pages: 1 -->
<svg width="186pt" height="142pt"
 viewBox="0.00 0.00 186.00 142.00" xmlns="http://www.w3.org/2000/svg" xmlns:xlink="http://www.w3.org/1999/xlink">
<g id="graph1" class="graph" transform="scale(1 1) rotate(0) translate(4 138)">
<title>G</title>
<polygon fill="white" stroke="white" points="-4,5 -4,-138 183,-138 183,5 -4,5"/>
<!-- Node1 -->
<g id="node1" class="node"><title>Node1</title>
<a xlink:href="d0/d21/classcScheduler.xhtml" target="_top" xlink:title="Abstract Interface for Schedulers.">
<polygon fill="white" stroke="black" points="0.5,-57.5 0.5,-76.5 65.5,-76.5 65.5,-57.5 0.5,-57.5"/>
<text text-anchor="middle" x="33" y="-64.5" font-family="Helvetica,sans-Serif" font-size="10.00">cScheduler</text>
</a>
</g>
<!-- Node2 -->
<g id="node3" class="node"><title>Node2</title>
<a xlink:href="d6/dc3/classcFCFS.xhtml" target="_top" xlink:title="First&#45;Come&#45;First&#45;Serve Scheduler.">
<polygon fill="white" stroke="black" points="116,-114.5 116,-133.5 164,-133.5 164,-114.5 116,-114.5"/>
<text text-anchor="middle" x="140" y="-121.5" font-family="Helvetica,sans-Serif" font-size="10.00">cFCFS</text>
</a>
</g>
<!-- Node1&#45;&gt;Node2 -->
<g id="edge2" class="edge"><title>Node1&#45;&gt;Node2</title>
<path fill="none" stroke="midnightblue" d="M59.7347,-81.6617C72.4047,-88.8082 87.9421,-97.4656 102,-105 107.855,-108.138 114.281,-111.475 120.11,-114.462"/>
<polygon fill="midnightblue" stroke="midnightblue" points="61.1035,-78.4147 50.6768,-76.5348 57.6554,-84.5066 61.1035,-78.4147"/>
</g>
<!-- Node3 -->
<g id="node5" class="node"><title>Node3</title>
<a xlink:href="dd/dc8/classcLottery.xhtml" target="_top" xlink:title="Lottery Scheduler.">
<polygon fill="white" stroke="black" points="114,-76.5 114,-95.5 166,-95.5 166,-76.5 114,-76.5"/>
<text text-anchor="middle" x="140" y="-83.5" font-family="Helvetica,sans-Serif" font-size="10.00">cLottery</text>
</a>
</g>
<!-- Node1&#45;&gt;Node3 -->
<g id="edge4" class="edge"><title>Node1&#45;&gt;Node3</title>
<path fill="none" stroke="midnightblue" d="M75.6142,-74.5302C88.5472,-76.8705 102.402,-79.3775 113.85,-81.449"/>
<polygon fill="midnightblue" stroke="midnightblue" points="75.9669,-71.0372 65.5035,-72.7006 74.7204,-77.9254 75.9669,-71.0372"/>
</g>
<!-- Node4 -->
<g id="node7" class="node"><title>Node4</title>
<a xlink:href="de/d3b/classcMultiLevel.xhtml" target="_top" xlink:title="Multi&#45;Level Queue Scheduler.">
<polygon fill="white" stroke="black" points="107,-38.5 107,-57.5 173,-57.5 173,-38.5 107,-38.5"/>
<text text-anchor="middle" x="140" y="-45.5" font-family="Helvetica,sans-Serif" font-size="10.00">cMultiLevel</text>
</a>
</g>
<!-- Node1&#45;&gt;Node4 -->
<g id="edge6" class="edge"><title>Node1&#45;&gt;Node4</title>
<path fill="none" stroke="midnightblue" d="M75.6142,-59.4698C85.9862,-57.593 96.9512,-55.6088 106.792,-53.8281"/>
<polygon fill="midnightblue" stroke="midnightblue" points="74.7204,-56.0746 65.5035,-61.2994 75.9669,-62.9628 74.7204,-56.0746"/>
</g>
<!-- Node5 -->
<g id="node9" class="node"><title>Node5</title>
<a xlink:href="dc/dcc/classcRoundRobin.xhtml" target="_top" xlink:title="Round Robin Scheduler.">
<polygon fill="white" stroke="black" points="102,-0.5 102,-19.5 178,-19.5 178,-0.5 102,-0.5"/>
<text text-anchor="middle" x="140" y="-7.5" font-family="Helvetica,sans-Serif" font-size="10.00">cRoundRobin</text>
</a>
</g>
<!-- Node1&#45;&gt;Node5 -->
<g id="edge8" class="edge"><title>Node1&#45;&gt;Node5</title>
<path fill="none" stroke="midnightblue" d="M59.7347,-52.3383C72.4047,-45.1918 87.9421,-36.5344 102,-29 107.855,-25.8618 114.281,-22.5253 120.11,-19.5383"/>
<polygon fill="midnightblue" stroke="midnightblue" points="57.6554,-49.4934 50.6768,-57.4652 61.1035,-55.5853 57.6554,-49.4934"/>
</g>
</g>
</svg>
