<?xml version="1.0" encoding="UTF-8" standalone="no"?>
<!DOCTYPE svg PUBLIC "-//W3C//DTD SVG 1.1//EN"
 "http://www.w3.org/Graphics/SVG/1.1/DTD/svg11.dtd">
<!-- Generated by graphviz version 2.28.0 (20111025.1818)
 -->
<!-- Title: G Pages: 1 -->
<svg width="186pt" height="104pt"
 viewBox="0.00 0.00 186.00 104.00" xmlns="http://www.w3.org/2000/svg" xmlns:xlink="http://www.w3.org/1999/xlink">
<g id="graph1" class="graph" transform="scale(1 1) rotate(0) translate(4 100)">
<title>G</title>
<polygon fill="white" stroke="white" points="-4,5 -4,-100 183,-100 183,5 -4,5"/>
<!-- Node1 -->
<g id="node1" class="node"><title>Node1</title>
<a xlink:href="d0/d21/classcScheduler.xhtml" target="_top" xlink:title="Abstract Interface for Schedulers.">
<polygon fill="white" stroke="black" points="0.5,-38.5 0.5,-57.5 65.5,-57.5 65.5,-38.5 0.5,-38.5"/>
<text text-anchor="middle" x="33" y="-45.5" font-family="Helvetica,sans-Serif" font-size="10.00">cScheduler</text>
</a>
</g>
<!-- Node2 -->
<g id="node3" class="node"><title>Node2</title>
<a xlink:href="d6/dc3/classcFCFS.xhtml" target="_top" xlink:title="First&#45;Come&#45;First&#45;Serve Scheduler.">
<polygon fill="white" stroke="black" points="116,-76.5 116,-95.5 164,-95.5 164,-76.5 116,-76.5"/>
<text text-anchor="middle" x="140" y="-83.5" font-family="Helvetica,sans-Serif" font-size="10.00">cFCFS</text>
</a>
</g>
<!-- Node1&#45;&gt;Node2 -->
<g id="edge2" class="edge"><title>Node1&#45;&gt;Node2</title>
<path fill="none" stroke="midnightblue" d="M70.0774,-61.0566C85.1921,-66.5267 102.326,-72.7276 115.73,-77.5784"/>
<polygon fill="midnightblue" stroke="midnightblue" points="71.0902,-57.701 60.4959,-57.589 68.708,-64.2832 71.0902,-57.701"/>
</g>
<!-- Node3 -->
<g id="node5" class="node"><title>Node3</title>
<a xlink:href="dd/dc8/classcLottery.xhtml" target="_top" xlink:title="Lottery Scheduler.">
<polygon fill="white" stroke="black" points="114,-38.5 114,-57.5 166,-57.5 166,-38.5 114,-38.5"/>
<text text-anchor="middle" x="140" y="-45.5" font-family="Helvetica,sans-Serif" font-size="10.00">cLottery</text>
</a>
</g>
<!-- Node1&#45;&gt;Node3 -->
<g id="edge4" class="edge"><title>Node1&#45;&gt;Node3</title>
<path fill="none" stroke="midnightblue" d="M75.6142,-48C88.5472,-48 102.402,-48 113.85,-48"/>
<polygon fill="midnightblue" stroke="midnightblue" points="75.5035,-44.5001 65.5035,-48 75.5034,-51.5001 75.5035,-44.5001"/>
</g>
<!-- Node4 -->
<g id="node7" class="node"><title>Node4</title>
<a xlink:href="dc/dcc/classcRoundRobin.xhtml" target="_top" xlink:title="Round Robin Scheduler.">
<polygon fill="white" stroke="black" points="102,-0.5 102,-19.5 178,-19.5 178,-0.5 102,-0.5"/>
<text text-anchor="middle" x="140" y="-7.5" font-family="Helvetica,sans-Serif" font-size="10.00">cRoundRobin</text>
</a>
</g>
<!-- Node1&#45;&gt;Node4 -->
<g id="edge6" class="edge"><title>Node1&#45;&gt;Node4</title>
<path fill="none" stroke="midnightblue" d="M70.2471,-34.882C84.1346,-29.8561 99.7054,-24.2209 112.513,-19.5859"/>
<polygon fill="midnightblue" stroke="midnightblue" points="68.708,-31.7168 60.4959,-38.411 71.0902,-38.299 68.708,-31.7168"/>
</g>
</g>
</svg>
