<?xml version="1.0" encoding="UTF-8" standalone="no"?>
<!DOCTYPE svg PUBLIC "-//W3C//DTD SVG 1.1//EN"
 "http://www.w3.org/Graphics/SVG/1.1/DTD/svg11.dtd">
<!-- Generated by graphviz version 2.28.0 (20111025.1818)
 -->
<!-- Title: G Pages: 1 -->
<svg width="450pt" height="308pt"
 viewBox="0.00 0.00 450.00 308.00" xmlns="http://www.w3.org/2000/svg" xmlns:xlink="http://www.w3.org/1999/xlink">
<g id="graph1" class="graph" transform="scale(1 1) rotate(0) translate(4 304)">
<title>G</title>
<polygon fill="white" stroke="white" points="-4,5 -4,-304 447,-304 447,5 -4,5"/>
<!-- Node1 -->
<g id="node1" class="node"><title>Node1</title>
<polygon fill="#bfbfbf" stroke="black" points="191.5,-280.5 191.5,-299.5 342.5,-299.5 342.5,-280.5 191.5,-280.5"/>
<text text-anchor="middle" x="267" y="-287.5" font-family="Helvetica,sans-Serif" font-size="10.00">include/utility/process_logger.h</text>
</g>
<!-- Node2 -->
<g id="node3" class="node"><title>Node2</title>
<a xlink:href="../../d2/dd8/scheduler_8h_source.xhtml" target="_top" xlink:title="include/scheduler/scheduler.h">
<polygon fill="white" stroke="black" points="131,-224.5 131,-243.5 277,-243.5 277,-224.5 131,-224.5"/>
<text text-anchor="middle" x="204" y="-231.5" font-family="Helvetica,sans-Serif" font-size="10.00">include/scheduler/scheduler.h</text>
</a>
</g>
<!-- Node1&#45;&gt;Node2 -->
<g id="edge2" class="edge"><title>Node1&#45;&gt;Node2</title>
<path fill="none" stroke="midnightblue" d="M248.96,-273.537C237.727,-263.909 223.681,-251.869 214.306,-243.834"/>
<polygon fill="midnightblue" stroke="midnightblue" points="247.008,-276.473 256.878,-280.324 251.563,-271.159 247.008,-276.473"/>
</g>
<!-- Node9 -->
<g id="node18" class="node"><title>Node9</title>
<a xlink:href="../../db/db5/top_8h_source.xhtml" target="_top" xlink:title="include/top.h">
<polygon fill="white" stroke="black" points="295,-224.5 295,-243.5 367,-243.5 367,-224.5 295,-224.5"/>
<text text-anchor="middle" x="331" y="-231.5" font-family="Helvetica,sans-Serif" font-size="10.00">include/top.h</text>
</a>
</g>
<!-- Node1&#45;&gt;Node9 -->
<g id="edge18" class="edge"><title>Node1&#45;&gt;Node9</title>
<path fill="none" stroke="midnightblue" d="M284.991,-273.82C296.458,-264.145 310.913,-251.948 320.53,-243.834"/>
<polygon fill="midnightblue" stroke="midnightblue" points="282.669,-271.2 277.283,-280.324 287.183,-276.55 282.669,-271.2"/>
</g>
<!-- Node3 -->
<g id="node5" class="node"><title>Node3</title>
<a xlink:href="../../db/d41/fcfs_8h.xhtml" target="_top" xlink:title="include/scheduler/fcfs.h">
<polygon fill="white" stroke="black" points="0,-168.5 0,-187.5 120,-187.5 120,-168.5 0,-168.5"/>
<text text-anchor="middle" x="60" y="-175.5" font-family="Helvetica,sans-Serif" font-size="10.00">include/scheduler/fcfs.h</text>
</a>
</g>
<!-- Node2&#45;&gt;Node3 -->
<g id="edge4" class="edge"><title>Node2&#45;&gt;Node3</title>
<path fill="none" stroke="midnightblue" d="M171.749,-220.906C144.676,-210.754 106.683,-196.506 82.7105,-187.516"/>
<polygon fill="midnightblue" stroke="midnightblue" points="170.591,-224.209 181.183,-224.444 173.048,-217.655 170.591,-224.209"/>
</g>
<!-- Node7 -->
<g id="node13" class="node"><title>Node7</title>
<a xlink:href="../../db/dc3/lottery_8h_source.xhtml" target="_top" xlink:title="include/scheduler/lottery.h">
<polygon fill="white" stroke="black" points="138.5,-168.5 138.5,-187.5 269.5,-187.5 269.5,-168.5 138.5,-168.5"/>
<text text-anchor="middle" x="204" y="-175.5" font-family="Helvetica,sans-Serif" font-size="10.00">include/scheduler/lottery.h</text>
</a>
</g>
<!-- Node2&#45;&gt;Node7 -->
<g id="edge12" class="edge"><title>Node2&#45;&gt;Node7</title>
<path fill="none" stroke="midnightblue" d="M204,-213.805C204,-204.91 204,-194.78 204,-187.751"/>
<polygon fill="midnightblue" stroke="midnightblue" points="200.5,-214.083 204,-224.083 207.5,-214.083 200.5,-214.083"/>
</g>
<!-- Node8 -->
<g id="node15" class="node"><title>Node8</title>
<a xlink:href="../../d9/dd2/round__robin_8h_source.xhtml" target="_top" xlink:title="include/scheduler/round_robin.h">
<polygon fill="white" stroke="black" points="288,-168.5 288,-187.5 442,-187.5 442,-168.5 288,-168.5"/>
<text text-anchor="middle" x="365" y="-175.5" font-family="Helvetica,sans-Serif" font-size="10.00">include/scheduler/round_robin.h</text>
</a>
</g>
<!-- Node2&#45;&gt;Node8 -->
<g id="edge14" class="edge"><title>Node2&#45;&gt;Node8</title>
<path fill="none" stroke="midnightblue" d="M239.265,-221.172C269.581,-211.004 312.57,-196.585 339.608,-187.516"/>
<polygon fill="midnightblue" stroke="midnightblue" points="237.879,-217.945 229.511,-224.444 240.105,-224.582 237.879,-217.945"/>
</g>
<!-- Node4 -->
<g id="node7" class="node"><title>Node4</title>
<a xlink:href="../../d5/d8b/allSchedulers_8h_source.xhtml" target="_top" xlink:title="include/scheduler/allSchedulers.h">
<polygon fill="white" stroke="black" points="131,-112.5 131,-131.5 293,-131.5 293,-112.5 131,-112.5"/>
<text text-anchor="middle" x="212" y="-119.5" font-family="Helvetica,sans-Serif" font-size="10.00">include/scheduler/allSchedulers.h</text>
</a>
</g>
<!-- Node3&#45;&gt;Node4 -->
<g id="edge6" class="edge"><title>Node3&#45;&gt;Node4</title>
<path fill="none" stroke="midnightblue" d="M93.6675,-165.039C122.268,-154.879 162.612,-140.546 188.028,-131.516"/>
<polygon fill="midnightblue" stroke="midnightblue" points="92.3362,-161.798 84.0849,-168.444 94.6796,-168.394 92.3362,-161.798"/>
</g>
<!-- Node5 -->
<g id="node9" class="node"><title>Node5</title>
<a xlink:href="../../d0/daa/kernel_8h.xhtml" target="_top" xlink:title="include/kernel.h">
<polygon fill="white" stroke="black" points="169.5,-56.5 169.5,-75.5 254.5,-75.5 254.5,-56.5 169.5,-56.5"/>
<text text-anchor="middle" x="212" y="-63.5" font-family="Helvetica,sans-Serif" font-size="10.00">include/kernel.h</text>
</a>
</g>
<!-- Node4&#45;&gt;Node5 -->
<g id="edge8" class="edge"><title>Node4&#45;&gt;Node5</title>
<path fill="none" stroke="midnightblue" d="M212,-101.805C212,-92.9102 212,-82.7798 212,-75.7511"/>
<polygon fill="midnightblue" stroke="midnightblue" points="208.5,-102.083 212,-112.083 215.5,-102.083 208.5,-102.083"/>
</g>
<!-- Node6 -->
<g id="node11" class="node"><title>Node6</title>
<a xlink:href="../../d8/dc0/init_8h_source.xhtml" target="_top" xlink:title="include/init.h">
<polygon fill="white" stroke="black" points="176.5,-0.5 176.5,-19.5 247.5,-19.5 247.5,-0.5 176.5,-0.5"/>
<text text-anchor="middle" x="212" y="-7.5" font-family="Helvetica,sans-Serif" font-size="10.00">include/init.h</text>
</a>
</g>
<!-- Node5&#45;&gt;Node6 -->
<g id="edge10" class="edge"><title>Node5&#45;&gt;Node6</title>
<path fill="none" stroke="midnightblue" d="M212,-45.8045C212,-36.9102 212,-26.7798 212,-19.7511"/>
<polygon fill="midnightblue" stroke="midnightblue" points="208.5,-46.083 212,-56.083 215.5,-46.083 208.5,-46.083"/>
</g>
<!-- Node8&#45;&gt;Node4 -->
<g id="edge16" class="edge"><title>Node8&#45;&gt;Node4</title>
<path fill="none" stroke="midnightblue" d="M331.111,-165.039C302.323,-154.879 261.713,-140.546 236.13,-131.516"/>
<polygon fill="midnightblue" stroke="midnightblue" points="330.162,-168.416 340.757,-168.444 332.492,-161.815 330.162,-168.416"/>
</g>
</g>
</svg>
