<?xml version="1.0" encoding="UTF-8" standalone="no"?>
<!DOCTYPE svg PUBLIC "-//W3C//DTD SVG 1.1//EN"
 "http://www.w3.org/Graphics/SVG/1.1/DTD/svg11.dtd">
<!-- Generated by graphviz version 2.28.0 (20111025.1818)
 -->
<!-- Title: G Pages: 1 -->
<!--zoomable 308 -->
<svg id="main" version="1.1" xmlns="http://www.w3.org/2000/svg" xmlns:xlink="http://www.w3.org/1999/xlink" xml:space="preserve" onload="init(evt)">
        <defs>
                <circle id="rim" cx="0" cy="0" r="7"/>
                <circle id="rim2" cx="0" cy="0" r="3.5"/>
                <g id="zoomPlus">
                        <use xlink:href="#rim" fill="#404040">
                                <set attributeName="fill" to="#808080" begin="zoomplus.mouseover" end="zoomplus.mouseout"/>
                        </use>
                        <path d="M-4,0h8M0,-4v8" fill="none" stroke="white" stroke-width="1.5" pointer-events="none"/>
                </g>
                <g id="zoomMin">
                        <use xlink:href="#rim" fill="#404040">
                                <set attributeName="fill" to="#808080" begin="zoomminus.mouseover" end="zoomminus.mouseout"/>
                        </use>
                        <path d="M-4,0h8" fill="none" stroke="white" stroke-width="1.5" pointer-events="none"/>
                </g>
                <g id="dirArrow">
                        <path fill="none" stroke="white" stroke-width="1.5" d="M0,-3.0v7 M-2.5,-0.5L0,-3.0L2.5,-0.5"/>
                </g>
               <g id="resetDef">
                       <use xlink:href="#rim2" fill="#404040">
                               <set attributeName="fill" to="#808080" begin="reset.mouseover" end="reset.mouseout"/>
                       </use>
               </g>
        </defs>

<script type="text/javascript">
var viewWidth = 1587;
var viewHeight = 308;
var sectionId = 'dynsection-0';
</script>
<script xlink:href="../../svgpan.js"/>
<svg id="graph" class="graph">
<g id="viewport">
<title>G</title>
<polygon fill="white" stroke="white" points="-4,5 -4,-304 1584,-304 1584,5 -4,5"/>
<!-- Node1 -->
<g id="node1" class="node"><title>Node1</title>
<polygon fill="#bfbfbf" stroke="black" points="545,-280.5 545,-299.5 649,-299.5 649,-280.5 545,-280.5"/>
<text text-anchor="middle" x="597" y="-287.5" font-family="Helvetica,sans-Serif" font-size="10.00">include/vmm_core.h</text>
</g>
<!-- Node2 -->
<g id="node3" class="node"><title>Node2</title>
<polygon fill="white" stroke="#bfbfbf" points="-0.5,-224.5 -0.5,-243.5 40.5,-243.5 40.5,-224.5 -0.5,-224.5"/>
<text text-anchor="middle" x="20" y="-231.5" font-family="Helvetica,sans-Serif" font-size="10.00">ctime</text>
</g>
<!-- Node1&#45;&gt;Node2 -->
<g id="edge2" class="edge"><title>Node1&#45;&gt;Node2</title>
<path fill="none" stroke="midnightblue" d="M544.692,-287.59C447.571,-284.323 233.06,-274.064 55,-244 53.5307,-243.752 52.0328,-243.472 50.5242,-243.169"/>
<polygon fill="midnightblue" stroke="midnightblue" points="51.1311,-239.718 40.604,-240.914 49.5791,-246.544 51.1311,-239.718"/>
</g>
<!-- Node3 -->
<g id="node5" class="node"><title>Node3</title>
<polygon fill="white" stroke="#bfbfbf" points="480,-0.5 480,-19.5 524,-19.5 524,-0.5 480,-0.5"/>
<text text-anchor="middle" x="502" y="-7.5" font-family="Helvetica,sans-Serif" font-size="10.00">vector</text>
</g>
<!-- Node1&#45;&gt;Node3 -->
<g id="edge4" class="edge"><title>Node1&#45;&gt;Node3</title>
<path fill="none" stroke="midnightblue" d="M544.754,-288.202C458.382,-285.938 290.616,-277.258 243,-244 174.066,-195.851 175.899,-157.696 156,-76 153.896,-67.3636 150.134,-62.6784 156,-56 176.585,-32.5647 388.026,-17.7099 469.882,-12.799"/>
<polygon fill="midnightblue" stroke="midnightblue" points="470.095,-16.2926 479.871,-12.2106 469.683,-9.30472 470.095,-16.2926"/>
</g>
<!-- Node4 -->
<g id="node7" class="node"><title>Node4</title>
<polygon fill="white" stroke="#bfbfbf" points="1236.5,-56.5 1236.5,-75.5 1279.5,-75.5 1279.5,-56.5 1236.5,-56.5"/>
<text text-anchor="middle" x="1258" y="-63.5" font-family="Helvetica,sans-Serif" font-size="10.00">queue</text>
</g>
<!-- Node1&#45;&gt;Node4 -->
<g id="edge6" class="edge"><title>Node1&#45;&gt;Node4</title>
<path fill="none" stroke="midnightblue" d="M649.02,-288.665C790.097,-287.279 1172.26,-280.191 1215,-244 1261.82,-204.356 1262.37,-123.147 1259.89,-86.139"/>
<polygon fill="midnightblue" stroke="midnightblue" points="1263.35,-85.4626 1259.04,-75.7852 1256.37,-86.0397 1263.35,-85.4626"/>
</g>
<!-- Node5 -->
<g id="node9" class="node"><title>Node5</title>
<polygon fill="white" stroke="#bfbfbf" points="135.5,-224.5 135.5,-243.5 176.5,-243.5 176.5,-224.5 135.5,-224.5"/>
<text text-anchor="middle" x="156" y="-231.5" font-family="Helvetica,sans-Serif" font-size="10.00">bitset</text>
</g>
<!-- Node1&#45;&gt;Node5 -->
<g id="edge8" class="edge"><title>Node1&#45;&gt;Node5</title>
<path fill="none" stroke="midnightblue" d="M544.745,-285.581C467.107,-279.966 316.915,-267.048 191,-244 189.534,-243.732 188.039,-243.436 186.533,-243.12"/>
<polygon fill="midnightblue" stroke="midnightblue" points="187.153,-239.671 176.621,-240.818 185.57,-246.489 187.153,-239.671"/>
</g>
<!-- Node6 -->
<g id="node11" class="node"><title>Node6</title>
<polygon fill="white" stroke="#bfbfbf" points="542.5,-0.5 542.5,-19.5 583.5,-19.5 583.5,-0.5 542.5,-0.5"/>
<text text-anchor="middle" x="563" y="-7.5" font-family="Helvetica,sans-Serif" font-size="10.00">string</text>
</g>
<!-- Node1&#45;&gt;Node6 -->
<g id="edge10" class="edge"><title>Node1&#45;&gt;Node6</title>
<path fill="none" stroke="midnightblue" d="M544.839,-288.725C461.478,-287.209 303.388,-279.572 262,-244 239.174,-224.382 243,-209.098 243,-179 243,-179 243,-179 243,-121 243,-75.8741 280.017,-74.8881 321,-56 407.399,-16.1808 439.281,-41.2963 532,-20 532.212,-19.9514 532.424,-19.9022 532.637,-19.8524"/>
<polygon fill="midnightblue" stroke="midnightblue" points="533.6,-23.2188 542.408,-17.332 531.851,-16.4406 533.6,-23.2188"/>
</g>
<!-- Node7 -->
<g id="node13" class="node"><title>Node7</title>
<polygon fill="white" stroke="#bfbfbf" points="165.5,-56.5 165.5,-75.5 214.5,-75.5 214.5,-56.5 165.5,-56.5"/>
<text text-anchor="middle" x="190" y="-63.5" font-family="Helvetica,sans-Serif" font-size="10.00">string.h</text>
</g>
<!-- Node1&#45;&gt;Node7 -->
<g id="edge12" class="edge"><title>Node1&#45;&gt;Node7</title>
<path fill="none" stroke="midnightblue" d="M544.965,-287.891C428.288,-284.865 153.765,-274.544 126,-244 82.6388,-196.299 144.116,-117.002 174.6,-83.1356"/>
<polygon fill="midnightblue" stroke="midnightblue" points="177.389,-85.2736 181.599,-75.5511 172.245,-80.5262 177.389,-85.2736"/>
</g>
<!-- Node8 -->
<g id="node15" class="node"><title>Node8</title>
<polygon fill="white" stroke="#bfbfbf" points="289.5,-0.5 289.5,-19.5 348.5,-19.5 348.5,-0.5 289.5,-0.5"/>
<text text-anchor="middle" x="319" y="-7.5" font-family="Helvetica,sans-Serif" font-size="10.00">inttypes.h</text>
</g>
<!-- Node1&#45;&gt;Node8 -->
<g id="edge14" class="edge"><title>Node1&#45;&gt;Node8</title>
<path fill="none" stroke="midnightblue" d="M544.929,-289.808C434.874,-290.624 182.838,-287.525 111,-244 81.5831,-226.177 69,-213.395 69,-179 69,-179 69,-179 69,-121 69,-30.3429 208.434,-13.7434 279.039,-11.1493"/>
<polygon fill="midnightblue" stroke="midnightblue" points="279.445,-14.6391 289.34,-10.8524 279.243,-7.64202 279.445,-14.6391"/>
</g>
<!-- Node9 -->
<g id="node17" class="node"><title>Node9</title>
<polygon fill="white" stroke="#bfbfbf" points="1232,-0.5 1232,-19.5 1284,-19.5 1284,-0.5 1232,-0.5"/>
<text text-anchor="middle" x="1258" y="-7.5" font-family="Helvetica,sans-Serif" font-size="10.00">sstream</text>
</g>
<!-- Node1&#45;&gt;Node9 -->
<g id="edge16" class="edge"><title>Node1&#45;&gt;Node9</title>
<path fill="none" stroke="midnightblue" d="M649.019,-284.999C795.528,-273.039 1201,-234.891 1201,-179 1201,-179 1201,-179 1201,-121 1201,-84.3005 1226.32,-47.6567 1243.21,-27.2973"/>
<polygon fill="midnightblue" stroke="midnightblue" points="1245.95,-29.475 1249.83,-19.6161 1240.65,-24.9037 1245.95,-29.475"/>
</g>
<!-- Node10 -->
<g id="node19" class="node"><title>Node10</title>
<polygon fill="white" stroke="#bfbfbf" points="833,-56.5 833,-75.5 961,-75.5 961,-56.5 833,-56.5"/>
<text text-anchor="middle" x="897" y="-63.5" font-family="Helvetica,sans-Serif" font-size="10.00">boost/dynamic_bitset.hpp</text>
</g>
<!-- Node1&#45;&gt;Node10 -->
<g id="edge18" class="edge"><title>Node1&#45;&gt;Node10</title>
<path fill="none" stroke="midnightblue" d="M649.176,-282.752C702.275,-275.514 780.075,-262.208 804,-244 857.821,-203.039 883.589,-121.896 892.828,-85.4647"/>
<polygon fill="midnightblue" stroke="midnightblue" points="896.244,-86.2289 895.178,-75.6879 889.438,-84.5932 896.244,-86.2289"/>
</g>
<!-- Node11 -->
<g id="node21" class="node"><title>Node11</title>
<a xlink:href="../../dc/da7/cpu_8h.xhtml" target="_top" xlink:title="cpu.h">
<polygon fill="white" stroke="black" points="553.5,-168.5 553.5,-187.5 594.5,-187.5 594.5,-168.5 553.5,-168.5"/>
<text text-anchor="middle" x="574" y="-175.5" font-family="Helvetica,sans-Serif" font-size="10.00">cpu.h</text>
</a>
</g>
<!-- Node1&#45;&gt;Node11 -->
<g id="edge20" class="edge"><title>Node1&#45;&gt;Node11</title>
<path fill="none" stroke="midnightblue" d="M591.352,-280.368C584.292,-262.617 575.274,-221.666 572.678,-197.597"/>
<polygon fill="midnightblue" stroke="midnightblue" points="576.167,-197.316 571.961,-187.591 569.185,-197.816 576.167,-197.316"/>
</g>
<!-- Node14 -->
<g id="node29" class="node"><title>Node14</title>
<a xlink:href="../../d5/dee/data__structs_8h.xhtml" target="_top" xlink:title="data_structs.h">
<polygon fill="white" stroke="black" points="543.5,-56.5 543.5,-75.5 622.5,-75.5 622.5,-56.5 543.5,-56.5"/>
<text text-anchor="middle" x="583" y="-63.5" font-family="Helvetica,sans-Serif" font-size="10.00">data_structs.h</text>
</a>
</g>
<!-- Node1&#45;&gt;Node14 -->
<g id="edge72" class="edge"><title>Node1&#45;&gt;Node14</title>
<path fill="none" stroke="midnightblue" d="M582.707,-280.228C550.278,-259.365 471.723,-203.165 443,-132 426.788,-91.8328 486.863,-76.4755 533.352,-70.6114"/>
<polygon fill="midnightblue" stroke="midnightblue" points="533.794,-74.0837 543.331,-69.4678 532.997,-67.1292 533.794,-74.0837"/>
</g>
<!-- Node16 -->
<g id="node37" class="node"><title>Node16</title>
<a xlink:href="../../d5/dfd/iniReader_8h.xhtml" target="_top" xlink:title="iniReader.h">
<polygon fill="white" stroke="black" points="641,-56.5 641,-75.5 707,-75.5 707,-56.5 641,-56.5"/>
<text text-anchor="middle" x="674" y="-63.5" font-family="Helvetica,sans-Serif" font-size="10.00">iniReader.h</text>
</a>
</g>
<!-- Node1&#45;&gt;Node16 -->
<g id="edge74" class="edge"><title>Node1&#45;&gt;Node16</title>
<path fill="none" stroke="midnightblue" d="M600.018,-280.297C611.396,-247.494 651.842,-130.884 667.626,-85.3774"/>
<polygon fill="midnightblue" stroke="midnightblue" points="670.948,-86.4785 670.919,-75.8837 664.335,-84.1846 670.948,-86.4785"/>
</g>
<!-- Node22 -->
<g id="node60" class="node"><title>Node22</title>
<a xlink:href="../../d4/d03/exceptions_8h.xhtml" target="_top" xlink:title="exceptions.h">
<polygon fill="white" stroke="black" points="347,-56.5 347,-75.5 419,-75.5 419,-56.5 347,-56.5"/>
<text text-anchor="middle" x="383" y="-63.5" font-family="Helvetica,sans-Serif" font-size="10.00">exceptions.h</text>
</a>
</g>
<!-- Node1&#45;&gt;Node22 -->
<g id="edge76" class="edge"><title>Node1&#45;&gt;Node22</title>
<path fill="none" stroke="midnightblue" d="M563.283,-280.469C504.665,-263.574 385.763,-219.668 339,-132 329.422,-114.044 345.993,-94.9167 361.464,-82.0959"/>
<polygon fill="midnightblue" stroke="midnightblue" points="364.004,-84.5562 369.773,-75.6696 359.721,-79.0192 364.004,-84.5562"/>
</g>
<!-- Node23 -->
<g id="node62" class="node"><title>Node23</title>
<a xlink:href="../../d9/dd2/round__robin_8h.xhtml" target="_top" xlink:title="round_robin.h">
<polygon fill="white" stroke="black" points="1009.5,-168.5 1009.5,-187.5 1084.5,-187.5 1084.5,-168.5 1009.5,-168.5"/>
<text text-anchor="middle" x="1047" y="-175.5" font-family="Helvetica,sans-Serif" font-size="10.00">round_robin.h</text>
</a>
</g>
<!-- Node1&#45;&gt;Node23 -->
<g id="edge78" class="edge"><title>Node1&#45;&gt;Node23</title>
<path fill="none" stroke="midnightblue" d="M649.149,-283.088C703.772,-276.244 791.778,-263.369 866,-244 920.779,-229.705 982.396,-205.831 1017.76,-191.339"/>
<polygon fill="midnightblue" stroke="midnightblue" points="1019.11,-194.57 1027.01,-187.516 1016.44,-188.1 1019.11,-194.57"/>
</g>
<!-- Node27 -->
<g id="node76" class="node"><title>Node27</title>
<a xlink:href="../../d7/d62/io__control_8h_source.xhtml" target="_top" xlink:title="io_control.h">
<polygon fill="white" stroke="black" points="451.5,-112.5 451.5,-131.5 518.5,-131.5 518.5,-112.5 451.5,-112.5"/>
<text text-anchor="middle" x="485" y="-119.5" font-family="Helvetica,sans-Serif" font-size="10.00">io_control.h</text>
</a>
</g>
<!-- Node1&#45;&gt;Node27 -->
<g id="edge98" class="edge"><title>Node1&#45;&gt;Node27</title>
<path fill="none" stroke="midnightblue" d="M590.978,-280.075C573.12,-253.606 520.225,-175.209 496.611,-140.21"/>
<polygon fill="midnightblue" stroke="midnightblue" points="499.275,-137.9 490.781,-131.568 493.473,-141.815 499.275,-137.9"/>
</g>
<!-- Node28 -->
<g id="node85" class="node"><title>Node28</title>
<a xlink:href="../../d1/df8/allPR_8h_source.xhtml" target="_top" xlink:title="Policy/allPR.h">
<polygon fill="white" stroke="black" points="1305.5,-224.5 1305.5,-243.5 1384.5,-243.5 1384.5,-224.5 1305.5,-224.5"/>
<text text-anchor="middle" x="1345" y="-231.5" font-family="Helvetica,sans-Serif" font-size="10.00">Policy/allPR.h</text>
</a>
</g>
<!-- Node1&#45;&gt;Node28 -->
<g id="edge114" class="edge"><title>Node1&#45;&gt;Node28</title>
<path fill="none" stroke="midnightblue" d="M649.397,-287.399C765.352,-283.464 1052.31,-271.558 1291,-244 1292.3,-243.85 1293.62,-243.69 1294.95,-243.521"/>
<polygon fill="midnightblue" stroke="midnightblue" points="1295.83,-246.932 1305.25,-242.089 1294.87,-239.999 1295.83,-246.932"/>
</g>
<!-- Node30 -->
<g id="node91" class="node"><title>Node30</title>
<a xlink:href="../../dc/dff/frameAlloc_8h_source.xhtml" target="_top" xlink:title="Policy/frameAlloc.h">
<polygon fill="white" stroke="black" points="727.5,-112.5 727.5,-131.5 828.5,-131.5 828.5,-112.5 727.5,-112.5"/>
<text text-anchor="middle" x="778" y="-119.5" font-family="Helvetica,sans-Serif" font-size="10.00">Policy/frameAlloc.h</text>
</a>
</g>
<!-- Node1&#45;&gt;Node30 -->
<g id="edge166" class="edge"><title>Node1&#45;&gt;Node30</title>
<path fill="none" stroke="midnightblue" d="M649.278,-283.753C699.192,-277.536 769.222,-265.241 786,-244 809.397,-214.379 796.096,-166.895 786.025,-141.101"/>
<polygon fill="midnightblue" stroke="midnightblue" points="789.221,-139.669 782.151,-131.777 782.756,-142.355 789.221,-139.669"/>
</g>
<!-- Node36 -->
<g id="node117" class="node"><title>Node36</title>
<a xlink:href="../../de/d9a/strConv_8h_source.xhtml" target="_top" xlink:title="utility/strConv.h">
<polygon fill="white" stroke="black" points="271,-224.5 271,-243.5 357,-243.5 357,-224.5 271,-224.5"/>
<text text-anchor="middle" x="314" y="-231.5" font-family="Helvetica,sans-Serif" font-size="10.00">utility/strConv.h</text>
</a>
</g>
<!-- Node1&#45;&gt;Node36 -->
<g id="edge162" class="edge"><title>Node1&#45;&gt;Node36</title>
<path fill="none" stroke="midnightblue" d="M552.158,-280.444C501.936,-270.861 420.596,-255.34 367.2,-245.151"/>
<polygon fill="midnightblue" stroke="midnightblue" points="367.719,-241.687 357.24,-243.251 366.407,-248.563 367.719,-241.687"/>
</g>
<!-- Node37 -->
<g id="node121" class="node"><title>Node37</title>
<a xlink:href="../../de/d7e/cleaningDaemon_8h.xhtml" target="_top" xlink:title="Policy/cleaningDaemon.h">
<polygon fill="white" stroke="black" points="649,-224.5 649,-243.5 777,-243.5 777,-224.5 649,-224.5"/>
<text text-anchor="middle" x="713" y="-231.5" font-family="Helvetica,sans-Serif" font-size="10.00">Policy/cleaningDaemon.h</text>
</a>
</g>
<!-- Node1&#45;&gt;Node37 -->
<g id="edge168" class="edge"><title>Node1&#45;&gt;Node37</title>
<path fill="none" stroke="midnightblue" d="M610.523,-280.324C627.555,-271.507 656.862,-257.753 679.875,-247.707"/>
<polygon fill="midnightblue" stroke="midnightblue" points="681.495,-250.821 689.299,-243.655 678.729,-244.39 681.495,-250.821"/>
</g>
<!-- Node11&#45;&gt;Node1 -->
<g id="edge70" class="edge"><title>Node11&#45;&gt;Node1</title>
<path fill="none" stroke="midnightblue" d="M579.632,-187.591C586.689,-205.308 595.71,-246.254 598.316,-270.348"/>
<polygon fill="midnightblue" stroke="midnightblue" points="594.829,-270.646 599.038,-280.368 601.81,-270.143 594.829,-270.646"/>
</g>
<!-- Node12 -->
<g id="node23" class="node"><title>Node12</title>
<a xlink:href="../../d2/df1/mmu_8h.xhtml" target="_top" xlink:title="mmu.h">
<polygon fill="white" stroke="black" points="347.5,-112.5 347.5,-131.5 394.5,-131.5 394.5,-112.5 347.5,-112.5"/>
<text text-anchor="middle" x="371" y="-119.5" font-family="Helvetica,sans-Serif" font-size="10.00">mmu.h</text>
</a>
</g>
<!-- Node11&#45;&gt;Node12 -->
<g id="edge22" class="edge"><title>Node11&#45;&gt;Node12</title>
<path fill="none" stroke="midnightblue" d="M553.418,-171.525C518.405,-162.211 446.938,-143.2 404.595,-131.937"/>
<polygon fill="midnightblue" stroke="midnightblue" points="405.316,-128.507 394.753,-129.318 403.517,-135.272 405.316,-128.507"/>
</g>
<!-- Node11&#45;&gt;Node14 -->
<g id="edge58" class="edge"><title>Node11&#45;&gt;Node14</title>
<path fill="none" stroke="midnightblue" d="M572.607,-168.127C570.858,-155.574 568.387,-131.938 571,-112 572.156,-103.181 574.534,-93.6328 576.87,-85.6098"/>
<polygon fill="midnightblue" stroke="midnightblue" points="580.285,-86.4151 579.912,-75.8268 573.601,-84.3366 580.285,-86.4151"/>
</g>
<!-- Node11&#45;&gt;Node16 -->
<g id="edge60" class="edge"><title>Node11&#45;&gt;Node16</title>
<path fill="none" stroke="midnightblue" d="M577.185,-168.205C582.321,-154.906 593.451,-129.388 609,-112 620.19,-99.4858 635.525,-88.6573 648.49,-80.7604"/>
<polygon fill="midnightblue" stroke="midnightblue" points="650.548,-83.6116 657.419,-75.5462 647.018,-77.5669 650.548,-83.6116"/>
</g>
<!-- Node20 -->
<g id="node51" class="node"><title>Node20</title>
<a xlink:href="../../d1/d8c/logger_8h.xhtml" target="_top" xlink:title="utility/logger.h">
<polygon fill="white" stroke="black" points="737.5,-56.5 737.5,-75.5 814.5,-75.5 814.5,-56.5 737.5,-56.5"/>
<text text-anchor="middle" x="776" y="-63.5" font-family="Helvetica,sans-Serif" font-size="10.00">utility/logger.h</text>
</a>
</g>
<!-- Node11&#45;&gt;Node20 -->
<g id="edge62" class="edge"><title>Node11&#45;&gt;Node20</title>
<path fill="none" stroke="midnightblue" d="M589.851,-168.368C624.883,-149.292 709.115,-103.422 751.199,-80.5054"/>
<polygon fill="midnightblue" stroke="midnightblue" points="753.115,-83.4477 760.223,-75.5914 749.767,-77.3001 753.115,-83.4477"/>
</g>
<!-- Node12&#45;&gt;Node7 -->
<g id="edge26" class="edge"><title>Node12&#45;&gt;Node7</title>
<path fill="none" stroke="midnightblue" d="M347.337,-113.94C315.893,-104.559 260.125,-87.9213 224.129,-77.1821"/>
<polygon fill="midnightblue" stroke="midnightblue" points="225.12,-73.8255 214.537,-74.3204 223.119,-80.5333 225.12,-73.8255"/>
</g>
<!-- Node12&#45;&gt;Node8 -->
<g id="edge28" class="edge"><title>Node12&#45;&gt;Node8</title>
<path fill="none" stroke="midnightblue" d="M363.174,-112.3C355.758,-103.65 344.776,-89.7257 338,-76 330.681,-61.1749 325.67,-43.0235 322.639,-29.6736"/>
<polygon fill="midnightblue" stroke="midnightblue" points="326.039,-28.8311 320.553,-19.7675 319.189,-30.2742 326.039,-28.8311"/>
</g>
<!-- Node13 -->
<g id="node25" class="node"><title>Node13</title>
<polygon fill="white" stroke="#bfbfbf" points="437.5,-56.5 437.5,-75.5 486.5,-75.5 486.5,-56.5 437.5,-56.5"/>
<text text-anchor="middle" x="462" y="-63.5" font-family="Helvetica,sans-Serif" font-size="10.00">cassert</text>
</g>
<!-- Node12&#45;&gt;Node13 -->
<g id="edge24" class="edge"><title>Node12&#45;&gt;Node13</title>
<path fill="none" stroke="midnightblue" d="M385.621,-112.324C399.949,-103.822 422.013,-90.7288 438.749,-80.7975"/>
<polygon fill="midnightblue" stroke="midnightblue" points="440.602,-83.7677 447.416,-75.6545 437.03,-77.7478 440.602,-83.7677"/>
</g>
<!-- Node12&#45;&gt;Node14 -->
<g id="edge30" class="edge"><title>Node12&#45;&gt;Node14</title>
<path fill="none" stroke="midnightblue" d="M394.907,-114.91C429.968,-105.98 495.905,-89.1846 539.646,-78.0431"/>
<polygon fill="midnightblue" stroke="midnightblue" points="540.612,-81.4089 549.438,-75.5488 538.884,-74.6255 540.612,-81.4089"/>
</g>
<!-- Node12&#45;&gt;Node16 -->
<g id="edge42" class="edge"><title>Node12&#45;&gt;Node16</title>
<path fill="none" stroke="midnightblue" d="M394.711,-117.181C438.916,-110 537.139,-93.7588 630.768,-75.9845"/>
<polygon fill="midnightblue" stroke="midnightblue" points="631.522,-79.404 640.688,-74.092 630.21,-72.528 631.522,-79.404"/>
</g>
<!-- Node14&#45;&gt;Node3 -->
<g id="edge32" class="edge"><title>Node14&#45;&gt;Node3</title>
<path fill="none" stroke="midnightblue" d="M569.986,-56.324C557.468,-47.979 538.318,-35.2122 523.529,-25.3524"/>
<polygon fill="midnightblue" stroke="midnightblue" points="525.244,-22.2894 514.982,-19.6545 521.361,-28.1137 525.244,-22.2894"/>
</g>
<!-- Node14&#45;&gt;Node6 -->
<g id="edge34" class="edge"><title>Node14&#45;&gt;Node6</title>
<path fill="none" stroke="midnightblue" d="M579.697,-56.083C577.018,-48.8486 573.151,-38.4087 569.814,-29.3968"/>
<polygon fill="midnightblue" stroke="midnightblue" points="572.996,-27.9129 566.241,-19.7511 566.432,-30.3442 572.996,-27.9129"/>
</g>
<!-- Node14&#45;&gt;Node8 -->
<g id="edge40" class="edge"><title>Node14&#45;&gt;Node8</title>
<path fill="none" stroke="midnightblue" d="M543.477,-56.9157C493.655,-46.7249 408.512,-29.3092 358.637,-19.1075"/>
<polygon fill="midnightblue" stroke="midnightblue" points="359.053,-15.6203 348.555,-17.0452 357.65,-22.4783 359.053,-15.6203"/>
</g>
<!-- Node14&#45;&gt;Node9 -->
<g id="edge36" class="edge"><title>Node14&#45;&gt;Node9</title>
<path fill="none" stroke="midnightblue" d="M622.522,-57.3556C625.722,-56.8543 628.911,-56.3935 632,-56 747.428,-41.2959 1105.99,-19.8043 1221.64,-13.0859"/>
<polygon fill="midnightblue" stroke="midnightblue" points="1221.97,-16.573 1231.75,-12.5005 1221.56,-9.58467 1221.97,-16.573"/>
</g>
<!-- Node15 -->
<g id="node34" class="node"><title>Node15</title>
<polygon fill="white" stroke="#bfbfbf" points="722,-0.5 722,-19.5 776,-19.5 776,-0.5 722,-0.5"/>
<text text-anchor="middle" x="749" y="-7.5" font-family="Helvetica,sans-Serif" font-size="10.00">iostream</text>
</g>
<!-- Node14&#45;&gt;Node15 -->
<g id="edge38" class="edge"><title>Node14&#45;&gt;Node15</title>
<path fill="none" stroke="midnightblue" d="M609.303,-56.4435C637.351,-47.3196 681.944,-32.8133 713.184,-22.6509"/>
<polygon fill="midnightblue" stroke="midnightblue" points="714.393,-25.9383 722.82,-19.5164 712.228,-19.2816 714.393,-25.9383"/>
</g>
<!-- Node16&#45;&gt;Node3 -->
<g id="edge50" class="edge"><title>Node16&#45;&gt;Node3</title>
<path fill="none" stroke="midnightblue" d="M646.746,-56.4435C616.146,-46.8366 566.539,-31.2622 534.09,-21.0749"/>
<polygon fill="midnightblue" stroke="midnightblue" points="534.793,-17.6271 524.204,-17.971 532.696,-24.3057 534.793,-17.6271"/>
</g>
<!-- Node16&#45;&gt;Node6 -->
<g id="edge46" class="edge"><title>Node16&#45;&gt;Node6</title>
<path fill="none" stroke="midnightblue" d="M656.166,-56.324C638.284,-47.6247 610.525,-34.1202 589.954,-24.113"/>
<polygon fill="midnightblue" stroke="midnightblue" points="591.313,-20.8819 580.79,-19.6545 588.251,-27.1765 591.313,-20.8819"/>
</g>
<!-- Node16&#45;&gt;Node9 -->
<g id="edge54" class="edge"><title>Node16&#45;&gt;Node9</title>
<path fill="none" stroke="midnightblue" d="M707.096,-59.159C714.301,-58.0064 721.895,-56.8822 729,-56 913.615,-33.0778 1135.94,-18.3283 1221.77,-13.1128"/>
<polygon fill="midnightblue" stroke="midnightblue" points="1222.01,-16.6047 1231.78,-12.51 1221.59,-9.61731 1222.01,-16.6047"/>
</g>
<!-- Node16&#45;&gt;Node15 -->
<g id="edge52" class="edge"><title>Node16&#45;&gt;Node15</title>
<path fill="none" stroke="midnightblue" d="M686.05,-56.324C697.463,-48.1066 714.831,-35.6017 728.435,-25.8069"/>
<polygon fill="midnightblue" stroke="midnightblue" points="730.66,-28.5174 736.731,-19.8339 726.57,-22.8366 730.66,-28.5174"/>
</g>
<!-- Node17 -->
<g id="node39" class="node"><title>Node17</title>
<polygon fill="white" stroke="#bfbfbf" points="602,-0.5 602,-19.5 650,-19.5 650,-0.5 602,-0.5"/>
<text text-anchor="middle" x="626" y="-7.5" font-family="Helvetica,sans-Serif" font-size="10.00">stdlib.h</text>
</g>
<!-- Node16&#45;&gt;Node17 -->
<g id="edge44" class="edge"><title>Node16&#45;&gt;Node17</title>
<path fill="none" stroke="midnightblue" d="M666.074,-56.083C659.154,-48.2982 648.935,-36.8015 640.548,-27.3665"/>
<polygon fill="midnightblue" stroke="midnightblue" points="643.038,-24.8999 633.779,-19.7511 637.806,-29.5505 643.038,-24.8999"/>
</g>
<!-- Node18 -->
<g id="node42" class="node"><title>Node18</title>
<polygon fill="white" stroke="#bfbfbf" points="668.5,-0.5 668.5,-19.5 703.5,-19.5 703.5,-0.5 668.5,-0.5"/>
<text text-anchor="middle" x="686" y="-7.5" font-family="Helvetica,sans-Serif" font-size="10.00">map</text>
</g>
<!-- Node16&#45;&gt;Node18 -->
<g id="edge48" class="edge"><title>Node16&#45;&gt;Node18</title>
<path fill="none" stroke="midnightblue" d="M675.982,-56.083C677.572,-48.9272 679.859,-38.6353 681.846,-29.6911"/>
<polygon fill="midnightblue" stroke="midnightblue" points="685.303,-30.2722 684.055,-19.7511 678.469,-28.7537 685.303,-30.2722"/>
</g>
<!-- Node19 -->
<g id="node47" class="node"><title>Node19</title>
<polygon fill="white" stroke="#bfbfbf" points="794,-0.5 794,-19.5 844,-19.5 844,-0.5 794,-0.5"/>
<text text-anchor="middle" x="819" y="-7.5" font-family="Helvetica,sans-Serif" font-size="10.00">fstream</text>
</g>
<!-- Node16&#45;&gt;Node19 -->
<g id="edge56" class="edge"><title>Node16&#45;&gt;Node19</title>
<path fill="none" stroke="midnightblue" d="M696.976,-56.4435C721.157,-47.4381 759.418,-33.1891 786.646,-23.049"/>
<polygon fill="midnightblue" stroke="midnightblue" points="787.982,-26.2864 796.132,-19.5164 785.539,-19.7265 787.982,-26.2864"/>
</g>
<!-- Node20&#45;&gt;Node15 -->
<g id="edge66" class="edge"><title>Node20&#45;&gt;Node15</title>
<path fill="none" stroke="midnightblue" d="M771.541,-56.083C767.846,-48.6913 762.477,-37.9533 757.906,-28.8111"/>
<polygon fill="midnightblue" stroke="midnightblue" points="760.978,-27.1301 753.376,-19.7511 754.717,-30.2606 760.978,-27.1301"/>
</g>
<!-- Node20&#45;&gt;Node19 -->
<g id="edge68" class="edge"><title>Node20&#45;&gt;Node19</title>
<path fill="none" stroke="midnightblue" d="M783.101,-56.083C789.237,-48.3768 798.27,-37.0333 805.739,-27.6531"/>
<polygon fill="midnightblue" stroke="midnightblue" points="808.54,-29.7542 812.032,-19.7511 803.064,-25.3936 808.54,-29.7542"/>
</g>
<!-- Node21 -->
<g id="node53" class="node"><title>Node21</title>
<polygon fill="white" stroke="#bfbfbf" points="1035,-0.5 1035,-19.5 1087,-19.5 1087,-0.5 1035,-0.5"/>
<text text-anchor="middle" x="1061" y="-7.5" font-family="Helvetica,sans-Serif" font-size="10.00">assert.h</text>
</g>
<!-- Node20&#45;&gt;Node21 -->
<g id="edge64" class="edge"><title>Node20&#45;&gt;Node21</title>
<path fill="none" stroke="midnightblue" d="M814.733,-57.6611C869.952,-47.1987 970.573,-28.1336 1024.52,-17.9114"/>
<polygon fill="midnightblue" stroke="midnightblue" points="1025.49,-21.2906 1034.66,-15.9901 1024.19,-14.413 1025.49,-21.2906"/>
</g>
<!-- Node23&#45;&gt;Node14 -->
<g id="edge84" class="edge"><title>Node23&#45;&gt;Node14</title>
<path fill="none" stroke="midnightblue" d="M1023.02,-168.49C984.31,-154.997 905.446,-128.533 837,-112 750.154,-91.0229 724.768,-92.2417 632.616,-76.0793"/>
<polygon fill="midnightblue" stroke="midnightblue" points="633.033,-72.5989 622.576,-74.2964 631.809,-79.491 633.033,-72.5989"/>
</g>
<!-- Node23&#45;&gt;Node16 -->
<g id="edge82" class="edge"><title>Node23&#45;&gt;Node16</title>
<path fill="none" stroke="midnightblue" d="M1041.42,-168.05C1031.84,-153.559 1010.8,-125.249 985,-112 882.789,-59.5182 842.591,-93.2784 729,-76 725.129,-75.4112 721.107,-74.7836 717.079,-74.1442"/>
<polygon fill="midnightblue" stroke="midnightblue" points="717.566,-70.6775 707.137,-72.5461 716.455,-77.5888 717.566,-70.6775"/>
</g>
<!-- Node23&#45;&gt;Node20 -->
<g id="edge96" class="edge"><title>Node23&#45;&gt;Node20</title>
<path fill="none" stroke="midnightblue" d="M1046.44,-168.304C1045.04,-154.177 1040.14,-126.38 1023,-112 956.563,-56.264 915.362,-89.7251 824.628,-75.9439"/>
<polygon fill="midnightblue" stroke="midnightblue" points="824.95,-72.4491 814.508,-74.2427 823.79,-79.3522 824.95,-72.4491"/>
</g>
<!-- Node23&#45;&gt;Node21 -->
<g id="edge80" class="edge"><title>Node23&#45;&gt;Node21</title>
<path fill="none" stroke="midnightblue" d="M1084.55,-169.703C1105.61,-163.483 1130.16,-152.194 1143,-132 1150.64,-119.985 1156.94,-83.429 1140,-56 1130.25,-40.2078 1112.78,-29.4288 1096.75,-22.3895"/>
<polygon fill="midnightblue" stroke="midnightblue" points="1097.62,-18.9663 1087.04,-18.4785 1095.01,-25.4599 1097.62,-18.9663"/>
</g>
<!-- Node24 -->
<g id="node67" class="node"><title>Node24</title>
<a xlink:href="../../df/db9/id_8h.xhtml" target="_top" xlink:title="utility/id.h">
<polygon fill="white" stroke="black" points="1075.5,-112.5 1075.5,-131.5 1134.5,-131.5 1134.5,-112.5 1075.5,-112.5"/>
<text text-anchor="middle" x="1105" y="-119.5" font-family="Helvetica,sans-Serif" font-size="10.00">utility/id.h</text>
</a>
</g>
<!-- Node23&#45;&gt;Node24 -->
<g id="edge86" class="edge"><title>Node23&#45;&gt;Node24</title>
<path fill="none" stroke="midnightblue" d="M1056.32,-168.324C1064.89,-160.341 1077.81,-148.313 1088.19,-138.653"/>
<polygon fill="midnightblue" stroke="midnightblue" points="1090.58,-141.21 1095.51,-131.834 1085.81,-136.086 1090.58,-141.21"/>
</g>
<!-- Node24&#45;&gt;Node4 -->
<g id="edge94" class="edge"><title>Node24&#45;&gt;Node4</title>
<path fill="none" stroke="midnightblue" d="M1129.24,-112.444C1155.62,-103.133 1197.89,-88.2163 1226.74,-78.0315"/>
<polygon fill="midnightblue" stroke="midnightblue" points="1228.08,-81.2721 1236.34,-74.6433 1225.75,-74.6711 1228.08,-81.2721"/>
</g>
<!-- Node24&#45;&gt;Node6 -->
<g id="edge92" class="edge"><title>Node24&#45;&gt;Node6</title>
<path fill="none" stroke="midnightblue" d="M1088,-112.397C1054.52,-95.5219 982.246,-59.4152 970,-56 811.035,-11.6691 760.166,-50.7484 593.616,-19.6775"/>
<polygon fill="midnightblue" stroke="midnightblue" points="594.005,-16.1882 583.524,-17.736 592.682,-23.0621 594.005,-16.1882"/>
</g>
<!-- Node25 -->
<g id="node69" class="node"><title>Node25</title>
<polygon fill="white" stroke="#bfbfbf" points="1025.5,-56.5 1025.5,-75.5 1068.5,-75.5 1068.5,-56.5 1025.5,-56.5"/>
<text text-anchor="middle" x="1047" y="-63.5" font-family="Helvetica,sans-Serif" font-size="10.00">cstdio</text>
</g>
<!-- Node24&#45;&gt;Node25 -->
<g id="edge88" class="edge"><title>Node24&#45;&gt;Node25</title>
<path fill="none" stroke="midnightblue" d="M1095.68,-112.324C1087.11,-104.341 1074.19,-92.3128 1063.81,-82.6529"/>
<polygon fill="midnightblue" stroke="midnightblue" points="1066.19,-80.0865 1056.49,-75.8339 1061.42,-85.2098 1066.19,-80.0865"/>
</g>
<!-- Node26 -->
<g id="node71" class="node"><title>Node26</title>
<polygon fill="white" stroke="#bfbfbf" points="1086.5,-56.5 1086.5,-75.5 1131.5,-75.5 1131.5,-56.5 1086.5,-56.5"/>
<text text-anchor="middle" x="1109" y="-63.5" font-family="Helvetica,sans-Serif" font-size="10.00">climits</text>
</g>
<!-- Node24&#45;&gt;Node26 -->
<g id="edge90" class="edge"><title>Node24&#45;&gt;Node26</title>
<path fill="none" stroke="midnightblue" d="M1105.66,-112.083C1106.18,-105.006 1106.94,-94.8611 1107.59,-85.9865"/>
<polygon fill="midnightblue" stroke="midnightblue" points="1111.1,-85.9823 1108.35,-75.7511 1104.12,-85.4652 1111.1,-85.9823"/>
</g>
<!-- Node27&#45;&gt;Node3 -->
<g id="edge102" class="edge"><title>Node27&#45;&gt;Node3</title>
<path fill="none" stroke="midnightblue" d="M487.204,-112.429C489.451,-103.415 492.896,-88.7932 495,-76 497.535,-60.5813 499.368,-42.9479 500.521,-29.9409"/>
<polygon fill="midnightblue" stroke="midnightblue" points="504.017,-30.1296 501.359,-19.8736 497.041,-29.5485 504.017,-30.1296"/>
</g>
<!-- Node27&#45;&gt;Node4 -->
<g id="edge104" class="edge"><title>Node27&#45;&gt;Node4</title>
<path fill="none" stroke="midnightblue" d="M518.753,-118.771C615.501,-112.363 902.114,-93.2433 1140,-76 1169.14,-73.8875 1202.32,-71.3446 1226.06,-69.5014"/>
<polygon fill="midnightblue" stroke="midnightblue" points="1226.56,-72.9735 1236.26,-68.7078 1226.01,-65.9946 1226.56,-72.9735"/>
</g>
<!-- Node27&#45;&gt;Node13 -->
<g id="edge100" class="edge"><title>Node27&#45;&gt;Node13</title>
<path fill="none" stroke="midnightblue" d="M481.202,-112.083C478.087,-104.77 473.577,-94.1814 469.711,-85.1034"/>
<polygon fill="midnightblue" stroke="midnightblue" points="472.866,-83.5798 465.727,-75.7511 466.426,-86.3229 472.866,-83.5798"/>
</g>
<!-- Node27&#45;&gt;Node14 -->
<g id="edge110" class="edge"><title>Node27&#45;&gt;Node14</title>
<path fill="none" stroke="midnightblue" d="M500.745,-112.324C516.319,-103.743 540.377,-90.486 558.459,-80.5224"/>
<polygon fill="midnightblue" stroke="midnightblue" points="560.224,-83.546 567.294,-75.6545 556.846,-77.4152 560.224,-83.546"/>
</g>
<!-- Node27&#45;&gt;Node16 -->
<g id="edge106" class="edge"><title>Node27&#45;&gt;Node16</title>
<path fill="none" stroke="midnightblue" d="M514.948,-112.444C547.158,-103.241 598.534,-88.5617 634.142,-78.3879"/>
<polygon fill="midnightblue" stroke="midnightblue" points="635.539,-81.629 644.192,-75.5164 633.616,-74.8984 635.539,-81.629"/>
</g>
<!-- Node27&#45;&gt;Node20 -->
<g id="edge112" class="edge"><title>Node27&#45;&gt;Node20</title>
<path fill="none" stroke="midnightblue" d="M518.666,-114.753C570.004,-105.226 668.118,-87.0194 727.248,-76.0468"/>
<polygon fill="midnightblue" stroke="midnightblue" points="727.908,-79.4841 737.102,-74.2182 726.631,-72.6016 727.908,-79.4841"/>
</g>
<!-- Node27&#45;&gt;Node22 -->
<g id="edge108" class="edge"><title>Node27&#45;&gt;Node22</title>
<path fill="none" stroke="midnightblue" d="M468.612,-112.324C452.329,-103.703 427.133,-90.3643 408.284,-80.3855"/>
<polygon fill="midnightblue" stroke="midnightblue" points="409.823,-77.2402 399.347,-75.6545 406.548,-83.4267 409.823,-77.2402"/>
</g>
<!-- Node29 -->
<g id="node87" class="node"><title>Node29</title>
<a xlink:href="../../d3/d2c/pageReplace_8h.xhtml" target="_top" xlink:title="Policy/pageReplace.h">
<polygon fill="white" stroke="black" points="880,-168.5 880,-187.5 992,-187.5 992,-168.5 880,-168.5"/>
<text text-anchor="middle" x="936" y="-175.5" font-family="Helvetica,sans-Serif" font-size="10.00">Policy/pageReplace.h</text>
</a>
</g>
<!-- Node28&#45;&gt;Node29 -->
<g id="edge116" class="edge"><title>Node28&#45;&gt;Node29</title>
<path fill="none" stroke="midnightblue" d="M1305.26,-227.9C1243.01,-219.89 1118.45,-203.774 1002.16,-188.148"/>
<polygon fill="midnightblue" stroke="midnightblue" points="1002.39,-184.648 992.016,-186.783 1001.46,-191.585 1002.39,-184.648"/>
</g>
<!-- Node31 -->
<g id="node97" class="node"><title>Node31</title>
<a xlink:href="../../d3/ded/pr__fifo_8h_source.xhtml" target="_top" xlink:title="Policy/pr_fifo.h">
<polygon fill="white" stroke="black" points="1497,-168.5 1497,-187.5 1579,-187.5 1579,-168.5 1497,-168.5"/>
<text text-anchor="middle" x="1538" y="-175.5" font-family="Helvetica,sans-Serif" font-size="10.00">Policy/pr_fifo.h</text>
</a>
</g>
<!-- Node28&#45;&gt;Node31 -->
<g id="edge132" class="edge"><title>Node28&#45;&gt;Node31</title>
<path fill="none" stroke="midnightblue" d="M1375.58,-224.444C1408.61,-215.201 1461.39,-200.436 1497.77,-190.257"/>
<polygon fill="midnightblue" stroke="midnightblue" points="1498.87,-193.582 1507.56,-187.516 1496.99,-186.84 1498.87,-193.582"/>
</g>
<!-- Node32 -->
<g id="node102" class="node"><title>Node32</title>
<a xlink:href="../../db/d16/pr__lru_8h_source.xhtml" target="_top" xlink:title="Policy/pr_lru.h">
<polygon fill="white" stroke="black" points="1395.5,-168.5 1395.5,-187.5 1474.5,-187.5 1474.5,-168.5 1395.5,-168.5"/>
<text text-anchor="middle" x="1435" y="-175.5" font-family="Helvetica,sans-Serif" font-size="10.00">Policy/pr_lru.h</text>
</a>
</g>
<!-- Node28&#45;&gt;Node32 -->
<g id="edge140" class="edge"><title>Node28&#45;&gt;Node32</title>
<path fill="none" stroke="midnightblue" d="M1359.46,-224.324C1373.5,-215.9 1395.05,-202.971 1411.54,-193.074"/>
<polygon fill="midnightblue" stroke="midnightblue" points="1413.8,-195.801 1420.58,-187.655 1410.2,-189.798 1413.8,-195.801"/>
</g>
<!-- Node35 -->
<g id="node111" class="node"><title>Node35</title>
<a xlink:href="../../d6/d53/pr__lruApprox_8h_source.xhtml" target="_top" xlink:title="Policy/pr_lruApprox.h">
<polygon fill="white" stroke="black" points="1267,-168.5 1267,-187.5 1377,-187.5 1377,-168.5 1267,-168.5"/>
<text text-anchor="middle" x="1322" y="-175.5" font-family="Helvetica,sans-Serif" font-size="10.00">Policy/pr_lruApprox.h</text>
</a>
</g>
<!-- Node28&#45;&gt;Node35 -->
<g id="edge152" class="edge"><title>Node28&#45;&gt;Node35</title>
<path fill="none" stroke="midnightblue" d="M1341.2,-224.083C1338.09,-216.77 1333.58,-206.181 1329.71,-197.103"/>
<polygon fill="midnightblue" stroke="midnightblue" points="1332.87,-195.58 1325.73,-187.751 1326.43,-198.323 1332.87,-195.58"/>
</g>
<!-- Node29&#45;&gt;Node16 -->
<g id="edge118" class="edge"><title>Node29&#45;&gt;Node16</title>
<path fill="none" stroke="midnightblue" d="M923.903,-168.37C901.678,-152.633 854.981,-120.142 837,-112 798.101,-94.3869 750.784,-82.2614 717.173,-75.0736"/>
<polygon fill="midnightblue" stroke="midnightblue" points="717.71,-71.6104 707.207,-73.0008 716.285,-78.4637 717.71,-71.6104"/>
</g>
<!-- Node29&#45;&gt;Node20 -->
<g id="edge120" class="edge"><title>Node29&#45;&gt;Node20</title>
<path fill="none" stroke="midnightblue" d="M929.163,-168.481C918.081,-155.094 895.003,-128.915 871,-112 851.945,-98.5716 828.254,-87.3403 809.297,-79.4569"/>
<polygon fill="midnightblue" stroke="midnightblue" points="810.448,-76.1471 799.865,-75.6456 807.826,-82.6372 810.448,-76.1471"/>
</g>
<!-- Node29&#45;&gt;Node30 -->
<g id="edge122" class="edge"><title>Node29&#45;&gt;Node30</title>
<path fill="none" stroke="midnightblue" d="M910.964,-168.444C884.384,-159.359 842.191,-144.939 812.477,-134.783"/>
<polygon fill="midnightblue" stroke="midnightblue" points="813.513,-131.439 802.918,-131.516 811.249,-138.062 813.513,-131.439"/>
</g>
<!-- Node30&#45;&gt;Node10 -->
<g id="edge124" class="edge"><title>Node30&#45;&gt;Node10</title>
<path fill="none" stroke="midnightblue" d="M796.856,-112.444C816.266,-103.636 846.73,-89.8116 868.965,-79.722"/>
<polygon fill="midnightblue" stroke="midnightblue" points="870.572,-82.836 878.232,-75.5164 867.68,-76.4615 870.572,-82.836"/>
</g>
<!-- Node30&#45;&gt;Node14 -->
<g id="edge128" class="edge"><title>Node30&#45;&gt;Node14</title>
<path fill="none" stroke="midnightblue" d="M747.102,-112.444C713.726,-103.201 660.406,-88.4356 623.651,-78.2572"/>
<polygon fill="midnightblue" stroke="midnightblue" points="624.325,-74.8122 613.754,-75.5164 622.457,-81.5583 624.325,-74.8122"/>
</g>
<!-- Node30&#45;&gt;Node16 -->
<g id="edge126" class="edge"><title>Node30&#45;&gt;Node16</title>
<path fill="none" stroke="midnightblue" d="M761.291,-112.324C744.688,-103.703 718.998,-90.3643 699.78,-80.3855"/>
<polygon fill="midnightblue" stroke="midnightblue" points="701.156,-77.1565 690.668,-75.6545 697.93,-83.3689 701.156,-77.1565"/>
</g>
<!-- Node30&#45;&gt;Node20 -->
<g id="edge130" class="edge"><title>Node30&#45;&gt;Node20</title>
<path fill="none" stroke="midnightblue" d="M777.67,-112.083C777.408,-105.006 777.032,-94.8611 776.703,-85.9865"/>
<polygon fill="midnightblue" stroke="midnightblue" points="780.192,-85.6147 776.324,-75.7511 773.197,-85.8738 780.192,-85.6147"/>
</g>
<!-- Node31&#45;&gt;Node1 -->
<g id="edge138" class="edge"><title>Node31&#45;&gt;Node1</title>
<path fill="none" stroke="midnightblue" d="M1526.39,-187.521C1505.66,-202.19 1460.39,-231.81 1417,-244 1274.66,-283.992 824.713,-288.72 659.031,-289.074"/>
<polygon fill="midnightblue" stroke="midnightblue" points="658.998,-285.574 649.004,-289.091 659.009,-292.574 658.998,-285.574"/>
</g>
<!-- Node31&#45;&gt;Node4 -->
<g id="edge134" class="edge"><title>Node31&#45;&gt;Node4</title>
<path fill="none" stroke="midnightblue" d="M1533.62,-168.206C1526.02,-153.94 1508.98,-125.946 1486,-112 1423.76,-74.2286 1335.98,-67.3471 1289.59,-66.5752"/>
<polygon fill="midnightblue" stroke="midnightblue" points="1289.57,-63.075 1279.54,-66.4943 1289.51,-70.0747 1289.57,-63.075"/>
</g>
<!-- Node31&#45;&gt;Node9 -->
<g id="edge136" class="edge"><title>Node31&#45;&gt;Node9</title>
<path fill="none" stroke="midnightblue" d="M1535.7,-168.439C1531.93,-155.446 1523.6,-130.323 1511,-112 1490.51,-82.2143 1483.84,-73.1301 1452,-56 1401.3,-28.7227 1334.49,-17.8917 1293.96,-13.6526"/>
<polygon fill="midnightblue" stroke="midnightblue" points="1294.3,-10.1687 1284.01,-12.6889 1293.62,-17.1361 1294.3,-10.1687"/>
</g>
<!-- Node32&#45;&gt;Node1 -->
<g id="edge148" class="edge"><title>Node32&#45;&gt;Node1</title>
<path fill="none" stroke="midnightblue" d="M1432.31,-187.634C1427.25,-202.199 1414.83,-231.301 1393,-244 1330.24,-280.504 835.635,-287.399 659.235,-288.699"/>
<polygon fill="midnightblue" stroke="midnightblue" points="659.053,-285.2 649.077,-288.77 659.102,-292.2 659.053,-285.2"/>
</g>
<!-- Node32&#45;&gt;Node4 -->
<g id="edge144" class="edge"><title>Node32&#45;&gt;Node4</title>
<path fill="none" stroke="midnightblue" d="M1429.82,-168.159C1421.31,-154.329 1403.06,-127.556 1381,-112 1353.11,-92.3347 1315.65,-80.2611 1289.42,-73.6366"/>
<polygon fill="midnightblue" stroke="midnightblue" points="1290.16,-70.2147 1279.62,-71.2815 1288.53,-77.021 1290.16,-70.2147"/>
</g>
<!-- Node32&#45;&gt;Node9 -->
<g id="edge146" class="edge"><title>Node32&#45;&gt;Node9</title>
<path fill="none" stroke="midnightblue" d="M1450.53,-168.33C1470.17,-156.206 1499.85,-133.279 1486,-112 1443.27,-46.3438 1347.05,-23.0432 1294.29,-15.0238"/>
<polygon fill="midnightblue" stroke="midnightblue" points="1294.74,-11.5525 1284.35,-13.6156 1293.76,-18.4834 1294.74,-11.5525"/>
</g>
<!-- Node33 -->
<g id="node104" class="node"><title>Node33</title>
<polygon fill="white" stroke="#bfbfbf" points="1343.5,-112.5 1343.5,-131.5 1372.5,-131.5 1372.5,-112.5 1343.5,-112.5"/>
<text text-anchor="middle" x="1358" y="-119.5" font-family="Helvetica,sans-Serif" font-size="10.00">list</text>
</g>
<!-- Node32&#45;&gt;Node33 -->
<g id="edge142" class="edge"><title>Node32&#45;&gt;Node33</title>
<path fill="none" stroke="midnightblue" d="M1422.63,-168.324C1410.84,-160.058 1392.87,-147.453 1378.86,-137.632"/>
<polygon fill="midnightblue" stroke="midnightblue" points="1380.54,-134.531 1370.34,-131.655 1376.52,-140.262 1380.54,-134.531"/>
</g>
<!-- Node34 -->
<g id="node109" class="node"><title>Node34</title>
<polygon fill="white" stroke="#bfbfbf" points="1429,-112.5 1429,-131.5 1477,-131.5 1477,-112.5 1429,-112.5"/>
<text text-anchor="middle" x="1453" y="-119.5" font-family="Helvetica,sans-Serif" font-size="10.00">limits.h</text>
</g>
<!-- Node32&#45;&gt;Node34 -->
<g id="edge150" class="edge"><title>Node32&#45;&gt;Node34</title>
<path fill="none" stroke="midnightblue" d="M1437.97,-168.083C1440.38,-160.849 1443.86,-150.409 1446.87,-141.397"/>
<polygon fill="midnightblue" stroke="midnightblue" points="1450.24,-142.345 1450.08,-131.751 1443.6,-140.131 1450.24,-142.345"/>
</g>
<!-- Node35&#45;&gt;Node1 -->
<g id="edge160" class="edge"><title>Node35&#45;&gt;Node1</title>
<path fill="none" stroke="midnightblue" d="M1315.98,-187.699C1305.27,-202.363 1281.35,-231.61 1253,-244 1199.51,-267.378 812.683,-282.127 659.358,-287.111"/>
<polygon fill="midnightblue" stroke="midnightblue" points="659.048,-283.619 649.166,-287.439 659.274,-290.615 659.048,-283.619"/>
</g>
<!-- Node35&#45;&gt;Node4 -->
<g id="edge156" class="edge"><title>Node35&#45;&gt;Node4</title>
<path fill="none" stroke="midnightblue" d="M1316.98,-168.368C1306.46,-150.296 1281.96,-108.176 1268.07,-84.3074"/>
<polygon fill="midnightblue" stroke="midnightblue" points="1271.05,-82.4748 1263,-75.5914 1265,-85.9951 1271.05,-82.4748"/>
</g>
<!-- Node35&#45;&gt;Node9 -->
<g id="edge158" class="edge"><title>Node35&#45;&gt;Node9</title>
<path fill="none" stroke="midnightblue" d="M1320.56,-168.465C1316.94,-148.232 1306.41,-96.0471 1288,-56 1283.5,-46.2068 1277,-36.1478 1271.2,-28.0306"/>
<polygon fill="midnightblue" stroke="midnightblue" points="1273.87,-25.7514 1265.1,-19.8089 1268.25,-29.9243 1273.87,-25.7514"/>
</g>
<!-- Node35&#45;&gt;Node33 -->
<g id="edge154" class="edge"><title>Node35&#45;&gt;Node33</title>
<path fill="none" stroke="midnightblue" d="M1327.94,-168.083C1332.98,-160.534 1340.34,-149.495 1346.51,-140.23"/>
<polygon fill="midnightblue" stroke="midnightblue" points="1349.53,-142.013 1352.17,-131.751 1343.71,-138.13 1349.53,-142.013"/>
</g>
<!-- Node36&#45;&gt;Node6 -->
<g id="edge164" class="edge"><title>Node36&#45;&gt;Node6</title>
<path fill="none" stroke="midnightblue" d="M312.03,-224.151C306.211,-195.454 292.231,-104.054 338,-56 398.481,7.50081 446.676,-40.2499 532,-20 532.211,-19.9499 532.423,-19.8992 532.636,-19.848"/>
<polygon fill="midnightblue" stroke="midnightblue" points="533.612,-23.2103 542.399,-17.2897 531.838,-16.439 533.612,-23.2103"/>
</g>
<!-- Node37&#45;&gt;Node1 -->
<g id="edge174" class="edge"><title>Node37&#45;&gt;Node1</title>
<path fill="none" stroke="midnightblue" d="M699.785,-243.516C682.758,-252.349 653.13,-266.255 629.952,-276.368"/>
<polygon fill="midnightblue" stroke="midnightblue" points="628.275,-273.279 620.469,-280.444 631.039,-279.71 628.275,-273.279"/>
</g>
<!-- Node37&#45;&gt;Node16 -->
<g id="edge170" class="edge"><title>Node37&#45;&gt;Node16</title>
<path fill="none" stroke="midnightblue" d="M710.903,-224.075C704.764,-197.945 686.736,-121.211 678.364,-85.577"/>
<polygon fill="midnightblue" stroke="midnightblue" points="681.707,-84.5025 676.013,-75.5681 674.893,-86.1036 681.707,-84.5025"/>
</g>
<!-- Node37&#45;&gt;Node30 -->
<g id="edge172" class="edge"><title>Node37&#45;&gt;Node30</title>
<path fill="none" stroke="midnightblue" d="M718.1,-224.368C728.78,-206.296 753.668,-164.176 767.773,-140.307"/>
<polygon fill="midnightblue" stroke="midnightblue" points="770.849,-141.981 772.923,-131.591 764.823,-138.42 770.849,-141.981"/>
</g>
</g>
</svg>
        <g id="navigator" transform="translate(0 0)" fill="#404254">
                <rect fill="#f2f5e9" fill-opacity="0.5" stroke="#606060" stroke-width=".5" x="0" y="0" width="60" height="60"/>
                <use id="zoomplus" xlink:href="#zoomPlus" x="17" y="9" onmousedown="handleZoom(evt,'in')"/>
                <use id="zoomminus" xlink:href="#zoomMin" x="42" y="9" onmousedown="handleZoom(evt,'out')"/>
                <use id="reset" xlink:href="#resetDef" x="30" y="36" onmousedown="handleReset()"/>
                <g id="arrowUp" xlink:href="#dirArrow" transform="translate(30 24)" onmousedown="handlePan(0,-1)">
                  <use xlink:href="#rim" fill="#404040">
                        <set attributeName="fill" to="#808080" begin="arrowUp.mouseover" end="arrowUp.mouseout"/>
                  </use>
                  <path fill="none" stroke="white" stroke-width="1.5" d="M0,-3.0v7 M-2.5,-0.5L0,-3.0L2.5,-0.5"/>
                </g>
                <g id="arrowRight" xlink:href="#dirArrow" transform="rotate(90) translate(36 -43)" onmousedown="handlePan(1,0)">
                  <use xlink:href="#rim" fill="#404040">
                        <set attributeName="fill" to="#808080" begin="arrowRight.mouseover" end="arrowRight.mouseout"/>
                  </use>
                  <path fill="none" stroke="white" stroke-width="1.5" d="M0,-3.0v7 M-2.5,-0.5L0,-3.0L2.5,-0.5"/>
                </g>
                <g id="arrowDown" xlink:href="#dirArrow" transform="rotate(180) translate(-30 -48)" onmousedown="handlePan(0,1)">
                  <use xlink:href="#rim" fill="#404040">
                        <set attributeName="fill" to="#808080" begin="arrowDown.mouseover" end="arrowDown.mouseout"/>
                  </use>
                  <path fill="none" stroke="white" stroke-width="1.5" d="M0,-3.0v7 M-2.5,-0.5L0,-3.0L2.5,-0.5"/>
                </g>
                <g id="arrowLeft" xlink:href="#dirArrow" transform="rotate(270) translate(-36 17)" onmousedown="handlePan(-1,0)">
                  <use xlink:href="#rim" fill="#404040">
                        <set attributeName="fill" to="#808080" begin="arrowLeft.mouseover" end="arrowLeft.mouseout"/>
                  </use>
                  <path fill="none" stroke="white" stroke-width="1.5" d="M0,-3.0v7 M-2.5,-0.5L0,-3.0L2.5,-0.5"/>
                </g>
        </g>
</svg>
