<?xml version="1.0" encoding="UTF-8" standalone="no"?>
<!DOCTYPE svg PUBLIC "-//W3C//DTD SVG 1.1//EN"
 "http://www.w3.org/Graphics/SVG/1.1/DTD/svg11.dtd">
<!-- Generated by graphviz version 2.28.0 (20111025.1818)
 -->
<!-- Title: G Pages: 1 -->
<!--zoomable 206 -->
<svg id="main" version="1.1" xmlns="http://www.w3.org/2000/svg" xmlns:xlink="http://www.w3.org/1999/xlink" xml:space="preserve" onload="init(evt)">
        <defs>
                <circle id="rim" cx="0" cy="0" r="7"/>
                <circle id="rim2" cx="0" cy="0" r="3.5"/>
                <g id="zoomPlus">
                        <use xlink:href="#rim" fill="#404040">
                                <set attributeName="fill" to="#808080" begin="zoomplus.mouseover" end="zoomplus.mouseout"/>
                        </use>
                        <path d="M-4,0h8M0,-4v8" fill="none" stroke="white" stroke-width="1.5" pointer-events="none"/>
                </g>
                <g id="zoomMin">
                        <use xlink:href="#rim" fill="#404040">
                                <set attributeName="fill" to="#808080" begin="zoomminus.mouseover" end="zoomminus.mouseout"/>
                        </use>
                        <path d="M-4,0h8" fill="none" stroke="white" stroke-width="1.5" pointer-events="none"/>
                </g>
                <g id="dirArrow">
                        <path fill="none" stroke="white" stroke-width="1.5" d="M0,-3.0v7 M-2.5,-0.5L0,-3.0L2.5,-0.5"/>
                </g>
               <g id="resetDef">
                       <use xlink:href="#rim2" fill="#404040">
                               <set attributeName="fill" to="#808080" begin="reset.mouseover" end="reset.mouseout"/>
                       </use>
               </g>
        </defs>

<script type="text/javascript">
var viewWidth = 978;
var viewHeight = 206;
var sectionId = 'dynsection-0';
</script>
<script xlink:href="../../svgpan.js"/>
<svg id="graph" class="graph">
<g id="viewport">
<title>G</title>
<polygon fill="white" stroke="white" points="-4,5 -4,-202 975,-202 975,5 -4,5"/>
<!-- Node1 -->
<g id="node1" class="node"><title>Node1</title>
<polygon fill="#bfbfbf" stroke="black" points="906,-84.5 906,-103.5 970,-103.5 970,-84.5 906,-84.5"/>
<text text-anchor="middle" x="938" y="-91.5" font-family="Helvetica,sans-Serif" font-size="10.00">cIOControl</text>
</g>
<!-- Node2 -->
<g id="node2" class="node"><title>Node2</title>
<polygon fill="white" stroke="#bfbfbf" points="650,-134.5 650,-153.5 832,-153.5 832,-134.5 650,-134.5"/>
<text text-anchor="middle" x="741" y="-141.5" font-family="Helvetica,sans-Serif" font-size="10.00">std::vector&lt; queue&lt; sIOContext * &gt; &gt;</text>
</g>
<!-- Node2&#45;&gt;Node1 -->
<g id="edge2" class="edge"><title>Node2&#45;&gt;Node1</title>
<path fill="none" stroke="#9a32cd" stroke-dasharray="5,2" d="M792.403,-132.052C820.587,-125.251 856.318,-116.429 888,-108 893.814,-106.453 899.997,-104.74 905.942,-103.059"/>
<polygon fill="#9a32cd" stroke="#9a32cd" points="791.286,-128.721 782.382,-134.462 792.923,-135.527 791.286,-128.721"/>
<text text-anchor="middle" x="869" y="-131" font-family="Helvetica,sans-Serif" font-size="10.00"> io_out</text>
<text text-anchor="middle" x="869" y="-120" font-family="Helvetica,sans-Serif" font-size="10.00">out_iter</text>
</g>
<!-- Node3 -->
<g id="node4" class="node"><title>Node3</title>
<polygon fill="white" stroke="#bfbfbf" points="338.5,-134.5 338.5,-153.5 475.5,-153.5 475.5,-134.5 338.5,-134.5"/>
<text text-anchor="middle" x="407" y="-141.5" font-family="Helvetica,sans-Serif" font-size="10.00">std::queue&lt; sIOContext * &gt;</text>
</g>
<!-- Node3&#45;&gt;Node1 -->
<g id="edge18" class="edge"><title>Node3&#45;&gt;Node1</title>
<path fill="none" stroke="#9a32cd" stroke-dasharray="5,2" d="M465.042,-155.159C474.674,-156.695 484.598,-158.065 494,-159 643.495,-173.872 683.971,-188.641 832,-163 858.041,-158.489 865.668,-157.133 888,-143 905.079,-132.192 920.844,-114.467 929.665,-103.558"/>
<polygon fill="#9a32cd" stroke="#9a32cd" points="465.582,-151.7 455.142,-153.508 464.43,-158.605 465.582,-151.7"/>
<text text-anchor="middle" x="741" y="-190" font-family="Helvetica,sans-Serif" font-size="10.00"> context_cache</text>
<text text-anchor="middle" x="741" y="-179" font-family="Helvetica,sans-Serif" font-size="10.00">io_in</text>
</g>
<!-- Node3&#45;&gt;Node2 -->
<g id="edge4" class="edge"><title>Node3&#45;&gt;Node2</title>
<path fill="none" stroke="#9a32cd" stroke-dasharray="5,2" d="M485.834,-144C534.938,-144 598.543,-144 649.84,-144"/>
<polygon fill="#9a32cd" stroke="#9a32cd" points="485.585,-140.5 475.585,-144 485.585,-147.5 485.585,-140.5"/>
<text text-anchor="middle" x="563" y="-147" font-family="Helvetica,sans-Serif" font-size="10.00"> elements</text>
</g>
<!-- Node4 -->
<g id="node6" class="node"><title>Node4</title>
<a xlink:href="../../de/d05/structsIOContext.xhtml" target="_top" xlink:title="Struct for holding the context of an I/O operation.">
<polygon fill="white" stroke="black" points="122.5,-84.5 122.5,-103.5 189.5,-103.5 189.5,-84.5 122.5,-84.5"/>
<text text-anchor="middle" x="156" y="-91.5" font-family="Helvetica,sans-Serif" font-size="10.00">sIOContext</text>
</a>
</g>
<!-- Node4&#45;&gt;Node3 -->
<g id="edge6" class="edge"><title>Node4&#45;&gt;Node3</title>
<path fill="none" stroke="#9a32cd" stroke-dasharray="5,2" d="M197.021,-106.226C200.719,-107.218 204.42,-108.16 208,-109 252.18,-119.368 302.549,-128.232 341.428,-134.445"/>
<polygon fill="#9a32cd" stroke="#9a32cd" points="197.9,-102.838 187.327,-103.52 196.018,-109.58 197.9,-102.838"/>
<text text-anchor="middle" x="264" y="-133" font-family="Helvetica,sans-Serif" font-size="10.00"> elements</text>
</g>
<!-- Node4&#45;&gt;Node4 -->
<g id="edge10" class="edge"><title>Node4&#45;&gt;Node4</title>
<path fill="none" stroke="#9a32cd" stroke-dasharray="5,2" d="M142.372,-113.766C143.443,-118.497 147.985,-122 156,-122 169.152,-122 172.954,-112.565 167.406,-103.757"/>
<polygon fill="#9a32cd" stroke="#9a32cd" points="145.844,-114.278 144.594,-103.757 139.01,-112.761 145.844,-114.278"/>
<text text-anchor="middle" x="156" y="-125" font-family="Helvetica,sans-Serif" font-size="10.00"> release</text>
</g>
<!-- Node8 -->
<g id="node17" class="node"><title>Node8</title>
<polygon fill="white" stroke="#bfbfbf" points="494,-84.5 494,-103.5 632,-103.5 632,-84.5 494,-84.5"/>
<text text-anchor="middle" x="563" y="-91.5" font-family="Helvetica,sans-Serif" font-size="10.00">std::vector&lt; sIOContext * &gt;</text>
</g>
<!-- Node4&#45;&gt;Node8 -->
<g id="edge22" class="edge"><title>Node4&#45;&gt;Node8</title>
<path fill="none" stroke="#9a32cd" stroke-dasharray="5,2" d="M200.053,-94C270.31,-94 410.167,-94 493.966,-94"/>
<polygon fill="#9a32cd" stroke="#9a32cd" points="199.8,-90.5001 189.8,-94 199.8,-97.5001 199.8,-90.5001"/>
<text text-anchor="middle" x="264" y="-97" font-family="Helvetica,sans-Serif" font-size="10.00"> elements</text>
</g>
<!-- Node5 -->
<g id="node8" class="node"><title>Node5</title>
<a xlink:href="../../db/d4b/structsPTE.xhtml" target="_top" xlink:title="A struct representing a single page table entry.">
<polygon fill="white" stroke="black" points="0.5,-62.5 0.5,-81.5 41.5,-81.5 41.5,-62.5 0.5,-62.5"/>
<text text-anchor="middle" x="21" y="-69.5" font-family="Helvetica,sans-Serif" font-size="10.00">sPTE</text>
</a>
</g>
<!-- Node5&#45;&gt;Node4 -->
<g id="edge8" class="edge"><title>Node5&#45;&gt;Node4</title>
<path fill="none" stroke="#9a32cd" stroke-dasharray="5,2" d="M51.5834,-76.8935C72.5764,-80.366 100.754,-85.027 122.395,-88.6068"/>
<polygon fill="#9a32cd" stroke="#9a32cd" points="52.0618,-73.4251 41.6246,-75.2462 50.9193,-80.3313 52.0618,-73.4251"/>
<text text-anchor="middle" x="82" y="-87" font-family="Helvetica,sans-Serif" font-size="10.00"> page</text>
</g>
<!-- Node7 -->
<g id="node13" class="node"><title>Node7</title>
<polygon fill="white" stroke="#bfbfbf" points="208,-40.5 208,-59.5 320,-59.5 320,-40.5 208,-40.5"/>
<text text-anchor="middle" x="264" y="-47.5" font-family="Helvetica,sans-Serif" font-size="10.00">std::queue&lt; sPTE * &gt;</text>
</g>
<!-- Node5&#45;&gt;Node7 -->
<g id="edge16" class="edge"><title>Node5&#45;&gt;Node7</title>
<path fill="none" stroke="#9a32cd" stroke-dasharray="5,2" d="M51.6162,-64.4784C54.4378,-63.9151 57.2655,-63.4084 60,-63 109.598,-55.5926 166.632,-52.403 207.592,-51.0311"/>
<polygon fill="#9a32cd" stroke="#9a32cd" points="50.6091,-61.1164 41.6,-66.6919 52.1196,-67.9515 50.6091,-61.1164"/>
<text text-anchor="middle" x="82" y="-66" font-family="Helvetica,sans-Serif" font-size="10.00"> elements</text>
</g>
<!-- Node6 -->
<g id="node11" class="node"><title>Node6</title>
<polygon fill="white" stroke="#bfbfbf" points="683.5,-0.5 683.5,-19.5 798.5,-19.5 798.5,-0.5 683.5,-0.5"/>
<text text-anchor="middle" x="741" y="-7.5" font-family="Helvetica,sans-Serif" font-size="10.00">std::queue&lt; uint64_t &gt;</text>
</g>
<!-- Node6&#45;&gt;Node1 -->
<g id="edge12" class="edge"><title>Node6&#45;&gt;Node1</title>
<path fill="none" stroke="#9a32cd" stroke-dasharray="5,2" d="M809.029,-4.15267C835.209,-4.78195 864.516,-9.31055 888,-23 912.196,-37.1043 927.189,-68.4876 933.513,-84.3805"/>
<polygon fill="#9a32cd" stroke="#9a32cd" points="808.808,-0.651487 798.789,-4.09588 808.769,-7.65138 808.808,-0.651487"/>
<text text-anchor="middle" x="869" y="-26" font-family="Helvetica,sans-Serif" font-size="10.00"> finished</text>
</g>
<!-- Node7&#45;&gt;Node1 -->
<g id="edge14" class="edge"><title>Node7&#45;&gt;Node1</title>
<path fill="none" stroke="#9a32cd" stroke-dasharray="5,2" d="M330.104,-51.3061C403.519,-53.0527 526.436,-56.8013 632,-64 732.328,-70.8416 850.759,-83.9329 905.877,-90.3168"/>
<polygon fill="#9a32cd" stroke="#9a32cd" points="330.159,-47.8065 320.08,-51.0727 329.996,-54.8046 330.159,-47.8065"/>
<text text-anchor="middle" x="563" y="-67" font-family="Helvetica,sans-Serif" font-size="10.00"> finishedPTE</text>
</g>
<!-- Node8&#45;&gt;Node1 -->
<g id="edge20" class="edge"><title>Node8&#45;&gt;Node1</title>
<path fill="none" stroke="#9a32cd" stroke-dasharray="5,2" d="M642.428,-94C724.29,-94 848.567,-94 905.954,-94"/>
<polygon fill="#9a32cd" stroke="#9a32cd" points="642.414,-90.5001 632.414,-94 642.414,-97.5001 642.414,-90.5001"/>
<text text-anchor="middle" x="741" y="-108" font-family="Helvetica,sans-Serif" font-size="10.00"> io_in_wait</text>
<text text-anchor="middle" x="741" y="-97" font-family="Helvetica,sans-Serif" font-size="10.00">in_wait_iter</text>
</g>
</g>
</svg>
        <g id="navigator" transform="translate(0 0)" fill="#404254">
                <rect fill="#f2f5e9" fill-opacity="0.5" stroke="#606060" stroke-width=".5" x="0" y="0" width="60" height="60"/>
                <use id="zoomplus" xlink:href="#zoomPlus" x="17" y="9" onmousedown="handleZoom(evt,'in')"/>
                <use id="zoomminus" xlink:href="#zoomMin" x="42" y="9" onmousedown="handleZoom(evt,'out')"/>
                <use id="reset" xlink:href="#resetDef" x="30" y="36" onmousedown="handleReset()"/>
                <g id="arrowUp" xlink:href="#dirArrow" transform="translate(30 24)" onmousedown="handlePan(0,-1)">
                  <use xlink:href="#rim" fill="#404040">
                        <set attributeName="fill" to="#808080" begin="arrowUp.mouseover" end="arrowUp.mouseout"/>
                  </use>
                  <path fill="none" stroke="white" stroke-width="1.5" d="M0,-3.0v7 M-2.5,-0.5L0,-3.0L2.5,-0.5"/>
                </g>
                <g id="arrowRight" xlink:href="#dirArrow" transform="rotate(90) translate(36 -43)" onmousedown="handlePan(1,0)">
                  <use xlink:href="#rim" fill="#404040">
                        <set attributeName="fill" to="#808080" begin="arrowRight.mouseover" end="arrowRight.mouseout"/>
                  </use>
                  <path fill="none" stroke="white" stroke-width="1.5" d="M0,-3.0v7 M-2.5,-0.5L0,-3.0L2.5,-0.5"/>
                </g>
                <g id="arrowDown" xlink:href="#dirArrow" transform="rotate(180) translate(-30 -48)" onmousedown="handlePan(0,1)">
                  <use xlink:href="#rim" fill="#404040">
                        <set attributeName="fill" to="#808080" begin="arrowDown.mouseover" end="arrowDown.mouseout"/>
                  </use>
                  <path fill="none" stroke="white" stroke-width="1.5" d="M0,-3.0v7 M-2.5,-0.5L0,-3.0L2.5,-0.5"/>
                </g>
                <g id="arrowLeft" xlink:href="#dirArrow" transform="rotate(270) translate(-36 17)" onmousedown="handlePan(-1,0)">
                  <use xlink:href="#rim" fill="#404040">
                        <set attributeName="fill" to="#808080" begin="arrowLeft.mouseover" end="arrowLeft.mouseout"/>
                  </use>
                  <path fill="none" stroke="white" stroke-width="1.5" d="M0,-3.0v7 M-2.5,-0.5L0,-3.0L2.5,-0.5"/>
                </g>
        </g>
</svg>
