<?xml version="1.0" encoding="UTF-8" standalone="no"?>
<!DOCTYPE svg PUBLIC "-//W3C//DTD SVG 1.1//EN"
 "http://www.w3.org/Graphics/SVG/1.1/DTD/svg11.dtd">
<!-- Generated by graphviz version 2.28.0 (20111025.1818)
 -->
<!-- Title: G Pages: 1 -->
<!--zoomable 252 -->
<svg id="main" version="1.1" xmlns="http://www.w3.org/2000/svg" xmlns:xlink="http://www.w3.org/1999/xlink" xml:space="preserve" onload="init(evt)">
        <defs>
                <circle id="rim" cx="0" cy="0" r="7"/>
                <circle id="rim2" cx="0" cy="0" r="3.5"/>
                <g id="zoomPlus">
                        <use xlink:href="#rim" fill="#404040">
                                <set attributeName="fill" to="#808080" begin="zoomplus.mouseover" end="zoomplus.mouseout"/>
                        </use>
                        <path d="M-4,0h8M0,-4v8" fill="none" stroke="white" stroke-width="1.5" pointer-events="none"/>
                </g>
                <g id="zoomMin">
                        <use xlink:href="#rim" fill="#404040">
                                <set attributeName="fill" to="#808080" begin="zoomminus.mouseover" end="zoomminus.mouseout"/>
                        </use>
                        <path d="M-4,0h8" fill="none" stroke="white" stroke-width="1.5" pointer-events="none"/>
                </g>
                <g id="dirArrow">
                        <path fill="none" stroke="white" stroke-width="1.5" d="M0,-3.0v7 M-2.5,-0.5L0,-3.0L2.5,-0.5"/>
                </g>
               <g id="resetDef">
                       <use xlink:href="#rim2" fill="#404040">
                               <set attributeName="fill" to="#808080" begin="reset.mouseover" end="reset.mouseout"/>
                       </use>
               </g>
        </defs>

<script type="text/javascript">
var viewWidth = 1358;
var viewHeight = 252;
var sectionId = 'dynsection-0';
</script>
<script xlink:href="../../svgpan.js"/>
<svg id="graph" class="graph">
<g id="viewport">
<title>G</title>
<polygon fill="white" stroke="white" points="-4,5 -4,-248 1355,-248 1355,5 -4,5"/>
<!-- Node1 -->
<g id="node1" class="node"><title>Node1</title>
<polygon fill="#bfbfbf" stroke="black" points="440.5,-224.5 440.5,-243.5 525.5,-243.5 525.5,-224.5 440.5,-224.5"/>
<text text-anchor="middle" x="483" y="-231.5" font-family="Helvetica,sans-Serif" font-size="10.00">include/kernel.h</text>
</g>
<!-- Node2 -->
<g id="node3" class="node"><title>Node2</title>
<polygon fill="white" stroke="#bfbfbf" points="0,-168.5 0,-187.5 44,-187.5 44,-168.5 0,-168.5"/>
<text text-anchor="middle" x="22" y="-175.5" font-family="Helvetica,sans-Serif" font-size="10.00">vector</text>
</g>
<!-- Node1&#45;&gt;Node2 -->
<g id="edge2" class="edge"><title>Node1&#45;&gt;Node2</title>
<path fill="none" stroke="midnightblue" d="M440.209,-231.051C364.218,-227.045 200.7,-215.961 54.2977,-187.929"/>
<polygon fill="midnightblue" stroke="midnightblue" points="54.719,-184.445 44.2344,-185.97 53.3812,-191.316 54.719,-184.445"/>
</g>
<!-- Node3 -->
<g id="node5" class="node"><title>Node3</title>
<polygon fill="white" stroke="#bfbfbf" points="62,-168.5 62,-187.5 106,-187.5 106,-168.5 62,-168.5"/>
<text text-anchor="middle" x="84" y="-175.5" font-family="Helvetica,sans-Serif" font-size="10.00">fcntl.h</text>
</g>
<!-- Node1&#45;&gt;Node3 -->
<g id="edge4" class="edge"><title>Node1&#45;&gt;Node3</title>
<path fill="none" stroke="midnightblue" d="M440.421,-230.03C373.324,-224.865 238.827,-212.544 116.181,-187.948"/>
<polygon fill="midnightblue" stroke="midnightblue" points="116.741,-184.49 106.244,-185.922 115.343,-191.349 116.741,-184.49"/>
</g>
<!-- Node4 -->
<g id="node7" class="node"><title>Node4</title>
<polygon fill="white" stroke="#bfbfbf" points="124,-168.5 124,-187.5 192,-187.5 192,-168.5 124,-168.5"/>
<text text-anchor="middle" x="158" y="-175.5" font-family="Helvetica,sans-Serif" font-size="10.00">sys/types.h</text>
</g>
<!-- Node1&#45;&gt;Node4 -->
<g id="edge6" class="edge"><title>Node1&#45;&gt;Node4</title>
<path fill="none" stroke="midnightblue" d="M440.371,-226.85C386.997,-219.005 292.531,-204.648 202.105,-188.134"/>
<polygon fill="midnightblue" stroke="midnightblue" points="202.706,-184.686 192.238,-186.321 201.441,-191.571 202.706,-184.686"/>
</g>
<!-- Node5 -->
<g id="node9" class="node"><title>Node5</title>
<polygon fill="white" stroke="#bfbfbf" points="210,-168.5 210,-187.5 270,-187.5 270,-168.5 210,-168.5"/>
<text text-anchor="middle" x="240" y="-175.5" font-family="Helvetica,sans-Serif" font-size="10.00">sys/stat.h</text>
</g>
<!-- Node1&#45;&gt;Node5 -->
<g id="edge8" class="edge"><title>Node1&#45;&gt;Node5</title>
<path fill="none" stroke="midnightblue" d="M443.867,-224.486C404.868,-215.974 342.998,-202.401 280.294,-188.277"/>
<polygon fill="midnightblue" stroke="midnightblue" points="280.752,-184.792 270.227,-186.006 279.212,-191.621 280.752,-184.792"/>
</g>
<!-- Node6 -->
<g id="node11" class="node"><title>Node6</title>
<a xlink:href="../../dc/da7/cpu_8h.xhtml" target="_top" xlink:title="cpu.h">
<polygon fill="white" stroke="black" points="1098.5,-168.5 1098.5,-187.5 1139.5,-187.5 1139.5,-168.5 1098.5,-168.5"/>
<text text-anchor="middle" x="1119" y="-175.5" font-family="Helvetica,sans-Serif" font-size="10.00">cpu.h</text>
</a>
</g>
<!-- Node1&#45;&gt;Node6 -->
<g id="edge10" class="edge"><title>Node1&#45;&gt;Node6</title>
<path fill="none" stroke="midnightblue" d="M525.717,-229.373C645.823,-219.175 984.487,-190.421 1088.34,-181.603"/>
<polygon fill="midnightblue" stroke="midnightblue" points="1088.79,-185.077 1098.46,-180.744 1088.2,-178.103 1088.79,-185.077"/>
</g>
<!-- Node11 -->
<g id="node21" class="node"><title>Node11</title>
<a xlink:href="../../d1/d8c/logger_8h_source.xhtml" target="_top" xlink:title="utility/logger.h">
<polygon fill="white" stroke="black" points="1204.5,-112.5 1204.5,-131.5 1281.5,-131.5 1281.5,-112.5 1204.5,-112.5"/>
<text text-anchor="middle" x="1243" y="-119.5" font-family="Helvetica,sans-Serif" font-size="10.00">utility/logger.h</text>
</a>
</g>
<!-- Node1&#45;&gt;Node11 -->
<g id="edge60" class="edge"><title>Node1&#45;&gt;Node11</title>
<path fill="none" stroke="midnightblue" d="M525.815,-233.028C653.904,-232.654 1032.39,-228.093 1148,-188 1178.5,-177.421 1208.34,-154.306 1226.21,-138.692"/>
<polygon fill="midnightblue" stroke="midnightblue" points="1228.87,-141.005 1233.97,-131.717 1224.19,-135.8 1228.87,-141.005"/>
</g>
<!-- Node14 -->
<g id="node28" class="node"><title>Node14</title>
<a xlink:href="../../d7/d59/char__device_8h.xhtml" target="_top" xlink:title="devices/char_device.h">
<polygon fill="white" stroke="black" points="426,-168.5 426,-187.5 540,-187.5 540,-168.5 426,-168.5"/>
<text text-anchor="middle" x="483" y="-175.5" font-family="Helvetica,sans-Serif" font-size="10.00">devices/char_device.h</text>
</a>
</g>
<!-- Node1&#45;&gt;Node14 -->
<g id="edge28" class="edge"><title>Node1&#45;&gt;Node14</title>
<path fill="none" stroke="midnightblue" d="M483,-224.083C483,-217.006 483,-206.861 483,-197.986"/>
<polygon fill="midnightblue" stroke="midnightblue" points="486.5,-197.751 483,-187.751 479.5,-197.751 486.5,-197.751"/>
</g>
<!-- Node18 -->
<g id="node36" class="node"><title>Node18</title>
<a xlink:href="../../db/d9a/block__device_8h.xhtml" target="_top" xlink:title="devices/block_device.h">
<polygon fill="white" stroke="black" points="288.5,-168.5 288.5,-187.5 407.5,-187.5 407.5,-168.5 288.5,-168.5"/>
<text text-anchor="middle" x="348" y="-175.5" font-family="Helvetica,sans-Serif" font-size="10.00">devices/block_device.h</text>
</a>
</g>
<!-- Node1&#45;&gt;Node18 -->
<g id="edge36" class="edge"><title>Node1&#45;&gt;Node18</title>
<path fill="none" stroke="midnightblue" d="M461.609,-224.444C439.293,-215.517 404.097,-201.439 378.792,-191.317"/>
<polygon fill="midnightblue" stroke="midnightblue" points="379.876,-187.981 369.291,-187.516 377.276,-194.48 379.876,-187.981"/>
</g>
<!-- Node19 -->
<g id="node39" class="node"><title>Node19</title>
<a xlink:href="../../df/d8f/clock__device_8h.xhtml" target="_top" xlink:title="devices/clock_device.h">
<polygon fill="white" stroke="black" points="558.5,-168.5 558.5,-187.5 677.5,-187.5 677.5,-168.5 558.5,-168.5"/>
<text text-anchor="middle" x="618" y="-175.5" font-family="Helvetica,sans-Serif" font-size="10.00">devices/clock_device.h</text>
</a>
</g>
<!-- Node1&#45;&gt;Node19 -->
<g id="edge40" class="edge"><title>Node1&#45;&gt;Node19</title>
<path fill="none" stroke="midnightblue" d="M504.391,-224.444C526.707,-215.517 561.903,-201.439 587.208,-191.317"/>
<polygon fill="midnightblue" stroke="midnightblue" points="588.724,-194.48 596.709,-187.516 586.124,-187.981 588.724,-194.48"/>
</g>
<!-- Node23 -->
<g id="node48" class="node"><title>Node23</title>
<a xlink:href="../../df/db9/id_8h_source.xhtml" target="_top" xlink:title="utility/id.h">
<polygon fill="white" stroke="black" points="667.5,-112.5 667.5,-131.5 726.5,-131.5 726.5,-112.5 667.5,-112.5"/>
<text text-anchor="middle" x="697" y="-119.5" font-family="Helvetica,sans-Serif" font-size="10.00">utility/id.h</text>
</a>
</g>
<!-- Node1&#45;&gt;Node23 -->
<g id="edge50" class="edge"><title>Node1&#45;&gt;Node23</title>
<path fill="none" stroke="midnightblue" d="M525.937,-229.063C578.85,-223.298 664.423,-210.695 686,-188 697.45,-175.957 699.45,-156.667 699.037,-142.224"/>
<polygon fill="midnightblue" stroke="midnightblue" points="702.505,-141.645 698.322,-131.911 695.522,-142.129 702.505,-141.645"/>
</g>
<!-- Node26 -->
<g id="node57" class="node"><title>Node26</title>
<a xlink:href="../../db/d41/fcfs_8h_source.xhtml" target="_top" xlink:title="scheduler/fcfs.h">
<polygon fill="white" stroke="black" points="787,-168.5 787,-187.5 873,-187.5 873,-168.5 787,-168.5"/>
<text text-anchor="middle" x="830" y="-175.5" font-family="Helvetica,sans-Serif" font-size="10.00">scheduler/fcfs.h</text>
</a>
</g>
<!-- Node1&#45;&gt;Node26 -->
<g id="edge62" class="edge"><title>Node1&#45;&gt;Node26</title>
<path fill="none" stroke="midnightblue" d="M525.549,-226.379C588.81,-216.534 707.6,-198.048 776.61,-187.308"/>
<polygon fill="midnightblue" stroke="midnightblue" points="777.487,-190.714 786.83,-185.718 776.411,-183.797 777.487,-190.714"/>
</g>
<!-- Node7 -->
<g id="node13" class="node"><title>Node7</title>
<polygon fill="white" stroke="#bfbfbf" points="849.5,-56.5 849.5,-75.5 892.5,-75.5 892.5,-56.5 849.5,-56.5"/>
<text text-anchor="middle" x="871" y="-63.5" font-family="Helvetica,sans-Serif" font-size="10.00">cstdio</text>
</g>
<!-- Node6&#45;&gt;Node7 -->
<g id="edge12" class="edge"><title>Node6&#45;&gt;Node7</title>
<path fill="none" stroke="midnightblue" d="M1116.32,-168.261C1111.5,-154.073 1099.95,-126.19 1080,-112 1016.36,-66.7255 984.176,-93.2319 908,-76 906.315,-75.6189 904.589,-75.2219 902.848,-74.8162"/>
<polygon fill="midnightblue" stroke="midnightblue" points="903.424,-71.3555 892.885,-72.4472 901.804,-78.1657 903.424,-71.3555"/>
</g>
<!-- Node8 -->
<g id="node15" class="node"><title>Node8</title>
<polygon fill="white" stroke="#bfbfbf" points="1026.5,-112.5 1026.5,-131.5 1071.5,-131.5 1071.5,-112.5 1026.5,-112.5"/>
<text text-anchor="middle" x="1049" y="-119.5" font-family="Helvetica,sans-Serif" font-size="10.00">cstdlib</text>
</g>
<!-- Node6&#45;&gt;Node8 -->
<g id="edge14" class="edge"><title>Node6&#45;&gt;Node8</title>
<path fill="none" stroke="midnightblue" d="M1107.75,-168.324C1097.2,-160.185 1081.2,-147.839 1068.56,-138.087"/>
<polygon fill="midnightblue" stroke="midnightblue" points="1070.51,-135.171 1060.45,-131.834 1066.23,-140.713 1070.51,-135.171"/>
</g>
<!-- Node9 -->
<g id="node17" class="node"><title>Node9</title>
<polygon fill="white" stroke="#bfbfbf" points="1158,-56.5 1158,-75.5 1210,-75.5 1210,-56.5 1158,-56.5"/>
<text text-anchor="middle" x="1184" y="-63.5" font-family="Helvetica,sans-Serif" font-size="10.00">assert.h</text>
</g>
<!-- Node6&#45;&gt;Node9 -->
<g id="edge16" class="edge"><title>Node6&#45;&gt;Node9</title>
<path fill="none" stroke="midnightblue" d="M1126.05,-168.353C1133.08,-159.519 1143.96,-145.254 1152,-132 1161.26,-116.724 1170.1,-98.3909 1176.13,-85.0948"/>
<polygon fill="midnightblue" stroke="midnightblue" points="1179.46,-86.2258 1180.32,-75.6661 1173.06,-83.3834 1179.46,-86.2258"/>
</g>
<!-- Node10 -->
<g id="node19" class="node"><title>Node10</title>
<polygon fill="white" stroke="#bfbfbf" points="1008.5,-0.5 1008.5,-19.5 1067.5,-19.5 1067.5,-0.5 1008.5,-0.5"/>
<text text-anchor="middle" x="1038" y="-7.5" font-family="Helvetica,sans-Serif" font-size="10.00">inttypes.h</text>
</g>
<!-- Node6&#45;&gt;Node10 -->
<g id="edge18" class="edge"><title>Node6&#45;&gt;Node10</title>
<path fill="none" stroke="midnightblue" d="M1117.79,-168.295C1115.82,-155.543 1111.27,-131.213 1103,-112 1089.26,-80.0901 1065.87,-46.9342 1051.21,-27.6708"/>
<polygon fill="midnightblue" stroke="midnightblue" points="1053.87,-25.3857 1044.98,-19.624 1048.34,-29.6727 1053.87,-25.3857"/>
</g>
<!-- Node6&#45;&gt;Node11 -->
<g id="edge20" class="edge"><title>Node6&#45;&gt;Node11</title>
<path fill="none" stroke="midnightblue" d="M1138.65,-168.444C1158.96,-159.596 1190.9,-145.687 1214.1,-135.586"/>
<polygon fill="midnightblue" stroke="midnightblue" points="1215.67,-138.718 1223.44,-131.516 1212.88,-132.3 1215.67,-138.718"/>
</g>
<!-- Node11&#45;&gt;Node9 -->
<g id="edge22" class="edge"><title>Node11&#45;&gt;Node9</title>
<path fill="none" stroke="midnightblue" d="M1233.52,-112.324C1224.8,-104.341 1211.66,-92.3128 1201.1,-82.6529"/>
<polygon fill="midnightblue" stroke="midnightblue" points="1203.39,-80.0036 1193.65,-75.8339 1198.67,-85.1674 1203.39,-80.0036"/>
</g>
<!-- Node12 -->
<g id="node24" class="node"><title>Node12</title>
<polygon fill="white" stroke="#bfbfbf" points="1296,-56.5 1296,-75.5 1350,-75.5 1350,-56.5 1296,-56.5"/>
<text text-anchor="middle" x="1323" y="-63.5" font-family="Helvetica,sans-Serif" font-size="10.00">iostream</text>
</g>
<!-- Node11&#45;&gt;Node12 -->
<g id="edge24" class="edge"><title>Node11&#45;&gt;Node12</title>
<path fill="none" stroke="midnightblue" d="M1255.85,-112.324C1268.22,-103.979 1287.13,-91.2122 1301.74,-81.3524"/>
<polygon fill="midnightblue" stroke="midnightblue" points="1303.85,-84.1503 1310.18,-75.6545 1299.93,-78.3483 1303.85,-84.1503"/>
</g>
<!-- Node13 -->
<g id="node26" class="node"><title>Node13</title>
<polygon fill="white" stroke="#bfbfbf" points="1228,-56.5 1228,-75.5 1278,-75.5 1278,-56.5 1228,-56.5"/>
<text text-anchor="middle" x="1253" y="-63.5" font-family="Helvetica,sans-Serif" font-size="10.00">fstream</text>
</g>
<!-- Node11&#45;&gt;Node13 -->
<g id="edge26" class="edge"><title>Node11&#45;&gt;Node13</title>
<path fill="none" stroke="midnightblue" d="M1244.65,-112.083C1245.98,-104.927 1247.88,-94.6353 1249.54,-85.6911"/>
<polygon fill="midnightblue" stroke="midnightblue" points="1253,-86.2212 1251.38,-75.7511 1246.12,-84.9466 1253,-86.2212"/>
</g>
<!-- Node15 -->
<g id="node30" class="node"><title>Node15</title>
<a xlink:href="../../d0/d8f/abstract__device_8h_source.xhtml" target="_top" xlink:title="devices/abstract_device.h">
<polygon fill="white" stroke="black" points="350.5,-112.5 350.5,-131.5 481.5,-131.5 481.5,-112.5 350.5,-112.5"/>
<text text-anchor="middle" x="416" y="-119.5" font-family="Helvetica,sans-Serif" font-size="10.00">devices/abstract_device.h</text>
</a>
</g>
<!-- Node14&#45;&gt;Node15 -->
<g id="edge30" class="edge"><title>Node14&#45;&gt;Node15</title>
<path fill="none" stroke="midnightblue" d="M472.235,-168.324C462.234,-160.263 447.113,-148.077 435.07,-138.369"/>
<polygon fill="midnightblue" stroke="midnightblue" points="436.943,-135.384 426.961,-131.834 432.55,-140.834 436.943,-135.384"/>
</g>
<!-- Node16 -->
<g id="node32" class="node"><title>Node16</title>
<polygon fill="white" stroke="#bfbfbf" points="427,-56.5 427,-75.5 471,-75.5 471,-56.5 427,-56.5"/>
<text text-anchor="middle" x="449" y="-63.5" font-family="Helvetica,sans-Serif" font-size="10.00">time.h</text>
</g>
<!-- Node15&#45;&gt;Node16 -->
<g id="edge32" class="edge"><title>Node15&#45;&gt;Node16</title>
<path fill="none" stroke="midnightblue" d="M421.449,-112.083C426.014,-104.613 432.668,-93.7244 438.293,-84.5199"/>
<polygon fill="midnightblue" stroke="midnightblue" points="441.424,-86.109 443.652,-75.7511 435.451,-82.4588 441.424,-86.109"/>
</g>
<!-- Node17 -->
<g id="node34" class="node"><title>Node17</title>
<polygon fill="white" stroke="#bfbfbf" points="359,-56.5 359,-75.5 409,-75.5 409,-56.5 359,-56.5"/>
<text text-anchor="middle" x="384" y="-63.5" font-family="Helvetica,sans-Serif" font-size="10.00">signal.h</text>
</g>
<!-- Node15&#45;&gt;Node17 -->
<g id="edge34" class="edge"><title>Node15&#45;&gt;Node17</title>
<path fill="none" stroke="midnightblue" d="M410.716,-112.083C406.289,-104.613 399.837,-93.7244 394.382,-84.5199"/>
<polygon fill="midnightblue" stroke="midnightblue" points="397.295,-82.5697 389.186,-75.7511 391.273,-86.1383 397.295,-82.5697"/>
</g>
<!-- Node18&#45;&gt;Node15 -->
<g id="edge38" class="edge"><title>Node18&#45;&gt;Node15</title>
<path fill="none" stroke="midnightblue" d="M358.925,-168.324C369.175,-160.185 384.721,-147.839 397.001,-138.087"/>
<polygon fill="midnightblue" stroke="midnightblue" points="399.221,-140.794 404.876,-131.834 394.868,-135.312 399.221,-140.794"/>
</g>
<!-- Node19&#45;&gt;Node15 -->
<g id="edge48" class="edge"><title>Node19&#45;&gt;Node15</title>
<path fill="none" stroke="midnightblue" d="M585.992,-168.444C551.271,-159.162 495.712,-144.309 457.623,-134.127"/>
<polygon fill="midnightblue" stroke="midnightblue" points="458.422,-130.718 447.858,-131.516 456.615,-137.48 458.422,-130.718"/>
</g>
<!-- Node20 -->
<g id="node41" class="node"><title>Node20</title>
<polygon fill="white" stroke="#bfbfbf" points="602.5,-112.5 602.5,-131.5 649.5,-131.5 649.5,-112.5 602.5,-112.5"/>
<text text-anchor="middle" x="626" y="-119.5" font-family="Helvetica,sans-Serif" font-size="10.00">errno.h</text>
</g>
<!-- Node19&#45;&gt;Node20 -->
<g id="edge42" class="edge"><title>Node19&#45;&gt;Node20</title>
<path fill="none" stroke="midnightblue" d="M619.321,-168.083C620.381,-160.927 621.906,-150.635 623.231,-141.691"/>
<polygon fill="midnightblue" stroke="midnightblue" points="626.7,-142.156 624.704,-131.751 619.776,-141.13 626.7,-142.156"/>
</g>
<!-- Node21 -->
<g id="node43" class="node"><title>Node21</title>
<polygon fill="white" stroke="#bfbfbf" points="500,-112.5 500,-131.5 546,-131.5 546,-112.5 500,-112.5"/>
<text text-anchor="middle" x="523" y="-119.5" font-family="Helvetica,sans-Serif" font-size="10.00">cstring</text>
</g>
<!-- Node19&#45;&gt;Node21 -->
<g id="edge44" class="edge"><title>Node19&#45;&gt;Node21</title>
<path fill="none" stroke="midnightblue" d="M602.737,-168.324C587.779,-159.822 564.745,-146.729 547.273,-136.797"/>
<polygon fill="midnightblue" stroke="midnightblue" points="548.649,-133.553 538.226,-131.655 545.19,-139.639 548.649,-133.553"/>
</g>
<!-- Node22 -->
<g id="node45" class="node"><title>Node22</title>
<polygon fill="white" stroke="#bfbfbf" points="584.5,-56.5 584.5,-75.5 625.5,-75.5 625.5,-56.5 584.5,-56.5"/>
<text text-anchor="middle" x="605" y="-63.5" font-family="Helvetica,sans-Serif" font-size="10.00">string</text>
</g>
<!-- Node19&#45;&gt;Node22 -->
<g id="edge46" class="edge"><title>Node19&#45;&gt;Node22</title>
<path fill="none" stroke="midnightblue" d="M611.633,-168.232C605.74,-159.532 597.393,-145.572 594,-132 590.096,-116.386 593.801,-98.3122 597.932,-85.1928"/>
<polygon fill="midnightblue" stroke="midnightblue" points="601.325,-86.0952 601.346,-75.5004 594.723,-83.7698 601.325,-86.0952"/>
</g>
<!-- Node23&#45;&gt;Node7 -->
<g id="edge52" class="edge"><title>Node23&#45;&gt;Node7</title>
<path fill="none" stroke="midnightblue" d="M724.571,-112.444C755.786,-102.756 806.553,-87.0008 839.358,-76.8199"/>
<polygon fill="midnightblue" stroke="midnightblue" points="840.817,-80.0319 849.33,-73.7251 838.742,-73.3464 840.817,-80.0319"/>
</g>
<!-- Node23&#45;&gt;Node22 -->
<g id="edge56" class="edge"><title>Node23&#45;&gt;Node22</title>
<path fill="none" stroke="midnightblue" d="M682.219,-112.324C667.733,-103.822 645.427,-90.7288 628.507,-80.7975"/>
<polygon fill="midnightblue" stroke="midnightblue" points="630.141,-77.6981 619.745,-75.6545 626.597,-83.735 630.141,-77.6981"/>
</g>
<!-- Node24 -->
<g id="node51" class="node"><title>Node24</title>
<polygon fill="white" stroke="#bfbfbf" points="674.5,-56.5 674.5,-75.5 719.5,-75.5 719.5,-56.5 674.5,-56.5"/>
<text text-anchor="middle" x="697" y="-63.5" font-family="Helvetica,sans-Serif" font-size="10.00">climits</text>
</g>
<!-- Node23&#45;&gt;Node24 -->
<g id="edge54" class="edge"><title>Node23&#45;&gt;Node24</title>
<path fill="none" stroke="midnightblue" d="M697,-112.083C697,-105.006 697,-94.8611 697,-85.9865"/>
<polygon fill="midnightblue" stroke="midnightblue" points="700.5,-85.751 697,-75.7511 693.5,-85.7511 700.5,-85.751"/>
</g>
<!-- Node25 -->
<g id="node54" class="node"><title>Node25</title>
<polygon fill="white" stroke="#bfbfbf" points="776.5,-56.5 776.5,-75.5 819.5,-75.5 819.5,-56.5 776.5,-56.5"/>
<text text-anchor="middle" x="798" y="-63.5" font-family="Helvetica,sans-Serif" font-size="10.00">queue</text>
</g>
<!-- Node23&#45;&gt;Node25 -->
<g id="edge58" class="edge"><title>Node23&#45;&gt;Node25</title>
<path fill="none" stroke="midnightblue" d="M713.227,-112.324C729.351,-103.703 754.3,-90.3643 772.964,-80.3855"/>
<polygon fill="midnightblue" stroke="midnightblue" points="774.644,-83.456 781.813,-75.6545 771.344,-77.283 774.644,-83.456"/>
</g>
<!-- Node26&#45;&gt;Node8 -->
<g id="edge64" class="edge"><title>Node26&#45;&gt;Node8</title>
<path fill="none" stroke="midnightblue" d="M864.701,-168.444C906.419,-158.157 975.883,-141.029 1016.56,-130.998"/>
<polygon fill="midnightblue" stroke="midnightblue" points="1017.63,-134.341 1026.5,-128.549 1015.95,-127.545 1017.63,-134.341"/>
</g>
<!-- Node26&#45;&gt;Node9 -->
<g id="edge68" class="edge"><title>Node26&#45;&gt;Node9</title>
<path fill="none" stroke="midnightblue" d="M863.763,-168.478C894.126,-160.405 939.708,-147.268 978,-132 996.463,-124.638 999.427,-119.08 1018,-112 1061.62,-95.3735 1113.87,-82.2726 1147.94,-74.5915"/>
<polygon fill="midnightblue" stroke="midnightblue" points="1148.89,-77.9647 1157.9,-72.3838 1147.38,-71.1306 1148.89,-77.9647"/>
</g>
<!-- Node26&#45;&gt;Node23 -->
<g id="edge78" class="edge"><title>Node26&#45;&gt;Node23</title>
<path fill="none" stroke="midnightblue" d="M808.926,-168.444C786.94,-159.517 752.266,-145.439 727.336,-135.317"/>
<polygon fill="midnightblue" stroke="midnightblue" points="728.558,-132.035 717.976,-131.516 725.924,-138.521 728.558,-132.035"/>
</g>
<!-- Node26&#45;&gt;Node25 -->
<g id="edge66" class="edge"><title>Node26&#45;&gt;Node25</title>
<path fill="none" stroke="midnightblue" d="M827.489,-168.368C822.302,-150.537 810.304,-109.295 803.315,-85.2717"/>
<polygon fill="midnightblue" stroke="midnightblue" points="806.653,-84.2157 800.499,-75.5914 799.932,-86.1711 806.653,-84.2157"/>
</g>
<!-- Node27 -->
<g id="node62" class="node"><title>Node27</title>
<polygon fill="white" stroke="#bfbfbf" points="744.5,-112.5 744.5,-131.5 801.5,-131.5 801.5,-112.5 744.5,-112.5"/>
<text text-anchor="middle" x="773" y="-119.5" font-family="Helvetica,sans-Serif" font-size="10.00">pthread.h</text>
</g>
<!-- Node26&#45;&gt;Node27 -->
<g id="edge70" class="edge"><title>Node26&#45;&gt;Node27</title>
<path fill="none" stroke="midnightblue" d="M820.842,-168.324C812.499,-160.42 799.968,-148.548 789.823,-138.938"/>
<polygon fill="midnightblue" stroke="midnightblue" points="791.991,-136.171 782.325,-131.834 787.177,-141.252 791.991,-136.171"/>
</g>
<!-- Node28 -->
<g id="node64" class="node"><title>Node28</title>
<a xlink:href="../../d2/dd8/scheduler_8h_source.xhtml" target="_top" xlink:title="scheduler/scheduler.h">
<polygon fill="white" stroke="black" points="858,-112.5 858,-131.5 970,-131.5 970,-112.5 858,-112.5"/>
<text text-anchor="middle" x="914" y="-119.5" font-family="Helvetica,sans-Serif" font-size="10.00">scheduler/scheduler.h</text>
</a>
</g>
<!-- Node26&#45;&gt;Node28 -->
<g id="edge72" class="edge"><title>Node26&#45;&gt;Node28</title>
<path fill="none" stroke="midnightblue" d="M843.496,-168.324C856.6,-159.9 876.712,-146.971 892.107,-137.074"/>
<polygon fill="midnightblue" stroke="midnightblue" points="894.018,-140.006 900.537,-131.655 890.233,-134.118 894.018,-140.006"/>
</g>
<!-- Node29 -->
<g id="node66" class="node"><title>Node29</title>
<a xlink:href="../../da/d42/process_8h.xhtml" target="_top" xlink:title="process.h">
<polygon fill="white" stroke="black" points="916.5,-56.5 916.5,-75.5 975.5,-75.5 975.5,-56.5 916.5,-56.5"/>
<text text-anchor="middle" x="946" y="-63.5" font-family="Helvetica,sans-Serif" font-size="10.00">process.h</text>
</a>
</g>
<!-- Node28&#45;&gt;Node29 -->
<g id="edge74" class="edge"><title>Node28&#45;&gt;Node29</title>
<path fill="none" stroke="midnightblue" d="M919.284,-112.083C923.711,-104.613 930.163,-93.7244 935.618,-84.5199"/>
<polygon fill="midnightblue" stroke="midnightblue" points="938.727,-86.1383 940.814,-75.7511 932.705,-82.5697 938.727,-86.1383"/>
</g>
<!-- Node29&#45;&gt;Node10 -->
<g id="edge76" class="edge"><title>Node29&#45;&gt;Node10</title>
<path fill="none" stroke="midnightblue" d="M960.781,-56.324C975.267,-47.8215 997.573,-34.7288 1014.49,-24.7975"/>
<polygon fill="midnightblue" stroke="midnightblue" points="1016.4,-27.735 1023.26,-19.6545 1012.86,-21.6981 1016.4,-27.735"/>
</g>
</g>
</svg>
        <g id="navigator" transform="translate(0 0)" fill="#404254">
                <rect fill="#f2f5e9" fill-opacity="0.5" stroke="#606060" stroke-width=".5" x="0" y="0" width="60" height="60"/>
                <use id="zoomplus" xlink:href="#zoomPlus" x="17" y="9" onmousedown="handleZoom(evt,'in')"/>
                <use id="zoomminus" xlink:href="#zoomMin" x="42" y="9" onmousedown="handleZoom(evt,'out')"/>
                <use id="reset" xlink:href="#resetDef" x="30" y="36" onmousedown="handleReset()"/>
                <g id="arrowUp" xlink:href="#dirArrow" transform="translate(30 24)" onmousedown="handlePan(0,-1)">
                  <use xlink:href="#rim" fill="#404040">
                        <set attributeName="fill" to="#808080" begin="arrowUp.mouseover" end="arrowUp.mouseout"/>
                  </use>
                  <path fill="none" stroke="white" stroke-width="1.5" d="M0,-3.0v7 M-2.5,-0.5L0,-3.0L2.5,-0.5"/>
                </g>
                <g id="arrowRight" xlink:href="#dirArrow" transform="rotate(90) translate(36 -43)" onmousedown="handlePan(1,0)">
                  <use xlink:href="#rim" fill="#404040">
                        <set attributeName="fill" to="#808080" begin="arrowRight.mouseover" end="arrowRight.mouseout"/>
                  </use>
                  <path fill="none" stroke="white" stroke-width="1.5" d="M0,-3.0v7 M-2.5,-0.5L0,-3.0L2.5,-0.5"/>
                </g>
                <g id="arrowDown" xlink:href="#dirArrow" transform="rotate(180) translate(-30 -48)" onmousedown="handlePan(0,1)">
                  <use xlink:href="#rim" fill="#404040">
                        <set attributeName="fill" to="#808080" begin="arrowDown.mouseover" end="arrowDown.mouseout"/>
                  </use>
                  <path fill="none" stroke="white" stroke-width="1.5" d="M0,-3.0v7 M-2.5,-0.5L0,-3.0L2.5,-0.5"/>
                </g>
                <g id="arrowLeft" xlink:href="#dirArrow" transform="rotate(270) translate(-36 17)" onmousedown="handlePan(-1,0)">
                  <use xlink:href="#rim" fill="#404040">
                        <set attributeName="fill" to="#808080" begin="arrowLeft.mouseover" end="arrowLeft.mouseout"/>
                  </use>
                  <path fill="none" stroke="white" stroke-width="1.5" d="M0,-3.0v7 M-2.5,-0.5L0,-3.0L2.5,-0.5"/>
                </g>
        </g>
</svg>
