<?xml version="1.0" encoding="UTF-8" standalone="no"?>
<!DOCTYPE svg PUBLIC "-//W3C//DTD SVG 1.1//EN"
 "http://www.w3.org/Graphics/SVG/1.1/DTD/svg11.dtd">
<!-- Generated by graphviz version 2.28.0 (20111025.1818)
 -->
<!-- Title: G Pages: 1 -->
<!--zoomable 364 -->
<svg id="main" version="1.1" xmlns="http://www.w3.org/2000/svg" xmlns:xlink="http://www.w3.org/1999/xlink" xml:space="preserve" onload="init(evt)">
        <defs>
                <circle id="rim" cx="0" cy="0" r="7"/>
                <circle id="rim2" cx="0" cy="0" r="3.5"/>
                <g id="zoomPlus">
                        <use xlink:href="#rim" fill="#404040">
                                <set attributeName="fill" to="#808080" begin="zoomplus.mouseover" end="zoomplus.mouseout"/>
                        </use>
                        <path d="M-4,0h8M0,-4v8" fill="none" stroke="white" stroke-width="1.5" pointer-events="none"/>
                </g>
                <g id="zoomMin">
                        <use xlink:href="#rim" fill="#404040">
                                <set attributeName="fill" to="#808080" begin="zoomminus.mouseover" end="zoomminus.mouseout"/>
                        </use>
                        <path d="M-4,0h8" fill="none" stroke="white" stroke-width="1.5" pointer-events="none"/>
                </g>
                <g id="dirArrow">
                        <path fill="none" stroke="white" stroke-width="1.5" d="M0,-3.0v7 M-2.5,-0.5L0,-3.0L2.5,-0.5"/>
                </g>
               <g id="resetDef">
                       <use xlink:href="#rim2" fill="#404040">
                               <set attributeName="fill" to="#808080" begin="reset.mouseover" end="reset.mouseout"/>
                       </use>
               </g>
        </defs>

<script type="text/javascript">
var viewWidth = 1398;
var viewHeight = 364;
var sectionId = 'dynsection-0';
</script>
<script xlink:href="../../svgpan.js"/>
<svg id="graph" class="graph">
<g id="viewport">
<title>G</title>
<polygon fill="white" stroke="white" points="-4,5 -4,-360 1394.91,-360 1394.91,5 -4,5"/>
<!-- Node1 -->
<g id="node1" class="node"><title>Node1</title>
<polygon fill="#bfbfbf" stroke="black" points="565.698,-336.5 565.698,-355.5 650.698,-355.5 650.698,-336.5 565.698,-336.5"/>
<text text-anchor="middle" x="608.198" y="-343.5" font-family="Helvetica,sans-Serif" font-size="10.00">include/kernel.h</text>
</g>
<!-- Node2 -->
<g id="node3" class="node"><title>Node2</title>
<polygon fill="white" stroke="#bfbfbf" points="295.198,-280.5 295.198,-299.5 339.198,-299.5 339.198,-280.5 295.198,-280.5"/>
<text text-anchor="middle" x="317.198" y="-287.5" font-family="Helvetica,sans-Serif" font-size="10.00">vector</text>
</g>
<!-- Node1&#45;&gt;Node2 -->
<g id="edge2" class="edge"><title>Node1&#45;&gt;Node2</title>
<path fill="none" stroke="midnightblue" d="M565.576,-339.11C515.855,-331.911 431.032,-318.615 349.407,-300.075"/>
<polygon fill="midnightblue" stroke="midnightblue" points="350.002,-296.62 339.471,-297.788 348.431,-303.442 350.002,-296.62"/>
</g>
<!-- Node3 -->
<g id="node5" class="node"><title>Node3</title>
<polygon fill="white" stroke="#bfbfbf" points="357.198,-280.5 357.198,-299.5 417.198,-299.5 417.198,-280.5 357.198,-280.5"/>
<text text-anchor="middle" x="387.198" y="-287.5" font-family="Helvetica,sans-Serif" font-size="10.00">sys/stat.h</text>
</g>
<!-- Node1&#45;&gt;Node3 -->
<g id="edge4" class="edge"><title>Node1&#45;&gt;Node3</title>
<path fill="none" stroke="midnightblue" d="M573.18,-336.444C533.489,-326.745 468.908,-310.965 427.247,-300.786"/>
<polygon fill="midnightblue" stroke="midnightblue" points="427.981,-297.362 417.436,-298.388 426.319,-304.162 427.981,-297.362"/>
</g>
<!-- Node4 -->
<g id="node7" class="node"><title>Node4</title>
<polygon fill="white" stroke="#bfbfbf" points="435.698,-280.5 435.698,-299.5 508.698,-299.5 508.698,-280.5 435.698,-280.5"/>
<text text-anchor="middle" x="472.198" y="-287.5" font-family="Helvetica,sans-Serif" font-size="10.00">semaphore.h</text>
</g>
<!-- Node1&#45;&gt;Node4 -->
<g id="edge6" class="edge"><title>Node1&#45;&gt;Node4</title>
<path fill="none" stroke="midnightblue" d="M586.648,-336.444C564.167,-327.517 528.71,-313.439 503.218,-303.317"/>
<polygon fill="midnightblue" stroke="midnightblue" points="504.233,-299.954 493.647,-299.516 501.649,-306.46 504.233,-299.954"/>
</g>
<!-- Node5 -->
<g id="node9" class="node"><title>Node5</title>
<a xlink:href="../../dc/da7/cpu_8h.xhtml" target="_top" xlink:title="cpu.h">
<polygon fill="white" stroke="black" points="137.698,-168.5 137.698,-187.5 178.698,-187.5 178.698,-168.5 137.698,-168.5"/>
<text text-anchor="middle" x="158.198" y="-175.5" font-family="Helvetica,sans-Serif" font-size="10.00">cpu.h</text>
</a>
</g>
<!-- Node1&#45;&gt;Node5 -->
<g id="edge8" class="edge"><title>Node1&#45;&gt;Node5</title>
<path fill="none" stroke="midnightblue" d="M598.555,-336.359C582.685,-322.562 549.583,-295.534 517.198,-280 402.689,-225.074 252.892,-195.022 189.111,-183.973"/>
<polygon fill="midnightblue" stroke="midnightblue" points="189.373,-180.468 178.929,-182.245 188.202,-187.369 189.373,-180.468"/>
</g>
<!-- Node13 -->
<g id="node26" class="node"><title>Node13</title>
<a xlink:href="../../d7/d59/char__device_8h.xhtml" target="_top" xlink:title="devices/char_device.h">
<polygon fill="white" stroke="black" points="931.198,-224.5 931.198,-243.5 1045.2,-243.5 1045.2,-224.5 931.198,-224.5"/>
<text text-anchor="middle" x="988.198" y="-231.5" font-family="Helvetica,sans-Serif" font-size="10.00">devices/char_device.h</text>
</a>
</g>
<!-- Node1&#45;&gt;Node13 -->
<g id="edge26" class="edge"><title>Node1&#45;&gt;Node13</title>
<path fill="none" stroke="midnightblue" d="M650.95,-341.833C724.132,-335.906 869.988,-321.738 916.198,-300 940.113,-288.75 961.765,-266.865 974.941,-251.613"/>
<polygon fill="midnightblue" stroke="midnightblue" points="977.631,-253.852 981.35,-243.931 972.256,-249.368 977.631,-253.852"/>
</g>
<!-- Node23 -->
<g id="node48" class="node"><title>Node23</title>
<a xlink:href="../../db/d9a/block__device_8h.xhtml" target="_top" xlink:title="devices/block_device.h">
<polygon fill="white" stroke="black" points="842.698,-168.5 842.698,-187.5 961.698,-187.5 961.698,-168.5 842.698,-168.5"/>
<text text-anchor="middle" x="902.198" y="-175.5" font-family="Helvetica,sans-Serif" font-size="10.00">devices/block_device.h</text>
</a>
</g>
<!-- Node1&#45;&gt;Node23 -->
<g id="edge50" class="edge"><title>Node1&#45;&gt;Node23</title>
<path fill="none" stroke="midnightblue" d="M650.709,-341.66C711.48,-334.536 822.531,-312.393 883.198,-244 894.525,-231.23 899.116,-212.038 900.967,-197.815"/>
<polygon fill="midnightblue" stroke="midnightblue" points="904.467,-197.982 901.941,-187.692 897.499,-197.311 904.467,-197.982"/>
</g>
<!-- Node24 -->
<g id="node52" class="node"><title>Node24</title>
<a xlink:href="../../df/d8f/clock__device_8h.xhtml" target="_top" xlink:title="devices/clock_device.h">
<polygon fill="white" stroke="black" points="1140.7,-168.5 1140.7,-187.5 1259.7,-187.5 1259.7,-168.5 1140.7,-168.5"/>
<text text-anchor="middle" x="1200.2" y="-175.5" font-family="Helvetica,sans-Serif" font-size="10.00">devices/clock_device.h</text>
</a>
</g>
<!-- Node1&#45;&gt;Node24 -->
<g id="edge56" class="edge"><title>Node1&#45;&gt;Node24</title>
<path fill="none" stroke="midnightblue" d="M650.709,-343.49C715.333,-340.267 841.616,-330.314 944.198,-300 1034.89,-273.198 1133.85,-218.344 1177.43,-192.737"/>
<polygon fill="midnightblue" stroke="midnightblue" points="1179.29,-195.706 1186.1,-187.596 1175.72,-189.684 1179.29,-195.706"/>
</g>
<!-- Node27 -->
<g id="node62" class="node"><title>Node27</title>
<a xlink:href="../../d5/d8b/allSchedulers_8h_source.xhtml" target="_top" xlink:title="scheduler/allSchedulers.h">
<polygon fill="white" stroke="black" points="615.198,-280.5 615.198,-299.5 743.198,-299.5 743.198,-280.5 615.198,-280.5"/>
<text text-anchor="middle" x="679.198" y="-287.5" font-family="Helvetica,sans-Serif" font-size="10.00">scheduler/allSchedulers.h</text>
</a>
</g>
<!-- Node1&#45;&gt;Node27 -->
<g id="edge70" class="edge"><title>Node1&#45;&gt;Node27</title>
<path fill="none" stroke="midnightblue" d="M619.605,-336.324C630.307,-328.185 646.539,-315.839 659.361,-306.087"/>
<polygon fill="midnightblue" stroke="midnightblue" points="661.742,-308.673 667.583,-299.834 657.505,-303.102 661.742,-308.673"/>
</g>
<!-- Node6 -->
<g id="node11" class="node"><title>Node6</title>
<polygon fill="white" stroke="#bfbfbf" points="254.698,-0.5 254.698,-19.5 297.698,-19.5 297.698,-0.5 254.698,-0.5"/>
<text text-anchor="middle" x="276.198" y="-7.5" font-family="Helvetica,sans-Serif" font-size="10.00">cstdio</text>
</g>
<!-- Node5&#45;&gt;Node6 -->
<g id="edge10" class="edge"><title>Node5&#45;&gt;Node6</title>
<path fill="none" stroke="midnightblue" d="M137.486,-169.642C119.454,-162.38 93.5537,-149.779 76.198,-132 50.9434,-106.13 24.2303,-83.9203 47.198,-56 71.8029,-26.0896 187.371,-15.7565 244.319,-12.4413"/>
<polygon fill="midnightblue" stroke="midnightblue" points="244.764,-15.9224 254.56,-11.8844 244.384,-8.93269 244.764,-15.9224"/>
</g>
<!-- Node7 -->
<g id="node13" class="node"><title>Node7</title>
<polygon fill="white" stroke="#bfbfbf" points="219.698,-112.5 219.698,-131.5 264.698,-131.5 264.698,-112.5 219.698,-112.5"/>
<text text-anchor="middle" x="242.198" y="-119.5" font-family="Helvetica,sans-Serif" font-size="10.00">cstdlib</text>
</g>
<!-- Node5&#45;&gt;Node7 -->
<g id="edge12" class="edge"><title>Node5&#45;&gt;Node7</title>
<path fill="none" stroke="midnightblue" d="M171.694,-168.324C184.798,-159.9 204.91,-146.971 220.305,-137.074"/>
<polygon fill="midnightblue" stroke="midnightblue" points="222.216,-140.006 228.735,-131.655 218.431,-134.118 222.216,-140.006"/>
</g>
<!-- Node8 -->
<g id="node15" class="node"><title>Node8</title>
<polygon fill="white" stroke="#bfbfbf" points="196.198,-56.5 196.198,-75.5 248.198,-75.5 248.198,-56.5 196.198,-56.5"/>
<text text-anchor="middle" x="222.198" y="-63.5" font-family="Helvetica,sans-Serif" font-size="10.00">assert.h</text>
</g>
<!-- Node5&#45;&gt;Node8 -->
<g id="edge14" class="edge"><title>Node5&#45;&gt;Node8</title>
<path fill="none" stroke="midnightblue" d="M163.22,-168.368C173.735,-150.296 198.241,-108.176 212.128,-84.3074"/>
<polygon fill="midnightblue" stroke="midnightblue" points="215.196,-85.9951 217.199,-75.5914 209.145,-82.4748 215.196,-85.9951"/>
</g>
<!-- Node9 -->
<g id="node17" class="node"><title>Node9</title>
<polygon fill="white" stroke="#bfbfbf" points="69.698,-0.5 69.698,-19.5 128.698,-19.5 128.698,-0.5 69.698,-0.5"/>
<text text-anchor="middle" x="99.198" y="-7.5" font-family="Helvetica,sans-Serif" font-size="10.00">inttypes.h</text>
</g>
<!-- Node5&#45;&gt;Node9 -->
<g id="edge16" class="edge"><title>Node5&#45;&gt;Node9</title>
<path fill="none" stroke="midnightblue" d="M137.473,-177.541C104.983,-177.122 42.8225,-170.935 14.198,-132 -5.80977,-104.786 -3.22475,-84.9376 14.198,-56 24.2055,-39.3786 42.6396,-28.575 59.7892,-21.7323"/>
<polygon fill="midnightblue" stroke="midnightblue" points="61.4595,-24.8495 69.6648,-18.147 59.0707,-18.2697 61.4595,-24.8495"/>
</g>
<!-- Node10 -->
<g id="node19" class="node"><title>Node10</title>
<a xlink:href="../../d1/d8c/logger_8h.xhtml" target="_top" xlink:title="utility/logger.h">
<polygon fill="white" stroke="black" points="85.698,-112.5 85.698,-131.5 162.698,-131.5 162.698,-112.5 85.698,-112.5"/>
<text text-anchor="middle" x="124.198" y="-119.5" font-family="Helvetica,sans-Serif" font-size="10.00">utility/logger.h</text>
</a>
</g>
<!-- Node5&#45;&gt;Node10 -->
<g id="edge18" class="edge"><title>Node5&#45;&gt;Node10</title>
<path fill="none" stroke="midnightblue" d="M152.584,-168.083C147.831,-160.534 140.88,-149.495 135.046,-140.23"/>
<polygon fill="midnightblue" stroke="midnightblue" points="137.998,-138.349 129.708,-131.751 132.074,-142.078 137.998,-138.349"/>
</g>
<!-- Node10&#45;&gt;Node8 -->
<g id="edge20" class="edge"><title>Node10&#45;&gt;Node8</title>
<path fill="none" stroke="midnightblue" d="M139.943,-112.324C155.517,-103.743 179.575,-90.486 197.657,-80.5224"/>
<polygon fill="midnightblue" stroke="midnightblue" points="199.422,-83.546 206.492,-75.6545 196.044,-77.4152 199.422,-83.546"/>
</g>
<!-- Node11 -->
<g id="node22" class="node"><title>Node11</title>
<polygon fill="white" stroke="#bfbfbf" points="56.198,-56.5 56.198,-75.5 110.198,-75.5 110.198,-56.5 56.198,-56.5"/>
<text text-anchor="middle" x="83.198" y="-63.5" font-family="Helvetica,sans-Serif" font-size="10.00">iostream</text>
</g>
<!-- Node10&#45;&gt;Node11 -->
<g id="edge22" class="edge"><title>Node10&#45;&gt;Node11</title>
<path fill="none" stroke="midnightblue" d="M117.428,-112.083C111.636,-104.455 103.14,-93.2645 96.0605,-83.9408"/>
<polygon fill="midnightblue" stroke="midnightblue" points="98.6771,-81.5991 89.8424,-75.7511 93.1019,-85.8321 98.6771,-81.5991"/>
</g>
<!-- Node12 -->
<g id="node24" class="node"><title>Node12</title>
<polygon fill="white" stroke="#bfbfbf" points="128.198,-56.5 128.198,-75.5 178.198,-75.5 178.198,-56.5 128.198,-56.5"/>
<text text-anchor="middle" x="153.198" y="-63.5" font-family="Helvetica,sans-Serif" font-size="10.00">fstream</text>
</g>
<!-- Node10&#45;&gt;Node12 -->
<g id="edge24" class="edge"><title>Node10&#45;&gt;Node12</title>
<path fill="none" stroke="midnightblue" d="M128.987,-112.083C132.956,-104.691 138.723,-93.9533 143.633,-84.8111"/>
<polygon fill="midnightblue" stroke="midnightblue" points="146.851,-86.217 148.498,-75.7511 140.684,-82.9051 146.851,-86.217"/>
</g>
<!-- Node14 -->
<g id="node28" class="node"><title>Node14</title>
<a xlink:href="../../dd/d9e/queued__device_8h.xhtml" target="_top" xlink:title="devices/queued_device.h">
<polygon fill="white" stroke="black" points="993.698,-112.5 993.698,-131.5 1120.7,-131.5 1120.7,-112.5 993.698,-112.5"/>
<text text-anchor="middle" x="1057.2" y="-119.5" font-family="Helvetica,sans-Serif" font-size="10.00">devices/queued_device.h</text>
</a>
</g>
<!-- Node13&#45;&gt;Node14 -->
<g id="edge28" class="edge"><title>Node13&#45;&gt;Node14</title>
<path fill="none" stroke="midnightblue" d="M993.612,-224.368C1004.95,-206.296 1031.37,-164.176 1046.34,-140.307"/>
<polygon fill="midnightblue" stroke="midnightblue" points="1049.46,-141.923 1051.81,-131.591 1043.53,-138.203 1049.46,-141.923"/>
</g>
<!-- Node14&#45;&gt;Node8 -->
<g id="edge34" class="edge"><title>Node14&#45;&gt;Node8</title>
<path fill="none" stroke="midnightblue" d="M993.623,-118.615C862.727,-113.404 553.706,-99.5444 295.198,-76 283.32,-74.9181 270.391,-73.4276 258.76,-71.9706"/>
<polygon fill="midnightblue" stroke="midnightblue" points="258.874,-68.4567 248.51,-70.6547 257.983,-75.3997 258.874,-68.4567"/>
</g>
<!-- Node15 -->
<g id="node30" class="node"><title>Node15</title>
<polygon fill="white" stroke="#bfbfbf" points="1322.2,-56.5 1322.2,-75.5 1366.2,-75.5 1366.2,-56.5 1322.2,-56.5"/>
<text text-anchor="middle" x="1344.2" y="-63.5" font-family="Helvetica,sans-Serif" font-size="10.00">time.h</text>
</g>
<!-- Node14&#45;&gt;Node15 -->
<g id="edge30" class="edge"><title>Node14&#45;&gt;Node15</title>
<path fill="none" stroke="midnightblue" d="M1116.28,-112.479C1166.17,-104.861 1239.63,-92.6533 1312.16,-76.0442"/>
<polygon fill="midnightblue" stroke="midnightblue" points="1312.97,-79.4492 1321.92,-73.7805 1311.39,-72.6302 1312.97,-79.4492"/>
</g>
<!-- Node16 -->
<g id="node32" class="node"><title>Node16</title>
<polygon fill="white" stroke="#bfbfbf" points="1254.2,-56.5 1254.2,-75.5 1304.2,-75.5 1304.2,-56.5 1254.2,-56.5"/>
<text text-anchor="middle" x="1279.2" y="-63.5" font-family="Helvetica,sans-Serif" font-size="10.00">signal.h</text>
</g>
<!-- Node14&#45;&gt;Node16 -->
<g id="edge32" class="edge"><title>Node14&#45;&gt;Node16</title>
<path fill="none" stroke="midnightblue" d="M1093.44,-112.456C1131.14,-103.525 1191.87,-89.0242 1244.2,-76 1244.3,-75.9754 1244.4,-75.9507 1244.5,-75.926"/>
<polygon fill="midnightblue" stroke="midnightblue" points="1245.13,-79.3746 1253.97,-73.5358 1243.42,-72.587 1245.13,-79.3746"/>
</g>
<!-- Node17 -->
<g id="node35" class="node"><title>Node17</title>
<polygon fill="white" stroke="#bfbfbf" points="1188.7,-56.5 1188.7,-75.5 1235.7,-75.5 1235.7,-56.5 1188.7,-56.5"/>
<text text-anchor="middle" x="1212.2" y="-63.5" font-family="Helvetica,sans-Serif" font-size="10.00">errno.h</text>
</g>
<!-- Node14&#45;&gt;Node17 -->
<g id="edge36" class="edge"><title>Node14&#45;&gt;Node17</title>
<path fill="none" stroke="midnightblue" d="M1081.76,-112.444C1107.95,-103.319 1149.59,-88.8107 1178.76,-78.6482"/>
<polygon fill="midnightblue" stroke="midnightblue" points="1180.22,-81.846 1188.52,-75.2508 1177.92,-75.2356 1180.22,-81.846"/>
</g>
<!-- Node18 -->
<g id="node37" class="node"><title>Node18</title>
<polygon fill="white" stroke="#bfbfbf" points="969.698,-56.5 969.698,-75.5 1018.7,-75.5 1018.7,-56.5 969.698,-56.5"/>
<text text-anchor="middle" x="994.198" y="-63.5" font-family="Helvetica,sans-Serif" font-size="10.00">string.h</text>
</g>
<!-- Node14&#45;&gt;Node18 -->
<g id="edge38" class="edge"><title>Node14&#45;&gt;Node18</title>
<path fill="none" stroke="midnightblue" d="M1047.08,-112.324C1037.67,-104.263 1023.45,-92.0765 1012.13,-82.3695"/>
<polygon fill="midnightblue" stroke="midnightblue" points="1014.37,-79.6844 1004.5,-75.8339 1009.82,-84.9993 1014.37,-79.6844"/>
</g>
<!-- Node19 -->
<g id="node39" class="node"><title>Node19</title>
<polygon fill="white" stroke="#bfbfbf" points="1139.7,-0.5 1139.7,-19.5 1180.7,-19.5 1180.7,-0.5 1139.7,-0.5"/>
<text text-anchor="middle" x="1160.2" y="-7.5" font-family="Helvetica,sans-Serif" font-size="10.00">string</text>
</g>
<!-- Node14&#45;&gt;Node19 -->
<g id="edge40" class="edge"><title>Node14&#45;&gt;Node19</title>
<path fill="none" stroke="midnightblue" d="M1071.63,-112.21C1084.53,-103.912 1103.44,-90.5914 1117.2,-76 1130.79,-61.5805 1142.9,-42.3862 1150.78,-28.5994"/>
<polygon fill="midnightblue" stroke="midnightblue" points="1153.95,-30.1057 1155.73,-19.6618 1147.82,-26.715 1153.95,-30.1057"/>
</g>
<!-- Node20 -->
<g id="node41" class="node"><title>Node20</title>
<polygon fill="white" stroke="#bfbfbf" points="1020.7,-0.5 1020.7,-19.5 1063.7,-19.5 1063.7,-0.5 1020.7,-0.5"/>
<text text-anchor="middle" x="1042.2" y="-7.5" font-family="Helvetica,sans-Serif" font-size="10.00">queue</text>
</g>
<!-- Node14&#45;&gt;Node20 -->
<g id="edge42" class="edge"><title>Node14&#45;&gt;Node20</title>
<path fill="none" stroke="midnightblue" d="M1070.51,-112.458C1087.39,-100.484 1113.06,-77.7288 1102.2,-56 1095.47,-42.5432 1082.59,-32.0665 1070.49,-24.6212"/>
<polygon fill="midnightblue" stroke="midnightblue" points="1071.92,-21.4101 1061.49,-19.5195 1068.46,-27.4985 1071.92,-21.4101"/>
</g>
<!-- Node21 -->
<g id="node43" class="node"><title>Node21</title>
<polygon fill="white" stroke="#bfbfbf" points="1036.7,-56.5 1036.7,-75.5 1093.7,-75.5 1093.7,-56.5 1036.7,-56.5"/>
<text text-anchor="middle" x="1065.2" y="-63.5" font-family="Helvetica,sans-Serif" font-size="10.00">pthread.h</text>
</g>
<!-- Node14&#45;&gt;Node21 -->
<g id="edge44" class="edge"><title>Node14&#45;&gt;Node21</title>
<path fill="none" stroke="midnightblue" d="M1058.52,-112.083C1059.58,-104.927 1061.1,-94.6353 1062.43,-85.6911"/>
<polygon fill="midnightblue" stroke="midnightblue" points="1065.9,-86.1561 1063.9,-75.7511 1058.97,-85.1302 1065.9,-86.1561"/>
</g>
<!-- Node22 -->
<g id="node45" class="node"><title>Node22</title>
<a xlink:href="../../da/d42/process_8h.xhtml" target="_top" xlink:title="process.h">
<polygon fill="white" stroke="black" points="815.698,-56.5 815.698,-75.5 874.698,-75.5 874.698,-56.5 815.698,-56.5"/>
<text text-anchor="middle" x="845.198" y="-63.5" font-family="Helvetica,sans-Serif" font-size="10.00">process.h</text>
</a>
</g>
<!-- Node14&#45;&gt;Node22 -->
<g id="edge46" class="edge"><title>Node14&#45;&gt;Node22</title>
<path fill="none" stroke="midnightblue" d="M1023.61,-112.444C985.907,-102.841 924.801,-87.2763 884.806,-77.0887"/>
<polygon fill="midnightblue" stroke="midnightblue" points="885.425,-73.6347 874.87,-74.558 883.697,-80.4181 885.425,-73.6347"/>
</g>
<!-- Node22&#45;&gt;Node9 -->
<g id="edge48" class="edge"><title>Node22&#45;&gt;Node9</title>
<path fill="none" stroke="midnightblue" d="M815.482,-57.6162C812.361,-56.9985 809.223,-56.4423 806.198,-56 797.87,-54.7823 286.416,-22.7175 138.725,-13.4728"/>
<polygon fill="midnightblue" stroke="midnightblue" points="138.931,-9.97889 128.732,-12.8473 138.494,-16.9652 138.931,-9.97889"/>
</g>
<!-- Node23&#45;&gt;Node6 -->
<g id="edge52" class="edge"><title>Node23&#45;&gt;Node6</title>
<path fill="none" stroke="midnightblue" d="M842.55,-170.696C697.65,-154.877 335.981,-112.179 295.198,-76 282.162,-64.4358 277.852,-44.4733 276.534,-29.714"/>
<polygon fill="midnightblue" stroke="midnightblue" points="280.026,-29.4726 276.014,-19.6669 273.035,-29.8345 280.026,-29.4726"/>
</g>
<!-- Node23&#45;&gt;Node14 -->
<g id="edge54" class="edge"><title>Node23&#45;&gt;Node14</title>
<path fill="none" stroke="midnightblue" d="M926.758,-168.444C952.721,-159.399 993.866,-145.064 1023,-134.916"/>
<polygon fill="midnightblue" stroke="midnightblue" points="1024.46,-138.112 1032.75,-131.516 1022.16,-131.501 1024.46,-138.112"/>
</g>
<!-- Node24&#45;&gt;Node17 -->
<g id="edge58" class="edge"><title>Node24&#45;&gt;Node17</title>
<path fill="none" stroke="midnightblue" d="M1190.74,-168.348C1178.52,-156.059 1159.75,-132.733 1168.2,-112 1173,-100.225 1182.53,-89.8564 1191.49,-82.0486"/>
<polygon fill="midnightblue" stroke="midnightblue" points="1193.85,-84.6448 1199.42,-75.6314 1189.44,-79.2048 1193.85,-84.6448"/>
</g>
<!-- Node24&#45;&gt;Node19 -->
<g id="edge62" class="edge"><title>Node24&#45;&gt;Node19</title>
<path fill="none" stroke="midnightblue" d="M1259.9,-170.084C1306.67,-163.293 1366.24,-151.132 1381.2,-132 1392.27,-117.844 1394.99,-78.5936 1374.2,-56 1349.84,-29.5389 1244.34,-17.5978 1191.13,-13.1775"/>
<polygon fill="midnightblue" stroke="midnightblue" points="1191.17,-9.66947 1180.92,-12.3687 1190.61,-16.6476 1191.17,-9.66947"/>
</g>
<!-- Node25 -->
<g id="node55" class="node"><title>Node25</title>
<polygon fill="white" stroke="#bfbfbf" points="1177.2,-112.5 1177.2,-131.5 1223.2,-131.5 1223.2,-112.5 1177.2,-112.5"/>
<text text-anchor="middle" x="1200.2" y="-119.5" font-family="Helvetica,sans-Serif" font-size="10.00">cstring</text>
</g>
<!-- Node24&#45;&gt;Node25 -->
<g id="edge60" class="edge"><title>Node24&#45;&gt;Node25</title>
<path fill="none" stroke="midnightblue" d="M1200.2,-168.083C1200.2,-161.006 1200.2,-150.861 1200.2,-141.986"/>
<polygon fill="midnightblue" stroke="midnightblue" points="1203.7,-141.751 1200.2,-131.751 1196.7,-141.751 1203.7,-141.751"/>
</g>
<!-- Node26 -->
<g id="node58" class="node"><title>Node26</title>
<a xlink:href="../../d0/d8f/abstract__device_8h_source.xhtml" target="_top" xlink:title="devices/abstract_device.h">
<polygon fill="white" stroke="black" points="1241.7,-112.5 1241.7,-131.5 1372.7,-131.5 1372.7,-112.5 1241.7,-112.5"/>
<text text-anchor="middle" x="1307.2" y="-119.5" font-family="Helvetica,sans-Serif" font-size="10.00">devices/abstract_device.h</text>
</a>
</g>
<!-- Node24&#45;&gt;Node26 -->
<g id="edge64" class="edge"><title>Node24&#45;&gt;Node26</title>
<path fill="none" stroke="midnightblue" d="M1217.39,-168.324C1234.55,-159.664 1261.14,-146.242 1280.95,-136.249"/>
<polygon fill="midnightblue" stroke="midnightblue" points="1282.7,-139.285 1290.05,-131.655 1279.54,-133.035 1282.7,-139.285"/>
</g>
<!-- Node26&#45;&gt;Node15 -->
<g id="edge66" class="edge"><title>Node26&#45;&gt;Node15</title>
<path fill="none" stroke="midnightblue" d="M1313.31,-112.083C1318.48,-104.534 1326.04,-93.4948 1332.39,-84.2298"/>
<polygon fill="midnightblue" stroke="midnightblue" points="1335.44,-85.9787 1338.2,-75.7511 1329.66,-82.0221 1335.44,-85.9787"/>
</g>
<!-- Node26&#45;&gt;Node16 -->
<g id="edge68" class="edge"><title>Node26&#45;&gt;Node16</title>
<path fill="none" stroke="midnightblue" d="M1302.57,-112.083C1298.74,-104.691 1293.17,-93.9533 1288.43,-84.8111"/>
<polygon fill="midnightblue" stroke="midnightblue" points="1291.45,-83.0175 1283.74,-75.7511 1285.23,-86.2398 1291.45,-83.0175"/>
</g>
<!-- Node28 -->
<g id="node64" class="node"><title>Node28</title>
<a xlink:href="../../db/d41/fcfs_8h.xhtml" target="_top" xlink:title="scheduler/fcfs.h">
<polygon fill="white" stroke="black" points="540.198,-224.5 540.198,-243.5 626.198,-243.5 626.198,-224.5 540.198,-224.5"/>
<text text-anchor="middle" x="583.198" y="-231.5" font-family="Helvetica,sans-Serif" font-size="10.00">scheduler/fcfs.h</text>
</a>
</g>
<!-- Node27&#45;&gt;Node28 -->
<g id="edge72" class="edge"><title>Node27&#45;&gt;Node28</title>
<path fill="none" stroke="midnightblue" d="M663.774,-280.324C648.658,-271.822 625.383,-258.729 607.727,-248.797"/>
<polygon fill="midnightblue" stroke="midnightblue" points="609.016,-245.507 598.584,-243.655 605.584,-251.608 609.016,-245.507"/>
</g>
<!-- Node40 -->
<g id="node102" class="node"><title>Node40</title>
<polygon fill="white" stroke="#bfbfbf" points="782.198,-224.5 782.198,-243.5 874.198,-243.5 874.198,-224.5 782.198,-224.5"/>
<text text-anchor="middle" x="828.198" y="-231.5" font-family="Helvetica,sans-Serif" font-size="10.00">scheduler/lotter.h</text>
</g>
<!-- Node27&#45;&gt;Node40 -->
<g id="edge124" class="edge"><title>Node27&#45;&gt;Node40</title>
<path fill="none" stroke="midnightblue" d="M702.808,-280.444C727.656,-271.438 766.972,-257.189 794.952,-247.049"/>
<polygon fill="midnightblue" stroke="midnightblue" points="796.49,-250.214 804.699,-243.516 794.105,-243.633 796.49,-250.214"/>
</g>
<!-- Node41 -->
<g id="node104" class="node"><title>Node41</title>
<a xlink:href="../../d9/dd2/round__robin_8h_source.xhtml" target="_top" xlink:title="scheduler/round_robin.h">
<polygon fill="white" stroke="black" points="644.198,-224.5 644.198,-243.5 764.198,-243.5 764.198,-224.5 644.198,-224.5"/>
<text text-anchor="middle" x="704.198" y="-231.5" font-family="Helvetica,sans-Serif" font-size="10.00">scheduler/round_robin.h</text>
</a>
</g>
<!-- Node27&#45;&gt;Node41 -->
<g id="edge126" class="edge"><title>Node27&#45;&gt;Node41</title>
<path fill="none" stroke="midnightblue" d="M683.326,-280.083C686.712,-272.77 691.614,-262.181 695.817,-253.103"/>
<polygon fill="midnightblue" stroke="midnightblue" points="699.121,-254.296 700.147,-243.751 692.769,-251.355 699.121,-254.296"/>
</g>
<!-- Node28&#45;&gt;Node8 -->
<g id="edge74" class="edge"><title>Node28&#45;&gt;Node8</title>
<path fill="none" stroke="midnightblue" d="M540.185,-226.202C466.078,-214.423 321.767,-191.172 317.198,-188 285.135,-165.744 297.931,-142.193 273.198,-112 264.079,-100.867 252.083,-90.1353 242.017,-81.9459"/>
<polygon fill="midnightblue" stroke="midnightblue" points="244.138,-79.1613 234.121,-75.7118 239.801,-84.6555 244.138,-79.1613"/>
</g>
<!-- Node29 -->
<g id="node67" class="node"><title>Node29</title>
<a xlink:href="../../d2/dd8/scheduler_8h_source.xhtml" target="_top" xlink:title="scheduler/scheduler.h">
<polygon fill="white" stroke="black" points="648.198,-168.5 648.198,-187.5 760.198,-187.5 760.198,-168.5 648.198,-168.5"/>
<text text-anchor="middle" x="704.198" y="-175.5" font-family="Helvetica,sans-Serif" font-size="10.00">scheduler/scheduler.h</text>
</a>
</g>
<!-- Node28&#45;&gt;Node29 -->
<g id="edge76" class="edge"><title>Node28&#45;&gt;Node29</title>
<path fill="none" stroke="midnightblue" d="M602.371,-224.444C622.107,-215.636 653.083,-201.812 675.691,-191.722"/>
<polygon fill="midnightblue" stroke="midnightblue" points="677.409,-194.788 685.115,-187.516 674.557,-188.396 677.409,-194.788"/>
</g>
<!-- Node29&#45;&gt;Node7 -->
<g id="edge78" class="edge"><title>Node29&#45;&gt;Node7</title>
<path fill="none" stroke="midnightblue" d="M648.01,-170.433C550.628,-159.05 353.429,-136.001 275.227,-126.861"/>
<polygon fill="midnightblue" stroke="midnightblue" points="275.344,-123.35 265.005,-125.666 274.531,-130.303 275.344,-123.35"/>
</g>
<!-- Node29&#45;&gt;Node10 -->
<g id="edge84" class="edge"><title>Node29&#45;&gt;Node10</title>
<path fill="none" stroke="midnightblue" d="M647.87,-172.117C556.133,-164.108 368.761,-147.518 210.198,-132 198.059,-130.812 184.962,-129.471 172.739,-128.195"/>
<polygon fill="midnightblue" stroke="midnightblue" points="173.027,-124.706 162.716,-127.142 172.296,-131.668 173.027,-124.706"/>
</g>
<!-- Node29&#45;&gt;Node21 -->
<g id="edge80" class="edge"><title>Node29&#45;&gt;Node21</title>
<path fill="none" stroke="midnightblue" d="M732.225,-168.46C796.462,-148.886 954.384,-100.766 1027.24,-78.5653"/>
<polygon fill="midnightblue" stroke="midnightblue" points="1028.39,-81.8733 1036.94,-75.6104 1026.35,-75.1772 1028.39,-81.8733"/>
</g>
<!-- Node29&#45;&gt;Node22 -->
<g id="edge82" class="edge"><title>Node29&#45;&gt;Node22</title>
<path fill="none" stroke="midnightblue" d="M718.162,-168.368C731.974,-159.658 753.544,-145.591 771.198,-132 791.776,-116.158 813.983,-96.2353 828.643,-82.6498"/>
<polygon fill="midnightblue" stroke="midnightblue" points="831.035,-85.2047 835.953,-75.8204 826.257,-80.0897 831.035,-85.2047"/>
</g>
<!-- Node30 -->
<g id="node73" class="node"><title>Node30</title>
<a xlink:href="../../dd/d00/process__logger_8h.xhtml" target="_top" xlink:title="utility/process_logger.h">
<polygon fill="white" stroke="black" points="645.698,-112.5 645.698,-131.5 762.698,-131.5 762.698,-112.5 645.698,-112.5"/>
<text text-anchor="middle" x="704.198" y="-119.5" font-family="Helvetica,sans-Serif" font-size="10.00">utility/process_logger.h</text>
</a>
</g>
<!-- Node29&#45;&gt;Node30 -->
<g id="edge86" class="edge"><title>Node29&#45;&gt;Node30</title>
<path fill="none" stroke="midnightblue" d="M704.198,-168.083C704.198,-161.006 704.198,-150.861 704.198,-141.986"/>
<polygon fill="midnightblue" stroke="midnightblue" points="707.698,-141.751 704.198,-131.751 700.698,-141.751 707.698,-141.751"/>
</g>
<!-- Node38 -->
<g id="node94" class="node"><title>Node38</title>
<a xlink:href="../../df/db9/id_8h.xhtml" target="_top" xlink:title="utility/id.h">
<polygon fill="white" stroke="black" points="892.698,-56.5 892.698,-75.5 951.698,-75.5 951.698,-56.5 892.698,-56.5"/>
<text text-anchor="middle" x="922.198" y="-63.5" font-family="Helvetica,sans-Serif" font-size="10.00">utility/id.h</text>
</a>
</g>
<!-- Node29&#45;&gt;Node38 -->
<g id="edge122" class="edge"><title>Node29&#45;&gt;Node38</title>
<path fill="none" stroke="midnightblue" d="M721.89,-168.485C740.455,-159.517 770.46,-144.932 796.198,-132 831.303,-114.362 871.613,-93.4511 896.991,-80.2044"/>
<polygon fill="midnightblue" stroke="midnightblue" points="898.703,-83.2591 905.944,-75.5256 895.46,-77.0551 898.703,-83.2591"/>
</g>
<!-- Node30&#45;&gt;Node8 -->
<g id="edge96" class="edge"><title>Node30&#45;&gt;Node8</title>
<path fill="none" stroke="midnightblue" d="M645.584,-114.795C566.148,-106.329 419.9,-90.5466 295.198,-76 283.132,-74.5925 269.953,-72.9882 258.154,-71.5278"/>
<polygon fill="midnightblue" stroke="midnightblue" points="258.559,-68.0512 248.203,-70.2899 257.695,-74.9977 258.559,-68.0512"/>
</g>
<!-- Node30&#45;&gt;Node17 -->
<g id="edge98" class="edge"><title>Node30&#45;&gt;Node17</title>
<path fill="none" stroke="midnightblue" d="M762.968,-114.753C870.041,-103.371 1093.67,-79.6 1178.54,-70.5775"/>
<polygon fill="midnightblue" stroke="midnightblue" points="1179.08,-74.0404 1188.65,-69.5029 1178.34,-67.0796 1179.08,-74.0404"/>
</g>
<!-- Node30&#45;&gt;Node18 -->
<g id="edge100" class="edge"><title>Node30&#45;&gt;Node18</title>
<path fill="none" stroke="midnightblue" d="M760.651,-112.487C810.466,-104.655 885.23,-92.1275 959.392,-76.0217"/>
<polygon fill="midnightblue" stroke="midnightblue" points="960.358,-79.3931 969.375,-73.8308 958.857,-72.5558 960.358,-79.3931"/>
</g>
<!-- Node30&#45;&gt;Node21 -->
<g id="edge102" class="edge"><title>Node30&#45;&gt;Node21</title>
<path fill="none" stroke="midnightblue" d="M762.818,-114.515C825.585,-107.194 928.28,-94.1333 1026.52,-75.9618"/>
<polygon fill="midnightblue" stroke="midnightblue" points="1027.44,-79.3508 1036.63,-74.0715 1026.15,-72.4702 1027.44,-79.3508"/>
</g>
<!-- Node30&#45;&gt;Node22 -->
<g id="edge110" class="edge"><title>Node30&#45;&gt;Node22</title>
<path fill="none" stroke="midnightblue" d="M726.54,-112.444C749.951,-103.478 786.934,-89.314 813.388,-79.1827"/>
<polygon fill="midnightblue" stroke="midnightblue" points="814.874,-82.3615 822.961,-75.5164 812.37,-75.8245 814.874,-82.3615"/>
</g>
<!-- Node31 -->
<g id="node75" class="node"><title>Node31</title>
<polygon fill="white" stroke="#bfbfbf" points="616.198,-56.5 616.198,-75.5 662.198,-75.5 662.198,-56.5 616.198,-56.5"/>
<text text-anchor="middle" x="639.198" y="-63.5" font-family="Helvetica,sans-Serif" font-size="10.00">stdio.h</text>
</g>
<!-- Node30&#45;&gt;Node31 -->
<g id="edge88" class="edge"><title>Node30&#45;&gt;Node31</title>
<path fill="none" stroke="midnightblue" d="M693.755,-112.324C684.052,-104.263 669.383,-92.0765 657.698,-82.3695"/>
<polygon fill="midnightblue" stroke="midnightblue" points="659.76,-79.532 649.831,-75.8339 655.287,-84.9163 659.76,-79.532"/>
</g>
<!-- Node32 -->
<g id="node77" class="node"><title>Node32</title>
<polygon fill="white" stroke="#bfbfbf" points="680.198,-56.5 680.198,-75.5 728.198,-75.5 728.198,-56.5 680.198,-56.5"/>
<text text-anchor="middle" x="704.198" y="-63.5" font-family="Helvetica,sans-Serif" font-size="10.00">stdlib.h</text>
</g>
<!-- Node30&#45;&gt;Node32 -->
<g id="edge90" class="edge"><title>Node30&#45;&gt;Node32</title>
<path fill="none" stroke="midnightblue" d="M704.198,-112.083C704.198,-105.006 704.198,-94.8611 704.198,-85.9865"/>
<polygon fill="midnightblue" stroke="midnightblue" points="707.698,-85.751 704.198,-75.7511 700.698,-85.7511 707.698,-85.751"/>
</g>
<!-- Node33 -->
<g id="node79" class="node"><title>Node33</title>
<polygon fill="white" stroke="#bfbfbf" points="746.698,-56.5 746.698,-75.5 797.698,-75.5 797.698,-56.5 746.698,-56.5"/>
<text text-anchor="middle" x="772.198" y="-63.5" font-family="Helvetica,sans-Serif" font-size="10.00">unistd.h</text>
</g>
<!-- Node30&#45;&gt;Node33 -->
<g id="edge92" class="edge"><title>Node30&#45;&gt;Node33</title>
<path fill="none" stroke="midnightblue" d="M715.123,-112.324C725.373,-104.185 740.919,-91.8395 753.199,-82.0874"/>
<polygon fill="midnightblue" stroke="midnightblue" points="755.419,-84.7937 761.074,-75.8339 751.066,-79.3119 755.419,-84.7937"/>
</g>
<!-- Node34 -->
<g id="node81" class="node"><title>Node34</title>
<polygon fill="white" stroke="#bfbfbf" points="304.198,-56.5 304.198,-75.5 348.198,-75.5 348.198,-56.5 304.198,-56.5"/>
<text text-anchor="middle" x="326.198" y="-63.5" font-family="Helvetica,sans-Serif" font-size="10.00">fcntl.h</text>
</g>
<!-- Node30&#45;&gt;Node34 -->
<g id="edge94" class="edge"><title>Node30&#45;&gt;Node34</title>
<path fill="none" stroke="midnightblue" d="M645.413,-116.152C578.126,-109.984 464.536,-97.6869 358.366,-75.9647"/>
<polygon fill="midnightblue" stroke="midnightblue" points="358.949,-72.5111 348.446,-73.9026 357.524,-79.3646 358.949,-72.5111"/>
</g>
<!-- Node35 -->
<g id="node87" class="node"><title>Node35</title>
<polygon fill="white" stroke="#bfbfbf" points="366.198,-56.5 366.198,-75.5 434.198,-75.5 434.198,-56.5 366.198,-56.5"/>
<text text-anchor="middle" x="400.198" y="-63.5" font-family="Helvetica,sans-Serif" font-size="10.00">sys/types.h</text>
</g>
<!-- Node30&#45;&gt;Node35 -->
<g id="edge104" class="edge"><title>Node30&#45;&gt;Node35</title>
<path fill="none" stroke="midnightblue" d="M651.608,-112.497C600.991,-104.186 522.043,-90.8913 444.397,-76.1777"/>
<polygon fill="midnightblue" stroke="midnightblue" points="444.922,-72.7148 434.444,-74.2823 443.612,-79.5913 444.922,-72.7148"/>
</g>
<!-- Node36 -->
<g id="node89" class="node"><title>Node36</title>
<polygon fill="white" stroke="#bfbfbf" points="452.698,-56.5 452.698,-75.5 525.698,-75.5 525.698,-56.5 452.698,-56.5"/>
<text text-anchor="middle" x="489.198" y="-63.5" font-family="Helvetica,sans-Serif" font-size="10.00">sys/socket.h</text>
</g>
<!-- Node30&#45;&gt;Node36 -->
<g id="edge106" class="edge"><title>Node30&#45;&gt;Node36</title>
<path fill="none" stroke="midnightblue" d="M670.131,-112.444C633.018,-103.122 573.537,-88.1828 532.983,-77.9972"/>
<polygon fill="midnightblue" stroke="midnightblue" points="533.657,-74.5579 523.106,-75.5164 531.952,-81.347 533.657,-74.5579"/>
</g>
<!-- Node37 -->
<g id="node91" class="node"><title>Node37</title>
<polygon fill="white" stroke="#bfbfbf" points="544.198,-56.5 544.198,-75.5 598.198,-75.5 598.198,-56.5 544.198,-56.5"/>
<text text-anchor="middle" x="571.198" y="-63.5" font-family="Helvetica,sans-Serif" font-size="10.00">sys/un.h</text>
</g>
<!-- Node30&#45;&gt;Node37 -->
<g id="edge108" class="edge"><title>Node30&#45;&gt;Node37</title>
<path fill="none" stroke="midnightblue" d="M683.124,-112.444C661.138,-103.517 626.464,-89.4387 601.534,-79.3168"/>
<polygon fill="midnightblue" stroke="midnightblue" points="602.756,-76.0355 592.174,-75.5164 600.122,-82.5213 602.756,-76.0355"/>
</g>
<!-- Node30&#45;&gt;Node38 -->
<g id="edge112" class="edge"><title>Node30&#45;&gt;Node38</title>
<path fill="none" stroke="midnightblue" d="M738.741,-112.444C777.811,-102.766 841.328,-87.0321 882.432,-76.8503"/>
<polygon fill="midnightblue" stroke="midnightblue" points="883.506,-80.1902 892.371,-74.3884 881.823,-73.3956 883.506,-80.1902"/>
</g>
<!-- Node38&#45;&gt;Node6 -->
<g id="edge114" class="edge"><title>Node38&#45;&gt;Node6</title>
<path fill="none" stroke="midnightblue" d="M892.478,-57.6487C889.357,-57.0246 886.221,-56.4581 883.198,-56 664.834,-22.9084 398.432,-13.8557 307.98,-11.6472"/>
<polygon fill="midnightblue" stroke="midnightblue" points="307.915,-8.1448 297.836,-11.4106 307.752,-15.1429 307.915,-8.1448"/>
</g>
<!-- Node38&#45;&gt;Node19 -->
<g id="edge118" class="edge"><title>Node38&#45;&gt;Node19</title>
<path fill="none" stroke="midnightblue" d="M952.005,-58.1071C955.109,-57.3937 958.217,-56.6809 961.198,-56 1020.7,-42.4078 1090.25,-26.7272 1129.37,-17.9267"/>
<polygon fill="midnightblue" stroke="midnightblue" points="1130.58,-21.2431 1139.56,-15.6343 1129.04,-14.4137 1130.58,-21.2431"/>
</g>
<!-- Node38&#45;&gt;Node20 -->
<g id="edge120" class="edge"><title>Node38&#45;&gt;Node20</title>
<path fill="none" stroke="midnightblue" d="M941.212,-56.4435C960.786,-47.6356 991.506,-33.8116 1013.93,-23.722"/>
<polygon fill="midnightblue" stroke="midnightblue" points="1015.59,-26.8119 1023.27,-19.5164 1012.72,-20.4284 1015.59,-26.8119"/>
</g>
<!-- Node39 -->
<g id="node97" class="node"><title>Node39</title>
<polygon fill="white" stroke="#bfbfbf" points="899.698,-0.5 899.698,-19.5 944.698,-19.5 944.698,-0.5 899.698,-0.5"/>
<text text-anchor="middle" x="922.198" y="-7.5" font-family="Helvetica,sans-Serif" font-size="10.00">climits</text>
</g>
<!-- Node38&#45;&gt;Node39 -->
<g id="edge116" class="edge"><title>Node38&#45;&gt;Node39</title>
<path fill="none" stroke="midnightblue" d="M922.198,-56.083C922.198,-49.0059 922.198,-38.8611 922.198,-29.9865"/>
<polygon fill="midnightblue" stroke="midnightblue" points="925.698,-29.751 922.198,-19.7511 918.698,-29.7511 925.698,-29.751"/>
</g>
<!-- Node41&#45;&gt;Node8 -->
<g id="edge128" class="edge"><title>Node41&#45;&gt;Node8</title>
<path fill="none" stroke="midnightblue" d="M666.826,-224.44C602.193,-209.142 465.836,-174.676 355.198,-132 316.117,-116.925 272.889,-94.6989 246.636,-80.5373"/>
<polygon fill="midnightblue" stroke="midnightblue" points="248.227,-77.4186 237.77,-75.713 244.881,-83.5672 248.227,-77.4186"/>
</g>
<!-- Node41&#45;&gt;Node29 -->
<g id="edge130" class="edge"><title>Node41&#45;&gt;Node29</title>
<path fill="none" stroke="midnightblue" d="M704.198,-224.083C704.198,-217.006 704.198,-206.861 704.198,-197.986"/>
<polygon fill="midnightblue" stroke="midnightblue" points="707.698,-197.751 704.198,-187.751 700.698,-197.751 707.698,-197.751"/>
</g>
</g>
</svg>
        <g id="navigator" transform="translate(0 0)" fill="#404254">
                <rect fill="#f2f5e9" fill-opacity="0.5" stroke="#606060" stroke-width=".5" x="0" y="0" width="60" height="60"/>
                <use id="zoomplus" xlink:href="#zoomPlus" x="17" y="9" onmousedown="handleZoom(evt,'in')"/>
                <use id="zoomminus" xlink:href="#zoomMin" x="42" y="9" onmousedown="handleZoom(evt,'out')"/>
                <use id="reset" xlink:href="#resetDef" x="30" y="36" onmousedown="handleReset()"/>
                <g id="arrowUp" xlink:href="#dirArrow" transform="translate(30 24)" onmousedown="handlePan(0,-1)">
                  <use xlink:href="#rim" fill="#404040">
                        <set attributeName="fill" to="#808080" begin="arrowUp.mouseover" end="arrowUp.mouseout"/>
                  </use>
                  <path fill="none" stroke="white" stroke-width="1.5" d="M0,-3.0v7 M-2.5,-0.5L0,-3.0L2.5,-0.5"/>
                </g>
                <g id="arrowRight" xlink:href="#dirArrow" transform="rotate(90) translate(36 -43)" onmousedown="handlePan(1,0)">
                  <use xlink:href="#rim" fill="#404040">
                        <set attributeName="fill" to="#808080" begin="arrowRight.mouseover" end="arrowRight.mouseout"/>
                  </use>
                  <path fill="none" stroke="white" stroke-width="1.5" d="M0,-3.0v7 M-2.5,-0.5L0,-3.0L2.5,-0.5"/>
                </g>
                <g id="arrowDown" xlink:href="#dirArrow" transform="rotate(180) translate(-30 -48)" onmousedown="handlePan(0,1)">
                  <use xlink:href="#rim" fill="#404040">
                        <set attributeName="fill" to="#808080" begin="arrowDown.mouseover" end="arrowDown.mouseout"/>
                  </use>
                  <path fill="none" stroke="white" stroke-width="1.5" d="M0,-3.0v7 M-2.5,-0.5L0,-3.0L2.5,-0.5"/>
                </g>
                <g id="arrowLeft" xlink:href="#dirArrow" transform="rotate(270) translate(-36 17)" onmousedown="handlePan(-1,0)">
                  <use xlink:href="#rim" fill="#404040">
                        <set attributeName="fill" to="#808080" begin="arrowLeft.mouseover" end="arrowLeft.mouseout"/>
                  </use>
                  <path fill="none" stroke="white" stroke-width="1.5" d="M0,-3.0v7 M-2.5,-0.5L0,-3.0L2.5,-0.5"/>
                </g>
        </g>
</svg>
