<?xml version="1.0" encoding="UTF-8" standalone="no"?>
<!DOCTYPE svg PUBLIC "-//W3C//DTD SVG 1.1//EN"
 "http://www.w3.org/Graphics/SVG/1.1/DTD/svg11.dtd">
<!-- Generated by graphviz version 2.28.0 (20111025.1818)
 -->
<!-- Title: G Pages: 1 -->
<!--zoomable 252 -->
<svg id="main" version="1.1" xmlns="http://www.w3.org/2000/svg" xmlns:xlink="http://www.w3.org/1999/xlink" xml:space="preserve" onload="init(evt)">
        <defs>
                <circle id="rim" cx="0" cy="0" r="7"/>
                <circle id="rim2" cx="0" cy="0" r="3.5"/>
                <g id="zoomPlus">
                        <use xlink:href="#rim" fill="#404040">
                                <set attributeName="fill" to="#808080" begin="zoomplus.mouseover" end="zoomplus.mouseout"/>
                        </use>
                        <path d="M-4,0h8M0,-4v8" fill="none" stroke="white" stroke-width="1.5" pointer-events="none"/>
                </g>
                <g id="zoomMin">
                        <use xlink:href="#rim" fill="#404040">
                                <set attributeName="fill" to="#808080" begin="zoomminus.mouseover" end="zoomminus.mouseout"/>
                        </use>
                        <path d="M-4,0h8" fill="none" stroke="white" stroke-width="1.5" pointer-events="none"/>
                </g>
                <g id="dirArrow">
                        <path fill="none" stroke="white" stroke-width="1.5" d="M0,-3.0v7 M-2.5,-0.5L0,-3.0L2.5,-0.5"/>
                </g>
               <g id="resetDef">
                       <use xlink:href="#rim2" fill="#404040">
                               <set attributeName="fill" to="#808080" begin="reset.mouseover" end="reset.mouseout"/>
                       </use>
               </g>
        </defs>

<script type="text/javascript">
var viewWidth = 1073;
var viewHeight = 252;
var sectionId = 'dynsection-0';
</script>
<script xlink:href="../../svgpan.js"/>
<svg id="graph" class="graph">
<g id="viewport">
<title>G</title>
<polygon fill="white" stroke="white" points="-4,5 -4,-248 1070.39,-248 1070.39,5 -4,5"/>
<!-- Node1 -->
<g id="node1" class="node"><title>Node1</title>
<polygon fill="#bfbfbf" stroke="black" points="372.5,-224.5 372.5,-243.5 457.5,-243.5 457.5,-224.5 372.5,-224.5"/>
<text text-anchor="middle" x="415" y="-231.5" font-family="Helvetica,sans-Serif" font-size="10.00">include/kernel.h</text>
</g>
<!-- Node2 -->
<g id="node3" class="node"><title>Node2</title>
<polygon fill="white" stroke="#bfbfbf" points="0,-168.5 0,-187.5 44,-187.5 44,-168.5 0,-168.5"/>
<text text-anchor="middle" x="22" y="-175.5" font-family="Helvetica,sans-Serif" font-size="10.00">vector</text>
</g>
<!-- Node1&#45;&gt;Node2 -->
<g id="edge2" class="edge"><title>Node1&#45;&gt;Node2</title>
<path fill="none" stroke="midnightblue" d="M372.287,-229.902C306.071,-224.618 174.578,-212.21 54.3558,-187.988"/>
<polygon fill="midnightblue" stroke="midnightblue" points="54.7439,-184.495 44.245,-185.917 53.3393,-191.352 54.7439,-184.495"/>
</g>
<!-- Node3 -->
<g id="node5" class="node"><title>Node3</title>
<polygon fill="white" stroke="#bfbfbf" points="62,-168.5 62,-187.5 106,-187.5 106,-168.5 62,-168.5"/>
<text text-anchor="middle" x="84" y="-175.5" font-family="Helvetica,sans-Serif" font-size="10.00">fcntl.h</text>
</g>
<!-- Node1&#45;&gt;Node3 -->
<g id="edge4" class="edge"><title>Node1&#45;&gt;Node3</title>
<path fill="none" stroke="midnightblue" d="M372.444,-228.433C315.94,-221.971 212.931,-208.809 116.201,-188.018"/>
<polygon fill="midnightblue" stroke="midnightblue" points="116.776,-184.561 106.26,-185.849 115.284,-191.4 116.776,-184.561"/>
</g>
<!-- Node4 -->
<g id="node7" class="node"><title>Node4</title>
<polygon fill="white" stroke="#bfbfbf" points="124,-168.5 124,-187.5 192,-187.5 192,-168.5 124,-168.5"/>
<text text-anchor="middle" x="158" y="-175.5" font-family="Helvetica,sans-Serif" font-size="10.00">sys/types.h</text>
</g>
<!-- Node1&#45;&gt;Node4 -->
<g id="edge6" class="edge"><title>Node1&#45;&gt;Node4</title>
<path fill="none" stroke="midnightblue" d="M374.278,-224.444C327.369,-214.587 250.565,-198.45 202.225,-188.293"/>
<polygon fill="midnightblue" stroke="midnightblue" points="202.869,-184.851 192.363,-186.22 201.43,-191.702 202.869,-184.851"/>
</g>
<!-- Node5 -->
<g id="node9" class="node"><title>Node5</title>
<polygon fill="white" stroke="#bfbfbf" points="210,-168.5 210,-187.5 270,-187.5 270,-168.5 210,-168.5"/>
<text text-anchor="middle" x="240" y="-175.5" font-family="Helvetica,sans-Serif" font-size="10.00">sys/stat.h</text>
</g>
<!-- Node1&#45;&gt;Node5 -->
<g id="edge8" class="edge"><title>Node1&#45;&gt;Node5</title>
<path fill="none" stroke="midnightblue" d="M387.271,-224.444C357.574,-215.28 310.284,-200.688 277.331,-190.519"/>
<polygon fill="midnightblue" stroke="midnightblue" points="278.187,-187.121 267.6,-187.516 276.123,-193.809 278.187,-187.121"/>
</g>
<!-- Node6 -->
<g id="node11" class="node"><title>Node6</title>
<a xlink:href="../../dc/da7/cpu_8h.xhtml" target="_top" xlink:title="cpu.h">
<polygon fill="white" stroke="black" points="939.5,-168.5 939.5,-187.5 980.5,-187.5 980.5,-168.5 939.5,-168.5"/>
<text text-anchor="middle" x="960" y="-175.5" font-family="Helvetica,sans-Serif" font-size="10.00">cpu.h</text>
</a>
</g>
<!-- Node1&#45;&gt;Node6 -->
<g id="edge10" class="edge"><title>Node1&#45;&gt;Node6</title>
<path fill="none" stroke="midnightblue" d="M457.562,-229.073C539.285,-221.488 723.838,-204.143 879,-188 895.534,-186.28 913.951,-184.243 929.042,-182.542"/>
<polygon fill="midnightblue" stroke="midnightblue" points="929.825,-185.976 939.367,-181.373 929.037,-179.021 929.825,-185.976"/>
</g>
<!-- Node11 -->
<g id="node21" class="node"><title>Node11</title>
<a xlink:href="../../d7/d59/char__device_8h.xhtml" target="_top" xlink:title="devices/char_device.h">
<polygon fill="white" stroke="black" points="426,-168.5 426,-187.5 540,-187.5 540,-168.5 426,-168.5"/>
<text text-anchor="middle" x="483" y="-175.5" font-family="Helvetica,sans-Serif" font-size="10.00">devices/char_device.h</text>
</a>
</g>
<!-- Node1&#45;&gt;Node11 -->
<g id="edge20" class="edge"><title>Node1&#45;&gt;Node11</title>
<path fill="none" stroke="midnightblue" d="M425.925,-224.324C436.175,-216.185 451.721,-203.839 464.001,-194.087"/>
<polygon fill="midnightblue" stroke="midnightblue" points="466.221,-196.794 471.876,-187.834 461.868,-191.312 466.221,-196.794"/>
</g>
<!-- Node15 -->
<g id="node29" class="node"><title>Node15</title>
<a xlink:href="../../db/d9a/block__device_8h.xhtml" target="_top" xlink:title="devices/block_device.h">
<polygon fill="white" stroke="black" points="558.5,-168.5 558.5,-187.5 677.5,-187.5 677.5,-168.5 558.5,-168.5"/>
<text text-anchor="middle" x="618" y="-175.5" font-family="Helvetica,sans-Serif" font-size="10.00">devices/block_device.h</text>
</a>
</g>
<!-- Node1&#45;&gt;Node15 -->
<g id="edge28" class="edge"><title>Node1&#45;&gt;Node15</title>
<path fill="none" stroke="midnightblue" d="M447.166,-224.444C482.059,-215.162 537.893,-200.309 576.171,-190.127"/>
<polygon fill="midnightblue" stroke="midnightblue" points="577.22,-193.47 585.985,-187.516 575.421,-186.705 577.22,-193.47"/>
</g>
<!-- Node16 -->
<g id="node32" class="node"><title>Node16</title>
<a xlink:href="../../df/d8f/clock__device_8h.xhtml" target="_top" xlink:title="devices/clock_device.h">
<polygon fill="white" stroke="black" points="288.5,-168.5 288.5,-187.5 407.5,-187.5 407.5,-168.5 288.5,-168.5"/>
<text text-anchor="middle" x="348" y="-175.5" font-family="Helvetica,sans-Serif" font-size="10.00">devices/clock_device.h</text>
</a>
</g>
<!-- Node1&#45;&gt;Node16 -->
<g id="edge32" class="edge"><title>Node1&#45;&gt;Node16</title>
<path fill="none" stroke="midnightblue" d="M404.235,-224.324C394.234,-216.263 379.113,-204.077 367.07,-194.369"/>
<polygon fill="midnightblue" stroke="midnightblue" points="368.943,-191.384 358.961,-187.834 364.55,-196.834 368.943,-191.384"/>
</g>
<!-- Node20 -->
<g id="node41" class="node"><title>Node20</title>
<a xlink:href="../../df/db9/id_8h_source.xhtml" target="_top" xlink:title="utility/id.h">
<polygon fill="white" stroke="black" points="695.5,-168.5 695.5,-187.5 754.5,-187.5 754.5,-168.5 695.5,-168.5"/>
<text text-anchor="middle" x="725" y="-175.5" font-family="Helvetica,sans-Serif" font-size="10.00">utility/id.h</text>
</a>
</g>
<!-- Node1&#45;&gt;Node20 -->
<g id="edge42" class="edge"><title>Node1&#45;&gt;Node20</title>
<path fill="none" stroke="midnightblue" d="M457.862,-226.726C509.423,-218.992 598.821,-204.991 685.253,-188.043"/>
<polygon fill="midnightblue" stroke="midnightblue" points="686.099,-191.444 695.231,-186.071 684.742,-184.577 686.099,-191.444"/>
</g>
<!-- Node23 -->
<g id="node49" class="node"><title>Node23</title>
<a xlink:href="../../db/d41/fcfs_8h_source.xhtml" target="_top" xlink:title="scheduler/fcfs.h">
<polygon fill="white" stroke="black" points="784,-168.5 784,-187.5 870,-187.5 870,-168.5 784,-168.5"/>
<text text-anchor="middle" x="827" y="-175.5" font-family="Helvetica,sans-Serif" font-size="10.00">scheduler/fcfs.h</text>
</a>
</g>
<!-- Node1&#45;&gt;Node23 -->
<g id="edge52" class="edge"><title>Node1&#45;&gt;Node23</title>
<path fill="none" stroke="midnightblue" d="M457.609,-227.645C523.231,-219.363 652.971,-202.85 763,-188 766.603,-187.514 770.32,-187.006 774.064,-186.491"/>
<polygon fill="midnightblue" stroke="midnightblue" points="774.552,-189.957 783.976,-185.117 773.591,-183.023 774.552,-189.957"/>
</g>
<!-- Node7 -->
<g id="node13" class="node"><title>Node7</title>
<polygon fill="white" stroke="#bfbfbf" points="742.5,-112.5 742.5,-131.5 785.5,-131.5 785.5,-112.5 742.5,-112.5"/>
<text text-anchor="middle" x="764" y="-119.5" font-family="Helvetica,sans-Serif" font-size="10.00">cstdio</text>
</g>
<!-- Node6&#45;&gt;Node7 -->
<g id="edge12" class="edge"><title>Node6&#45;&gt;Node7</title>
<path fill="none" stroke="midnightblue" d="M939.391,-171.495C909.78,-163.561 853.252,-148.322 795.347,-132.063"/>
<polygon fill="midnightblue" stroke="midnightblue" points="796.242,-128.679 785.667,-129.339 794.345,-135.417 796.242,-128.679"/>
</g>
<!-- Node8 -->
<g id="node15" class="node"><title>Node8</title>
<polygon fill="white" stroke="#bfbfbf" points="1004.5,-112.5 1004.5,-131.5 1049.5,-131.5 1049.5,-112.5 1004.5,-112.5"/>
<text text-anchor="middle" x="1027" y="-119.5" font-family="Helvetica,sans-Serif" font-size="10.00">cstdlib</text>
</g>
<!-- Node6&#45;&gt;Node8 -->
<g id="edge14" class="edge"><title>Node6&#45;&gt;Node8</title>
<path fill="none" stroke="midnightblue" d="M970.765,-168.324C980.766,-160.263 995.887,-148.077 1007.93,-138.369"/>
<polygon fill="midnightblue" stroke="midnightblue" points="1010.45,-140.834 1016.04,-131.834 1006.06,-135.384 1010.45,-140.834"/>
</g>
<!-- Node9 -->
<g id="node17" class="node"><title>Node9</title>
<polygon fill="white" stroke="#bfbfbf" points="934,-112.5 934,-131.5 986,-131.5 986,-112.5 934,-112.5"/>
<text text-anchor="middle" x="960" y="-119.5" font-family="Helvetica,sans-Serif" font-size="10.00">assert.h</text>
</g>
<!-- Node6&#45;&gt;Node9 -->
<g id="edge16" class="edge"><title>Node6&#45;&gt;Node9</title>
<path fill="none" stroke="midnightblue" d="M960,-168.083C960,-161.006 960,-150.861 960,-141.986"/>
<polygon fill="midnightblue" stroke="midnightblue" points="963.5,-141.751 960,-131.751 956.5,-141.751 963.5,-141.751"/>
</g>
<!-- Node10 -->
<g id="node19" class="node"><title>Node10</title>
<polygon fill="white" stroke="#bfbfbf" points="979.5,-0.5 979.5,-19.5 1038.5,-19.5 1038.5,-0.5 979.5,-0.5"/>
<text text-anchor="middle" x="1009" y="-7.5" font-family="Helvetica,sans-Serif" font-size="10.00">inttypes.h</text>
</g>
<!-- Node6&#45;&gt;Node10 -->
<g id="edge18" class="edge"><title>Node6&#45;&gt;Node10</title>
<path fill="none" stroke="midnightblue" d="M980.761,-174.09C1004.12,-169.583 1041.02,-158.477 1058,-132 1080.11,-97.5254 1046.59,-51.4344 1024.96,-27.3013"/>
<polygon fill="midnightblue" stroke="midnightblue" points="1027.3,-24.6695 1017.92,-19.7359 1022.17,-29.4397 1027.3,-24.6695"/>
</g>
<!-- Node12 -->
<g id="node23" class="node"><title>Node12</title>
<a xlink:href="../../d0/d8f/abstract__device_8h_source.xhtml" target="_top" xlink:title="devices/abstract_device.h">
<polygon fill="white" stroke="black" points="410.5,-112.5 410.5,-131.5 541.5,-131.5 541.5,-112.5 410.5,-112.5"/>
<text text-anchor="middle" x="476" y="-119.5" font-family="Helvetica,sans-Serif" font-size="10.00">devices/abstract_device.h</text>
</a>
</g>
<!-- Node11&#45;&gt;Node12 -->
<g id="edge22" class="edge"><title>Node11&#45;&gt;Node12</title>
<path fill="none" stroke="midnightblue" d="M481.844,-168.083C480.916,-160.927 479.582,-150.635 478.423,-141.691"/>
<polygon fill="midnightblue" stroke="midnightblue" points="481.891,-141.218 477.134,-131.751 474.949,-142.118 481.891,-141.218"/>
</g>
<!-- Node13 -->
<g id="node25" class="node"><title>Node13</title>
<polygon fill="white" stroke="#bfbfbf" points="421,-56.5 421,-75.5 465,-75.5 465,-56.5 421,-56.5"/>
<text text-anchor="middle" x="443" y="-63.5" font-family="Helvetica,sans-Serif" font-size="10.00">time.h</text>
</g>
<!-- Node12&#45;&gt;Node13 -->
<g id="edge24" class="edge"><title>Node12&#45;&gt;Node13</title>
<path fill="none" stroke="midnightblue" d="M470.551,-112.083C465.986,-104.613 459.332,-93.7244 453.707,-84.5199"/>
<polygon fill="midnightblue" stroke="midnightblue" points="456.549,-82.4588 448.348,-75.7511 450.576,-86.109 456.549,-82.4588"/>
</g>
<!-- Node14 -->
<g id="node27" class="node"><title>Node14</title>
<polygon fill="white" stroke="#bfbfbf" points="483,-56.5 483,-75.5 533,-75.5 533,-56.5 483,-56.5"/>
<text text-anchor="middle" x="508" y="-63.5" font-family="Helvetica,sans-Serif" font-size="10.00">signal.h</text>
</g>
<!-- Node12&#45;&gt;Node14 -->
<g id="edge26" class="edge"><title>Node12&#45;&gt;Node14</title>
<path fill="none" stroke="midnightblue" d="M481.284,-112.083C485.711,-104.613 492.163,-93.7244 497.618,-84.5199"/>
<polygon fill="midnightblue" stroke="midnightblue" points="500.727,-86.1383 502.814,-75.7511 494.705,-82.5697 500.727,-86.1383"/>
</g>
<!-- Node15&#45;&gt;Node12 -->
<g id="edge30" class="edge"><title>Node15&#45;&gt;Node12</title>
<path fill="none" stroke="midnightblue" d="M595.5,-168.444C571.923,-159.478 534.678,-145.314 508.036,-135.183"/>
<polygon fill="midnightblue" stroke="midnightblue" points="508.986,-131.8 498.395,-131.516 506.498,-138.342 508.986,-131.8"/>
</g>
<!-- Node16&#45;&gt;Node12 -->
<g id="edge40" class="edge"><title>Node16&#45;&gt;Node12</title>
<path fill="none" stroke="midnightblue" d="M368.282,-168.444C389.347,-159.557 422.517,-145.563 446.486,-135.451"/>
<polygon fill="midnightblue" stroke="midnightblue" points="447.96,-138.628 455.813,-131.516 445.239,-132.179 447.96,-138.628"/>
</g>
<!-- Node17 -->
<g id="node34" class="node"><title>Node17</title>
<polygon fill="white" stroke="#bfbfbf" points="331.5,-112.5 331.5,-131.5 378.5,-131.5 378.5,-112.5 331.5,-112.5"/>
<text text-anchor="middle" x="355" y="-119.5" font-family="Helvetica,sans-Serif" font-size="10.00">errno.h</text>
</g>
<!-- Node16&#45;&gt;Node17 -->
<g id="edge34" class="edge"><title>Node16&#45;&gt;Node17</title>
<path fill="none" stroke="midnightblue" d="M349.156,-168.083C350.084,-160.927 351.418,-150.635 352.577,-141.691"/>
<polygon fill="midnightblue" stroke="midnightblue" points="356.051,-142.118 353.866,-131.751 349.109,-141.218 356.051,-142.118"/>
</g>
<!-- Node18 -->
<g id="node36" class="node"><title>Node18</title>
<polygon fill="white" stroke="#bfbfbf" points="267,-112.5 267,-131.5 313,-131.5 313,-112.5 267,-112.5"/>
<text text-anchor="middle" x="290" y="-119.5" font-family="Helvetica,sans-Serif" font-size="10.00">cstring</text>
</g>
<!-- Node16&#45;&gt;Node18 -->
<g id="edge36" class="edge"><title>Node16&#45;&gt;Node18</title>
<path fill="none" stroke="midnightblue" d="M338.681,-168.324C330.107,-160.341 317.188,-148.313 306.812,-138.653"/>
<polygon fill="midnightblue" stroke="midnightblue" points="309.192,-136.086 299.488,-131.834 304.422,-141.21 309.192,-136.086"/>
</g>
<!-- Node19 -->
<g id="node38" class="node"><title>Node19</title>
<polygon fill="white" stroke="#bfbfbf" points="559.5,-112.5 559.5,-131.5 600.5,-131.5 600.5,-112.5 559.5,-112.5"/>
<text text-anchor="middle" x="580" y="-119.5" font-family="Helvetica,sans-Serif" font-size="10.00">string</text>
</g>
<!-- Node16&#45;&gt;Node19 -->
<g id="edge38" class="edge"><title>Node16&#45;&gt;Node19</title>
<path fill="none" stroke="midnightblue" d="M390.384,-168.488C429.322,-160.461 488.821,-147.674 549.631,-131.944"/>
<polygon fill="midnightblue" stroke="midnightblue" points="550.607,-135.306 559.398,-129.394 548.839,-128.533 550.607,-135.306"/>
</g>
<!-- Node20&#45;&gt;Node7 -->
<g id="edge44" class="edge"><title>Node20&#45;&gt;Node7</title>
<path fill="none" stroke="midnightblue" d="M731.44,-168.083C736.949,-160.455 745.031,-149.264 751.765,-139.941"/>
<polygon fill="midnightblue" stroke="midnightblue" points="754.662,-141.907 757.68,-131.751 748.987,-137.809 754.662,-141.907"/>
</g>
<!-- Node20&#45;&gt;Node19 -->
<g id="edge48" class="edge"><title>Node20&#45;&gt;Node19</title>
<path fill="none" stroke="midnightblue" d="M702.024,-168.444C677.132,-159.173 637.319,-144.346 609.981,-134.165"/>
<polygon fill="midnightblue" stroke="midnightblue" points="611.117,-130.853 600.524,-130.643 608.673,-137.413 611.117,-130.853"/>
</g>
<!-- Node21 -->
<g id="node44" class="node"><title>Node21</title>
<polygon fill="white" stroke="#bfbfbf" points="618.5,-112.5 618.5,-131.5 663.5,-131.5 663.5,-112.5 618.5,-112.5"/>
<text text-anchor="middle" x="641" y="-119.5" font-family="Helvetica,sans-Serif" font-size="10.00">climits</text>
</g>
<!-- Node20&#45;&gt;Node21 -->
<g id="edge46" class="edge"><title>Node20&#45;&gt;Node21</title>
<path fill="none" stroke="midnightblue" d="M711.504,-168.324C698.4,-159.9 678.288,-146.971 662.893,-137.074"/>
<polygon fill="midnightblue" stroke="midnightblue" points="664.767,-134.118 654.463,-131.655 660.982,-140.006 664.767,-134.118"/>
</g>
<!-- Node22 -->
<g id="node47" class="node"><title>Node22</title>
<polygon fill="white" stroke="#bfbfbf" points="681.5,-112.5 681.5,-131.5 724.5,-131.5 724.5,-112.5 681.5,-112.5"/>
<text text-anchor="middle" x="703" y="-119.5" font-family="Helvetica,sans-Serif" font-size="10.00">queue</text>
</g>
<!-- Node20&#45;&gt;Node22 -->
<g id="edge50" class="edge"><title>Node20&#45;&gt;Node22</title>
<path fill="none" stroke="midnightblue" d="M721.367,-168.083C718.388,-160.77 714.074,-150.181 710.375,-141.103"/>
<polygon fill="midnightblue" stroke="midnightblue" points="713.58,-139.691 706.565,-131.751 707.097,-142.333 713.58,-139.691"/>
</g>
<!-- Node23&#45;&gt;Node9 -->
<g id="edge56" class="edge"><title>Node23&#45;&gt;Node9</title>
<path fill="none" stroke="midnightblue" d="M848.074,-168.444C870.06,-159.517 904.734,-145.439 929.664,-135.317"/>
<polygon fill="midnightblue" stroke="midnightblue" points="931.076,-138.521 939.024,-131.516 928.442,-132.035 931.076,-138.521"/>
</g>
<!-- Node23&#45;&gt;Node22 -->
<g id="edge54" class="edge"><title>Node23&#45;&gt;Node22</title>
<path fill="none" stroke="midnightblue" d="M807.352,-168.444C787.035,-159.596 755.097,-145.687 731.902,-135.586"/>
<polygon fill="midnightblue" stroke="midnightblue" points="733.122,-132.3 722.556,-131.516 730.327,-138.718 733.122,-132.3"/>
</g>
<!-- Node24 -->
<g id="node53" class="node"><title>Node24</title>
<a xlink:href="../../d2/dd8/scheduler_8h_source.xhtml" target="_top" xlink:title="scheduler/scheduler.h">
<polygon fill="white" stroke="black" points="804,-112.5 804,-131.5 916,-131.5 916,-112.5 804,-112.5"/>
<text text-anchor="middle" x="860" y="-119.5" font-family="Helvetica,sans-Serif" font-size="10.00">scheduler/scheduler.h</text>
</a>
</g>
<!-- Node23&#45;&gt;Node24 -->
<g id="edge58" class="edge"><title>Node23&#45;&gt;Node24</title>
<path fill="none" stroke="midnightblue" d="M832.449,-168.083C837.014,-160.613 843.668,-149.724 849.293,-140.52"/>
<polygon fill="midnightblue" stroke="midnightblue" points="852.424,-142.109 854.652,-131.751 846.451,-138.459 852.424,-142.109"/>
</g>
<!-- Node25 -->
<g id="node55" class="node"><title>Node25</title>
<a xlink:href="../../da/d42/process_8h.xhtml" target="_top" xlink:title="process.h">
<polygon fill="white" stroke="black" points="910.5,-56.5 910.5,-75.5 969.5,-75.5 969.5,-56.5 910.5,-56.5"/>
<text text-anchor="middle" x="940" y="-63.5" font-family="Helvetica,sans-Serif" font-size="10.00">process.h</text>
</a>
</g>
<!-- Node24&#45;&gt;Node25 -->
<g id="edge60" class="edge"><title>Node24&#45;&gt;Node25</title>
<path fill="none" stroke="midnightblue" d="M872.853,-112.324C885.216,-103.979 904.13,-91.2122 918.737,-81.3524"/>
<polygon fill="midnightblue" stroke="midnightblue" points="920.848,-84.1503 927.179,-75.6545 916.932,-78.3483 920.848,-84.1503"/>
</g>
<!-- Node25&#45;&gt;Node10 -->
<g id="edge62" class="edge"><title>Node25&#45;&gt;Node10</title>
<path fill="none" stroke="midnightblue" d="M951.086,-56.324C961.486,-48.1849 977.261,-35.8395 989.722,-26.0874"/>
<polygon fill="midnightblue" stroke="midnightblue" points="991.994,-28.7533 997.712,-19.8339 987.68,-23.2407 991.994,-28.7533"/>
</g>
</g>
</svg>
        <g id="navigator" transform="translate(0 0)" fill="#404254">
                <rect fill="#f2f5e9" fill-opacity="0.5" stroke="#606060" stroke-width=".5" x="0" y="0" width="60" height="60"/>
                <use id="zoomplus" xlink:href="#zoomPlus" x="17" y="9" onmousedown="handleZoom(evt,'in')"/>
                <use id="zoomminus" xlink:href="#zoomMin" x="42" y="9" onmousedown="handleZoom(evt,'out')"/>
                <use id="reset" xlink:href="#resetDef" x="30" y="36" onmousedown="handleReset()"/>
                <g id="arrowUp" xlink:href="#dirArrow" transform="translate(30 24)" onmousedown="handlePan(0,-1)">
                  <use xlink:href="#rim" fill="#404040">
                        <set attributeName="fill" to="#808080" begin="arrowUp.mouseover" end="arrowUp.mouseout"/>
                  </use>
                  <path fill="none" stroke="white" stroke-width="1.5" d="M0,-3.0v7 M-2.5,-0.5L0,-3.0L2.5,-0.5"/>
                </g>
                <g id="arrowRight" xlink:href="#dirArrow" transform="rotate(90) translate(36 -43)" onmousedown="handlePan(1,0)">
                  <use xlink:href="#rim" fill="#404040">
                        <set attributeName="fill" to="#808080" begin="arrowRight.mouseover" end="arrowRight.mouseout"/>
                  </use>
                  <path fill="none" stroke="white" stroke-width="1.5" d="M0,-3.0v7 M-2.5,-0.5L0,-3.0L2.5,-0.5"/>
                </g>
                <g id="arrowDown" xlink:href="#dirArrow" transform="rotate(180) translate(-30 -48)" onmousedown="handlePan(0,1)">
                  <use xlink:href="#rim" fill="#404040">
                        <set attributeName="fill" to="#808080" begin="arrowDown.mouseover" end="arrowDown.mouseout"/>
                  </use>
                  <path fill="none" stroke="white" stroke-width="1.5" d="M0,-3.0v7 M-2.5,-0.5L0,-3.0L2.5,-0.5"/>
                </g>
                <g id="arrowLeft" xlink:href="#dirArrow" transform="rotate(270) translate(-36 17)" onmousedown="handlePan(-1,0)">
                  <use xlink:href="#rim" fill="#404040">
                        <set attributeName="fill" to="#808080" begin="arrowLeft.mouseover" end="arrowLeft.mouseout"/>
                  </use>
                  <path fill="none" stroke="white" stroke-width="1.5" d="M0,-3.0v7 M-2.5,-0.5L0,-3.0L2.5,-0.5"/>
                </g>
        </g>
</svg>
