<?xml version="1.0" encoding="UTF-8" standalone="no"?>
<!DOCTYPE svg PUBLIC "-//W3C//DTD SVG 1.1//EN"
 "http://www.w3.org/Graphics/SVG/1.1/DTD/svg11.dtd">
<!-- Generated by graphviz version 2.28.0 (20111025.1818)
 -->
<!-- Title: G Pages: 1 -->
<!--zoomable 252 -->
<svg id="main" version="1.1" xmlns="http://www.w3.org/2000/svg" xmlns:xlink="http://www.w3.org/1999/xlink" xml:space="preserve" onload="init(evt)">
        <defs>
                <circle id="rim" cx="0" cy="0" r="7"/>
                <circle id="rim2" cx="0" cy="0" r="3.5"/>
                <g id="zoomPlus">
                        <use xlink:href="#rim" fill="#404040">
                                <set attributeName="fill" to="#808080" begin="zoomplus.mouseover" end="zoomplus.mouseout"/>
                        </use>
                        <path d="M-4,0h8M0,-4v8" fill="none" stroke="white" stroke-width="1.5" pointer-events="none"/>
                </g>
                <g id="zoomMin">
                        <use xlink:href="#rim" fill="#404040">
                                <set attributeName="fill" to="#808080" begin="zoomminus.mouseover" end="zoomminus.mouseout"/>
                        </use>
                        <path d="M-4,0h8" fill="none" stroke="white" stroke-width="1.5" pointer-events="none"/>
                </g>
                <g id="dirArrow">
                        <path fill="none" stroke="white" stroke-width="1.5" d="M0,-3.0v7 M-2.5,-0.5L0,-3.0L2.5,-0.5"/>
                </g>
               <g id="resetDef">
                       <use xlink:href="#rim2" fill="#404040">
                               <set attributeName="fill" to="#808080" begin="reset.mouseover" end="reset.mouseout"/>
                       </use>
               </g>
        </defs>

<script type="text/javascript">
var viewWidth = 1179;
var viewHeight = 252;
var sectionId = 'dynsection-0';
</script>
<script xlink:href="../../svgpan.js"/>
<svg id="graph" class="graph">
<g id="viewport">
<title>G</title>
<polygon fill="white" stroke="white" points="-4,5 -4,-248 1176,-248 1176,5 -4,5"/>
<!-- Node1 -->
<g id="node1" class="node"><title>Node1</title>
<polygon fill="#bfbfbf" stroke="black" points="372.5,-224.5 372.5,-243.5 457.5,-243.5 457.5,-224.5 372.5,-224.5"/>
<text text-anchor="middle" x="415" y="-231.5" font-family="Helvetica,sans-Serif" font-size="10.00">include/kernel.h</text>
</g>
<!-- Node2 -->
<g id="node3" class="node"><title>Node2</title>
<polygon fill="white" stroke="#bfbfbf" points="0,-168.5 0,-187.5 44,-187.5 44,-168.5 0,-168.5"/>
<text text-anchor="middle" x="22" y="-175.5" font-family="Helvetica,sans-Serif" font-size="10.00">vector</text>
</g>
<!-- Node1&#45;&gt;Node2 -->
<g id="edge2" class="edge"><title>Node1&#45;&gt;Node2</title>
<path fill="none" stroke="midnightblue" d="M372.287,-229.902C306.071,-224.618 174.578,-212.21 54.3558,-187.988"/>
<polygon fill="midnightblue" stroke="midnightblue" points="54.7439,-184.495 44.245,-185.917 53.3393,-191.352 54.7439,-184.495"/>
</g>
<!-- Node3 -->
<g id="node5" class="node"><title>Node3</title>
<polygon fill="white" stroke="#bfbfbf" points="62,-168.5 62,-187.5 106,-187.5 106,-168.5 62,-168.5"/>
<text text-anchor="middle" x="84" y="-175.5" font-family="Helvetica,sans-Serif" font-size="10.00">fcntl.h</text>
</g>
<!-- Node1&#45;&gt;Node3 -->
<g id="edge4" class="edge"><title>Node1&#45;&gt;Node3</title>
<path fill="none" stroke="midnightblue" d="M372.444,-228.433C315.94,-221.971 212.931,-208.809 116.201,-188.018"/>
<polygon fill="midnightblue" stroke="midnightblue" points="116.776,-184.561 106.26,-185.849 115.284,-191.4 116.776,-184.561"/>
</g>
<!-- Node4 -->
<g id="node7" class="node"><title>Node4</title>
<polygon fill="white" stroke="#bfbfbf" points="124,-168.5 124,-187.5 192,-187.5 192,-168.5 124,-168.5"/>
<text text-anchor="middle" x="158" y="-175.5" font-family="Helvetica,sans-Serif" font-size="10.00">sys/types.h</text>
</g>
<!-- Node1&#45;&gt;Node4 -->
<g id="edge6" class="edge"><title>Node1&#45;&gt;Node4</title>
<path fill="none" stroke="midnightblue" d="M374.278,-224.444C327.369,-214.587 250.565,-198.45 202.225,-188.293"/>
<polygon fill="midnightblue" stroke="midnightblue" points="202.869,-184.851 192.363,-186.22 201.43,-191.702 202.869,-184.851"/>
</g>
<!-- Node5 -->
<g id="node9" class="node"><title>Node5</title>
<polygon fill="white" stroke="#bfbfbf" points="210,-168.5 210,-187.5 270,-187.5 270,-168.5 210,-168.5"/>
<text text-anchor="middle" x="240" y="-175.5" font-family="Helvetica,sans-Serif" font-size="10.00">sys/stat.h</text>
</g>
<!-- Node1&#45;&gt;Node5 -->
<g id="edge8" class="edge"><title>Node1&#45;&gt;Node5</title>
<path fill="none" stroke="midnightblue" d="M387.271,-224.444C357.574,-215.28 310.284,-200.688 277.331,-190.519"/>
<polygon fill="midnightblue" stroke="midnightblue" points="278.187,-187.121 267.6,-187.516 276.123,-193.809 278.187,-187.121"/>
</g>
<!-- Node6 -->
<g id="node11" class="node"><title>Node6</title>
<a xlink:href="../../dc/da7/cpu_8h.xhtml" target="_top" xlink:title="cpu.h">
<polygon fill="white" stroke="black" points="695.5,-168.5 695.5,-187.5 736.5,-187.5 736.5,-168.5 695.5,-168.5"/>
<text text-anchor="middle" x="716" y="-175.5" font-family="Helvetica,sans-Serif" font-size="10.00">cpu.h</text>
</a>
</g>
<!-- Node1&#45;&gt;Node6 -->
<g id="edge10" class="edge"><title>Node1&#45;&gt;Node6</title>
<path fill="none" stroke="midnightblue" d="M457.574,-227.634C509.235,-220.747 599.107,-207.567 685.469,-187.853"/>
<polygon fill="midnightblue" stroke="midnightblue" points="686.483,-191.21 695.435,-185.544 684.904,-184.391 686.483,-191.21"/>
</g>
<!-- Node11 -->
<g id="node21" class="node"><title>Node11</title>
<a xlink:href="../../d7/d59/char__device_8h.xhtml" target="_top" xlink:title="devices/char_device.h">
<polygon fill="white" stroke="black" points="426,-168.5 426,-187.5 540,-187.5 540,-168.5 426,-168.5"/>
<text text-anchor="middle" x="483" y="-175.5" font-family="Helvetica,sans-Serif" font-size="10.00">devices/char_device.h</text>
</a>
</g>
<!-- Node1&#45;&gt;Node11 -->
<g id="edge20" class="edge"><title>Node1&#45;&gt;Node11</title>
<path fill="none" stroke="midnightblue" d="M425.925,-224.324C436.175,-216.185 451.721,-203.839 464.001,-194.087"/>
<polygon fill="midnightblue" stroke="midnightblue" points="466.221,-196.794 471.876,-187.834 461.868,-191.312 466.221,-196.794"/>
</g>
<!-- Node15 -->
<g id="node29" class="node"><title>Node15</title>
<a xlink:href="../../db/d9a/block__device_8h.xhtml" target="_top" xlink:title="devices/block_device.h">
<polygon fill="white" stroke="black" points="288.5,-168.5 288.5,-187.5 407.5,-187.5 407.5,-168.5 288.5,-168.5"/>
<text text-anchor="middle" x="348" y="-175.5" font-family="Helvetica,sans-Serif" font-size="10.00">devices/block_device.h</text>
</a>
</g>
<!-- Node1&#45;&gt;Node15 -->
<g id="edge28" class="edge"><title>Node1&#45;&gt;Node15</title>
<path fill="none" stroke="midnightblue" d="M404.235,-224.324C394.234,-216.263 379.113,-204.077 367.07,-194.369"/>
<polygon fill="midnightblue" stroke="midnightblue" points="368.943,-191.384 358.961,-187.834 364.55,-196.834 368.943,-191.384"/>
</g>
<!-- Node16 -->
<g id="node32" class="node"><title>Node16</title>
<a xlink:href="../../df/d8f/clock__device_8h.xhtml" target="_top" xlink:title="devices/clock_device.h">
<polygon fill="white" stroke="black" points="558.5,-168.5 558.5,-187.5 677.5,-187.5 677.5,-168.5 558.5,-168.5"/>
<text text-anchor="middle" x="618" y="-175.5" font-family="Helvetica,sans-Serif" font-size="10.00">devices/clock_device.h</text>
</a>
</g>
<!-- Node1&#45;&gt;Node16 -->
<g id="edge32" class="edge"><title>Node1&#45;&gt;Node16</title>
<path fill="none" stroke="midnightblue" d="M447.166,-224.444C482.059,-215.162 537.893,-200.309 576.171,-190.127"/>
<polygon fill="midnightblue" stroke="midnightblue" points="577.22,-193.47 585.985,-187.516 575.421,-186.705 577.22,-193.47"/>
</g>
<!-- Node20 -->
<g id="node41" class="node"><title>Node20</title>
<a xlink:href="../../df/db9/id_8h_source.xhtml" target="_top" xlink:title="utility/id.h">
<polygon fill="white" stroke="black" points="867.5,-112.5 867.5,-131.5 926.5,-131.5 926.5,-112.5 867.5,-112.5"/>
<text text-anchor="middle" x="897" y="-119.5" font-family="Helvetica,sans-Serif" font-size="10.00">utility/id.h</text>
</a>
</g>
<!-- Node1&#45;&gt;Node20 -->
<g id="edge42" class="edge"><title>Node1&#45;&gt;Node20</title>
<path fill="none" stroke="midnightblue" d="M457.666,-230.842C521.271,-226.811 644.268,-215.858 745,-188 791.475,-175.147 842.415,-151.169 871.944,-136.203"/>
<polygon fill="midnightblue" stroke="midnightblue" points="873.802,-139.184 881.099,-131.503 870.605,-132.957 873.802,-139.184"/>
</g>
<!-- Node23 -->
<g id="node49" class="node"><title>Node23</title>
<a xlink:href="../../db/d41/fcfs_8h_source.xhtml" target="_top" xlink:title="scheduler/fcfs.h">
<polygon fill="white" stroke="black" points="854,-168.5 854,-187.5 940,-187.5 940,-168.5 854,-168.5"/>
<text text-anchor="middle" x="897" y="-175.5" font-family="Helvetica,sans-Serif" font-size="10.00">scheduler/fcfs.h</text>
</a>
</g>
<!-- Node1&#45;&gt;Node23 -->
<g id="edge52" class="edge"><title>Node1&#45;&gt;Node23</title>
<path fill="none" stroke="midnightblue" d="M457.774,-228.208C545.915,-218.333 747.556,-195.743 843.877,-184.952"/>
<polygon fill="midnightblue" stroke="midnightblue" points="844.428,-188.412 853.976,-183.82 843.648,-181.455 844.428,-188.412"/>
</g>
<!-- Node7 -->
<g id="node13" class="node"><title>Node7</title>
<polygon fill="white" stroke="#bfbfbf" points="752.5,-56.5 752.5,-75.5 795.5,-75.5 795.5,-56.5 752.5,-56.5"/>
<text text-anchor="middle" x="774" y="-63.5" font-family="Helvetica,sans-Serif" font-size="10.00">cstdio</text>
</g>
<!-- Node6&#45;&gt;Node7 -->
<g id="edge12" class="edge"><title>Node6&#45;&gt;Node7</title>
<path fill="none" stroke="midnightblue" d="M715.409,-168.45C714.887,-155.47 715.375,-130.365 725,-112 731.303,-99.9733 742.151,-89.5025 752.04,-81.6949"/>
<polygon fill="midnightblue" stroke="midnightblue" points="754.39,-84.31 760.345,-75.5471 750.225,-78.6837 754.39,-84.31"/>
</g>
<!-- Node8 -->
<g id="node15" class="node"><title>Node8</title>
<polygon fill="white" stroke="#bfbfbf" points="733.5,-112.5 733.5,-131.5 778.5,-131.5 778.5,-112.5 733.5,-112.5"/>
<text text-anchor="middle" x="756" y="-119.5" font-family="Helvetica,sans-Serif" font-size="10.00">cstdlib</text>
</g>
<!-- Node6&#45;&gt;Node8 -->
<g id="edge14" class="edge"><title>Node6&#45;&gt;Node8</title>
<path fill="none" stroke="midnightblue" d="M722.605,-168.083C728.255,-160.455 736.545,-149.264 743.451,-139.941"/>
<polygon fill="midnightblue" stroke="midnightblue" points="746.378,-141.87 749.518,-131.751 740.753,-137.703 746.378,-141.87"/>
</g>
<!-- Node9 -->
<g id="node17" class="node"><title>Node9</title>
<polygon fill="white" stroke="#bfbfbf" points="797,-112.5 797,-131.5 849,-131.5 849,-112.5 797,-112.5"/>
<text text-anchor="middle" x="823" y="-119.5" font-family="Helvetica,sans-Serif" font-size="10.00">assert.h</text>
</g>
<!-- Node6&#45;&gt;Node9 -->
<g id="edge16" class="edge"><title>Node6&#45;&gt;Node9</title>
<path fill="none" stroke="midnightblue" d="M733.191,-168.324C750.351,-159.664 776.946,-146.242 796.747,-136.249"/>
<polygon fill="midnightblue" stroke="midnightblue" points="798.501,-139.285 805.851,-131.655 795.347,-133.035 798.501,-139.285"/>
</g>
<!-- Node10 -->
<g id="node19" class="node"><title>Node10</title>
<polygon fill="white" stroke="#bfbfbf" points="838.5,-0.5 838.5,-19.5 897.5,-19.5 897.5,-0.5 838.5,-0.5"/>
<text text-anchor="middle" x="868" y="-7.5" font-family="Helvetica,sans-Serif" font-size="10.00">inttypes.h</text>
</g>
<!-- Node6&#45;&gt;Node10 -->
<g id="edge18" class="edge"><title>Node6&#45;&gt;Node10</title>
<path fill="none" stroke="midnightblue" d="M715.503,-168.377C715.007,-159.322 714.281,-144.666 714,-132 713.803,-123.113 711.836,-120.621 714,-112 720.873,-84.614 722.653,-74.4808 744,-56 767.845,-35.3564 801.921,-23.9006 828.319,-17.7216"/>
<polygon fill="midnightblue" stroke="midnightblue" points="829.357,-21.0777 838.384,-15.5307 827.868,-14.2378 829.357,-21.0777"/>
</g>
<!-- Node12 -->
<g id="node23" class="node"><title>Node12</title>
<a xlink:href="../../d0/d8f/abstract__device_8h_source.xhtml" target="_top" xlink:title="devices/abstract_device.h">
<polygon fill="white" stroke="black" points="340.5,-112.5 340.5,-131.5 471.5,-131.5 471.5,-112.5 340.5,-112.5"/>
<text text-anchor="middle" x="406" y="-119.5" font-family="Helvetica,sans-Serif" font-size="10.00">devices/abstract_device.h</text>
</a>
</g>
<!-- Node11&#45;&gt;Node12 -->
<g id="edge22" class="edge"><title>Node11&#45;&gt;Node12</title>
<path fill="none" stroke="midnightblue" d="M470.629,-168.324C458.842,-160.058 440.868,-147.453 426.864,-137.632"/>
<polygon fill="midnightblue" stroke="midnightblue" points="428.538,-134.531 418.341,-131.655 424.518,-140.262 428.538,-134.531"/>
</g>
<!-- Node13 -->
<g id="node25" class="node"><title>Node13</title>
<polygon fill="white" stroke="#bfbfbf" points="417,-56.5 417,-75.5 461,-75.5 461,-56.5 417,-56.5"/>
<text text-anchor="middle" x="439" y="-63.5" font-family="Helvetica,sans-Serif" font-size="10.00">time.h</text>
</g>
<!-- Node12&#45;&gt;Node13 -->
<g id="edge24" class="edge"><title>Node12&#45;&gt;Node13</title>
<path fill="none" stroke="midnightblue" d="M411.449,-112.083C416.014,-104.613 422.668,-93.7244 428.293,-84.5199"/>
<polygon fill="midnightblue" stroke="midnightblue" points="431.424,-86.109 433.652,-75.7511 425.451,-82.4588 431.424,-86.109"/>
</g>
<!-- Node14 -->
<g id="node27" class="node"><title>Node14</title>
<polygon fill="white" stroke="#bfbfbf" points="349,-56.5 349,-75.5 399,-75.5 399,-56.5 349,-56.5"/>
<text text-anchor="middle" x="374" y="-63.5" font-family="Helvetica,sans-Serif" font-size="10.00">signal.h</text>
</g>
<!-- Node12&#45;&gt;Node14 -->
<g id="edge26" class="edge"><title>Node12&#45;&gt;Node14</title>
<path fill="none" stroke="midnightblue" d="M400.716,-112.083C396.289,-104.613 389.837,-93.7244 384.382,-84.5199"/>
<polygon fill="midnightblue" stroke="midnightblue" points="387.295,-82.5697 379.186,-75.7511 381.273,-86.1383 387.295,-82.5697"/>
</g>
<!-- Node15&#45;&gt;Node12 -->
<g id="edge30" class="edge"><title>Node15&#45;&gt;Node12</title>
<path fill="none" stroke="midnightblue" d="M357.319,-168.324C365.893,-160.341 378.812,-148.313 389.188,-138.653"/>
<polygon fill="midnightblue" stroke="midnightblue" points="391.578,-141.21 396.512,-131.834 386.808,-136.086 391.578,-141.21"/>
</g>
<!-- Node16&#45;&gt;Node12 -->
<g id="edge40" class="edge"><title>Node16&#45;&gt;Node12</title>
<path fill="none" stroke="midnightblue" d="M584.408,-168.444C547.813,-159.122 489.162,-144.183 449.174,-133.997"/>
<polygon fill="midnightblue" stroke="midnightblue" points="449.989,-130.593 439.435,-131.516 448.261,-137.377 449.989,-130.593"/>
</g>
<!-- Node17 -->
<g id="node34" class="node"><title>Node17</title>
<polygon fill="white" stroke="#bfbfbf" points="489.5,-112.5 489.5,-131.5 536.5,-131.5 536.5,-112.5 489.5,-112.5"/>
<text text-anchor="middle" x="513" y="-119.5" font-family="Helvetica,sans-Serif" font-size="10.00">errno.h</text>
</g>
<!-- Node16&#45;&gt;Node17 -->
<g id="edge34" class="edge"><title>Node16&#45;&gt;Node17</title>
<path fill="none" stroke="midnightblue" d="M601.13,-168.324C584.291,-159.664 558.193,-146.242 538.762,-136.249"/>
<polygon fill="midnightblue" stroke="midnightblue" points="540.322,-133.116 529.828,-131.655 537.12,-139.341 540.322,-133.116"/>
</g>
<!-- Node18 -->
<g id="node36" class="node"><title>Node18</title>
<polygon fill="white" stroke="#bfbfbf" points="555,-112.5 555,-131.5 601,-131.5 601,-112.5 555,-112.5"/>
<text text-anchor="middle" x="578" y="-119.5" font-family="Helvetica,sans-Serif" font-size="10.00">cstring</text>
</g>
<!-- Node16&#45;&gt;Node18 -->
<g id="edge36" class="edge"><title>Node16&#45;&gt;Node18</title>
<path fill="none" stroke="midnightblue" d="M611.395,-168.083C605.745,-160.455 597.455,-149.264 590.549,-139.941"/>
<polygon fill="midnightblue" stroke="midnightblue" points="593.247,-137.703 584.482,-131.751 587.622,-141.87 593.247,-137.703"/>
</g>
<!-- Node19 -->
<g id="node38" class="node"><title>Node19</title>
<polygon fill="white" stroke="#bfbfbf" points="597.5,-56.5 597.5,-75.5 638.5,-75.5 638.5,-56.5 597.5,-56.5"/>
<text text-anchor="middle" x="618" y="-63.5" font-family="Helvetica,sans-Serif" font-size="10.00">string</text>
</g>
<!-- Node16&#45;&gt;Node19 -->
<g id="edge38" class="edge"><title>Node16&#45;&gt;Node19</title>
<path fill="none" stroke="midnightblue" d="M618,-168.368C618,-150.617 618,-109.666 618,-85.5974"/>
<polygon fill="midnightblue" stroke="midnightblue" points="621.5,-85.5914 618,-75.5914 614.5,-85.5915 621.5,-85.5914"/>
</g>
<!-- Node20&#45;&gt;Node7 -->
<g id="edge44" class="edge"><title>Node20&#45;&gt;Node7</title>
<path fill="none" stroke="midnightblue" d="M877.51,-112.444C857.358,-103.596 825.677,-89.6875 802.669,-79.5865"/>
<polygon fill="midnightblue" stroke="midnightblue" points="803.962,-76.3316 793.399,-75.5164 801.148,-82.7411 803.962,-76.3316"/>
</g>
<!-- Node20&#45;&gt;Node19 -->
<g id="edge48" class="edge"><title>Node20&#45;&gt;Node19</title>
<path fill="none" stroke="midnightblue" d="M867.218,-113.993C864.109,-113.302 860.993,-112.626 858,-112 782.931,-96.3074 694.108,-80.3215 648.458,-72.2935"/>
<polygon fill="midnightblue" stroke="midnightblue" points="649.057,-68.8453 638.603,-70.5662 647.849,-75.7402 649.057,-68.8453"/>
</g>
<!-- Node21 -->
<g id="node44" class="node"><title>Node21</title>
<polygon fill="white" stroke="#bfbfbf" points="870.5,-56.5 870.5,-75.5 915.5,-75.5 915.5,-56.5 870.5,-56.5"/>
<text text-anchor="middle" x="893" y="-63.5" font-family="Helvetica,sans-Serif" font-size="10.00">climits</text>
</g>
<!-- Node20&#45;&gt;Node21 -->
<g id="edge46" class="edge"><title>Node20&#45;&gt;Node21</title>
<path fill="none" stroke="midnightblue" d="M896.339,-112.083C895.815,-105.006 895.064,-94.8611 894.406,-85.9865"/>
<polygon fill="midnightblue" stroke="midnightblue" points="897.877,-85.4652 893.648,-75.7511 890.897,-85.9823 897.877,-85.4652"/>
</g>
<!-- Node22 -->
<g id="node47" class="node"><title>Node22</title>
<polygon fill="white" stroke="#bfbfbf" points="933.5,-56.5 933.5,-75.5 976.5,-75.5 976.5,-56.5 933.5,-56.5"/>
<text text-anchor="middle" x="955" y="-63.5" font-family="Helvetica,sans-Serif" font-size="10.00">queue</text>
</g>
<!-- Node20&#45;&gt;Node22 -->
<g id="edge50" class="edge"><title>Node20&#45;&gt;Node22</title>
<path fill="none" stroke="midnightblue" d="M906.319,-112.324C914.893,-104.341 927.812,-92.3128 938.188,-82.6529"/>
<polygon fill="midnightblue" stroke="midnightblue" points="940.578,-85.2098 945.512,-75.8339 935.808,-80.0865 940.578,-85.2098"/>
</g>
<!-- Node23&#45;&gt;Node8 -->
<g id="edge54" class="edge"><title>Node23&#45;&gt;Node8</title>
<path fill="none" stroke="midnightblue" d="M874.658,-168.444C851.247,-159.478 814.264,-145.314 787.81,-135.183"/>
<polygon fill="midnightblue" stroke="midnightblue" points="788.828,-131.824 778.237,-131.516 786.324,-138.361 788.828,-131.824"/>
</g>
<!-- Node23&#45;&gt;Node9 -->
<g id="edge58" class="edge"><title>Node23&#45;&gt;Node9</title>
<path fill="none" stroke="midnightblue" d="M885.111,-168.324C873.85,-160.107 856.713,-147.602 843.291,-137.807"/>
<polygon fill="midnightblue" stroke="midnightblue" points="845.247,-134.901 835.106,-131.834 841.12,-140.556 845.247,-134.901"/>
</g>
<!-- Node23&#45;&gt;Node20 -->
<g id="edge68" class="edge"><title>Node23&#45;&gt;Node20</title>
<path fill="none" stroke="midnightblue" d="M897,-168.083C897,-161.006 897,-150.861 897,-141.986"/>
<polygon fill="midnightblue" stroke="midnightblue" points="900.5,-141.751 897,-131.751 893.5,-141.751 900.5,-141.751"/>
</g>
<!-- Node23&#45;&gt;Node22 -->
<g id="edge56" class="edge"><title>Node23&#45;&gt;Node22</title>
<path fill="none" stroke="midnightblue" d="M906.038,-168.499C914.596,-159.997 927.256,-146.179 935,-132 942.958,-117.428 948.208,-99.2518 951.324,-85.828"/>
<polygon fill="midnightblue" stroke="midnightblue" points="954.789,-86.3634 953.452,-75.8532 947.943,-84.9029 954.789,-86.3634"/>
</g>
<!-- Node24 -->
<g id="node54" class="node"><title>Node24</title>
<polygon fill="white" stroke="#bfbfbf" points="983.5,-112.5 983.5,-131.5 1040.5,-131.5 1040.5,-112.5 983.5,-112.5"/>
<text text-anchor="middle" x="1012" y="-119.5" font-family="Helvetica,sans-Serif" font-size="10.00">pthread.h</text>
</g>
<!-- Node23&#45;&gt;Node24 -->
<g id="edge60" class="edge"><title>Node23&#45;&gt;Node24</title>
<path fill="none" stroke="midnightblue" d="M915.222,-168.444C933.896,-159.675 963.156,-145.935 984.617,-135.858"/>
<polygon fill="midnightblue" stroke="midnightblue" points="986.299,-138.935 993.863,-131.516 983.324,-132.599 986.299,-138.935"/>
</g>
<!-- Node25 -->
<g id="node56" class="node"><title>Node25</title>
<a xlink:href="../../d2/dd8/scheduler_8h_source.xhtml" target="_top" xlink:title="scheduler/scheduler.h">
<polygon fill="white" stroke="black" points="1059,-112.5 1059,-131.5 1171,-131.5 1171,-112.5 1059,-112.5"/>
<text text-anchor="middle" x="1115" y="-119.5" font-family="Helvetica,sans-Serif" font-size="10.00">scheduler/scheduler.h</text>
</a>
</g>
<!-- Node23&#45;&gt;Node25 -->
<g id="edge62" class="edge"><title>Node23&#45;&gt;Node25</title>
<path fill="none" stroke="midnightblue" d="M931.543,-168.444C969.253,-159.102 1029.74,-144.119 1070.86,-133.933"/>
<polygon fill="midnightblue" stroke="midnightblue" points="1071.75,-137.318 1080.62,-131.516 1070.07,-130.524 1071.75,-137.318"/>
</g>
<!-- Node26 -->
<g id="node58" class="node"><title>Node26</title>
<a xlink:href="../../da/d42/process_8h.xhtml" target="_top" xlink:title="process.h">
<polygon fill="white" stroke="black" points="1039.5,-56.5 1039.5,-75.5 1098.5,-75.5 1098.5,-56.5 1039.5,-56.5"/>
<text text-anchor="middle" x="1069" y="-63.5" font-family="Helvetica,sans-Serif" font-size="10.00">process.h</text>
</a>
</g>
<!-- Node25&#45;&gt;Node26 -->
<g id="edge64" class="edge"><title>Node25&#45;&gt;Node26</title>
<path fill="none" stroke="midnightblue" d="M1107.4,-112.083C1100.77,-104.298 1090.98,-92.8015 1082.94,-83.3665"/>
<polygon fill="midnightblue" stroke="midnightblue" points="1085.6,-81.0939 1076.45,-75.7511 1080.27,-85.6332 1085.6,-81.0939"/>
</g>
<!-- Node26&#45;&gt;Node10 -->
<g id="edge66" class="edge"><title>Node26&#45;&gt;Node10</title>
<path fill="none" stroke="midnightblue" d="M1039.34,-57.0321C1004.46,-47.66 946.402,-32.0631 907.67,-21.6576"/>
<polygon fill="midnightblue" stroke="midnightblue" points="908.346,-18.2151 897.78,-19.0006 906.529,-24.9754 908.346,-18.2151"/>
</g>
</g>
</svg>
        <g id="navigator" transform="translate(0 0)" fill="#404254">
                <rect fill="#f2f5e9" fill-opacity="0.5" stroke="#606060" stroke-width=".5" x="0" y="0" width="60" height="60"/>
                <use id="zoomplus" xlink:href="#zoomPlus" x="17" y="9" onmousedown="handleZoom(evt,'in')"/>
                <use id="zoomminus" xlink:href="#zoomMin" x="42" y="9" onmousedown="handleZoom(evt,'out')"/>
                <use id="reset" xlink:href="#resetDef" x="30" y="36" onmousedown="handleReset()"/>
                <g id="arrowUp" xlink:href="#dirArrow" transform="translate(30 24)" onmousedown="handlePan(0,-1)">
                  <use xlink:href="#rim" fill="#404040">
                        <set attributeName="fill" to="#808080" begin="arrowUp.mouseover" end="arrowUp.mouseout"/>
                  </use>
                  <path fill="none" stroke="white" stroke-width="1.5" d="M0,-3.0v7 M-2.5,-0.5L0,-3.0L2.5,-0.5"/>
                </g>
                <g id="arrowRight" xlink:href="#dirArrow" transform="rotate(90) translate(36 -43)" onmousedown="handlePan(1,0)">
                  <use xlink:href="#rim" fill="#404040">
                        <set attributeName="fill" to="#808080" begin="arrowRight.mouseover" end="arrowRight.mouseout"/>
                  </use>
                  <path fill="none" stroke="white" stroke-width="1.5" d="M0,-3.0v7 M-2.5,-0.5L0,-3.0L2.5,-0.5"/>
                </g>
                <g id="arrowDown" xlink:href="#dirArrow" transform="rotate(180) translate(-30 -48)" onmousedown="handlePan(0,1)">
                  <use xlink:href="#rim" fill="#404040">
                        <set attributeName="fill" to="#808080" begin="arrowDown.mouseover" end="arrowDown.mouseout"/>
                  </use>
                  <path fill="none" stroke="white" stroke-width="1.5" d="M0,-3.0v7 M-2.5,-0.5L0,-3.0L2.5,-0.5"/>
                </g>
                <g id="arrowLeft" xlink:href="#dirArrow" transform="rotate(270) translate(-36 17)" onmousedown="handlePan(-1,0)">
                  <use xlink:href="#rim" fill="#404040">
                        <set attributeName="fill" to="#808080" begin="arrowLeft.mouseover" end="arrowLeft.mouseout"/>
                  </use>
                  <path fill="none" stroke="white" stroke-width="1.5" d="M0,-3.0v7 M-2.5,-0.5L0,-3.0L2.5,-0.5"/>
                </g>
        </g>
</svg>
