<?xml version="1.0" encoding="UTF-8" standalone="no"?>
<!DOCTYPE svg PUBLIC "-//W3C//DTD SVG 1.1//EN"
 "http://www.w3.org/Graphics/SVG/1.1/DTD/svg11.dtd">
<!-- Generated by graphviz version 2.28.0 (20111025.1818)
 -->
<!-- Title: G Pages: 1 -->
<!--zoomable 364 -->
<svg id="main" version="1.1" xmlns="http://www.w3.org/2000/svg" xmlns:xlink="http://www.w3.org/1999/xlink" xml:space="preserve" onload="init(evt)">
        <defs>
                <circle id="rim" cx="0" cy="0" r="7"/>
                <circle id="rim2" cx="0" cy="0" r="3.5"/>
                <g id="zoomPlus">
                        <use xlink:href="#rim" fill="#404040">
                                <set attributeName="fill" to="#808080" begin="zoomplus.mouseover" end="zoomplus.mouseout"/>
                        </use>
                        <path d="M-4,0h8M0,-4v8" fill="none" stroke="white" stroke-width="1.5" pointer-events="none"/>
                </g>
                <g id="zoomMin">
                        <use xlink:href="#rim" fill="#404040">
                                <set attributeName="fill" to="#808080" begin="zoomminus.mouseover" end="zoomminus.mouseout"/>
                        </use>
                        <path d="M-4,0h8" fill="none" stroke="white" stroke-width="1.5" pointer-events="none"/>
                </g>
                <g id="dirArrow">
                        <path fill="none" stroke="white" stroke-width="1.5" d="M0,-3.0v7 M-2.5,-0.5L0,-3.0L2.5,-0.5"/>
                </g>
               <g id="resetDef">
                       <use xlink:href="#rim2" fill="#404040">
                               <set attributeName="fill" to="#808080" begin="reset.mouseover" end="reset.mouseout"/>
                       </use>
               </g>
        </defs>

<script type="text/javascript">
var viewWidth = 1533;
var viewHeight = 364;
var sectionId = 'dynsection-0';
</script>
<script xlink:href="../../svgpan.js"/>
<svg id="graph" class="graph">
<g id="viewport">
<title>G</title>
<polygon fill="white" stroke="white" points="-4,5 -4,-360 1530.35,-360 1530.35,5 -4,5"/>
<!-- Node1 -->
<g id="node1" class="node"><title>Node1</title>
<polygon fill="#bfbfbf" stroke="black" points="515.786,-336.5 515.786,-355.5 600.786,-355.5 600.786,-336.5 515.786,-336.5"/>
<text text-anchor="middle" x="558.286" y="-343.5" font-family="Helvetica,sans-Serif" font-size="10.00">include/kernel.h</text>
</g>
<!-- Node2 -->
<g id="node3" class="node"><title>Node2</title>
<polygon fill="white" stroke="#bfbfbf" points="245.286,-280.5 245.286,-299.5 289.286,-299.5 289.286,-280.5 245.286,-280.5"/>
<text text-anchor="middle" x="267.286" y="-287.5" font-family="Helvetica,sans-Serif" font-size="10.00">vector</text>
</g>
<!-- Node1&#45;&gt;Node2 -->
<g id="edge2" class="edge"><title>Node1&#45;&gt;Node2</title>
<path fill="none" stroke="midnightblue" d="M515.665,-339.11C465.944,-331.911 381.12,-318.615 299.496,-300.075"/>
<polygon fill="midnightblue" stroke="midnightblue" points="300.09,-296.62 289.56,-297.788 298.52,-303.442 300.09,-296.62"/>
</g>
<!-- Node3 -->
<g id="node5" class="node"><title>Node3</title>
<polygon fill="white" stroke="#bfbfbf" points="307.286,-280.5 307.286,-299.5 367.286,-299.5 367.286,-280.5 307.286,-280.5"/>
<text text-anchor="middle" x="337.286" y="-287.5" font-family="Helvetica,sans-Serif" font-size="10.00">sys/stat.h</text>
</g>
<!-- Node1&#45;&gt;Node3 -->
<g id="edge4" class="edge"><title>Node1&#45;&gt;Node3</title>
<path fill="none" stroke="midnightblue" d="M523.268,-336.444C483.577,-326.745 418.997,-310.965 377.335,-300.786"/>
<polygon fill="midnightblue" stroke="midnightblue" points="378.069,-297.362 367.524,-298.388 376.408,-304.162 378.069,-297.362"/>
</g>
<!-- Node4 -->
<g id="node7" class="node"><title>Node4</title>
<polygon fill="white" stroke="#bfbfbf" points="385.786,-280.5 385.786,-299.5 458.786,-299.5 458.786,-280.5 385.786,-280.5"/>
<text text-anchor="middle" x="422.286" y="-287.5" font-family="Helvetica,sans-Serif" font-size="10.00">semaphore.h</text>
</g>
<!-- Node1&#45;&gt;Node4 -->
<g id="edge6" class="edge"><title>Node1&#45;&gt;Node4</title>
<path fill="none" stroke="midnightblue" d="M536.737,-336.444C514.255,-327.517 478.799,-313.439 453.307,-303.317"/>
<polygon fill="midnightblue" stroke="midnightblue" points="454.321,-299.954 443.735,-299.516 451.738,-306.46 454.321,-299.954"/>
</g>
<!-- Node5 -->
<g id="node9" class="node"><title>Node5</title>
<a xlink:href="../../dc/da7/cpu_8h.xhtml" target="_top" xlink:title="cpu.h">
<polygon fill="white" stroke="black" points="169.786,-168.5 169.786,-187.5 210.786,-187.5 210.786,-168.5 169.786,-168.5"/>
<text text-anchor="middle" x="190.286" y="-175.5" font-family="Helvetica,sans-Serif" font-size="10.00">cpu.h</text>
</a>
</g>
<!-- Node1&#45;&gt;Node5 -->
<g id="edge8" class="edge"><title>Node1&#45;&gt;Node5</title>
<path fill="none" stroke="midnightblue" d="M548.241,-336.419C532.075,-322.946 498.891,-296.653 467.286,-280 382.164,-235.148 272.706,-201.71 220.541,-187.105"/>
<polygon fill="midnightblue" stroke="midnightblue" points="221.468,-183.73 210.896,-184.437 219.602,-190.476 221.468,-183.73"/>
</g>
<!-- Node13 -->
<g id="node26" class="node"><title>Node13</title>
<a xlink:href="../../d7/d59/char__device_8h.xhtml" target="_top" xlink:title="devices/char_device.h">
<polygon fill="white" stroke="black" points="963.286,-168.5 963.286,-187.5 1077.29,-187.5 1077.29,-168.5 963.286,-168.5"/>
<text text-anchor="middle" x="1020.29" y="-175.5" font-family="Helvetica,sans-Serif" font-size="10.00">devices/char_device.h</text>
</a>
</g>
<!-- Node1&#45;&gt;Node13 -->
<g id="edge26" class="edge"><title>Node1&#45;&gt;Node13</title>
<path fill="none" stroke="midnightblue" d="M600.811,-340.461C674.796,-331.183 830.376,-305.483 946.286,-244 969.993,-231.425 992.444,-209.84 1006.27,-195.018"/>
<polygon fill="midnightblue" stroke="midnightblue" points="1008.89,-197.338 1013.02,-187.579 1003.71,-192.635 1008.89,-197.338"/>
</g>
<!-- Node23 -->
<g id="node49" class="node"><title>Node23</title>
<a xlink:href="../../db/d9a/block__device_8h.xhtml" target="_top" xlink:title="devices/block_device.h">
<polygon fill="white" stroke="black" points="1229.79,-168.5 1229.79,-187.5 1348.79,-187.5 1348.79,-168.5 1229.79,-168.5"/>
<text text-anchor="middle" x="1289.29" y="-175.5" font-family="Helvetica,sans-Serif" font-size="10.00">devices/block_device.h</text>
</a>
</g>
<!-- Node1&#45;&gt;Node23 -->
<g id="edge52" class="edge"><title>Node1&#45;&gt;Node23</title>
<path fill="none" stroke="midnightblue" d="M601.164,-339.86C657.838,-332.716 760.641,-318.544 847.286,-300 999.422,-267.44 1177.04,-214.019 1252.44,-190.607"/>
<polygon fill="midnightblue" stroke="midnightblue" points="1253.88,-193.824 1262.39,-187.508 1251.8,-187.141 1253.88,-193.824"/>
</g>
<!-- Node24 -->
<g id="node53" class="node"><title>Node24</title>
<a xlink:href="../../df/d8f/clock__device_8h.xhtml" target="_top" xlink:title="devices/clock_device.h">
<polygon fill="white" stroke="black" points="1366.79,-168.5 1366.79,-187.5 1485.79,-187.5 1485.79,-168.5 1366.79,-168.5"/>
<text text-anchor="middle" x="1426.29" y="-175.5" font-family="Helvetica,sans-Serif" font-size="10.00">devices/clock_device.h</text>
</a>
</g>
<!-- Node1&#45;&gt;Node24 -->
<g id="edge58" class="edge"><title>Node1&#45;&gt;Node24</title>
<path fill="none" stroke="midnightblue" d="M600.875,-340.716C665.768,-333.89 793.171,-319.322 900.286,-300 1082.09,-267.205 1295.84,-213.158 1384.5,-190.043"/>
<polygon fill="midnightblue" stroke="midnightblue" points="1385.4,-193.427 1394.19,-187.512 1383.63,-186.655 1385.4,-193.427"/>
</g>
<!-- Node27 -->
<g id="node63" class="node"><title>Node27</title>
<a xlink:href="../../d5/d8b/allSchedulers_8h_source.xhtml" target="_top" xlink:title="scheduler/allSchedulers.h">
<polygon fill="white" stroke="black" points="565.286,-280.5 565.286,-299.5 693.286,-299.5 693.286,-280.5 565.286,-280.5"/>
<text text-anchor="middle" x="629.286" y="-287.5" font-family="Helvetica,sans-Serif" font-size="10.00">scheduler/allSchedulers.h</text>
</a>
</g>
<!-- Node1&#45;&gt;Node27 -->
<g id="edge72" class="edge"><title>Node1&#45;&gt;Node27</title>
<path fill="none" stroke="midnightblue" d="M569.694,-336.324C580.395,-328.185 596.627,-315.839 609.449,-306.087"/>
<polygon fill="midnightblue" stroke="midnightblue" points="611.831,-308.673 617.672,-299.834 607.593,-303.102 611.831,-308.673"/>
</g>
<!-- Node6 -->
<g id="node11" class="node"><title>Node6</title>
<polygon fill="white" stroke="#bfbfbf" points="963.786,-0.5 963.786,-19.5 1006.79,-19.5 1006.79,-0.5 963.786,-0.5"/>
<text text-anchor="middle" x="985.286" y="-7.5" font-family="Helvetica,sans-Serif" font-size="10.00">cstdio</text>
</g>
<!-- Node5&#45;&gt;Node6 -->
<g id="edge10" class="edge"><title>Node5&#45;&gt;Node6</title>
<path fill="none" stroke="midnightblue" d="M169.558,-169.928C120.315,-152.127 3.72884,-103.484 49.2865,-56 82.7387,-21.1332 870.152,-24.2209 918.286,-20 929.804,-18.99 942.38,-17.4245 953.493,-15.8807"/>
<polygon fill="midnightblue" stroke="midnightblue" points="954.217,-19.3127 963.617,-14.4259 953.221,-12.3838 954.217,-19.3127"/>
</g>
<!-- Node7 -->
<g id="node13" class="node"><title>Node7</title>
<polygon fill="white" stroke="#bfbfbf" points="500.786,-112.5 500.786,-131.5 545.786,-131.5 545.786,-112.5 500.786,-112.5"/>
<text text-anchor="middle" x="523.286" y="-119.5" font-family="Helvetica,sans-Serif" font-size="10.00">cstdlib</text>
</g>
<!-- Node5&#45;&gt;Node7 -->
<g id="edge12" class="edge"><title>Node5&#45;&gt;Node7</title>
<path fill="none" stroke="midnightblue" d="M210.866,-173.663C266.859,-164.583 422.315,-139.374 490.509,-128.315"/>
<polygon fill="midnightblue" stroke="midnightblue" points="491.365,-131.722 500.676,-126.667 490.245,-124.812 491.365,-131.722"/>
</g>
<!-- Node8 -->
<g id="node15" class="node"><title>Node8</title>
<polygon fill="white" stroke="#bfbfbf" points="198.286,-56.5 198.286,-75.5 250.286,-75.5 250.286,-56.5 198.286,-56.5"/>
<text text-anchor="middle" x="224.286" y="-63.5" font-family="Helvetica,sans-Serif" font-size="10.00">assert.h</text>
</g>
<!-- Node5&#45;&gt;Node8 -->
<g id="edge14" class="edge"><title>Node5&#45;&gt;Node8</title>
<path fill="none" stroke="midnightblue" d="M192.978,-168.376C195.803,-159.319 200.369,-144.662 204.286,-132 209.14,-116.315 214.622,-98.4901 218.617,-85.4788"/>
<polygon fill="midnightblue" stroke="midnightblue" points="221.989,-86.4209 221.578,-75.8341 215.298,-84.3668 221.989,-86.4209"/>
</g>
<!-- Node9 -->
<g id="node17" class="node"><title>Node9</title>
<polygon fill="white" stroke="#bfbfbf" points="371.786,-0.5 371.786,-19.5 430.786,-19.5 430.786,-0.5 371.786,-0.5"/>
<text text-anchor="middle" x="401.286" y="-7.5" font-family="Helvetica,sans-Serif" font-size="10.00">inttypes.h</text>
</g>
<!-- Node5&#45;&gt;Node9 -->
<g id="edge16" class="edge"><title>Node5&#45;&gt;Node9</title>
<path fill="none" stroke="midnightblue" d="M169.499,-174.766C127.527,-169.781 35.0547,-156.24 16.2865,-132 -4.39281,-105.292 -6.16884,-81.2328 16.2865,-56 38.9829,-30.4962 267.616,-17.1495 361.435,-12.7118"/>
<polygon fill="midnightblue" stroke="midnightblue" points="361.835,-16.1971 371.662,-12.2382 361.511,-9.20463 361.835,-16.1971"/>
</g>
<!-- Node10 -->
<g id="node19" class="node"><title>Node10</title>
<a xlink:href="../../d1/d8c/logger_8h.xhtml" target="_top" xlink:title="utility/logger.h">
<polygon fill="white" stroke="black" points="118.786,-112.5 118.786,-131.5 195.786,-131.5 195.786,-112.5 118.786,-112.5"/>
<text text-anchor="middle" x="157.286" y="-119.5" font-family="Helvetica,sans-Serif" font-size="10.00">utility/logger.h</text>
</a>
</g>
<!-- Node5&#45;&gt;Node10 -->
<g id="edge18" class="edge"><title>Node5&#45;&gt;Node10</title>
<path fill="none" stroke="midnightblue" d="M184.837,-168.083C180.272,-160.613 173.618,-149.724 167.993,-140.52"/>
<polygon fill="midnightblue" stroke="midnightblue" points="170.835,-138.459 162.634,-131.751 164.862,-142.109 170.835,-138.459"/>
</g>
<!-- Node10&#45;&gt;Node8 -->
<g id="edge20" class="edge"><title>Node10&#45;&gt;Node8</title>
<path fill="none" stroke="midnightblue" d="M168.051,-112.324C178.053,-104.263 193.173,-92.0765 205.217,-82.3695"/>
<polygon fill="midnightblue" stroke="midnightblue" points="207.736,-84.8343 213.326,-75.8339 203.344,-79.3841 207.736,-84.8343"/>
</g>
<!-- Node11 -->
<g id="node22" class="node"><title>Node11</title>
<polygon fill="white" stroke="#bfbfbf" points="58.2865,-56.5 58.2865,-75.5 112.286,-75.5 112.286,-56.5 58.2865,-56.5"/>
<text text-anchor="middle" x="85.2865" y="-63.5" font-family="Helvetica,sans-Serif" font-size="10.00">iostream</text>
</g>
<!-- Node10&#45;&gt;Node11 -->
<g id="edge22" class="edge"><title>Node10&#45;&gt;Node11</title>
<path fill="none" stroke="midnightblue" d="M145.718,-112.324C134.866,-104.185 118.406,-91.8395 105.403,-82.0874"/>
<polygon fill="midnightblue" stroke="midnightblue" points="107.165,-79.0339 97.065,-75.8339 102.965,-84.6339 107.165,-79.0339"/>
</g>
<!-- Node12 -->
<g id="node24" class="node"><title>Node12</title>
<polygon fill="white" stroke="#bfbfbf" points="130.286,-56.5 130.286,-75.5 180.286,-75.5 180.286,-56.5 130.286,-56.5"/>
<text text-anchor="middle" x="155.286" y="-63.5" font-family="Helvetica,sans-Serif" font-size="10.00">fstream</text>
</g>
<!-- Node10&#45;&gt;Node12 -->
<g id="edge24" class="edge"><title>Node10&#45;&gt;Node12</title>
<path fill="none" stroke="midnightblue" d="M156.956,-112.083C156.694,-105.006 156.318,-94.8611 155.99,-85.9865"/>
<polygon fill="midnightblue" stroke="midnightblue" points="159.478,-85.6147 155.611,-75.7511 152.483,-85.8738 159.478,-85.6147"/>
</g>
<!-- Node13&#45;&gt;Node6 -->
<g id="edge28" class="edge"><title>Node13&#45;&gt;Node6</title>
<path fill="none" stroke="midnightblue" d="M1019.34,-168.397C1017.04,-148.443 1010.57,-97.5418 1000.29,-56 998.057,-46.996 994.885,-37.2034 992.032,-29.0595"/>
<polygon fill="midnightblue" stroke="midnightblue" points="995.269,-27.7177 988.571,-19.5081 988.687,-30.1023 995.269,-27.7177"/>
</g>
<!-- Node14 -->
<g id="node29" class="node"><title>Node14</title>
<a xlink:href="../../dd/d9e/queued__device_8h.xhtml" target="_top" xlink:title="devices/queued_device.h">
<polygon fill="white" stroke="black" points="1048.79,-112.5 1048.79,-131.5 1175.79,-131.5 1175.79,-112.5 1048.79,-112.5"/>
<text text-anchor="middle" x="1112.29" y="-119.5" font-family="Helvetica,sans-Serif" font-size="10.00">devices/queued_device.h</text>
</a>
</g>
<!-- Node13&#45;&gt;Node14 -->
<g id="edge30" class="edge"><title>Node13&#45;&gt;Node14</title>
<path fill="none" stroke="midnightblue" d="M1035.07,-168.324C1049.55,-159.822 1071.86,-146.729 1088.78,-136.797"/>
<polygon fill="midnightblue" stroke="midnightblue" points="1090.69,-139.735 1097.54,-131.655 1087.15,-133.698 1090.69,-139.735"/>
</g>
<!-- Node14&#45;&gt;Node8 -->
<g id="edge36" class="edge"><title>Node14&#45;&gt;Node8</title>
<path fill="none" stroke="midnightblue" d="M1048.72,-119.287C881.301,-114.519 430.014,-99.9403 260.57,-75.8384"/>
<polygon fill="midnightblue" stroke="midnightblue" points="260.949,-72.3563 250.544,-74.3493 259.921,-79.2804 260.949,-72.3563"/>
</g>
<!-- Node15 -->
<g id="node31" class="node"><title>Node15</title>
<polygon fill="white" stroke="#bfbfbf" points="1258.29,-56.5 1258.29,-75.5 1302.29,-75.5 1302.29,-56.5 1258.29,-56.5"/>
<text text-anchor="middle" x="1280.29" y="-63.5" font-family="Helvetica,sans-Serif" font-size="10.00">time.h</text>
</g>
<!-- Node14&#45;&gt;Node15 -->
<g id="edge32" class="edge"><title>Node14&#45;&gt;Node15</title>
<path fill="none" stroke="midnightblue" d="M1138.91,-112.444C1168.63,-102.89 1216.71,-87.436 1248.41,-77.2461"/>
<polygon fill="midnightblue" stroke="midnightblue" points="1249.63,-80.5291 1258.08,-74.1368 1247.49,-73.8649 1249.63,-80.5291"/>
</g>
<!-- Node16 -->
<g id="node33" class="node"><title>Node16</title>
<polygon fill="white" stroke="#bfbfbf" points="1320.29,-56.5 1320.29,-75.5 1370.29,-75.5 1370.29,-56.5 1320.29,-56.5"/>
<text text-anchor="middle" x="1345.29" y="-63.5" font-family="Helvetica,sans-Serif" font-size="10.00">signal.h</text>
</g>
<!-- Node14&#45;&gt;Node16 -->
<g id="edge34" class="edge"><title>Node14&#45;&gt;Node16</title>
<path fill="none" stroke="midnightblue" d="M1151.43,-112.445C1191.43,-103.623 1255.3,-89.3161 1310.29,-76 1310.39,-75.976 1310.48,-75.952 1310.58,-75.9278"/>
<polygon fill="midnightblue" stroke="midnightblue" points="1311.21,-79.3789 1320.07,-73.5741 1309.52,-72.5848 1311.21,-79.3789"/>
</g>
<!-- Node17 -->
<g id="node36" class="node"><title>Node17</title>
<polygon fill="white" stroke="#bfbfbf" points="1192.79,-56.5 1192.79,-75.5 1239.79,-75.5 1239.79,-56.5 1192.79,-56.5"/>
<text text-anchor="middle" x="1216.29" y="-63.5" font-family="Helvetica,sans-Serif" font-size="10.00">errno.h</text>
</g>
<!-- Node14&#45;&gt;Node17 -->
<g id="edge38" class="edge"><title>Node14&#45;&gt;Node17</title>
<path fill="none" stroke="midnightblue" d="M1129,-112.324C1145.6,-103.703 1171.29,-90.3643 1190.51,-80.3855"/>
<polygon fill="midnightblue" stroke="midnightblue" points="1192.36,-83.3689 1199.62,-75.6545 1189.13,-77.1565 1192.36,-83.3689"/>
</g>
<!-- Node18 -->
<g id="node38" class="node"><title>Node18</title>
<polygon fill="white" stroke="#bfbfbf" points="1048.79,-56.5 1048.79,-75.5 1097.79,-75.5 1097.79,-56.5 1048.79,-56.5"/>
<text text-anchor="middle" x="1073.29" y="-63.5" font-family="Helvetica,sans-Serif" font-size="10.00">string.h</text>
</g>
<!-- Node14&#45;&gt;Node18 -->
<g id="edge40" class="edge"><title>Node14&#45;&gt;Node18</title>
<path fill="none" stroke="midnightblue" d="M1105.85,-112.083C1100.34,-104.455 1092.26,-93.2645 1085.52,-83.9408"/>
<polygon fill="midnightblue" stroke="midnightblue" points="1088.3,-81.8087 1079.61,-75.7511 1082.62,-85.9071 1088.3,-81.8087"/>
</g>
<!-- Node19 -->
<g id="node40" class="node"><title>Node19</title>
<polygon fill="white" stroke="#bfbfbf" points="1143.79,-0.5 1143.79,-19.5 1184.79,-19.5 1184.79,-0.5 1143.79,-0.5"/>
<text text-anchor="middle" x="1164.29" y="-7.5" font-family="Helvetica,sans-Serif" font-size="10.00">string</text>
</g>
<!-- Node14&#45;&gt;Node19 -->
<g id="edge42" class="edge"><title>Node14&#45;&gt;Node19</title>
<path fill="none" stroke="midnightblue" d="M1116.37,-112.368C1124.83,-94.4563 1144.47,-52.9233 1155.8,-28.9482"/>
<polygon fill="midnightblue" stroke="midnightblue" points="1159.12,-30.128 1160.23,-19.5914 1152.79,-27.1363 1159.12,-30.128"/>
</g>
<!-- Node20 -->
<g id="node42" class="node"><title>Node20</title>
<polygon fill="white" stroke="#bfbfbf" points="1053.79,-0.5 1053.79,-19.5 1096.79,-19.5 1096.79,-0.5 1053.79,-0.5"/>
<text text-anchor="middle" x="1075.29" y="-7.5" font-family="Helvetica,sans-Serif" font-size="10.00">queue</text>
</g>
<!-- Node14&#45;&gt;Node20 -->
<g id="edge44" class="edge"><title>Node14&#45;&gt;Node20</title>
<path fill="none" stroke="midnightblue" d="M1112.85,-112.286C1113.38,-99.5223 1113.24,-75.1786 1106.29,-56 1102.54,-45.6508 1095.82,-35.4386 1089.59,-27.3653"/>
<polygon fill="midnightblue" stroke="midnightblue" points="1092.23,-25.0653 1083.19,-19.5391 1086.81,-29.4962 1092.23,-25.0653"/>
</g>
<!-- Node21 -->
<g id="node44" class="node"><title>Node21</title>
<polygon fill="white" stroke="#bfbfbf" points="934.786,-56.5 934.786,-75.5 991.786,-75.5 991.786,-56.5 934.786,-56.5"/>
<text text-anchor="middle" x="963.286" y="-63.5" font-family="Helvetica,sans-Serif" font-size="10.00">pthread.h</text>
</g>
<!-- Node14&#45;&gt;Node21 -->
<g id="edge46" class="edge"><title>Node14&#45;&gt;Node21</title>
<path fill="none" stroke="midnightblue" d="M1088.68,-112.444C1063.83,-103.438 1024.51,-89.1891 996.533,-79.049"/>
<polygon fill="midnightblue" stroke="midnightblue" points="997.38,-75.6332 986.786,-75.5164 994.995,-82.2144 997.38,-75.6332"/>
</g>
<!-- Node22 -->
<g id="node46" class="node"><title>Node22</title>
<a xlink:href="../../da/d42/process_8h.xhtml" target="_top" xlink:title="process.h">
<polygon fill="white" stroke="black" points="780.786,-56.5 780.786,-75.5 839.786,-75.5 839.786,-56.5 780.786,-56.5"/>
<text text-anchor="middle" x="810.286" y="-63.5" font-family="Helvetica,sans-Serif" font-size="10.00">process.h</text>
</a>
</g>
<!-- Node14&#45;&gt;Node22 -->
<g id="edge48" class="edge"><title>Node14&#45;&gt;Node22</title>
<path fill="none" stroke="midnightblue" d="M1056.96,-112.479C1005.81,-104.387 927.456,-91.4534 849.991,-76.0459"/>
<polygon fill="midnightblue" stroke="midnightblue" points="850.552,-72.5887 840.059,-74.0556 849.176,-79.4523 850.552,-72.5887"/>
</g>
<!-- Node22&#45;&gt;Node9 -->
<g id="edge50" class="edge"><title>Node22&#45;&gt;Node9</title>
<path fill="none" stroke="midnightblue" d="M780.542,-57.7947C777.426,-57.1421 774.298,-56.5291 771.286,-56 652.108,-35.0617 509.62,-20.702 441.465,-14.4821"/>
<polygon fill="midnightblue" stroke="midnightblue" points="441.454,-10.9669 431.18,-13.5539 440.824,-17.9386 441.454,-10.9669"/>
</g>
<!-- Node23&#45;&gt;Node6 -->
<g id="edge54" class="edge"><title>Node23&#45;&gt;Node6</title>
<path fill="none" stroke="midnightblue" d="M1289.67,-168.417C1290.7,-154.941 1294.47,-128.643 1308.29,-112 1333.96,-81.0797 1406.14,-85.9024 1379.29,-56 1329.41,-0.456525 1119.33,-29.539 1045.29,-20 1036.03,-18.807 1025.99,-17.3611 1016.81,-15.9805"/>
<polygon fill="midnightblue" stroke="midnightblue" points="1017.33,-12.5191 1006.92,-14.4665 1016.27,-19.4386 1017.33,-12.5191"/>
</g>
<!-- Node23&#45;&gt;Node14 -->
<g id="edge56" class="edge"><title>Node23&#45;&gt;Node14</title>
<path fill="none" stroke="midnightblue" d="M1261.24,-168.444C1231.2,-159.28 1183.37,-144.688 1150.04,-134.519"/>
<polygon fill="midnightblue" stroke="midnightblue" points="1150.79,-131.087 1140.2,-131.516 1148.74,-137.782 1150.79,-131.087"/>
</g>
<!-- Node24&#45;&gt;Node17 -->
<g id="edge60" class="edge"><title>Node24&#45;&gt;Node17</title>
<path fill="none" stroke="midnightblue" d="M1397.76,-168.358C1373.31,-160.431 1337.5,-147.573 1308.29,-132 1281,-117.454 1252.32,-96.0787 1234.38,-81.86"/>
<polygon fill="midnightblue" stroke="midnightblue" points="1236.48,-79.0541 1226.49,-75.5161 1232.09,-84.5096 1236.48,-79.0541"/>
</g>
<!-- Node24&#45;&gt;Node19 -->
<g id="edge64" class="edge"><title>Node24&#45;&gt;Node19</title>
<path fill="none" stroke="midnightblue" d="M1461.82,-168.414C1495.37,-158.437 1538.21,-139.717 1521.29,-112 1486.6,-55.1766 1275.15,-24.2656 1195.03,-14.4703"/>
<polygon fill="midnightblue" stroke="midnightblue" points="1195.4,-10.9902 1185.06,-13.2782 1194.57,-17.9407 1195.4,-10.9902"/>
</g>
<!-- Node25 -->
<g id="node56" class="node"><title>Node25</title>
<polygon fill="white" stroke="#bfbfbf" points="1317.29,-112.5 1317.29,-131.5 1363.29,-131.5 1363.29,-112.5 1317.29,-112.5"/>
<text text-anchor="middle" x="1340.29" y="-119.5" font-family="Helvetica,sans-Serif" font-size="10.00">cstring</text>
</g>
<!-- Node24&#45;&gt;Node25 -->
<g id="edge62" class="edge"><title>Node24&#45;&gt;Node25</title>
<path fill="none" stroke="midnightblue" d="M1412.47,-168.324C1399.05,-159.9 1378.46,-146.971 1362.7,-137.074"/>
<polygon fill="midnightblue" stroke="midnightblue" points="1364.4,-134.008 1354.07,-131.655 1360.68,-139.936 1364.4,-134.008"/>
</g>
<!-- Node26 -->
<g id="node59" class="node"><title>Node26</title>
<a xlink:href="../../d0/d8f/abstract__device_8h_source.xhtml" target="_top" xlink:title="devices/abstract_device.h">
<polygon fill="white" stroke="black" points="1381.79,-112.5 1381.79,-131.5 1512.79,-131.5 1512.79,-112.5 1381.79,-112.5"/>
<text text-anchor="middle" x="1447.29" y="-119.5" font-family="Helvetica,sans-Serif" font-size="10.00">devices/abstract_device.h</text>
</a>
</g>
<!-- Node24&#45;&gt;Node26 -->
<g id="edge66" class="edge"><title>Node24&#45;&gt;Node26</title>
<path fill="none" stroke="midnightblue" d="M1429.75,-168.083C1432.6,-160.77 1436.72,-150.181 1440.25,-141.103"/>
<polygon fill="midnightblue" stroke="midnightblue" points="1443.52,-142.34 1443.88,-131.751 1437,-139.803 1443.52,-142.34"/>
</g>
<!-- Node26&#45;&gt;Node15 -->
<g id="edge68" class="edge"><title>Node26&#45;&gt;Node15</title>
<path fill="none" stroke="midnightblue" d="M1420.82,-112.444C1391.28,-102.89 1343.49,-87.436 1311.97,-77.2461"/>
<polygon fill="midnightblue" stroke="midnightblue" points="1312.95,-73.8833 1302.36,-74.1368 1310.8,-80.5438 1312.95,-73.8833"/>
</g>
<!-- Node26&#45;&gt;Node16 -->
<g id="edge70" class="edge"><title>Node26&#45;&gt;Node16</title>
<path fill="none" stroke="midnightblue" d="M1430.9,-112.324C1414.62,-103.703 1389.42,-90.3643 1370.57,-80.3855"/>
<polygon fill="midnightblue" stroke="midnightblue" points="1372.11,-77.2402 1361.63,-75.6545 1368.83,-83.4267 1372.11,-77.2402"/>
</g>
<!-- Node28 -->
<g id="node65" class="node"><title>Node28</title>
<a xlink:href="../../db/d41/fcfs_8h.xhtml" target="_top" xlink:title="scheduler/fcfs.h">
<polygon fill="white" stroke="black" points="465.286,-224.5 465.286,-243.5 551.286,-243.5 551.286,-224.5 465.286,-224.5"/>
<text text-anchor="middle" x="508.286" y="-231.5" font-family="Helvetica,sans-Serif" font-size="10.00">scheduler/fcfs.h</text>
</a>
</g>
<!-- Node27&#45;&gt;Node28 -->
<g id="edge74" class="edge"><title>Node27&#45;&gt;Node28</title>
<path fill="none" stroke="midnightblue" d="M610.114,-280.444C590.377,-271.636 559.401,-257.812 536.793,-247.722"/>
<polygon fill="midnightblue" stroke="midnightblue" points="537.928,-244.396 527.37,-243.516 535.075,-250.788 537.928,-244.396"/>
</g>
<!-- Node40 -->
<g id="node103" class="node"><title>Node40</title>
<a xlink:href="../../db/dc3/lottery_8h.xhtml" target="_top" xlink:title="scheduler/lottery.h">
<polygon fill="white" stroke="black" points="840.786,-224.5 840.786,-243.5 937.786,-243.5 937.786,-224.5 840.786,-224.5"/>
<text text-anchor="middle" x="889.286" y="-231.5" font-family="Helvetica,sans-Serif" font-size="10.00">scheduler/lottery.h</text>
</a>
</g>
<!-- Node27&#45;&gt;Node40 -->
<g id="edge126" class="edge"><title>Node27&#45;&gt;Node40</title>
<path fill="none" stroke="midnightblue" d="M670.484,-280.444C715.936,-271.004 789.129,-255.802 838.196,-245.611"/>
<polygon fill="midnightblue" stroke="midnightblue" points="839.202,-248.977 848.281,-243.516 837.779,-242.123 839.202,-248.977"/>
</g>
<!-- Node41 -->
<g id="node110" class="node"><title>Node41</title>
<a xlink:href="../../d9/dd2/round__robin_8h.xhtml" target="_top" xlink:title="scheduler/round_robin.h">
<polygon fill="white" stroke="black" points="569.286,-224.5 569.286,-243.5 689.286,-243.5 689.286,-224.5 569.286,-224.5"/>
<text text-anchor="middle" x="629.286" y="-231.5" font-family="Helvetica,sans-Serif" font-size="10.00">scheduler/round_robin.h</text>
</a>
</g>
<!-- Node27&#45;&gt;Node41 -->
<g id="edge138" class="edge"><title>Node27&#45;&gt;Node41</title>
<path fill="none" stroke="midnightblue" d="M629.286,-280.083C629.286,-273.006 629.286,-262.861 629.286,-253.986"/>
<polygon fill="midnightblue" stroke="midnightblue" points="632.787,-253.751 629.286,-243.751 625.787,-253.751 632.787,-253.751"/>
</g>
<!-- Node42 -->
<g id="node114" class="node"><title>Node42</title>
<a xlink:href="../../de/da3/multi__level_8h_source.xhtml" target="_top" xlink:title="scheduler/multi_level.h">
<polygon fill="white" stroke="black" points="707.286,-224.5 707.286,-243.5 823.286,-243.5 823.286,-224.5 707.286,-224.5"/>
<text text-anchor="middle" x="765.286" y="-231.5" font-family="Helvetica,sans-Serif" font-size="10.00">scheduler/multi_level.h</text>
</a>
</g>
<!-- Node27&#45;&gt;Node42 -->
<g id="edge144" class="edge"><title>Node27&#45;&gt;Node42</title>
<path fill="none" stroke="midnightblue" d="M650.836,-280.444C673.318,-271.517 708.774,-257.439 734.266,-247.317"/>
<polygon fill="midnightblue" stroke="midnightblue" points="735.835,-250.46 743.838,-243.516 733.252,-243.954 735.835,-250.46"/>
</g>
<!-- Node28&#45;&gt;Node8 -->
<g id="edge76" class="edge"><title>Node28&#45;&gt;Node8</title>
<path fill="none" stroke="midnightblue" d="M493.417,-224.309C447.025,-197.192 304.662,-113.98 247.955,-80.8345"/>
<polygon fill="midnightblue" stroke="midnightblue" points="249.408,-77.6298 239.009,-75.6051 245.876,-83.6731 249.408,-77.6298"/>
</g>
<!-- Node29 -->
<g id="node68" class="node"><title>Node29</title>
<a xlink:href="../../d2/dd8/scheduler_8h_source.xhtml" target="_top" xlink:title="scheduler/scheduler.h">
<polygon fill="white" stroke="black" points="573.286,-168.5 573.286,-187.5 685.286,-187.5 685.286,-168.5 573.286,-168.5"/>
<text text-anchor="middle" x="629.286" y="-175.5" font-family="Helvetica,sans-Serif" font-size="10.00">scheduler/scheduler.h</text>
</a>
</g>
<!-- Node28&#45;&gt;Node29 -->
<g id="edge78" class="edge"><title>Node28&#45;&gt;Node29</title>
<path fill="none" stroke="midnightblue" d="M527.459,-224.444C547.196,-215.636 578.172,-201.812 600.78,-191.722"/>
<polygon fill="midnightblue" stroke="midnightblue" points="602.498,-194.788 610.203,-187.516 599.645,-188.396 602.498,-194.788"/>
</g>
<!-- Node29&#45;&gt;Node7 -->
<g id="edge80" class="edge"><title>Node29&#45;&gt;Node7</title>
<path fill="none" stroke="midnightblue" d="M612.256,-168.324C595.257,-159.664 568.91,-146.242 549.294,-136.249"/>
<polygon fill="midnightblue" stroke="midnightblue" points="550.774,-133.075 540.275,-131.655 547.597,-139.312 550.774,-133.075"/>
</g>
<!-- Node29&#45;&gt;Node10 -->
<g id="edge86" class="edge"><title>Node29&#45;&gt;Node10</title>
<path fill="none" stroke="midnightblue" d="M572.821,-170.54C479.377,-159.849 294.161,-138.659 206.054,-128.579"/>
<polygon fill="midnightblue" stroke="midnightblue" points="206.39,-125.095 196.057,-127.436 205.594,-132.05 206.39,-125.095"/>
</g>
<!-- Node29&#45;&gt;Node21 -->
<g id="edge82" class="edge"><title>Node29&#45;&gt;Node21</title>
<path fill="none" stroke="midnightblue" d="M672.134,-168.457C709.373,-160.548 764.529,-147.663 811.286,-132 856.275,-116.929 906.544,-94.2177 936.514,-80.0179"/>
<polygon fill="midnightblue" stroke="midnightblue" points="938.348,-83.0207 945.862,-75.552 935.33,-76.7045 938.348,-83.0207"/>
</g>
<!-- Node29&#45;&gt;Node22 -->
<g id="edge84" class="edge"><title>Node29&#45;&gt;Node22</title>
<path fill="none" stroke="midnightblue" d="M669.27,-168.464C695.38,-161.564 729.317,-149.988 755.286,-132 773.628,-119.295 789.461,-98.9762 799.367,-84.438"/>
<polygon fill="midnightblue" stroke="midnightblue" points="802.436,-86.1403 804.988,-75.8574 796.581,-82.3046 802.436,-86.1403"/>
</g>
<!-- Node30 -->
<g id="node74" class="node"><title>Node30</title>
<a xlink:href="../../dd/d00/process__logger_8h.xhtml" target="_top" xlink:title="utility/process_logger.h">
<polygon fill="white" stroke="black" points="629.786,-112.5 629.786,-131.5 746.786,-131.5 746.786,-112.5 629.786,-112.5"/>
<text text-anchor="middle" x="688.286" y="-119.5" font-family="Helvetica,sans-Serif" font-size="10.00">utility/process_logger.h</text>
</a>
</g>
<!-- Node29&#45;&gt;Node30 -->
<g id="edge88" class="edge"><title>Node29&#45;&gt;Node30</title>
<path fill="none" stroke="midnightblue" d="M638.766,-168.324C647.488,-160.341 660.63,-148.313 671.184,-138.653"/>
<polygon fill="midnightblue" stroke="midnightblue" points="673.621,-141.167 678.635,-131.834 668.895,-136.004 673.621,-141.167"/>
</g>
<!-- Node38 -->
<g id="node95" class="node"><title>Node38</title>
<a xlink:href="../../df/db9/id_8h.xhtml" target="_top" xlink:title="utility/id.h">
<polygon fill="white" stroke="black" points="857.786,-56.5 857.786,-75.5 916.786,-75.5 916.786,-56.5 857.786,-56.5"/>
<text text-anchor="middle" x="887.286" y="-63.5" font-family="Helvetica,sans-Serif" font-size="10.00">utility/id.h</text>
</a>
</g>
<!-- Node29&#45;&gt;Node38 -->
<g id="edge124" class="edge"><title>Node29&#45;&gt;Node38</title>
<path fill="none" stroke="midnightblue" d="M667.204,-168.425C698.105,-160.779 742.49,-148.283 779.286,-132 811.362,-117.806 845.609,-95.9056 866.734,-81.5129"/>
<polygon fill="midnightblue" stroke="midnightblue" points="868.961,-84.2283 875.201,-75.6659 864.984,-78.4683 868.961,-84.2283"/>
</g>
<!-- Node30&#45;&gt;Node8 -->
<g id="edge98" class="edge"><title>Node30&#45;&gt;Node8</title>
<path fill="none" stroke="midnightblue" d="M629.729,-113.666C624.845,-113.089 619.982,-112.527 615.286,-112 460.49,-94.6331 417.599,-103.499 260.581,-75.9876"/>
<polygon fill="midnightblue" stroke="midnightblue" points="261.024,-72.5116 250.566,-74.2112 259.801,-79.404 261.024,-72.5116"/>
</g>
<!-- Node30&#45;&gt;Node17 -->
<g id="edge100" class="edge"><title>Node30&#45;&gt;Node17</title>
<path fill="none" stroke="midnightblue" d="M746.809,-115.015C857.625,-103.681 1094.85,-79.4199 1182.68,-70.4373"/>
<polygon fill="midnightblue" stroke="midnightblue" points="1183.04,-73.9189 1192.63,-69.4195 1182.32,-66.9552 1183.04,-73.9189"/>
</g>
<!-- Node30&#45;&gt;Node18 -->
<g id="edge102" class="edge"><title>Node30&#45;&gt;Node18</title>
<path fill="none" stroke="midnightblue" d="M747.179,-112.74C828.39,-101.349 972.204,-81.1778 1038.29,-71.9082"/>
<polygon fill="midnightblue" stroke="midnightblue" points="1039.17,-75.32 1048.58,-70.4648 1038.19,-68.3879 1039.17,-75.32"/>
</g>
<!-- Node30&#45;&gt;Node21 -->
<g id="edge104" class="edge"><title>Node30&#45;&gt;Node21</title>
<path fill="none" stroke="midnightblue" d="M736.529,-112.496C782.353,-104.27 853.419,-91.1345 924.636,-76.0594"/>
<polygon fill="midnightblue" stroke="midnightblue" points="925.632,-79.4259 934.684,-73.9196 924.174,-72.5794 925.632,-79.4259"/>
</g>
<!-- Node30&#45;&gt;Node22 -->
<g id="edge112" class="edge"><title>Node30&#45;&gt;Node22</title>
<path fill="none" stroke="midnightblue" d="M707.618,-112.444C727.606,-103.596 759.03,-89.6875 781.85,-79.5865"/>
<polygon fill="midnightblue" stroke="midnightblue" points="783.318,-82.7645 791.046,-75.5164 780.485,-76.3635 783.318,-82.7645"/>
</g>
<!-- Node31 -->
<g id="node76" class="node"><title>Node31</title>
<polygon fill="white" stroke="#bfbfbf" points="268.286,-56.5 268.286,-75.5 314.286,-75.5 314.286,-56.5 268.286,-56.5"/>
<text text-anchor="middle" x="291.286" y="-63.5" font-family="Helvetica,sans-Serif" font-size="10.00">stdio.h</text>
</g>
<!-- Node30&#45;&gt;Node31 -->
<g id="edge90" class="edge"><title>Node30&#45;&gt;Node31</title>
<path fill="none" stroke="midnightblue" d="M629.643,-113.77C538.154,-102.491 368.036,-81.5171 324.616,-75.5151"/>
<polygon fill="midnightblue" stroke="midnightblue" points="325.017,-72.0361 314.606,-73.9992 323.969,-78.9572 325.017,-72.0361"/>
</g>
<!-- Node32 -->
<g id="node78" class="node"><title>Node32</title>
<polygon fill="white" stroke="#bfbfbf" points="332.286,-56.5 332.286,-75.5 380.286,-75.5 380.286,-56.5 332.286,-56.5"/>
<text text-anchor="middle" x="356.286" y="-63.5" font-family="Helvetica,sans-Serif" font-size="10.00">stdlib.h</text>
</g>
<!-- Node30&#45;&gt;Node32 -->
<g id="edge92" class="edge"><title>Node30&#45;&gt;Node32</title>
<path fill="none" stroke="midnightblue" d="M629.662,-113.007C560.358,-103.422 448.113,-87.4374 390.464,-75.9952"/>
<polygon fill="midnightblue" stroke="midnightblue" points="390.858,-72.503 380.358,-73.9141 389.446,-79.3591 390.858,-72.503"/>
</g>
<!-- Node33 -->
<g id="node80" class="node"><title>Node33</title>
<polygon fill="white" stroke="#bfbfbf" points="398.786,-56.5 398.786,-75.5 449.786,-75.5 449.786,-56.5 398.786,-56.5"/>
<text text-anchor="middle" x="424.286" y="-63.5" font-family="Helvetica,sans-Serif" font-size="10.00">unistd.h</text>
</g>
<!-- Node30&#45;&gt;Node33 -->
<g id="edge94" class="edge"><title>Node30&#45;&gt;Node33</title>
<path fill="none" stroke="midnightblue" d="M640.752,-112.486C596.495,-104.373 528.469,-91.4337 459.967,-76.0452"/>
<polygon fill="midnightblue" stroke="midnightblue" points="460.385,-72.5514 449.859,-73.7573 458.84,-79.3787 460.385,-72.5514"/>
</g>
<!-- Node34 -->
<g id="node82" class="node"><title>Node34</title>
<polygon fill="white" stroke="#bfbfbf" points="468.286,-56.5 468.286,-75.5 512.286,-75.5 512.286,-56.5 468.286,-56.5"/>
<text text-anchor="middle" x="490.286" y="-63.5" font-family="Helvetica,sans-Serif" font-size="10.00">fcntl.h</text>
</g>
<!-- Node30&#45;&gt;Node34 -->
<g id="edge96" class="edge"><title>Node30&#45;&gt;Node34</title>
<path fill="none" stroke="midnightblue" d="M655.909,-112.474C624.201,-104.081 574.272,-90.7483 522.059,-76.1782"/>
<polygon fill="midnightblue" stroke="midnightblue" points="522.86,-72.768 512.287,-73.4442 520.974,-79.5092 522.86,-72.768"/>
</g>
<!-- Node35 -->
<g id="node88" class="node"><title>Node35</title>
<polygon fill="white" stroke="#bfbfbf" points="530.286,-56.5 530.286,-75.5 598.286,-75.5 598.286,-56.5 530.286,-56.5"/>
<text text-anchor="middle" x="564.286" y="-63.5" font-family="Helvetica,sans-Serif" font-size="10.00">sys/types.h</text>
</g>
<!-- Node30&#45;&gt;Node35 -->
<g id="edge106" class="edge"><title>Node30&#45;&gt;Node35</title>
<path fill="none" stroke="midnightblue" d="M668.638,-112.444C648.322,-103.596 616.384,-89.6875 593.189,-79.5865"/>
<polygon fill="midnightblue" stroke="midnightblue" points="594.409,-76.3002 583.843,-75.5164 591.614,-82.7181 594.409,-76.3002"/>
</g>
<!-- Node36 -->
<g id="node90" class="node"><title>Node36</title>
<polygon fill="white" stroke="#bfbfbf" points="616.786,-56.5 616.786,-75.5 689.786,-75.5 689.786,-56.5 616.786,-56.5"/>
<text text-anchor="middle" x="653.286" y="-63.5" font-family="Helvetica,sans-Serif" font-size="10.00">sys/socket.h</text>
</g>
<!-- Node30&#45;&gt;Node36 -->
<g id="edge108" class="edge"><title>Node30&#45;&gt;Node36</title>
<path fill="none" stroke="midnightblue" d="M682.507,-112.083C677.614,-104.534 670.459,-93.4948 664.454,-84.2298"/>
<polygon fill="midnightblue" stroke="midnightblue" points="667.335,-82.239 658.958,-75.7511 661.46,-86.0463 667.335,-82.239"/>
</g>
<!-- Node37 -->
<g id="node92" class="node"><title>Node37</title>
<polygon fill="white" stroke="#bfbfbf" points="708.286,-56.5 708.286,-75.5 762.286,-75.5 762.286,-56.5 708.286,-56.5"/>
<text text-anchor="middle" x="735.286" y="-63.5" font-family="Helvetica,sans-Serif" font-size="10.00">sys/un.h</text>
</g>
<!-- Node30&#45;&gt;Node37 -->
<g id="edge110" class="edge"><title>Node30&#45;&gt;Node37</title>
<path fill="none" stroke="midnightblue" d="M696.048,-112.083C702.823,-104.298 712.83,-92.8015 721.042,-83.3665"/>
<polygon fill="midnightblue" stroke="midnightblue" points="723.745,-85.592 727.67,-75.7511 718.464,-80.9963 723.745,-85.592"/>
</g>
<!-- Node30&#45;&gt;Node38 -->
<g id="edge114" class="edge"><title>Node30&#45;&gt;Node38</title>
<path fill="none" stroke="midnightblue" d="M719.819,-112.444C754.38,-103.065 809.897,-88.0001 847.445,-77.8112"/>
<polygon fill="midnightblue" stroke="midnightblue" points="848.793,-81.0722 857.527,-75.0755 846.959,-74.3165 848.793,-81.0722"/>
</g>
<!-- Node38&#45;&gt;Node6 -->
<g id="edge116" class="edge"><title>Node38&#45;&gt;Node6</title>
<path fill="none" stroke="midnightblue" d="M903.032,-56.324C918.605,-47.7428 942.664,-34.486 960.746,-24.5224"/>
<polygon fill="midnightblue" stroke="midnightblue" points="962.511,-27.546 969.58,-19.6545 959.133,-21.4152 962.511,-27.546"/>
</g>
<!-- Node38&#45;&gt;Node19 -->
<g id="edge120" class="edge"><title>Node38&#45;&gt;Node19</title>
<path fill="none" stroke="midnightblue" d="M917.07,-57.998C920.178,-57.3058 923.294,-56.6279 926.286,-56 1000.39,-40.45 1088,-24.5117 1133.45,-16.4246"/>
<polygon fill="midnightblue" stroke="midnightblue" points="1134.3,-19.8278 1143.54,-14.6353 1133.08,-12.9353 1134.3,-19.8278"/>
</g>
<!-- Node38&#45;&gt;Node20 -->
<g id="edge122" class="edge"><title>Node38&#45;&gt;Node20</title>
<path fill="none" stroke="midnightblue" d="M917.076,-56.4435C951.66,-46.5098 1008.46,-30.1958 1043.76,-20.0544"/>
<polygon fill="midnightblue" stroke="midnightblue" points="1044.9,-23.3685 1053.55,-17.2437 1042.97,-16.6405 1044.9,-23.3685"/>
</g>
<!-- Node39 -->
<g id="node98" class="node"><title>Node39</title>
<polygon fill="white" stroke="#bfbfbf" points="864.786,-0.5 864.786,-19.5 909.786,-19.5 909.786,-0.5 864.786,-0.5"/>
<text text-anchor="middle" x="887.286" y="-7.5" font-family="Helvetica,sans-Serif" font-size="10.00">climits</text>
</g>
<!-- Node38&#45;&gt;Node39 -->
<g id="edge118" class="edge"><title>Node38&#45;&gt;Node39</title>
<path fill="none" stroke="midnightblue" d="M887.286,-56.083C887.286,-49.0059 887.286,-38.8611 887.286,-29.9865"/>
<polygon fill="midnightblue" stroke="midnightblue" points="890.787,-29.751 887.286,-19.7511 883.787,-29.7511 890.787,-29.751"/>
</g>
<!-- Node40&#45;&gt;Node8 -->
<g id="edge128" class="edge"><title>Node40&#45;&gt;Node8</title>
<path fill="none" stroke="midnightblue" d="M867.301,-224.322C803.292,-199.175 617.596,-127.092 554.286,-112 428.94,-82.1185 390.926,-99.5947 260.542,-76.0018"/>
<polygon fill="midnightblue" stroke="midnightblue" points="261.048,-72.536 250.577,-74.152 259.771,-79.4184 261.048,-72.536"/>
</g>
<!-- Node40&#45;&gt;Node15 -->
<g id="edge132" class="edge"><title>Node40&#45;&gt;Node15</title>
<path fill="none" stroke="midnightblue" d="M937.832,-226.01C978.446,-219.203 1037.42,-207.057 1086.29,-188 1133.02,-169.773 1141.71,-158.526 1184.29,-132 1210.98,-115.37 1240.85,-94.825 1260.08,-81.3399"/>
<polygon fill="midnightblue" stroke="midnightblue" points="1262.2,-84.1283 1268.36,-75.5077 1258.17,-78.4057 1262.2,-84.1283"/>
</g>
<!-- Node40&#45;&gt;Node21 -->
<g id="edge130" class="edge"><title>Node40&#45;&gt;Node21</title>
<path fill="none" stroke="midnightblue" d="M893.265,-224.075C904.964,-197.832 939.417,-120.545 955.21,-85.1165"/>
<polygon fill="midnightblue" stroke="midnightblue" points="958.592,-86.1268 959.467,-75.5681 952.199,-83.2766 958.592,-86.1268"/>
</g>
<!-- Node40&#45;&gt;Node29 -->
<g id="edge134" class="edge"><title>Node40&#45;&gt;Node29</title>
<path fill="none" stroke="midnightblue" d="M848.089,-224.444C802.637,-215.004 729.444,-199.802 680.377,-189.611"/>
<polygon fill="midnightblue" stroke="midnightblue" points="680.794,-186.123 670.292,-187.516 679.371,-192.977 680.794,-186.123"/>
</g>
<!-- Node40&#45;&gt;Node38 -->
<g id="edge136" class="edge"><title>Node40&#45;&gt;Node38</title>
<path fill="none" stroke="midnightblue" d="M889.179,-224.075C888.864,-197.945 887.94,-121.211 887.51,-85.577"/>
<polygon fill="midnightblue" stroke="midnightblue" points="891.01,-85.5252 887.39,-75.5681 884.011,-85.6096 891.01,-85.5252"/>
</g>
<!-- Node41&#45;&gt;Node8 -->
<g id="edge140" class="edge"><title>Node41&#45;&gt;Node8</title>
<path fill="none" stroke="midnightblue" d="M608.365,-224.425C541.571,-197.047 333.23,-111.654 254.672,-79.4545"/>
<polygon fill="midnightblue" stroke="midnightblue" points="255.906,-76.1777 245.326,-75.6237 253.252,-82.6548 255.906,-76.1777"/>
</g>
<!-- Node41&#45;&gt;Node29 -->
<g id="edge142" class="edge"><title>Node41&#45;&gt;Node29</title>
<path fill="none" stroke="midnightblue" d="M629.286,-224.083C629.286,-217.006 629.286,-206.861 629.286,-197.986"/>
<polygon fill="midnightblue" stroke="midnightblue" points="632.787,-197.751 629.286,-187.751 625.787,-197.751 632.787,-197.751"/>
</g>
<!-- Node42&#45;&gt;Node29 -->
<g id="edge146" class="edge"><title>Node42&#45;&gt;Node29</title>
<path fill="none" stroke="midnightblue" d="M743.737,-224.444C721.255,-215.517 685.799,-201.439 660.307,-191.317"/>
<polygon fill="midnightblue" stroke="midnightblue" points="661.321,-187.954 650.735,-187.516 658.738,-194.46 661.321,-187.954"/>
</g>
</g>
</svg>
        <g id="navigator" transform="translate(0 0)" fill="#404254">
                <rect fill="#f2f5e9" fill-opacity="0.5" stroke="#606060" stroke-width=".5" x="0" y="0" width="60" height="60"/>
                <use id="zoomplus" xlink:href="#zoomPlus" x="17" y="9" onmousedown="handleZoom(evt,'in')"/>
                <use id="zoomminus" xlink:href="#zoomMin" x="42" y="9" onmousedown="handleZoom(evt,'out')"/>
                <use id="reset" xlink:href="#resetDef" x="30" y="36" onmousedown="handleReset()"/>
                <g id="arrowUp" xlink:href="#dirArrow" transform="translate(30 24)" onmousedown="handlePan(0,-1)">
                  <use xlink:href="#rim" fill="#404040">
                        <set attributeName="fill" to="#808080" begin="arrowUp.mouseover" end="arrowUp.mouseout"/>
                  </use>
                  <path fill="none" stroke="white" stroke-width="1.5" d="M0,-3.0v7 M-2.5,-0.5L0,-3.0L2.5,-0.5"/>
                </g>
                <g id="arrowRight" xlink:href="#dirArrow" transform="rotate(90) translate(36 -43)" onmousedown="handlePan(1,0)">
                  <use xlink:href="#rim" fill="#404040">
                        <set attributeName="fill" to="#808080" begin="arrowRight.mouseover" end="arrowRight.mouseout"/>
                  </use>
                  <path fill="none" stroke="white" stroke-width="1.5" d="M0,-3.0v7 M-2.5,-0.5L0,-3.0L2.5,-0.5"/>
                </g>
                <g id="arrowDown" xlink:href="#dirArrow" transform="rotate(180) translate(-30 -48)" onmousedown="handlePan(0,1)">
                  <use xlink:href="#rim" fill="#404040">
                        <set attributeName="fill" to="#808080" begin="arrowDown.mouseover" end="arrowDown.mouseout"/>
                  </use>
                  <path fill="none" stroke="white" stroke-width="1.5" d="M0,-3.0v7 M-2.5,-0.5L0,-3.0L2.5,-0.5"/>
                </g>
                <g id="arrowLeft" xlink:href="#dirArrow" transform="rotate(270) translate(-36 17)" onmousedown="handlePan(-1,0)">
                  <use xlink:href="#rim" fill="#404040">
                        <set attributeName="fill" to="#808080" begin="arrowLeft.mouseover" end="arrowLeft.mouseout"/>
                  </use>
                  <path fill="none" stroke="white" stroke-width="1.5" d="M0,-3.0v7 M-2.5,-0.5L0,-3.0L2.5,-0.5"/>
                </g>
        </g>
</svg>
