<?xml version="1.0" encoding="UTF-8" standalone="no"?>
<!DOCTYPE svg PUBLIC "-//W3C//DTD SVG 1.1//EN"
 "http://www.w3.org/Graphics/SVG/1.1/DTD/svg11.dtd">
<!-- Generated by graphviz version 2.28.0 (20111025.1818)
 -->
<!-- Title: G Pages: 1 -->
<!--zoomable 252 -->
<svg id="main" version="1.1" xmlns="http://www.w3.org/2000/svg" xmlns:xlink="http://www.w3.org/1999/xlink" xml:space="preserve" onload="init(evt)">
        <defs>
                <circle id="rim" cx="0" cy="0" r="7"/>
                <circle id="rim2" cx="0" cy="0" r="3.5"/>
                <g id="zoomPlus">
                        <use xlink:href="#rim" fill="#404040">
                                <set attributeName="fill" to="#808080" begin="zoomplus.mouseover" end="zoomplus.mouseout"/>
                        </use>
                        <path d="M-4,0h8M0,-4v8" fill="none" stroke="white" stroke-width="1.5" pointer-events="none"/>
                </g>
                <g id="zoomMin">
                        <use xlink:href="#rim" fill="#404040">
                                <set attributeName="fill" to="#808080" begin="zoomminus.mouseover" end="zoomminus.mouseout"/>
                        </use>
                        <path d="M-4,0h8" fill="none" stroke="white" stroke-width="1.5" pointer-events="none"/>
                </g>
                <g id="dirArrow">
                        <path fill="none" stroke="white" stroke-width="1.5" d="M0,-3.0v7 M-2.5,-0.5L0,-3.0L2.5,-0.5"/>
                </g>
               <g id="resetDef">
                       <use xlink:href="#rim2" fill="#404040">
                               <set attributeName="fill" to="#808080" begin="reset.mouseover" end="reset.mouseout"/>
                       </use>
               </g>
        </defs>

<script type="text/javascript">
var viewWidth = 1307;
var viewHeight = 252;
var sectionId = 'dynsection-0';
</script>
<script xlink:href="../../svgpan.js"/>
<svg id="graph" class="graph">
<g id="viewport">
<title>G</title>
<polygon fill="white" stroke="white" points="-4,5 -4,-248 1304,-248 1304,5 -4,5"/>
<!-- Node1 -->
<g id="node1" class="node"><title>Node1</title>
<polygon fill="#bfbfbf" stroke="black" points="437.5,-224.5 437.5,-243.5 522.5,-243.5 522.5,-224.5 437.5,-224.5"/>
<text text-anchor="middle" x="480" y="-231.5" font-family="Helvetica,sans-Serif" font-size="10.00">include/kernel.h</text>
</g>
<!-- Node2 -->
<g id="node3" class="node"><title>Node2</title>
<polygon fill="white" stroke="#bfbfbf" points="0,-168.5 0,-187.5 44,-187.5 44,-168.5 0,-168.5"/>
<text text-anchor="middle" x="22" y="-175.5" font-family="Helvetica,sans-Serif" font-size="10.00">vector</text>
</g>
<!-- Node1&#45;&gt;Node2 -->
<g id="edge2" class="edge"><title>Node1&#45;&gt;Node2</title>
<path fill="none" stroke="midnightblue" d="M437.202,-231.008C361.608,-226.944 199.476,-215.79 54.2195,-187.916"/>
<polygon fill="midnightblue" stroke="midnightblue" points="54.72,-184.447 44.2348,-185.968 53.3795,-191.318 54.72,-184.447"/>
</g>
<!-- Node3 -->
<g id="node5" class="node"><title>Node3</title>
<polygon fill="white" stroke="#bfbfbf" points="62,-168.5 62,-187.5 106,-187.5 106,-168.5 62,-168.5"/>
<text text-anchor="middle" x="84" y="-175.5" font-family="Helvetica,sans-Serif" font-size="10.00">fcntl.h</text>
</g>
<!-- Node1&#45;&gt;Node3 -->
<g id="edge4" class="edge"><title>Node1&#45;&gt;Node3</title>
<path fill="none" stroke="midnightblue" d="M437.491,-229.977C370.846,-224.756 237.653,-212.38 116.093,-187.933"/>
<polygon fill="midnightblue" stroke="midnightblue" points="116.743,-184.493 106.244,-185.92 115.341,-191.351 116.743,-184.493"/>
</g>
<!-- Node4 -->
<g id="node7" class="node"><title>Node4</title>
<polygon fill="white" stroke="#bfbfbf" points="124,-168.5 124,-187.5 192,-187.5 192,-168.5 124,-168.5"/>
<text text-anchor="middle" x="158" y="-175.5" font-family="Helvetica,sans-Serif" font-size="10.00">sys/types.h</text>
</g>
<!-- Node1&#45;&gt;Node4 -->
<g id="edge6" class="edge"><title>Node1&#45;&gt;Node4</title>
<path fill="none" stroke="midnightblue" d="M437.353,-226.751C384.514,-218.869 291.491,-204.54 202.256,-188.166"/>
<polygon fill="midnightblue" stroke="midnightblue" points="202.709,-184.69 192.239,-186.316 201.437,-191.574 202.709,-184.69"/>
</g>
<!-- Node5 -->
<g id="node9" class="node"><title>Node5</title>
<polygon fill="white" stroke="#bfbfbf" points="210,-168.5 210,-187.5 270,-187.5 270,-168.5 210,-168.5"/>
<text text-anchor="middle" x="240" y="-175.5" font-family="Helvetica,sans-Serif" font-size="10.00">sys/stat.h</text>
</g>
<!-- Node1&#45;&gt;Node5 -->
<g id="edge8" class="edge"><title>Node1&#45;&gt;Node5</title>
<path fill="none" stroke="midnightblue" d="M441.45,-224.448C403.031,-215.908 342.076,-202.311 280.17,-188.256"/>
<polygon fill="midnightblue" stroke="midnightblue" points="280.756,-184.8 270.229,-185.997 279.205,-191.626 280.756,-184.8"/>
</g>
<!-- Node6 -->
<g id="node11" class="node"><title>Node6</title>
<a xlink:href="../../dc/da7/cpu_8h.xhtml" target="_top" xlink:title="cpu.h">
<polygon fill="white" stroke="black" points="694.5,-168.5 694.5,-187.5 735.5,-187.5 735.5,-168.5 694.5,-168.5"/>
<text text-anchor="middle" x="715" y="-175.5" font-family="Helvetica,sans-Serif" font-size="10.00">cpu.h</text>
</a>
</g>
<!-- Node1&#45;&gt;Node6 -->
<g id="edge10" class="edge"><title>Node1&#45;&gt;Node6</title>
<path fill="none" stroke="midnightblue" d="M522.625,-224.62C562.131,-216.635 622.728,-203.837 684.483,-187.974"/>
<polygon fill="midnightblue" stroke="midnightblue" points="685.599,-191.301 694.401,-185.402 683.842,-184.525 685.599,-191.301"/>
</g>
<!-- Node11 -->
<g id="node21" class="node"><title>Node11</title>
<a xlink:href="../../d7/d59/char__device_8h.xhtml" target="_top" xlink:title="devices/char_device.h">
<polygon fill="white" stroke="black" points="288,-168.5 288,-187.5 402,-187.5 402,-168.5 288,-168.5"/>
<text text-anchor="middle" x="345" y="-175.5" font-family="Helvetica,sans-Serif" font-size="10.00">devices/char_device.h</text>
</a>
</g>
<!-- Node1&#45;&gt;Node11 -->
<g id="edge20" class="edge"><title>Node1&#45;&gt;Node11</title>
<path fill="none" stroke="midnightblue" d="M458.609,-224.444C436.293,-215.517 401.097,-201.439 375.792,-191.317"/>
<polygon fill="midnightblue" stroke="midnightblue" points="376.876,-187.981 366.291,-187.516 374.276,-194.48 376.876,-187.981"/>
</g>
<!-- Node15 -->
<g id="node29" class="node"><title>Node15</title>
<a xlink:href="../../db/d9a/block__device_8h.xhtml" target="_top" xlink:title="devices/block_device.h">
<polygon fill="white" stroke="black" points="420.5,-168.5 420.5,-187.5 539.5,-187.5 539.5,-168.5 420.5,-168.5"/>
<text text-anchor="middle" x="480" y="-175.5" font-family="Helvetica,sans-Serif" font-size="10.00">devices/block_device.h</text>
</a>
</g>
<!-- Node1&#45;&gt;Node15 -->
<g id="edge28" class="edge"><title>Node1&#45;&gt;Node15</title>
<path fill="none" stroke="midnightblue" d="M480,-224.083C480,-217.006 480,-206.861 480,-197.986"/>
<polygon fill="midnightblue" stroke="midnightblue" points="483.5,-197.751 480,-187.751 476.5,-197.751 483.5,-197.751"/>
</g>
<!-- Node16 -->
<g id="node32" class="node"><title>Node16</title>
<a xlink:href="../../df/d8f/clock__device_8h.xhtml" target="_top" xlink:title="devices/clock_device.h">
<polygon fill="white" stroke="black" points="557.5,-168.5 557.5,-187.5 676.5,-187.5 676.5,-168.5 557.5,-168.5"/>
<text text-anchor="middle" x="617" y="-175.5" font-family="Helvetica,sans-Serif" font-size="10.00">devices/clock_device.h</text>
</a>
</g>
<!-- Node1&#45;&gt;Node16 -->
<g id="edge32" class="edge"><title>Node1&#45;&gt;Node16</title>
<path fill="none" stroke="midnightblue" d="M501.708,-224.444C524.355,-215.517 560.072,-201.439 585.752,-191.317"/>
<polygon fill="midnightblue" stroke="midnightblue" points="587.374,-194.44 595.394,-187.516 584.807,-187.927 587.374,-194.44"/>
</g>
<!-- Node20 -->
<g id="node41" class="node"><title>Node20</title>
<a xlink:href="../../df/db9/id_8h_source.xhtml" target="_top" xlink:title="utility/id.h">
<polygon fill="white" stroke="black" points="995.5,-112.5 995.5,-131.5 1054.5,-131.5 1054.5,-112.5 995.5,-112.5"/>
<text text-anchor="middle" x="1025" y="-119.5" font-family="Helvetica,sans-Serif" font-size="10.00">utility/id.h</text>
</a>
</g>
<!-- Node1&#45;&gt;Node20 -->
<g id="edge42" class="edge"><title>Node1&#45;&gt;Node20</title>
<path fill="none" stroke="midnightblue" d="M522.605,-232.653C597.061,-231.08 755.112,-223.427 883,-188 926.708,-175.892 973.925,-151.855 1001.4,-136.648"/>
<polygon fill="midnightblue" stroke="midnightblue" points="1003.26,-139.62 1010.26,-131.671 999.829,-133.518 1003.26,-139.62"/>
</g>
<!-- Node23 -->
<g id="node49" class="node"><title>Node23</title>
<a xlink:href="../../d1/d8c/logger_8h_source.xhtml" target="_top" xlink:title="utility/logger.h">
<polygon fill="white" stroke="black" points="797.5,-168.5 797.5,-187.5 874.5,-187.5 874.5,-168.5 797.5,-168.5"/>
<text text-anchor="middle" x="836" y="-175.5" font-family="Helvetica,sans-Serif" font-size="10.00">utility/logger.h</text>
</a>
</g>
<!-- Node1&#45;&gt;Node23 -->
<g id="edge52" class="edge"><title>Node1&#45;&gt;Node23</title>
<path fill="none" stroke="midnightblue" d="M522.588,-226.54C589.169,-216.441 717.523,-196.971 787.543,-186.35"/>
<polygon fill="midnightblue" stroke="midnightblue" points="788.074,-189.81 797.436,-184.85 787.024,-182.889 788.074,-189.81"/>
</g>
<!-- Node26 -->
<g id="node56" class="node"><title>Node26</title>
<a xlink:href="../../db/d41/fcfs_8h_source.xhtml" target="_top" xlink:title="scheduler/fcfs.h">
<polygon fill="white" stroke="black" points="982,-168.5 982,-187.5 1068,-187.5 1068,-168.5 982,-168.5"/>
<text text-anchor="middle" x="1025" y="-175.5" font-family="Helvetica,sans-Serif" font-size="10.00">scheduler/fcfs.h</text>
</a>
</g>
<!-- Node1&#45;&gt;Node26 -->
<g id="edge60" class="edge"><title>Node1&#45;&gt;Node26</title>
<path fill="none" stroke="midnightblue" d="M522.765,-228.763C621.218,-219.008 863.7,-194.982 971.661,-184.285"/>
<polygon fill="midnightblue" stroke="midnightblue" points="972.073,-187.761 981.679,-183.292 971.383,-180.795 972.073,-187.761"/>
</g>
<!-- Node7 -->
<g id="node13" class="node"><title>Node7</title>
<polygon fill="white" stroke="#bfbfbf" points="810.5,-56.5 810.5,-75.5 853.5,-75.5 853.5,-56.5 810.5,-56.5"/>
<text text-anchor="middle" x="832" y="-63.5" font-family="Helvetica,sans-Serif" font-size="10.00">cstdio</text>
</g>
<!-- Node6&#45;&gt;Node7 -->
<g id="edge12" class="edge"><title>Node6&#45;&gt;Node7</title>
<path fill="none" stroke="midnightblue" d="M711.457,-168.082C706.746,-154.623 700.289,-128.899 712,-112 731.666,-83.6217 771.582,-73.1126 799.972,-69.2366"/>
<polygon fill="midnightblue" stroke="midnightblue" points="800.691,-72.677 810.223,-68.0524 799.887,-65.7232 800.691,-72.677"/>
</g>
<!-- Node8 -->
<g id="node15" class="node"><title>Node8</title>
<polygon fill="white" stroke="#bfbfbf" points="789.5,-112.5 789.5,-131.5 834.5,-131.5 834.5,-112.5 789.5,-112.5"/>
<text text-anchor="middle" x="812" y="-119.5" font-family="Helvetica,sans-Serif" font-size="10.00">cstdlib</text>
</g>
<!-- Node6&#45;&gt;Node8 -->
<g id="edge14" class="edge"><title>Node6&#45;&gt;Node8</title>
<path fill="none" stroke="midnightblue" d="M730.585,-168.324C745.999,-159.743 769.812,-146.486 787.71,-136.522"/>
<polygon fill="midnightblue" stroke="midnightblue" points="789.419,-139.577 796.454,-131.655 786.014,-133.461 789.419,-139.577"/>
</g>
<!-- Node9 -->
<g id="node17" class="node"><title>Node9</title>
<polygon fill="white" stroke="#bfbfbf" points="853,-112.5 853,-131.5 905,-131.5 905,-112.5 853,-112.5"/>
<text text-anchor="middle" x="879" y="-119.5" font-family="Helvetica,sans-Serif" font-size="10.00">assert.h</text>
</g>
<!-- Node6&#45;&gt;Node9 -->
<g id="edge16" class="edge"><title>Node6&#45;&gt;Node9</title>
<path fill="none" stroke="midnightblue" d="M735.771,-170.161C762.797,-161.262 810.441,-145.574 843.312,-134.751"/>
<polygon fill="midnightblue" stroke="midnightblue" points="844.596,-138.013 853,-131.561 842.407,-131.364 844.596,-138.013"/>
</g>
<!-- Node10 -->
<g id="node19" class="node"><title>Node10</title>
<polygon fill="white" stroke="#bfbfbf" points="896.5,-0.5 896.5,-19.5 955.5,-19.5 955.5,-0.5 896.5,-0.5"/>
<text text-anchor="middle" x="926" y="-7.5" font-family="Helvetica,sans-Serif" font-size="10.00">inttypes.h</text>
</g>
<!-- Node6&#45;&gt;Node10 -->
<g id="edge18" class="edge"><title>Node6&#45;&gt;Node10</title>
<path fill="none" stroke="midnightblue" d="M709.494,-168.384C701.912,-155.319 690.338,-130.103 701,-112 739.502,-46.6283 832.494,-23.3645 886.102,-15.2363"/>
<polygon fill="midnightblue" stroke="midnightblue" points="886.857,-18.6647 896.271,-13.8045 885.881,-11.7331 886.857,-18.6647"/>
</g>
<!-- Node12 -->
<g id="node23" class="node"><title>Node12</title>
<a xlink:href="../../d0/d8f/abstract__device_8h_source.xhtml" target="_top" xlink:title="devices/abstract_device.h">
<polygon fill="white" stroke="black" points="327.5,-112.5 327.5,-131.5 458.5,-131.5 458.5,-112.5 327.5,-112.5"/>
<text text-anchor="middle" x="393" y="-119.5" font-family="Helvetica,sans-Serif" font-size="10.00">devices/abstract_device.h</text>
</a>
</g>
<!-- Node11&#45;&gt;Node12 -->
<g id="edge22" class="edge"><title>Node11&#45;&gt;Node12</title>
<path fill="none" stroke="midnightblue" d="M352.926,-168.083C359.846,-160.298 370.065,-148.801 378.452,-139.367"/>
<polygon fill="midnightblue" stroke="midnightblue" points="381.194,-141.55 385.221,-131.751 375.962,-136.9 381.194,-141.55"/>
</g>
<!-- Node13 -->
<g id="node25" class="node"><title>Node13</title>
<polygon fill="white" stroke="#bfbfbf" points="404,-56.5 404,-75.5 448,-75.5 448,-56.5 404,-56.5"/>
<text text-anchor="middle" x="426" y="-63.5" font-family="Helvetica,sans-Serif" font-size="10.00">time.h</text>
</g>
<!-- Node12&#45;&gt;Node13 -->
<g id="edge24" class="edge"><title>Node12&#45;&gt;Node13</title>
<path fill="none" stroke="midnightblue" d="M398.449,-112.083C403.014,-104.613 409.668,-93.7244 415.293,-84.5199"/>
<polygon fill="midnightblue" stroke="midnightblue" points="418.424,-86.109 420.652,-75.7511 412.451,-82.4588 418.424,-86.109"/>
</g>
<!-- Node14 -->
<g id="node27" class="node"><title>Node14</title>
<polygon fill="white" stroke="#bfbfbf" points="336,-56.5 336,-75.5 386,-75.5 386,-56.5 336,-56.5"/>
<text text-anchor="middle" x="361" y="-63.5" font-family="Helvetica,sans-Serif" font-size="10.00">signal.h</text>
</g>
<!-- Node12&#45;&gt;Node14 -->
<g id="edge26" class="edge"><title>Node12&#45;&gt;Node14</title>
<path fill="none" stroke="midnightblue" d="M387.716,-112.083C383.289,-104.613 376.837,-93.7244 371.382,-84.5199"/>
<polygon fill="midnightblue" stroke="midnightblue" points="374.295,-82.5697 366.186,-75.7511 368.273,-86.1383 374.295,-82.5697"/>
</g>
<!-- Node15&#45;&gt;Node12 -->
<g id="edge30" class="edge"><title>Node15&#45;&gt;Node12</title>
<path fill="none" stroke="midnightblue" d="M466.022,-168.324C452.45,-159.9 431.62,-146.971 415.675,-137.074"/>
<polygon fill="midnightblue" stroke="midnightblue" points="417.286,-133.954 406.943,-131.655 413.594,-139.902 417.286,-133.954"/>
</g>
<!-- Node16&#45;&gt;Node12 -->
<g id="edge40" class="edge"><title>Node16&#45;&gt;Node12</title>
<path fill="none" stroke="midnightblue" d="M581.507,-168.444C542.676,-159.083 480.344,-144.056 438.082,-133.868"/>
<polygon fill="midnightblue" stroke="midnightblue" points="438.869,-130.458 428.327,-131.516 437.229,-137.263 438.869,-130.458"/>
</g>
<!-- Node17 -->
<g id="node34" class="node"><title>Node17</title>
<polygon fill="white" stroke="#bfbfbf" points="541.5,-112.5 541.5,-131.5 588.5,-131.5 588.5,-112.5 541.5,-112.5"/>
<text text-anchor="middle" x="565" y="-119.5" font-family="Helvetica,sans-Serif" font-size="10.00">errno.h</text>
</g>
<!-- Node16&#45;&gt;Node17 -->
<g id="edge34" class="edge"><title>Node16&#45;&gt;Node17</title>
<path fill="none" stroke="midnightblue" d="M608.413,-168.083C600.841,-160.22 589.622,-148.569 580.486,-139.081"/>
<polygon fill="midnightblue" stroke="midnightblue" points="582.885,-136.527 573.427,-131.751 577.842,-141.382 582.885,-136.527"/>
</g>
<!-- Node18 -->
<g id="node36" class="node"><title>Node18</title>
<polygon fill="white" stroke="#bfbfbf" points="477,-112.5 477,-131.5 523,-131.5 523,-112.5 477,-112.5"/>
<text text-anchor="middle" x="500" y="-119.5" font-family="Helvetica,sans-Serif" font-size="10.00">cstring</text>
</g>
<!-- Node16&#45;&gt;Node18 -->
<g id="edge36" class="edge"><title>Node16&#45;&gt;Node18</title>
<path fill="none" stroke="midnightblue" d="M598.461,-168.444C579.377,-159.636 549.425,-145.812 527.564,-135.722"/>
<polygon fill="midnightblue" stroke="midnightblue" points="528.999,-132.529 518.452,-131.516 526.065,-138.885 528.999,-132.529"/>
</g>
<!-- Node19 -->
<g id="node38" class="node"><title>Node19</title>
<polygon fill="white" stroke="#bfbfbf" points="585.5,-56.5 585.5,-75.5 626.5,-75.5 626.5,-56.5 585.5,-56.5"/>
<text text-anchor="middle" x="606" y="-63.5" font-family="Helvetica,sans-Serif" font-size="10.00">string</text>
</g>
<!-- Node16&#45;&gt;Node19 -->
<g id="edge38" class="edge"><title>Node16&#45;&gt;Node19</title>
<path fill="none" stroke="midnightblue" d="M616.137,-168.368C614.362,-150.617 610.267,-109.666 607.86,-85.5974"/>
<polygon fill="midnightblue" stroke="midnightblue" points="611.337,-85.1935 606.859,-75.5914 604.372,-85.8901 611.337,-85.1935"/>
</g>
<!-- Node20&#45;&gt;Node7 -->
<g id="edge44" class="edge"><title>Node20&#45;&gt;Node7</title>
<path fill="none" stroke="midnightblue" d="M995.267,-112.681C959.658,-102.718 900.261,-86.0989 863.772,-75.8896"/>
<polygon fill="midnightblue" stroke="midnightblue" points="864.254,-72.3902 853.681,-73.0662 862.368,-79.1313 864.254,-72.3902"/>
</g>
<!-- Node20&#45;&gt;Node19 -->
<g id="edge48" class="edge"><title>Node20&#45;&gt;Node19</title>
<path fill="none" stroke="midnightblue" d="M995.257,-113.785C992.141,-113.134 989.012,-112.524 986,-112 857.311,-89.6001 702.133,-75.0627 637.074,-69.5243"/>
<polygon fill="midnightblue" stroke="midnightblue" points="636.968,-66.0032 626.71,-68.6537 636.382,-72.9786 636.968,-66.0032"/>
</g>
<!-- Node21 -->
<g id="node44" class="node"><title>Node21</title>
<polygon fill="white" stroke="#bfbfbf" points="998.5,-56.5 998.5,-75.5 1043.5,-75.5 1043.5,-56.5 998.5,-56.5"/>
<text text-anchor="middle" x="1021" y="-63.5" font-family="Helvetica,sans-Serif" font-size="10.00">climits</text>
</g>
<!-- Node20&#45;&gt;Node21 -->
<g id="edge46" class="edge"><title>Node20&#45;&gt;Node21</title>
<path fill="none" stroke="midnightblue" d="M1024.34,-112.083C1023.82,-105.006 1023.06,-94.8611 1022.41,-85.9865"/>
<polygon fill="midnightblue" stroke="midnightblue" points="1025.88,-85.4652 1021.65,-75.7511 1018.9,-85.9823 1025.88,-85.4652"/>
</g>
<!-- Node22 -->
<g id="node47" class="node"><title>Node22</title>
<polygon fill="white" stroke="#bfbfbf" points="1061.5,-56.5 1061.5,-75.5 1104.5,-75.5 1104.5,-56.5 1061.5,-56.5"/>
<text text-anchor="middle" x="1083" y="-63.5" font-family="Helvetica,sans-Serif" font-size="10.00">queue</text>
</g>
<!-- Node20&#45;&gt;Node22 -->
<g id="edge50" class="edge"><title>Node20&#45;&gt;Node22</title>
<path fill="none" stroke="midnightblue" d="M1034.32,-112.324C1042.89,-104.341 1055.81,-92.3128 1066.19,-82.6529"/>
<polygon fill="midnightblue" stroke="midnightblue" points="1068.58,-85.2098 1073.51,-75.8339 1063.81,-80.0865 1068.58,-85.2098"/>
</g>
<!-- Node23&#45;&gt;Node9 -->
<g id="edge54" class="edge"><title>Node23&#45;&gt;Node9</title>
<path fill="none" stroke="midnightblue" d="M843.101,-168.083C849.237,-160.377 858.27,-149.033 865.739,-139.653"/>
<polygon fill="midnightblue" stroke="midnightblue" points="868.54,-141.754 872.032,-131.751 863.064,-137.394 868.54,-141.754"/>
</g>
<!-- Node24 -->
<g id="node52" class="node"><title>Node24</title>
<polygon fill="white" stroke="#bfbfbf" points="923,-112.5 923,-131.5 977,-131.5 977,-112.5 923,-112.5"/>
<text text-anchor="middle" x="950" y="-119.5" font-family="Helvetica,sans-Serif" font-size="10.00">iostream</text>
</g>
<!-- Node23&#45;&gt;Node24 -->
<g id="edge56" class="edge"><title>Node23&#45;&gt;Node24</title>
<path fill="none" stroke="midnightblue" d="M854.064,-168.444C872.575,-159.675 901.581,-145.935 922.855,-135.858"/>
<polygon fill="midnightblue" stroke="midnightblue" points="924.482,-138.96 932.021,-131.516 921.485,-132.634 924.482,-138.96"/>
</g>
<!-- Node25 -->
<g id="node54" class="node"><title>Node25</title>
<polygon fill="white" stroke="#bfbfbf" points="721,-112.5 721,-131.5 771,-131.5 771,-112.5 721,-112.5"/>
<text text-anchor="middle" x="746" y="-119.5" font-family="Helvetica,sans-Serif" font-size="10.00">fstream</text>
</g>
<!-- Node23&#45;&gt;Node25 -->
<g id="edge58" class="edge"><title>Node23&#45;&gt;Node25</title>
<path fill="none" stroke="midnightblue" d="M821.54,-168.324C807.5,-159.9 785.952,-146.971 769.457,-137.074"/>
<polygon fill="midnightblue" stroke="midnightblue" points="770.8,-133.798 760.424,-131.655 767.198,-139.801 770.8,-133.798"/>
</g>
<!-- Node26&#45;&gt;Node8 -->
<g id="edge62" class="edge"><title>Node26&#45;&gt;Node8</title>
<path fill="none" stroke="midnightblue" d="M989.201,-168.441C954.628,-160.099 900.559,-146.855 844.456,-132.06"/>
<polygon fill="midnightblue" stroke="midnightblue" points="845.265,-128.654 834.702,-129.477 843.473,-135.42 845.265,-128.654"/>
</g>
<!-- Node26&#45;&gt;Node9 -->
<g id="edge66" class="edge"><title>Node26&#45;&gt;Node9</title>
<path fill="none" stroke="midnightblue" d="M1001.87,-168.444C977.518,-159.438 938.993,-145.189 911.577,-135.049"/>
<polygon fill="midnightblue" stroke="midnightblue" points="912.619,-131.703 902.026,-131.516 910.191,-138.268 912.619,-131.703"/>
</g>
<!-- Node26&#45;&gt;Node20 -->
<g id="edge76" class="edge"><title>Node26&#45;&gt;Node20</title>
<path fill="none" stroke="midnightblue" d="M1025,-168.083C1025,-161.006 1025,-150.861 1025,-141.986"/>
<polygon fill="midnightblue" stroke="midnightblue" points="1028.5,-141.751 1025,-131.751 1021.5,-141.751 1028.5,-141.751"/>
</g>
<!-- Node26&#45;&gt;Node22 -->
<g id="edge64" class="edge"><title>Node26&#45;&gt;Node22</title>
<path fill="none" stroke="midnightblue" d="M1034.04,-168.499C1042.6,-159.997 1055.26,-146.179 1063,-132 1070.96,-117.428 1076.21,-99.2518 1079.32,-85.828"/>
<polygon fill="midnightblue" stroke="midnightblue" points="1082.79,-86.3634 1081.45,-75.8532 1075.94,-84.9029 1082.79,-86.3634"/>
</g>
<!-- Node27 -->
<g id="node61" class="node"><title>Node27</title>
<polygon fill="white" stroke="#bfbfbf" points="1111.5,-112.5 1111.5,-131.5 1168.5,-131.5 1168.5,-112.5 1111.5,-112.5"/>
<text text-anchor="middle" x="1140" y="-119.5" font-family="Helvetica,sans-Serif" font-size="10.00">pthread.h</text>
</g>
<!-- Node26&#45;&gt;Node27 -->
<g id="edge68" class="edge"><title>Node26&#45;&gt;Node27</title>
<path fill="none" stroke="midnightblue" d="M1043.22,-168.444C1061.9,-159.675 1091.16,-145.935 1112.62,-135.858"/>
<polygon fill="midnightblue" stroke="midnightblue" points="1114.3,-138.935 1121.86,-131.516 1111.32,-132.599 1114.3,-138.935"/>
</g>
<!-- Node28 -->
<g id="node63" class="node"><title>Node28</title>
<a xlink:href="../../d2/dd8/scheduler_8h_source.xhtml" target="_top" xlink:title="scheduler/scheduler.h">
<polygon fill="white" stroke="black" points="1187,-112.5 1187,-131.5 1299,-131.5 1299,-112.5 1187,-112.5"/>
<text text-anchor="middle" x="1243" y="-119.5" font-family="Helvetica,sans-Serif" font-size="10.00">scheduler/scheduler.h</text>
</a>
</g>
<!-- Node26&#45;&gt;Node28 -->
<g id="edge70" class="edge"><title>Node26&#45;&gt;Node28</title>
<path fill="none" stroke="midnightblue" d="M1059.54,-168.444C1097.25,-159.102 1157.74,-144.119 1198.86,-133.933"/>
<polygon fill="midnightblue" stroke="midnightblue" points="1199.75,-137.318 1208.62,-131.516 1198.07,-130.524 1199.75,-137.318"/>
</g>
<!-- Node29 -->
<g id="node65" class="node"><title>Node29</title>
<a xlink:href="../../da/d42/process_8h.xhtml" target="_top" xlink:title="process.h">
<polygon fill="white" stroke="black" points="1167.5,-56.5 1167.5,-75.5 1226.5,-75.5 1226.5,-56.5 1167.5,-56.5"/>
<text text-anchor="middle" x="1197" y="-63.5" font-family="Helvetica,sans-Serif" font-size="10.00">process.h</text>
</a>
</g>
<!-- Node28&#45;&gt;Node29 -->
<g id="edge72" class="edge"><title>Node28&#45;&gt;Node29</title>
<path fill="none" stroke="midnightblue" d="M1235.4,-112.083C1228.77,-104.298 1218.98,-92.8015 1210.94,-83.3665"/>
<polygon fill="midnightblue" stroke="midnightblue" points="1213.6,-81.0939 1204.45,-75.7511 1208.27,-85.6332 1213.6,-81.0939"/>
</g>
<!-- Node29&#45;&gt;Node10 -->
<g id="edge74" class="edge"><title>Node29&#45;&gt;Node10</title>
<path fill="none" stroke="midnightblue" d="M1167.48,-59.1183C1118.64,-49.3855 1020.95,-29.9192 965.967,-18.9639"/>
<polygon fill="midnightblue" stroke="midnightblue" points="966.385,-15.4784 955.894,-16.9567 965.017,-22.3435 966.385,-15.4784"/>
</g>
</g>
</svg>
        <g id="navigator" transform="translate(0 0)" fill="#404254">
                <rect fill="#f2f5e9" fill-opacity="0.5" stroke="#606060" stroke-width=".5" x="0" y="0" width="60" height="60"/>
                <use id="zoomplus" xlink:href="#zoomPlus" x="17" y="9" onmousedown="handleZoom(evt,'in')"/>
                <use id="zoomminus" xlink:href="#zoomMin" x="42" y="9" onmousedown="handleZoom(evt,'out')"/>
                <use id="reset" xlink:href="#resetDef" x="30" y="36" onmousedown="handleReset()"/>
                <g id="arrowUp" xlink:href="#dirArrow" transform="translate(30 24)" onmousedown="handlePan(0,-1)">
                  <use xlink:href="#rim" fill="#404040">
                        <set attributeName="fill" to="#808080" begin="arrowUp.mouseover" end="arrowUp.mouseout"/>
                  </use>
                  <path fill="none" stroke="white" stroke-width="1.5" d="M0,-3.0v7 M-2.5,-0.5L0,-3.0L2.5,-0.5"/>
                </g>
                <g id="arrowRight" xlink:href="#dirArrow" transform="rotate(90) translate(36 -43)" onmousedown="handlePan(1,0)">
                  <use xlink:href="#rim" fill="#404040">
                        <set attributeName="fill" to="#808080" begin="arrowRight.mouseover" end="arrowRight.mouseout"/>
                  </use>
                  <path fill="none" stroke="white" stroke-width="1.5" d="M0,-3.0v7 M-2.5,-0.5L0,-3.0L2.5,-0.5"/>
                </g>
                <g id="arrowDown" xlink:href="#dirArrow" transform="rotate(180) translate(-30 -48)" onmousedown="handlePan(0,1)">
                  <use xlink:href="#rim" fill="#404040">
                        <set attributeName="fill" to="#808080" begin="arrowDown.mouseover" end="arrowDown.mouseout"/>
                  </use>
                  <path fill="none" stroke="white" stroke-width="1.5" d="M0,-3.0v7 M-2.5,-0.5L0,-3.0L2.5,-0.5"/>
                </g>
                <g id="arrowLeft" xlink:href="#dirArrow" transform="rotate(270) translate(-36 17)" onmousedown="handlePan(-1,0)">
                  <use xlink:href="#rim" fill="#404040">
                        <set attributeName="fill" to="#808080" begin="arrowLeft.mouseover" end="arrowLeft.mouseout"/>
                  </use>
                  <path fill="none" stroke="white" stroke-width="1.5" d="M0,-3.0v7 M-2.5,-0.5L0,-3.0L2.5,-0.5"/>
                </g>
        </g>
</svg>
