<?xml version="1.0" encoding="UTF-8" standalone="no"?>
<!DOCTYPE svg PUBLIC "-//W3C//DTD SVG 1.1//EN"
 "http://www.w3.org/Graphics/SVG/1.1/DTD/svg11.dtd">
<!-- Generated by graphviz version 2.28.0 (20111025.1818)
 -->
<!-- Title: G Pages: 1 -->
<!--zoomable 252 -->
<svg id="main" version="1.1" xmlns="http://www.w3.org/2000/svg" xmlns:xlink="http://www.w3.org/1999/xlink" xml:space="preserve" onload="init(evt)">
        <defs>
                <circle id="rim" cx="0" cy="0" r="7"/>
                <circle id="rim2" cx="0" cy="0" r="3.5"/>
                <g id="zoomPlus">
                        <use xlink:href="#rim" fill="#404040">
                                <set attributeName="fill" to="#808080" begin="zoomplus.mouseover" end="zoomplus.mouseout"/>
                        </use>
                        <path d="M-4,0h8M0,-4v8" fill="none" stroke="white" stroke-width="1.5" pointer-events="none"/>
                </g>
                <g id="zoomMin">
                        <use xlink:href="#rim" fill="#404040">
                                <set attributeName="fill" to="#808080" begin="zoomminus.mouseover" end="zoomminus.mouseout"/>
                        </use>
                        <path d="M-4,0h8" fill="none" stroke="white" stroke-width="1.5" pointer-events="none"/>
                </g>
                <g id="dirArrow">
                        <path fill="none" stroke="white" stroke-width="1.5" d="M0,-3.0v7 M-2.5,-0.5L0,-3.0L2.5,-0.5"/>
                </g>
               <g id="resetDef">
                       <use xlink:href="#rim2" fill="#404040">
                               <set attributeName="fill" to="#808080" begin="reset.mouseover" end="reset.mouseout"/>
                       </use>
               </g>
        </defs>

<script type="text/javascript">
var viewWidth = 1074;
var viewHeight = 252;
var sectionId = 'dynsection-0';
</script>
<script xlink:href="../../svgpan.js"/>
<svg id="graph" class="graph">
<g id="viewport">
<title>G</title>
<polygon fill="white" stroke="white" points="-4,5 -4,-248 1071,-248 1071,5 -4,5"/>
<!-- Node1 -->
<g id="node1" class="node"><title>Node1</title>
<polygon fill="#bfbfbf" stroke="black" points="639,-224.5 639,-243.5 793,-243.5 793,-224.5 639,-224.5"/>
<text text-anchor="middle" x="716" y="-231.5" font-family="Helvetica,sans-Serif" font-size="10.00">include/scheduler/round_robin.h</text>
</g>
<!-- Node2 -->
<g id="node3" class="node"><title>Node2</title>
<polygon fill="white" stroke="#bfbfbf" points="874,-56.5 874,-75.5 926,-75.5 926,-56.5 874,-56.5"/>
<text text-anchor="middle" x="900" y="-63.5" font-family="Helvetica,sans-Serif" font-size="10.00">assert.h</text>
</g>
<!-- Node1&#45;&gt;Node2 -->
<g id="edge2" class="edge"><title>Node1&#45;&gt;Node2</title>
<path fill="none" stroke="midnightblue" d="M725.634,-224.309C755.194,-197.64 844.893,-116.716 882.799,-82.5186"/>
<polygon fill="midnightblue" stroke="midnightblue" points="885.381,-84.9024 890.462,-75.6051 880.692,-79.705 885.381,-84.9024"/>
</g>
<!-- Node3 -->
<g id="node5" class="node"><title>Node3</title>
<a xlink:href="../../d2/dd8/scheduler_8h_source.xhtml" target="_top" xlink:title="scheduler/scheduler.h">
<polygon fill="white" stroke="black" points="576,-168.5 576,-187.5 688,-187.5 688,-168.5 576,-168.5"/>
<text text-anchor="middle" x="632" y="-175.5" font-family="Helvetica,sans-Serif" font-size="10.00">scheduler/scheduler.h</text>
</a>
</g>
<!-- Node1&#45;&gt;Node3 -->
<g id="edge4" class="edge"><title>Node1&#45;&gt;Node3</title>
<path fill="none" stroke="midnightblue" d="M702.504,-224.324C689.4,-215.9 669.288,-202.971 653.893,-193.074"/>
<polygon fill="midnightblue" stroke="midnightblue" points="655.767,-190.118 645.463,-187.655 651.982,-196.006 655.767,-190.118"/>
</g>
<!-- Node4 -->
<g id="node7" class="node"><title>Node4</title>
<polygon fill="white" stroke="#bfbfbf" points="660.5,-112.5 660.5,-131.5 705.5,-131.5 705.5,-112.5 660.5,-112.5"/>
<text text-anchor="middle" x="683" y="-119.5" font-family="Helvetica,sans-Serif" font-size="10.00">cstdlib</text>
</g>
<!-- Node3&#45;&gt;Node4 -->
<g id="edge6" class="edge"><title>Node3&#45;&gt;Node4</title>
<path fill="none" stroke="midnightblue" d="M640.422,-168.083C647.848,-160.22 658.852,-148.569 667.812,-139.081"/>
<polygon fill="midnightblue" stroke="midnightblue" points="670.413,-141.424 674.735,-131.751 665.324,-136.618 670.413,-141.424"/>
</g>
<!-- Node5 -->
<g id="node9" class="node"><title>Node5</title>
<polygon fill="white" stroke="#bfbfbf" points="-0.5,-56.5 -0.5,-75.5 56.5,-75.5 56.5,-56.5 -0.5,-56.5"/>
<text text-anchor="middle" x="28" y="-63.5" font-family="Helvetica,sans-Serif" font-size="10.00">pthread.h</text>
</g>
<!-- Node3&#45;&gt;Node5 -->
<g id="edge8" class="edge"><title>Node3&#45;&gt;Node5</title>
<path fill="none" stroke="midnightblue" d="M575.772,-170.435C512.05,-162.672 405.186,-148.678 314,-132 205.58,-112.17 177.042,-102.411 66.5458,-76.3473"/>
<polygon fill="midnightblue" stroke="midnightblue" points="67.2071,-72.9074 56.6715,-74.0262 65.6052,-79.7217 67.2071,-72.9074"/>
</g>
<!-- Node6 -->
<g id="node11" class="node"><title>Node6</title>
<a xlink:href="../../da/d42/process_8h.xhtml" target="_top" xlink:title="process.h">
<polygon fill="white" stroke="black" points="74.5,-56.5 74.5,-75.5 133.5,-75.5 133.5,-56.5 74.5,-56.5"/>
<text text-anchor="middle" x="104" y="-63.5" font-family="Helvetica,sans-Serif" font-size="10.00">process.h</text>
</a>
</g>
<!-- Node3&#45;&gt;Node6 -->
<g id="edge10" class="edge"><title>Node3&#45;&gt;Node6</title>
<path fill="none" stroke="midnightblue" d="M588.746,-168.462C505.002,-151.845 314.668,-113.661 143.729,-76.1259"/>
<polygon fill="midnightblue" stroke="midnightblue" points="144.315,-72.6713 133.797,-73.9409 142.811,-79.5078 144.315,-72.6713"/>
</g>
<!-- Node8 -->
<g id="node15" class="node"><title>Node8</title>
<a xlink:href="../../d1/d8c/logger_8h.xhtml" target="_top" xlink:title="utility/logger.h">
<polygon fill="white" stroke="black" points="896.5,-112.5 896.5,-131.5 973.5,-131.5 973.5,-112.5 896.5,-112.5"/>
<text text-anchor="middle" x="935" y="-119.5" font-family="Helvetica,sans-Serif" font-size="10.00">utility/logger.h</text>
</a>
</g>
<!-- Node3&#45;&gt;Node8 -->
<g id="edge14" class="edge"><title>Node3&#45;&gt;Node8</title>
<path fill="none" stroke="midnightblue" d="M680.011,-168.444C736.408,-158.393 829.454,-141.81 886.192,-131.698"/>
<polygon fill="midnightblue" stroke="midnightblue" points="887.116,-135.089 896.347,-129.889 885.888,-128.198 887.116,-135.089"/>
</g>
<!-- Node11 -->
<g id="node22" class="node"><title>Node11</title>
<a xlink:href="../../dd/d00/process__logger_8h.xhtml" target="_top" xlink:title="utility/process_logger.h">
<polygon fill="white" stroke="black" points="419.5,-112.5 419.5,-131.5 536.5,-131.5 536.5,-112.5 419.5,-112.5"/>
<text text-anchor="middle" x="478" y="-119.5" font-family="Helvetica,sans-Serif" font-size="10.00">utility/process_logger.h</text>
</a>
</g>
<!-- Node3&#45;&gt;Node11 -->
<g id="edge22" class="edge"><title>Node3&#45;&gt;Node11</title>
<path fill="none" stroke="midnightblue" d="M607.598,-168.444C581.803,-159.399 540.923,-145.064 511.982,-134.916"/>
<polygon fill="midnightblue" stroke="midnightblue" points="512.882,-131.523 502.288,-131.516 510.566,-138.128 512.882,-131.523"/>
</g>
<!-- Node21 -->
<g id="node45" class="node"><title>Node21</title>
<a xlink:href="../../df/db9/id_8h.xhtml" target="_top" xlink:title="utility/id.h">
<polygon fill="white" stroke="black" points="796.5,-56.5 796.5,-75.5 855.5,-75.5 855.5,-56.5 796.5,-56.5"/>
<text text-anchor="middle" x="826" y="-63.5" font-family="Helvetica,sans-Serif" font-size="10.00">utility/id.h</text>
</a>
</g>
<!-- Node3&#45;&gt;Node21 -->
<g id="edge58" class="edge"><title>Node3&#45;&gt;Node21</title>
<path fill="none" stroke="midnightblue" d="M631.96,-168.489C632.377,-154.63 635.286,-127.208 651,-112 655.943,-107.216 736.278,-87.8599 786.364,-76.1478"/>
<polygon fill="midnightblue" stroke="midnightblue" points="787.307,-79.522 796.251,-73.8432 785.718,-72.7048 787.307,-79.522"/>
</g>
<!-- Node7 -->
<g id="node13" class="node"><title>Node7</title>
<polygon fill="white" stroke="#bfbfbf" points="74.5,-0.5 74.5,-19.5 133.5,-19.5 133.5,-0.5 74.5,-0.5"/>
<text text-anchor="middle" x="104" y="-7.5" font-family="Helvetica,sans-Serif" font-size="10.00">inttypes.h</text>
</g>
<!-- Node6&#45;&gt;Node7 -->
<g id="edge12" class="edge"><title>Node6&#45;&gt;Node7</title>
<path fill="none" stroke="midnightblue" d="M104,-56.083C104,-49.0059 104,-38.8611 104,-29.9865"/>
<polygon fill="midnightblue" stroke="midnightblue" points="107.5,-29.751 104,-19.7511 100.5,-29.7511 107.5,-29.751"/>
</g>
<!-- Node8&#45;&gt;Node2 -->
<g id="edge16" class="edge"><title>Node8&#45;&gt;Node2</title>
<path fill="none" stroke="midnightblue" d="M929.22,-112.083C924.328,-104.534 917.173,-93.4948 911.167,-84.2298"/>
<polygon fill="midnightblue" stroke="midnightblue" points="914.048,-82.239 905.672,-75.7511 908.174,-86.0463 914.048,-82.239"/>
</g>
<!-- Node9 -->
<g id="node18" class="node"><title>Node9</title>
<polygon fill="white" stroke="#bfbfbf" points="944,-56.5 944,-75.5 998,-75.5 998,-56.5 944,-56.5"/>
<text text-anchor="middle" x="971" y="-63.5" font-family="Helvetica,sans-Serif" font-size="10.00">iostream</text>
</g>
<!-- Node8&#45;&gt;Node9 -->
<g id="edge18" class="edge"><title>Node8&#45;&gt;Node9</title>
<path fill="none" stroke="midnightblue" d="M940.945,-112.083C945.977,-104.534 953.337,-93.4948 959.513,-84.2298"/>
<polygon fill="midnightblue" stroke="midnightblue" points="962.531,-86.0131 965.166,-75.7511 956.707,-82.1301 962.531,-86.0131"/>
</g>
<!-- Node10 -->
<g id="node20" class="node"><title>Node10</title>
<polygon fill="white" stroke="#bfbfbf" points="1016,-56.5 1016,-75.5 1066,-75.5 1066,-56.5 1016,-56.5"/>
<text text-anchor="middle" x="1041" y="-63.5" font-family="Helvetica,sans-Serif" font-size="10.00">fstream</text>
</g>
<!-- Node8&#45;&gt;Node10 -->
<g id="edge20" class="edge"><title>Node8&#45;&gt;Node10</title>
<path fill="none" stroke="midnightblue" d="M952.031,-112.324C969.03,-103.664 995.376,-90.2424 1014.99,-80.249"/>
<polygon fill="midnightblue" stroke="midnightblue" points="1016.69,-83.3125 1024.01,-75.6545 1013.51,-77.0752 1016.69,-83.3125"/>
</g>
<!-- Node11&#45;&gt;Node2 -->
<g id="edge32" class="edge"><title>Node11&#45;&gt;Node2</title>
<path fill="none" stroke="midnightblue" d="M536.548,-116.54C610.478,-110.382 741.696,-97.7074 863.837,-75.7824"/>
<polygon fill="midnightblue" stroke="midnightblue" points="864.527,-79.2144 873.739,-73.9807 863.274,-72.3275 864.527,-79.2144"/>
</g>
<!-- Node11&#45;&gt;Node5 -->
<g id="edge38" class="edge"><title>Node11&#45;&gt;Node5</title>
<path fill="none" stroke="midnightblue" d="M419.185,-117.011C340.816,-111.161 197.712,-98.6123 66.8103,-76.1253"/>
<polygon fill="midnightblue" stroke="midnightblue" points="67.0581,-72.6158 56.6058,-74.3475 65.8566,-79.5119 67.0581,-72.6158"/>
</g>
<!-- Node11&#45;&gt;Node6 -->
<g id="edge46" class="edge"><title>Node11&#45;&gt;Node6</title>
<path fill="none" stroke="midnightblue" d="M419.341,-114.799C354.355,-107.552 246.286,-94.3896 143.664,-75.9659"/>
<polygon fill="midnightblue" stroke="midnightblue" points="144.216,-72.509 133.751,-74.1666 142.965,-79.3964 144.216,-72.509"/>
</g>
<!-- Node12 -->
<g id="node24" class="node"><title>Node12</title>
<polygon fill="white" stroke="#bfbfbf" points="224,-56.5 224,-75.5 270,-75.5 270,-56.5 224,-56.5"/>
<text text-anchor="middle" x="247" y="-63.5" font-family="Helvetica,sans-Serif" font-size="10.00">stdio.h</text>
</g>
<!-- Node11&#45;&gt;Node12 -->
<g id="edge24" class="edge"><title>Node11&#45;&gt;Node12</title>
<path fill="none" stroke="midnightblue" d="M437.453,-112.475C399.263,-104.302 340.23,-91.302 280.085,-76.1773"/>
<polygon fill="midnightblue" stroke="midnightblue" points="280.587,-72.6939 270.034,-73.632 278.869,-79.4797 280.587,-72.6939"/>
</g>
<!-- Node13 -->
<g id="node26" class="node"><title>Node13</title>
<polygon fill="white" stroke="#bfbfbf" points="288,-56.5 288,-75.5 336,-75.5 336,-56.5 288,-56.5"/>
<text text-anchor="middle" x="312" y="-63.5" font-family="Helvetica,sans-Serif" font-size="10.00">stdlib.h</text>
</g>
<!-- Node11&#45;&gt;Node13 -->
<g id="edge26" class="edge"><title>Node11&#45;&gt;Node13</title>
<path fill="none" stroke="midnightblue" d="M451.697,-112.444C422.989,-103.105 376.948,-88.1276 345.633,-77.9409"/>
<polygon fill="midnightblue" stroke="midnightblue" points="346.616,-74.5803 336.024,-74.8151 344.451,-81.2369 346.616,-74.5803"/>
</g>
<!-- Node14 -->
<g id="node28" class="node"><title>Node14</title>
<polygon fill="white" stroke="#bfbfbf" points="354.5,-56.5 354.5,-75.5 405.5,-75.5 405.5,-56.5 354.5,-56.5"/>
<text text-anchor="middle" x="380" y="-63.5" font-family="Helvetica,sans-Serif" font-size="10.00">unistd.h</text>
</g>
<!-- Node11&#45;&gt;Node14 -->
<g id="edge28" class="edge"><title>Node11&#45;&gt;Node14</title>
<path fill="none" stroke="midnightblue" d="M462.255,-112.324C446.681,-103.743 422.623,-90.486 404.541,-80.5224"/>
<polygon fill="midnightblue" stroke="midnightblue" points="406.154,-77.4152 395.706,-75.6545 402.776,-83.546 406.154,-77.4152"/>
</g>
<!-- Node15 -->
<g id="node30" class="node"><title>Node15</title>
<polygon fill="white" stroke="#bfbfbf" points="424,-56.5 424,-75.5 468,-75.5 468,-56.5 424,-56.5"/>
<text text-anchor="middle" x="446" y="-63.5" font-family="Helvetica,sans-Serif" font-size="10.00">fcntl.h</text>
</g>
<!-- Node11&#45;&gt;Node15 -->
<g id="edge30" class="edge"><title>Node11&#45;&gt;Node15</title>
<path fill="none" stroke="midnightblue" d="M472.716,-112.083C468.289,-104.613 461.837,-93.7244 456.382,-84.5199"/>
<polygon fill="midnightblue" stroke="midnightblue" points="459.295,-82.5697 451.186,-75.7511 453.273,-86.1383 459.295,-82.5697"/>
</g>
<!-- Node16 -->
<g id="node33" class="node"><title>Node16</title>
<polygon fill="white" stroke="#bfbfbf" points="486.5,-56.5 486.5,-75.5 533.5,-75.5 533.5,-56.5 486.5,-56.5"/>
<text text-anchor="middle" x="510" y="-63.5" font-family="Helvetica,sans-Serif" font-size="10.00">errno.h</text>
</g>
<!-- Node11&#45;&gt;Node16 -->
<g id="edge34" class="edge"><title>Node11&#45;&gt;Node16</title>
<path fill="none" stroke="midnightblue" d="M483.284,-112.083C487.711,-104.613 494.163,-93.7244 499.618,-84.5199"/>
<polygon fill="midnightblue" stroke="midnightblue" points="502.727,-86.1383 504.814,-75.7511 496.705,-82.5697 502.727,-86.1383"/>
</g>
<!-- Node17 -->
<g id="node35" class="node"><title>Node17</title>
<polygon fill="white" stroke="#bfbfbf" points="551.5,-56.5 551.5,-75.5 600.5,-75.5 600.5,-56.5 551.5,-56.5"/>
<text text-anchor="middle" x="576" y="-63.5" font-family="Helvetica,sans-Serif" font-size="10.00">string.h</text>
</g>
<!-- Node11&#45;&gt;Node17 -->
<g id="edge36" class="edge"><title>Node11&#45;&gt;Node17</title>
<path fill="none" stroke="midnightblue" d="M493.745,-112.324C509.319,-103.743 533.377,-90.486 551.459,-80.5224"/>
<polygon fill="midnightblue" stroke="midnightblue" points="553.224,-83.546 560.294,-75.6545 549.846,-77.4152 553.224,-83.546"/>
</g>
<!-- Node18 -->
<g id="node38" class="node"><title>Node18</title>
<polygon fill="white" stroke="#bfbfbf" points="619,-56.5 619,-75.5 687,-75.5 687,-56.5 619,-56.5"/>
<text text-anchor="middle" x="653" y="-63.5" font-family="Helvetica,sans-Serif" font-size="10.00">sys/types.h</text>
</g>
<!-- Node11&#45;&gt;Node18 -->
<g id="edge40" class="edge"><title>Node11&#45;&gt;Node18</title>
<path fill="none" stroke="midnightblue" d="M505.729,-112.444C535.426,-103.28 582.716,-88.6876 615.669,-78.5192"/>
<polygon fill="midnightblue" stroke="midnightblue" points="616.877,-81.8094 625.4,-75.5164 614.813,-75.1206 616.877,-81.8094"/>
</g>
<!-- Node19 -->
<g id="node40" class="node"><title>Node19</title>
<polygon fill="white" stroke="#bfbfbf" points="705.5,-56.5 705.5,-75.5 778.5,-75.5 778.5,-56.5 705.5,-56.5"/>
<text text-anchor="middle" x="742" y="-63.5" font-family="Helvetica,sans-Serif" font-size="10.00">sys/socket.h</text>
</g>
<!-- Node11&#45;&gt;Node19 -->
<g id="edge42" class="edge"><title>Node11&#45;&gt;Node19</title>
<path fill="none" stroke="midnightblue" d="M519.832,-112.444C567.711,-102.65 645.909,-86.655 695.617,-76.4875"/>
<polygon fill="midnightblue" stroke="midnightblue" points="696.37,-79.9061 705.465,-74.473 694.967,-73.0481 696.37,-79.9061"/>
</g>
<!-- Node20 -->
<g id="node42" class="node"><title>Node20</title>
<polygon fill="white" stroke="#bfbfbf" points="152,-56.5 152,-75.5 206,-75.5 206,-56.5 152,-56.5"/>
<text text-anchor="middle" x="179" y="-63.5" font-family="Helvetica,sans-Serif" font-size="10.00">sys/un.h</text>
</g>
<!-- Node11&#45;&gt;Node20 -->
<g id="edge44" class="edge"><title>Node11&#45;&gt;Node20</title>
<path fill="none" stroke="midnightblue" d="M420.818,-112.491C369.68,-104.594 292.477,-91.9637 216.325,-76.1508"/>
<polygon fill="midnightblue" stroke="midnightblue" points="216.582,-72.6287 206.076,-74.0018 215.145,-79.4797 216.582,-72.6287"/>
</g>
<!-- Node11&#45;&gt;Node21 -->
<g id="edge48" class="edge"><title>Node11&#45;&gt;Node21</title>
<path fill="none" stroke="midnightblue" d="M536.613,-113.922C596.81,-106.325 693.405,-93.2249 786.386,-75.9788"/>
<polygon fill="midnightblue" stroke="midnightblue" points="787.058,-79.4139 796.242,-74.1323 785.769,-72.5336 787.058,-79.4139"/>
</g>
<!-- Node22 -->
<g id="node47" class="node"><title>Node22</title>
<polygon fill="white" stroke="#bfbfbf" points="834.5,-0.5 834.5,-19.5 877.5,-19.5 877.5,-0.5 834.5,-0.5"/>
<text text-anchor="middle" x="856" y="-7.5" font-family="Helvetica,sans-Serif" font-size="10.00">cstdio</text>
</g>
<!-- Node21&#45;&gt;Node22 -->
<g id="edge50" class="edge"><title>Node21&#45;&gt;Node22</title>
<path fill="none" stroke="midnightblue" d="M830.954,-56.083C835.104,-48.6127 841.153,-37.7244 846.267,-28.5199"/>
<polygon fill="midnightblue" stroke="midnightblue" points="849.341,-30.1924 851.138,-19.7511 843.222,-26.7929 849.341,-30.1924"/>
</g>
<!-- Node23 -->
<g id="node49" class="node"><title>Node23</title>
<polygon fill="white" stroke="#bfbfbf" points="895.5,-0.5 895.5,-19.5 940.5,-19.5 940.5,-0.5 895.5,-0.5"/>
<text text-anchor="middle" x="918" y="-7.5" font-family="Helvetica,sans-Serif" font-size="10.00">climits</text>
</g>
<!-- Node21&#45;&gt;Node23 -->
<g id="edge52" class="edge"><title>Node21&#45;&gt;Node23</title>
<path fill="none" stroke="midnightblue" d="M840.781,-56.324C855.267,-47.8215 877.573,-34.7288 894.493,-24.7975"/>
<polygon fill="midnightblue" stroke="midnightblue" points="896.403,-27.735 903.255,-19.6545 892.859,-21.6981 896.403,-27.735"/>
</g>
<!-- Node24 -->
<g id="node51" class="node"><title>Node24</title>
<polygon fill="white" stroke="#bfbfbf" points="714.5,-0.5 714.5,-19.5 755.5,-19.5 755.5,-0.5 714.5,-0.5"/>
<text text-anchor="middle" x="735" y="-7.5" font-family="Helvetica,sans-Serif" font-size="10.00">string</text>
</g>
<!-- Node21&#45;&gt;Node24 -->
<g id="edge54" class="edge"><title>Node21&#45;&gt;Node24</title>
<path fill="none" stroke="midnightblue" d="M811.379,-56.324C797.051,-47.8215 774.987,-34.7288 758.251,-24.7975"/>
<polygon fill="midnightblue" stroke="midnightblue" points="759.97,-21.7478 749.584,-19.6545 756.398,-27.7677 759.97,-21.7478"/>
</g>
<!-- Node25 -->
<g id="node53" class="node"><title>Node25</title>
<polygon fill="white" stroke="#bfbfbf" points="773.5,-0.5 773.5,-19.5 816.5,-19.5 816.5,-0.5 773.5,-0.5"/>
<text text-anchor="middle" x="795" y="-7.5" font-family="Helvetica,sans-Serif" font-size="10.00">queue</text>
</g>
<!-- Node21&#45;&gt;Node25 -->
<g id="edge56" class="edge"><title>Node21&#45;&gt;Node25</title>
<path fill="none" stroke="midnightblue" d="M820.881,-56.083C816.592,-48.6127 810.342,-37.7244 805.058,-28.5199"/>
<polygon fill="midnightblue" stroke="midnightblue" points="808.038,-26.6811 800.024,-19.7511 801.967,-30.1662 808.038,-26.6811"/>
</g>
</g>
</svg>
        <g id="navigator" transform="translate(0 0)" fill="#404254">
                <rect fill="#f2f5e9" fill-opacity="0.5" stroke="#606060" stroke-width=".5" x="0" y="0" width="60" height="60"/>
                <use id="zoomplus" xlink:href="#zoomPlus" x="17" y="9" onmousedown="handleZoom(evt,'in')"/>
                <use id="zoomminus" xlink:href="#zoomMin" x="42" y="9" onmousedown="handleZoom(evt,'out')"/>
                <use id="reset" xlink:href="#resetDef" x="30" y="36" onmousedown="handleReset()"/>
                <g id="arrowUp" xlink:href="#dirArrow" transform="translate(30 24)" onmousedown="handlePan(0,-1)">
                  <use xlink:href="#rim" fill="#404040">
                        <set attributeName="fill" to="#808080" begin="arrowUp.mouseover" end="arrowUp.mouseout"/>
                  </use>
                  <path fill="none" stroke="white" stroke-width="1.5" d="M0,-3.0v7 M-2.5,-0.5L0,-3.0L2.5,-0.5"/>
                </g>
                <g id="arrowRight" xlink:href="#dirArrow" transform="rotate(90) translate(36 -43)" onmousedown="handlePan(1,0)">
                  <use xlink:href="#rim" fill="#404040">
                        <set attributeName="fill" to="#808080" begin="arrowRight.mouseover" end="arrowRight.mouseout"/>
                  </use>
                  <path fill="none" stroke="white" stroke-width="1.5" d="M0,-3.0v7 M-2.5,-0.5L0,-3.0L2.5,-0.5"/>
                </g>
                <g id="arrowDown" xlink:href="#dirArrow" transform="rotate(180) translate(-30 -48)" onmousedown="handlePan(0,1)">
                  <use xlink:href="#rim" fill="#404040">
                        <set attributeName="fill" to="#808080" begin="arrowDown.mouseover" end="arrowDown.mouseout"/>
                  </use>
                  <path fill="none" stroke="white" stroke-width="1.5" d="M0,-3.0v7 M-2.5,-0.5L0,-3.0L2.5,-0.5"/>
                </g>
                <g id="arrowLeft" xlink:href="#dirArrow" transform="rotate(270) translate(-36 17)" onmousedown="handlePan(-1,0)">
                  <use xlink:href="#rim" fill="#404040">
                        <set attributeName="fill" to="#808080" begin="arrowLeft.mouseover" end="arrowLeft.mouseout"/>
                  </use>
                  <path fill="none" stroke="white" stroke-width="1.5" d="M0,-3.0v7 M-2.5,-0.5L0,-3.0L2.5,-0.5"/>
                </g>
        </g>
</svg>
