<?xml version="1.0" encoding="UTF-8" standalone="no"?>
<!DOCTYPE svg PUBLIC "-//W3C//DTD SVG 1.1//EN"
 "http://www.w3.org/Graphics/SVG/1.1/DTD/svg11.dtd">
<!-- Generated by graphviz version 2.28.0 (20111025.1818)
 -->
<!-- Title: G Pages: 1 -->
<svg width="210pt" height="84pt"
 viewBox="0.00 0.00 210.00 84.00" xmlns="http://www.w3.org/2000/svg" xmlns:xlink="http://www.w3.org/1999/xlink">
<g id="graph1" class="graph" transform="scale(1 1) rotate(0) translate(4 80)">
<title>G</title>
<polygon fill="white" stroke="white" points="-4,5 -4,-80 207,-80 207,5 -4,5"/>
<!-- Node1 -->
<g id="node1" class="node"><title>Node1</title>
<polygon fill="#bfbfbf" stroke="black" points="62.5,-56.5 62.5,-75.5 127.5,-75.5 127.5,-56.5 62.5,-56.5"/>
<text text-anchor="middle" x="95" y="-63.5" font-family="Helvetica,sans-Serif" font-size="10.00">cException</text>
</g>
<!-- Node2 -->
<g id="node3" class="node"><title>Node2</title>
<a xlink:href="../../d3/dbc/classcIOExc.xhtml" target="_top" xlink:title="Class handling exceptions in the I/O system.">
<polygon fill="white" stroke="black" points="0,-0.5 0,-19.5 50,-19.5 50,-0.5 0,-0.5"/>
<text text-anchor="middle" x="25" y="-7.5" font-family="Helvetica,sans-Serif" font-size="10.00">cIOExc</text>
</a>
</g>
<!-- Node1&#45;&gt;Node2 -->
<g id="edge2" class="edge"><title>Node1&#45;&gt;Node2</title>
<path fill="none" stroke="midnightblue" d="M75.6862,-50.1008C63.0883,-40.3824 47.0719,-28.0269 36.4513,-19.8339"/>
<polygon fill="midnightblue" stroke="midnightblue" points="73.6976,-52.9871 83.7533,-56.324 77.9733,-47.4446 73.6976,-52.9871"/>
</g>
<!-- Node3 -->
<g id="node5" class="node"><title>Node3</title>
<a xlink:href="../../d5/d34/classcPRExc.xhtml" target="_top" xlink:title="cPRExc">
<polygon fill="white" stroke="black" points="68.5,-0.5 68.5,-19.5 121.5,-19.5 121.5,-0.5 68.5,-0.5"/>
<text text-anchor="middle" x="95" y="-7.5" font-family="Helvetica,sans-Serif" font-size="10.00">cPRExc</text>
</a>
</g>
<!-- Node1&#45;&gt;Node3 -->
<g id="edge4" class="edge"><title>Node1&#45;&gt;Node3</title>
<path fill="none" stroke="midnightblue" d="M95,-45.8045C95,-36.9102 95,-26.7798 95,-19.7511"/>
<polygon fill="midnightblue" stroke="midnightblue" points="91.5001,-46.083 95,-56.083 98.5001,-46.083 91.5001,-46.083"/>
</g>
<!-- Node4 -->
<g id="node7" class="node"><title>Node4</title>
<a xlink:href="../../d7/d66/classcVMMExc.xhtml" target="_top" xlink:title="A class handling exceptions in the VMM Core.">
<polygon fill="white" stroke="black" points="140,-0.5 140,-19.5 202,-19.5 202,-0.5 140,-0.5"/>
<text text-anchor="middle" x="171" y="-7.5" font-family="Helvetica,sans-Serif" font-size="10.00">cVMMExc</text>
</a>
</g>
<!-- Node1&#45;&gt;Node4 -->
<g id="edge6" class="edge"><title>Node1&#45;&gt;Node4</title>
<path fill="none" stroke="midnightblue" d="M115.576,-50.3804C129.312,-40.6204 146.925,-28.1057 158.567,-19.8339"/>
<polygon fill="midnightblue" stroke="midnightblue" points="113.335,-47.6787 107.211,-56.324 117.39,-53.385 113.335,-47.6787"/>
</g>
</g>
</svg>
