<?xml version="1.0" encoding="UTF-8" standalone="no"?>
<!DOCTYPE svg PUBLIC "-//W3C//DTD SVG 1.1//EN"
 "http://www.w3.org/Graphics/SVG/1.1/DTD/svg11.dtd">
<!-- Generated by graphviz version 2.28.0 (20111025.1818)
 -->
<!-- Title: G Pages: 1 -->
<!--zoomable 320 -->
<svg id="main" version="1.1" xmlns="http://www.w3.org/2000/svg" xmlns:xlink="http://www.w3.org/1999/xlink" xml:space="preserve" onload="init(evt)">
        <defs>
                <circle id="rim" cx="0" cy="0" r="7"/>
                <circle id="rim2" cx="0" cy="0" r="3.5"/>
                <g id="zoomPlus">
                        <use xlink:href="#rim" fill="#404040">
                                <set attributeName="fill" to="#808080" begin="zoomplus.mouseover" end="zoomplus.mouseout"/>
                        </use>
                        <path d="M-4,0h8M0,-4v8" fill="none" stroke="white" stroke-width="1.5" pointer-events="none"/>
                </g>
                <g id="zoomMin">
                        <use xlink:href="#rim" fill="#404040">
                                <set attributeName="fill" to="#808080" begin="zoomminus.mouseover" end="zoomminus.mouseout"/>
                        </use>
                        <path d="M-4,0h8" fill="none" stroke="white" stroke-width="1.5" pointer-events="none"/>
                </g>
                <g id="dirArrow">
                        <path fill="none" stroke="white" stroke-width="1.5" d="M0,-3.0v7 M-2.5,-0.5L0,-3.0L2.5,-0.5"/>
                </g>
               <g id="resetDef">
                       <use xlink:href="#rim2" fill="#404040">
                               <set attributeName="fill" to="#808080" begin="reset.mouseover" end="reset.mouseout"/>
                       </use>
               </g>
        </defs>

<script type="text/javascript">
var viewWidth = 1062;
var viewHeight = 320;
var sectionId = 'dynsection-1';
</script>
<script xlink:href="../../svgpan.js"/>
<svg id="graph" class="graph">
<g id="viewport">
<title>G</title>
<polygon fill="white" stroke="white" points="-4,5 -4,-316 1059,-316 1059,5 -4,5"/>
<!-- Node1 -->
<g id="node1" class="node"><title>Node1</title>
<polygon fill="#bfbfbf" stroke="black" points="988,-154.5 988,-173.5 1054,-173.5 1054,-154.5 988,-154.5"/>
<text text-anchor="middle" x="1021" y="-161.5" font-family="Helvetica,sans-Serif" font-size="10.00">cMultiLevel</text>
</g>
<!-- Node2 -->
<g id="node2" class="node"><title>Node2</title>
<a xlink:href="../../d0/d21/classcScheduler.xhtml" target="_top" xlink:title="Abstract Interface for Schedulers.">
<polygon fill="white" stroke="black" points="754.5,-292.5 754.5,-311.5 819.5,-311.5 819.5,-292.5 754.5,-292.5"/>
<text text-anchor="middle" x="787" y="-299.5" font-family="Helvetica,sans-Serif" font-size="10.00">cScheduler</text>
</a>
</g>
<!-- Node2&#45;&gt;Node1 -->
<g id="edge2" class="edge"><title>Node2&#45;&gt;Node1</title>
<path fill="none" stroke="midnightblue" d="M829.976,-307.444C869.931,-310.296 929.767,-308.224 970,-278 1004.9,-251.779 1015.86,-195.959 1018.92,-173.577"/>
<polygon fill="midnightblue" stroke="midnightblue" points="830.03,-303.936 819.77,-306.579 829.438,-310.911 830.03,-303.936"/>
</g>
<!-- Node3 -->
<g id="node4" class="node"><title>Node3</title>
<polygon fill="white" stroke="#bfbfbf" points="694.5,-216.5 694.5,-235.5 879.5,-235.5 879.5,-216.5 694.5,-216.5"/>
<text text-anchor="middle" x="787" y="-223.5" font-family="Helvetica,sans-Serif" font-size="10.00">std::vector&lt; queue&lt; ProcessInfo * &gt; &gt;</text>
</g>
<!-- Node3&#45;&gt;Node1 -->
<g id="edge4" class="edge"><title>Node3&#45;&gt;Node1</title>
<path fill="none" stroke="#9a32cd" stroke-dasharray="5,2" d="M889.825,-221.085C916.607,-217.371 944.987,-211.188 970,-201 985.602,-194.645 1000.76,-182.296 1010.21,-173.618"/>
<polygon fill="#9a32cd" stroke="#9a32cd" points="889.123,-217.646 879.65,-222.39 890.014,-224.589 889.123,-217.646"/>
<text text-anchor="middle" x="934" y="-222" font-family="Helvetica,sans-Serif" font-size="10.00"> readyQueues</text>
</g>
<!-- Node4 -->
<g id="node6" class="node"><title>Node4</title>
<polygon fill="white" stroke="#bfbfbf" points="378,-216.5 378,-235.5 518,-235.5 518,-216.5 378,-216.5"/>
<text text-anchor="middle" x="448" y="-223.5" font-family="Helvetica,sans-Serif" font-size="10.00">std::queue&lt; ProcessInfo * &gt;</text>
</g>
<!-- Node4&#45;&gt;Node3 -->
<g id="edge6" class="edge"><title>Node4&#45;&gt;Node3</title>
<path fill="none" stroke="#9a32cd" stroke-dasharray="5,2" d="M528.085,-226C577.886,-226 642.357,-226 694.382,-226"/>
<polygon fill="#9a32cd" stroke="#9a32cd" points="528.01,-222.5 518.01,-226 528.01,-229.5 528.01,-222.5"/>
<text text-anchor="middle" x="606" y="-229" font-family="Helvetica,sans-Serif" font-size="10.00"> elements</text>
</g>
<!-- Node5 -->
<g id="node8" class="node"><title>Node5</title>
<a xlink:href="../../dd/dc8/structProcessInfo.xhtml" target="_top" xlink:title="Structure for containing process state and data.">
<polygon fill="white" stroke="black" points="196.5,-216.5 196.5,-235.5 265.5,-235.5 265.5,-216.5 196.5,-216.5"/>
<text text-anchor="middle" x="231" y="-223.5" font-family="Helvetica,sans-Serif" font-size="10.00">ProcessInfo</text>
</a>
</g>
<!-- Node5&#45;&gt;Node1 -->
<g id="edge10" class="edge"><title>Node5&#45;&gt;Node1</title>
<path fill="none" stroke="#9a32cd" stroke-dasharray="5,2" d="M275.82,-234.784C288.718,-237.11 302.887,-239.411 316,-241 343.412,-244.321 350.401,-244.111 378,-245 600.995,-252.186 657.301,-258.559 880,-245 920.223,-242.551 935.355,-254.583 970,-234 993.881,-219.812 1009.45,-189.288 1016.19,-173.657"/>
<polygon fill="#9a32cd" stroke="#9a32cd" points="276.263,-231.307 265.793,-232.928 274.988,-238.19 276.263,-231.307"/>
<text text-anchor="middle" x="606" y="-255" font-family="Helvetica,sans-Serif" font-size="10.00"> runningProc</text>
</g>
<!-- Node5&#45;&gt;Node4 -->
<g id="edge8" class="edge"><title>Node5&#45;&gt;Node4</title>
<path fill="none" stroke="#9a32cd" stroke-dasharray="5,2" d="M275.899,-226C305.155,-226 344.223,-226 377.641,-226"/>
<polygon fill="#9a32cd" stroke="#9a32cd" points="275.594,-222.5 265.594,-226 275.594,-229.5 275.594,-222.5"/>
<text text-anchor="middle" x="338" y="-229" font-family="Helvetica,sans-Serif" font-size="10.00"> elements</text>
</g>
<!-- Node10 -->
<g id="node19" class="node"><title>Node10</title>
<polygon fill="white" stroke="#bfbfbf" points="536,-177.5 536,-196.5 676,-196.5 676,-177.5 536,-177.5"/>
<text text-anchor="middle" x="606" y="-184.5" font-family="Helvetica,sans-Serif" font-size="10.00">std::vector&lt; ProcessInfo * &gt;</text>
</g>
<!-- Node5&#45;&gt;Node10 -->
<g id="edge22" class="edge"><title>Node5&#45;&gt;Node10</title>
<path fill="none" stroke="#9a32cd" stroke-dasharray="5,2" d="M275.84,-217.37C288.738,-215.048 302.902,-212.709 316,-211 390.884,-201.226 477.234,-194.667 535.903,-190.91"/>
<polygon fill="#9a32cd" stroke="#9a32cd" points="275.012,-213.963 265.811,-219.216 276.279,-220.847 275.012,-213.963"/>
<text text-anchor="middle" x="338" y="-214" font-family="Helvetica,sans-Serif" font-size="10.00"> elements</text>
</g>
<!-- Node6 -->
<g id="node11" class="node"><title>Node6</title>
<polygon fill="white" stroke="#bfbfbf" points="729.5,-131.5 729.5,-150.5 844.5,-150.5 844.5,-131.5 729.5,-131.5"/>
<text text-anchor="middle" x="787" y="-138.5" font-family="Helvetica,sans-Serif" font-size="10.00">std::queue&lt; pidType &gt;</text>
</g>
<!-- Node6&#45;&gt;Node1 -->
<g id="edge12" class="edge"><title>Node6&#45;&gt;Node1</title>
<path fill="none" stroke="#9a32cd" stroke-dasharray="5,2" d="M854.735,-147.616C898.405,-151.945 953.516,-157.409 987.761,-160.804"/>
<polygon fill="#9a32cd" stroke="#9a32cd" points="855.05,-144.13 844.754,-146.626 854.359,-151.096 855.05,-144.13"/>
<text text-anchor="middle" x="934" y="-162" font-family="Helvetica,sans-Serif" font-size="10.00"> traceUnblocked</text>
</g>
<!-- Node7 -->
<g id="node13" class="node"><title>Node7</title>
<a xlink:href="../../de/dd4/classcIDManager.xhtml" target="_top" xlink:title="A class for managing unique IDs.">
<polygon fill="white" stroke="black" points="413,-51.5 413,-70.5 483,-70.5 483,-51.5 413,-51.5"/>
<text text-anchor="middle" x="448" y="-58.5" font-family="Helvetica,sans-Serif" font-size="10.00">cIDManager</text>
</a>
</g>
<!-- Node7&#45;&gt;Node1 -->
<g id="edge14" class="edge"><title>Node7&#45;&gt;Node1</title>
<path fill="none" stroke="#9a32cd" stroke-dasharray="5,2" d="M493.175,-56.5269C572.054,-49.7916 741.815,-40.9872 880,-73 922.821,-82.9202 933.883,-88.9483 970,-114 986.745,-125.614 1002.8,-143.19 1012.01,-154.112"/>
<polygon fill="#9a32cd" stroke="#9a32cd" points="492.763,-53.0496 483.111,-57.4178 493.381,-60.0223 492.763,-53.0496"/>
<text text-anchor="middle" x="787" y="-76" font-family="Helvetica,sans-Serif" font-size="10.00"> blockedID</text>
</g>
<!-- Node11 -->
<g id="node22" class="node"><title>Node11</title>
<a xlink:href="../../db/d63/classcProcessLogger.xhtml" target="_top" xlink:title="Class specifically for logging process state information.">
<polygon fill="white" stroke="black" points="743.5,-93.5 743.5,-112.5 830.5,-112.5 830.5,-93.5 743.5,-93.5"/>
<text text-anchor="middle" x="787" y="-100.5" font-family="Helvetica,sans-Serif" font-size="10.00">cProcessLogger</text>
</a>
</g>
<!-- Node7&#45;&gt;Node11 -->
<g id="edge34" class="edge"><title>Node7&#45;&gt;Node11</title>
<path fill="none" stroke="#9a32cd" stroke-dasharray="5,2" d="M493.427,-66.0563C539.209,-71.3204 612.632,-79.9115 676,-88 698.273,-90.8431 723.055,-94.2049 743.449,-97.0246"/>
<polygon fill="#9a32cd" stroke="#9a32cd" points="493.583,-62.5513 483.249,-64.8886 492.785,-69.5057 493.583,-62.5513"/>
<text text-anchor="middle" x="606" y="-91" font-family="Helvetica,sans-Serif" font-size="10.00"> lineIDs</text>
</g>
<!-- Node8 -->
<g id="node15" class="node"><title>Node8</title>
<polygon fill="white" stroke="#bfbfbf" points="164.5,-51.5 164.5,-70.5 297.5,-70.5 297.5,-51.5 164.5,-51.5"/>
<text text-anchor="middle" x="231" y="-58.5" font-family="Helvetica,sans-Serif" font-size="10.00">std::queue&lt; unsigned int &gt;</text>
</g>
<!-- Node8&#45;&gt;Node7 -->
<g id="edge16" class="edge"><title>Node8&#45;&gt;Node7</title>
<path fill="none" stroke="#9a32cd" stroke-dasharray="5,2" d="M308.11,-61C343.908,-61 384.795,-61 412.888,-61"/>
<polygon fill="#9a32cd" stroke="#9a32cd" points="307.675,-57.5001 297.675,-61 307.675,-64.5001 307.675,-57.5001"/>
<text text-anchor="middle" x="338" y="-64" font-family="Helvetica,sans-Serif" font-size="10.00"> freeID</text>
</g>
<!-- Node9 -->
<g id="node17" class="node"><title>Node9</title>
<polygon fill="white" stroke="#bfbfbf" points="741,-0.5 741,-19.5 833,-19.5 833,-0.5 741,-0.5"/>
<text text-anchor="middle" x="787" y="-7.5" font-family="Helvetica,sans-Serif" font-size="10.00">std::vector&lt; int &gt;</text>
</g>
<!-- Node9&#45;&gt;Node1 -->
<g id="edge18" class="edge"><title>Node9&#45;&gt;Node1</title>
<path fill="none" stroke="#9a32cd" stroke-dasharray="5,2" d="M843.48,-2.21299C882.764,0.18982 934.562,-3.32369 970,-31 1010.05,-62.2781 1018.02,-129.338 1019.61,-154.341"/>
<polygon fill="#9a32cd" stroke="#9a32cd" points="842.976,1.259 833.269,-2.98586 843.505,-5.72104 842.976,1.259"/>
<text text-anchor="middle" x="934" y="-34" font-family="Helvetica,sans-Serif" font-size="10.00"> levelQuantas</text>
</g>
<!-- Node10&#45;&gt;Node1 -->
<g id="edge20" class="edge"><title>Node10&#45;&gt;Node1</title>
<path fill="none" stroke="#9a32cd" stroke-dasharray="5,2" d="M686.258,-187.119C759.953,-186.479 872.693,-183.582 970,-173 975.787,-172.371 981.914,-171.468 987.82,-170.474"/>
<polygon fill="#9a32cd" stroke="#9a32cd" points="686.098,-183.62 676.124,-187.195 686.15,-190.62 686.098,-183.62"/>
<text text-anchor="middle" x="787" y="-189" font-family="Helvetica,sans-Serif" font-size="10.00"> blockedVector</text>
</g>
<!-- Node11&#45;&gt;Node1 -->
<g id="edge24" class="edge"><title>Node11&#45;&gt;Node1</title>
<path fill="none" stroke="#9a32cd" stroke-dasharray="5,2" d="M840.588,-108.438C877.556,-113.311 927.757,-122.061 970,-137 982.463,-141.407 995.578,-148.598 1005.25,-154.451"/>
<polygon fill="#9a32cd" stroke="#9a32cd" points="840.89,-104.948 830.53,-107.165 840.011,-111.893 840.89,-104.948"/>
<text text-anchor="middle" x="934" y="-140" font-family="Helvetica,sans-Serif" font-size="10.00"> procLogger</text>
</g>
<!-- Node12 -->
<g id="node24" class="node"><title>Node12</title>
<polygon fill="white" stroke="#bfbfbf" points="395.5,-93.5 395.5,-112.5 500.5,-112.5 500.5,-93.5 395.5,-93.5"/>
<text text-anchor="middle" x="448" y="-100.5" font-family="Helvetica,sans-Serif" font-size="10.00">std::vector&lt; string &gt;</text>
</g>
<!-- Node12&#45;&gt;Node11 -->
<g id="edge26" class="edge"><title>Node12&#45;&gt;Node11</title>
<path fill="none" stroke="#9a32cd" stroke-dasharray="5,2" d="M510.618,-103C578.065,-103 684.422,-103 743.272,-103"/>
<polygon fill="#9a32cd" stroke="#9a32cd" points="510.55,-99.5001 500.55,-103 510.55,-106.5 510.55,-99.5001"/>
<text text-anchor="middle" x="606" y="-106" font-family="Helvetica,sans-Serif" font-size="10.00"> procNames</text>
</g>
<!-- Node13 -->
<g id="node26" class="node"><title>Node13</title>
<a xlink:title="STL class.">
<polygon fill="white" stroke="#bfbfbf" points="201,-121.5 201,-140.5 261,-140.5 261,-121.5 201,-121.5"/>
<text text-anchor="middle" x="231" y="-128.5" font-family="Helvetica,sans-Serif" font-size="10.00">std::string</text>
</a>
</g>
<!-- Node13&#45;&gt;Node11 -->
<g id="edge32" class="edge"><title>Node13&#45;&gt;Node11</title>
<path fill="none" stroke="#9a32cd" stroke-dasharray="5,2" d="M271.535,-132.92C296.832,-133.903 330.349,-134.75 360,-134 500.579,-130.443 535.984,-131.067 676,-118 698.261,-115.922 722.933,-112.648 743.261,-109.688"/>
<polygon fill="#9a32cd" stroke="#9a32cd" points="271.368,-129.411 261.232,-132.495 271.079,-136.405 271.368,-129.411"/>
<text text-anchor="middle" x="448" y="-136" font-family="Helvetica,sans-Serif" font-size="10.00"> nameFile</text>
</g>
<!-- Node13&#45;&gt;Node12 -->
<g id="edge28" class="edge"><title>Node13&#45;&gt;Node12</title>
<path fill="none" stroke="#9a32cd" stroke-dasharray="5,2" d="M271.693,-125.831C306.476,-121.301 357.264,-114.687 395.232,-109.742"/>
<polygon fill="#9a32cd" stroke="#9a32cd" points="270.908,-122.403 261.444,-127.165 271.812,-129.345 270.908,-122.403"/>
<text text-anchor="middle" x="338" y="-122" font-family="Helvetica,sans-Serif" font-size="10.00"> elements</text>
</g>
<!-- Node14 -->
<g id="node28" class="node"><title>Node14</title>
<a xlink:title="STL class.">
<polygon fill="white" stroke="#bfbfbf" points="0.5,-121.5 0.5,-140.5 125.5,-140.5 125.5,-121.5 0.5,-121.5"/>
<text text-anchor="middle" x="63" y="-128.5" font-family="Helvetica,sans-Serif" font-size="10.00">std::basic_string&lt; char &gt;</text>
</a>
</g>
<!-- Node14&#45;&gt;Node13 -->
<g id="edge30" class="edge"><title>Node14&#45;&gt;Node13</title>
<path fill="none" stroke="midnightblue" d="M135.843,-131C158.66,-131 182.622,-131 200.663,-131"/>
<polygon fill="midnightblue" stroke="midnightblue" points="135.812,-127.5 125.812,-131 135.812,-134.5 135.812,-127.5"/>
</g>
</g>
</svg>
        <g id="navigator" transform="translate(0 0)" fill="#404254">
                <rect fill="#f2f5e9" fill-opacity="0.5" stroke="#606060" stroke-width=".5" x="0" y="0" width="60" height="60"/>
                <use id="zoomplus" xlink:href="#zoomPlus" x="17" y="9" onmousedown="handleZoom(evt,'in')"/>
                <use id="zoomminus" xlink:href="#zoomMin" x="42" y="9" onmousedown="handleZoom(evt,'out')"/>
                <use id="reset" xlink:href="#resetDef" x="30" y="36" onmousedown="handleReset()"/>
                <g id="arrowUp" xlink:href="#dirArrow" transform="translate(30 24)" onmousedown="handlePan(0,-1)">
                  <use xlink:href="#rim" fill="#404040">
                        <set attributeName="fill" to="#808080" begin="arrowUp.mouseover" end="arrowUp.mouseout"/>
                  </use>
                  <path fill="none" stroke="white" stroke-width="1.5" d="M0,-3.0v7 M-2.5,-0.5L0,-3.0L2.5,-0.5"/>
                </g>
                <g id="arrowRight" xlink:href="#dirArrow" transform="rotate(90) translate(36 -43)" onmousedown="handlePan(1,0)">
                  <use xlink:href="#rim" fill="#404040">
                        <set attributeName="fill" to="#808080" begin="arrowRight.mouseover" end="arrowRight.mouseout"/>
                  </use>
                  <path fill="none" stroke="white" stroke-width="1.5" d="M0,-3.0v7 M-2.5,-0.5L0,-3.0L2.5,-0.5"/>
                </g>
                <g id="arrowDown" xlink:href="#dirArrow" transform="rotate(180) translate(-30 -48)" onmousedown="handlePan(0,1)">
                  <use xlink:href="#rim" fill="#404040">
                        <set attributeName="fill" to="#808080" begin="arrowDown.mouseover" end="arrowDown.mouseout"/>
                  </use>
                  <path fill="none" stroke="white" stroke-width="1.5" d="M0,-3.0v7 M-2.5,-0.5L0,-3.0L2.5,-0.5"/>
                </g>
                <g id="arrowLeft" xlink:href="#dirArrow" transform="rotate(270) translate(-36 17)" onmousedown="handlePan(-1,0)">
                  <use xlink:href="#rim" fill="#404040">
                        <set attributeName="fill" to="#808080" begin="arrowLeft.mouseover" end="arrowLeft.mouseout"/>
                  </use>
                  <path fill="none" stroke="white" stroke-width="1.5" d="M0,-3.0v7 M-2.5,-0.5L0,-3.0L2.5,-0.5"/>
                </g>
        </g>
</svg>
