<?xml version="1.0" encoding="UTF-8" standalone="no"?>
<!DOCTYPE svg PUBLIC "-//W3C//DTD SVG 1.1//EN"
 "http://www.w3.org/Graphics/SVG/1.1/DTD/svg11.dtd">
<!-- Generated by graphviz version 2.28.0 (20111025.1818)
 -->
<!-- Title: G Pages: 1 -->
<svg width="327pt" height="140pt"
 viewBox="0.00 0.00 327.00 140.00" xmlns="http://www.w3.org/2000/svg" xmlns:xlink="http://www.w3.org/1999/xlink">
<g id="graph1" class="graph" transform="scale(1 1) rotate(0) translate(4 136)">
<title>G</title>
<polygon fill="white" stroke="white" points="-4,5 -4,-136 324,-136 324,5 -4,5"/>
<!-- Node1 -->
<g id="node1" class="node"><title>Node1</title>
<polygon fill="#bfbfbf" stroke="black" points="43,-112.5 43,-131.5 195,-131.5 195,-112.5 43,-112.5"/>
<text text-anchor="middle" x="119" y="-119.5" font-family="Helvetica,sans-Serif" font-size="10.00">include/devices/clock_device.h</text>
</g>
<!-- Node2 -->
<g id="node3" class="node"><title>Node2</title>
<polygon fill="white" stroke="#bfbfbf" points="-0.5,-56.5 -0.5,-75.5 46.5,-75.5 46.5,-56.5 -0.5,-56.5"/>
<text text-anchor="middle" x="23" y="-63.5" font-family="Helvetica,sans-Serif" font-size="10.00">errno.h</text>
</g>
<!-- Node1&#45;&gt;Node2 -->
<g id="edge2" class="edge"><title>Node1&#45;&gt;Node2</title>
<path fill="none" stroke="midnightblue" d="M103.576,-112.324C88.4605,-103.822 65.1846,-90.7288 47.5288,-80.7975"/>
<polygon fill="midnightblue" stroke="midnightblue" points="48.8175,-77.5066 38.3858,-75.6545 45.3856,-83.6077 48.8175,-77.5066"/>
</g>
<!-- Node3 -->
<g id="node5" class="node"><title>Node3</title>
<polygon fill="white" stroke="#bfbfbf" points="65,-56.5 65,-75.5 111,-75.5 111,-56.5 65,-56.5"/>
<text text-anchor="middle" x="88" y="-63.5" font-family="Helvetica,sans-Serif" font-size="10.00">cstring</text>
</g>
<!-- Node1&#45;&gt;Node3 -->
<g id="edge4" class="edge"><title>Node1&#45;&gt;Node3</title>
<path fill="none" stroke="midnightblue" d="M113.881,-112.083C109.592,-104.613 103.342,-93.7244 98.0577,-84.5199"/>
<polygon fill="midnightblue" stroke="midnightblue" points="101.038,-82.6811 93.0238,-75.7511 94.9671,-86.1662 101.038,-82.6811"/>
</g>
<!-- Node4 -->
<g id="node7" class="node"><title>Node4</title>
<polygon fill="white" stroke="#bfbfbf" points="129.5,-56.5 129.5,-75.5 170.5,-75.5 170.5,-56.5 129.5,-56.5"/>
<text text-anchor="middle" x="150" y="-63.5" font-family="Helvetica,sans-Serif" font-size="10.00">string</text>
</g>
<!-- Node1&#45;&gt;Node4 -->
<g id="edge6" class="edge"><title>Node1&#45;&gt;Node4</title>
<path fill="none" stroke="midnightblue" d="M124.119,-112.083C128.408,-104.613 134.658,-93.7244 139.942,-84.5199"/>
<polygon fill="midnightblue" stroke="midnightblue" points="143.033,-86.1662 144.976,-75.7511 136.962,-82.6811 143.033,-86.1662"/>
</g>
<!-- Node5 -->
<g id="node9" class="node"><title>Node5</title>
<a xlink:href="../../d0/d8f/abstract__device_8h_source.xhtml" target="_top" xlink:title="devices/abstract_device.h">
<polygon fill="white" stroke="black" points="188.5,-56.5 188.5,-75.5 319.5,-75.5 319.5,-56.5 188.5,-56.5"/>
<text text-anchor="middle" x="254" y="-63.5" font-family="Helvetica,sans-Serif" font-size="10.00">devices/abstract_device.h</text>
</a>
</g>
<!-- Node1&#45;&gt;Node5 -->
<g id="edge8" class="edge"><title>Node1&#45;&gt;Node5</title>
<path fill="none" stroke="midnightblue" d="M140.391,-112.444C162.707,-103.517 197.903,-89.4387 223.208,-79.3168"/>
<polygon fill="midnightblue" stroke="midnightblue" points="224.724,-82.4801 232.709,-75.5164 222.124,-75.9807 224.724,-82.4801"/>
</g>
<!-- Node6 -->
<g id="node11" class="node"><title>Node6</title>
<polygon fill="white" stroke="#bfbfbf" points="199,-0.5 199,-19.5 243,-19.5 243,-0.5 199,-0.5"/>
<text text-anchor="middle" x="221" y="-7.5" font-family="Helvetica,sans-Serif" font-size="10.00">time.h</text>
</g>
<!-- Node5&#45;&gt;Node6 -->
<g id="edge10" class="edge"><title>Node5&#45;&gt;Node6</title>
<path fill="none" stroke="midnightblue" d="M248.551,-56.083C243.986,-48.6127 237.332,-37.7244 231.707,-28.5199"/>
<polygon fill="midnightblue" stroke="midnightblue" points="234.549,-26.4588 226.348,-19.7511 228.576,-30.109 234.549,-26.4588"/>
</g>
<!-- Node7 -->
<g id="node13" class="node"><title>Node7</title>
<polygon fill="white" stroke="#bfbfbf" points="261,-0.5 261,-19.5 311,-19.5 311,-0.5 261,-0.5"/>
<text text-anchor="middle" x="286" y="-7.5" font-family="Helvetica,sans-Serif" font-size="10.00">signal.h</text>
</g>
<!-- Node5&#45;&gt;Node7 -->
<g id="edge12" class="edge"><title>Node5&#45;&gt;Node7</title>
<path fill="none" stroke="midnightblue" d="M259.284,-56.083C263.711,-48.6127 270.163,-37.7244 275.618,-28.5199"/>
<polygon fill="midnightblue" stroke="midnightblue" points="278.727,-30.1383 280.814,-19.7511 272.705,-26.5697 278.727,-30.1383"/>
</g>
</g>
</svg>
