<?xml version="1.0" encoding="UTF-8" standalone="no"?>
<!DOCTYPE svg PUBLIC "-//W3C//DTD SVG 1.1//EN"
 "http://www.w3.org/Graphics/SVG/1.1/DTD/svg11.dtd">
<!-- Generated by graphviz version 2.28.0 (20111025.1818)
 -->
<!-- Title: G Pages: 1 -->
<svg width="468pt" height="164pt"
 viewBox="0.00 0.00 468.00 164.00" xmlns="http://www.w3.org/2000/svg" xmlns:xlink="http://www.w3.org/1999/xlink">
<g id="graph1" class="graph" transform="scale(1 1) rotate(0) translate(4 160)">
<title>G</title>
<polygon fill="white" stroke="white" points="-4,5 -4,-160 465,-160 465,5 -4,5"/>
<!-- Node1 -->
<g id="node1" class="node"><title>Node1</title>
<polygon fill="#bfbfbf" stroke="black" points="175.5,-0.5 175.5,-19.5 228.5,-19.5 228.5,-0.5 175.5,-0.5"/>
<text text-anchor="middle" x="202" y="-7.5" font-family="Helvetica,sans-Serif" font-size="10.00">cPRFifo</text>
</g>
<!-- Node2 -->
<g id="node2" class="node"><title>Node2</title>
<a xlink:href="../../d7/df0/classcPRPolicy.xhtml" target="_top" xlink:title="Abstract Page Replacement Policy.">
<polygon fill="white" stroke="black" points="-0.5,-68.5 -0.5,-87.5 62.5,-87.5 62.5,-68.5 -0.5,-68.5"/>
<text text-anchor="middle" x="31" y="-75.5" font-family="Helvetica,sans-Serif" font-size="10.00">cPRPolicy</text>
</a>
</g>
<!-- Node2&#45;&gt;Node1 -->
<g id="edge2" class="edge"><title>Node2&#45;&gt;Node1</title>
<path fill="none" stroke="midnightblue" d="M62.8528,-64.7059C96.9473,-51.5466 150.139,-31.0166 179.91,-19.5259"/>
<polygon fill="midnightblue" stroke="midnightblue" points="61.4242,-61.5056 53.3553,-68.3717 63.9448,-68.0361 61.4242,-61.5056"/>
</g>
<!-- Node3 -->
<g id="node4" class="node"><title>Node3</title>
<polygon fill="white" stroke="#bfbfbf" points="80.5,-68.5 80.5,-87.5 213.5,-87.5 213.5,-68.5 80.5,-68.5"/>
<text text-anchor="middle" x="147" y="-75.5" font-family="Helvetica,sans-Serif" font-size="10.00">std::queue&lt; unsigned int &gt;</text>
</g>
<!-- Node3&#45;&gt;Node1 -->
<g id="edge4" class="edge"><title>Node3&#45;&gt;Node1</title>
<path fill="none" stroke="#9a32cd" stroke-dasharray="5,2" d="M160.033,-60.19C165.498,-53.2501 171.973,-45.1684 178,-38 183.166,-31.8555 189.166,-25.1055 193.875,-19.8916"/>
<polygon fill="#9a32cd" stroke="#9a32cd" points="157.161,-58.1811 153.76,-68.2152 162.676,-62.4921 157.161,-58.1811"/>
<text text-anchor="middle" x="207" y="-41.5" font-family="Helvetica,sans-Serif" font-size="10.00"> pageOwners</text>
</g>
<!-- Node4 -->
<g id="node6" class="node"><title>Node4</title>
<polygon fill="white" stroke="#bfbfbf" points="232,-68.5 232,-87.5 344,-87.5 344,-68.5 232,-68.5"/>
<text text-anchor="middle" x="288" y="-75.5" font-family="Helvetica,sans-Serif" font-size="10.00">std::queue&lt; sPTE * &gt;</text>
</g>
<!-- Node4&#45;&gt;Node1 -->
<g id="edge6" class="edge"><title>Node4&#45;&gt;Node1</title>
<path fill="none" stroke="#9a32cd" stroke-dasharray="5,2" d="M268.58,-62.0961C251.517,-49.0012 227.282,-30.4028 213.246,-19.6305"/>
<polygon fill="#9a32cd" stroke="#9a32cd" points="266.693,-65.06 276.757,-68.3717 270.955,-59.5068 266.693,-65.06"/>
<text text-anchor="middle" x="274.5" y="-41.5" font-family="Helvetica,sans-Serif" font-size="10.00"> pageHist</text>
</g>
<!-- Node5 -->
<g id="node8" class="node"><title>Node5</title>
<a xlink:href="../../db/d4b/structsPTE.xhtml" target="_top" xlink:title="A struct representing a single page table entry.">
<polygon fill="white" stroke="black" points="267.5,-136.5 267.5,-155.5 308.5,-155.5 308.5,-136.5 267.5,-136.5"/>
<text text-anchor="middle" x="288" y="-143.5" font-family="Helvetica,sans-Serif" font-size="10.00">sPTE</text>
</a>
</g>
<!-- Node5&#45;&gt;Node4 -->
<g id="edge8" class="edge"><title>Node5&#45;&gt;Node4</title>
<path fill="none" stroke="#9a32cd" stroke-dasharray="5,2" d="M288,-126.041C288,-113.472 288,-97.5631 288,-87.8411"/>
<polygon fill="#9a32cd" stroke="#9a32cd" points="284.5,-126.372 288,-136.372 291.5,-126.372 284.5,-126.372"/>
<text text-anchor="middle" x="309.5" y="-109.5" font-family="Helvetica,sans-Serif" font-size="10.00"> elements</text>
</g>
<!-- Node6 -->
<g id="node10" class="node"><title>Node6</title>
<a xlink:href="../../d3/dd2/classcFrameAllocPolicy.xhtml" target="_top" xlink:title="An abstract class for allocating frames to processes.">
<polygon fill="white" stroke="black" points="362,-68.5 362,-87.5 460,-87.5 460,-68.5 362,-68.5"/>
<text text-anchor="middle" x="411" y="-75.5" font-family="Helvetica,sans-Serif" font-size="10.00">cFrameAllocPolicy</text>
</a>
</g>
<!-- Node6&#45;&gt;Node1 -->
<g id="edge10" class="edge"><title>Node6&#45;&gt;Node1</title>
<path fill="none" stroke="#9a32cd" stroke-dasharray="5,2" d="M378.663,-64.9749C356.624,-56.9433 326.708,-46.3603 300,-38 276.084,-30.5139 248.548,-23.0254 228.765,-17.8404"/>
<polygon fill="#9a32cd" stroke="#9a32cd" points="377.601,-68.3133 388.195,-68.4684 380.01,-61.7408 377.601,-68.3133"/>
<text text-anchor="middle" x="355.5" y="-41.5" font-family="Helvetica,sans-Serif" font-size="10.00"> FAPolicy</text>
</g>
</g>
</svg>
