<?xml version="1.0" encoding="UTF-8" standalone="no"?>
<!DOCTYPE svg PUBLIC "-//W3C//DTD SVG 1.1//EN"
 "http://www.w3.org/Graphics/SVG/1.1/DTD/svg11.dtd">
<!-- Generated by graphviz version 2.28.0 (20111025.1818)
 -->
<!-- Title: G Pages: 1 -->
<svg width="273pt" height="252pt"
 viewBox="0.00 0.00 273.00 252.00" xmlns="http://www.w3.org/2000/svg" xmlns:xlink="http://www.w3.org/1999/xlink">
<g id="graph1" class="graph" transform="scale(1 1) rotate(0) translate(4 248)">
<title>G</title>
<polygon fill="white" stroke="white" points="-4,5 -4,-248 270,-248 270,5 -4,5"/>
<!-- Node1 -->
<g id="node1" class="node"><title>Node1</title>
<polygon fill="#bfbfbf" stroke="black" points="66.5,-224.5 66.5,-243.5 159.5,-243.5 159.5,-224.5 66.5,-224.5"/>
<text text-anchor="middle" x="113" y="-231.5" font-family="Helvetica,sans-Serif" font-size="10.00">include/process.h</text>
</g>
<!-- Node2 -->
<g id="node3" class="node"><title>Node2</title>
<a xlink:href="../../d2/dd8/scheduler_8h_source.xhtml" target="_top" xlink:title="include/scheduler/scheduler.h">
<polygon fill="white" stroke="black" points="40,-168.5 40,-187.5 186,-187.5 186,-168.5 40,-168.5"/>
<text text-anchor="middle" x="113" y="-175.5" font-family="Helvetica,sans-Serif" font-size="10.00">include/scheduler/scheduler.h</text>
</a>
</g>
<!-- Node1&#45;&gt;Node2 -->
<g id="edge2" class="edge"><title>Node1&#45;&gt;Node2</title>
<path fill="none" stroke="midnightblue" d="M113,-213.805C113,-204.91 113,-194.78 113,-187.751"/>
<polygon fill="midnightblue" stroke="midnightblue" points="109.5,-214.083 113,-224.083 116.5,-214.083 109.5,-214.083"/>
</g>
<!-- Node3 -->
<g id="node5" class="node"><title>Node3</title>
<a xlink:href="../../db/d41/fcfs_8h_source.xhtml" target="_top" xlink:title="include/scheduler/fcfs.h">
<polygon fill="white" stroke="black" points="53,-112.5 53,-131.5 173,-131.5 173,-112.5 53,-112.5"/>
<text text-anchor="middle" x="113" y="-119.5" font-family="Helvetica,sans-Serif" font-size="10.00">include/scheduler/fcfs.h</text>
</a>
</g>
<!-- Node2&#45;&gt;Node3 -->
<g id="edge4" class="edge"><title>Node2&#45;&gt;Node3</title>
<path fill="none" stroke="midnightblue" d="M113,-157.805C113,-148.91 113,-138.78 113,-131.751"/>
<polygon fill="midnightblue" stroke="midnightblue" points="109.5,-158.083 113,-168.083 116.5,-158.083 109.5,-158.083"/>
</g>
<!-- Node4 -->
<g id="node7" class="node"><title>Node4</title>
<a xlink:href="../../d0/daa/kernel_8h.xhtml" target="_top" xlink:title="include/kernel.h">
<polygon fill="white" stroke="black" points="-0.5,-56.5 -0.5,-75.5 84.5,-75.5 84.5,-56.5 -0.5,-56.5"/>
<text text-anchor="middle" x="42" y="-63.5" font-family="Helvetica,sans-Serif" font-size="10.00">include/kernel.h</text>
</a>
</g>
<!-- Node3&#45;&gt;Node4 -->
<g id="edge6" class="edge"><title>Node3&#45;&gt;Node4</title>
<path fill="none" stroke="midnightblue" d="M93.4103,-106.101C80.6324,-96.3824 64.3873,-84.0269 53.6149,-75.8339"/>
<polygon fill="midnightblue" stroke="midnightblue" points="91.5143,-109.056 101.593,-112.324 95.7519,-103.484 91.5143,-109.056"/>
</g>
<!-- Node6 -->
<g id="node11" class="node"><title>Node6</title>
<a xlink:href="../../d5/d8b/allSchedulers_8h_source.xhtml" target="_top" xlink:title="include/scheduler/allSchedulers.h">
<polygon fill="white" stroke="black" points="103,-56.5 103,-75.5 265,-75.5 265,-56.5 103,-56.5"/>
<text text-anchor="middle" x="184" y="-63.5" font-family="Helvetica,sans-Serif" font-size="10.00">include/scheduler/allSchedulers.h</text>
</a>
</g>
<!-- Node3&#45;&gt;Node6 -->
<g id="edge10" class="edge"><title>Node3&#45;&gt;Node6</title>
<path fill="none" stroke="midnightblue" d="M132.59,-106.101C145.368,-96.3824 161.613,-84.0269 172.385,-75.8339"/>
<polygon fill="midnightblue" stroke="midnightblue" points="130.248,-103.484 124.407,-112.324 134.486,-109.056 130.248,-103.484"/>
</g>
<!-- Node5 -->
<g id="node9" class="node"><title>Node5</title>
<a xlink:href="../../d8/dc0/init_8h_source.xhtml" target="_top" xlink:title="include/init.h">
<polygon fill="white" stroke="black" points="6.5,-0.5 6.5,-19.5 77.5,-19.5 77.5,-0.5 6.5,-0.5"/>
<text text-anchor="middle" x="42" y="-7.5" font-family="Helvetica,sans-Serif" font-size="10.00">include/init.h</text>
</a>
</g>
<!-- Node4&#45;&gt;Node5 -->
<g id="edge8" class="edge"><title>Node4&#45;&gt;Node5</title>
<path fill="none" stroke="midnightblue" d="M42,-45.8045C42,-36.9102 42,-26.7798 42,-19.7511"/>
<polygon fill="midnightblue" stroke="midnightblue" points="38.5001,-46.083 42,-56.083 45.5001,-46.083 38.5001,-46.083"/>
</g>
</g>
</svg>
