<?xml version="1.0" encoding="UTF-8" standalone="no"?>
<!DOCTYPE svg PUBLIC "-//W3C//DTD SVG 1.1//EN"
 "http://www.w3.org/Graphics/SVG/1.1/DTD/svg11.dtd">
<!-- Generated by graphviz version 2.28.0 (20111025.1818)
 -->
<!-- Title: G Pages: 1 -->
<!--zoomable 364 -->
<svg id="main" version="1.1" xmlns="http://www.w3.org/2000/svg" xmlns:xlink="http://www.w3.org/1999/xlink" xml:space="preserve" onload="init(evt)">
        <defs>
                <circle id="rim" cx="0" cy="0" r="7"/>
                <circle id="rim2" cx="0" cy="0" r="3.5"/>
                <g id="zoomPlus">
                        <use xlink:href="#rim" fill="#404040">
                                <set attributeName="fill" to="#808080" begin="zoomplus.mouseover" end="zoomplus.mouseout"/>
                        </use>
                        <path d="M-4,0h8M0,-4v8" fill="none" stroke="white" stroke-width="1.5" pointer-events="none"/>
                </g>
                <g id="zoomMin">
                        <use xlink:href="#rim" fill="#404040">
                                <set attributeName="fill" to="#808080" begin="zoomminus.mouseover" end="zoomminus.mouseout"/>
                        </use>
                        <path d="M-4,0h8" fill="none" stroke="white" stroke-width="1.5" pointer-events="none"/>
                </g>
                <g id="dirArrow">
                        <path fill="none" stroke="white" stroke-width="1.5" d="M0,-3.0v7 M-2.5,-0.5L0,-3.0L2.5,-0.5"/>
                </g>
               <g id="resetDef">
                       <use xlink:href="#rim2" fill="#404040">
                               <set attributeName="fill" to="#808080" begin="reset.mouseover" end="reset.mouseout"/>
                       </use>
               </g>
        </defs>

<script type="text/javascript">
var viewWidth = 812;
var viewHeight = 364;
var sectionId = 'dynsection-1';
</script>
<script xlink:href="../../svgpan.js"/>
<svg id="graph" class="graph">
<g id="viewport">
<title>G</title>
<polygon fill="white" stroke="white" points="-4,5 -4,-360 809,-360 809,5 -4,5"/>
<!-- Node1 -->
<g id="node1" class="node"><title>Node1</title>
<polygon fill="#bfbfbf" stroke="black" points="322.5,-336.5 322.5,-355.5 415.5,-355.5 415.5,-336.5 322.5,-336.5"/>
<text text-anchor="middle" x="369" y="-343.5" font-family="Helvetica,sans-Serif" font-size="10.00">include/process.h</text>
</g>
<!-- Node2 -->
<g id="node3" class="node"><title>Node2</title>
<a xlink:href="../../dd/d9e/queued__device_8h.xhtml" target="_top" xlink:title="include/devices/queued_device.h">
<polygon fill="white" stroke="black" points="14.5,-168.5 14.5,-187.5 175.5,-187.5 175.5,-168.5 14.5,-168.5"/>
<text text-anchor="middle" x="95" y="-175.5" font-family="Helvetica,sans-Serif" font-size="10.00">include/devices/queued_device.h</text>
</a>
</g>
<!-- Node1&#45;&gt;Node2 -->
<g id="edge2" class="edge"><title>Node1&#45;&gt;Node2</title>
<path fill="none" stroke="midnightblue" d="M345.991,-331.06C291.105,-297.808 153.766,-214.603 109.204,-187.605"/>
<polygon fill="midnightblue" stroke="midnightblue" points="344.288,-334.121 354.654,-336.309 347.915,-328.134 344.288,-334.121"/>
</g>
<!-- Node7 -->
<g id="node14" class="node"><title>Node7</title>
<a xlink:href="../../d2/dd8/scheduler_8h_source.xhtml" target="_top" xlink:title="include/scheduler/scheduler.h">
<polygon fill="white" stroke="black" points="325,-224.5 325,-243.5 471,-243.5 471,-224.5 325,-224.5"/>
<text text-anchor="middle" x="398" y="-231.5" font-family="Helvetica,sans-Serif" font-size="10.00">include/scheduler/scheduler.h</text>
</a>
</g>
<!-- Node1&#45;&gt;Node7 -->
<g id="edge14" class="edge"><title>Node1&#45;&gt;Node7</title>
<path fill="none" stroke="midnightblue" d="M351.65,-328.806C339.753,-315.651 327.527,-296.62 336,-280 344.699,-262.937 363.229,-250.832 377.777,-243.505"/>
<polygon fill="midnightblue" stroke="midnightblue" points="349.338,-331.449 358.827,-336.164 354.349,-326.562 349.338,-331.449"/>
</g>
<!-- Node13 -->
<g id="node30" class="node"><title>Node13</title>
<a xlink:href="../../dd/d00/process__logger_8h.xhtml" target="_top" xlink:title="include/utility/process_logger.h">
<polygon fill="white" stroke="black" points="345.5,-280.5 345.5,-299.5 496.5,-299.5 496.5,-280.5 345.5,-280.5"/>
<text text-anchor="middle" x="421" y="-287.5" font-family="Helvetica,sans-Serif" font-size="10.00">include/utility/process_logger.h</text>
</a>
</g>
<!-- Node1&#45;&gt;Node13 -->
<g id="edge34" class="edge"><title>Node1&#45;&gt;Node13</title>
<path fill="none" stroke="midnightblue" d="M384.679,-328.718C393.845,-319.2 405.053,-307.561 412.573,-299.751"/>
<polygon fill="midnightblue" stroke="midnightblue" points="382.002,-326.452 377.587,-336.083 387.044,-331.308 382.002,-326.452"/>
</g>
<!-- Node14 -->
<g id="node33" class="node"><title>Node14</title>
<a xlink:href="../../db/db5/top_8h_source.xhtml" target="_top" xlink:title="include/top.h">
<polygon fill="white" stroke="black" points="489,-224.5 489,-243.5 561,-243.5 561,-224.5 489,-224.5"/>
<text text-anchor="middle" x="525" y="-231.5" font-family="Helvetica,sans-Serif" font-size="10.00">include/top.h</text>
</a>
</g>
<!-- Node1&#45;&gt;Node14 -->
<g id="edge40" class="edge"><title>Node1&#45;&gt;Node14</title>
<path fill="none" stroke="midnightblue" d="M425.529,-338.482C452.811,-332.588 484.079,-321.365 505,-300 520.199,-284.478 523.882,-257.69 524.751,-243.849"/>
<polygon fill="midnightblue" stroke="midnightblue" points="424.819,-335.055 415.684,-340.422 426.172,-341.923 424.819,-335.055"/>
</g>
<!-- Node3 -->
<g id="node5" class="node"><title>Node3</title>
<a xlink:href="../../db/d9a/block__device_8h.xhtml" target="_top" xlink:title="include/devices/block_device.h">
<polygon fill="white" stroke="black" points="0,-112.5 0,-131.5 152,-131.5 152,-112.5 0,-112.5"/>
<text text-anchor="middle" x="76" y="-119.5" font-family="Helvetica,sans-Serif" font-size="10.00">include/devices/block_device.h</text>
</a>
</g>
<!-- Node2&#45;&gt;Node3 -->
<g id="edge4" class="edge"><title>Node2&#45;&gt;Node3</title>
<path fill="none" stroke="midnightblue" d="M88.454,-158.396C85.2755,-149.362 81.6071,-138.936 79.0791,-131.751"/>
<polygon fill="midnightblue" stroke="midnightblue" points="85.2418,-159.812 91.8625,-168.083 91.845,-157.488 85.2418,-159.812"/>
</g>
<!-- Node6 -->
<g id="node11" class="node"><title>Node6</title>
<a xlink:href="../../d7/d59/char__device_8h.xhtml" target="_top" xlink:title="include/devices/char_device.h">
<polygon fill="white" stroke="black" points="170,-112.5 170,-131.5 318,-131.5 318,-112.5 170,-112.5"/>
<text text-anchor="middle" x="244" y="-119.5" font-family="Helvetica,sans-Serif" font-size="10.00">include/devices/char_device.h</text>
</a>
</g>
<!-- Node2&#45;&gt;Node6 -->
<g id="edge10" class="edge"><title>Node2&#45;&gt;Node6</title>
<path fill="none" stroke="midnightblue" d="M128.371,-164.906C156.384,-154.754 195.696,-140.506 220.501,-131.516"/>
<polygon fill="midnightblue" stroke="midnightblue" points="126.819,-161.746 118.609,-168.444 129.204,-168.327 126.819,-161.746"/>
</g>
<!-- Node4 -->
<g id="node7" class="node"><title>Node4</title>
<a xlink:href="../../d0/daa/kernel_8h.xhtml" target="_top" xlink:title="include/kernel.h">
<polygon fill="white" stroke="black" points="201.5,-56.5 201.5,-75.5 286.5,-75.5 286.5,-56.5 201.5,-56.5"/>
<text text-anchor="middle" x="244" y="-63.5" font-family="Helvetica,sans-Serif" font-size="10.00">include/kernel.h</text>
</a>
</g>
<!-- Node3&#45;&gt;Node4 -->
<g id="edge6" class="edge"><title>Node3&#45;&gt;Node4</title>
<path fill="none" stroke="midnightblue" d="M112.386,-109.304C144.042,-99.1294 189.168,-84.6246 217.504,-75.5164"/>
<polygon fill="midnightblue" stroke="midnightblue" points="111.069,-106.051 102.62,-112.444 113.211,-112.715 111.069,-106.051"/>
</g>
<!-- Node5 -->
<g id="node9" class="node"><title>Node5</title>
<a xlink:href="../../d8/dc0/init_8h_source.xhtml" target="_top" xlink:title="include/init.h">
<polygon fill="white" stroke="black" points="208.5,-0.5 208.5,-19.5 279.5,-19.5 279.5,-0.5 208.5,-0.5"/>
<text text-anchor="middle" x="244" y="-7.5" font-family="Helvetica,sans-Serif" font-size="10.00">include/init.h</text>
</a>
</g>
<!-- Node4&#45;&gt;Node5 -->
<g id="edge8" class="edge"><title>Node4&#45;&gt;Node5</title>
<path fill="none" stroke="midnightblue" d="M244,-45.8045C244,-36.9102 244,-26.7798 244,-19.7511"/>
<polygon fill="midnightblue" stroke="midnightblue" points="240.5,-46.083 244,-56.083 247.5,-46.083 240.5,-46.083"/>
</g>
<!-- Node6&#45;&gt;Node4 -->
<g id="edge12" class="edge"><title>Node6&#45;&gt;Node4</title>
<path fill="none" stroke="midnightblue" d="M244,-101.805C244,-92.9102 244,-82.7798 244,-75.7511"/>
<polygon fill="midnightblue" stroke="midnightblue" points="240.5,-102.083 244,-112.083 247.5,-102.083 240.5,-102.083"/>
</g>
<!-- Node8 -->
<g id="node16" class="node"><title>Node8</title>
<a xlink:href="../../db/d41/fcfs_8h.xhtml" target="_top" xlink:title="include/scheduler/fcfs.h">
<polygon fill="white" stroke="black" points="194,-168.5 194,-187.5 314,-187.5 314,-168.5 194,-168.5"/>
<text text-anchor="middle" x="254" y="-175.5" font-family="Helvetica,sans-Serif" font-size="10.00">include/scheduler/fcfs.h</text>
</a>
</g>
<!-- Node7&#45;&gt;Node8 -->
<g id="edge16" class="edge"><title>Node7&#45;&gt;Node8</title>
<path fill="none" stroke="midnightblue" d="M365.749,-220.906C338.676,-210.754 300.683,-196.506 276.71,-187.516"/>
<polygon fill="midnightblue" stroke="midnightblue" points="364.591,-224.209 375.183,-224.444 367.048,-217.655 364.591,-224.209"/>
</g>
<!-- Node10 -->
<g id="node21" class="node"><title>Node10</title>
<a xlink:href="../../db/dc3/lottery_8h.xhtml" target="_top" xlink:title="include/scheduler/lottery.h">
<polygon fill="white" stroke="black" points="332.5,-168.5 332.5,-187.5 463.5,-187.5 463.5,-168.5 332.5,-168.5"/>
<text text-anchor="middle" x="398" y="-175.5" font-family="Helvetica,sans-Serif" font-size="10.00">include/scheduler/lottery.h</text>
</a>
</g>
<!-- Node7&#45;&gt;Node10 -->
<g id="edge22" class="edge"><title>Node7&#45;&gt;Node10</title>
<path fill="none" stroke="midnightblue" d="M398,-213.805C398,-204.91 398,-194.78 398,-187.751"/>
<polygon fill="midnightblue" stroke="midnightblue" points="394.5,-214.083 398,-224.083 401.5,-214.083 394.5,-214.083"/>
</g>
<!-- Node11 -->
<g id="node24" class="node"><title>Node11</title>
<a xlink:href="../../de/da3/multi__level_8h_source.xhtml" target="_top" xlink:title="include/scheduler/multi_level.h">
<polygon fill="white" stroke="black" points="482,-168.5 482,-187.5 632,-187.5 632,-168.5 482,-168.5"/>
<text text-anchor="middle" x="557" y="-175.5" font-family="Helvetica,sans-Serif" font-size="10.00">include/scheduler/multi_level.h</text>
</a>
</g>
<!-- Node7&#45;&gt;Node11 -->
<g id="edge26" class="edge"><title>Node7&#45;&gt;Node11</title>
<path fill="none" stroke="midnightblue" d="M432.827,-221.172C462.766,-211.004 505.221,-196.585 531.924,-187.516"/>
<polygon fill="midnightblue" stroke="midnightblue" points="431.537,-217.914 423.194,-224.444 433.788,-224.542 431.537,-217.914"/>
</g>
<!-- Node12 -->
<g id="node27" class="node"><title>Node12</title>
<a xlink:href="../../d9/dd2/round__robin_8h.xhtml" target="_top" xlink:title="include/scheduler/round_robin.h">
<polygon fill="white" stroke="black" points="650,-168.5 650,-187.5 804,-187.5 804,-168.5 650,-168.5"/>
<text text-anchor="middle" x="727" y="-175.5" font-family="Helvetica,sans-Serif" font-size="10.00">include/scheduler/round_robin.h</text>
</a>
</g>
<!-- Node7&#45;&gt;Node12 -->
<g id="edge30" class="edge"><title>Node7&#45;&gt;Node12</title>
<path fill="none" stroke="midnightblue" d="M460.201,-222.791C522.368,-212.587 616.858,-197.078 675.113,-187.516"/>
<polygon fill="midnightblue" stroke="midnightblue" points="459.432,-219.37 450.131,-224.444 460.566,-226.278 459.432,-219.37"/>
</g>
<!-- Node9 -->
<g id="node18" class="node"><title>Node9</title>
<a xlink:href="../../d5/d8b/allSchedulers_8h_source.xhtml" target="_top" xlink:title="include/scheduler/allSchedulers.h">
<polygon fill="white" stroke="black" points="336,-112.5 336,-131.5 498,-131.5 498,-112.5 336,-112.5"/>
<text text-anchor="middle" x="417" y="-119.5" font-family="Helvetica,sans-Serif" font-size="10.00">include/scheduler/allSchedulers.h</text>
</a>
</g>
<!-- Node8&#45;&gt;Node9 -->
<g id="edge18" class="edge"><title>Node8&#45;&gt;Node9</title>
<path fill="none" stroke="midnightblue" d="M289.703,-165.172C320.396,-155.004 363.919,-140.585 391.293,-131.516"/>
<polygon fill="midnightblue" stroke="midnightblue" points="288.22,-161.976 279.828,-168.444 290.421,-168.621 288.22,-161.976"/>
</g>
<!-- Node9&#45;&gt;Node4 -->
<g id="edge20" class="edge"><title>Node9&#45;&gt;Node4</title>
<path fill="none" stroke="midnightblue" d="M379.953,-109.436C347.336,-99.2551 300.59,-84.664 271.284,-75.5164"/>
<polygon fill="midnightblue" stroke="midnightblue" points="378.999,-112.805 389.588,-112.444 381.085,-106.123 378.999,-112.805"/>
</g>
<!-- Node10&#45;&gt;Node9 -->
<g id="edge24" class="edge"><title>Node10&#45;&gt;Node9</title>
<path fill="none" stroke="midnightblue" d="M404.546,-158.396C407.724,-149.362 411.393,-138.936 413.921,-131.751"/>
<polygon fill="midnightblue" stroke="midnightblue" points="401.155,-157.488 401.137,-168.083 407.758,-159.812 401.155,-157.488"/>
</g>
<!-- Node11&#45;&gt;Node9 -->
<g id="edge28" class="edge"><title>Node11&#45;&gt;Node9</title>
<path fill="none" stroke="midnightblue" d="M525.298,-164.772C499,-154.629 462.284,-140.467 439.08,-131.516"/>
<polygon fill="midnightblue" stroke="midnightblue" points="524.227,-168.11 534.817,-168.444 526.746,-161.579 524.227,-168.11"/>
</g>
<!-- Node12&#45;&gt;Node9 -->
<g id="edge32" class="edge"><title>Node12&#45;&gt;Node9</title>
<path fill="none" stroke="midnightblue" d="M667.665,-166.664C609.08,-156.459 520.555,-141.039 465.891,-131.516"/>
<polygon fill="midnightblue" stroke="midnightblue" points="667.427,-170.175 677.88,-168.444 668.629,-163.279 667.427,-170.175"/>
</g>
<!-- Node13&#45;&gt;Node7 -->
<g id="edge36" class="edge"><title>Node13&#45;&gt;Node7</title>
<path fill="none" stroke="midnightblue" d="M413.201,-270.69C409.325,-261.589 404.821,-251.014 401.727,-243.751"/>
<polygon fill="midnightblue" stroke="midnightblue" points="410.063,-272.254 417.202,-280.083 416.503,-269.511 410.063,-272.254"/>
</g>
<!-- Node13&#45;&gt;Node14 -->
<g id="edge38" class="edge"><title>Node13&#45;&gt;Node14</title>
<path fill="none" stroke="midnightblue" d="M446.828,-275.59C466.057,-265.605 491.745,-252.267 508.332,-243.655"/>
<polygon fill="midnightblue" stroke="midnightblue" points="444.971,-272.61 437.709,-280.324 448.197,-278.822 444.971,-272.61"/>
</g>
</g>
</svg>
        <g id="navigator" transform="translate(0 0)" fill="#404254">
                <rect fill="#f2f5e9" fill-opacity="0.5" stroke="#606060" stroke-width=".5" x="0" y="0" width="60" height="60"/>
                <use id="zoomplus" xlink:href="#zoomPlus" x="17" y="9" onmousedown="handleZoom(evt,'in')"/>
                <use id="zoomminus" xlink:href="#zoomMin" x="42" y="9" onmousedown="handleZoom(evt,'out')"/>
                <use id="reset" xlink:href="#resetDef" x="30" y="36" onmousedown="handleReset()"/>
                <g id="arrowUp" xlink:href="#dirArrow" transform="translate(30 24)" onmousedown="handlePan(0,-1)">
                  <use xlink:href="#rim" fill="#404040">
                        <set attributeName="fill" to="#808080" begin="arrowUp.mouseover" end="arrowUp.mouseout"/>
                  </use>
                  <path fill="none" stroke="white" stroke-width="1.5" d="M0,-3.0v7 M-2.5,-0.5L0,-3.0L2.5,-0.5"/>
                </g>
                <g id="arrowRight" xlink:href="#dirArrow" transform="rotate(90) translate(36 -43)" onmousedown="handlePan(1,0)">
                  <use xlink:href="#rim" fill="#404040">
                        <set attributeName="fill" to="#808080" begin="arrowRight.mouseover" end="arrowRight.mouseout"/>
                  </use>
                  <path fill="none" stroke="white" stroke-width="1.5" d="M0,-3.0v7 M-2.5,-0.5L0,-3.0L2.5,-0.5"/>
                </g>
                <g id="arrowDown" xlink:href="#dirArrow" transform="rotate(180) translate(-30 -48)" onmousedown="handlePan(0,1)">
                  <use xlink:href="#rim" fill="#404040">
                        <set attributeName="fill" to="#808080" begin="arrowDown.mouseover" end="arrowDown.mouseout"/>
                  </use>
                  <path fill="none" stroke="white" stroke-width="1.5" d="M0,-3.0v7 M-2.5,-0.5L0,-3.0L2.5,-0.5"/>
                </g>
                <g id="arrowLeft" xlink:href="#dirArrow" transform="rotate(270) translate(-36 17)" onmousedown="handlePan(-1,0)">
                  <use xlink:href="#rim" fill="#404040">
                        <set attributeName="fill" to="#808080" begin="arrowLeft.mouseover" end="arrowLeft.mouseout"/>
                  </use>
                  <path fill="none" stroke="white" stroke-width="1.5" d="M0,-3.0v7 M-2.5,-0.5L0,-3.0L2.5,-0.5"/>
                </g>
        </g>
</svg>
