<?xml version="1.0" encoding="UTF-8" standalone="no"?>
<!DOCTYPE svg PUBLIC "-//W3C//DTD SVG 1.1//EN"
 "http://www.w3.org/Graphics/SVG/1.1/DTD/svg11.dtd">
<!-- Generated by graphviz version 2.28.0 (20111025.1818)
 -->
<!-- Title: G Pages: 1 -->
<!--zoomable 364 -->
<svg id="main" version="1.1" xmlns="http://www.w3.org/2000/svg" xmlns:xlink="http://www.w3.org/1999/xlink" xml:space="preserve" onload="init(evt)">
        <defs>
                <circle id="rim" cx="0" cy="0" r="7"/>
                <circle id="rim2" cx="0" cy="0" r="3.5"/>
                <g id="zoomPlus">
                        <use xlink:href="#rim" fill="#404040">
                                <set attributeName="fill" to="#808080" begin="zoomplus.mouseover" end="zoomplus.mouseout"/>
                        </use>
                        <path d="M-4,0h8M0,-4v8" fill="none" stroke="white" stroke-width="1.5" pointer-events="none"/>
                </g>
                <g id="zoomMin">
                        <use xlink:href="#rim" fill="#404040">
                                <set attributeName="fill" to="#808080" begin="zoomminus.mouseover" end="zoomminus.mouseout"/>
                        </use>
                        <path d="M-4,0h8" fill="none" stroke="white" stroke-width="1.5" pointer-events="none"/>
                </g>
                <g id="dirArrow">
                        <path fill="none" stroke="white" stroke-width="1.5" d="M0,-3.0v7 M-2.5,-0.5L0,-3.0L2.5,-0.5"/>
                </g>
               <g id="resetDef">
                       <use xlink:href="#rim2" fill="#404040">
                               <set attributeName="fill" to="#808080" begin="reset.mouseover" end="reset.mouseout"/>
                       </use>
               </g>
        </defs>

<script type="text/javascript">
var viewWidth = 709;
var viewHeight = 364;
var sectionId = 'dynsection-1';
</script>
<script xlink:href="../../svgpan.js"/>
<svg id="graph" class="graph">
<g id="viewport">
<title>G</title>
<polygon fill="white" stroke="white" points="-4,5 -4,-360 706,-360 706,5 -4,5"/>
<!-- Node1 -->
<g id="node1" class="node"><title>Node1</title>
<polygon fill="#bfbfbf" stroke="black" points="315.5,-336.5 315.5,-355.5 408.5,-355.5 408.5,-336.5 315.5,-336.5"/>
<text text-anchor="middle" x="362" y="-343.5" font-family="Helvetica,sans-Serif" font-size="10.00">include/process.h</text>
</g>
<!-- Node2 -->
<g id="node3" class="node"><title>Node2</title>
<a xlink:href="../../dd/d9e/queued__device_8h.xhtml" target="_top" xlink:title="include/devices/queued_device.h">
<polygon fill="white" stroke="black" points="79.5,-168.5 79.5,-187.5 240.5,-187.5 240.5,-168.5 79.5,-168.5"/>
<text text-anchor="middle" x="160" y="-175.5" font-family="Helvetica,sans-Serif" font-size="10.00">include/devices/queued_device.h</text>
</a>
</g>
<!-- Node1&#45;&gt;Node2 -->
<g id="edge2" class="edge"><title>Node1&#45;&gt;Node2</title>
<path fill="none" stroke="midnightblue" d="M343.504,-329.801C302.074,-295.754 202.917,-214.268 170.471,-187.605"/>
<polygon fill="midnightblue" stroke="midnightblue" points="341.476,-332.664 351.424,-336.309 345.92,-327.256 341.476,-332.664"/>
</g>
<!-- Node7 -->
<g id="node14" class="node"><title>Node7</title>
<a xlink:href="../../d2/dd8/scheduler_8h_source.xhtml" target="_top" xlink:title="include/scheduler/scheduler.h">
<polygon fill="white" stroke="black" points="318,-224.5 318,-243.5 464,-243.5 464,-224.5 318,-224.5"/>
<text text-anchor="middle" x="391" y="-231.5" font-family="Helvetica,sans-Serif" font-size="10.00">include/scheduler/scheduler.h</text>
</a>
</g>
<!-- Node1&#45;&gt;Node7 -->
<g id="edge14" class="edge"><title>Node1&#45;&gt;Node7</title>
<path fill="none" stroke="midnightblue" d="M344.65,-328.806C332.753,-315.651 320.527,-296.62 329,-280 337.699,-262.937 356.229,-250.832 370.777,-243.505"/>
<polygon fill="midnightblue" stroke="midnightblue" points="342.338,-331.449 351.827,-336.164 347.349,-326.562 342.338,-331.449"/>
</g>
<!-- Node12 -->
<g id="node26" class="node"><title>Node12</title>
<a xlink:href="../../dd/d00/process__logger_8h.xhtml" target="_top" xlink:title="include/utility/process_logger.h">
<polygon fill="white" stroke="black" points="338.5,-280.5 338.5,-299.5 489.5,-299.5 489.5,-280.5 338.5,-280.5"/>
<text text-anchor="middle" x="414" y="-287.5" font-family="Helvetica,sans-Serif" font-size="10.00">include/utility/process_logger.h</text>
</a>
</g>
<!-- Node1&#45;&gt;Node12 -->
<g id="edge28" class="edge"><title>Node1&#45;&gt;Node12</title>
<path fill="none" stroke="midnightblue" d="M377.679,-328.718C386.845,-319.2 398.053,-307.561 405.573,-299.751"/>
<polygon fill="midnightblue" stroke="midnightblue" points="375.002,-326.452 370.587,-336.083 380.044,-331.308 375.002,-326.452"/>
</g>
<!-- Node13 -->
<g id="node29" class="node"><title>Node13</title>
<a xlink:href="../../db/db5/top_8h_source.xhtml" target="_top" xlink:title="include/top.h">
<polygon fill="white" stroke="black" points="482,-224.5 482,-243.5 554,-243.5 554,-224.5 482,-224.5"/>
<text text-anchor="middle" x="518" y="-231.5" font-family="Helvetica,sans-Serif" font-size="10.00">include/top.h</text>
</a>
</g>
<!-- Node1&#45;&gt;Node13 -->
<g id="edge34" class="edge"><title>Node1&#45;&gt;Node13</title>
<path fill="none" stroke="midnightblue" d="M418.529,-338.482C445.811,-332.588 477.079,-321.365 498,-300 513.199,-284.478 516.882,-257.69 517.751,-243.849"/>
<polygon fill="midnightblue" stroke="midnightblue" points="417.819,-335.055 408.684,-340.422 419.172,-341.923 417.819,-335.055"/>
</g>
<!-- Node3 -->
<g id="node5" class="node"><title>Node3</title>
<a xlink:href="../../db/d9a/block__device_8h.xhtml" target="_top" xlink:title="include/devices/block_device.h">
<polygon fill="white" stroke="black" points="0,-112.5 0,-131.5 152,-131.5 152,-112.5 0,-112.5"/>
<text text-anchor="middle" x="76" y="-119.5" font-family="Helvetica,sans-Serif" font-size="10.00">include/devices/block_device.h</text>
</a>
</g>
<!-- Node2&#45;&gt;Node3 -->
<g id="edge4" class="edge"><title>Node2&#45;&gt;Node3</title>
<path fill="none" stroke="midnightblue" d="M138.068,-162.901C122.665,-152.999 102.554,-140.071 89.4626,-131.655"/>
<polygon fill="midnightblue" stroke="midnightblue" points="136.199,-165.86 146.504,-168.324 139.985,-159.972 136.199,-165.86"/>
</g>
<!-- Node6 -->
<g id="node11" class="node"><title>Node6</title>
<a xlink:href="../../d7/d59/char__device_8h.xhtml" target="_top" xlink:title="include/devices/char_device.h">
<polygon fill="white" stroke="black" points="170,-112.5 170,-131.5 318,-131.5 318,-112.5 170,-112.5"/>
<text text-anchor="middle" x="244" y="-119.5" font-family="Helvetica,sans-Serif" font-size="10.00">include/devices/char_device.h</text>
</a>
</g>
<!-- Node2&#45;&gt;Node6 -->
<g id="edge10" class="edge"><title>Node2&#45;&gt;Node6</title>
<path fill="none" stroke="midnightblue" d="M181.932,-162.901C197.335,-152.999 217.446,-140.071 230.537,-131.655"/>
<polygon fill="midnightblue" stroke="midnightblue" points="180.015,-159.972 173.496,-168.324 183.801,-165.86 180.015,-159.972"/>
</g>
<!-- Node4 -->
<g id="node7" class="node"><title>Node4</title>
<a xlink:href="../../d0/daa/kernel_8h.xhtml" target="_top" xlink:title="include/kernel.h">
<polygon fill="white" stroke="black" points="201.5,-56.5 201.5,-75.5 286.5,-75.5 286.5,-56.5 201.5,-56.5"/>
<text text-anchor="middle" x="244" y="-63.5" font-family="Helvetica,sans-Serif" font-size="10.00">include/kernel.h</text>
</a>
</g>
<!-- Node3&#45;&gt;Node4 -->
<g id="edge6" class="edge"><title>Node3&#45;&gt;Node4</title>
<path fill="none" stroke="midnightblue" d="M112.386,-109.304C144.042,-99.1294 189.168,-84.6246 217.504,-75.5164"/>
<polygon fill="midnightblue" stroke="midnightblue" points="111.069,-106.051 102.62,-112.444 113.211,-112.715 111.069,-106.051"/>
</g>
<!-- Node5 -->
<g id="node9" class="node"><title>Node5</title>
<a xlink:href="../../d8/dc0/init_8h_source.xhtml" target="_top" xlink:title="include/init.h">
<polygon fill="white" stroke="black" points="208.5,-0.5 208.5,-19.5 279.5,-19.5 279.5,-0.5 208.5,-0.5"/>
<text text-anchor="middle" x="244" y="-7.5" font-family="Helvetica,sans-Serif" font-size="10.00">include/init.h</text>
</a>
</g>
<!-- Node4&#45;&gt;Node5 -->
<g id="edge8" class="edge"><title>Node4&#45;&gt;Node5</title>
<path fill="none" stroke="midnightblue" d="M244,-45.8045C244,-36.9102 244,-26.7798 244,-19.7511"/>
<polygon fill="midnightblue" stroke="midnightblue" points="240.5,-46.083 244,-56.083 247.5,-46.083 240.5,-46.083"/>
</g>
<!-- Node6&#45;&gt;Node4 -->
<g id="edge12" class="edge"><title>Node6&#45;&gt;Node4</title>
<path fill="none" stroke="midnightblue" d="M244,-101.805C244,-92.9102 244,-82.7798 244,-75.7511"/>
<polygon fill="midnightblue" stroke="midnightblue" points="240.5,-102.083 244,-112.083 247.5,-102.083 240.5,-102.083"/>
</g>
<!-- Node8 -->
<g id="node16" class="node"><title>Node8</title>
<a xlink:href="../../db/d41/fcfs_8h.xhtml" target="_top" xlink:title="include/scheduler/fcfs.h">
<polygon fill="white" stroke="black" points="259,-168.5 259,-187.5 379,-187.5 379,-168.5 259,-168.5"/>
<text text-anchor="middle" x="319" y="-175.5" font-family="Helvetica,sans-Serif" font-size="10.00">include/scheduler/fcfs.h</text>
</a>
</g>
<!-- Node7&#45;&gt;Node8 -->
<g id="edge16" class="edge"><title>Node7&#45;&gt;Node8</title>
<path fill="none" stroke="midnightblue" d="M371.134,-218.101C358.177,-208.382 341.703,-196.027 330.779,-187.834"/>
<polygon fill="midnightblue" stroke="midnightblue" points="369.332,-221.124 379.432,-224.324 373.532,-215.524 369.332,-221.124"/>
</g>
<!-- Node10 -->
<g id="node21" class="node"><title>Node10</title>
<a xlink:href="../../db/dc3/lottery_8h_source.xhtml" target="_top" xlink:title="include/scheduler/lottery.h">
<polygon fill="white" stroke="black" points="397.5,-168.5 397.5,-187.5 528.5,-187.5 528.5,-168.5 397.5,-168.5"/>
<text text-anchor="middle" x="463" y="-175.5" font-family="Helvetica,sans-Serif" font-size="10.00">include/scheduler/lottery.h</text>
</a>
</g>
<!-- Node7&#45;&gt;Node10 -->
<g id="edge22" class="edge"><title>Node7&#45;&gt;Node10</title>
<path fill="none" stroke="midnightblue" d="M410.866,-218.101C423.823,-208.382 440.297,-196.027 451.221,-187.834"/>
<polygon fill="midnightblue" stroke="midnightblue" points="408.468,-215.524 402.568,-224.324 412.668,-221.124 408.468,-215.524"/>
</g>
<!-- Node11 -->
<g id="node23" class="node"><title>Node11</title>
<a xlink:href="../../d9/dd2/round__robin_8h_source.xhtml" target="_top" xlink:title="include/scheduler/round_robin.h">
<polygon fill="white" stroke="black" points="547,-168.5 547,-187.5 701,-187.5 701,-168.5 547,-168.5"/>
<text text-anchor="middle" x="624" y="-175.5" font-family="Helvetica,sans-Serif" font-size="10.00">include/scheduler/round_robin.h</text>
</a>
</g>
<!-- Node7&#45;&gt;Node11 -->
<g id="edge24" class="edge"><title>Node7&#45;&gt;Node11</title>
<path fill="none" stroke="midnightblue" d="M437.803,-222.153C481.827,-211.95 546.847,-196.881 587.253,-187.516"/>
<polygon fill="midnightblue" stroke="midnightblue" points="436.871,-218.776 427.92,-224.444 438.452,-225.595 436.871,-218.776"/>
</g>
<!-- Node9 -->
<g id="node18" class="node"><title>Node9</title>
<a xlink:href="../../d5/d8b/allSchedulers_8h_source.xhtml" target="_top" xlink:title="include/scheduler/allSchedulers.h">
<polygon fill="white" stroke="black" points="336,-112.5 336,-131.5 498,-131.5 498,-112.5 336,-112.5"/>
<text text-anchor="middle" x="417" y="-119.5" font-family="Helvetica,sans-Serif" font-size="10.00">include/scheduler/allSchedulers.h</text>
</a>
</g>
<!-- Node8&#45;&gt;Node9 -->
<g id="edge18" class="edge"><title>Node8&#45;&gt;Node9</title>
<path fill="none" stroke="midnightblue" d="M343.586,-163.453C361.678,-153.483 385.735,-140.228 401.294,-131.655"/>
<polygon fill="midnightblue" stroke="midnightblue" points="341.815,-160.432 334.745,-168.324 345.193,-166.563 341.815,-160.432"/>
</g>
<!-- Node9&#45;&gt;Node4 -->
<g id="edge20" class="edge"><title>Node9&#45;&gt;Node4</title>
<path fill="none" stroke="midnightblue" d="M379.953,-109.436C347.336,-99.2551 300.59,-84.664 271.284,-75.5164"/>
<polygon fill="midnightblue" stroke="midnightblue" points="378.999,-112.805 389.588,-112.444 381.085,-106.123 378.999,-112.805"/>
</g>
<!-- Node11&#45;&gt;Node9 -->
<g id="edge26" class="edge"><title>Node11&#45;&gt;Node9</title>
<path fill="none" stroke="midnightblue" d="M581.178,-165.829C542.094,-155.633 485.165,-140.782 449.646,-131.516"/>
<polygon fill="midnightblue" stroke="midnightblue" points="580.641,-169.306 591.2,-168.444 582.408,-162.533 580.641,-169.306"/>
</g>
<!-- Node12&#45;&gt;Node7 -->
<g id="edge30" class="edge"><title>Node12&#45;&gt;Node7</title>
<path fill="none" stroke="midnightblue" d="M406.201,-270.69C402.325,-261.589 397.821,-251.014 394.727,-243.751"/>
<polygon fill="midnightblue" stroke="midnightblue" points="403.063,-272.254 410.202,-280.083 409.503,-269.511 403.063,-272.254"/>
</g>
<!-- Node12&#45;&gt;Node13 -->
<g id="edge32" class="edge"><title>Node12&#45;&gt;Node13</title>
<path fill="none" stroke="midnightblue" d="M439.828,-275.59C459.057,-265.605 484.745,-252.267 501.332,-243.655"/>
<polygon fill="midnightblue" stroke="midnightblue" points="437.971,-272.61 430.709,-280.324 441.197,-278.822 437.971,-272.61"/>
</g>
</g>
</svg>
        <g id="navigator" transform="translate(0 0)" fill="#404254">
                <rect fill="#f2f5e9" fill-opacity="0.5" stroke="#606060" stroke-width=".5" x="0" y="0" width="60" height="60"/>
                <use id="zoomplus" xlink:href="#zoomPlus" x="17" y="9" onmousedown="handleZoom(evt,'in')"/>
                <use id="zoomminus" xlink:href="#zoomMin" x="42" y="9" onmousedown="handleZoom(evt,'out')"/>
                <use id="reset" xlink:href="#resetDef" x="30" y="36" onmousedown="handleReset()"/>
                <g id="arrowUp" xlink:href="#dirArrow" transform="translate(30 24)" onmousedown="handlePan(0,-1)">
                  <use xlink:href="#rim" fill="#404040">
                        <set attributeName="fill" to="#808080" begin="arrowUp.mouseover" end="arrowUp.mouseout"/>
                  </use>
                  <path fill="none" stroke="white" stroke-width="1.5" d="M0,-3.0v7 M-2.5,-0.5L0,-3.0L2.5,-0.5"/>
                </g>
                <g id="arrowRight" xlink:href="#dirArrow" transform="rotate(90) translate(36 -43)" onmousedown="handlePan(1,0)">
                  <use xlink:href="#rim" fill="#404040">
                        <set attributeName="fill" to="#808080" begin="arrowRight.mouseover" end="arrowRight.mouseout"/>
                  </use>
                  <path fill="none" stroke="white" stroke-width="1.5" d="M0,-3.0v7 M-2.5,-0.5L0,-3.0L2.5,-0.5"/>
                </g>
                <g id="arrowDown" xlink:href="#dirArrow" transform="rotate(180) translate(-30 -48)" onmousedown="handlePan(0,1)">
                  <use xlink:href="#rim" fill="#404040">
                        <set attributeName="fill" to="#808080" begin="arrowDown.mouseover" end="arrowDown.mouseout"/>
                  </use>
                  <path fill="none" stroke="white" stroke-width="1.5" d="M0,-3.0v7 M-2.5,-0.5L0,-3.0L2.5,-0.5"/>
                </g>
                <g id="arrowLeft" xlink:href="#dirArrow" transform="rotate(270) translate(-36 17)" onmousedown="handlePan(-1,0)">
                  <use xlink:href="#rim" fill="#404040">
                        <set attributeName="fill" to="#808080" begin="arrowLeft.mouseover" end="arrowLeft.mouseout"/>
                  </use>
                  <path fill="none" stroke="white" stroke-width="1.5" d="M0,-3.0v7 M-2.5,-0.5L0,-3.0L2.5,-0.5"/>
                </g>
        </g>
</svg>
