<?xml version="1.0" encoding="UTF-8" standalone="no"?>
<!DOCTYPE svg PUBLIC "-//W3C//DTD SVG 1.1//EN"
 "http://www.w3.org/Graphics/SVG/1.1/DTD/svg11.dtd">
<!-- Generated by graphviz version 2.28.0 (20111025.1818)
 -->
<!-- Title: G Pages: 1 -->
<svg width="237pt" height="322pt"
 viewBox="0.00 0.00 237.00 322.00" xmlns="http://www.w3.org/2000/svg" xmlns:xlink="http://www.w3.org/1999/xlink">
<g id="graph1" class="graph" transform="scale(1 1) rotate(0) translate(4 318)">
<title>G</title>
<polygon fill="white" stroke="white" points="-4,5 -4,-318 234,-318 234,5 -4,5"/>
<!-- Node1 -->
<g id="node1" class="node"><title>Node1</title>
<polygon fill="#bfbfbf" stroke="black" points="98.5,-0.5 98.5,-19.5 175.5,-19.5 175.5,-0.5 98.5,-0.5"/>
<text text-anchor="middle" x="137" y="-7.5" font-family="Helvetica,sans-Serif" font-size="10.00">sCmdOptions</text>
</g>
<!-- Node2 -->
<g id="node2" class="node"><title>Node2</title>
<polygon fill="white" stroke="#bfbfbf" points="-0.5,-69.5 -0.5,-88.5 142.5,-88.5 142.5,-69.5 -0.5,-69.5"/>
<text text-anchor="middle" x="71" y="-76.5" font-family="Helvetica,sans-Serif" font-size="10.00">std::vector&lt; sOpOverride * &gt;</text>
</g>
<!-- Node2&#45;&gt;Node1 -->
<g id="edge2" class="edge"><title>Node2&#45;&gt;Node1</title>
<path fill="none" stroke="#9a32cd" stroke-dasharray="5,2" d="M86.6727,-62.0899C99.8043,-48.7593 118.046,-30.2413 128.578,-19.5494"/>
<polygon fill="#9a32cd" stroke="#9a32cd" points="84.1527,-59.6607 79.6283,-69.2409 89.1395,-64.5731 84.1527,-59.6607"/>
<text text-anchor="middle" x="131.5" y="-41.5" font-family="Helvetica,sans-Serif" font-size="10.00"> overrides</text>
</g>
<!-- Node3 -->
<g id="node4" class="node"><title>Node3</title>
<a xlink:href="../../d2/d28/structsOpOverride.xhtml" target="_top" xlink:title="Struct for holding a settings overrides from command line.">
<polygon fill="white" stroke="black" points="41.5,-146.5 41.5,-165.5 112.5,-165.5 112.5,-146.5 41.5,-146.5"/>
<text text-anchor="middle" x="77" y="-153.5" font-family="Helvetica,sans-Serif" font-size="10.00">sOpOverride</text>
</a>
</g>
<!-- Node3&#45;&gt;Node2 -->
<g id="edge4" class="edge"><title>Node3&#45;&gt;Node2</title>
<path fill="none" stroke="#9a32cd" stroke-dasharray="5,2" d="M73.1107,-136.174C72.6639,-133.442 72.2718,-130.656 72,-128 70.5915,-114.236 70.5892,-98.1392 70.7616,-88.5228"/>
<polygon fill="#9a32cd" stroke="#9a32cd" points="69.6803,-136.871 74.9659,-146.053 76.5601,-135.579 69.6803,-136.871"/>
<text text-anchor="middle" x="93.5" y="-115.5" font-family="Helvetica,sans-Serif" font-size="10.00"> elements</text>
</g>
<!-- Node4 -->
<g id="node6" class="node"><title>Node4</title>
<a xlink:title="STL class.">
<polygon fill="white" stroke="#bfbfbf" points="89,-236.5 89,-255.5 149,-255.5 149,-236.5 89,-236.5"/>
<text text-anchor="middle" x="119" y="-243.5" font-family="Helvetica,sans-Serif" font-size="10.00">std::string</text>
</a>
</g>
<!-- Node4&#45;&gt;Node3 -->
<g id="edge6" class="edge"><title>Node4&#45;&gt;Node3</title>
<path fill="none" stroke="#9a32cd" stroke-dasharray="5,2" d="M108.766,-227.112C107.125,-224.095 105.482,-220.976 104,-218 94.9163,-199.753 85.5609,-177.764 80.601,-165.802"/>
<polygon fill="#9a32cd" stroke="#9a32cd" points="105.86,-229.087 113.794,-236.108 111.971,-225.672 105.86,-229.087"/>
<text text-anchor="middle" x="125.5" y="-209.5" font-family="Helvetica,sans-Serif" font-size="10.00"> option</text>
<text text-anchor="middle" x="125.5" y="-198.5" font-family="Helvetica,sans-Serif" font-size="10.00">section</text>
<text text-anchor="middle" x="125.5" y="-187.5" font-family="Helvetica,sans-Serif" font-size="10.00">newValue</text>
</g>
<!-- Node6 -->
<g id="node10" class="node"><title>Node6</title>
<polygon fill="white" stroke="#bfbfbf" points="124.5,-108.5 124.5,-127.5 229.5,-127.5 229.5,-108.5 124.5,-108.5"/>
<text text-anchor="middle" x="177" y="-115.5" font-family="Helvetica,sans-Serif" font-size="10.00">std::vector&lt; string &gt;</text>
</g>
<!-- Node4&#45;&gt;Node6 -->
<g id="edge12" class="edge"><title>Node4&#45;&gt;Node6</title>
<path fill="none" stroke="#9a32cd" stroke-dasharray="5,2" d="M137.882,-229.417C141.274,-225.937 144.515,-222.063 147,-218 165.46,-187.818 173.274,-145.462 175.896,-127.542"/>
<polygon fill="#9a32cd" stroke="#9a32cd" points="135.39,-226.955 130.45,-236.329 140.157,-232.081 135.39,-226.955"/>
<text text-anchor="middle" x="184.5" y="-198.5" font-family="Helvetica,sans-Serif" font-size="10.00"> elements</text>
</g>
<!-- Node5 -->
<g id="node8" class="node"><title>Node5</title>
<a xlink:title="STL class.">
<polygon fill="white" stroke="#bfbfbf" points="56.5,-294.5 56.5,-313.5 181.5,-313.5 181.5,-294.5 56.5,-294.5"/>
<text text-anchor="middle" x="119" y="-301.5" font-family="Helvetica,sans-Serif" font-size="10.00">std::basic_string&lt; char &gt;</text>
</a>
</g>
<!-- Node5&#45;&gt;Node4 -->
<g id="edge8" class="edge"><title>Node5&#45;&gt;Node4</title>
<path fill="none" stroke="midnightblue" d="M119,-283.953C119,-274.287 119,-263.031 119,-255.505"/>
<polygon fill="midnightblue" stroke="midnightblue" points="115.5,-284.25 119,-294.25 122.5,-284.25 115.5,-284.25"/>
</g>
<!-- Node6&#45;&gt;Node1 -->
<g id="edge10" class="edge"><title>Node6&#45;&gt;Node1</title>
<path fill="none" stroke="#9a32cd" stroke-dasharray="5,2" d="M174.383,-98.3431C171.589,-81.8775 166.259,-57.5272 157,-38 153.901,-31.464 149.112,-24.9251 144.997,-19.9195"/>
<polygon fill="#9a32cd" stroke="#9a32cd" points="170.939,-98.9798 175.928,-108.326 177.857,-97.9086 170.939,-98.9798"/>
<text text-anchor="middle" x="198.5" y="-82" font-family="Helvetica,sans-Serif" font-size="10.00"> traceFiles</text>
<text text-anchor="middle" x="198.5" y="-71" font-family="Helvetica,sans-Serif" font-size="10.00">settingFiles</text>
</g>
</g>
</svg>
