<?xml version="1.0" encoding="UTF-8" standalone="no"?>
<!DOCTYPE svg PUBLIC "-//W3C//DTD SVG 1.1//EN"
 "http://www.w3.org/Graphics/SVG/1.1/DTD/svg11.dtd">
<!-- Generated by graphviz version 2.28.0 (20111025.1818)
 -->
<!-- Title: G Pages: 1 -->
<svg width="309pt" height="328pt"
 viewBox="0.00 0.00 309.00 328.00" xmlns="http://www.w3.org/2000/svg" xmlns:xlink="http://www.w3.org/1999/xlink">
<g id="graph1" class="graph" transform="scale(1 1) rotate(0) translate(4 324)">
<title>G</title>
<polygon fill="white" stroke="white" points="-4,5 -4,-324 306,-324 306,5 -4,5"/>
<!-- Node1 -->
<g id="node1" class="node"><title>Node1</title>
<polygon fill="#bfbfbf" stroke="black" points="84,-0.5 84,-19.5 126,-19.5 126,-0.5 84,-0.5"/>
<text text-anchor="middle" x="105" y="-7.5" font-family="Helvetica,sans-Serif" font-size="10.00">sProc</text>
</g>
<!-- Node2 -->
<g id="node2" class="node"><title>Node2</title>
<a xlink:href="../../db/d4b/structsPTE.xhtml" target="_top" xlink:title="A struct representing a single page table entry.">
<polygon fill="white" stroke="black" points="-0.5,-68.5 -0.5,-87.5 40.5,-87.5 40.5,-68.5 -0.5,-68.5"/>
<text text-anchor="middle" x="20" y="-75.5" font-family="Helvetica,sans-Serif" font-size="10.00">sPTE</text>
</a>
</g>
<!-- Node2&#45;&gt;Node1 -->
<g id="edge2" class="edge"><title>Node2&#45;&gt;Node1</title>
<path fill="none" stroke="#9a32cd" stroke-dasharray="5,2" d="M39.1944,-62.0961C56.0591,-49.0012 80.0116,-30.4028 93.885,-19.6305"/>
<polygon fill="#9a32cd" stroke="#9a32cd" points="36.8643,-59.4742 31.1123,-68.3717 41.1574,-65.0031 36.8643,-59.4742"/>
<text text-anchor="middle" x="85" y="-41.5" font-family="Helvetica,sans-Serif" font-size="10.00"> PTptr</text>
</g>
<!-- Node3 -->
<g id="node4" class="node"><title>Node3</title>
<a xlink:title="STL class.">
<polygon fill="white" stroke="#bfbfbf" points="59,-68.5 59,-87.5 151,-87.5 151,-68.5 59,-68.5"/>
<text text-anchor="middle" x="105" y="-75.5" font-family="Helvetica,sans-Serif" font-size="10.00">std::istringstream</text>
</a>
</g>
<!-- Node3&#45;&gt;Node1 -->
<g id="edge4" class="edge"><title>Node3&#45;&gt;Node1</title>
<path fill="none" stroke="#9a32cd" stroke-dasharray="5,2" d="M105,-58.0413C105,-45.4724 105,-29.5631 105,-19.8411"/>
<polygon fill="#9a32cd" stroke="#9a32cd" points="101.5,-58.3716 105,-68.3717 108.5,-58.3717 101.5,-58.3716"/>
<text text-anchor="middle" x="116" y="-41.5" font-family="Helvetica,sans-Serif" font-size="10.00"> data</text>
</g>
<!-- Node4 -->
<g id="node6" class="node"><title>Node4</title>
<a xlink:title="STL class.">
<polygon fill="white" stroke="#bfbfbf" points="1,-126.5 1,-145.5 159,-145.5 159,-126.5 1,-126.5"/>
<text text-anchor="middle" x="80" y="-133.5" font-family="Helvetica,sans-Serif" font-size="10.00">std::basic_istringstream&lt; char &gt;</text>
</a>
</g>
<!-- Node4&#45;&gt;Node3 -->
<g id="edge6" class="edge"><title>Node4&#45;&gt;Node3</title>
<path fill="none" stroke="midnightblue" d="M88.0833,-116.893C92.4886,-107.026 97.7337,-95.2766 101.203,-87.5052"/>
<polygon fill="midnightblue" stroke="midnightblue" points="84.7868,-115.692 83.9062,-126.25 91.1788,-118.545 84.7868,-115.692"/>
</g>
<!-- Node5 -->
<g id="node8" class="node"><title>Node5</title>
<a xlink:title="STL class.">
<polygon fill="white" stroke="#bfbfbf" points="12,-184.5 12,-203.5 148,-203.5 148,-184.5 12,-184.5"/>
<text text-anchor="middle" x="80" y="-191.5" font-family="Helvetica,sans-Serif" font-size="10.00">std::basic_istream&lt; Char &gt;</text>
</a>
</g>
<!-- Node5&#45;&gt;Node4 -->
<g id="edge8" class="edge"><title>Node5&#45;&gt;Node4</title>
<path fill="none" stroke="midnightblue" d="M80,-173.953C80,-164.287 80,-153.031 80,-145.505"/>
<polygon fill="midnightblue" stroke="midnightblue" points="76.5001,-174.25 80,-184.25 83.5001,-174.25 76.5001,-174.25"/>
</g>
<!-- Node6 -->
<g id="node10" class="node"><title>Node6</title>
<a xlink:title="STL class.">
<polygon fill="white" stroke="#bfbfbf" points="22,-242.5 22,-261.5 138,-261.5 138,-242.5 22,-242.5"/>
<text text-anchor="middle" x="80" y="-249.5" font-family="Helvetica,sans-Serif" font-size="10.00">std::basic_ios&lt; Char &gt;</text>
</a>
</g>
<!-- Node6&#45;&gt;Node5 -->
<g id="edge10" class="edge"><title>Node6&#45;&gt;Node5</title>
<path fill="none" stroke="midnightblue" d="M80,-231.953C80,-222.287 80,-211.031 80,-203.505"/>
<polygon fill="midnightblue" stroke="midnightblue" points="76.5001,-232.25 80,-242.25 83.5001,-232.25 76.5001,-232.25"/>
</g>
<!-- Node7 -->
<g id="node12" class="node"><title>Node7</title>
<a xlink:title="STL class.">
<polygon fill="white" stroke="#bfbfbf" points="42.5,-300.5 42.5,-319.5 117.5,-319.5 117.5,-300.5 42.5,-300.5"/>
<text text-anchor="middle" x="80" y="-307.5" font-family="Helvetica,sans-Serif" font-size="10.00">std::ios_base</text>
</a>
</g>
<!-- Node7&#45;&gt;Node6 -->
<g id="edge12" class="edge"><title>Node7&#45;&gt;Node6</title>
<path fill="none" stroke="midnightblue" d="M80,-289.953C80,-280.287 80,-269.031 80,-261.505"/>
<polygon fill="midnightblue" stroke="midnightblue" points="76.5001,-290.25 80,-300.25 83.5001,-290.25 76.5001,-290.25"/>
</g>
<!-- Node8 -->
<g id="node14" class="node"><title>Node8</title>
<a xlink:title="STL class.">
<polygon fill="white" stroke="#bfbfbf" points="201,-68.5 201,-87.5 261,-87.5 261,-68.5 201,-68.5"/>
<text text-anchor="middle" x="231" y="-75.5" font-family="Helvetica,sans-Serif" font-size="10.00">std::string</text>
</a>
</g>
<!-- Node8&#45;&gt;Node1 -->
<g id="edge14" class="edge"><title>Node8&#45;&gt;Node1</title>
<path fill="none" stroke="#9a32cd" stroke-dasharray="5,2" d="M205.588,-63.6889C180.505,-50.5502 142.891,-30.8475 121.476,-19.6305"/>
<polygon fill="#9a32cd" stroke="#9a32cd" points="204.045,-66.8319 214.528,-68.3717 207.293,-60.6311 204.045,-66.8319"/>
<text text-anchor="middle" x="191" y="-41.5" font-family="Helvetica,sans-Serif" font-size="10.00"> rline</text>
</g>
<!-- Node9 -->
<g id="node16" class="node"><title>Node9</title>
<a xlink:title="STL class.">
<polygon fill="white" stroke="#bfbfbf" points="176.5,-126.5 176.5,-145.5 301.5,-145.5 301.5,-126.5 176.5,-126.5"/>
<text text-anchor="middle" x="239" y="-133.5" font-family="Helvetica,sans-Serif" font-size="10.00">std::basic_string&lt; char &gt;</text>
</a>
</g>
<!-- Node9&#45;&gt;Node8 -->
<g id="edge16" class="edge"><title>Node9&#45;&gt;Node8</title>
<path fill="none" stroke="midnightblue" d="M236.324,-116.268C234.933,-106.533 233.302,-95.113 232.215,-87.5052"/>
<polygon fill="midnightblue" stroke="midnightblue" points="232.871,-116.846 237.75,-126.25 239.801,-115.855 232.871,-116.846"/>
</g>
</g>
</svg>
