<?xml version="1.0" encoding="UTF-8" standalone="no"?>
<!DOCTYPE svg PUBLIC "-//W3C//DTD SVG 1.1//EN"
 "http://www.w3.org/Graphics/SVG/1.1/DTD/svg11.dtd">
<!-- Generated by graphviz version 2.28.0 (20111025.1818)
 -->
<!-- Title: G Pages: 1 -->
<svg width="304pt" height="84pt"
 viewBox="0.00 0.00 304.00 84.00" xmlns="http://www.w3.org/2000/svg" xmlns:xlink="http://www.w3.org/1999/xlink">
<g id="graph1" class="graph" transform="scale(1 1) rotate(0) translate(4 80)">
<title>G</title>
<polygon fill="white" stroke="white" points="-4,5 -4,-80 301,-80 301,5 -4,5"/>
<!-- Node1 -->
<g id="node1" class="node"><title>Node1</title>
<polygon fill="#bfbfbf" stroke="black" points="97.5,-56.5 97.5,-75.5 162.5,-75.5 162.5,-56.5 97.5,-56.5"/>
<text text-anchor="middle" x="130" y="-63.5" font-family="Helvetica,sans-Serif" font-size="10.00">cScheduler</text>
</g>
<!-- Node2 -->
<g id="node3" class="node"><title>Node2</title>
<a xlink:href="../../d6/dc3/classcFCFS.xhtml" target="_top" xlink:title="First&#45;Come&#45;First&#45;Serve Scheduler.">
<polygon fill="white" stroke="black" points="0,-0.5 0,-19.5 48,-19.5 48,-0.5 0,-0.5"/>
<text text-anchor="middle" x="24" y="-7.5" font-family="Helvetica,sans-Serif" font-size="10.00">cFCFS</text>
</a>
</g>
<!-- Node1&#45;&gt;Node2 -->
<g id="edge2" class="edge"><title>Node1&#45;&gt;Node2</title>
<path fill="none" stroke="midnightblue" d="M103.944,-51.7261C84.3162,-41.7271 57.972,-28.3065 40.9885,-19.6545"/>
<polygon fill="midnightblue" stroke="midnightblue" points="102.47,-54.9033 112.969,-56.324 105.648,-48.666 102.47,-54.9033"/>
</g>
<!-- Node3 -->
<g id="node5" class="node"><title>Node3</title>
<a xlink:href="../../dd/dc8/classcLottery.xhtml" target="_top" xlink:title="Lottery Scheduler.">
<polygon fill="white" stroke="black" points="66,-0.5 66,-19.5 118,-19.5 118,-0.5 66,-0.5"/>
<text text-anchor="middle" x="92" y="-7.5" font-family="Helvetica,sans-Serif" font-size="10.00">cLottery</text>
</a>
</g>
<!-- Node1&#45;&gt;Node3 -->
<g id="edge4" class="edge"><title>Node1&#45;&gt;Node3</title>
<path fill="none" stroke="midnightblue" d="M117.935,-47.8554C111.355,-38.5048 103.489,-27.3265 98.1582,-19.7511"/>
<polygon fill="midnightblue" stroke="midnightblue" points="115.108,-49.9192 123.725,-56.083 120.832,-45.8907 115.108,-49.9192"/>
</g>
<!-- Node4 -->
<g id="node7" class="node"><title>Node4</title>
<a xlink:href="../../de/d3b/classcMultiLevel.xhtml" target="_top" xlink:title="Multi&#45;Level Queue Scheduler.">
<polygon fill="white" stroke="black" points="136,-0.5 136,-19.5 202,-19.5 202,-0.5 136,-0.5"/>
<text text-anchor="middle" x="169" y="-7.5" font-family="Helvetica,sans-Serif" font-size="10.00">cMultiLevel</text>
</a>
</g>
<!-- Node1&#45;&gt;Node4 -->
<g id="edge6" class="edge"><title>Node1&#45;&gt;Node4</title>
<path fill="none" stroke="midnightblue" d="M142.382,-47.8554C149.135,-38.5048 157.209,-27.3265 162.68,-19.7511"/>
<polygon fill="midnightblue" stroke="midnightblue" points="139.458,-45.927 136.44,-56.083 145.132,-50.0254 139.458,-45.927"/>
</g>
<!-- Node5 -->
<g id="node9" class="node"><title>Node5</title>
<a xlink:href="../../dc/dcc/classcRoundRobin.xhtml" target="_top" xlink:title="Round Robin Scheduler.">
<polygon fill="white" stroke="black" points="220,-0.5 220,-19.5 296,-19.5 296,-0.5 220,-0.5"/>
<text text-anchor="middle" x="258" y="-7.5" font-family="Helvetica,sans-Serif" font-size="10.00">cRoundRobin</text>
</a>
</g>
<!-- Node1&#45;&gt;Node5 -->
<g id="edge8" class="edge"><title>Node1&#45;&gt;Node5</title>
<path fill="none" stroke="midnightblue" d="M159.623,-52.503C183.619,-42.3795 216.784,-28.388 237.813,-19.5164"/>
<polygon fill="midnightblue" stroke="midnightblue" points="158.135,-49.3317 150.282,-56.4435 160.856,-55.7813 158.135,-49.3317"/>
</g>
</g>
</svg>
