<?xml version="1.0" encoding="UTF-8" standalone="no"?>
<!DOCTYPE svg PUBLIC "-//W3C//DTD SVG 1.1//EN"
 "http://www.w3.org/Graphics/SVG/1.1/DTD/svg11.dtd">
<!-- Generated by graphviz version 2.28.0 (20111025.1818)
 -->
<!-- Title: G Pages: 1 -->
<svg width="220pt" height="84pt"
 viewBox="0.00 0.00 220.00 84.00" xmlns="http://www.w3.org/2000/svg" xmlns:xlink="http://www.w3.org/1999/xlink">
<g id="graph1" class="graph" transform="scale(1 1) rotate(0) translate(4 80)">
<title>G</title>
<polygon fill="white" stroke="white" points="-4,5 -4,-80 217,-80 217,5 -4,5"/>
<!-- Node1 -->
<g id="node1" class="node"><title>Node1</title>
<polygon fill="#bfbfbf" stroke="black" points="59.5,-56.5 59.5,-75.5 124.5,-75.5 124.5,-56.5 59.5,-56.5"/>
<text text-anchor="middle" x="92" y="-63.5" font-family="Helvetica,sans-Serif" font-size="10.00">cScheduler</text>
</g>
<!-- Node2 -->
<g id="node3" class="node"><title>Node2</title>
<a xlink:href="../../d6/dc3/classcFCFS.xhtml" target="_top" xlink:title="First&#45;Come&#45;First&#45;Serve Scheduler.">
<polygon fill="white" stroke="black" points="0,-0.5 0,-19.5 48,-19.5 48,-0.5 0,-0.5"/>
<text text-anchor="middle" x="24" y="-7.5" font-family="Helvetica,sans-Serif" font-size="10.00">cFCFS</text>
</a>
</g>
<!-- Node1&#45;&gt;Node2 -->
<g id="edge2" class="edge"><title>Node1&#45;&gt;Node2</title>
<path fill="none" stroke="midnightblue" d="M73.238,-50.1008C61.0001,-40.3824 45.4413,-28.0269 35.1242,-19.8339"/>
<polygon fill="midnightblue" stroke="midnightblue" points="71.0669,-52.846 81.0746,-56.324 75.4201,-47.3642 71.0669,-52.846"/>
</g>
<!-- Node3 -->
<g id="node5" class="node"><title>Node3</title>
<a xlink:href="../../dd/dc8/classcLottery.xhtml" target="_top" xlink:title="Lottery Scheduler.">
<polygon fill="white" stroke="black" points="66,-0.5 66,-19.5 118,-19.5 118,-0.5 66,-0.5"/>
<text text-anchor="middle" x="92" y="-7.5" font-family="Helvetica,sans-Serif" font-size="10.00">cLottery</text>
</a>
</g>
<!-- Node1&#45;&gt;Node3 -->
<g id="edge4" class="edge"><title>Node1&#45;&gt;Node3</title>
<path fill="none" stroke="midnightblue" d="M92,-45.8045C92,-36.9102 92,-26.7798 92,-19.7511"/>
<polygon fill="midnightblue" stroke="midnightblue" points="88.5001,-46.083 92,-56.083 95.5001,-46.083 88.5001,-46.083"/>
</g>
<!-- Node4 -->
<g id="node7" class="node"><title>Node4</title>
<a xlink:href="../../dc/dcc/classcRoundRobin.xhtml" target="_top" xlink:title="Round Robin Scheduler.">
<polygon fill="white" stroke="black" points="136,-0.5 136,-19.5 212,-19.5 212,-0.5 136,-0.5"/>
<text text-anchor="middle" x="174" y="-7.5" font-family="Helvetica,sans-Serif" font-size="10.00">cRoundRobin</text>
</a>
</g>
<!-- Node1&#45;&gt;Node4 -->
<g id="edge6" class="edge"><title>Node1&#45;&gt;Node4</title>
<path fill="none" stroke="midnightblue" d="M113.833,-50.6221C128.813,-40.7574 148.197,-27.9919 160.858,-19.6545"/>
<polygon fill="midnightblue" stroke="midnightblue" points="111.601,-47.9009 105.175,-56.324 115.451,-53.7471 111.601,-47.9009"/>
</g>
</g>
</svg>
