<?xml version="1.0" encoding="UTF-8" standalone="no"?>
<!DOCTYPE svg PUBLIC "-//W3C//DTD SVG 1.1//EN"
 "http://www.w3.org/Graphics/SVG/1.1/DTD/svg11.dtd">
<!-- Generated by graphviz version 2.28.0 (20111025.1818)
 -->
<!-- Title: G Pages: 1 -->
<!--zoomable 308 -->
<svg id="main" version="1.1" xmlns="http://www.w3.org/2000/svg" xmlns:xlink="http://www.w3.org/1999/xlink" xml:space="preserve" onload="init(evt)">
        <defs>
                <circle id="rim" cx="0" cy="0" r="7"/>
                <circle id="rim2" cx="0" cy="0" r="3.5"/>
                <g id="zoomPlus">
                        <use xlink:href="#rim" fill="#404040">
                                <set attributeName="fill" to="#808080" begin="zoomplus.mouseover" end="zoomplus.mouseout"/>
                        </use>
                        <path d="M-4,0h8M0,-4v8" fill="none" stroke="white" stroke-width="1.5" pointer-events="none"/>
                </g>
                <g id="zoomMin">
                        <use xlink:href="#rim" fill="#404040">
                                <set attributeName="fill" to="#808080" begin="zoomminus.mouseover" end="zoomminus.mouseout"/>
                        </use>
                        <path d="M-4,0h8" fill="none" stroke="white" stroke-width="1.5" pointer-events="none"/>
                </g>
                <g id="dirArrow">
                        <path fill="none" stroke="white" stroke-width="1.5" d="M0,-3.0v7 M-2.5,-0.5L0,-3.0L2.5,-0.5"/>
                </g>
               <g id="resetDef">
                       <use xlink:href="#rim2" fill="#404040">
                               <set attributeName="fill" to="#808080" begin="reset.mouseover" end="reset.mouseout"/>
                       </use>
               </g>
        </defs>

<script type="text/javascript">
var viewWidth = 774;
var viewHeight = 308;
var sectionId = 'dynsection-1';
</script>
<script xlink:href="../../svgpan.js"/>
<svg id="graph" class="graph">
<g id="viewport">
<title>G</title>
<polygon fill="white" stroke="white" points="-4,5 -4,-304 771.02,-304 771.02,5 -4,5"/>
<!-- Node1 -->
<g id="node1" class="node"><title>Node1</title>
<polygon fill="#bfbfbf" stroke="black" points="289.02,-280.5 289.02,-299.5 389.02,-299.5 389.02,-280.5 289.02,-280.5"/>
<text text-anchor="middle" x="339.02" y="-287.5" font-family="Helvetica,sans-Serif" font-size="10.00">include/iniReader.h</text>
</g>
<!-- Node2 -->
<g id="node3" class="node"><title>Node2</title>
<a xlink:href="../../d2/df1/mmu_8h_source.xhtml" target="_top" xlink:title="include/mmu.h">
<polygon fill="white" stroke="black" points="367.02,-224.5 367.02,-243.5 447.02,-243.5 447.02,-224.5 367.02,-224.5"/>
<text text-anchor="middle" x="407.02" y="-231.5" font-family="Helvetica,sans-Serif" font-size="10.00">include/mmu.h</text>
</a>
</g>
<!-- Node1&#45;&gt;Node2 -->
<g id="edge2" class="edge"><title>Node1&#45;&gt;Node2</title>
<path fill="none" stroke="midnightblue" d="M357.782,-274.101C370.02,-264.382 385.578,-252.027 395.896,-243.834"/>
<polygon fill="midnightblue" stroke="midnightblue" points="355.6,-271.364 349.945,-280.324 359.953,-276.846 355.6,-271.364"/>
</g>
<!-- Node3 -->
<g id="node5" class="node"><title>Node3</title>
<a xlink:href="../../dc/da7/cpu_8h.xhtml" target="_top" xlink:title="include/cpu.h">
<polygon fill="white" stroke="black" points="418.02,-168.5 418.02,-187.5 492.02,-187.5 492.02,-168.5 418.02,-168.5"/>
<text text-anchor="middle" x="455.02" y="-175.5" font-family="Helvetica,sans-Serif" font-size="10.00">include/cpu.h</text>
</a>
</g>
<!-- Node1&#45;&gt;Node3 -->
<g id="edge34" class="edge"><title>Node1&#45;&gt;Node3</title>
<path fill="none" stroke="midnightblue" d="M340.361,-270.281C342.271,-256.11 346.888,-236.94 358.02,-224 373.879,-205.564 398.908,-194.212 419.568,-187.523"/>
<polygon fill="midnightblue" stroke="midnightblue" points="336.865,-270.056 339.335,-280.359 343.829,-270.765 336.865,-270.056"/>
</g>
<!-- Node4 -->
<g id="node7" class="node"><title>Node4</title>
<a xlink:href="../../d4/d9a/vmm__core_8h.xhtml" target="_top" xlink:title="include/vmm_core.h">
<polygon fill="white" stroke="black" points="352.02,-112.5 352.02,-131.5 456.02,-131.5 456.02,-112.5 352.02,-112.5"/>
<text text-anchor="middle" x="404.02" y="-119.5" font-family="Helvetica,sans-Serif" font-size="10.00">include/vmm_core.h</text>
</a>
</g>
<!-- Node1&#45;&gt;Node4 -->
<g id="edge36" class="edge"><title>Node1&#45;&gt;Node4</title>
<path fill="none" stroke="midnightblue" d="M316.446,-274.825C282.945,-252.014 226.889,-205.882 255.02,-168 277.091,-138.279 318.211,-127.481 351.672,-123.864"/>
<polygon fill="midnightblue" stroke="midnightblue" points="314.539,-277.76 324.811,-280.359 318.402,-271.922 314.539,-277.76"/>
</g>
<!-- Node5 -->
<g id="node10" class="node"><title>Node5</title>
<a xlink:href="../../de/d7e/cleaningDaemon_8h_source.xhtml" target="_top" xlink:title="include/Policy/cleaningDaemon.h">
<polygon fill="white" stroke="black" points="518.52,-56.5 518.52,-75.5 679.52,-75.5 679.52,-56.5 518.52,-56.5"/>
<text text-anchor="middle" x="599.02" y="-63.5" font-family="Helvetica,sans-Serif" font-size="10.00">include/Policy/cleaningDaemon.h</text>
</a>
</g>
<!-- Node1&#45;&gt;Node5 -->
<g id="edge56" class="edge"><title>Node1&#45;&gt;Node5</title>
<path fill="none" stroke="midnightblue" d="M399.225,-286.03C463.357,-281.512 558.915,-270.437 583.02,-244 627.507,-195.208 608.798,-104.304 601.461,-75.7895"/>
<polygon fill="midnightblue" stroke="midnightblue" points="398.961,-282.54 389.217,-286.701 399.429,-289.525 398.961,-282.54"/>
</g>
<!-- Node11 -->
<g id="node30" class="node"><title>Node11</title>
<a xlink:href="../../d9/dd2/round__robin_8h.xhtml" target="_top" xlink:title="include/round_robin.h">
<polygon fill="white" stroke="black" points="465.52,-224.5 465.52,-243.5 574.52,-243.5 574.52,-224.5 465.52,-224.5"/>
<text text-anchor="middle" x="520.02" y="-231.5" font-family="Helvetica,sans-Serif" font-size="10.00">include/round_robin.h</text>
</a>
</g>
<!-- Node1&#45;&gt;Node11 -->
<g id="edge38" class="edge"><title>Node1&#45;&gt;Node11</title>
<path fill="none" stroke="midnightblue" d="M377.339,-277.568C411.484,-267.381 460.68,-252.703 491.474,-243.516"/>
<polygon fill="midnightblue" stroke="midnightblue" points="376.282,-274.231 367.7,-280.444 378.283,-280.938 376.282,-274.231"/>
</g>
<!-- Node12 -->
<g id="node33" class="node"><title>Node12</title>
<a xlink:href="../../d7/d62/io__control_8h_source.xhtml" target="_top" xlink:title="include/io_control.h">
<polygon fill="white" stroke="black" points="120.52,-224.5 120.52,-243.5 221.52,-243.5 221.52,-224.5 120.52,-224.5"/>
<text text-anchor="middle" x="171.02" y="-231.5" font-family="Helvetica,sans-Serif" font-size="10.00">include/io_control.h</text>
</a>
</g>
<!-- Node1&#45;&gt;Node12 -->
<g id="edge42" class="edge"><title>Node1&#45;&gt;Node12</title>
<path fill="none" stroke="midnightblue" d="M302.634,-277.304C270.978,-267.129 225.852,-252.625 197.515,-243.516"/>
<polygon fill="midnightblue" stroke="midnightblue" points="301.808,-280.715 312.4,-280.444 303.95,-274.051 301.808,-280.715"/>
</g>
<!-- Node13 -->
<g id="node36" class="node"><title>Node13</title>
<a xlink:href="../../dc/dff/frameAlloc_8h_source.xhtml" target="_top" xlink:title="include/Policy/frameAlloc.h">
<polygon fill="white" stroke="black" points="264.52,-168.5 264.52,-187.5 399.52,-187.5 399.52,-168.5 264.52,-168.5"/>
<text text-anchor="middle" x="332.02" y="-175.5" font-family="Helvetica,sans-Serif" font-size="10.00">include/Policy/frameAlloc.h</text>
</a>
</g>
<!-- Node1&#45;&gt;Node13 -->
<g id="edge46" class="edge"><title>Node1&#45;&gt;Node13</title>
<path fill="none" stroke="midnightblue" d="M331.965,-270.74C329.21,-262.675 326.387,-252.999 325.02,-244 321.985,-224.026 326.554,-200.404 329.621,-187.863"/>
<polygon fill="midnightblue" stroke="midnightblue" points="328.708,-272.024 335.42,-280.222 335.285,-269.628 328.708,-272.024"/>
</g>
<!-- Node14 -->
<g id="node40" class="node"><title>Node14</title>
<a xlink:href="../../d3/d2c/pageReplace_8h.xhtml" target="_top" xlink:title="include/Policy/pageReplace.h">
<polygon fill="white" stroke="black" points="19.0198,-112.5 19.0198,-131.5 165.02,-131.5 165.02,-112.5 19.0198,-112.5"/>
<text text-anchor="middle" x="92.0198" y="-119.5" font-family="Helvetica,sans-Serif" font-size="10.00">include/Policy/pageReplace.h</text>
</a>
</g>
<!-- Node1&#45;&gt;Node14 -->
<g id="edge62" class="edge"><title>Node1&#45;&gt;Node14</title>
<path fill="none" stroke="midnightblue" d="M278.93,-284.818C219.335,-279.371 133.722,-267.608 111.02,-244 80.8043,-212.579 86.797,-153.889 90.384,-131.752"/>
<polygon fill="midnightblue" stroke="midnightblue" points="278.727,-288.314 288.994,-285.701 279.339,-281.34 278.727,-288.314"/>
</g>
<!-- Node15 -->
<g id="node44" class="node"><title>Node15</title>
<a xlink:href="../../dd/da3/defaults_8h_source.xhtml" target="_top" xlink:title="include/settings/defaults.h">
<polygon fill="white" stroke="black" points="635.52,-168.5 635.52,-187.5 766.52,-187.5 766.52,-168.5 635.52,-168.5"/>
<text text-anchor="middle" x="701.02" y="-175.5" font-family="Helvetica,sans-Serif" font-size="10.00">include/settings/defaults.h</text>
</a>
</g>
<!-- Node1&#45;&gt;Node15 -->
<g id="edge58" class="edge"><title>Node1&#45;&gt;Node15</title>
<path fill="none" stroke="midnightblue" d="M399.14,-287.775C457.122,-284.663 546.258,-274.715 617.02,-244 648.481,-230.344 678.568,-202.219 692.67,-187.859"/>
<polygon fill="midnightblue" stroke="midnightblue" points="398.862,-284.284 389.043,-288.264 399.201,-291.276 398.862,-284.284"/>
</g>
<!-- Node2&#45;&gt;Node3 -->
<g id="edge4" class="edge"><title>Node2&#45;&gt;Node3</title>
<path fill="none" stroke="midnightblue" d="M421.747,-216.431C430.16,-206.967 440.368,-195.483 447.241,-187.751"/>
<polygon fill="midnightblue" stroke="midnightblue" points="418.974,-214.284 414.946,-224.083 424.206,-218.934 418.974,-214.284"/>
</g>
<!-- Node3&#45;&gt;Node4 -->
<g id="edge6" class="edge"><title>Node3&#45;&gt;Node4</title>
<path fill="none" stroke="midnightblue" d="M434.247,-161.537C424.123,-151.909 413.093,-139.869 407.214,-131.834"/>
<polygon fill="midnightblue" stroke="midnightblue" points="431.957,-164.186 441.711,-168.324 436.667,-159.007 431.957,-164.186"/>
</g>
<!-- Node4&#45;&gt;Node3 -->
<g id="edge8" class="edge"><title>Node4&#45;&gt;Node3</title>
<path fill="none" stroke="midnightblue" d="M424.847,-138.515C434.921,-148.101 445.881,-160.062 451.764,-168.083"/>
<polygon fill="midnightblue" stroke="midnightblue" points="427.167,-135.893 417.416,-131.751 422.456,-141.07 427.167,-135.893"/>
</g>
<!-- Node4&#45;&gt;Node5 -->
<g id="edge10" class="edge"><title>Node4&#45;&gt;Node5</title>
<path fill="none" stroke="midnightblue" d="M439.67,-109.568C474.8,-99.381 527.987,-84.7034 563.186,-75.5164"/>
<polygon fill="midnightblue" stroke="midnightblue" points="438.446,-106.279 429.829,-112.444 440.41,-112.998 438.446,-106.279"/>
</g>
<!-- Node6 -->
<g id="node13" class="node"><title>Node6</title>
<a xlink:href="../../d4/dbf/main_8h_source.xhtml" target="_top" xlink:title="include/main.h">
<polygon fill="white" stroke="black" points="504.02,-0.5 504.02,-19.5 584.02,-19.5 584.02,-0.5 504.02,-0.5"/>
<text text-anchor="middle" x="544.02" y="-7.5" font-family="Helvetica,sans-Serif" font-size="10.00">include/main.h</text>
</a>
</g>
<!-- Node4&#45;&gt;Node6 -->
<g id="edge16" class="edge"><title>Node4&#45;&gt;Node6</title>
<path fill="none" stroke="midnightblue" d="M426.271,-106.808C439.298,-98.2596 455.91,-86.9415 470.02,-76 494.343,-57.1389 521.046,-32.6662 534.757,-19.7979"/>
<polygon fill="midnightblue" stroke="midnightblue" points="423.987,-104.118 417.505,-112.498 427.798,-109.989 423.987,-104.118"/>
</g>
<!-- Node7 -->
<g id="node16" class="node"><title>Node7</title>
<a xlink:href="../../d3/ded/pr__fifo_8h_source.xhtml" target="_top" xlink:title="include/Policy/pr_fifo.h">
<polygon fill="white" stroke="black" points="346.02,-56.5 346.02,-75.5 462.02,-75.5 462.02,-56.5 346.02,-56.5"/>
<text text-anchor="middle" x="404.02" y="-63.5" font-family="Helvetica,sans-Serif" font-size="10.00">include/Policy/pr_fifo.h</text>
</a>
</g>
<!-- Node4&#45;&gt;Node7 -->
<g id="edge18" class="edge"><title>Node4&#45;&gt;Node7</title>
<path fill="none" stroke="midnightblue" d="M404.02,-101.805C404.02,-92.9102 404.02,-82.7798 404.02,-75.7511"/>
<polygon fill="midnightblue" stroke="midnightblue" points="400.52,-102.083 404.02,-112.083 407.52,-102.083 400.52,-102.083"/>
</g>
<!-- Node9 -->
<g id="node22" class="node"><title>Node9</title>
<a xlink:href="../../db/d16/pr__lru_8h_source.xhtml" target="_top" xlink:title="include/Policy/pr_lru.h">
<polygon fill="white" stroke="black" points="214.52,-56.5 214.52,-75.5 327.52,-75.5 327.52,-56.5 214.52,-56.5"/>
<text text-anchor="middle" x="271.02" y="-63.5" font-family="Helvetica,sans-Serif" font-size="10.00">include/Policy/pr_lru.h</text>
</a>
</g>
<!-- Node4&#45;&gt;Node9 -->
<g id="edge26" class="edge"><title>Node4&#45;&gt;Node9</title>
<path fill="none" stroke="midnightblue" d="M373.572,-108.638C348.613,-98.504 313.943,-84.4274 291.995,-75.5164"/>
<polygon fill="midnightblue" stroke="midnightblue" points="372.363,-111.924 382.946,-112.444 374.997,-105.439 372.363,-111.924"/>
</g>
<!-- Node10 -->
<g id="node25" class="node"><title>Node10</title>
<a xlink:href="../../d6/d53/pr__lruApprox_8h_source.xhtml" target="_top" xlink:title="include/Policy/pr_lruApprox.h">
<polygon fill="white" stroke="black" points="14.5198,-56.5 14.5198,-75.5 157.52,-75.5 157.52,-56.5 14.5198,-56.5"/>
<text text-anchor="middle" x="86.0198" y="-63.5" font-family="Helvetica,sans-Serif" font-size="10.00">include/Policy/pr_lruApprox.h</text>
</a>
</g>
<!-- Node4&#45;&gt;Node10 -->
<g id="edge30" class="edge"><title>Node4&#45;&gt;Node10</title>
<path fill="none" stroke="midnightblue" d="M343.526,-110.727C283.433,-100.523 192.363,-85.0583 136.172,-75.5164"/>
<polygon fill="midnightblue" stroke="midnightblue" points="343.187,-114.22 353.632,-112.444 344.359,-107.319 343.187,-114.22"/>
</g>
<!-- Node5&#45;&gt;Node4 -->
<g id="edge12" class="edge"><title>Node5&#45;&gt;Node4</title>
<path fill="none" stroke="midnightblue" d="M563.522,-78.3879C528.445,-88.5617 475.258,-103.241 440.007,-112.444"/>
<polygon fill="midnightblue" stroke="midnightblue" points="564.73,-81.6816 573.346,-75.5164 562.766,-74.9627 564.73,-81.6816"/>
</g>
<!-- Node5&#45;&gt;Node6 -->
<g id="edge14" class="edge"><title>Node5&#45;&gt;Node6</title>
<path fill="none" stroke="midnightblue" d="M582.726,-49.0024C572.979,-39.4329 560.967,-27.6389 552.933,-19.7511"/>
<polygon fill="midnightblue" stroke="midnightblue" points="580.35,-51.5746 589.938,-56.083 585.254,-46.5796 580.35,-51.5746"/>
</g>
<!-- Node7&#45;&gt;Node6 -->
<g id="edge24" class="edge"><title>Node7&#45;&gt;Node6</title>
<path fill="none" stroke="midnightblue" d="M435.722,-52.772C462.02,-42.6287 498.735,-28.4669 521.94,-19.5164"/>
<polygon fill="midnightblue" stroke="midnightblue" points="434.274,-49.5792 426.203,-56.4435 436.793,-56.1103 434.274,-49.5792"/>
</g>
<!-- Node8 -->
<g id="node18" class="node"><title>Node8</title>
<a xlink:href="../../d1/df8/allPR_8h_source.xhtml" target="_top" xlink:title="include/Policy/allPR.h">
<polygon fill="white" stroke="black" points="129.52,-0.5 129.52,-19.5 242.52,-19.5 242.52,-0.5 129.52,-0.5"/>
<text text-anchor="middle" x="186.02" y="-7.5" font-family="Helvetica,sans-Serif" font-size="10.00">include/Policy/allPR.h</text>
</a>
</g>
<!-- Node7&#45;&gt;Node8 -->
<g id="edge20" class="edge"><title>Node7&#45;&gt;Node8</title>
<path fill="none" stroke="midnightblue" d="M359.708,-54.0237C318.528,-43.8232 258.046,-28.8414 220.401,-19.5164"/>
<polygon fill="midnightblue" stroke="midnightblue" points="358.929,-57.4364 369.477,-56.4435 360.612,-50.6417 358.929,-57.4364"/>
</g>
<!-- Node8&#45;&gt;Node4 -->
<g id="edge22" class="edge"><title>Node8&#45;&gt;Node4</title>
<path fill="none" stroke="midnightblue" d="M186.578,-29.9494C188.045,-44.5513 192.446,-64.1828 205.02,-76 225.926,-95.6491 300.063,-108.45 351.688,-115.202"/>
<polygon fill="midnightblue" stroke="midnightblue" points="190.046,-29.3256 185.93,-19.5628 183.059,-29.7611 190.046,-29.3256"/>
</g>
<!-- Node9&#45;&gt;Node8 -->
<g id="edge28" class="edge"><title>Node9&#45;&gt;Node8</title>
<path fill="none" stroke="midnightblue" d="M248.826,-50.9005C233.24,-40.9986 212.89,-28.0705 199.643,-19.6545"/>
<polygon fill="midnightblue" stroke="midnightblue" points="247.046,-53.9158 257.363,-56.324 250.799,-48.0073 247.046,-53.9158"/>
</g>
<!-- Node10&#45;&gt;Node8 -->
<g id="edge32" class="edge"><title>Node10&#45;&gt;Node8</title>
<path fill="none" stroke="midnightblue" d="M111.108,-51.4526C129.569,-41.4835 154.116,-28.2279 169.993,-19.6545"/>
<polygon fill="midnightblue" stroke="midnightblue" points="109.223,-48.4928 102.087,-56.324 112.549,-54.6521 109.223,-48.4928"/>
</g>
<!-- Node11&#45;&gt;Node4 -->
<g id="edge40" class="edge"><title>Node11&#45;&gt;Node4</title>
<path fill="none" stroke="midnightblue" d="M518.679,-214.281C516.768,-200.11 512.152,-180.94 501.02,-168 485.16,-149.564 460.132,-138.212 439.471,-131.523"/>
<polygon fill="midnightblue" stroke="midnightblue" points="515.21,-214.765 519.704,-224.359 522.174,-214.056 515.21,-214.765"/>
</g>
<!-- Node12&#45;&gt;Node4 -->
<g id="edge44" class="edge"><title>Node12&#45;&gt;Node4</title>
<path fill="none" stroke="midnightblue" d="M180.267,-215.564C189.054,-200.691 203.641,-179.883 222.02,-168 261.106,-142.728 313.315,-131.649 351.789,-126.791"/>
<polygon fill="midnightblue" stroke="midnightblue" points="177.191,-213.894 175.349,-224.327 183.295,-217.32 177.191,-213.894"/>
</g>
<!-- Node13&#45;&gt;Node4 -->
<g id="edge48" class="edge"><title>Node13&#45;&gt;Node4</title>
<path fill="none" stroke="midnightblue" d="M351.885,-162.101C364.843,-152.382 381.317,-140.027 392.241,-131.834"/>
<polygon fill="midnightblue" stroke="midnightblue" points="349.488,-159.524 343.588,-168.324 353.688,-165.124 349.488,-159.524"/>
</g>
<!-- Node13&#45;&gt;Node5 -->
<g id="edge50" class="edge"><title>Node13&#45;&gt;Node5</title>
<path fill="none" stroke="midnightblue" d="M370.455,-165.403C397.272,-156.971 433.719,-144.828 465.02,-132 508.564,-114.155 557.921,-88.8301 582.818,-75.6804"/>
<polygon fill="midnightblue" stroke="midnightblue" points="369.187,-162.132 360.679,-168.447 371.268,-168.816 369.187,-162.132"/>
</g>
<!-- Node13&#45;&gt;Node14 -->
<g id="edge52" class="edge"><title>Node13&#45;&gt;Node14</title>
<path fill="none" stroke="midnightblue" d="M284.096,-166.217C238.746,-156.013 171.578,-140.901 129.871,-131.516"/>
<polygon fill="midnightblue" stroke="midnightblue" points="283.467,-169.663 293.991,-168.444 285.003,-162.834 283.467,-169.663"/>
</g>
<!-- Node14&#45;&gt;Node8 -->
<g id="edge54" class="edge"><title>Node14&#45;&gt;Node8</title>
<path fill="none" stroke="midnightblue" d="M52.7128,-109.026C21.9785,-97.6025 -12.794,-78.7849 5.01978,-56 20.2768,-36.4854 81.9488,-24.2231 129.106,-17.5149"/>
<polygon fill="midnightblue" stroke="midnightblue" points="51.883,-112.445 62.4778,-112.471 54.2118,-105.843 51.883,-112.445"/>
</g>
<!-- Node15&#45;&gt;Node6 -->
<g id="edge60" class="edge"><title>Node15&#45;&gt;Node6</title>
<path fill="none" stroke="midnightblue" d="M704.742,-158.492C708.828,-132.515 711.962,-85.1589 688.02,-56 662.922,-25.4334 617.332,-15.2696 584.156,-12.0743"/>
<polygon fill="midnightblue" stroke="midnightblue" points="701.269,-158.032 702.95,-168.492 708.159,-159.266 701.269,-158.032"/>
</g>
</g>
</svg>
        <g id="navigator" transform="translate(0 0)" fill="#404254">
                <rect fill="#f2f5e9" fill-opacity="0.5" stroke="#606060" stroke-width=".5" x="0" y="0" width="60" height="60"/>
                <use id="zoomplus" xlink:href="#zoomPlus" x="17" y="9" onmousedown="handleZoom(evt,'in')"/>
                <use id="zoomminus" xlink:href="#zoomMin" x="42" y="9" onmousedown="handleZoom(evt,'out')"/>
                <use id="reset" xlink:href="#resetDef" x="30" y="36" onmousedown="handleReset()"/>
                <g id="arrowUp" xlink:href="#dirArrow" transform="translate(30 24)" onmousedown="handlePan(0,-1)">
                  <use xlink:href="#rim" fill="#404040">
                        <set attributeName="fill" to="#808080" begin="arrowUp.mouseover" end="arrowUp.mouseout"/>
                  </use>
                  <path fill="none" stroke="white" stroke-width="1.5" d="M0,-3.0v7 M-2.5,-0.5L0,-3.0L2.5,-0.5"/>
                </g>
                <g id="arrowRight" xlink:href="#dirArrow" transform="rotate(90) translate(36 -43)" onmousedown="handlePan(1,0)">
                  <use xlink:href="#rim" fill="#404040">
                        <set attributeName="fill" to="#808080" begin="arrowRight.mouseover" end="arrowRight.mouseout"/>
                  </use>
                  <path fill="none" stroke="white" stroke-width="1.5" d="M0,-3.0v7 M-2.5,-0.5L0,-3.0L2.5,-0.5"/>
                </g>
                <g id="arrowDown" xlink:href="#dirArrow" transform="rotate(180) translate(-30 -48)" onmousedown="handlePan(0,1)">
                  <use xlink:href="#rim" fill="#404040">
                        <set attributeName="fill" to="#808080" begin="arrowDown.mouseover" end="arrowDown.mouseout"/>
                  </use>
                  <path fill="none" stroke="white" stroke-width="1.5" d="M0,-3.0v7 M-2.5,-0.5L0,-3.0L2.5,-0.5"/>
                </g>
                <g id="arrowLeft" xlink:href="#dirArrow" transform="rotate(270) translate(-36 17)" onmousedown="handlePan(-1,0)">
                  <use xlink:href="#rim" fill="#404040">
                        <set attributeName="fill" to="#808080" begin="arrowLeft.mouseover" end="arrowLeft.mouseout"/>
                  </use>
                  <path fill="none" stroke="white" stroke-width="1.5" d="M0,-3.0v7 M-2.5,-0.5L0,-3.0L2.5,-0.5"/>
                </g>
        </g>
</svg>
