<?xml version="1.0" encoding="UTF-8" standalone="no"?>
<!DOCTYPE svg PUBLIC "-//W3C//DTD SVG 1.1//EN"
 "http://www.w3.org/Graphics/SVG/1.1/DTD/svg11.dtd">
<!-- Generated by graphviz version 2.28.0 (20111025.1818)
 -->
<!-- Title: G Pages: 1 -->
<!--zoomable 364 -->
<svg id="main" version="1.1" xmlns="http://www.w3.org/2000/svg" xmlns:xlink="http://www.w3.org/1999/xlink" xml:space="preserve" onload="init(evt)">
        <defs>
                <circle id="rim" cx="0" cy="0" r="7"/>
                <circle id="rim2" cx="0" cy="0" r="3.5"/>
                <g id="zoomPlus">
                        <use xlink:href="#rim" fill="#404040">
                                <set attributeName="fill" to="#808080" begin="zoomplus.mouseover" end="zoomplus.mouseout"/>
                        </use>
                        <path d="M-4,0h8M0,-4v8" fill="none" stroke="white" stroke-width="1.5" pointer-events="none"/>
                </g>
                <g id="zoomMin">
                        <use xlink:href="#rim" fill="#404040">
                                <set attributeName="fill" to="#808080" begin="zoomminus.mouseover" end="zoomminus.mouseout"/>
                        </use>
                        <path d="M-4,0h8" fill="none" stroke="white" stroke-width="1.5" pointer-events="none"/>
                </g>
                <g id="dirArrow">
                        <path fill="none" stroke="white" stroke-width="1.5" d="M0,-3.0v7 M-2.5,-0.5L0,-3.0L2.5,-0.5"/>
                </g>
               <g id="resetDef">
                       <use xlink:href="#rim2" fill="#404040">
                               <set attributeName="fill" to="#808080" begin="reset.mouseover" end="reset.mouseout"/>
                       </use>
               </g>
        </defs>

<script type="text/javascript">
var viewWidth = 1483;
var viewHeight = 364;
var sectionId = 'dynsection-0';
</script>
<script xlink:href="../../svgpan.js"/>
<svg id="graph" class="graph">
<g id="viewport">
<title>G</title>
<polygon fill="white" stroke="white" points="-4,5 -4,-360 1480,-360 1480,5 -4,5"/>
<!-- Node1 -->
<g id="node1" class="node"><title>Node1</title>
<polygon fill="#bfbfbf" stroke="black" points="366,-336.5 366,-355.5 440,-355.5 440,-336.5 366,-336.5"/>
<text text-anchor="middle" x="403" y="-343.5" font-family="Helvetica,sans-Serif" font-size="10.00">include/cpu.h</text>
</g>
<!-- Node2 -->
<g id="node3" class="node"><title>Node2</title>
<a xlink:href="../../d2/df1/mmu_8h_source.xhtml" target="_top" xlink:title="mmu.h">
<polygon fill="white" stroke="black" points="104.5,-112.5 104.5,-131.5 151.5,-131.5 151.5,-112.5 104.5,-112.5"/>
<text text-anchor="middle" x="128" y="-119.5" font-family="Helvetica,sans-Serif" font-size="10.00">mmu.h</text>
</a>
</g>
<!-- Node1&#45;&gt;Node2 -->
<g id="edge2" class="edge"><title>Node1&#45;&gt;Node2</title>
<path fill="none" stroke="midnightblue" d="M365.781,-342.85C306.351,-338.636 193.868,-327.211 166,-300 122.374,-257.402 123.046,-177.716 125.931,-141.619"/>
<polygon fill="midnightblue" stroke="midnightblue" points="129.427,-141.82 126.892,-131.533 122.459,-141.156 129.427,-141.82"/>
</g>
<!-- Node6 -->
<g id="node11" class="node"><title>Node6</title>
<a xlink:href="../../d5/dee/data__structs_8h.xhtml" target="_top" xlink:title="data_structs.h">
<polygon fill="white" stroke="black" points="239.5,-56.5 239.5,-75.5 318.5,-75.5 318.5,-56.5 239.5,-56.5"/>
<text text-anchor="middle" x="279" y="-63.5" font-family="Helvetica,sans-Serif" font-size="10.00">data_structs.h</text>
</a>
</g>
<!-- Node1&#45;&gt;Node6 -->
<g id="edge38" class="edge"><title>Node1&#45;&gt;Node6</title>
<path fill="none" stroke="midnightblue" d="M365.926,-343.17C302.515,-337.83 180,-316.913 180,-235 180,-235 180,-235 180,-177 180,-133.183 223.936,-98.9282 253.27,-80.9413"/>
<polygon fill="midnightblue" stroke="midnightblue" points="255.363,-83.7703 262.206,-75.6816 251.813,-77.7377 255.363,-83.7703"/>
</g>
<!-- Node11 -->
<g id="node22" class="node"><title>Node11</title>
<a xlink:href="../../d5/dfd/iniReader_8h.xhtml" target="_top" xlink:title="iniReader.h">
<polygon fill="white" stroke="black" points="375,-56.5 375,-75.5 441,-75.5 441,-56.5 375,-56.5"/>
<text text-anchor="middle" x="408" y="-63.5" font-family="Helvetica,sans-Serif" font-size="10.00">iniReader.h</text>
</a>
</g>
<!-- Node1&#45;&gt;Node11 -->
<g id="edge40" class="edge"><title>Node1&#45;&gt;Node11</title>
<path fill="none" stroke="midnightblue" d="M365.562,-339.787C311.505,-329.914 218,-303.007 218,-235 218,-235 218,-235 218,-177 218,-109.542 308.812,-82.7819 364.871,-72.6895"/>
<polygon fill="midnightblue" stroke="midnightblue" points="365.628,-76.1113 374.905,-70.9929 364.461,-69.2092 365.628,-76.1113"/>
</g>
<!-- Node15 -->
<g id="node36" class="node"><title>Node15</title>
<a xlink:href="../../d1/d8c/logger_8h.xhtml" target="_top" xlink:title="utility/logger.h">
<polygon fill="white" stroke="black" points="695.5,-56.5 695.5,-75.5 772.5,-75.5 772.5,-56.5 695.5,-56.5"/>
<text text-anchor="middle" x="734" y="-63.5" font-family="Helvetica,sans-Serif" font-size="10.00">utility/logger.h</text>
</a>
</g>
<!-- Node1&#45;&gt;Node15 -->
<g id="edge42" class="edge"><title>Node1&#45;&gt;Node15</title>
<path fill="none" stroke="midnightblue" d="M440.204,-344.851C561.368,-343.503 941.147,-332.196 1016,-244 1054.6,-198.521 847.663,-111.326 766.013,-79.2406"/>
<polygon fill="midnightblue" stroke="midnightblue" points="767.065,-75.8942 756.477,-75.5204 764.521,-82.4155 767.065,-75.8942"/>
</g>
<!-- Node17 -->
<g id="node42" class="node"><title>Node17</title>
<a xlink:href="../../d4/d9a/vmm__core_8h.xhtml" target="_top" xlink:title="vmm_core.h">
<polygon fill="white" stroke="black" points="553.5,-280.5 553.5,-299.5 624.5,-299.5 624.5,-280.5 553.5,-280.5"/>
<text text-anchor="middle" x="589" y="-287.5" font-family="Helvetica,sans-Serif" font-size="10.00">vmm_core.h</text>
</a>
</g>
<!-- Node1&#45;&gt;Node17 -->
<g id="edge50" class="edge"><title>Node1&#45;&gt;Node17</title>
<path fill="none" stroke="midnightblue" d="M427.383,-336.444C457.191,-327.201 507.879,-312.436 544.621,-302.257"/>
<polygon fill="midnightblue" stroke="midnightblue" points="545.872,-305.543 554.586,-299.516 544.016,-298.794 545.872,-305.543"/>
</g>
<!-- Node3 -->
<g id="node5" class="node"><title>Node3</title>
<polygon fill="white" stroke="#bfbfbf" points="172.5,-56.5 172.5,-75.5 221.5,-75.5 221.5,-56.5 172.5,-56.5"/>
<text text-anchor="middle" x="197" y="-63.5" font-family="Helvetica,sans-Serif" font-size="10.00">cassert</text>
</g>
<!-- Node2&#45;&gt;Node3 -->
<g id="edge4" class="edge"><title>Node2&#45;&gt;Node3</title>
<path fill="none" stroke="midnightblue" d="M139.086,-112.324C149.486,-104.185 165.261,-91.8395 177.722,-82.0874"/>
<polygon fill="midnightblue" stroke="midnightblue" points="179.994,-84.7533 185.712,-75.8339 175.68,-79.2407 179.994,-84.7533"/>
</g>
<!-- Node4 -->
<g id="node7" class="node"><title>Node4</title>
<polygon fill="white" stroke="#bfbfbf" points="66.5,-56.5 66.5,-75.5 115.5,-75.5 115.5,-56.5 66.5,-56.5"/>
<text text-anchor="middle" x="91" y="-63.5" font-family="Helvetica,sans-Serif" font-size="10.00">string.h</text>
</g>
<!-- Node2&#45;&gt;Node4 -->
<g id="edge6" class="edge"><title>Node2&#45;&gt;Node4</title>
<path fill="none" stroke="midnightblue" d="M121.89,-112.083C116.718,-104.534 109.154,-93.4948 102.806,-84.2298"/>
<polygon fill="midnightblue" stroke="midnightblue" points="105.536,-82.0221 96.9961,-75.7511 99.7612,-85.9787 105.536,-82.0221"/>
</g>
<!-- Node5 -->
<g id="node9" class="node"><title>Node5</title>
<polygon fill="white" stroke="#bfbfbf" points="114.5,-0.5 114.5,-19.5 173.5,-19.5 173.5,-0.5 114.5,-0.5"/>
<text text-anchor="middle" x="144" y="-7.5" font-family="Helvetica,sans-Serif" font-size="10.00">inttypes.h</text>
</g>
<!-- Node2&#45;&gt;Node5 -->
<g id="edge8" class="edge"><title>Node2&#45;&gt;Node5</title>
<path fill="none" stroke="midnightblue" d="M129.255,-112.368C131.838,-94.617 137.794,-53.6664 141.295,-29.5974"/>
<polygon fill="midnightblue" stroke="midnightblue" points="144.774,-29.9911 142.75,-19.5914 137.847,-28.9835 144.774,-29.9911"/>
</g>
<!-- Node2&#45;&gt;Node6 -->
<g id="edge10" class="edge"><title>Node2&#45;&gt;Node6</title>
<path fill="none" stroke="midnightblue" d="M151.594,-112.562C176.821,-103.541 217.034,-89.1599 245.528,-78.9702"/>
<polygon fill="midnightblue" stroke="midnightblue" points="246.836,-82.2194 255.074,-75.5565 244.479,-75.6282 246.836,-82.2194"/>
</g>
<!-- Node2&#45;&gt;Node11 -->
<g id="edge22" class="edge"><title>Node2&#45;&gt;Node11</title>
<path fill="none" stroke="midnightblue" d="M151.873,-116.396C199.129,-107.282 305.177,-86.8301 364.937,-75.3049"/>
<polygon fill="midnightblue" stroke="midnightblue" points="365.668,-78.7287 374.824,-73.3982 364.342,-71.8553 365.668,-78.7287"/>
</g>
<!-- Node6&#45;&gt;Node5 -->
<g id="edge20" class="edge"><title>Node6&#45;&gt;Node5</title>
<path fill="none" stroke="midnightblue" d="M257.609,-56.4435C235.293,-47.5171 200.097,-33.4387 174.792,-23.3168"/>
<polygon fill="midnightblue" stroke="midnightblue" points="175.876,-19.9807 165.291,-19.5164 173.276,-26.4801 175.876,-19.9807"/>
</g>
<!-- Node7 -->
<g id="node13" class="node"><title>Node7</title>
<polygon fill="white" stroke="#bfbfbf" points="257,-0.5 257,-19.5 301,-19.5 301,-0.5 257,-0.5"/>
<text text-anchor="middle" x="279" y="-7.5" font-family="Helvetica,sans-Serif" font-size="10.00">vector</text>
</g>
<!-- Node6&#45;&gt;Node7 -->
<g id="edge12" class="edge"><title>Node6&#45;&gt;Node7</title>
<path fill="none" stroke="midnightblue" d="M279,-56.083C279,-49.0059 279,-38.8611 279,-29.9865"/>
<polygon fill="midnightblue" stroke="midnightblue" points="282.5,-29.751 279,-19.7511 275.5,-29.7511 282.5,-29.751"/>
</g>
<!-- Node8 -->
<g id="node15" class="node"><title>Node8</title>
<polygon fill="white" stroke="#bfbfbf" points="943.5,-0.5 943.5,-19.5 984.5,-19.5 984.5,-0.5 943.5,-0.5"/>
<text text-anchor="middle" x="964" y="-7.5" font-family="Helvetica,sans-Serif" font-size="10.00">string</text>
</g>
<!-- Node6&#45;&gt;Node8 -->
<g id="edge14" class="edge"><title>Node6&#45;&gt;Node8</title>
<path fill="none" stroke="midnightblue" d="M318.824,-60.6439C333.628,-59.0868 350.573,-57.3781 366,-56 583.015,-36.6137 844.839,-18.8514 933.192,-13.0129"/>
<polygon fill="midnightblue" stroke="midnightblue" points="933.578,-16.4951 943.326,-12.3453 933.118,-9.51026 933.578,-16.4951"/>
</g>
<!-- Node9 -->
<g id="node17" class="node"><title>Node9</title>
<polygon fill="white" stroke="#bfbfbf" points="1231,-0.5 1231,-19.5 1283,-19.5 1283,-0.5 1231,-0.5"/>
<text text-anchor="middle" x="1257" y="-7.5" font-family="Helvetica,sans-Serif" font-size="10.00">sstream</text>
</g>
<!-- Node6&#45;&gt;Node9 -->
<g id="edge16" class="edge"><title>Node6&#45;&gt;Node9</title>
<path fill="none" stroke="midnightblue" d="M318.806,-60.4374C333.609,-58.858 350.557,-57.1879 366,-56 697.288,-30.5163 1099.03,-16.1425 1220.5,-12.154"/>
<polygon fill="midnightblue" stroke="midnightblue" points="1220.85,-15.6448 1230.73,-11.8213 1220.62,-8.64854 1220.85,-15.6448"/>
</g>
<!-- Node10 -->
<g id="node19" class="node"><title>Node10</title>
<polygon fill="white" stroke="#bfbfbf" points="319,-0.5 319,-19.5 373,-19.5 373,-0.5 319,-0.5"/>
<text text-anchor="middle" x="346" y="-7.5" font-family="Helvetica,sans-Serif" font-size="10.00">iostream</text>
</g>
<!-- Node6&#45;&gt;Node10 -->
<g id="edge18" class="edge"><title>Node6&#45;&gt;Node10</title>
<path fill="none" stroke="midnightblue" d="M289.765,-56.324C299.766,-48.2631 314.887,-36.0765 326.93,-26.3695"/>
<polygon fill="midnightblue" stroke="midnightblue" points="329.45,-28.8343 335.039,-19.8339 325.057,-23.3841 329.45,-28.8343"/>
</g>
<!-- Node11&#45;&gt;Node7 -->
<g id="edge30" class="edge"><title>Node11&#45;&gt;Node7</title>
<path fill="none" stroke="midnightblue" d="M387.56,-56.4435C366.33,-47.5566 332.901,-33.5632 308.745,-23.4514"/>
<polygon fill="midnightblue" stroke="midnightblue" points="309.921,-20.1493 299.345,-19.5164 307.218,-26.6064 309.921,-20.1493"/>
</g>
<!-- Node11&#45;&gt;Node8 -->
<g id="edge26" class="edge"><title>Node11&#45;&gt;Node8</title>
<path fill="none" stroke="midnightblue" d="M441.402,-57.4525C444.302,-56.9158 447.198,-56.4213 450,-56 544.251,-41.8316 836.969,-20.1244 933.079,-13.2016"/>
<polygon fill="midnightblue" stroke="midnightblue" points="933.569,-16.6755 943.293,-12.4683 933.068,-9.69345 933.569,-16.6755"/>
</g>
<!-- Node11&#45;&gt;Node9 -->
<g id="edge34" class="edge"><title>Node11&#45;&gt;Node9</title>
<path fill="none" stroke="midnightblue" d="M441.389,-57.356C444.291,-56.8402 447.191,-56.3769 450,-56 602.165,-35.5801 1083.83,-17.19 1220.51,-12.2795"/>
<polygon fill="midnightblue" stroke="midnightblue" points="1220.98,-15.7652 1230.85,-11.9104 1220.73,-8.76968 1220.98,-15.7652"/>
</g>
<!-- Node11&#45;&gt;Node10 -->
<g id="edge32" class="edge"><title>Node11&#45;&gt;Node10</title>
<path fill="none" stroke="midnightblue" d="M398.039,-56.324C388.873,-48.3414 375.063,-36.3128 363.972,-26.6529"/>
<polygon fill="midnightblue" stroke="midnightblue" points="365.982,-23.7624 356.143,-19.8339 361.385,-29.041 365.982,-23.7624"/>
</g>
<!-- Node12 -->
<g id="node24" class="node"><title>Node12</title>
<polygon fill="white" stroke="#bfbfbf" points="391,-0.5 391,-19.5 439,-19.5 439,-0.5 391,-0.5"/>
<text text-anchor="middle" x="415" y="-7.5" font-family="Helvetica,sans-Serif" font-size="10.00">stdlib.h</text>
</g>
<!-- Node11&#45;&gt;Node12 -->
<g id="edge24" class="edge"><title>Node11&#45;&gt;Node12</title>
<path fill="none" stroke="midnightblue" d="M409.156,-56.083C410.084,-48.9272 411.418,-38.6353 412.577,-29.6911"/>
<polygon fill="midnightblue" stroke="midnightblue" points="416.051,-30.1181 413.866,-19.7511 409.109,-29.2181 416.051,-30.1181"/>
</g>
<!-- Node13 -->
<g id="node27" class="node"><title>Node13</title>
<polygon fill="white" stroke="#bfbfbf" points="457.5,-0.5 457.5,-19.5 492.5,-19.5 492.5,-0.5 457.5,-0.5"/>
<text text-anchor="middle" x="475" y="-7.5" font-family="Helvetica,sans-Serif" font-size="10.00">map</text>
</g>
<!-- Node11&#45;&gt;Node13 -->
<g id="edge28" class="edge"><title>Node11&#45;&gt;Node13</title>
<path fill="none" stroke="midnightblue" d="M418.765,-56.324C428.766,-48.2631 443.887,-36.0765 455.93,-26.3695"/>
<polygon fill="midnightblue" stroke="midnightblue" points="458.45,-28.8343 464.039,-19.8339 454.057,-23.3841 458.45,-28.8343"/>
</g>
<!-- Node14 -->
<g id="node32" class="node"><title>Node14</title>
<polygon fill="white" stroke="#bfbfbf" points="576,-0.5 576,-19.5 626,-19.5 626,-0.5 576,-0.5"/>
<text text-anchor="middle" x="601" y="-7.5" font-family="Helvetica,sans-Serif" font-size="10.00">fstream</text>
</g>
<!-- Node11&#45;&gt;Node14 -->
<g id="edge36" class="edge"><title>Node11&#45;&gt;Node14</title>
<path fill="none" stroke="midnightblue" d="M438.581,-56.4435C473.266,-46.739 529.714,-30.9452 566.095,-20.7661"/>
<polygon fill="midnightblue" stroke="midnightblue" points="567.102,-24.1188 575.79,-18.0537 565.216,-17.3777 567.102,-24.1188"/>
</g>
<!-- Node15&#45;&gt;Node10 -->
<g id="edge46" class="edge"><title>Node15&#45;&gt;Node10</title>
<path fill="none" stroke="midnightblue" d="M695.266,-57.5052C692.135,-56.9703 689.017,-56.461 686,-56 554.658,-35.9332 517.549,-44.1385 382.911,-19.9515"/>
<polygon fill="midnightblue" stroke="midnightblue" points="383.512,-16.5034 373.046,-18.1532 382.257,-23.3899 383.512,-16.5034"/>
</g>
<!-- Node15&#45;&gt;Node14 -->
<g id="edge48" class="edge"><title>Node15&#45;&gt;Node14</title>
<path fill="none" stroke="midnightblue" d="M712.926,-56.4435C690.94,-47.5171 656.266,-33.4387 631.336,-23.3168"/>
<polygon fill="midnightblue" stroke="midnightblue" points="632.558,-20.0355 621.976,-19.5164 629.924,-26.5213 632.558,-20.0355"/>
</g>
<!-- Node16 -->
<g id="node38" class="node"><title>Node16</title>
<polygon fill="white" stroke="#bfbfbf" points="742,-0.5 742,-19.5 794,-19.5 794,-0.5 742,-0.5"/>
<text text-anchor="middle" x="768" y="-7.5" font-family="Helvetica,sans-Serif" font-size="10.00">assert.h</text>
</g>
<!-- Node15&#45;&gt;Node16 -->
<g id="edge44" class="edge"><title>Node15&#45;&gt;Node16</title>
<path fill="none" stroke="midnightblue" d="M739.614,-56.083C744.367,-48.5341 751.318,-37.4948 757.152,-28.2298"/>
<polygon fill="midnightblue" stroke="midnightblue" points="760.124,-30.0783 762.49,-19.7511 754.2,-26.3486 760.124,-30.0783"/>
</g>
<!-- Node17&#45;&gt;Node1 -->
<g id="edge70" class="edge"><title>Node17&#45;&gt;Node1</title>
<path fill="none" stroke="midnightblue" d="M564.746,-299.516C534.998,-308.743 484.321,-323.507 447.538,-333.699"/>
<polygon fill="midnightblue" stroke="midnightblue" points="446.274,-330.416 437.561,-336.444 448.131,-337.165 446.274,-330.416"/>
</g>
<!-- Node17&#45;&gt;Node4 -->
<g id="edge62" class="edge"><title>Node17&#45;&gt;Node4</title>
<path fill="none" stroke="midnightblue" d="M553.168,-288.171C495.049,-285.855 377.328,-277.089 284,-244 191.972,-211.372 145.924,-215.31 95,-132 86.6159,-118.284 86.3112,-99.752 87.6974,-85.9855"/>
<polygon fill="midnightblue" stroke="midnightblue" points="91.2096,-86.1393 89.1193,-75.7527 84.2762,-85.1758 91.2096,-86.1393"/>
</g>
<!-- Node17&#45;&gt;Node5 -->
<g id="edge64" class="edge"><title>Node17&#45;&gt;Node5</title>
<path fill="none" stroke="midnightblue" d="M553.323,-288.821C451.067,-287.851 158.739,-281.76 72,-244 32.472,-226.792 0,-222.111 0,-179 0,-179 0,-179 0,-121 0,-68.1731 61.9565,-37.3206 104.59,-22.3438"/>
<polygon fill="midnightblue" stroke="midnightblue" points="105.797,-25.6307 114.163,-19.13 103.569,-18.9947 105.797,-25.6307"/>
</g>
<!-- Node17&#45;&gt;Node6 -->
<g id="edge72" class="edge"><title>Node17&#45;&gt;Node6</title>
<path fill="none" stroke="midnightblue" d="M553.459,-288.546C484.492,-286.877 336.267,-279.181 302,-244 260.249,-201.136 268.397,-122.229 274.922,-86.0416"/>
<polygon fill="midnightblue" stroke="midnightblue" points="278.422,-86.381 276.918,-75.8935 271.554,-85.0301 278.422,-86.381"/>
</g>
<!-- Node17&#45;&gt;Node7 -->
<g id="edge54" class="edge"><title>Node17&#45;&gt;Node7</title>
<path fill="none" stroke="midnightblue" d="M553.272,-289.496C431.173,-290.246 38,-284.473 38,-179 38,-179 38,-179 38,-121 38,-90.9022 34.8388,-76.3656 57,-56 84.2816,-30.9288 191.684,-18.3847 246.474,-13.5098"/>
<polygon fill="midnightblue" stroke="midnightblue" points="247.026,-16.9755 256.692,-12.6357 246.43,-10.001 247.026,-16.9755"/>
</g>
<!-- Node17&#45;&gt;Node8 -->
<g id="edge60" class="edge"><title>Node17&#45;&gt;Node8</title>
<path fill="none" stroke="midnightblue" d="M624.835,-288.499C677.775,-286.564 779.026,-278.234 857,-244 923.503,-214.803 951.155,-200.248 976,-132 988.649,-97.252 978.369,-53.4032 970.616,-29.178"/>
<polygon fill="midnightblue" stroke="midnightblue" points="973.866,-27.8648 967.324,-19.5316 967.242,-30.1261 973.866,-27.8648"/>
</g>
<!-- Node17&#45;&gt;Node9 -->
<g id="edge66" class="edge"><title>Node17&#45;&gt;Node9</title>
<path fill="none" stroke="midnightblue" d="M624.554,-288.393C789.825,-285.109 1475,-266.236 1475,-179 1475,-179 1475,-179 1475,-121 1475,-40.6515 1355.5,-18.982 1293.45,-13.146"/>
<polygon fill="midnightblue" stroke="midnightblue" points="1293.56,-9.64217 1283.3,-12.2838 1292.96,-16.6171 1293.56,-9.64217"/>
</g>
<!-- Node17&#45;&gt;Node11 -->
<g id="edge74" class="edge"><title>Node17&#45;&gt;Node11</title>
<path fill="none" stroke="midnightblue" d="M553.076,-287.978C490.567,-285.361 365.873,-276.142 339,-244 321.009,-222.481 266.619,-264.776 351,-112 358.189,-98.9838 370.852,-88.4098 382.419,-80.7904"/>
<polygon fill="midnightblue" stroke="midnightblue" points="384.258,-83.7684 390.942,-75.5481 380.591,-77.8059 384.258,-83.7684"/>
</g>
<!-- Node18 -->
<g id="node44" class="node"><title>Node18</title>
<polygon fill="white" stroke="#bfbfbf" points="360.5,-224.5 360.5,-243.5 401.5,-243.5 401.5,-224.5 360.5,-224.5"/>
<text text-anchor="middle" x="381" y="-231.5" font-family="Helvetica,sans-Serif" font-size="10.00">ctime</text>
</g>
<!-- Node17&#45;&gt;Node18 -->
<g id="edge52" class="edge"><title>Node17&#45;&gt;Node18</title>
<path fill="none" stroke="midnightblue" d="M553.188,-280.606C518.997,-272.457 465.817,-259.435 411.371,-244.283"/>
<polygon fill="midnightblue" stroke="midnightblue" points="412.128,-240.86 401.554,-241.531 410.238,-247.6 412.128,-240.86"/>
</g>
<!-- Node19 -->
<g id="node47" class="node"><title>Node19</title>
<polygon fill="white" stroke="#bfbfbf" points="1203.5,-56.5 1203.5,-75.5 1246.5,-75.5 1246.5,-56.5 1203.5,-56.5"/>
<text text-anchor="middle" x="1225" y="-63.5" font-family="Helvetica,sans-Serif" font-size="10.00">queue</text>
</g>
<!-- Node17&#45;&gt;Node19 -->
<g id="edge56" class="edge"><title>Node17&#45;&gt;Node19</title>
<path fill="none" stroke="midnightblue" d="M624.538,-288.395C746.406,-286.039 1142.45,-275.973 1189,-244 1194.67,-240.103 1240.49,-138.716 1242,-132 1245.59,-116.016 1240.12,-98.005 1234.46,-85.003"/>
<polygon fill="midnightblue" stroke="midnightblue" points="1237.52,-83.2893 1230.04,-75.7838 1231.21,-86.3144 1237.52,-83.2893"/>
</g>
<!-- Node20 -->
<g id="node49" class="node"><title>Node20</title>
<polygon fill="white" stroke="#bfbfbf" points="419.5,-224.5 419.5,-243.5 460.5,-243.5 460.5,-224.5 419.5,-224.5"/>
<text text-anchor="middle" x="440" y="-231.5" font-family="Helvetica,sans-Serif" font-size="10.00">bitset</text>
</g>
<!-- Node17&#45;&gt;Node20 -->
<g id="edge58" class="edge"><title>Node17&#45;&gt;Node20</title>
<path fill="none" stroke="midnightblue" d="M565.391,-280.444C539.665,-271.12 498.432,-256.177 470.327,-245.991"/>
<polygon fill="midnightblue" stroke="midnightblue" points="471.214,-242.59 460.62,-242.473 468.829,-249.171 471.214,-242.59"/>
</g>
<!-- Node21 -->
<g id="node55" class="node"><title>Node21</title>
<polygon fill="white" stroke="#bfbfbf" points="549,-56.5 549,-75.5 677,-75.5 677,-56.5 549,-56.5"/>
<text text-anchor="middle" x="613" y="-63.5" font-family="Helvetica,sans-Serif" font-size="10.00">boost/dynamic_bitset.hpp</text>
</g>
<!-- Node17&#45;&gt;Node21 -->
<g id="edge68" class="edge"><title>Node17&#45;&gt;Node21</title>
<path fill="none" stroke="midnightblue" d="M601.214,-280.236C611.354,-272.143 625.043,-259.112 631,-244 652.472,-189.525 632.273,-118.67 620.345,-85.5655"/>
<polygon fill="midnightblue" stroke="midnightblue" points="623.49,-83.9874 616.688,-75.8642 616.94,-86.456 623.49,-83.9874"/>
</g>
<!-- Node22 -->
<g id="node60" class="node"><title>Node22</title>
<a xlink:href="../../d4/d03/exceptions_8h.xhtml" target="_top" xlink:title="exceptions.h">
<polygon fill="white" stroke="black" points="459,-56.5 459,-75.5 531,-75.5 531,-56.5 459,-56.5"/>
<text text-anchor="middle" x="495" y="-63.5" font-family="Helvetica,sans-Serif" font-size="10.00">exceptions.h</text>
</a>
</g>
<!-- Node17&#45;&gt;Node22 -->
<g id="edge76" class="edge"><title>Node17&#45;&gt;Node22</title>
<path fill="none" stroke="midnightblue" d="M624.691,-283.341C695.924,-270.489 844.94,-234.896 797,-168 781.404,-146.237 616.488,-99.5784 537.163,-78.1622"/>
<polygon fill="midnightblue" stroke="midnightblue" points="538.038,-74.7734 527.472,-75.5568 536.221,-81.5334 538.038,-74.7734"/>
</g>
<!-- Node23 -->
<g id="node62" class="node"><title>Node23</title>
<a xlink:href="../../d9/dd2/round__robin_8h.xhtml" target="_top" xlink:title="round_robin.h">
<polygon fill="white" stroke="black" points="845.5,-168.5 845.5,-187.5 920.5,-187.5 920.5,-168.5 845.5,-168.5"/>
<text text-anchor="middle" x="883" y="-175.5" font-family="Helvetica,sans-Serif" font-size="10.00">round_robin.h</text>
</a>
</g>
<!-- Node17&#45;&gt;Node23 -->
<g id="edge78" class="edge"><title>Node17&#45;&gt;Node23</title>
<path fill="none" stroke="midnightblue" d="M624.537,-289.904C674.244,-289.586 765.755,-283.106 831,-244 849.913,-232.664 864.753,-211.751 873.657,-196.704"/>
<polygon fill="midnightblue" stroke="midnightblue" points="876.799,-198.257 878.634,-187.822 870.692,-194.835 876.799,-198.257"/>
</g>
<!-- Node27 -->
<g id="node76" class="node"><title>Node27</title>
<a xlink:href="../../d7/d62/io__control_8h_source.xhtml" target="_top" xlink:title="io_control.h">
<polygon fill="white" stroke="black" points="360.5,-112.5 360.5,-131.5 427.5,-131.5 427.5,-112.5 360.5,-112.5"/>
<text text-anchor="middle" x="394" y="-119.5" font-family="Helvetica,sans-Serif" font-size="10.00">io_control.h</text>
</a>
</g>
<!-- Node17&#45;&gt;Node27 -->
<g id="edge98" class="edge"><title>Node17&#45;&gt;Node27</title>
<path fill="none" stroke="midnightblue" d="M553.361,-287.629C493.374,-284.491 376.288,-274.518 351,-244 325.042,-212.674 357.941,-164.525 378.976,-139.454"/>
<polygon fill="midnightblue" stroke="midnightblue" points="381.877,-141.454 385.806,-131.614 376.599,-136.856 381.877,-141.454"/>
</g>
<!-- Node28 -->
<g id="node85" class="node"><title>Node28</title>
<a xlink:href="../../d1/df8/allPR_8h_source.xhtml" target="_top" xlink:title="Policy/allPR.h">
<polygon fill="white" stroke="black" points="1101.5,-224.5 1101.5,-243.5 1180.5,-243.5 1180.5,-224.5 1101.5,-224.5"/>
<text text-anchor="middle" x="1141" y="-231.5" font-family="Helvetica,sans-Serif" font-size="10.00">Policy/allPR.h</text>
</a>
</g>
<!-- Node17&#45;&gt;Node28 -->
<g id="edge114" class="edge"><title>Node17&#45;&gt;Node28</title>
<path fill="none" stroke="midnightblue" d="M624.728,-286.696C706.668,-281.21 914.361,-266.155 1087,-244 1088.3,-243.833 1089.61,-243.658 1090.94,-243.477"/>
<polygon fill="midnightblue" stroke="midnightblue" points="1091.85,-246.882 1101.24,-241.974 1090.84,-239.955 1091.85,-246.882"/>
</g>
<!-- Node30 -->
<g id="node91" class="node"><title>Node30</title>
<a xlink:href="../../dc/dff/frameAlloc_8h_source.xhtml" target="_top" xlink:title="Policy/frameAlloc.h">
<polygon fill="white" stroke="black" points="484.5,-112.5 484.5,-131.5 585.5,-131.5 585.5,-112.5 484.5,-112.5"/>
<text text-anchor="middle" x="535" y="-119.5" font-family="Helvetica,sans-Serif" font-size="10.00">Policy/frameAlloc.h</text>
</a>
</g>
<!-- Node17&#45;&gt;Node30 -->
<g id="edge166" class="edge"><title>Node17&#45;&gt;Node30</title>
<path fill="none" stroke="midnightblue" d="M597.001,-280.289C607.341,-267.929 623.212,-244.52 616,-224 603.554,-188.588 572.879,-156.399 553.053,-138.296"/>
<polygon fill="midnightblue" stroke="midnightblue" points="555.356,-135.66 545.552,-131.644 550.711,-140.898 555.356,-135.66"/>
</g>
<!-- Node36 -->
<g id="node117" class="node"><title>Node36</title>
<a xlink:href="../../de/d9a/strConv_8h_source.xhtml" target="_top" xlink:title="utility/strConv.h">
<polygon fill="white" stroke="black" points="921,-224.5 921,-243.5 1007,-243.5 1007,-224.5 921,-224.5"/>
<text text-anchor="middle" x="964" y="-231.5" font-family="Helvetica,sans-Serif" font-size="10.00">utility/strConv.h</text>
</a>
</g>
<!-- Node17&#45;&gt;Node36 -->
<g id="edge162" class="edge"><title>Node17&#45;&gt;Node36</title>
<path fill="none" stroke="midnightblue" d="M624.795,-284.125C683.691,-276.061 804.708,-259.312 907,-244 908.254,-243.812 909.523,-243.621 910.803,-243.427"/>
<polygon fill="midnightblue" stroke="midnightblue" points="911.397,-246.877 920.751,-241.903 910.337,-239.958 911.397,-246.877"/>
</g>
<!-- Node37 -->
<g id="node121" class="node"><title>Node37</title>
<a xlink:href="../../de/d7e/cleaningDaemon_8h_source.xhtml" target="_top" xlink:title="Policy/cleaningDaemon.h">
<polygon fill="white" stroke="black" points="479,-224.5 479,-243.5 607,-243.5 607,-224.5 479,-224.5"/>
<text text-anchor="middle" x="543" y="-231.5" font-family="Helvetica,sans-Serif" font-size="10.00">Policy/cleaningDaemon.h</text>
</a>
</g>
<!-- Node17&#45;&gt;Node37 -->
<g id="edge168" class="edge"><title>Node17&#45;&gt;Node37</title>
<path fill="none" stroke="midnightblue" d="M576.494,-280.324C568.384,-272.733 558.396,-261.482 551.229,-252.09"/>
<polygon fill="midnightblue" stroke="midnightblue" points="554.015,-249.968 545.376,-243.834 548.305,-254.016 554.015,-249.968"/>
</g>
<!-- Node23&#45;&gt;Node6 -->
<g id="edge84" class="edge"><title>Node23&#45;&gt;Node6</title>
<path fill="none" stroke="midnightblue" d="M845.343,-172.864C830.313,-171.264 812.845,-169.468 797,-168 697.991,-158.825 442.293,-171.402 351,-132 326.474,-121.415 304.698,-98.9912 291.681,-83.4642"/>
<polygon fill="midnightblue" stroke="midnightblue" points="294.392,-81.2507 285.389,-75.6666 288.945,-85.6468 294.392,-81.2507"/>
</g>
<!-- Node23&#45;&gt;Node11 -->
<g id="edge82" class="edge"><title>Node23&#45;&gt;Node11</title>
<path fill="none" stroke="midnightblue" d="M852.228,-168.415C805.04,-155.39 711.872,-130.225 632,-112 554.75,-94.3731 532.48,-92.7449 451.215,-76.2156"/>
<polygon fill="midnightblue" stroke="midnightblue" points="451.504,-72.7021 441.005,-74.1239 450.099,-79.5597 451.504,-72.7021"/>
</g>
<!-- Node23&#45;&gt;Node15 -->
<g id="edge96" class="edge"><title>Node23&#45;&gt;Node15</title>
<path fill="none" stroke="midnightblue" d="M871.308,-168.368C845.849,-149.573 785.159,-104.768 753.686,-81.5334"/>
<polygon fill="midnightblue" stroke="midnightblue" points="755.761,-78.715 745.637,-75.5914 751.604,-84.3466 755.761,-78.715"/>
</g>
<!-- Node23&#45;&gt;Node16 -->
<g id="edge80" class="edge"><title>Node23&#45;&gt;Node16</title>
<path fill="none" stroke="midnightblue" d="M876.817,-168.075C858.48,-141.606 804.169,-63.2089 779.922,-28.2097"/>
<polygon fill="midnightblue" stroke="midnightblue" points="782.508,-25.7951 773.936,-19.5681 776.753,-29.7814 782.508,-25.7951"/>
</g>
<!-- Node24 -->
<g id="node67" class="node"><title>Node24</title>
<a xlink:href="../../df/db9/id_8h.xhtml" target="_top" xlink:title="utility/id.h">
<polygon fill="white" stroke="black" points="908.5,-112.5 908.5,-131.5 967.5,-131.5 967.5,-112.5 908.5,-112.5"/>
<text text-anchor="middle" x="938" y="-119.5" font-family="Helvetica,sans-Serif" font-size="10.00">utility/id.h</text>
</a>
</g>
<!-- Node23&#45;&gt;Node24 -->
<g id="edge86" class="edge"><title>Node23&#45;&gt;Node24</title>
<path fill="none" stroke="midnightblue" d="M892.082,-168.083C900.171,-160.141 912.195,-148.335 921.91,-138.797"/>
<polygon fill="midnightblue" stroke="midnightblue" points="924.403,-141.254 929.087,-131.751 919.499,-136.26 924.403,-141.254"/>
</g>
<!-- Node24&#45;&gt;Node8 -->
<g id="edge92" class="edge"><title>Node24&#45;&gt;Node8</title>
<path fill="none" stroke="midnightblue" d="M940.04,-112.368C944.236,-94.617 953.915,-53.6664 959.604,-29.5974"/>
<polygon fill="midnightblue" stroke="midnightblue" points="963.075,-30.1284 961.969,-19.5914 956.263,-28.5182 963.075,-30.1284"/>
</g>
<!-- Node24&#45;&gt;Node19 -->
<g id="edge94" class="edge"><title>Node24&#45;&gt;Node19</title>
<path fill="none" stroke="midnightblue" d="M967.633,-115.424C1021.99,-105.197 1137.18,-83.5229 1193.15,-72.9928"/>
<polygon fill="midnightblue" stroke="midnightblue" points="1194.02,-76.3905 1203.2,-71.1017 1192.73,-69.5112 1194.02,-76.3905"/>
</g>
<!-- Node25 -->
<g id="node69" class="node"><title>Node25</title>
<polygon fill="white" stroke="#bfbfbf" points="829.5,-56.5 829.5,-75.5 872.5,-75.5 872.5,-56.5 829.5,-56.5"/>
<text text-anchor="middle" x="851" y="-63.5" font-family="Helvetica,sans-Serif" font-size="10.00">cstdio</text>
</g>
<!-- Node24&#45;&gt;Node25 -->
<g id="edge88" class="edge"><title>Node24&#45;&gt;Node25</title>
<path fill="none" stroke="midnightblue" d="M924.022,-112.324C910.45,-103.9 889.62,-90.9709 873.675,-81.0741"/>
<polygon fill="midnightblue" stroke="midnightblue" points="875.286,-77.9544 864.943,-75.6545 871.594,-83.9019 875.286,-77.9544"/>
</g>
<!-- Node26 -->
<g id="node71" class="node"><title>Node26</title>
<polygon fill="white" stroke="#bfbfbf" points="890.5,-56.5 890.5,-75.5 935.5,-75.5 935.5,-56.5 890.5,-56.5"/>
<text text-anchor="middle" x="913" y="-63.5" font-family="Helvetica,sans-Serif" font-size="10.00">climits</text>
</g>
<!-- Node24&#45;&gt;Node26 -->
<g id="edge90" class="edge"><title>Node24&#45;&gt;Node26</title>
<path fill="none" stroke="midnightblue" d="M933.872,-112.083C930.486,-104.77 925.584,-94.1814 921.381,-85.1034"/>
<polygon fill="midnightblue" stroke="midnightblue" points="924.429,-83.3553 917.051,-75.7511 918.077,-86.2962 924.429,-83.3553"/>
</g>
<!-- Node27&#45;&gt;Node3 -->
<g id="edge100" class="edge"><title>Node27&#45;&gt;Node3</title>
<path fill="none" stroke="midnightblue" d="M362.785,-112.444C326.984,-102.63 268.469,-86.5905 231.388,-76.4261"/>
<polygon fill="midnightblue" stroke="midnightblue" points="232.104,-72.9933 221.534,-73.7251 230.253,-79.7442 232.104,-72.9933"/>
</g>
<!-- Node27&#45;&gt;Node6 -->
<g id="edge110" class="edge"><title>Node27&#45;&gt;Node6</title>
<path fill="none" stroke="midnightblue" d="M375.778,-112.444C357.104,-103.675 327.844,-89.9355 306.383,-79.8579"/>
<polygon fill="midnightblue" stroke="midnightblue" points="307.676,-76.5988 297.137,-75.5164 304.701,-82.935 307.676,-76.5988"/>
</g>
<!-- Node27&#45;&gt;Node7 -->
<g id="edge102" class="edge"><title>Node27&#45;&gt;Node7</title>
<path fill="none" stroke="midnightblue" d="M384.945,-112.119C372.113,-99.557 347.876,-75.9091 327,-56 316.643,-46.1223 304.925,-35.1338 295.661,-26.4881"/>
<polygon fill="midnightblue" stroke="midnightblue" points="297.948,-23.836 288.246,-19.5803 293.177,-28.9578 297.948,-23.836"/>
</g>
<!-- Node27&#45;&gt;Node11 -->
<g id="edge106" class="edge"><title>Node27&#45;&gt;Node11</title>
<path fill="none" stroke="midnightblue" d="M396.312,-112.083C398.167,-104.927 400.835,-94.6353 403.154,-85.6911"/>
<polygon fill="midnightblue" stroke="midnightblue" points="406.609,-86.3094 405.731,-75.7511 399.834,-84.5527 406.609,-86.3094"/>
</g>
<!-- Node27&#45;&gt;Node15 -->
<g id="edge112" class="edge"><title>Node27&#45;&gt;Node15</title>
<path fill="none" stroke="midnightblue" d="M427.78,-116.158C480.468,-108.526 585.652,-92.9738 685.311,-76.0707"/>
<polygon fill="midnightblue" stroke="midnightblue" points="685.977,-79.5078 695.247,-74.3778 684.801,-72.6073 685.977,-79.5078"/>
</g>
<!-- Node27&#45;&gt;Node19 -->
<g id="edge104" class="edge"><title>Node27&#45;&gt;Node19</title>
<path fill="none" stroke="midnightblue" d="M427.855,-116.851C442.357,-115.174 459.493,-113.326 475,-112 753.04,-88.2275 1090.13,-72.7617 1193.42,-68.3204"/>
<polygon fill="midnightblue" stroke="midnightblue" points="1193.65,-71.8138 1203.49,-67.8905 1193.35,-64.8202 1193.65,-71.8138"/>
</g>
<!-- Node27&#45;&gt;Node22 -->
<g id="edge108" class="edge"><title>Node27&#45;&gt;Node22</title>
<path fill="none" stroke="midnightblue" d="M410.227,-112.324C426.351,-103.703 451.3,-90.3643 469.964,-80.3855"/>
<polygon fill="midnightblue" stroke="midnightblue" points="471.644,-83.456 478.813,-75.6545 468.344,-77.283 471.644,-83.456"/>
</g>
<!-- Node29 -->
<g id="node87" class="node"><title>Node29</title>
<a xlink:href="../../d3/d2c/pageReplace_8h.xhtml" target="_top" xlink:title="Policy/pageReplace.h">
<polygon fill="white" stroke="black" points="677,-168.5 677,-187.5 789,-187.5 789,-168.5 677,-168.5"/>
<text text-anchor="middle" x="733" y="-175.5" font-family="Helvetica,sans-Serif" font-size="10.00">Policy/pageReplace.h</text>
</a>
</g>
<!-- Node28&#45;&gt;Node29 -->
<g id="edge116" class="edge"><title>Node28&#45;&gt;Node29</title>
<path fill="none" stroke="midnightblue" d="M1101.14,-227.724C1031,-218.441 884.878,-199.102 799.326,-187.778"/>
<polygon fill="midnightblue" stroke="midnightblue" points="799.575,-184.281 789.202,-186.439 798.656,-191.22 799.575,-184.281"/>
</g>
<!-- Node31 -->
<g id="node97" class="node"><title>Node31</title>
<a xlink:href="../../d3/ded/pr__fifo_8h_source.xhtml" target="_top" xlink:title="Policy/pr_fifo.h">
<polygon fill="white" stroke="black" points="1365,-168.5 1365,-187.5 1447,-187.5 1447,-168.5 1365,-168.5"/>
<text text-anchor="middle" x="1406" y="-175.5" font-family="Helvetica,sans-Serif" font-size="10.00">Policy/pr_fifo.h</text>
</a>
</g>
<!-- Node28&#45;&gt;Node31 -->
<g id="edge132" class="edge"><title>Node28&#45;&gt;Node31</title>
<path fill="none" stroke="midnightblue" d="M1180.67,-224.916C1227.1,-215.455 1304.09,-199.766 1354.94,-189.405"/>
<polygon fill="midnightblue" stroke="midnightblue" points="1355.65,-192.833 1364.74,-187.407 1354.25,-185.974 1355.65,-192.833"/>
</g>
<!-- Node32 -->
<g id="node102" class="node"><title>Node32</title>
<a xlink:href="../../db/d16/pr__lru_8h_source.xhtml" target="_top" xlink:title="Policy/pr_lru.h">
<polygon fill="white" stroke="black" points="1098.5,-168.5 1098.5,-187.5 1177.5,-187.5 1177.5,-168.5 1098.5,-168.5"/>
<text text-anchor="middle" x="1138" y="-175.5" font-family="Helvetica,sans-Serif" font-size="10.00">Policy/pr_lru.h</text>
</a>
</g>
<!-- Node28&#45;&gt;Node32 -->
<g id="edge140" class="edge"><title>Node28&#45;&gt;Node32</title>
<path fill="none" stroke="midnightblue" d="M1140.5,-224.083C1140.11,-217.006 1139.55,-206.861 1139.05,-197.986"/>
<polygon fill="midnightblue" stroke="midnightblue" points="1142.54,-197.542 1138.49,-187.751 1135.55,-197.93 1142.54,-197.542"/>
</g>
<!-- Node35 -->
<g id="node111" class="node"><title>Node35</title>
<a xlink:href="../../d6/d53/pr__lruApprox_8h_source.xhtml" target="_top" xlink:title="Policy/pr_lruApprox.h">
<polygon fill="white" stroke="black" points="1237,-168.5 1237,-187.5 1347,-187.5 1347,-168.5 1237,-168.5"/>
<text text-anchor="middle" x="1292" y="-175.5" font-family="Helvetica,sans-Serif" font-size="10.00">Policy/pr_lruApprox.h</text>
</a>
</g>
<!-- Node28&#45;&gt;Node35 -->
<g id="edge152" class="edge"><title>Node28&#45;&gt;Node35</title>
<path fill="none" stroke="midnightblue" d="M1164.93,-224.444C1190.22,-215.399 1230.3,-201.064 1258.68,-190.916"/>
<polygon fill="midnightblue" stroke="midnightblue" points="1259.95,-194.179 1268.19,-187.516 1257.59,-187.588 1259.95,-194.179"/>
</g>
<!-- Node29&#45;&gt;Node11 -->
<g id="edge118" class="edge"><title>Node29&#45;&gt;Node11</title>
<path fill="none" stroke="midnightblue" d="M717.176,-168.318C691.826,-154.706 640.254,-128.226 594,-112 567.933,-102.855 497.244,-86.6023 450.905,-76.3349"/>
<polygon fill="midnightblue" stroke="midnightblue" points="451.645,-72.914 441.126,-74.1767 450.136,-79.7496 451.645,-72.914"/>
</g>
<!-- Node29&#45;&gt;Node15 -->
<g id="edge120" class="edge"><title>Node29&#45;&gt;Node15</title>
<path fill="none" stroke="midnightblue" d="M733.078,-168.368C733.24,-150.617 733.612,-109.666 733.831,-85.5974"/>
<polygon fill="midnightblue" stroke="midnightblue" points="737.331,-85.6229 733.922,-75.5914 730.331,-85.5592 737.331,-85.6229"/>
</g>
<!-- Node29&#45;&gt;Node30 -->
<g id="edge122" class="edge"><title>Node29&#45;&gt;Node30</title>
<path fill="none" stroke="midnightblue" d="M701.626,-168.444C667.737,-159.201 613.597,-144.436 576.276,-134.257"/>
<polygon fill="midnightblue" stroke="midnightblue" points="576.795,-130.771 566.227,-131.516 574.954,-137.524 576.795,-130.771"/>
</g>
<!-- Node30&#45;&gt;Node6 -->
<g id="edge128" class="edge"><title>Node30&#45;&gt;Node6</title>
<path fill="none" stroke="midnightblue" d="M494.436,-112.444C449.421,-102.948 376.768,-87.623 328.455,-77.4318"/>
<polygon fill="midnightblue" stroke="midnightblue" points="329.04,-73.9784 318.533,-75.339 327.595,-80.8277 329.04,-73.9784"/>
</g>
<!-- Node30&#45;&gt;Node11 -->
<g id="edge126" class="edge"><title>Node30&#45;&gt;Node11</title>
<path fill="none" stroke="midnightblue" d="M514.876,-112.444C493.976,-103.557 461.065,-89.5632 437.284,-79.4514"/>
<polygon fill="midnightblue" stroke="midnightblue" points="438.602,-76.2085 428.029,-75.5164 435.862,-82.6504 438.602,-76.2085"/>
</g>
<!-- Node30&#45;&gt;Node15 -->
<g id="edge130" class="edge"><title>Node30&#45;&gt;Node15</title>
<path fill="none" stroke="midnightblue" d="M566.532,-112.444C600.592,-103.201 655.006,-88.4356 692.515,-78.2572"/>
<polygon fill="midnightblue" stroke="midnightblue" points="693.881,-81.5132 702.615,-75.5164 692.048,-74.7575 693.881,-81.5132"/>
</g>
<!-- Node30&#45;&gt;Node21 -->
<g id="edge124" class="edge"><title>Node30&#45;&gt;Node21</title>
<path fill="none" stroke="midnightblue" d="M547.532,-112.324C559.586,-103.979 578.027,-91.2122 592.269,-81.3524"/>
<polygon fill="midnightblue" stroke="midnightblue" points="594.269,-84.2243 600.499,-75.6545 590.285,-78.469 594.269,-84.2243"/>
</g>
<!-- Node31&#45;&gt;Node9 -->
<g id="edge136" class="edge"><title>Node31&#45;&gt;Node9</title>
<path fill="none" stroke="midnightblue" d="M1397.99,-168.075C1374.03,-141.38 1302.66,-61.865 1271.65,-27.3218"/>
<polygon fill="midnightblue" stroke="midnightblue" points="1273.98,-24.6721 1264.69,-19.5681 1268.77,-29.3479 1273.98,-24.6721"/>
</g>
<!-- Node31&#45;&gt;Node17 -->
<g id="edge138" class="edge"><title>Node31&#45;&gt;Node17</title>
<path fill="none" stroke="midnightblue" d="M1390.52,-187.651C1363.55,-202.242 1305.77,-231.382 1253,-244 1135.11,-272.188 764.426,-284.399 634.521,-287.887"/>
<polygon fill="midnightblue" stroke="midnightblue" points="634.411,-284.389 624.506,-288.151 634.595,-291.386 634.411,-284.389"/>
</g>
<!-- Node31&#45;&gt;Node19 -->
<g id="edge134" class="edge"><title>Node31&#45;&gt;Node19</title>
<path fill="none" stroke="midnightblue" d="M1391.8,-168.368C1360.61,-149.412 1285.88,-104.001 1247.94,-80.9424"/>
<polygon fill="midnightblue" stroke="midnightblue" points="1249.5,-77.794 1239.14,-75.5914 1245.86,-83.7759 1249.5,-77.794"/>
</g>
<!-- Node32&#45;&gt;Node9 -->
<g id="edge146" class="edge"><title>Node32&#45;&gt;Node9</title>
<path fill="none" stroke="midnightblue" d="M1140.35,-168.241C1146.37,-147.066 1164.02,-92.1807 1194,-56 1204.42,-43.4248 1219.14,-32.6493 1231.73,-24.798"/>
<polygon fill="midnightblue" stroke="midnightblue" points="1233.64,-27.7393 1240.43,-19.6139 1230.05,-21.7259 1233.64,-27.7393"/>
</g>
<!-- Node32&#45;&gt;Node17 -->
<g id="edge148" class="edge"><title>Node32&#45;&gt;Node17</title>
<path fill="none" stroke="midnightblue" d="M1125.88,-187.525C1104.71,-201.924 1059.14,-230.785 1016,-244 881.966,-285.06 714.431,-290.079 634.943,-289.85"/>
<polygon fill="midnightblue" stroke="midnightblue" points="634.801,-286.349 624.78,-289.79 634.76,-293.349 634.801,-286.349"/>
</g>
<!-- Node32&#45;&gt;Node19 -->
<g id="edge144" class="edge"><title>Node32&#45;&gt;Node19</title>
<path fill="none" stroke="midnightblue" d="M1144.83,-168.368C1159.25,-150.135 1193.03,-107.426 1211.81,-83.6752"/>
<polygon fill="midnightblue" stroke="midnightblue" points="1214.75,-85.606 1218.2,-75.5914 1209.26,-81.2636 1214.75,-85.606"/>
</g>
<!-- Node33 -->
<g id="node104" class="node"><title>Node33</title>
<polygon fill="white" stroke="#bfbfbf" points="1204.5,-112.5 1204.5,-131.5 1233.5,-131.5 1233.5,-112.5 1204.5,-112.5"/>
<text text-anchor="middle" x="1219" y="-119.5" font-family="Helvetica,sans-Serif" font-size="10.00">list</text>
</g>
<!-- Node32&#45;&gt;Node33 -->
<g id="edge142" class="edge"><title>Node32&#45;&gt;Node33</title>
<path fill="none" stroke="midnightblue" d="M1151.01,-168.324C1163.53,-159.979 1182.68,-147.212 1197.47,-137.352"/>
<polygon fill="midnightblue" stroke="midnightblue" points="1199.64,-140.114 1206.02,-131.655 1195.76,-134.289 1199.64,-140.114"/>
</g>
<!-- Node34 -->
<g id="node109" class="node"><title>Node34</title>
<polygon fill="white" stroke="#bfbfbf" points="1062,-112.5 1062,-131.5 1110,-131.5 1110,-112.5 1062,-112.5"/>
<text text-anchor="middle" x="1086" y="-119.5" font-family="Helvetica,sans-Serif" font-size="10.00">limits.h</text>
</g>
<!-- Node32&#45;&gt;Node34 -->
<g id="edge150" class="edge"><title>Node32&#45;&gt;Node34</title>
<path fill="none" stroke="midnightblue" d="M1129.41,-168.083C1121.84,-160.22 1110.62,-148.569 1101.49,-139.081"/>
<polygon fill="midnightblue" stroke="midnightblue" points="1103.88,-136.527 1094.43,-131.751 1098.84,-141.382 1103.88,-136.527"/>
</g>
<!-- Node35&#45;&gt;Node9 -->
<g id="edge158" class="edge"><title>Node35&#45;&gt;Node9</title>
<path fill="none" stroke="midnightblue" d="M1292.75,-168.382C1293.49,-159.33 1294.58,-144.677 1295,-132 1295.3,-123.116 1296.59,-120.745 1295,-112 1289.46,-81.5493 1275.25,-48.3389 1265.86,-28.6117"/>
<polygon fill="midnightblue" stroke="midnightblue" points="1269,-27.0596 1261.46,-19.6107 1262.71,-30.1322 1269,-27.0596"/>
</g>
<!-- Node35&#45;&gt;Node17 -->
<g id="edge160" class="edge"><title>Node35&#45;&gt;Node17</title>
<path fill="none" stroke="midnightblue" d="M1285.98,-187.692C1275.27,-202.345 1251.34,-231.576 1223,-244 1169.57,-267.428 771.717,-282.859 634.986,-287.517"/>
<polygon fill="midnightblue" stroke="midnightblue" points="634.719,-284.024 624.842,-287.859 634.955,-291.02 634.719,-284.024"/>
</g>
<!-- Node35&#45;&gt;Node19 -->
<g id="edge156" class="edge"><title>Node35&#45;&gt;Node19</title>
<path fill="none" stroke="midnightblue" d="M1291.51,-168.381C1290.42,-155.312 1286.96,-130.092 1276,-112 1268.74,-100.006 1257.24,-89.4568 1247,-81.5924"/>
<polygon fill="midnightblue" stroke="midnightblue" points="1248.96,-78.6908 1238.81,-75.645 1244.84,-84.3541 1248.96,-78.6908"/>
</g>
<!-- Node35&#45;&gt;Node33 -->
<g id="edge154" class="edge"><title>Node35&#45;&gt;Node33</title>
<path fill="none" stroke="midnightblue" d="M1280.27,-168.324C1269.16,-160.107 1252.26,-147.602 1239.02,-137.807"/>
<polygon fill="midnightblue" stroke="midnightblue" points="1241.06,-134.967 1230.94,-131.834 1236.9,-140.595 1241.06,-134.967"/>
</g>
<!-- Node36&#45;&gt;Node8 -->
<g id="edge164" class="edge"><title>Node36&#45;&gt;Node8</title>
<path fill="none" stroke="midnightblue" d="M970.86,-224.213C990.551,-197.851 1044.09,-117.463 1016,-56 1010.22,-43.3602 998.948,-32.911 988.369,-25.2737"/>
<polygon fill="midnightblue" stroke="midnightblue" points="990.042,-22.1817 979.783,-19.5333 986.151,-28.0009 990.042,-22.1817"/>
</g>
<!-- Node37&#45;&gt;Node11 -->
<g id="edge170" class="edge"><title>Node37&#45;&gt;Node11</title>
<path fill="none" stroke="midnightblue" d="M535.742,-224.075C514.124,-197.493 449.913,-118.538 421.633,-83.7633"/>
<polygon fill="midnightblue" stroke="midnightblue" points="423.993,-81.1181 414.968,-75.5681 418.562,-85.5347 423.993,-81.1181"/>
</g>
<!-- Node37&#45;&gt;Node17 -->
<g id="edge174" class="edge"><title>Node37&#45;&gt;Node17</title>
<path fill="none" stroke="midnightblue" d="M555.586,-243.751C563.666,-251.327 573.589,-262.505 580.729,-271.855"/>
<polygon fill="midnightblue" stroke="midnightblue" points="577.927,-273.955 586.57,-280.083 583.635,-269.903 577.927,-273.955"/>
</g>
<!-- Node37&#45;&gt;Node30 -->
<g id="edge172" class="edge"><title>Node37&#45;&gt;Node30</title>
<path fill="none" stroke="midnightblue" d="M542.372,-224.368C541.081,-206.617 538.103,-165.666 536.353,-141.597"/>
<polygon fill="midnightblue" stroke="midnightblue" points="539.841,-141.311 535.625,-131.591 532.859,-141.819 539.841,-141.311"/>
</g>
</g>
</svg>
        <g id="navigator" transform="translate(0 0)" fill="#404254">
                <rect fill="#f2f5e9" fill-opacity="0.5" stroke="#606060" stroke-width=".5" x="0" y="0" width="60" height="60"/>
                <use id="zoomplus" xlink:href="#zoomPlus" x="17" y="9" onmousedown="handleZoom(evt,'in')"/>
                <use id="zoomminus" xlink:href="#zoomMin" x="42" y="9" onmousedown="handleZoom(evt,'out')"/>
                <use id="reset" xlink:href="#resetDef" x="30" y="36" onmousedown="handleReset()"/>
                <g id="arrowUp" xlink:href="#dirArrow" transform="translate(30 24)" onmousedown="handlePan(0,-1)">
                  <use xlink:href="#rim" fill="#404040">
                        <set attributeName="fill" to="#808080" begin="arrowUp.mouseover" end="arrowUp.mouseout"/>
                  </use>
                  <path fill="none" stroke="white" stroke-width="1.5" d="M0,-3.0v7 M-2.5,-0.5L0,-3.0L2.5,-0.5"/>
                </g>
                <g id="arrowRight" xlink:href="#dirArrow" transform="rotate(90) translate(36 -43)" onmousedown="handlePan(1,0)">
                  <use xlink:href="#rim" fill="#404040">
                        <set attributeName="fill" to="#808080" begin="arrowRight.mouseover" end="arrowRight.mouseout"/>
                  </use>
                  <path fill="none" stroke="white" stroke-width="1.5" d="M0,-3.0v7 M-2.5,-0.5L0,-3.0L2.5,-0.5"/>
                </g>
                <g id="arrowDown" xlink:href="#dirArrow" transform="rotate(180) translate(-30 -48)" onmousedown="handlePan(0,1)">
                  <use xlink:href="#rim" fill="#404040">
                        <set attributeName="fill" to="#808080" begin="arrowDown.mouseover" end="arrowDown.mouseout"/>
                  </use>
                  <path fill="none" stroke="white" stroke-width="1.5" d="M0,-3.0v7 M-2.5,-0.5L0,-3.0L2.5,-0.5"/>
                </g>
                <g id="arrowLeft" xlink:href="#dirArrow" transform="rotate(270) translate(-36 17)" onmousedown="handlePan(-1,0)">
                  <use xlink:href="#rim" fill="#404040">
                        <set attributeName="fill" to="#808080" begin="arrowLeft.mouseover" end="arrowLeft.mouseout"/>
                  </use>
                  <path fill="none" stroke="white" stroke-width="1.5" d="M0,-3.0v7 M-2.5,-0.5L0,-3.0L2.5,-0.5"/>
                </g>
        </g>
</svg>
