<?xml version="1.0" encoding="UTF-8" standalone="no"?>
<!DOCTYPE svg PUBLIC "-//W3C//DTD SVG 1.1//EN"
 "http://www.w3.org/Graphics/SVG/1.1/DTD/svg11.dtd">
<!-- Generated by graphviz version 2.28.0 (20111025.1818)
 -->
<!-- Title: G Pages: 1 -->
<svg width="289pt" height="222pt"
 viewBox="0.00 0.00 289.00 222.00" xmlns="http://www.w3.org/2000/svg" xmlns:xlink="http://www.w3.org/1999/xlink">
<g id="graph1" class="graph" transform="scale(1 1) rotate(0) translate(4 218)">
<title>G</title>
<polygon fill="white" stroke="white" points="-4,5 -4,-218 286,-218 286,5 -4,5"/>
<!-- Node1 -->
<g id="node1" class="node"><title>Node1</title>
<polygon fill="#bfbfbf" stroke="black" points="65.5,-0.5 65.5,-19.5 152.5,-19.5 152.5,-0.5 65.5,-0.5"/>
<text text-anchor="middle" x="109" y="-7.5" font-family="Helvetica,sans-Serif" font-size="10.00">cProcessLogger</text>
</g>
<!-- Node2 -->
<g id="node2" class="node"><title>Node2</title>
<polygon fill="white" stroke="#bfbfbf" points="56.5,-68.5 56.5,-87.5 161.5,-87.5 161.5,-68.5 56.5,-68.5"/>
<text text-anchor="middle" x="109" y="-75.5" font-family="Helvetica,sans-Serif" font-size="10.00">std::vector&lt; string &gt;</text>
</g>
<!-- Node2&#45;&gt;Node1 -->
<g id="edge2" class="edge"><title>Node2&#45;&gt;Node1</title>
<path fill="none" stroke="#9a32cd" stroke-dasharray="5,2" d="M109,-58.0413C109,-45.4724 109,-29.5631 109,-19.8411"/>
<polygon fill="#9a32cd" stroke="#9a32cd" points="105.5,-58.3716 109,-68.3717 112.5,-58.3717 105.5,-58.3716"/>
<text text-anchor="middle" x="136" y="-41.5" font-family="Helvetica,sans-Serif" font-size="10.00"> procNames</text>
</g>
<!-- Node3 -->
<g id="node4" class="node"><title>Node3</title>
<a xlink:title="STL class.">
<polygon fill="white" stroke="#bfbfbf" points="32,-136.5 32,-155.5 92,-155.5 92,-136.5 32,-136.5"/>
<text text-anchor="middle" x="62" y="-143.5" font-family="Helvetica,sans-Serif" font-size="10.00">std::string</text>
</a>
</g>
<!-- Node3&#45;&gt;Node1 -->
<g id="edge8" class="edge"><title>Node3&#45;&gt;Node1</title>
<path fill="none" stroke="#9a32cd" stroke-dasharray="5,2" d="M38.5628,-130.826C16.952,-115.86 -9.83928,-91.2597 4,-68 19.2195,-42.4206 50.3688,-27.6079 74.807,-19.5289"/>
<polygon fill="#9a32cd" stroke="#9a32cd" points="36.8035,-133.858 47.0804,-136.434 40.653,-128.011 36.8035,-133.858"/>
<text text-anchor="middle" x="25.5" y="-75.5" font-family="Helvetica,sans-Serif" font-size="10.00"> nameFile</text>
</g>
<!-- Node3&#45;&gt;Node2 -->
<g id="edge4" class="edge"><title>Node3&#45;&gt;Node2</title>
<path fill="none" stroke="#9a32cd" stroke-dasharray="5,2" d="M74.1504,-127.938C83.2839,-115.112 95.4276,-98.0591 102.704,-87.8411"/>
<polygon fill="#9a32cd" stroke="#9a32cd" points="71.0942,-126.196 68.1444,-136.372 76.7962,-130.256 71.0942,-126.196"/>
<text text-anchor="middle" x="111.5" y="-109.5" font-family="Helvetica,sans-Serif" font-size="10.00"> elements</text>
</g>
<!-- Node4 -->
<g id="node6" class="node"><title>Node4</title>
<a xlink:title="STL class.">
<polygon fill="white" stroke="#bfbfbf" points="-0.5,-194.5 -0.5,-213.5 124.5,-213.5 124.5,-194.5 -0.5,-194.5"/>
<text text-anchor="middle" x="62" y="-201.5" font-family="Helvetica,sans-Serif" font-size="10.00">std::basic_string&lt; char &gt;</text>
</a>
</g>
<!-- Node4&#45;&gt;Node3 -->
<g id="edge6" class="edge"><title>Node4&#45;&gt;Node3</title>
<path fill="none" stroke="midnightblue" d="M62,-183.953C62,-174.287 62,-163.031 62,-155.505"/>
<polygon fill="midnightblue" stroke="midnightblue" points="58.5001,-184.25 62,-194.25 65.5001,-184.25 58.5001,-184.25"/>
</g>
<!-- Node5 -->
<g id="node9" class="node"><title>Node5</title>
<a xlink:href="../../de/dd4/classcIDManager.xhtml" target="_top" xlink:title="A class for managing unique IDs.">
<polygon fill="white" stroke="black" points="180,-68.5 180,-87.5 250,-87.5 250,-68.5 180,-68.5"/>
<text text-anchor="middle" x="215" y="-75.5" font-family="Helvetica,sans-Serif" font-size="10.00">cIDManager</text>
</a>
</g>
<!-- Node5&#45;&gt;Node1 -->
<g id="edge10" class="edge"><title>Node5&#45;&gt;Node1</title>
<path fill="none" stroke="#9a32cd" stroke-dasharray="5,2" d="M197.943,-61.4091C189.103,-53.7899 177.899,-44.8181 167,-38 155.512,-30.8136 141.801,-24.3447 130.595,-19.5416"/>
<polygon fill="#9a32cd" stroke="#9a32cd" points="195.796,-64.1831 205.606,-68.1854 200.433,-58.9392 195.796,-64.1831"/>
<text text-anchor="middle" x="201" y="-41.5" font-family="Helvetica,sans-Serif" font-size="10.00"> lineIDs</text>
</g>
<!-- Node6 -->
<g id="node11" class="node"><title>Node6</title>
<polygon fill="white" stroke="#bfbfbf" points="148.5,-136.5 148.5,-155.5 281.5,-155.5 281.5,-136.5 148.5,-136.5"/>
<text text-anchor="middle" x="215" y="-143.5" font-family="Helvetica,sans-Serif" font-size="10.00">std::queue&lt; unsigned int &gt;</text>
</g>
<!-- Node6&#45;&gt;Node5 -->
<g id="edge12" class="edge"><title>Node6&#45;&gt;Node5</title>
<path fill="none" stroke="#9a32cd" stroke-dasharray="5,2" d="M215,-126.041C215,-113.472 215,-97.5631 215,-87.8411"/>
<polygon fill="#9a32cd" stroke="#9a32cd" points="211.5,-126.372 215,-136.372 218.5,-126.372 211.5,-126.372"/>
<text text-anchor="middle" x="230.5" y="-109.5" font-family="Helvetica,sans-Serif" font-size="10.00"> freeID</text>
</g>
</g>
</svg>
