<?xml version="1.0" encoding="UTF-8" standalone="no"?>
<!DOCTYPE svg PUBLIC "-//W3C//DTD SVG 1.1//EN"
 "http://www.w3.org/Graphics/SVG/1.1/DTD/svg11.dtd">
<!-- Generated by graphviz version 2.28.0 (20111025.1818)
 -->
<!-- Title: G Pages: 1 -->
<!--zoomable 308 -->
<svg id="main" version="1.1" xmlns="http://www.w3.org/2000/svg" xmlns:xlink="http://www.w3.org/1999/xlink" xml:space="preserve" onload="init(evt)">
        <defs>
                <circle id="rim" cx="0" cy="0" r="7"/>
                <circle id="rim2" cx="0" cy="0" r="3.5"/>
                <g id="zoomPlus">
                        <use xlink:href="#rim" fill="#404040">
                                <set attributeName="fill" to="#808080" begin="zoomplus.mouseover" end="zoomplus.mouseout"/>
                        </use>
                        <path d="M-4,0h8M0,-4v8" fill="none" stroke="white" stroke-width="1.5" pointer-events="none"/>
                </g>
                <g id="zoomMin">
                        <use xlink:href="#rim" fill="#404040">
                                <set attributeName="fill" to="#808080" begin="zoomminus.mouseover" end="zoomminus.mouseout"/>
                        </use>
                        <path d="M-4,0h8" fill="none" stroke="white" stroke-width="1.5" pointer-events="none"/>
                </g>
                <g id="dirArrow">
                        <path fill="none" stroke="white" stroke-width="1.5" d="M0,-3.0v7 M-2.5,-0.5L0,-3.0L2.5,-0.5"/>
                </g>
               <g id="resetDef">
                       <use xlink:href="#rim2" fill="#404040">
                               <set attributeName="fill" to="#808080" begin="reset.mouseover" end="reset.mouseout"/>
                       </use>
               </g>
        </defs>

<script type="text/javascript">
var viewWidth = 724;
var viewHeight = 308;
var sectionId = 'dynsection-1';
</script>
<script xlink:href="../../svgpan.js"/>
<svg id="graph" class="graph">
<g id="viewport">
<title>G</title>
<polygon fill="white" stroke="white" points="-4,5 -4,-304 721.228,-304 721.228,5 -4,5"/>
<!-- Node1 -->
<g id="node1" class="node"><title>Node1</title>
<polygon fill="#bfbfbf" stroke="black" points="285.5,-280.5 285.5,-299.5 398.5,-299.5 398.5,-280.5 285.5,-280.5"/>
<text text-anchor="middle" x="342" y="-287.5" font-family="Helvetica,sans-Serif" font-size="10.00">include/data_structs.h</text>
</g>
<!-- Node2 -->
<g id="node3" class="node"><title>Node2</title>
<a xlink:href="../../d2/df1/mmu_8h.xhtml" target="_top" xlink:title="include/mmu.h">
<polygon fill="white" stroke="black" points="215,-224.5 215,-243.5 295,-243.5 295,-224.5 215,-224.5"/>
<text text-anchor="middle" x="255" y="-231.5" font-family="Helvetica,sans-Serif" font-size="10.00">include/mmu.h</text>
</a>
</g>
<!-- Node1&#45;&gt;Node2 -->
<g id="edge2" class="edge"><title>Node1&#45;&gt;Node2</title>
<path fill="none" stroke="midnightblue" d="M319.284,-274.901C303.331,-264.999 282.503,-252.071 268.943,-243.655"/>
<polygon fill="midnightblue" stroke="midnightblue" points="317.68,-278.024 328.022,-280.324 321.371,-272.077 317.68,-278.024"/>
</g>
<!-- Node3 -->
<g id="node5" class="node"><title>Node3</title>
<a xlink:href="../../dc/da7/cpu_8h.xhtml" target="_top" xlink:title="include/cpu.h">
<polygon fill="white" stroke="black" points="235,-168.5 235,-187.5 309,-187.5 309,-168.5 235,-168.5"/>
<text text-anchor="middle" x="272" y="-175.5" font-family="Helvetica,sans-Serif" font-size="10.00">include/cpu.h</text>
</a>
</g>
<!-- Node1&#45;&gt;Node3 -->
<g id="edge34" class="edge"><title>Node1&#45;&gt;Node3</title>
<path fill="none" stroke="midnightblue" d="M332.322,-271.485C324.877,-258.256 314.174,-239.749 304,-224 295.677,-211.116 285.258,-196.759 278.614,-187.803"/>
<polygon fill="midnightblue" stroke="midnightblue" points="329.389,-273.412 337.317,-280.441 335.502,-270.002 329.389,-273.412"/>
</g>
<!-- Node4 -->
<g id="node7" class="node"><title>Node4</title>
<a xlink:href="../../d4/d9a/vmm__core_8h.xhtml" target="_top" xlink:title="include/vmm_core.h">
<polygon fill="white" stroke="black" points="275,-112.5 275,-131.5 379,-131.5 379,-112.5 275,-112.5"/>
<text text-anchor="middle" x="327" y="-119.5" font-family="Helvetica,sans-Serif" font-size="10.00">include/vmm_core.h</text>
</a>
</g>
<!-- Node1&#45;&gt;Node4 -->
<g id="edge36" class="edge"><title>Node1&#45;&gt;Node4</title>
<path fill="none" stroke="midnightblue" d="M408.845,-286.42C456.926,-281.066 511.301,-265.884 499,-224 490.662,-195.611 486.383,-186.129 463,-168 438.726,-149.181 406.222,-138.046 379.077,-131.562"/>
<polygon fill="midnightblue" stroke="midnightblue" points="408.316,-282.955 398.707,-287.419 409.002,-289.921 408.316,-282.955"/>
</g>
<!-- Node11 -->
<g id="node30" class="node"><title>Node11</title>
<a xlink:href="../../d9/dd2/round__robin_8h.xhtml" target="_top" xlink:title="include/round_robin.h">
<polygon fill="white" stroke="black" points="327.5,-168.5 327.5,-187.5 436.5,-187.5 436.5,-168.5 327.5,-168.5"/>
<text text-anchor="middle" x="382" y="-175.5" font-family="Helvetica,sans-Serif" font-size="10.00">include/round_robin.h</text>
</a>
</g>
<!-- Node1&#45;&gt;Node11 -->
<g id="edge38" class="edge"><title>Node1&#45;&gt;Node11</title>
<path fill="none" stroke="midnightblue" d="M348.664,-270.674C357.409,-246.625 372.404,-205.388 378.876,-187.591"/>
<polygon fill="midnightblue" stroke="midnightblue" points="345.267,-269.774 345.139,-280.368 351.846,-272.167 345.267,-269.774"/>
</g>
<!-- Node12 -->
<g id="node33" class="node"><title>Node12</title>
<a xlink:href="../../d7/d62/io__control_8h_source.xhtml" target="_top" xlink:title="include/io_control.h">
<polygon fill="white" stroke="black" points="389.5,-224.5 389.5,-243.5 490.5,-243.5 490.5,-224.5 389.5,-224.5"/>
<text text-anchor="middle" x="440" y="-231.5" font-family="Helvetica,sans-Serif" font-size="10.00">include/io_control.h</text>
</a>
</g>
<!-- Node1&#45;&gt;Node12 -->
<g id="edge42" class="edge"><title>Node1&#45;&gt;Node12</title>
<path fill="none" stroke="midnightblue" d="M366.586,-275.453C384.678,-265.483 408.735,-252.228 424.294,-243.655"/>
<polygon fill="midnightblue" stroke="midnightblue" points="364.815,-272.432 357.745,-280.324 368.193,-278.563 364.815,-272.432"/>
</g>
<!-- Node13 -->
<g id="node36" class="node"><title>Node13</title>
<a xlink:href="../../dc/dff/frameAlloc_8h_source.xhtml" target="_top" xlink:title="include/Policy/frameAlloc.h">
<polygon fill="white" stroke="black" points="81.5,-168.5 81.5,-187.5 216.5,-187.5 216.5,-168.5 81.5,-168.5"/>
<text text-anchor="middle" x="149" y="-175.5" font-family="Helvetica,sans-Serif" font-size="10.00">include/Policy/frameAlloc.h</text>
</a>
</g>
<!-- Node1&#45;&gt;Node13 -->
<g id="edge46" class="edge"><title>Node1&#45;&gt;Node13</title>
<path fill="none" stroke="midnightblue" d="M287.33,-277.989C261.235,-271.025 230.449,-260.201 206,-244 182.979,-228.745 163.604,-201.84 154.527,-187.913"/>
<polygon fill="midnightblue" stroke="midnightblue" points="286.524,-281.395 297.078,-280.471 288.251,-274.611 286.524,-281.395"/>
</g>
<!-- Node2&#45;&gt;Node3 -->
<g id="edge4" class="edge"><title>Node2&#45;&gt;Node3</title>
<path fill="none" stroke="midnightblue" d="M260.857,-214.396C263.701,-205.362 266.983,-194.936 269.245,-187.751"/>
<polygon fill="midnightblue" stroke="midnightblue" points="257.472,-213.493 257.807,-224.083 264.149,-215.596 257.472,-213.493"/>
</g>
<!-- Node3&#45;&gt;Node4 -->
<g id="edge6" class="edge"><title>Node3&#45;&gt;Node4</title>
<path fill="none" stroke="midnightblue" d="M282.595,-160.431C291.34,-150.967 303.421,-139.483 312.956,-131.751"/>
<polygon fill="midnightblue" stroke="midnightblue" points="279.855,-158.248 275.916,-168.083 285.129,-162.851 279.855,-158.248"/>
</g>
<!-- Node4&#45;&gt;Node3 -->
<g id="edge8" class="edge"><title>Node4&#45;&gt;Node3</title>
<path fill="none" stroke="midnightblue" d="M316.458,-139.511C307.681,-149.017 295.52,-160.576 285.952,-168.324"/>
<polygon fill="midnightblue" stroke="midnightblue" points="319.218,-141.672 323.151,-131.834 313.942,-137.072 319.218,-141.672"/>
</g>
<!-- Node5 -->
<g id="node10" class="node"><title>Node5</title>
<a xlink:href="../../de/d7e/cleaningDaemon_8h.xhtml" target="_top" xlink:title="include/Policy/cleaningDaemon.h">
<polygon fill="white" stroke="black" points="246.5,-56.5 246.5,-75.5 407.5,-75.5 407.5,-56.5 246.5,-56.5"/>
<text text-anchor="middle" x="327" y="-63.5" font-family="Helvetica,sans-Serif" font-size="10.00">include/Policy/cleaningDaemon.h</text>
</a>
</g>
<!-- Node4&#45;&gt;Node5 -->
<g id="edge10" class="edge"><title>Node4&#45;&gt;Node5</title>
<path fill="none" stroke="midnightblue" d="M320.528,-102.101C319.896,-93.1357 320.343,-82.8579 321.869,-75.7511"/>
<polygon fill="midnightblue" stroke="midnightblue" points="317.066,-102.622 321.834,-112.083 324.007,-101.713 317.066,-102.622"/>
</g>
<!-- Node6 -->
<g id="node13" class="node"><title>Node6</title>
<a xlink:href="../../d4/dbf/main_8h_source.xhtml" target="_top" xlink:title="include/main.h">
<polygon fill="white" stroke="black" points="605,-0.5 605,-19.5 685,-19.5 685,-0.5 605,-0.5"/>
<text text-anchor="middle" x="645" y="-7.5" font-family="Helvetica,sans-Serif" font-size="10.00">include/main.h</text>
</a>
</g>
<!-- Node4&#45;&gt;Node6 -->
<g id="edge16" class="edge"><title>Node4&#45;&gt;Node6</title>
<path fill="none" stroke="midnightblue" d="M389.38,-118.154C492.678,-112.796 690.026,-99.5754 711,-76 729.921,-54.7327 691.127,-31.8013 665.382,-19.6736"/>
<polygon fill="midnightblue" stroke="midnightblue" points="388.89,-114.675 379.081,-118.679 389.246,-121.666 388.89,-114.675"/>
</g>
<!-- Node7 -->
<g id="node16" class="node"><title>Node7</title>
<a xlink:href="../../d3/ded/pr__fifo_8h_source.xhtml" target="_top" xlink:title="include/Policy/pr_fifo.h">
<polygon fill="white" stroke="black" points="587,-56.5 587,-75.5 703,-75.5 703,-56.5 587,-56.5"/>
<text text-anchor="middle" x="645" y="-63.5" font-family="Helvetica,sans-Serif" font-size="10.00">include/Policy/pr_fifo.h</text>
</a>
</g>
<!-- Node4&#45;&gt;Node7 -->
<g id="edge18" class="edge"><title>Node4&#45;&gt;Node7</title>
<path fill="none" stroke="midnightblue" d="M387.494,-110.727C447.587,-100.523 538.657,-85.0583 594.848,-75.5164"/>
<polygon fill="midnightblue" stroke="midnightblue" points="386.661,-107.319 377.388,-112.444 387.833,-114.22 386.661,-107.319"/>
</g>
<!-- Node9 -->
<g id="node22" class="node"><title>Node9</title>
<a xlink:href="../../db/d16/pr__lru_8h_source.xhtml" target="_top" xlink:title="include/Policy/pr_lru.h">
<polygon fill="white" stroke="black" points="115.5,-56.5 115.5,-75.5 228.5,-75.5 228.5,-56.5 115.5,-56.5"/>
<text text-anchor="middle" x="172" y="-63.5" font-family="Helvetica,sans-Serif" font-size="10.00">include/Policy/pr_lru.h</text>
</a>
</g>
<!-- Node4&#45;&gt;Node9 -->
<g id="edge26" class="edge"><title>Node4&#45;&gt;Node9</title>
<path fill="none" stroke="midnightblue" d="M292.668,-109.039C263.503,-98.8786 222.363,-84.5457 196.445,-75.5164"/>
<polygon fill="midnightblue" stroke="midnightblue" points="291.845,-112.459 302.44,-112.444 294.148,-105.848 291.845,-112.459"/>
</g>
<!-- Node10 -->
<g id="node25" class="node"><title>Node10</title>
<a xlink:href="../../d6/d53/pr__lruApprox_8h_source.xhtml" target="_top" xlink:title="include/Policy/pr_lruApprox.h">
<polygon fill="white" stroke="black" points="425.5,-56.5 425.5,-75.5 568.5,-75.5 568.5,-56.5 425.5,-56.5"/>
<text text-anchor="middle" x="497" y="-63.5" font-family="Helvetica,sans-Serif" font-size="10.00">include/Policy/pr_lruApprox.h</text>
</a>
</g>
<!-- Node4&#45;&gt;Node10 -->
<g id="edge30" class="edge"><title>Node4&#45;&gt;Node10</title>
<path fill="none" stroke="midnightblue" d="M363.819,-109.304C395.852,-99.1294 441.515,-84.6246 470.189,-75.5164"/>
<polygon fill="midnightblue" stroke="midnightblue" points="362.408,-106.08 353.937,-112.444 364.527,-112.752 362.408,-106.08"/>
</g>
<!-- Node5&#45;&gt;Node4 -->
<g id="edge12" class="edge"><title>Node5&#45;&gt;Node4</title>
<path fill="none" stroke="midnightblue" d="M333.458,-85.6911C334.106,-94.6353 333.676,-104.927 332.166,-112.083"/>
<polygon fill="midnightblue" stroke="midnightblue" points="336.923,-85.2002 332.131,-75.7511 329.985,-86.1262 336.923,-85.2002"/>
</g>
<!-- Node5&#45;&gt;Node6 -->
<g id="edge14" class="edge"><title>Node5&#45;&gt;Node6</title>
<path fill="none" stroke="midnightblue" d="M387.318,-54.7572C451.145,-43.9188 550.06,-27.1218 604.916,-17.8067"/>
<polygon fill="midnightblue" stroke="midnightblue" points="386.661,-51.3187 377.388,-56.4435 387.833,-58.2199 386.661,-51.3187"/>
</g>
<!-- Node7&#45;&gt;Node6 -->
<g id="edge24" class="edge"><title>Node7&#45;&gt;Node6</title>
<path fill="none" stroke="midnightblue" d="M645,-45.8045C645,-36.9102 645,-26.7798 645,-19.7511"/>
<polygon fill="midnightblue" stroke="midnightblue" points="641.5,-46.083 645,-56.083 648.5,-46.083 641.5,-46.083"/>
</g>
<!-- Node8 -->
<g id="node18" class="node"><title>Node8</title>
<a xlink:href="../../d1/df8/allPR_8h_source.xhtml" target="_top" xlink:title="include/Policy/allPR.h">
<polygon fill="white" stroke="black" points="115.5,-0.5 115.5,-19.5 228.5,-19.5 228.5,-0.5 115.5,-0.5"/>
<text text-anchor="middle" x="172" y="-7.5" font-family="Helvetica,sans-Serif" font-size="10.00">include/Policy/allPR.h</text>
</a>
</g>
<!-- Node7&#45;&gt;Node8 -->
<g id="edge20" class="edge"><title>Node7&#45;&gt;Node8</title>
<path fill="none" stroke="midnightblue" d="M576.551,-55.97C445.514,-40.0992 305.098,-24.9846 228.721,-16.9238"/>
<polygon fill="midnightblue" stroke="midnightblue" points="576.422,-59.4801 586.772,-57.2118 577.267,-52.5312 576.422,-59.4801"/>
</g>
<!-- Node8&#45;&gt;Node4 -->
<g id="edge22" class="edge"><title>Node8&#45;&gt;Node4</title>
<path fill="none" stroke="midnightblue" d="M142.419,-24.0968C118.131,-36.6678 90.1217,-56.5628 106,-76 126.901,-101.586 216.275,-112.993 274.769,-117.798"/>
<polygon fill="midnightblue" stroke="midnightblue" points="144.02,-27.21 151.446,-19.6537 140.929,-20.9295 144.02,-27.21"/>
</g>
<!-- Node9&#45;&gt;Node8 -->
<g id="edge28" class="edge"><title>Node9&#45;&gt;Node8</title>
<path fill="none" stroke="midnightblue" d="M172,-45.8045C172,-36.9102 172,-26.7798 172,-19.7511"/>
<polygon fill="midnightblue" stroke="midnightblue" points="168.5,-46.083 172,-56.083 175.5,-46.083 168.5,-46.083"/>
</g>
<!-- Node10&#45;&gt;Node8 -->
<g id="edge32" class="edge"><title>Node10&#45;&gt;Node8</title>
<path fill="none" stroke="midnightblue" d="M435.555,-54.7907C374.144,-44.587 280.803,-29.078 223.256,-19.5164"/>
<polygon fill="midnightblue" stroke="midnightblue" points="435.064,-58.2571 445.503,-56.4435 436.212,-51.3517 435.064,-58.2571"/>
</g>
<!-- Node11&#45;&gt;Node4 -->
<g id="edge40" class="edge"><title>Node11&#45;&gt;Node4</title>
<path fill="none" stroke="midnightblue" d="M365.706,-161.002C355.959,-151.433 343.947,-139.639 335.913,-131.751"/>
<polygon fill="midnightblue" stroke="midnightblue" points="363.33,-163.575 372.918,-168.083 368.234,-158.58 363.33,-163.575"/>
</g>
<!-- Node12&#45;&gt;Node4 -->
<g id="edge44" class="edge"><title>Node12&#45;&gt;Node4</title>
<path fill="none" stroke="midnightblue" d="M447.253,-214.568C451.468,-200.581 454.312,-181.518 445,-168 430.136,-146.424 403.437,-135.185 379.191,-129.335"/>
<polygon fill="midnightblue" stroke="midnightblue" points="443.918,-213.504 443.941,-224.098 450.53,-215.802 443.918,-213.504"/>
</g>
<!-- Node13&#45;&gt;Node4 -->
<g id="edge48" class="edge"><title>Node13&#45;&gt;Node4</title>
<path fill="none" stroke="midnightblue" d="M187.117,-165.436C220.678,-155.255 268.774,-140.664 298.927,-131.516"/>
<polygon fill="midnightblue" stroke="midnightblue" points="185.758,-162.191 177.205,-168.444 187.79,-168.89 185.758,-162.191"/>
</g>
<!-- Node13&#45;&gt;Node5 -->
<g id="edge50" class="edge"><title>Node13&#45;&gt;Node5</title>
<path fill="none" stroke="midnightblue" d="M171.64,-163.009C209.004,-139.919 282.483,-94.5104 313.098,-75.5914"/>
<polygon fill="midnightblue" stroke="midnightblue" points="169.634,-160.134 162.967,-168.368 173.314,-166.089 169.634,-160.134"/>
</g>
<!-- Node14 -->
<g id="node40" class="node"><title>Node14</title>
<a xlink:href="../../d3/d2c/pageReplace_8h.xhtml" target="_top" xlink:title="include/Policy/pageReplace.h">
<polygon fill="white" stroke="black" points="0,-112.5 0,-131.5 146,-131.5 146,-112.5 0,-112.5"/>
<text text-anchor="middle" x="73" y="-119.5" font-family="Helvetica,sans-Serif" font-size="10.00">include/Policy/pageReplace.h</text>
</a>
</g>
<!-- Node13&#45;&gt;Node14 -->
<g id="edge52" class="edge"><title>Node13&#45;&gt;Node14</title>
<path fill="none" stroke="midnightblue" d="M128.424,-162.38C114.688,-152.62 97.0747,-140.106 85.4329,-131.834"/>
<polygon fill="midnightblue" stroke="midnightblue" points="126.61,-165.385 136.789,-168.324 130.665,-159.679 126.61,-165.385"/>
</g>
<!-- Node14&#45;&gt;Node8 -->
<g id="edge54" class="edge"><title>Node14&#45;&gt;Node8</title>
<path fill="none" stroke="midnightblue" d="M67.9268,-102.294C65.2963,-88.4189 64.2263,-69.6255 73,-56 85.2144,-37.031 107.598,-25.9659 127.994,-19.559"/>
<polygon fill="midnightblue" stroke="midnightblue" points="64.5487,-103.221 70.2128,-112.175 71.3686,-101.643 64.5487,-103.221"/>
</g>
</g>
</svg>
        <g id="navigator" transform="translate(0 0)" fill="#404254">
                <rect fill="#f2f5e9" fill-opacity="0.5" stroke="#606060" stroke-width=".5" x="0" y="0" width="60" height="60"/>
                <use id="zoomplus" xlink:href="#zoomPlus" x="17" y="9" onmousedown="handleZoom(evt,'in')"/>
                <use id="zoomminus" xlink:href="#zoomMin" x="42" y="9" onmousedown="handleZoom(evt,'out')"/>
                <use id="reset" xlink:href="#resetDef" x="30" y="36" onmousedown="handleReset()"/>
                <g id="arrowUp" xlink:href="#dirArrow" transform="translate(30 24)" onmousedown="handlePan(0,-1)">
                  <use xlink:href="#rim" fill="#404040">
                        <set attributeName="fill" to="#808080" begin="arrowUp.mouseover" end="arrowUp.mouseout"/>
                  </use>
                  <path fill="none" stroke="white" stroke-width="1.5" d="M0,-3.0v7 M-2.5,-0.5L0,-3.0L2.5,-0.5"/>
                </g>
                <g id="arrowRight" xlink:href="#dirArrow" transform="rotate(90) translate(36 -43)" onmousedown="handlePan(1,0)">
                  <use xlink:href="#rim" fill="#404040">
                        <set attributeName="fill" to="#808080" begin="arrowRight.mouseover" end="arrowRight.mouseout"/>
                  </use>
                  <path fill="none" stroke="white" stroke-width="1.5" d="M0,-3.0v7 M-2.5,-0.5L0,-3.0L2.5,-0.5"/>
                </g>
                <g id="arrowDown" xlink:href="#dirArrow" transform="rotate(180) translate(-30 -48)" onmousedown="handlePan(0,1)">
                  <use xlink:href="#rim" fill="#404040">
                        <set attributeName="fill" to="#808080" begin="arrowDown.mouseover" end="arrowDown.mouseout"/>
                  </use>
                  <path fill="none" stroke="white" stroke-width="1.5" d="M0,-3.0v7 M-2.5,-0.5L0,-3.0L2.5,-0.5"/>
                </g>
                <g id="arrowLeft" xlink:href="#dirArrow" transform="rotate(270) translate(-36 17)" onmousedown="handlePan(-1,0)">
                  <use xlink:href="#rim" fill="#404040">
                        <set attributeName="fill" to="#808080" begin="arrowLeft.mouseover" end="arrowLeft.mouseout"/>
                  </use>
                  <path fill="none" stroke="white" stroke-width="1.5" d="M0,-3.0v7 M-2.5,-0.5L0,-3.0L2.5,-0.5"/>
                </g>
        </g>
</svg>
