<?xml version="1.0" encoding="UTF-8" standalone="no"?>
<!DOCTYPE svg PUBLIC "-//W3C//DTD SVG 1.1//EN"
 "http://www.w3.org/Graphics/SVG/1.1/DTD/svg11.dtd">
<!-- Generated by graphviz version 2.28.0 (20111025.1818)
 -->
<!-- Title: G Pages: 1 -->
<svg width="331pt" height="84pt"
 viewBox="0.00 0.00 331.00 84.00" xmlns="http://www.w3.org/2000/svg" xmlns:xlink="http://www.w3.org/1999/xlink">
<g id="graph1" class="graph" transform="scale(1 1) rotate(0) translate(4 80)">
<title>G</title>
<polygon fill="white" stroke="white" points="-4,5 -4,-80 328,-80 328,5 -4,5"/>
<!-- Node1 -->
<g id="node1" class="node"><title>Node1</title>
<polygon fill="#bfbfbf" stroke="black" points="91.5,-56.5 91.5,-75.5 204.5,-75.5 204.5,-56.5 91.5,-56.5"/>
<text text-anchor="middle" x="148" y="-63.5" font-family="Helvetica,sans-Serif" font-size="10.00">include/data_structs.h</text>
</g>
<!-- Node2 -->
<g id="node3" class="node"><title>Node2</title>
<polygon fill="white" stroke="#bfbfbf" points="0,-0.5 0,-19.5 44,-19.5 44,-0.5 0,-0.5"/>
<text text-anchor="middle" x="22" y="-7.5" font-family="Helvetica,sans-Serif" font-size="10.00">vector</text>
</g>
<!-- Node1&#45;&gt;Node2 -->
<g id="edge2" class="edge"><title>Node1&#45;&gt;Node2</title>
<path fill="none" stroke="midnightblue" d="M128.035,-56.4435C107.391,-47.5961 74.9375,-33.6875 51.3684,-23.5865"/>
<polygon fill="midnightblue" stroke="midnightblue" points="52.4419,-20.2387 41.8717,-19.5164 49.6844,-26.6727 52.4419,-20.2387"/>
</g>
<!-- Node3 -->
<g id="node5" class="node"><title>Node3</title>
<polygon fill="white" stroke="#bfbfbf" points="62.5,-0.5 62.5,-19.5 103.5,-19.5 103.5,-0.5 62.5,-0.5"/>
<text text-anchor="middle" x="83" y="-7.5" font-family="Helvetica,sans-Serif" font-size="10.00">string</text>
</g>
<!-- Node1&#45;&gt;Node3 -->
<g id="edge4" class="edge"><title>Node1&#45;&gt;Node3</title>
<path fill="none" stroke="midnightblue" d="M137.557,-56.324C127.854,-48.2631 113.185,-36.0765 101.5,-26.3695"/>
<polygon fill="midnightblue" stroke="midnightblue" points="103.562,-23.532 93.6334,-19.8339 99.0887,-28.9163 103.562,-23.532"/>
</g>
<!-- Node4 -->
<g id="node7" class="node"><title>Node4</title>
<polygon fill="white" stroke="#bfbfbf" points="122,-0.5 122,-19.5 174,-19.5 174,-0.5 122,-0.5"/>
<text text-anchor="middle" x="148" y="-7.5" font-family="Helvetica,sans-Serif" font-size="10.00">sstream</text>
</g>
<!-- Node1&#45;&gt;Node4 -->
<g id="edge6" class="edge"><title>Node1&#45;&gt;Node4</title>
<path fill="none" stroke="midnightblue" d="M148,-56.083C148,-49.0059 148,-38.8611 148,-29.9865"/>
<polygon fill="midnightblue" stroke="midnightblue" points="151.5,-29.751 148,-19.7511 144.5,-29.7511 151.5,-29.751"/>
</g>
<!-- Node5 -->
<g id="node9" class="node"><title>Node5</title>
<polygon fill="white" stroke="#bfbfbf" points="192,-0.5 192,-19.5 246,-19.5 246,-0.5 192,-0.5"/>
<text text-anchor="middle" x="219" y="-7.5" font-family="Helvetica,sans-Serif" font-size="10.00">iostream</text>
</g>
<!-- Node1&#45;&gt;Node5 -->
<g id="edge8" class="edge"><title>Node1&#45;&gt;Node5</title>
<path fill="none" stroke="midnightblue" d="M159.407,-56.324C170.109,-48.1849 186.341,-35.8395 199.163,-26.0874"/>
<polygon fill="midnightblue" stroke="midnightblue" points="201.544,-28.6734 207.385,-19.8339 197.307,-23.1018 201.544,-28.6734"/>
</g>
<!-- Node6 -->
<g id="node11" class="node"><title>Node6</title>
<polygon fill="white" stroke="#bfbfbf" points="264.5,-0.5 264.5,-19.5 323.5,-19.5 323.5,-0.5 264.5,-0.5"/>
<text text-anchor="middle" x="294" y="-7.5" font-family="Helvetica,sans-Serif" font-size="10.00">inttypes.h</text>
</g>
<!-- Node1&#45;&gt;Node6 -->
<g id="edge10" class="edge"><title>Node1&#45;&gt;Node6</title>
<path fill="none" stroke="midnightblue" d="M171.134,-56.4435C195.482,-47.4381 234.007,-33.1891 261.423,-23.049"/>
<polygon fill="midnightblue" stroke="midnightblue" points="262.809,-26.2681 270.974,-19.5164 260.381,-19.7028 262.809,-26.2681"/>
</g>
</g>
</svg>
