<?xml version="1.0" encoding="UTF-8" standalone="no"?>
<!DOCTYPE svg PUBLIC "-//W3C//DTD SVG 1.1//EN"
 "http://www.w3.org/Graphics/SVG/1.1/DTD/svg11.dtd">
<!-- Generated by graphviz version 2.28.0 (20111025.1818)
 -->
<!-- Title: G Pages: 1 -->
<svg width="160pt" height="140pt"
 viewBox="0.00 0.00 160.00 140.00" xmlns="http://www.w3.org/2000/svg" xmlns:xlink="http://www.w3.org/1999/xlink">
<g id="graph1" class="graph" transform="scale(1 1) rotate(0) translate(4 136)">
<title>G</title>
<polygon fill="white" stroke="white" points="-4,5 -4,-136 157,-136 157,5 -4,5"/>
<!-- Node1 -->
<g id="node1" class="node"><title>Node1</title>
<polygon fill="#bfbfbf" stroke="black" points="0,-112.5 0,-131.5 152,-131.5 152,-112.5 0,-112.5"/>
<text text-anchor="middle" x="76" y="-119.5" font-family="Helvetica,sans-Serif" font-size="10.00">include/devices/block_device.h</text>
</g>
<!-- Node2 -->
<g id="node3" class="node"><title>Node2</title>
<a xlink:href="../../d0/d8f/abstract__device_8h_source.xhtml" target="_top" xlink:title="devices/abstract_device.h">
<polygon fill="white" stroke="black" points="10.5,-56.5 10.5,-75.5 141.5,-75.5 141.5,-56.5 10.5,-56.5"/>
<text text-anchor="middle" x="76" y="-63.5" font-family="Helvetica,sans-Serif" font-size="10.00">devices/abstract_device.h</text>
</a>
</g>
<!-- Node1&#45;&gt;Node2 -->
<g id="edge2" class="edge"><title>Node1&#45;&gt;Node2</title>
<path fill="none" stroke="midnightblue" d="M76,-112.083C76,-105.006 76,-94.8611 76,-85.9865"/>
<polygon fill="midnightblue" stroke="midnightblue" points="79.5001,-85.751 76,-75.7511 72.5001,-85.7511 79.5001,-85.751"/>
</g>
<!-- Node3 -->
<g id="node5" class="node"><title>Node3</title>
<polygon fill="white" stroke="#bfbfbf" points="22,-0.5 22,-19.5 66,-19.5 66,-0.5 22,-0.5"/>
<text text-anchor="middle" x="44" y="-7.5" font-family="Helvetica,sans-Serif" font-size="10.00">time.h</text>
</g>
<!-- Node2&#45;&gt;Node3 -->
<g id="edge4" class="edge"><title>Node2&#45;&gt;Node3</title>
<path fill="none" stroke="midnightblue" d="M70.7159,-56.083C66.289,-48.6127 59.8367,-37.7244 54.3821,-28.5199"/>
<polygon fill="midnightblue" stroke="midnightblue" points="57.2949,-26.5697 49.1858,-19.7511 51.2729,-30.1383 57.2949,-26.5697"/>
</g>
<!-- Node4 -->
<g id="node7" class="node"><title>Node4</title>
<polygon fill="white" stroke="#bfbfbf" points="84,-0.5 84,-19.5 134,-19.5 134,-0.5 84,-0.5"/>
<text text-anchor="middle" x="109" y="-7.5" font-family="Helvetica,sans-Serif" font-size="10.00">signal.h</text>
</g>
<!-- Node2&#45;&gt;Node4 -->
<g id="edge6" class="edge"><title>Node2&#45;&gt;Node4</title>
<path fill="none" stroke="midnightblue" d="M81.4493,-56.083C86.0145,-48.6127 92.6684,-37.7244 98.2934,-28.5199"/>
<polygon fill="midnightblue" stroke="midnightblue" points="101.424,-30.109 103.652,-19.7511 95.4511,-26.4588 101.424,-30.109"/>
</g>
</g>
</svg>
