<?xml version="1.0" encoding="UTF-8" standalone="no"?>
<!DOCTYPE svg PUBLIC "-//W3C//DTD SVG 1.1//EN"
 "http://www.w3.org/Graphics/SVG/1.1/DTD/svg11.dtd">
<!-- Generated by graphviz version 2.28.0 (20111025.1818)
 -->
<!-- Title: G Pages: 1 -->
<!--zoomable 251 -->
<svg id="main" version="1.1" xmlns="http://www.w3.org/2000/svg" xmlns:xlink="http://www.w3.org/1999/xlink" xml:space="preserve" onload="init(evt)">
        <defs>
                <circle id="rim" cx="0" cy="0" r="7"/>
                <circle id="rim2" cx="0" cy="0" r="3.5"/>
                <g id="zoomPlus">
                        <use xlink:href="#rim" fill="#404040">
                                <set attributeName="fill" to="#808080" begin="zoomplus.mouseover" end="zoomplus.mouseout"/>
                        </use>
                        <path d="M-4,0h8M0,-4v8" fill="none" stroke="white" stroke-width="1.5" pointer-events="none"/>
                </g>
                <g id="zoomMin">
                        <use xlink:href="#rim" fill="#404040">
                                <set attributeName="fill" to="#808080" begin="zoomminus.mouseover" end="zoomminus.mouseout"/>
                        </use>
                        <path d="M-4,0h8" fill="none" stroke="white" stroke-width="1.5" pointer-events="none"/>
                </g>
                <g id="dirArrow">
                        <path fill="none" stroke="white" stroke-width="1.5" d="M0,-3.0v7 M-2.5,-0.5L0,-3.0L2.5,-0.5"/>
                </g>
               <g id="resetDef">
                       <use xlink:href="#rim2" fill="#404040">
                               <set attributeName="fill" to="#808080" begin="reset.mouseover" end="reset.mouseout"/>
                       </use>
               </g>
        </defs>

<script type="text/javascript">
var viewWidth = 900;
var viewHeight = 251;
var sectionId = 'dynsection-1';
</script>
<script xlink:href="../../svgpan.js"/>
<svg id="graph" class="graph">
<g id="viewport">
<title>G</title>
<polygon fill="white" stroke="white" points="-4,5 -4,-247 897,-247 897,5 -4,5"/>
<!-- Node1 -->
<g id="node1" class="node"><title>Node1</title>
<polygon fill="#bfbfbf" stroke="black" points="816,-118.5 816,-137.5 892,-137.5 892,-118.5 816,-118.5"/>
<text text-anchor="middle" x="854" y="-125.5" font-family="Helvetica,sans-Serif" font-size="10.00">cRoundRobin</text>
</g>
<!-- Node2 -->
<g id="node2" class="node"><title>Node2</title>
<a xlink:href="../../d0/d21/classcScheduler.xhtml" target="_top" xlink:title="Abstract Interface for Schedulers.">
<polygon fill="white" stroke="black" points="611.5,-223.5 611.5,-242.5 676.5,-242.5 676.5,-223.5 611.5,-223.5"/>
<text text-anchor="middle" x="644" y="-230.5" font-family="Helvetica,sans-Serif" font-size="10.00">cScheduler</text>
</a>
</g>
<!-- Node2&#45;&gt;Node1 -->
<g id="edge2" class="edge"><title>Node2&#45;&gt;Node1</title>
<path fill="none" stroke="midnightblue" d="M686.667,-234.784C719.329,-234.263 764.673,-229.138 798,-208 825.185,-190.757 842.421,-154.711 849.421,-137.519"/>
<polygon fill="midnightblue" stroke="midnightblue" points="686.532,-231.285 676.54,-234.806 686.547,-238.284 686.532,-231.285"/>
</g>
<!-- Node3 -->
<g id="node4" class="node"><title>Node3</title>
<a xlink:href="../../dd/dc8/structProcessInfo.xhtml" target="_top" xlink:title="Structure for containing process state and data.">
<polygon fill="white" stroke="black" points="396.5,-155.5 396.5,-174.5 465.5,-174.5 465.5,-155.5 396.5,-155.5"/>
<text text-anchor="middle" x="431" y="-162.5" font-family="Helvetica,sans-Serif" font-size="10.00">ProcessInfo</text>
</a>
</g>
<!-- Node3&#45;&gt;Node1 -->
<g id="edge4" class="edge"><title>Node3&#45;&gt;Node1</title>
<path fill="none" stroke="#9a32cd" stroke-dasharray="5,2" d="M475.711,-171.494C484.402,-172.538 493.475,-173.454 502,-174 525.951,-175.533 532.006,-174.531 556,-174 663.896,-171.611 694.821,-185.642 798,-154 811.329,-149.912 825.535,-143.128 836.17,-137.514"/>
<polygon fill="#9a32cd" stroke="#9a32cd" points="476.102,-168.016 465.74,-170.224 475.217,-174.96 476.102,-168.016"/>
<text text-anchor="middle" x="644" y="-178" font-family="Helvetica,sans-Serif" font-size="10.00"> runningProc</text>
</g>
<!-- Node4 -->
<g id="node6" class="node"><title>Node4</title>
<polygon fill="white" stroke="#bfbfbf" points="574,-138.5 574,-157.5 714,-157.5 714,-138.5 574,-138.5"/>
<text text-anchor="middle" x="644" y="-145.5" font-family="Helvetica,sans-Serif" font-size="10.00">std::queue&lt; ProcessInfo * &gt;</text>
</g>
<!-- Node3&#45;&gt;Node4 -->
<g id="edge8" class="edge"><title>Node3&#45;&gt;Node4</title>
<path fill="none" stroke="#9a32cd" stroke-dasharray="5,2" d="M475.883,-161.464C504.166,-159.186 541.546,-156.174 573.781,-153.577"/>
<polygon fill="#9a32cd" stroke="#9a32cd" points="475.587,-157.977 465.901,-162.269 476.15,-164.954 475.587,-157.977"/>
<text text-anchor="middle" x="529" y="-162" font-family="Helvetica,sans-Serif" font-size="10.00"> elements</text>
</g>
<!-- Node7 -->
<g id="node13" class="node"><title>Node7</title>
<polygon fill="white" stroke="#bfbfbf" points="574,-100.5 574,-119.5 714,-119.5 714,-100.5 574,-100.5"/>
<text text-anchor="middle" x="644" y="-107.5" font-family="Helvetica,sans-Serif" font-size="10.00">std::vector&lt; ProcessInfo * &gt;</text>
</g>
<!-- Node3&#45;&gt;Node7 -->
<g id="edge16" class="edge"><title>Node3&#45;&gt;Node7</title>
<path fill="none" stroke="#9a32cd" stroke-dasharray="5,2" d="M465.918,-151.859C477.283,-147.732 490.093,-143.377 502,-140 530.773,-131.84 563.407,-124.762 590.029,-119.532"/>
<polygon fill="#9a32cd" stroke="#9a32cd" points="464.524,-148.643 456.361,-155.396 466.954,-155.207 464.524,-148.643"/>
<text text-anchor="middle" x="529" y="-143" font-family="Helvetica,sans-Serif" font-size="10.00"> elements</text>
</g>
<!-- Node4&#45;&gt;Node1 -->
<g id="edge6" class="edge"><title>Node4&#45;&gt;Node1</title>
<path fill="none" stroke="#9a32cd" stroke-dasharray="5,2" d="M724.341,-140.371C755.782,-137.348 790.414,-134.018 815.819,-131.575"/>
<polygon fill="#9a32cd" stroke="#9a32cd" points="723.88,-136.899 714.261,-141.34 724.55,-143.867 723.88,-136.899"/>
<text text-anchor="middle" x="765" y="-142" font-family="Helvetica,sans-Serif" font-size="10.00"> readyQueue</text>
</g>
<!-- Node5 -->
<g id="node9" class="node"><title>Node5</title>
<a xlink:href="../../de/dd4/classcIDManager.xhtml" target="_top" xlink:title="A class for managing unique IDs.">
<polygon fill="white" stroke="black" points="396,-0.5 396,-19.5 466,-19.5 466,-0.5 396,-0.5"/>
<text text-anchor="middle" x="431" y="-7.5" font-family="Helvetica,sans-Serif" font-size="10.00">cIDManager</text>
</a>
</g>
<!-- Node5&#45;&gt;Node1 -->
<g id="edge10" class="edge"><title>Node5&#45;&gt;Node1</title>
<path fill="none" stroke="#9a32cd" stroke-dasharray="5,2" d="M476.36,-7.05538C549.402,-4.37646 696.947,-8.30386 798,-73 817.561,-85.5234 835.665,-106.046 845.439,-118.166"/>
<polygon fill="#9a32cd" stroke="#9a32cd" points="475.98,-3.56834 466.139,-7.49213 476.279,-10.562 475.98,-3.56834"/>
<text text-anchor="middle" x="644" y="-37" font-family="Helvetica,sans-Serif" font-size="10.00"> blockedID</text>
</g>
<!-- Node8 -->
<g id="node16" class="node"><title>Node8</title>
<a xlink:href="../../db/d63/classcProcessLogger.xhtml" target="_top" xlink:title="Class specifically for logging process state information.">
<polygon fill="white" stroke="black" points="600.5,-62.5 600.5,-81.5 687.5,-81.5 687.5,-62.5 600.5,-62.5"/>
<text text-anchor="middle" x="644" y="-69.5" font-family="Helvetica,sans-Serif" font-size="10.00">cProcessLogger</text>
</a>
</g>
<!-- Node5&#45;&gt;Node8 -->
<g id="edge28" class="edge"><title>Node5&#45;&gt;Node8</title>
<path fill="none" stroke="#9a32cd" stroke-dasharray="5,2" d="M475.854,-21.5232C499.641,-27.8993 529.512,-36.1103 556,-44 575.617,-49.8431 597.555,-56.9073 614.493,-62.4782"/>
<polygon fill="#9a32cd" stroke="#9a32cd" points="476.625,-18.1063 466.06,-18.9092 474.82,-24.8696 476.625,-18.1063"/>
<text text-anchor="middle" x="529" y="-47" font-family="Helvetica,sans-Serif" font-size="10.00"> lineIDs</text>
</g>
<!-- Node6 -->
<g id="node11" class="node"><title>Node6</title>
<polygon fill="white" stroke="#bfbfbf" points="164.5,-0.5 164.5,-19.5 297.5,-19.5 297.5,-0.5 164.5,-0.5"/>
<text text-anchor="middle" x="231" y="-7.5" font-family="Helvetica,sans-Serif" font-size="10.00">std::queue&lt; unsigned int &gt;</text>
</g>
<!-- Node6&#45;&gt;Node5 -->
<g id="edge12" class="edge"><title>Node6&#45;&gt;Node5</title>
<path fill="none" stroke="#9a32cd" stroke-dasharray="5,2" d="M307.825,-10C338.213,-10 371.687,-10 395.901,-10"/>
<polygon fill="#9a32cd" stroke="#9a32cd" points="307.656,-6.5001 297.656,-10 307.656,-13.5001 307.656,-6.5001"/>
<text text-anchor="middle" x="338" y="-13" font-family="Helvetica,sans-Serif" font-size="10.00"> freeID</text>
</g>
<!-- Node7&#45;&gt;Node1 -->
<g id="edge14" class="edge"><title>Node7&#45;&gt;Node1</title>
<path fill="none" stroke="#9a32cd" stroke-dasharray="5,2" d="M724.268,-107.845C748.072,-108.195 774.185,-109.573 798,-113 806.327,-114.198 815.188,-116.255 823.31,-118.467"/>
<polygon fill="#9a32cd" stroke="#9a32cd" points="724.252,-104.345 714.221,-107.756 724.189,-111.345 724.252,-104.345"/>
<text text-anchor="middle" x="765" y="-116" font-family="Helvetica,sans-Serif" font-size="10.00"> blockedVector</text>
</g>
<!-- Node8&#45;&gt;Node1 -->
<g id="edge18" class="edge"><title>Node8&#45;&gt;Node1</title>
<path fill="none" stroke="#9a32cd" stroke-dasharray="5,2" d="M698.028,-73.6893C728.114,-76.0122 766.026,-81.2719 798,-93 814.151,-98.9243 830.512,-110.152 841.14,-118.297"/>
<polygon fill="#9a32cd" stroke="#9a32cd" points="697.951,-70.176 687.735,-72.9844 697.472,-77.1596 697.951,-70.176"/>
<text text-anchor="middle" x="765" y="-96" font-family="Helvetica,sans-Serif" font-size="10.00"> procLogger</text>
</g>
<!-- Node9 -->
<g id="node18" class="node"><title>Node9</title>
<polygon fill="white" stroke="#bfbfbf" points="378.5,-42.5 378.5,-61.5 483.5,-61.5 483.5,-42.5 378.5,-42.5"/>
<text text-anchor="middle" x="431" y="-49.5" font-family="Helvetica,sans-Serif" font-size="10.00">std::vector&lt; string &gt;</text>
</g>
<!-- Node9&#45;&gt;Node8 -->
<g id="edge20" class="edge"><title>Node9&#45;&gt;Node8</title>
<path fill="none" stroke="#9a32cd" stroke-dasharray="5,2" d="M493.984,-57.8752C528.222,-61.1206 569.875,-65.0687 600.43,-67.9649"/>
<polygon fill="#9a32cd" stroke="#9a32cd" points="493.902,-54.3519 483.616,-56.8926 493.241,-61.3207 493.902,-54.3519"/>
<text text-anchor="middle" x="529" y="-66" font-family="Helvetica,sans-Serif" font-size="10.00"> procNames</text>
</g>
<!-- Node10 -->
<g id="node20" class="node"><title>Node10</title>
<a xlink:title="STL class.">
<polygon fill="white" stroke="#bfbfbf" points="201,-61.5 201,-80.5 261,-80.5 261,-61.5 201,-61.5"/>
<text text-anchor="middle" x="231" y="-68.5" font-family="Helvetica,sans-Serif" font-size="10.00">std::string</text>
</a>
</g>
<!-- Node10&#45;&gt;Node8 -->
<g id="edge26" class="edge"><title>Node10&#45;&gt;Node8</title>
<path fill="none" stroke="#9a32cd" stroke-dasharray="5,2" d="M271.451,-74.3567C285.502,-75.4095 301.447,-76.4417 316,-77 422.589,-81.0888 449.396,-81.6717 556,-78 570.375,-77.5049 586.061,-76.551 600.107,-75.547"/>
<polygon fill="#9a32cd" stroke="#9a32cd" points="271.371,-70.8401 261.13,-73.5551 270.829,-77.819 271.371,-70.8401"/>
<text text-anchor="middle" x="431" y="-83" font-family="Helvetica,sans-Serif" font-size="10.00"> nameFile</text>
</g>
<!-- Node10&#45;&gt;Node9 -->
<g id="edge22" class="edge"><title>Node10&#45;&gt;Node9</title>
<path fill="none" stroke="#9a32cd" stroke-dasharray="5,2" d="M271.525,-67.2072C302.199,-64.2637 344.977,-60.1588 378.358,-56.9556"/>
<polygon fill="#9a32cd" stroke="#9a32cd" points="270.836,-63.7572 261.216,-68.1965 271.504,-70.7252 270.836,-63.7572"/>
<text text-anchor="middle" x="338" y="-65" font-family="Helvetica,sans-Serif" font-size="10.00"> elements</text>
</g>
<!-- Node11 -->
<g id="node22" class="node"><title>Node11</title>
<a xlink:title="STL class.">
<polygon fill="white" stroke="#bfbfbf" points="0.5,-61.5 0.5,-80.5 125.5,-80.5 125.5,-61.5 0.5,-61.5"/>
<text text-anchor="middle" x="63" y="-68.5" font-family="Helvetica,sans-Serif" font-size="10.00">std::basic_string&lt; char &gt;</text>
</a>
</g>
<!-- Node11&#45;&gt;Node10 -->
<g id="edge24" class="edge"><title>Node11&#45;&gt;Node10</title>
<path fill="none" stroke="midnightblue" d="M135.843,-71C158.66,-71 182.622,-71 200.663,-71"/>
<polygon fill="midnightblue" stroke="midnightblue" points="135.812,-67.5001 125.812,-71 135.812,-74.5001 135.812,-67.5001"/>
</g>
</g>
</svg>
        <g id="navigator" transform="translate(0 0)" fill="#404254">
                <rect fill="#f2f5e9" fill-opacity="0.5" stroke="#606060" stroke-width=".5" x="0" y="0" width="60" height="60"/>
                <use id="zoomplus" xlink:href="#zoomPlus" x="17" y="9" onmousedown="handleZoom(evt,'in')"/>
                <use id="zoomminus" xlink:href="#zoomMin" x="42" y="9" onmousedown="handleZoom(evt,'out')"/>
                <use id="reset" xlink:href="#resetDef" x="30" y="36" onmousedown="handleReset()"/>
                <g id="arrowUp" xlink:href="#dirArrow" transform="translate(30 24)" onmousedown="handlePan(0,-1)">
                  <use xlink:href="#rim" fill="#404040">
                        <set attributeName="fill" to="#808080" begin="arrowUp.mouseover" end="arrowUp.mouseout"/>
                  </use>
                  <path fill="none" stroke="white" stroke-width="1.5" d="M0,-3.0v7 M-2.5,-0.5L0,-3.0L2.5,-0.5"/>
                </g>
                <g id="arrowRight" xlink:href="#dirArrow" transform="rotate(90) translate(36 -43)" onmousedown="handlePan(1,0)">
                  <use xlink:href="#rim" fill="#404040">
                        <set attributeName="fill" to="#808080" begin="arrowRight.mouseover" end="arrowRight.mouseout"/>
                  </use>
                  <path fill="none" stroke="white" stroke-width="1.5" d="M0,-3.0v7 M-2.5,-0.5L0,-3.0L2.5,-0.5"/>
                </g>
                <g id="arrowDown" xlink:href="#dirArrow" transform="rotate(180) translate(-30 -48)" onmousedown="handlePan(0,1)">
                  <use xlink:href="#rim" fill="#404040">
                        <set attributeName="fill" to="#808080" begin="arrowDown.mouseover" end="arrowDown.mouseout"/>
                  </use>
                  <path fill="none" stroke="white" stroke-width="1.5" d="M0,-3.0v7 M-2.5,-0.5L0,-3.0L2.5,-0.5"/>
                </g>
                <g id="arrowLeft" xlink:href="#dirArrow" transform="rotate(270) translate(-36 17)" onmousedown="handlePan(-1,0)">
                  <use xlink:href="#rim" fill="#404040">
                        <set attributeName="fill" to="#808080" begin="arrowLeft.mouseover" end="arrowLeft.mouseout"/>
                  </use>
                  <path fill="none" stroke="white" stroke-width="1.5" d="M0,-3.0v7 M-2.5,-0.5L0,-3.0L2.5,-0.5"/>
                </g>
        </g>
</svg>
