<?xml version="1.0" encoding="UTF-8" standalone="no"?>
<!DOCTYPE svg PUBLIC "-//W3C//DTD SVG 1.1//EN"
 "http://www.w3.org/Graphics/SVG/1.1/DTD/svg11.dtd">
<!-- Generated by graphviz version 2.28.0 (20111025.1818)
 -->
<!-- Title: G Pages: 1 -->
<svg width="200pt" height="84pt"
 viewBox="0.00 0.00 200.00 84.00" xmlns="http://www.w3.org/2000/svg" xmlns:xlink="http://www.w3.org/1999/xlink">
<g id="graph1" class="graph" transform="scale(1 1) rotate(0) translate(4 80)">
<title>G</title>
<polygon fill="white" stroke="white" points="-4,5 -4,-80 197,-80 197,5 -4,5"/>
<!-- Node1 -->
<g id="node1" class="node"><title>Node1</title>
<polygon fill="#bfbfbf" stroke="black" points="41.5,-56.5 41.5,-75.5 152.5,-75.5 152.5,-56.5 41.5,-56.5"/>
<text text-anchor="middle" x="97" y="-63.5" font-family="Helvetica,sans-Serif" font-size="10.00">include/utility/logger.h</text>
</g>
<!-- Node2 -->
<g id="node3" class="node"><title>Node2</title>
<polygon fill="white" stroke="#bfbfbf" points="0,-0.5 0,-19.5 52,-19.5 52,-0.5 0,-0.5"/>
<text text-anchor="middle" x="26" y="-7.5" font-family="Helvetica,sans-Serif" font-size="10.00">assert.h</text>
</g>
<!-- Node1&#45;&gt;Node2 -->
<g id="edge2" class="edge"><title>Node1&#45;&gt;Node2</title>
<path fill="none" stroke="midnightblue" d="M85.5926,-56.324C74.8912,-48.1849 58.6593,-35.8395 45.8372,-26.0874"/>
<polygon fill="midnightblue" stroke="midnightblue" points="47.6932,-23.1018 37.6149,-19.8339 43.4556,-28.6734 47.6932,-23.1018"/>
</g>
<!-- Node3 -->
<g id="node5" class="node"><title>Node3</title>
<polygon fill="white" stroke="#bfbfbf" points="70,-0.5 70,-19.5 124,-19.5 124,-0.5 70,-0.5"/>
<text text-anchor="middle" x="97" y="-7.5" font-family="Helvetica,sans-Serif" font-size="10.00">iostream</text>
</g>
<!-- Node1&#45;&gt;Node3 -->
<g id="edge4" class="edge"><title>Node1&#45;&gt;Node3</title>
<path fill="none" stroke="midnightblue" d="M97,-56.083C97,-49.0059 97,-38.8611 97,-29.9865"/>
<polygon fill="midnightblue" stroke="midnightblue" points="100.5,-29.751 97,-19.7511 93.5001,-29.7511 100.5,-29.751"/>
</g>
<!-- Node4 -->
<g id="node7" class="node"><title>Node4</title>
<polygon fill="white" stroke="#bfbfbf" points="142,-0.5 142,-19.5 192,-19.5 192,-0.5 142,-0.5"/>
<text text-anchor="middle" x="167" y="-7.5" font-family="Helvetica,sans-Serif" font-size="10.00">fstream</text>
</g>
<!-- Node1&#45;&gt;Node4 -->
<g id="edge6" class="edge"><title>Node1&#45;&gt;Node4</title>
<path fill="none" stroke="midnightblue" d="M108.247,-56.324C118.797,-48.1849 134.801,-35.8395 147.442,-26.0874"/>
<polygon fill="midnightblue" stroke="midnightblue" points="149.769,-28.7132 155.549,-19.8339 145.493,-23.1707 149.769,-28.7132"/>
</g>
</g>
</svg>
