<?xml version="1.0" encoding="UTF-8" standalone="no"?>
<!DOCTYPE svg PUBLIC "-//W3C//DTD SVG 1.1//EN"
 "http://www.w3.org/Graphics/SVG/1.1/DTD/svg11.dtd">
<!-- Generated by graphviz version 2.28.0 (20111025.1818)
 -->
<!-- Title: G Pages: 1 -->
<svg width="308pt" height="386pt"
 viewBox="0.00 0.00 308.00 386.00" xmlns="http://www.w3.org/2000/svg" xmlns:xlink="http://www.w3.org/1999/xlink">
<g id="graph1" class="graph" transform="scale(1 1) rotate(0) translate(4 382)">
<title>G</title>
<polygon fill="white" stroke="white" points="-4,5 -4,-382 305,-382 305,5 -4,5"/>
<!-- Node1 -->
<g id="node1" class="node"><title>Node1</title>
<polygon fill="#bfbfbf" stroke="black" points="59,-0.5 59,-19.5 105,-19.5 105,-0.5 59,-0.5"/>
<text text-anchor="middle" x="82" y="-7.5" font-family="Helvetica,sans-Serif" font-size="10.00">cMMU</text>
</g>
<!-- Node2 -->
<g id="node2" class="node"><title>Node2</title>
<a xlink:href="../../db/d4b/structsPTE.xhtml" target="_top" xlink:title="A struct representing a single page table entry.">
<polygon fill="white" stroke="black" points="-0.5,-68.5 -0.5,-87.5 40.5,-87.5 40.5,-68.5 -0.5,-68.5"/>
<text text-anchor="middle" x="20" y="-75.5" font-family="Helvetica,sans-Serif" font-size="10.00">sPTE</text>
</a>
</g>
<!-- Node2&#45;&gt;Node1 -->
<g id="edge2" class="edge"><title>Node2&#45;&gt;Node1</title>
<path fill="none" stroke="#9a32cd" stroke-dasharray="5,2" d="M34.9858,-61.0474C47.138,-48.1111 63.8164,-30.3567 73.6947,-19.8411"/>
<polygon fill="#9a32cd" stroke="#9a32cd" points="32.4012,-58.6868 28.1054,-68.3717 37.5032,-63.4795 32.4012,-58.6868"/>
<text text-anchor="middle" x="67" y="-41.5" font-family="Helvetica,sans-Serif" font-size="10.00"> ptbr</text>
</g>
<!-- Node3 -->
<g id="node4" class="node"><title>Node3</title>
<a xlink:href="../../d2/deb/structsTLBE.xhtml" target="_top" xlink:title="sTLBE">
<polygon fill="white" stroke="black" points="58.5,-68.5 58.5,-87.5 105.5,-87.5 105.5,-68.5 58.5,-68.5"/>
<text text-anchor="middle" x="82" y="-75.5" font-family="Helvetica,sans-Serif" font-size="10.00">sTLBE</text>
</a>
</g>
<!-- Node3&#45;&gt;Node1 -->
<g id="edge4" class="edge"><title>Node3&#45;&gt;Node1</title>
<path fill="none" stroke="#9a32cd" stroke-dasharray="5,2" d="M82,-58.0413C82,-45.4724 82,-29.5631 82,-19.8411"/>
<polygon fill="#9a32cd" stroke="#9a32cd" points="78.5001,-58.3716 82,-68.3717 85.5001,-58.3717 78.5001,-58.3716"/>
<text text-anchor="middle" x="93" y="-41.5" font-family="Helvetica,sans-Serif" font-size="10.00"> TLB</text>
</g>
<!-- Node4 -->
<g id="node6" class="node"><title>Node4</title>
<a xlink:title="STL class.">
<polygon fill="white" stroke="#bfbfbf" points="124,-68.5 124,-87.5 214,-87.5 214,-68.5 124,-68.5"/>
<text text-anchor="middle" x="169" y="-75.5" font-family="Helvetica,sans-Serif" font-size="10.00">std::stringstream</text>
</a>
</g>
<!-- Node4&#45;&gt;Node1 -->
<g id="edge6" class="edge"><title>Node4&#45;&gt;Node1</title>
<path fill="none" stroke="#9a32cd" stroke-dasharray="5,2" d="M149.354,-62.0961C132.092,-49.0012 107.576,-30.4028 93.3765,-19.6305"/>
<polygon fill="#9a32cd" stroke="#9a32cd" points="147.544,-65.1162 157.626,-68.3717 151.775,-59.5393 147.544,-65.1162"/>
<text text-anchor="middle" x="150" y="-41.5" font-family="Helvetica,sans-Serif" font-size="10.00"> ssAddr</text>
</g>
<!-- Node5 -->
<g id="node8" class="node"><title>Node5</title>
<a xlink:title="STL class.">
<polygon fill="white" stroke="#bfbfbf" points="91.5,-126.5 91.5,-145.5 246.5,-145.5 246.5,-126.5 91.5,-126.5"/>
<text text-anchor="middle" x="169" y="-133.5" font-family="Helvetica,sans-Serif" font-size="10.00">std::basic_stringstream&lt; char &gt;</text>
</a>
</g>
<!-- Node5&#45;&gt;Node4 -->
<g id="edge8" class="edge"><title>Node5&#45;&gt;Node4</title>
<path fill="none" stroke="midnightblue" d="M169,-115.953C169,-106.287 169,-95.0312 169,-87.5052"/>
<polygon fill="midnightblue" stroke="midnightblue" points="165.5,-116.25 169,-126.25 172.5,-116.25 165.5,-116.25"/>
</g>
<!-- Node6 -->
<g id="node10" class="node"><title>Node6</title>
<a xlink:title="STL class.">
<polygon fill="white" stroke="#bfbfbf" points="98.5,-184.5 98.5,-203.5 239.5,-203.5 239.5,-184.5 98.5,-184.5"/>
<text text-anchor="middle" x="169" y="-191.5" font-family="Helvetica,sans-Serif" font-size="10.00">std::basic_iostream&lt; Char &gt;</text>
</a>
</g>
<!-- Node6&#45;&gt;Node5 -->
<g id="edge10" class="edge"><title>Node6&#45;&gt;Node5</title>
<path fill="none" stroke="midnightblue" d="M169,-173.953C169,-164.287 169,-153.031 169,-145.505"/>
<polygon fill="midnightblue" stroke="midnightblue" points="165.5,-174.25 169,-184.25 172.5,-174.25 165.5,-174.25"/>
</g>
<!-- Node7 -->
<g id="node12" class="node"><title>Node7</title>
<a xlink:title="STL class.">
<polygon fill="white" stroke="#bfbfbf" points="7,-242.5 7,-261.5 143,-261.5 143,-242.5 7,-242.5"/>
<text text-anchor="middle" x="75" y="-249.5" font-family="Helvetica,sans-Serif" font-size="10.00">std::basic_istream&lt; Char &gt;</text>
</a>
</g>
<!-- Node7&#45;&gt;Node6 -->
<g id="edge12" class="edge"><title>Node7&#45;&gt;Node6</title>
<path fill="none" stroke="midnightblue" d="M97.8739,-237.373C115.557,-226.838 139.491,-212.58 154.589,-203.585"/>
<polygon fill="midnightblue" stroke="midnightblue" points="96.0763,-234.37 89.2766,-242.495 99.6589,-240.384 96.0763,-234.37"/>
</g>
<!-- Node8 -->
<g id="node14" class="node"><title>Node8</title>
<a xlink:title="STL class.">
<polygon fill="white" stroke="#bfbfbf" points="62,-300.5 62,-319.5 178,-319.5 178,-300.5 62,-300.5"/>
<text text-anchor="middle" x="120" y="-307.5" font-family="Helvetica,sans-Serif" font-size="10.00">std::basic_ios&lt; Char &gt;</text>
</a>
</g>
<!-- Node8&#45;&gt;Node7 -->
<g id="edge14" class="edge"><title>Node8&#45;&gt;Node7</title>
<path fill="none" stroke="midnightblue" d="M106.689,-292.435C98.5232,-282.273 88.4081,-269.686 81.8345,-261.505"/>
<polygon fill="midnightblue" stroke="midnightblue" points="103.977,-294.647 112.969,-300.25 109.433,-290.263 103.977,-294.647"/>
</g>
<!-- Node10 -->
<g id="node18" class="node"><title>Node10</title>
<a xlink:title="STL class.">
<polygon fill="white" stroke="#bfbfbf" points="161.5,-242.5 161.5,-261.5 300.5,-261.5 300.5,-242.5 161.5,-242.5"/>
<text text-anchor="middle" x="231" y="-249.5" font-family="Helvetica,sans-Serif" font-size="10.00">std::basic_ostream&lt; Char &gt;</text>
</a>
</g>
<!-- Node8&#45;&gt;Node10 -->
<g id="edge20" class="edge"><title>Node8&#45;&gt;Node10</title>
<path fill="none" stroke="midnightblue" d="M145.869,-295.949C166.851,-285.363 195.827,-270.745 213.983,-261.585"/>
<polygon fill="midnightblue" stroke="midnightblue" points="144.21,-292.866 136.859,-300.495 147.363,-299.115 144.21,-292.866"/>
</g>
<!-- Node9 -->
<g id="node16" class="node"><title>Node9</title>
<a xlink:title="STL class.">
<polygon fill="white" stroke="#bfbfbf" points="82.5,-358.5 82.5,-377.5 157.5,-377.5 157.5,-358.5 82.5,-358.5"/>
<text text-anchor="middle" x="120" y="-365.5" font-family="Helvetica,sans-Serif" font-size="10.00">std::ios_base</text>
</a>
</g>
<!-- Node9&#45;&gt;Node8 -->
<g id="edge16" class="edge"><title>Node9&#45;&gt;Node8</title>
<path fill="none" stroke="midnightblue" d="M120,-347.953C120,-338.287 120,-327.031 120,-319.505"/>
<polygon fill="midnightblue" stroke="midnightblue" points="116.5,-348.25 120,-358.25 123.5,-348.25 116.5,-348.25"/>
</g>
<!-- Node10&#45;&gt;Node6 -->
<g id="edge18" class="edge"><title>Node10&#45;&gt;Node6</title>
<path fill="none" stroke="midnightblue" d="M213.951,-235.601C202.529,-225.285 187.915,-212.085 178.505,-203.585"/>
<polygon fill="midnightblue" stroke="midnightblue" points="211.816,-238.389 221.584,-242.495 216.508,-233.195 211.816,-238.389"/>
</g>
</g>
</svg>
