<?xml version="1.0" encoding="UTF-8" standalone="no"?>
<!DOCTYPE svg PUBLIC "-//W3C//DTD SVG 1.1//EN"
 "http://www.w3.org/Graphics/SVG/1.1/DTD/svg11.dtd">
<!-- Generated by graphviz version 2.28.0 (20111025.1818)
 -->
<!-- Title: G Pages: 1 -->
<!--zoomable 252 -->
<svg id="main" version="1.1" xmlns="http://www.w3.org/2000/svg" xmlns:xlink="http://www.w3.org/1999/xlink" xml:space="preserve" onload="init(evt)">
        <defs>
                <circle id="rim" cx="0" cy="0" r="7"/>
                <circle id="rim2" cx="0" cy="0" r="3.5"/>
                <g id="zoomPlus">
                        <use xlink:href="#rim" fill="#404040">
                                <set attributeName="fill" to="#808080" begin="zoomplus.mouseover" end="zoomplus.mouseout"/>
                        </use>
                        <path d="M-4,0h8M0,-4v8" fill="none" stroke="white" stroke-width="1.5" pointer-events="none"/>
                </g>
                <g id="zoomMin">
                        <use xlink:href="#rim" fill="#404040">
                                <set attributeName="fill" to="#808080" begin="zoomminus.mouseover" end="zoomminus.mouseout"/>
                        </use>
                        <path d="M-4,0h8" fill="none" stroke="white" stroke-width="1.5" pointer-events="none"/>
                </g>
                <g id="dirArrow">
                        <path fill="none" stroke="white" stroke-width="1.5" d="M0,-3.0v7 M-2.5,-0.5L0,-3.0L2.5,-0.5"/>
                </g>
               <g id="resetDef">
                       <use xlink:href="#rim2" fill="#404040">
                               <set attributeName="fill" to="#808080" begin="reset.mouseover" end="reset.mouseout"/>
                       </use>
               </g>
        </defs>

<script type="text/javascript">
var viewWidth = 764;
var viewHeight = 252;
var sectionId = 'dynsection-1';
</script>
<script xlink:href="../../svgpan.js"/>
<svg id="graph" class="graph">
<g id="viewport">
<title>G</title>
<polygon fill="white" stroke="white" points="-4,5 -4,-248 761.269,-248 761.269,5 -4,5"/>
<!-- Node1 -->
<g id="node1" class="node"><title>Node1</title>
<polygon fill="#bfbfbf" stroke="black" points="254.515,-224.5 254.515,-243.5 365.515,-243.5 365.515,-224.5 254.515,-224.5"/>
<text text-anchor="middle" x="310.015" y="-231.5" font-family="Helvetica,sans-Serif" font-size="10.00">include/utility/logger.h</text>
</g>
<!-- Node2 -->
<g id="node3" class="node"><title>Node2</title>
<a xlink:href="../../dc/da7/cpu_8h.xhtml" target="_top" xlink:title="include/cpu.h">
<polygon fill="white" stroke="black" points="447.015,-168.5 447.015,-187.5 521.015,-187.5 521.015,-168.5 447.015,-168.5"/>
<text text-anchor="middle" x="484.015" y="-175.5" font-family="Helvetica,sans-Serif" font-size="10.00">include/cpu.h</text>
</a>
</g>
<!-- Node1&#45;&gt;Node2 -->
<g id="edge2" class="edge"><title>Node1&#45;&gt;Node2</title>
<path fill="none" stroke="midnightblue" d="M347.276,-221.436C380.082,-211.255 427.098,-196.664 456.573,-187.516"/>
<polygon fill="midnightblue" stroke="midnightblue" points="346.099,-218.137 337.586,-224.444 348.174,-224.822 346.099,-218.137"/>
</g>
<!-- Node5 -->
<g id="node11" class="node"><title>Node5</title>
<a xlink:href="../../d4/dbf/main_8h_source.xhtml" target="_top" xlink:title="include/main.h">
<polygon fill="white" stroke="black" points="169.015,-0.5 169.015,-19.5 249.015,-19.5 249.015,-0.5 169.015,-0.5"/>
<text text-anchor="middle" x="209.015" y="-7.5" font-family="Helvetica,sans-Serif" font-size="10.00">include/main.h</text>
</a>
</g>
<!-- Node1&#45;&gt;Node5 -->
<g id="edge50" class="edge"><title>Node1&#45;&gt;Node5</title>
<path fill="none" stroke="midnightblue" d="M243.974,-231.532C172.094,-228.375 63.9089,-218.53 38.0151,-188 12.4279,-157.832 -44.2944,-172.811 65.0151,-56 91.7702,-27.4086 136.386,-16.8644 168.877,-13.0395"/>
<polygon fill="midnightblue" stroke="midnightblue" points="244.168,-235.043 254.302,-231.951 244.452,-228.049 244.168,-235.043"/>
</g>
<!-- Node10 -->
<g id="node26" class="node"><title>Node10</title>
<a xlink:href="../../d9/dd2/round__robin_8h.xhtml" target="_top" xlink:title="include/round_robin.h">
<polygon fill="white" stroke="black" points="47.5151,-168.5 47.5151,-187.5 156.515,-187.5 156.515,-168.5 47.5151,-168.5"/>
<text text-anchor="middle" x="102.015" y="-175.5" font-family="Helvetica,sans-Serif" font-size="10.00">include/round_robin.h</text>
</a>
</g>
<!-- Node1&#45;&gt;Node10 -->
<g id="edge32" class="edge"><title>Node1&#45;&gt;Node10</title>
<path fill="none" stroke="midnightblue" d="M267.237,-221.894C227.957,-211.697 170.586,-196.802 134.819,-187.516"/>
<polygon fill="midnightblue" stroke="midnightblue" points="266.498,-225.318 277.057,-224.444 268.257,-218.543 266.498,-225.318"/>
</g>
<!-- Node11 -->
<g id="node29" class="node"><title>Node11</title>
<a xlink:href="../../d7/d62/io__control_8h_source.xhtml" target="_top" xlink:title="include/io_control.h">
<polygon fill="white" stroke="black" points="327.515,-168.5 327.515,-187.5 428.515,-187.5 428.515,-168.5 327.515,-168.5"/>
<text text-anchor="middle" x="378.015" y="-175.5" font-family="Helvetica,sans-Serif" font-size="10.00">include/io_control.h</text>
</a>
</g>
<!-- Node1&#45;&gt;Node11 -->
<g id="edge36" class="edge"><title>Node1&#45;&gt;Node11</title>
<path fill="none" stroke="midnightblue" d="M328.777,-218.101C341.015,-208.382 356.574,-196.027 366.891,-187.834"/>
<polygon fill="midnightblue" stroke="midnightblue" points="326.595,-215.364 320.94,-224.324 330.948,-220.846 326.595,-215.364"/>
</g>
<!-- Node12 -->
<g id="node32" class="node"><title>Node12</title>
<a xlink:href="../../dc/dff/frameAlloc_8h_source.xhtml" target="_top" xlink:title="include/Policy/frameAlloc.h">
<polygon fill="white" stroke="black" points="174.515,-168.5 174.515,-187.5 309.515,-187.5 309.515,-168.5 174.515,-168.5"/>
<text text-anchor="middle" x="242.015" y="-175.5" font-family="Helvetica,sans-Serif" font-size="10.00">include/Policy/frameAlloc.h</text>
</a>
</g>
<!-- Node1&#45;&gt;Node12 -->
<g id="edge40" class="edge"><title>Node1&#45;&gt;Node12</title>
<path fill="none" stroke="midnightblue" d="M291.253,-218.101C279.015,-208.382 263.456,-196.027 253.139,-187.834"/>
<polygon fill="midnightblue" stroke="midnightblue" points="289.082,-220.846 299.09,-224.324 293.435,-215.364 289.082,-220.846"/>
</g>
<!-- Node13 -->
<g id="node36" class="node"><title>Node13</title>
<a xlink:href="../../d3/d2c/pageReplace_8h.xhtml" target="_top" xlink:title="include/Policy/pageReplace.h">
<polygon fill="white" stroke="black" points="476.015,-112.5 476.015,-131.5 622.015,-131.5 622.015,-112.5 476.015,-112.5"/>
<text text-anchor="middle" x="549.015" y="-119.5" font-family="Helvetica,sans-Serif" font-size="10.00">include/Policy/pageReplace.h</text>
</a>
</g>
<!-- Node1&#45;&gt;Node13 -->
<g id="edge52" class="edge"><title>Node1&#45;&gt;Node13</title>
<path fill="none" stroke="midnightblue" d="M375.663,-227.033C432.108,-220.598 507.828,-208.426 530.015,-188 546.103,-173.189 548.843,-145.587 549.139,-131.6"/>
<polygon fill="midnightblue" stroke="midnightblue" points="375.276,-223.555 365.72,-228.131 376.044,-230.513 375.276,-223.555"/>
</g>
<!-- Node3 -->
<g id="node5" class="node"><title>Node3</title>
<a xlink:href="../../d4/d9a/vmm__core_8h.xhtml" target="_top" xlink:title="include/vmm_core.h">
<polygon fill="white" stroke="black" points="312.015,-112.5 312.015,-131.5 416.015,-131.5 416.015,-112.5 312.015,-112.5"/>
<text text-anchor="middle" x="364.015" y="-119.5" font-family="Helvetica,sans-Serif" font-size="10.00">include/vmm_core.h</text>
</a>
</g>
<!-- Node2&#45;&gt;Node3 -->
<g id="edge4" class="edge"><title>Node2&#45;&gt;Node3</title>
<path fill="none" stroke="midnightblue" d="M450.447,-164.503C426.474,-154.38 395.621,-140.388 377.86,-131.516"/>
<polygon fill="midnightblue" stroke="midnightblue" points="449.335,-167.831 459.912,-168.444 452.025,-161.369 449.335,-167.831"/>
</g>
<!-- Node3&#45;&gt;Node2 -->
<g id="edge6" class="edge"><title>Node3&#45;&gt;Node2</title>
<path fill="none" stroke="midnightblue" d="M397.763,-135.573C421.567,-145.63 452.086,-159.467 469.85,-168.324"/>
<polygon fill="midnightblue" stroke="midnightblue" points="398.934,-132.27 388.357,-131.655 396.242,-138.731 398.934,-132.27"/>
</g>
<!-- Node4 -->
<g id="node8" class="node"><title>Node4</title>
<a xlink:href="../../de/d7e/cleaningDaemon_8h_source.xhtml" target="_top" xlink:title="include/Policy/cleaningDaemon.h">
<polygon fill="white" stroke="black" points="74.5151,-56.5 74.5151,-75.5 235.515,-75.5 235.515,-56.5 74.5151,-56.5"/>
<text text-anchor="middle" x="155.015" y="-63.5" font-family="Helvetica,sans-Serif" font-size="10.00">include/Policy/cleaningDaemon.h</text>
</a>
</g>
<!-- Node3&#45;&gt;Node4 -->
<g id="edge8" class="edge"><title>Node3&#45;&gt;Node4</title>
<path fill="none" stroke="midnightblue" d="M315.976,-110.024C274.759,-99.8232 216.934,-84.8414 182.897,-75.5164"/>
<polygon fill="midnightblue" stroke="midnightblue" points="315.263,-113.453 325.81,-112.444 316.936,-106.655 315.263,-113.453"/>
</g>
<!-- Node3&#45;&gt;Node5 -->
<g id="edge14" class="edge"><title>Node3&#45;&gt;Node5</title>
<path fill="none" stroke="midnightblue" d="M337.039,-107.861C320.859,-99.5349 300.163,-88.0851 283.015,-76 257.577,-58.0718 230.907,-32.7822 217.613,-19.6596"/>
<polygon fill="midnightblue" stroke="midnightblue" points="335.479,-110.994 345.982,-112.383 338.638,-104.747 335.479,-110.994"/>
</g>
<!-- Node6 -->
<g id="node14" class="node"><title>Node6</title>
<a xlink:href="../../d3/ded/pr__fifo_8h_source.xhtml" target="_top" xlink:title="include/Policy/pr_fifo.h">
<polygon fill="white" stroke="black" points="292.015,-56.5 292.015,-75.5 408.015,-75.5 408.015,-56.5 292.015,-56.5"/>
<text text-anchor="middle" x="350.015" y="-63.5" font-family="Helvetica,sans-Serif" font-size="10.00">include/Policy/pr_fifo.h</text>
</a>
</g>
<!-- Node3&#45;&gt;Node6 -->
<g id="edge16" class="edge"><title>Node3&#45;&gt;Node6</title>
<path fill="none" stroke="midnightblue" d="M359.192,-102.396C356.85,-93.362 354.147,-82.936 352.284,-75.7511"/>
<polygon fill="midnightblue" stroke="midnightblue" points="355.806,-103.281 361.703,-112.083 362.582,-101.525 355.806,-103.281"/>
</g>
<!-- Node8 -->
<g id="node20" class="node"><title>Node8</title>
<a xlink:href="../../db/d16/pr__lru_8h_source.xhtml" target="_top" xlink:title="include/Policy/pr_lru.h">
<polygon fill="white" stroke="black" points="464.515,-56.5 464.515,-75.5 577.515,-75.5 577.515,-56.5 464.515,-56.5"/>
<text text-anchor="middle" x="521.015" y="-63.5" font-family="Helvetica,sans-Serif" font-size="10.00">include/Policy/pr_lru.h</text>
</a>
</g>
<!-- Node3&#45;&gt;Node8 -->
<g id="edge24" class="edge"><title>Node3&#45;&gt;Node8</title>
<path fill="none" stroke="midnightblue" d="M398.404,-109.172C427.967,-99.0039 469.888,-84.5852 496.254,-75.5164"/>
<polygon fill="midnightblue" stroke="midnightblue" points="397.21,-105.881 388.892,-112.444 399.487,-112.501 397.21,-105.881"/>
</g>
<!-- Node9 -->
<g id="node23" class="node"><title>Node9</title>
<a xlink:href="../../d6/d53/pr__lruApprox_8h_source.xhtml" target="_top" xlink:title="include/Policy/pr_lruApprox.h">
<polygon fill="white" stroke="black" points="595.515,-56.5 595.515,-75.5 738.515,-75.5 738.515,-56.5 595.515,-56.5"/>
<text text-anchor="middle" x="667.015" y="-63.5" font-family="Helvetica,sans-Serif" font-size="10.00">include/Policy/pr_lruApprox.h</text>
</a>
</g>
<!-- Node3&#45;&gt;Node9 -->
<g id="edge28" class="edge"><title>Node3&#45;&gt;Node9</title>
<path fill="none" stroke="midnightblue" d="M422.01,-110.664C479.272,-100.459 565.799,-85.0386 619.228,-75.5164"/>
<polygon fill="midnightblue" stroke="midnightblue" points="421.257,-107.243 412.026,-112.444 422.485,-114.135 421.257,-107.243"/>
</g>
<!-- Node4&#45;&gt;Node3 -->
<g id="edge10" class="edge"><title>Node4&#45;&gt;Node3</title>
<path fill="none" stroke="midnightblue" d="M202.878,-77.9326C244.046,-88.1194 301.882,-103.102 335.987,-112.444"/>
<polygon fill="midnightblue" stroke="midnightblue" points="203.603,-74.5068 193.057,-75.5164 201.931,-81.3041 203.603,-74.5068"/>
</g>
<!-- Node4&#45;&gt;Node5 -->
<g id="edge12" class="edge"><title>Node4&#45;&gt;Node5</title>
<path fill="none" stroke="midnightblue" d="M171.013,-49.0024C180.582,-39.4329 192.376,-27.6389 200.264,-19.7511"/>
<polygon fill="midnightblue" stroke="midnightblue" points="168.528,-46.537 163.932,-56.083 173.478,-51.4868 168.528,-46.537"/>
</g>
<!-- Node6&#45;&gt;Node5 -->
<g id="edge22" class="edge"><title>Node6&#45;&gt;Node5</title>
<path fill="none" stroke="midnightblue" d="M318.086,-52.772C291.601,-42.6287 254.623,-28.4669 231.252,-19.5164"/>
<polygon fill="midnightblue" stroke="midnightblue" points="317.083,-56.1355 327.673,-56.4435 319.586,-49.5985 317.083,-56.1355"/>
</g>
<!-- Node7 -->
<g id="node16" class="node"><title>Node7</title>
<a xlink:href="../../d1/df8/allPR_8h_source.xhtml" target="_top" xlink:title="include/Policy/allPR.h">
<polygon fill="white" stroke="black" points="464.515,-0.5 464.515,-19.5 577.515,-19.5 577.515,-0.5 464.515,-0.5"/>
<text text-anchor="middle" x="521.015" y="-7.5" font-family="Helvetica,sans-Serif" font-size="10.00">include/Policy/allPR.h</text>
</a>
</g>
<!-- Node6&#45;&gt;Node7 -->
<g id="edge18" class="edge"><title>Node6&#45;&gt;Node7</title>
<path fill="none" stroke="midnightblue" d="M387.051,-53.3044C419.272,-43.1294 465.204,-28.6246 494.046,-19.5164"/>
<polygon fill="midnightblue" stroke="midnightblue" points="385.592,-50.0946 377.111,-56.4435 387.7,-56.7697 385.592,-50.0946"/>
</g>
<!-- Node7&#45;&gt;Node3 -->
<g id="edge20" class="edge"><title>Node7&#45;&gt;Node3</title>
<path fill="none" stroke="midnightblue" d="M500.016,-25.1466C487.008,-33.9524 469.984,-45.5528 455.015,-56 426.517,-75.8898 393.381,-99.7439 376.026,-112.294"/>
<polygon fill="midnightblue" stroke="midnightblue" points="501.98,-28.0439 508.306,-19.5452 498.061,-22.2439 501.98,-28.0439"/>
</g>
<!-- Node8&#45;&gt;Node7 -->
<g id="edge26" class="edge"><title>Node8&#45;&gt;Node7</title>
<path fill="none" stroke="midnightblue" d="M521.015,-45.8045C521.015,-36.9102 521.015,-26.7798 521.015,-19.7511"/>
<polygon fill="midnightblue" stroke="midnightblue" points="517.515,-46.083 521.015,-56.083 524.515,-46.083 517.515,-46.083"/>
</g>
<!-- Node9&#45;&gt;Node7 -->
<g id="edge30" class="edge"><title>Node9&#45;&gt;Node7</title>
<path fill="none" stroke="midnightblue" d="M634.316,-52.9058C606.867,-42.7536 568.347,-28.5063 544.041,-19.5164"/>
<polygon fill="midnightblue" stroke="midnightblue" points="633.288,-56.2572 643.881,-56.4435 635.716,-49.6919 633.288,-56.2572"/>
</g>
<!-- Node10&#45;&gt;Node3 -->
<g id="edge34" class="edge"><title>Node10&#45;&gt;Node3</title>
<path fill="none" stroke="midnightblue" d="M153.398,-166.41C202.913,-156.204 276.877,-140.96 322.695,-131.516"/>
<polygon fill="midnightblue" stroke="midnightblue" points="152.617,-162.997 143.53,-168.444 154.03,-169.853 152.617,-162.997"/>
</g>
<!-- Node11&#45;&gt;Node3 -->
<g id="edge38" class="edge"><title>Node11&#45;&gt;Node3</title>
<path fill="none" stroke="midnightblue" d="M373.192,-158.396C370.85,-149.362 368.147,-138.936 366.284,-131.751"/>
<polygon fill="midnightblue" stroke="midnightblue" points="369.806,-159.281 375.703,-168.083 376.582,-157.525 369.806,-159.281"/>
</g>
<!-- Node12&#45;&gt;Node3 -->
<g id="edge42" class="edge"><title>Node12&#45;&gt;Node3</title>
<path fill="none" stroke="midnightblue" d="M270.555,-164.368C293.401,-154.255 324.82,-140.349 344.774,-131.516"/>
<polygon fill="midnightblue" stroke="midnightblue" points="269.074,-161.196 261.346,-168.444 271.907,-167.597 269.074,-161.196"/>
</g>
<!-- Node12&#45;&gt;Node4 -->
<g id="edge44" class="edge"><title>Node12&#45;&gt;Node4</title>
<path fill="none" stroke="midnightblue" d="M228.785,-160.272C209.979,-136.494 176.203,-93.7889 161.81,-75.5914"/>
<polygon fill="midnightblue" stroke="midnightblue" points="226.24,-162.696 235.188,-168.368 231.73,-158.354 226.24,-162.696"/>
</g>
<!-- Node12&#45;&gt;Node13 -->
<g id="edge46" class="edge"><title>Node12&#45;&gt;Node13</title>
<path fill="none" stroke="midnightblue" d="M300.776,-166.664C358.794,-156.459 446.462,-141.039 500.598,-131.516"/>
<polygon fill="midnightblue" stroke="midnightblue" points="299.903,-163.264 290.66,-168.444 301.115,-170.158 299.903,-163.264"/>
</g>
<!-- Node13&#45;&gt;Node7 -->
<g id="edge48" class="edge"><title>Node13&#45;&gt;Node7</title>
<path fill="none" stroke="midnightblue" d="M632.339,-118.974C701.382,-114.239 782.833,-99.6535 747.015,-56 725.984,-30.3686 637.446,-19.0636 577.634,-14.2783"/>
<polygon fill="midnightblue" stroke="midnightblue" points="632.02,-115.487 622.258,-119.604 632.456,-122.474 632.02,-115.487"/>
</g>
</g>
</svg>
        <g id="navigator" transform="translate(0 0)" fill="#404254">
                <rect fill="#f2f5e9" fill-opacity="0.5" stroke="#606060" stroke-width=".5" x="0" y="0" width="60" height="60"/>
                <use id="zoomplus" xlink:href="#zoomPlus" x="17" y="9" onmousedown="handleZoom(evt,'in')"/>
                <use id="zoomminus" xlink:href="#zoomMin" x="42" y="9" onmousedown="handleZoom(evt,'out')"/>
                <use id="reset" xlink:href="#resetDef" x="30" y="36" onmousedown="handleReset()"/>
                <g id="arrowUp" xlink:href="#dirArrow" transform="translate(30 24)" onmousedown="handlePan(0,-1)">
                  <use xlink:href="#rim" fill="#404040">
                        <set attributeName="fill" to="#808080" begin="arrowUp.mouseover" end="arrowUp.mouseout"/>
                  </use>
                  <path fill="none" stroke="white" stroke-width="1.5" d="M0,-3.0v7 M-2.5,-0.5L0,-3.0L2.5,-0.5"/>
                </g>
                <g id="arrowRight" xlink:href="#dirArrow" transform="rotate(90) translate(36 -43)" onmousedown="handlePan(1,0)">
                  <use xlink:href="#rim" fill="#404040">
                        <set attributeName="fill" to="#808080" begin="arrowRight.mouseover" end="arrowRight.mouseout"/>
                  </use>
                  <path fill="none" stroke="white" stroke-width="1.5" d="M0,-3.0v7 M-2.5,-0.5L0,-3.0L2.5,-0.5"/>
                </g>
                <g id="arrowDown" xlink:href="#dirArrow" transform="rotate(180) translate(-30 -48)" onmousedown="handlePan(0,1)">
                  <use xlink:href="#rim" fill="#404040">
                        <set attributeName="fill" to="#808080" begin="arrowDown.mouseover" end="arrowDown.mouseout"/>
                  </use>
                  <path fill="none" stroke="white" stroke-width="1.5" d="M0,-3.0v7 M-2.5,-0.5L0,-3.0L2.5,-0.5"/>
                </g>
                <g id="arrowLeft" xlink:href="#dirArrow" transform="rotate(270) translate(-36 17)" onmousedown="handlePan(-1,0)">
                  <use xlink:href="#rim" fill="#404040">
                        <set attributeName="fill" to="#808080" begin="arrowLeft.mouseover" end="arrowLeft.mouseout"/>
                  </use>
                  <path fill="none" stroke="white" stroke-width="1.5" d="M0,-3.0v7 M-2.5,-0.5L0,-3.0L2.5,-0.5"/>
                </g>
        </g>
</svg>
