<?xml version="1.0" encoding="UTF-8" standalone="no"?>
<!DOCTYPE svg PUBLIC "-//W3C//DTD SVG 1.1//EN"
 "http://www.w3.org/Graphics/SVG/1.1/DTD/svg11.dtd">
<!-- Generated by graphviz version 2.28.0 (20111025.1818)
 -->
<!-- Title: G Pages: 1 -->
<!--zoomable 140 -->
<svg id="main" version="1.1" xmlns="http://www.w3.org/2000/svg" xmlns:xlink="http://www.w3.org/1999/xlink" xml:space="preserve" onload="init(evt)">
        <defs>
                <circle id="rim" cx="0" cy="0" r="7"/>
                <circle id="rim2" cx="0" cy="0" r="3.5"/>
                <g id="zoomPlus">
                        <use xlink:href="#rim" fill="#404040">
                                <set attributeName="fill" to="#808080" begin="zoomplus.mouseover" end="zoomplus.mouseout"/>
                        </use>
                        <path d="M-4,0h8M0,-4v8" fill="none" stroke="white" stroke-width="1.5" pointer-events="none"/>
                </g>
                <g id="zoomMin">
                        <use xlink:href="#rim" fill="#404040">
                                <set attributeName="fill" to="#808080" begin="zoomminus.mouseover" end="zoomminus.mouseout"/>
                        </use>
                        <path d="M-4,0h8" fill="none" stroke="white" stroke-width="1.5" pointer-events="none"/>
                </g>
                <g id="dirArrow">
                        <path fill="none" stroke="white" stroke-width="1.5" d="M0,-3.0v7 M-2.5,-0.5L0,-3.0L2.5,-0.5"/>
                </g>
               <g id="resetDef">
                       <use xlink:href="#rim2" fill="#404040">
                               <set attributeName="fill" to="#808080" begin="reset.mouseover" end="reset.mouseout"/>
                       </use>
               </g>
        </defs>

<script type="text/javascript">
var viewWidth = 557;
var viewHeight = 140;
var sectionId = 'dynsection-0';
</script>
<script xlink:href="../../svgpan.js"/>
<svg id="graph" class="graph">
<g id="viewport">
<title>G</title>
<polygon fill="white" stroke="white" points="-4,5 -4,-136 554,-136 554,5 -4,5"/>
<!-- Node1 -->
<g id="node1" class="node"><title>Node1</title>
<polygon fill="#bfbfbf" stroke="black" points="104,-112.5 104,-131.5 184,-131.5 184,-112.5 104,-112.5"/>
<text text-anchor="middle" x="144" y="-119.5" font-family="Helvetica,sans-Serif" font-size="10.00">include/mmu.h</text>
</g>
<!-- Node2 -->
<g id="node3" class="node"><title>Node2</title>
<polygon fill="white" stroke="#bfbfbf" points="-0.5,-56.5 -0.5,-75.5 48.5,-75.5 48.5,-56.5 -0.5,-56.5"/>
<text text-anchor="middle" x="24" y="-63.5" font-family="Helvetica,sans-Serif" font-size="10.00">cassert</text>
</g>
<!-- Node1&#45;&gt;Node2 -->
<g id="edge2" class="edge"><title>Node1&#45;&gt;Node2</title>
<path fill="none" stroke="midnightblue" d="M124.986,-112.444C105.412,-103.636 74.6924,-89.8116 52.2711,-79.722"/>
<polygon fill="midnightblue" stroke="midnightblue" points="53.4809,-76.4284 42.9254,-75.5164 50.6083,-82.8119 53.4809,-76.4284"/>
</g>
<!-- Node3 -->
<g id="node5" class="node"><title>Node3</title>
<polygon fill="white" stroke="#bfbfbf" points="66.5,-56.5 66.5,-75.5 115.5,-75.5 115.5,-56.5 66.5,-56.5"/>
<text text-anchor="middle" x="91" y="-63.5" font-family="Helvetica,sans-Serif" font-size="10.00">string.h</text>
</g>
<!-- Node1&#45;&gt;Node3 -->
<g id="edge4" class="edge"><title>Node1&#45;&gt;Node3</title>
<path fill="none" stroke="midnightblue" d="M135.248,-112.083C127.53,-104.22 116.095,-92.5688 106.783,-83.0813"/>
<polygon fill="midnightblue" stroke="midnightblue" points="109.092,-80.4363 99.589,-75.7511 104.096,-85.3396 109.092,-80.4363"/>
</g>
<!-- Node4 -->
<g id="node7" class="node"><title>Node4</title>
<polygon fill="white" stroke="#bfbfbf" points="37.5,-0.5 37.5,-19.5 96.5,-19.5 96.5,-0.5 37.5,-0.5"/>
<text text-anchor="middle" x="67" y="-7.5" font-family="Helvetica,sans-Serif" font-size="10.00">inttypes.h</text>
</g>
<!-- Node1&#45;&gt;Node4 -->
<g id="edge6" class="edge"><title>Node1&#45;&gt;Node4</title>
<path fill="none" stroke="midnightblue" d="M142.996,-112.29C141.128,-99.1027 136.142,-73.7291 124,-56 115.512,-43.6058 102.577,-33.0009 91.1743,-25.2045"/>
<polygon fill="midnightblue" stroke="midnightblue" points="92.7689,-22.0675 82.4718,-19.5735 88.9662,-27.9445 92.7689,-22.0675"/>
</g>
<!-- Node5 -->
<g id="node9" class="node"><title>Node5</title>
<a xlink:href="../../d5/dee/data__structs_8h.xhtml" target="_top" xlink:title="data_structs.h">
<polygon fill="white" stroke="black" points="172.5,-56.5 172.5,-75.5 251.5,-75.5 251.5,-56.5 172.5,-56.5"/>
<text text-anchor="middle" x="212" y="-63.5" font-family="Helvetica,sans-Serif" font-size="10.00">data_structs.h</text>
</a>
</g>
<!-- Node1&#45;&gt;Node5 -->
<g id="edge8" class="edge"><title>Node1&#45;&gt;Node5</title>
<path fill="none" stroke="midnightblue" d="M154.925,-112.324C165.175,-104.185 180.721,-91.8395 193.001,-82.0874"/>
<polygon fill="midnightblue" stroke="midnightblue" points="195.221,-84.7937 200.876,-75.8339 190.868,-79.3119 195.221,-84.7937"/>
</g>
<!-- Node10 -->
<g id="node20" class="node"><title>Node10</title>
<a xlink:href="../../d5/dfd/iniReader_8h.xhtml" target="_top" xlink:title="iniReader.h">
<polygon fill="white" stroke="black" points="289,-56.5 289,-75.5 355,-75.5 355,-56.5 289,-56.5"/>
<text text-anchor="middle" x="322" y="-63.5" font-family="Helvetica,sans-Serif" font-size="10.00">iniReader.h</text>
</a>
</g>
<!-- Node1&#45;&gt;Node10 -->
<g id="edge20" class="edge"><title>Node1&#45;&gt;Node10</title>
<path fill="none" stroke="midnightblue" d="M172.205,-112.444C202.41,-103.28 250.511,-88.6876 284.029,-78.5192"/>
<polygon fill="midnightblue" stroke="midnightblue" points="285.374,-81.7688 293.927,-75.5164 283.342,-75.0703 285.374,-81.7688"/>
</g>
<!-- Node5&#45;&gt;Node4 -->
<g id="edge18" class="edge"><title>Node5&#45;&gt;Node4</title>
<path fill="none" stroke="midnightblue" d="M189.024,-56.4435C164.843,-47.4381 126.582,-33.1891 99.3539,-23.049"/>
<polygon fill="midnightblue" stroke="midnightblue" points="100.461,-19.7265 89.8682,-19.5164 98.0179,-26.2864 100.461,-19.7265"/>
</g>
<!-- Node6 -->
<g id="node11" class="node"><title>Node6</title>
<polygon fill="white" stroke="#bfbfbf" points="257,-0.5 257,-19.5 301,-19.5 301,-0.5 257,-0.5"/>
<text text-anchor="middle" x="279" y="-7.5" font-family="Helvetica,sans-Serif" font-size="10.00">vector</text>
</g>
<!-- Node5&#45;&gt;Node6 -->
<g id="edge10" class="edge"><title>Node5&#45;&gt;Node6</title>
<path fill="none" stroke="midnightblue" d="M222.765,-56.324C232.766,-48.2631 247.887,-36.0765 259.93,-26.3695"/>
<polygon fill="midnightblue" stroke="midnightblue" points="262.45,-28.8343 268.039,-19.8339 258.057,-23.3841 262.45,-28.8343"/>
</g>
<!-- Node7 -->
<g id="node13" class="node"><title>Node7</title>
<polygon fill="white" stroke="#bfbfbf" points="319.5,-0.5 319.5,-19.5 360.5,-19.5 360.5,-0.5 319.5,-0.5"/>
<text text-anchor="middle" x="340" y="-7.5" font-family="Helvetica,sans-Serif" font-size="10.00">string</text>
</g>
<!-- Node5&#45;&gt;Node7 -->
<g id="edge12" class="edge"><title>Node5&#45;&gt;Node7</title>
<path fill="none" stroke="midnightblue" d="M232.282,-56.4435C253.347,-47.5566 286.517,-33.5632 310.486,-23.4514"/>
<polygon fill="midnightblue" stroke="midnightblue" points="311.96,-26.6283 319.813,-19.5164 309.239,-20.1787 311.96,-26.6283"/>
</g>
<!-- Node8 -->
<g id="node15" class="node"><title>Node8</title>
<polygon fill="white" stroke="#bfbfbf" points="115,-0.5 115,-19.5 167,-19.5 167,-0.5 115,-0.5"/>
<text text-anchor="middle" x="141" y="-7.5" font-family="Helvetica,sans-Serif" font-size="10.00">sstream</text>
</g>
<!-- Node5&#45;&gt;Node8 -->
<g id="edge14" class="edge"><title>Node5&#45;&gt;Node8</title>
<path fill="none" stroke="midnightblue" d="M200.593,-56.324C189.891,-48.1849 173.659,-35.8395 160.837,-26.0874"/>
<polygon fill="midnightblue" stroke="midnightblue" points="162.693,-23.1018 152.615,-19.8339 158.456,-28.6734 162.693,-23.1018"/>
</g>
<!-- Node9 -->
<g id="node17" class="node"><title>Node9</title>
<polygon fill="white" stroke="#bfbfbf" points="185,-0.5 185,-19.5 239,-19.5 239,-0.5 185,-0.5"/>
<text text-anchor="middle" x="212" y="-7.5" font-family="Helvetica,sans-Serif" font-size="10.00">iostream</text>
</g>
<!-- Node5&#45;&gt;Node9 -->
<g id="edge16" class="edge"><title>Node5&#45;&gt;Node9</title>
<path fill="none" stroke="midnightblue" d="M212,-56.083C212,-49.0059 212,-38.8611 212,-29.9865"/>
<polygon fill="midnightblue" stroke="midnightblue" points="215.5,-29.751 212,-19.7511 208.5,-29.7511 215.5,-29.751"/>
</g>
<!-- Node10&#45;&gt;Node6 -->
<g id="edge28" class="edge"><title>Node10&#45;&gt;Node6</title>
<path fill="none" stroke="midnightblue" d="M314.899,-56.083C308.763,-48.3768 299.73,-37.0333 292.261,-27.6531"/>
<polygon fill="midnightblue" stroke="midnightblue" points="294.936,-25.3936 285.968,-19.7511 289.46,-29.7542 294.936,-25.3936"/>
</g>
<!-- Node10&#45;&gt;Node7 -->
<g id="edge24" class="edge"><title>Node10&#45;&gt;Node7</title>
<path fill="none" stroke="midnightblue" d="M324.972,-56.083C327.384,-48.8486 330.864,-38.4087 333.868,-29.3968"/>
<polygon fill="midnightblue" stroke="midnightblue" points="337.241,-30.3447 337.083,-19.7511 330.6,-28.1311 337.241,-30.3447"/>
</g>
<!-- Node10&#45;&gt;Node8 -->
<g id="edge32" class="edge"><title>Node10&#45;&gt;Node8</title>
<path fill="none" stroke="midnightblue" d="M293.32,-56.4435C261.747,-47.0241 210.946,-31.8679 176.789,-21.6774"/>
<polygon fill="midnightblue" stroke="midnightblue" points="177.778,-18.3202 167.195,-18.8151 175.777,-25.028 177.778,-18.3202"/>
</g>
<!-- Node10&#45;&gt;Node9 -->
<g id="edge30" class="edge"><title>Node10&#45;&gt;Node9</title>
<path fill="none" stroke="midnightblue" d="M304.327,-56.324C286.606,-47.6247 259.097,-34.1202 238.712,-24.113"/>
<polygon fill="midnightblue" stroke="midnightblue" points="240.149,-20.9195 229.63,-19.6545 237.064,-27.2031 240.149,-20.9195"/>
</g>
<!-- Node11 -->
<g id="node22" class="node"><title>Node11</title>
<polygon fill="white" stroke="#bfbfbf" points="379,-0.5 379,-19.5 427,-19.5 427,-0.5 379,-0.5"/>
<text text-anchor="middle" x="403" y="-7.5" font-family="Helvetica,sans-Serif" font-size="10.00">stdlib.h</text>
</g>
<!-- Node10&#45;&gt;Node11 -->
<g id="edge22" class="edge"><title>Node10&#45;&gt;Node11</title>
<path fill="none" stroke="midnightblue" d="M335.014,-56.324C347.532,-47.979 366.682,-35.2122 381.471,-25.3524"/>
<polygon fill="midnightblue" stroke="midnightblue" points="383.639,-28.1137 390.018,-19.6545 379.756,-22.2894 383.639,-28.1137"/>
</g>
<!-- Node12 -->
<g id="node25" class="node"><title>Node12</title>
<polygon fill="white" stroke="#bfbfbf" points="445.5,-0.5 445.5,-19.5 480.5,-19.5 480.5,-0.5 445.5,-0.5"/>
<text text-anchor="middle" x="463" y="-7.5" font-family="Helvetica,sans-Serif" font-size="10.00">map</text>
</g>
<!-- Node10&#45;&gt;Node12 -->
<g id="edge26" class="edge"><title>Node10&#45;&gt;Node12</title>
<path fill="none" stroke="midnightblue" d="M344.342,-56.4435C369.13,-46.9502 409.133,-31.6297 435.744,-21.4385"/>
<polygon fill="midnightblue" stroke="midnightblue" points="437.14,-24.6517 445.227,-17.8067 434.637,-18.1147 437.14,-24.6517"/>
</g>
<!-- Node13 -->
<g id="node30" class="node"><title>Node13</title>
<polygon fill="white" stroke="#bfbfbf" points="499,-0.5 499,-19.5 549,-19.5 549,-0.5 499,-0.5"/>
<text text-anchor="middle" x="524" y="-7.5" font-family="Helvetica,sans-Serif" font-size="10.00">fstream</text>
</g>
<!-- Node10&#45;&gt;Node13 -->
<g id="edge34" class="edge"><title>Node10&#45;&gt;Node13</title>
<path fill="none" stroke="midnightblue" d="M354.008,-56.4435C390.716,-46.6303 450.717,-30.5905 488.739,-20.4261"/>
<polygon fill="midnightblue" stroke="midnightblue" points="490.086,-23.689 498.843,-17.7251 488.279,-16.9264 490.086,-23.689"/>
</g>
</g>
</svg>
        <g id="navigator" transform="translate(0 0)" fill="#404254">
                <rect fill="#f2f5e9" fill-opacity="0.5" stroke="#606060" stroke-width=".5" x="0" y="0" width="60" height="60"/>
                <use id="zoomplus" xlink:href="#zoomPlus" x="17" y="9" onmousedown="handleZoom(evt,'in')"/>
                <use id="zoomminus" xlink:href="#zoomMin" x="42" y="9" onmousedown="handleZoom(evt,'out')"/>
                <use id="reset" xlink:href="#resetDef" x="30" y="36" onmousedown="handleReset()"/>
                <g id="arrowUp" xlink:href="#dirArrow" transform="translate(30 24)" onmousedown="handlePan(0,-1)">
                  <use xlink:href="#rim" fill="#404040">
                        <set attributeName="fill" to="#808080" begin="arrowUp.mouseover" end="arrowUp.mouseout"/>
                  </use>
                  <path fill="none" stroke="white" stroke-width="1.5" d="M0,-3.0v7 M-2.5,-0.5L0,-3.0L2.5,-0.5"/>
                </g>
                <g id="arrowRight" xlink:href="#dirArrow" transform="rotate(90) translate(36 -43)" onmousedown="handlePan(1,0)">
                  <use xlink:href="#rim" fill="#404040">
                        <set attributeName="fill" to="#808080" begin="arrowRight.mouseover" end="arrowRight.mouseout"/>
                  </use>
                  <path fill="none" stroke="white" stroke-width="1.5" d="M0,-3.0v7 M-2.5,-0.5L0,-3.0L2.5,-0.5"/>
                </g>
                <g id="arrowDown" xlink:href="#dirArrow" transform="rotate(180) translate(-30 -48)" onmousedown="handlePan(0,1)">
                  <use xlink:href="#rim" fill="#404040">
                        <set attributeName="fill" to="#808080" begin="arrowDown.mouseover" end="arrowDown.mouseout"/>
                  </use>
                  <path fill="none" stroke="white" stroke-width="1.5" d="M0,-3.0v7 M-2.5,-0.5L0,-3.0L2.5,-0.5"/>
                </g>
                <g id="arrowLeft" xlink:href="#dirArrow" transform="rotate(270) translate(-36 17)" onmousedown="handlePan(-1,0)">
                  <use xlink:href="#rim" fill="#404040">
                        <set attributeName="fill" to="#808080" begin="arrowLeft.mouseover" end="arrowLeft.mouseout"/>
                  </use>
                  <path fill="none" stroke="white" stroke-width="1.5" d="M0,-3.0v7 M-2.5,-0.5L0,-3.0L2.5,-0.5"/>
                </g>
        </g>
</svg>
