<?xml version="1.0" encoding="UTF-8" standalone="no"?>
<!DOCTYPE svg PUBLIC "-//W3C//DTD SVG 1.1//EN"
 "http://www.w3.org/Graphics/SVG/1.1/DTD/svg11.dtd">
<!-- Generated by graphviz version 2.28.0 (20111025.1818)
 -->
<!-- Title: G Pages: 1 -->
<svg width="227pt" height="84pt"
 viewBox="0.00 0.00 227.00 84.00" xmlns="http://www.w3.org/2000/svg" xmlns:xlink="http://www.w3.org/1999/xlink">
<g id="graph1" class="graph" transform="scale(1 1) rotate(0) translate(4 80)">
<title>G</title>
<polygon fill="white" stroke="white" points="-4,5 -4,-80 224,-80 224,5 -4,5"/>
<!-- Node1 -->
<g id="node1" class="node"><title>Node1</title>
<polygon fill="#bfbfbf" stroke="black" points="64.5,-56.5 64.5,-75.5 127.5,-75.5 127.5,-56.5 64.5,-56.5"/>
<text text-anchor="middle" x="96" y="-63.5" font-family="Helvetica,sans-Serif" font-size="10.00">cPRPolicy</text>
</g>
<!-- Node2 -->
<g id="node3" class="node"><title>Node2</title>
<a xlink:href="../../db/d3a/classcPRFifo.xhtml" target="_top" xlink:title="cPRFifo">
<polygon fill="white" stroke="black" points="-0.5,-0.5 -0.5,-19.5 52.5,-19.5 52.5,-0.5 -0.5,-0.5"/>
<text text-anchor="middle" x="26" y="-7.5" font-family="Helvetica,sans-Serif" font-size="10.00">cPRFifo</text>
</a>
</g>
<!-- Node1&#45;&gt;Node2 -->
<g id="edge2" class="edge"><title>Node1&#45;&gt;Node2</title>
<path fill="none" stroke="midnightblue" d="M76.6862,-50.1008C64.0883,-40.3824 48.0719,-28.0269 37.4513,-19.8339"/>
<polygon fill="midnightblue" stroke="midnightblue" points="74.6976,-52.9871 84.7533,-56.324 78.9733,-47.4446 74.6976,-52.9871"/>
</g>
<!-- Node3 -->
<g id="node5" class="node"><title>Node3</title>
<a xlink:href="../../da/da5/classcPRLru.xhtml" target="_top" xlink:title="cPRLru">
<polygon fill="white" stroke="black" points="71,-0.5 71,-19.5 121,-19.5 121,-0.5 71,-0.5"/>
<text text-anchor="middle" x="96" y="-7.5" font-family="Helvetica,sans-Serif" font-size="10.00">cPRLru</text>
</a>
</g>
<!-- Node1&#45;&gt;Node3 -->
<g id="edge4" class="edge"><title>Node1&#45;&gt;Node3</title>
<path fill="none" stroke="midnightblue" d="M96,-45.8045C96,-36.9102 96,-26.7798 96,-19.7511"/>
<polygon fill="midnightblue" stroke="midnightblue" points="92.5001,-46.083 96,-56.083 99.5001,-46.083 92.5001,-46.083"/>
</g>
<!-- Node4 -->
<g id="node7" class="node"><title>Node4</title>
<a xlink:href="../../d1/d58/classcPRLruApprox.xhtml" target="_top" xlink:title="cPRLruApprox">
<polygon fill="white" stroke="black" points="139,-0.5 139,-19.5 219,-19.5 219,-0.5 139,-0.5"/>
<text text-anchor="middle" x="179" y="-7.5" font-family="Helvetica,sans-Serif" font-size="10.00">cPRLruApprox</text>
</a>
</g>
<!-- Node1&#45;&gt;Node4 -->
<g id="edge6" class="edge"><title>Node1&#45;&gt;Node4</title>
<path fill="none" stroke="midnightblue" d="M118.099,-50.6221C133.262,-40.7574 152.883,-27.9919 165.698,-19.6545"/>
<polygon fill="midnightblue" stroke="midnightblue" points="115.809,-47.9367 109.335,-56.324 119.626,-53.8042 115.809,-47.9367"/>
</g>
</g>
</svg>
