<?xml version="1.0" encoding="UTF-8" standalone="no"?>
<!DOCTYPE svg PUBLIC "-//W3C//DTD SVG 1.1//EN"
 "http://www.w3.org/Graphics/SVG/1.1/DTD/svg11.dtd">
<!-- Generated by graphviz version 2.28.0 (20111025.1818)
 -->
<!-- Title: G Pages: 1 -->
<svg width="92pt" height="140pt"
 viewBox="0.00 0.00 92.00 140.00" xmlns="http://www.w3.org/2000/svg" xmlns:xlink="http://www.w3.org/1999/xlink">
<g id="graph1" class="graph" transform="scale(1 1) rotate(0) translate(4 136)">
<title>G</title>
<polygon fill="white" stroke="white" points="-4,5 -4,-136 89,-136 89,5 -4,5"/>
<!-- Node1 -->
<g id="node1" class="node"><title>Node1</title>
<polygon fill="#bfbfbf" stroke="black" points="5,-112.5 5,-131.5 79,-131.5 79,-112.5 5,-112.5"/>
<text text-anchor="middle" x="42" y="-119.5" font-family="Helvetica,sans-Serif" font-size="10.00">include/cpu.h</text>
</g>
<!-- Node2 -->
<g id="node3" class="node"><title>Node2</title>
<a xlink:href="../../d0/daa/kernel_8h.xhtml" target="_top" xlink:title="include/kernel.h">
<polygon fill="white" stroke="black" points="-0.5,-56.5 -0.5,-75.5 84.5,-75.5 84.5,-56.5 -0.5,-56.5"/>
<text text-anchor="middle" x="42" y="-63.5" font-family="Helvetica,sans-Serif" font-size="10.00">include/kernel.h</text>
</a>
</g>
<!-- Node1&#45;&gt;Node2 -->
<g id="edge2" class="edge"><title>Node1&#45;&gt;Node2</title>
<path fill="none" stroke="midnightblue" d="M42,-101.805C42,-92.9102 42,-82.7798 42,-75.7511"/>
<polygon fill="midnightblue" stroke="midnightblue" points="38.5001,-102.083 42,-112.083 45.5001,-102.083 38.5001,-102.083"/>
</g>
<!-- Node3 -->
<g id="node5" class="node"><title>Node3</title>
<a xlink:href="../../d8/dc0/init_8h_source.xhtml" target="_top" xlink:title="include/init.h">
<polygon fill="white" stroke="black" points="6.5,-0.5 6.5,-19.5 77.5,-19.5 77.5,-0.5 6.5,-0.5"/>
<text text-anchor="middle" x="42" y="-7.5" font-family="Helvetica,sans-Serif" font-size="10.00">include/init.h</text>
</a>
</g>
<!-- Node2&#45;&gt;Node3 -->
<g id="edge4" class="edge"><title>Node2&#45;&gt;Node3</title>
<path fill="none" stroke="midnightblue" d="M42,-45.8045C42,-36.9102 42,-26.7798 42,-19.7511"/>
<polygon fill="midnightblue" stroke="midnightblue" points="38.5001,-46.083 42,-56.083 45.5001,-46.083 38.5001,-46.083"/>
</g>
</g>
</svg>
