<?xml version="1.0" encoding="UTF-8" standalone="no"?>
<!DOCTYPE svg PUBLIC "-//W3C//DTD SVG 1.1//EN"
 "http://www.w3.org/Graphics/SVG/1.1/DTD/svg11.dtd">
<!-- Generated by graphviz version 2.28.0 (20111025.1818)
 -->
<!-- Title: G Pages: 1 -->
<svg width="177pt" height="84pt"
 viewBox="0.00 0.00 177.00 84.00" xmlns="http://www.w3.org/2000/svg" xmlns:xlink="http://www.w3.org/1999/xlink">
<g id="graph1" class="graph" transform="scale(1 1) rotate(0) translate(4 80)">
<title>G</title>
<polygon fill="white" stroke="white" points="-4,5 -4,-80 174,-80 174,5 -4,5"/>
<!-- Node1 -->
<g id="node1" class="node"><title>Node1</title>
<polygon fill="#bfbfbf" stroke="black" points="33,-56.5 33,-75.5 137,-75.5 137,-56.5 33,-56.5"/>
<text text-anchor="middle" x="85" y="-63.5" font-family="Helvetica,sans-Serif" font-size="10.00">cAbsQueuedDevice</text>
</g>
<!-- Node2 -->
<g id="node3" class="node"><title>Node2</title>
<a xlink:href="../../dd/d36/classcBlockDevice.xhtml" target="_top" xlink:title="Queued block device.">
<polygon fill="white" stroke="black" points="-0.5,-0.5 -0.5,-19.5 76.5,-19.5 76.5,-0.5 -0.5,-0.5"/>
<text text-anchor="middle" x="38" y="-7.5" font-family="Helvetica,sans-Serif" font-size="10.00">cBlockDevice</text>
</a>
</g>
<!-- Node1&#45;&gt;Node2 -->
<g id="edge2" class="edge"><title>Node1&#45;&gt;Node2</title>
<path fill="none" stroke="midnightblue" d="M70.5792,-48.4314C62.3419,-38.9673 52.3461,-27.4827 45.6167,-19.7511"/>
<polygon fill="midnightblue" stroke="midnightblue" points="68.0336,-50.8378 77.2389,-56.083 73.3137,-46.2421 68.0336,-50.8378"/>
</g>
<!-- Node3 -->
<g id="node5" class="node"><title>Node3</title>
<a xlink:href="../../d9/de9/classcCharDevice.xhtml" target="_top" xlink:title="Queued char device.">
<polygon fill="white" stroke="black" points="95,-0.5 95,-19.5 169,-19.5 169,-0.5 95,-0.5"/>
<text text-anchor="middle" x="132" y="-7.5" font-family="Helvetica,sans-Serif" font-size="10.00">cCharDevice</text>
</a>
</g>
<!-- Node1&#45;&gt;Node3 -->
<g id="edge4" class="edge"><title>Node1&#45;&gt;Node3</title>
<path fill="none" stroke="midnightblue" d="M99.4208,-48.4314C107.658,-38.9673 117.654,-27.4827 124.383,-19.7511"/>
<polygon fill="midnightblue" stroke="midnightblue" points="96.6863,-46.2421 92.7611,-56.083 101.966,-50.8378 96.6863,-46.2421"/>
</g>
</g>
</svg>
