<?xml version="1.0" encoding="UTF-8" standalone="no"?>
<!DOCTYPE svg PUBLIC "-//W3C//DTD SVG 1.1//EN"
 "http://www.w3.org/Graphics/SVG/1.1/DTD/svg11.dtd">
<!-- Generated by graphviz version 2.28.0 (20111025.1818)
 -->
<!-- Title: G Pages: 1 -->
<svg width="270pt" height="164pt"
 viewBox="0.00 0.00 270.00 164.00" xmlns="http://www.w3.org/2000/svg" xmlns:xlink="http://www.w3.org/1999/xlink">
<g id="graph1" class="graph" transform="scale(1 1) rotate(0) translate(4 160)">
<title>G</title>
<polygon fill="white" stroke="white" points="-4,5 -4,-160 267,-160 267,5 -4,5"/>
<!-- Node1 -->
<g id="node1" class="node"><title>Node1</title>
<polygon fill="#bfbfbf" stroke="black" points="56.5,-0.5 56.5,-19.5 133.5,-19.5 133.5,-0.5 56.5,-0.5"/>
<text text-anchor="middle" x="95" y="-7.5" font-family="Helvetica,sans-Serif" font-size="10.00">cBlockDevice</text>
</g>
<!-- Node2 -->
<g id="node2" class="node"><title>Node2</title>
<a xlink:href="../../d7/d38/classcAbsQueuedDevice.xhtml" target="_top" xlink:title="Abstract class for a device which queues requests.">
<polygon fill="white" stroke="black" points="0,-68.5 0,-87.5 104,-87.5 104,-68.5 0,-68.5"/>
<text text-anchor="middle" x="52" y="-75.5" font-family="Helvetica,sans-Serif" font-size="10.00">cAbsQueuedDevice</text>
</a>
</g>
<!-- Node2&#45;&gt;Node1 -->
<g id="edge2" class="edge"><title>Node2&#45;&gt;Node1</title>
<path fill="none" stroke="midnightblue" d="M63.1163,-59.9377C71.4725,-47.112 82.5827,-30.0591 89.2399,-19.8411"/>
<polygon fill="midnightblue" stroke="midnightblue" points="60.1478,-58.0824 57.6215,-68.3717 66.0129,-61.9036 60.1478,-58.0824"/>
</g>
<!-- Node3 -->
<g id="node4" class="node"><title>Node3</title>
<polygon fill="white" stroke="#bfbfbf" points="122,-68.5 122,-87.5 262,-87.5 262,-68.5 122,-68.5"/>
<text text-anchor="middle" x="192" y="-75.5" font-family="Helvetica,sans-Serif" font-size="10.00">std::queue&lt; ProcessInfo * &gt;</text>
</g>
<!-- Node3&#45;&gt;Node1 -->
<g id="edge4" class="edge"><title>Node3&#45;&gt;Node1</title>
<path fill="none" stroke="#9a32cd" stroke-dasharray="5,2" d="M170.886,-62.6336C151.605,-49.5145 123.734,-30.551 107.684,-19.6305"/>
<polygon fill="#9a32cd" stroke="#9a32cd" points="169.082,-65.6399 179.319,-68.3717 173.02,-59.8525 169.082,-65.6399"/>
<text text-anchor="middle" x="177" y="-41.5" font-family="Helvetica,sans-Serif" font-size="10.00"> waitQueue</text>
</g>
<!-- Node4 -->
<g id="node6" class="node"><title>Node4</title>
<a xlink:href="../../dd/dc8/structProcessInfo.xhtml" target="_top" xlink:title="Structure for containing process state and data.">
<polygon fill="white" stroke="black" points="157.5,-136.5 157.5,-155.5 226.5,-155.5 226.5,-136.5 157.5,-136.5"/>
<text text-anchor="middle" x="192" y="-143.5" font-family="Helvetica,sans-Serif" font-size="10.00">ProcessInfo</text>
</a>
</g>
<!-- Node4&#45;&gt;Node3 -->
<g id="edge6" class="edge"><title>Node4&#45;&gt;Node3</title>
<path fill="none" stroke="#9a32cd" stroke-dasharray="5,2" d="M192,-126.041C192,-113.472 192,-97.5631 192,-87.8411"/>
<polygon fill="#9a32cd" stroke="#9a32cd" points="188.5,-126.372 192,-136.372 195.5,-126.372 188.5,-126.372"/>
<text text-anchor="middle" x="213.5" y="-109.5" font-family="Helvetica,sans-Serif" font-size="10.00"> elements</text>
</g>
</g>
</svg>
