<?xml version="1.0" encoding="UTF-8" standalone="no"?>
<!DOCTYPE svg PUBLIC "-//W3C//DTD SVG 1.1//EN"
 "http://www.w3.org/Graphics/SVG/1.1/DTD/svg11.dtd">
<!-- Generated by graphviz version 2.28.0 (20111025.1818)
 -->
<!-- Title: G Pages: 1 -->
<!--zoomable 252 -->
<svg id="main" version="1.1" xmlns="http://www.w3.org/2000/svg" xmlns:xlink="http://www.w3.org/1999/xlink" xml:space="preserve" onload="init(evt)">
        <defs>
                <circle id="rim" cx="0" cy="0" r="7"/>
                <circle id="rim2" cx="0" cy="0" r="3.5"/>
                <g id="zoomPlus">
                        <use xlink:href="#rim" fill="#404040">
                                <set attributeName="fill" to="#808080" begin="zoomplus.mouseover" end="zoomplus.mouseout"/>
                        </use>
                        <path d="M-4,0h8M0,-4v8" fill="none" stroke="white" stroke-width="1.5" pointer-events="none"/>
                </g>
                <g id="zoomMin">
                        <use xlink:href="#rim" fill="#404040">
                                <set attributeName="fill" to="#808080" begin="zoomminus.mouseover" end="zoomminus.mouseout"/>
                        </use>
                        <path d="M-4,0h8" fill="none" stroke="white" stroke-width="1.5" pointer-events="none"/>
                </g>
                <g id="dirArrow">
                        <path fill="none" stroke="white" stroke-width="1.5" d="M0,-3.0v7 M-2.5,-0.5L0,-3.0L2.5,-0.5"/>
                </g>
               <g id="resetDef">
                       <use xlink:href="#rim2" fill="#404040">
                               <set attributeName="fill" to="#808080" begin="reset.mouseover" end="reset.mouseout"/>
                       </use>
               </g>
        </defs>

<script type="text/javascript">
var viewWidth = 746;
var viewHeight = 252;
var sectionId = 'dynsection-1';
</script>
<script xlink:href="../../svgpan.js"/>
<svg id="graph" class="graph">
<g id="viewport">
<title>G</title>
<polygon fill="white" stroke="white" points="-4,5 -4,-248 743.045,-248 743.045,5 -4,5"/>
<!-- Node1 -->
<g id="node1" class="node"><title>Node1</title>
<polygon fill="#bfbfbf" stroke="black" points="14.0452,-224.5 14.0452,-243.5 106.045,-243.5 106.045,-224.5 14.0452,-224.5"/>
<text text-anchor="middle" x="60.0452" y="-231.5" font-family="Helvetica,sans-Serif" font-size="10.00">include/utility/id.h</text>
</g>
<!-- Node2 -->
<g id="node3" class="node"><title>Node2</title>
<a xlink:href="../../d9/dd2/round__robin_8h.xhtml" target="_top" xlink:title="include/round_robin.h">
<polygon fill="white" stroke="black" points="113.545,-168.5 113.545,-187.5 222.545,-187.5 222.545,-168.5 113.545,-168.5"/>
<text text-anchor="middle" x="168.045" y="-175.5" font-family="Helvetica,sans-Serif" font-size="10.00">include/round_robin.h</text>
</a>
</g>
<!-- Node1&#45;&gt;Node2 -->
<g id="edge2" class="edge"><title>Node1&#45;&gt;Node2</title>
<path fill="none" stroke="midnightblue" d="M86.593,-219.726C106.591,-209.727 133.432,-196.307 150.736,-187.655"/>
<polygon fill="midnightblue" stroke="midnightblue" points="84.7763,-216.721 77.3973,-224.324 87.9068,-222.982 84.7763,-216.721"/>
</g>
<!-- Node6 -->
<g id="node13" class="node"><title>Node6</title>
<a xlink:href="../../d4/dbf/main_8h_source.xhtml" target="_top" xlink:title="include/main.h">
<polygon fill="white" stroke="black" points="5.0452,-0.5 5.0452,-19.5 85.0452,-19.5 85.0452,-0.5 5.0452,-0.5"/>
<text text-anchor="middle" x="45.0452" y="-7.5" font-family="Helvetica,sans-Serif" font-size="10.00">include/main.h</text>
</a>
</g>
<!-- Node1&#45;&gt;Node6 -->
<g id="edge34" class="edge"><title>Node1&#45;&gt;Node6</title>
<path fill="none" stroke="midnightblue" d="M51.1761,-215.385C37.4027,-186.938 11.4744,-128.734 2.0452,-76 0.480614,-67.2499 -1.26291,-64.2504 2.0452,-56 8.1579,-40.755 22.1709,-27.7492 32.5477,-19.698"/>
<polygon fill="midnightblue" stroke="midnightblue" points="48.0861,-217.033 55.6475,-224.454 54.3644,-213.937 48.0861,-217.033"/>
</g>
<!-- Node3 -->
<g id="node5" class="node"><title>Node3</title>
<a xlink:href="../../d4/d9a/vmm__core_8h.xhtml" target="_top" xlink:title="include/vmm_core.h">
<polygon fill="white" stroke="black" points="248.045,-112.5 248.045,-131.5 352.045,-131.5 352.045,-112.5 248.045,-112.5"/>
<text text-anchor="middle" x="300.045" y="-119.5" font-family="Helvetica,sans-Serif" font-size="10.00">include/vmm_core.h</text>
</a>
</g>
<!-- Node2&#45;&gt;Node3 -->
<g id="edge4" class="edge"><title>Node2&#45;&gt;Node3</title>
<path fill="none" stroke="midnightblue" d="M198.264,-164.638C223.035,-154.504 257.445,-140.427 279.227,-131.516"/>
<polygon fill="midnightblue" stroke="midnightblue" points="196.891,-161.418 188.961,-168.444 199.542,-167.897 196.891,-161.418"/>
</g>
<!-- Node4 -->
<g id="node7" class="node"><title>Node4</title>
<a xlink:href="../../dc/da7/cpu_8h.xhtml" target="_top" xlink:title="include/cpu.h">
<polygon fill="white" stroke="black" points="503.045,-56.5 503.045,-75.5 577.045,-75.5 577.045,-56.5 503.045,-56.5"/>
<text text-anchor="middle" x="540.045" y="-63.5" font-family="Helvetica,sans-Serif" font-size="10.00">include/cpu.h</text>
</a>
</g>
<!-- Node3&#45;&gt;Node4 -->
<g id="edge6" class="edge"><title>Node3&#45;&gt;Node4</title>
<path fill="none" stroke="midnightblue" d="M342.853,-110.122C388.379,-99.4661 459.479,-83.5247 502.788,-74.3042"/>
<polygon fill="midnightblue" stroke="midnightblue" points="341.918,-106.746 332.985,-112.444 343.521,-113.56 341.918,-106.746"/>
</g>
<!-- Node5 -->
<g id="node10" class="node"><title>Node5</title>
<a xlink:href="../../de/d7e/cleaningDaemon_8h_source.xhtml" target="_top" xlink:title="include/Policy/cleaningDaemon.h">
<polygon fill="white" stroke="black" points="19.5452,-56.5 19.5452,-75.5 180.545,-75.5 180.545,-56.5 19.5452,-56.5"/>
<text text-anchor="middle" x="100.045" y="-63.5" font-family="Helvetica,sans-Serif" font-size="10.00">include/Policy/cleaningDaemon.h</text>
</a>
</g>
<!-- Node3&#45;&gt;Node5 -->
<g id="edge10" class="edge"><title>Node3&#45;&gt;Node5</title>
<path fill="none" stroke="midnightblue" d="M253.333,-109.894C213.852,-99.6966 158.853,-84.802 126.508,-75.5164"/>
<polygon fill="midnightblue" stroke="midnightblue" points="252.71,-113.347 263.266,-112.444 254.45,-106.567 252.71,-113.347"/>
</g>
<!-- Node3&#45;&gt;Node6 -->
<g id="edge16" class="edge"><title>Node3&#45;&gt;Node6</title>
<path fill="none" stroke="midnightblue" d="M237.545,-120.435C161.229,-118.263 38.7378,-109.488 10.0452,-76 -5.13185,-58.2863 18.9611,-32.9062 34.158,-19.7134"/>
<polygon fill="midnightblue" stroke="midnightblue" points="237.907,-123.945 247.993,-120.699 238.085,-116.947 237.907,-123.945"/>
</g>
<!-- Node7 -->
<g id="node16" class="node"><title>Node7</title>
<a xlink:href="../../d3/ded/pr__fifo_8h_source.xhtml" target="_top" xlink:title="include/Policy/pr_fifo.h">
<polygon fill="white" stroke="black" points="199.045,-56.5 199.045,-75.5 315.045,-75.5 315.045,-56.5 199.045,-56.5"/>
<text text-anchor="middle" x="257.045" y="-63.5" font-family="Helvetica,sans-Serif" font-size="10.00">include/Policy/pr_fifo.h</text>
</a>
</g>
<!-- Node3&#45;&gt;Node7 -->
<g id="edge18" class="edge"><title>Node3&#45;&gt;Node7</title>
<path fill="none" stroke="midnightblue" d="M286.623,-104.144C279.131,-94.7357 270.108,-83.4046 264.014,-75.7511"/>
<polygon fill="midnightblue" stroke="midnightblue" points="283.977,-106.44 292.945,-112.083 289.453,-102.08 283.977,-106.44"/>
</g>
<!-- Node9 -->
<g id="node22" class="node"><title>Node9</title>
<a xlink:href="../../db/d16/pr__lru_8h_source.xhtml" target="_top" xlink:title="include/Policy/pr_lru.h">
<polygon fill="white" stroke="black" points="371.545,-56.5 371.545,-75.5 484.545,-75.5 484.545,-56.5 371.545,-56.5"/>
<text text-anchor="middle" x="428.045" y="-63.5" font-family="Helvetica,sans-Serif" font-size="10.00">include/Policy/pr_lru.h</text>
</a>
</g>
<!-- Node3&#45;&gt;Node9 -->
<g id="edge26" class="edge"><title>Node3&#45;&gt;Node9</title>
<path fill="none" stroke="midnightblue" d="M329.668,-108.503C353.664,-98.3795 386.829,-84.388 407.858,-75.5164"/>
<polygon fill="midnightblue" stroke="midnightblue" points="328.18,-105.332 320.327,-112.444 330.901,-111.781 328.18,-105.332"/>
</g>
<!-- Node10 -->
<g id="node25" class="node"><title>Node10</title>
<a xlink:href="../../d6/d53/pr__lruApprox_8h_source.xhtml" target="_top" xlink:title="include/Policy/pr_lruApprox.h">
<polygon fill="white" stroke="black" points="595.545,-56.5 595.545,-75.5 738.545,-75.5 738.545,-56.5 595.545,-56.5"/>
<text text-anchor="middle" x="667.045" y="-63.5" font-family="Helvetica,sans-Serif" font-size="10.00">include/Policy/pr_lruApprox.h</text>
</a>
</g>
<!-- Node3&#45;&gt;Node10 -->
<g id="edge30" class="edge"><title>Node3&#45;&gt;Node10</title>
<path fill="none" stroke="midnightblue" d="M362.529,-111.806C431.547,-101.651 541.781,-85.4312 608.978,-75.544"/>
<polygon fill="midnightblue" stroke="midnightblue" points="361.622,-108.402 352.238,-113.32 362.641,-115.327 361.622,-108.402"/>
</g>
<!-- Node4&#45;&gt;Node3 -->
<g id="edge8" class="edge"><title>Node4&#45;&gt;Node3</title>
<path fill="none" stroke="midnightblue" d="M497.281,-77.868C453.755,-88.0561 386.82,-103.083 343.163,-112.444"/>
<polygon fill="midnightblue" stroke="midnightblue" points="498.342,-81.2141 507.274,-75.5164 496.739,-74.4002 498.342,-81.2141"/>
</g>
<!-- Node5&#45;&gt;Node3 -->
<g id="edge12" class="edge"><title>Node5&#45;&gt;Node3</title>
<path fill="none" stroke="midnightblue" d="M146.587,-78.062C186.024,-88.246 241.033,-103.142 273.443,-112.444"/>
<polygon fill="midnightblue" stroke="midnightblue" points="147.224,-74.612 136.667,-75.5164 145.484,-81.3923 147.224,-74.612"/>
</g>
<!-- Node5&#45;&gt;Node6 -->
<g id="edge14" class="edge"><title>Node5&#45;&gt;Node6</title>
<path fill="none" stroke="midnightblue" d="M83.7514,-49.0024C74.0046,-39.4329 61.9922,-27.6389 53.9583,-19.7511"/>
<polygon fill="midnightblue" stroke="midnightblue" points="81.3753,-51.5746 90.9631,-56.083 86.2795,-46.5796 81.3753,-51.5746"/>
</g>
<!-- Node7&#45;&gt;Node6 -->
<g id="edge24" class="edge"><title>Node7&#45;&gt;Node6</title>
<path fill="none" stroke="midnightblue" d="M213.699,-53.959C173.658,-43.7598 115.012,-28.8217 78.4801,-19.5164"/>
<polygon fill="midnightblue" stroke="midnightblue" points="212.899,-57.3668 223.453,-56.4435 214.627,-50.5834 212.899,-57.3668"/>
</g>
<!-- Node8 -->
<g id="node18" class="node"><title>Node8</title>
<a xlink:href="../../d1/df8/allPR_8h_source.xhtml" target="_top" xlink:title="include/Policy/allPR.h">
<polygon fill="white" stroke="black" points="328.545,-0.5 328.545,-19.5 441.545,-19.5 441.545,-0.5 328.545,-0.5"/>
<text text-anchor="middle" x="385.045" y="-7.5" font-family="Helvetica,sans-Serif" font-size="10.00">include/Policy/allPR.h</text>
</a>
</g>
<!-- Node7&#45;&gt;Node8 -->
<g id="edge20" class="edge"><title>Node7&#45;&gt;Node8</title>
<path fill="none" stroke="midnightblue" d="M286.668,-52.503C310.664,-42.3795 343.829,-28.388 364.858,-19.5164"/>
<polygon fill="midnightblue" stroke="midnightblue" points="285.18,-49.3317 277.327,-56.4435 287.901,-55.7813 285.18,-49.3317"/>
</g>
<!-- Node8&#45;&gt;Node3 -->
<g id="edge22" class="edge"><title>Node8&#45;&gt;Node3</title>
<path fill="none" stroke="midnightblue" d="M372.16,-27.6752C353.807,-51.4257 320.805,-94.135 306.715,-112.368"/>
<polygon fill="midnightblue" stroke="midnightblue" points="375.061,-29.6444 378.406,-19.5914 369.522,-25.3642 375.061,-29.6444"/>
</g>
<!-- Node9&#45;&gt;Node8 -->
<g id="edge28" class="edge"><title>Node9&#45;&gt;Node8</title>
<path fill="none" stroke="midnightblue" d="M414.623,-48.144C407.131,-38.7357 398.108,-27.4046 392.014,-19.7511"/>
<polygon fill="midnightblue" stroke="midnightblue" points="411.977,-50.4404 420.945,-56.083 417.453,-46.0799 411.977,-50.4404"/>
</g>
<!-- Node10&#45;&gt;Node8 -->
<g id="edge32" class="edge"><title>Node10&#45;&gt;Node8</title>
<path fill="none" stroke="midnightblue" d="M612.406,-54.5371C559.11,-44.3316 479.041,-28.9992 429.52,-19.5164"/>
<polygon fill="midnightblue" stroke="midnightblue" points="611.882,-58.0003 622.361,-56.4435 613.198,-51.1252 611.882,-58.0003"/>
</g>
</g>
</svg>
        <g id="navigator" transform="translate(0 0)" fill="#404254">
                <rect fill="#f2f5e9" fill-opacity="0.5" stroke="#606060" stroke-width=".5" x="0" y="0" width="60" height="60"/>
                <use id="zoomplus" xlink:href="#zoomPlus" x="17" y="9" onmousedown="handleZoom(evt,'in')"/>
                <use id="zoomminus" xlink:href="#zoomMin" x="42" y="9" onmousedown="handleZoom(evt,'out')"/>
                <use id="reset" xlink:href="#resetDef" x="30" y="36" onmousedown="handleReset()"/>
                <g id="arrowUp" xlink:href="#dirArrow" transform="translate(30 24)" onmousedown="handlePan(0,-1)">
                  <use xlink:href="#rim" fill="#404040">
                        <set attributeName="fill" to="#808080" begin="arrowUp.mouseover" end="arrowUp.mouseout"/>
                  </use>
                  <path fill="none" stroke="white" stroke-width="1.5" d="M0,-3.0v7 M-2.5,-0.5L0,-3.0L2.5,-0.5"/>
                </g>
                <g id="arrowRight" xlink:href="#dirArrow" transform="rotate(90) translate(36 -43)" onmousedown="handlePan(1,0)">
                  <use xlink:href="#rim" fill="#404040">
                        <set attributeName="fill" to="#808080" begin="arrowRight.mouseover" end="arrowRight.mouseout"/>
                  </use>
                  <path fill="none" stroke="white" stroke-width="1.5" d="M0,-3.0v7 M-2.5,-0.5L0,-3.0L2.5,-0.5"/>
                </g>
                <g id="arrowDown" xlink:href="#dirArrow" transform="rotate(180) translate(-30 -48)" onmousedown="handlePan(0,1)">
                  <use xlink:href="#rim" fill="#404040">
                        <set attributeName="fill" to="#808080" begin="arrowDown.mouseover" end="arrowDown.mouseout"/>
                  </use>
                  <path fill="none" stroke="white" stroke-width="1.5" d="M0,-3.0v7 M-2.5,-0.5L0,-3.0L2.5,-0.5"/>
                </g>
                <g id="arrowLeft" xlink:href="#dirArrow" transform="rotate(270) translate(-36 17)" onmousedown="handlePan(-1,0)">
                  <use xlink:href="#rim" fill="#404040">
                        <set attributeName="fill" to="#808080" begin="arrowLeft.mouseover" end="arrowLeft.mouseout"/>
                  </use>
                  <path fill="none" stroke="white" stroke-width="1.5" d="M0,-3.0v7 M-2.5,-0.5L0,-3.0L2.5,-0.5"/>
                </g>
        </g>
</svg>
