<?xml version="1.0" encoding="UTF-8" standalone="no"?>
<!DOCTYPE svg PUBLIC "-//W3C//DTD SVG 1.1//EN"
 "http://www.w3.org/Graphics/SVG/1.1/DTD/svg11.dtd">
<!-- Generated by graphviz version 2.28.0 (20111025.1818)
 -->
<!-- Title: G Pages: 1 -->
<svg width="170pt" height="196pt"
 viewBox="0.00 0.00 170.00 196.00" xmlns="http://www.w3.org/2000/svg" xmlns:xlink="http://www.w3.org/1999/xlink">
<g id="graph1" class="graph" transform="scale(1 1) rotate(0) translate(4 192)">
<title>G</title>
<polygon fill="white" stroke="white" points="-4,5 -4,-192 167,-192 167,5 -4,5"/>
<!-- Node1 -->
<g id="node1" class="node"><title>Node1</title>
<polygon fill="#bfbfbf" stroke="black" points="15.5,-168.5 15.5,-187.5 146.5,-187.5 146.5,-168.5 15.5,-168.5"/>
<text text-anchor="middle" x="81" y="-175.5" font-family="Helvetica,sans-Serif" font-size="10.00">include/scheduler/lottery.h</text>
</g>
<!-- Node2 -->
<g id="node3" class="node"><title>Node2</title>
<a xlink:href="../../d5/d8b/allSchedulers_8h_source.xhtml" target="_top" xlink:title="include/scheduler/allSchedulers.h">
<polygon fill="white" stroke="black" points="0,-112.5 0,-131.5 162,-131.5 162,-112.5 0,-112.5"/>
<text text-anchor="middle" x="81" y="-119.5" font-family="Helvetica,sans-Serif" font-size="10.00">include/scheduler/allSchedulers.h</text>
</a>
</g>
<!-- Node1&#45;&gt;Node2 -->
<g id="edge2" class="edge"><title>Node1&#45;&gt;Node2</title>
<path fill="none" stroke="midnightblue" d="M81,-157.805C81,-148.91 81,-138.78 81,-131.751"/>
<polygon fill="midnightblue" stroke="midnightblue" points="77.5001,-158.083 81,-168.083 84.5001,-158.083 77.5001,-158.083"/>
</g>
<!-- Node3 -->
<g id="node5" class="node"><title>Node3</title>
<a xlink:href="../../d0/daa/kernel_8h.xhtml" target="_top" xlink:title="include/kernel.h">
<polygon fill="white" stroke="black" points="38.5,-56.5 38.5,-75.5 123.5,-75.5 123.5,-56.5 38.5,-56.5"/>
<text text-anchor="middle" x="81" y="-63.5" font-family="Helvetica,sans-Serif" font-size="10.00">include/kernel.h</text>
</a>
</g>
<!-- Node2&#45;&gt;Node3 -->
<g id="edge4" class="edge"><title>Node2&#45;&gt;Node3</title>
<path fill="none" stroke="midnightblue" d="M81,-101.805C81,-92.9102 81,-82.7798 81,-75.7511"/>
<polygon fill="midnightblue" stroke="midnightblue" points="77.5001,-102.083 81,-112.083 84.5001,-102.083 77.5001,-102.083"/>
</g>
<!-- Node4 -->
<g id="node7" class="node"><title>Node4</title>
<a xlink:href="../../d8/dc0/init_8h_source.xhtml" target="_top" xlink:title="include/init.h">
<polygon fill="white" stroke="black" points="45.5,-0.5 45.5,-19.5 116.5,-19.5 116.5,-0.5 45.5,-0.5"/>
<text text-anchor="middle" x="81" y="-7.5" font-family="Helvetica,sans-Serif" font-size="10.00">include/init.h</text>
</a>
</g>
<!-- Node3&#45;&gt;Node4 -->
<g id="edge6" class="edge"><title>Node3&#45;&gt;Node4</title>
<path fill="none" stroke="midnightblue" d="M81,-45.8045C81,-36.9102 81,-26.7798 81,-19.7511"/>
<polygon fill="midnightblue" stroke="midnightblue" points="77.5001,-46.083 81,-56.083 84.5001,-46.083 77.5001,-46.083"/>
</g>
</g>
</svg>
