<?xml version="1.0" encoding="UTF-8" standalone="no"?>
<!DOCTYPE svg PUBLIC "-//W3C//DTD SVG 1.1//EN"
 "http://www.w3.org/Graphics/SVG/1.1/DTD/svg11.dtd">
<!-- Generated by graphviz version 2.28.0 (20111025.1818)
 -->
<!-- Title: G Pages: 1 -->
<svg width="132pt" height="176pt"
 viewBox="0.00 0.00 132.00 176.00" xmlns="http://www.w3.org/2000/svg" xmlns:xlink="http://www.w3.org/1999/xlink">
<g id="graph1" class="graph" transform="scale(1 1) rotate(0) translate(4 172)">
<title>G</title>
<polygon fill="white" stroke="white" points="-4,5 -4,-172 129,-172 129,5 -4,5"/>
<!-- Node1 -->
<g id="node1" class="node"><title>Node1</title>
<polygon fill="#bfbfbf" stroke="black" points="26.5,-0.5 26.5,-19.5 97.5,-19.5 97.5,-0.5 26.5,-0.5"/>
<text text-anchor="middle" x="62" y="-7.5" font-family="Helvetica,sans-Serif" font-size="10.00">sOpOverride</text>
</g>
<!-- Node2 -->
<g id="node2" class="node"><title>Node2</title>
<a xlink:title="STL class.">
<polygon fill="white" stroke="#bfbfbf" points="32,-90.5 32,-109.5 92,-109.5 92,-90.5 32,-90.5"/>
<text text-anchor="middle" x="62" y="-97.5" font-family="Helvetica,sans-Serif" font-size="10.00">std::string</text>
</a>
</g>
<!-- Node2&#45;&gt;Node1 -->
<g id="edge2" class="edge"><title>Node2&#45;&gt;Node1</title>
<path fill="none" stroke="#9a32cd" stroke-dasharray="5,2" d="M62,-79.9784C62,-61.3096 62,-33.6696 62,-19.7241"/>
<polygon fill="#9a32cd" stroke="#9a32cd" points="58.5001,-80.2405 62,-90.2405 65.5001,-80.2405 58.5001,-80.2405"/>
<text text-anchor="middle" x="83.5" y="-63.5" font-family="Helvetica,sans-Serif" font-size="10.00"> option</text>
<text text-anchor="middle" x="83.5" y="-52.5" font-family="Helvetica,sans-Serif" font-size="10.00">section</text>
<text text-anchor="middle" x="83.5" y="-41.5" font-family="Helvetica,sans-Serif" font-size="10.00">newValue</text>
</g>
<!-- Node3 -->
<g id="node4" class="node"><title>Node3</title>
<a xlink:title="STL class.">
<polygon fill="white" stroke="#bfbfbf" points="-0.5,-148.5 -0.5,-167.5 124.5,-167.5 124.5,-148.5 -0.5,-148.5"/>
<text text-anchor="middle" x="62" y="-155.5" font-family="Helvetica,sans-Serif" font-size="10.00">std::basic_string&lt; char &gt;</text>
</a>
</g>
<!-- Node3&#45;&gt;Node2 -->
<g id="edge4" class="edge"><title>Node3&#45;&gt;Node2</title>
<path fill="none" stroke="midnightblue" d="M62,-137.953C62,-128.287 62,-117.031 62,-109.505"/>
<polygon fill="midnightblue" stroke="midnightblue" points="58.5001,-138.25 62,-148.25 65.5001,-138.25 58.5001,-138.25"/>
</g>
</g>
</svg>
