<?xml version="1.0" encoding="UTF-8" standalone="no"?>
<!DOCTYPE svg PUBLIC "-//W3C//DTD SVG 1.1//EN"
 "http://www.w3.org/Graphics/SVG/1.1/DTD/svg11.dtd">
<!-- Generated by graphviz version 2.28.0 (20111025.1818)
 -->
<!-- Title: G Pages: 1 -->
<svg width="489pt" height="232pt"
 viewBox="0.00 0.00 489.00 232.00" xmlns="http://www.w3.org/2000/svg" xmlns:xlink="http://www.w3.org/1999/xlink">
<g id="graph1" class="graph" transform="scale(1 1) rotate(0) translate(4 228)">
<title>G</title>
<polygon fill="white" stroke="white" points="-4,5 -4,-228 486,-228 486,5 -4,5"/>
<!-- Node1 -->
<g id="node1" class="node"><title>Node1</title>
<polygon fill="#bfbfbf" stroke="black" points="194,-0.5 194,-19.5 244,-19.5 244,-0.5 194,-0.5"/>
<text text-anchor="middle" x="219" y="-7.5" font-family="Helvetica,sans-Serif" font-size="10.00">cPRLru</text>
</g>
<!-- Node2 -->
<g id="node2" class="node"><title>Node2</title>
<a xlink:href="../../d7/df0/classcPRPolicy.xhtml" target="_top" xlink:title="Abstract Page Replacement Policy.">
<polygon fill="white" stroke="black" points="-0.5,-68.5 -0.5,-87.5 62.5,-87.5 62.5,-68.5 -0.5,-68.5"/>
<text text-anchor="middle" x="31" y="-75.5" font-family="Helvetica,sans-Serif" font-size="10.00">cPRPolicy</text>
</a>
</g>
<!-- Node2&#45;&gt;Node1 -->
<g id="edge2" class="edge"><title>Node2&#45;&gt;Node1</title>
<path fill="none" stroke="midnightblue" d="M65.0589,-65.0432C102.498,-51.8998 161.702,-31.1153 194.714,-19.5259"/>
<polygon fill="midnightblue" stroke="midnightblue" points="63.8538,-61.7567 55.5777,-68.3717 66.1726,-68.3616 63.8538,-61.7567"/>
</g>
<!-- Node3 -->
<g id="node4" class="node"><title>Node3</title>
<polygon fill="white" stroke="#bfbfbf" points="80.5,-68.5 80.5,-87.5 207.5,-87.5 207.5,-68.5 80.5,-68.5"/>
<text text-anchor="middle" x="144" y="-75.5" font-family="Helvetica,sans-Serif" font-size="10.00">std::list&lt; sPTEOwner * &gt;</text>
</g>
<!-- Node3&#45;&gt;Node1 -->
<g id="edge4" class="edge"><title>Node3&#45;&gt;Node1</title>
<path fill="none" stroke="#9a32cd" stroke-dasharray="5,2" d="M161.713,-61.4122C176.447,-48.4468 196.891,-30.4559 208.953,-19.8411"/>
<polygon fill="#9a32cd" stroke="#9a32cd" points="159,-59.1378 153.805,-68.3717 163.624,-64.3928 159,-59.1378"/>
<text text-anchor="middle" x="210.5" y="-41.5" font-family="Helvetica,sans-Serif" font-size="10.00"> pageHist</text>
</g>
<!-- Node4 -->
<g id="node6" class="node"><title>Node4</title>
<a xlink:href="../../d2/d96/structsPTEOwner.xhtml" target="_top" xlink:title="A struct used to associate a process with a particular page.">
<polygon fill="white" stroke="black" points="195,-136.5 195,-155.5 265,-155.5 265,-136.5 195,-136.5"/>
<text text-anchor="middle" x="230" y="-143.5" font-family="Helvetica,sans-Serif" font-size="10.00">sPTEOwner</text>
</a>
</g>
<!-- Node4&#45;&gt;Node3 -->
<g id="edge6" class="edge"><title>Node4&#45;&gt;Node3</title>
<path fill="none" stroke="#9a32cd" stroke-dasharray="5,2" d="M210.58,-130.096C193.517,-117.001 169.282,-98.4028 155.246,-87.6305"/>
<polygon fill="#9a32cd" stroke="#9a32cd" points="208.693,-133.06 218.757,-136.372 212.955,-127.507 208.693,-133.06"/>
<text text-anchor="middle" x="216.5" y="-109.5" font-family="Helvetica,sans-Serif" font-size="10.00"> elements</text>
</g>
<!-- Node6 -->
<g id="node10" class="node"><title>Node6</title>
<polygon fill="white" stroke="#bfbfbf" points="226,-68.5 226,-87.5 366,-87.5 366,-68.5 226,-68.5"/>
<text text-anchor="middle" x="296" y="-75.5" font-family="Helvetica,sans-Serif" font-size="10.00">std::queue&lt; sPTEOwner * &gt;</text>
</g>
<!-- Node4&#45;&gt;Node6 -->
<g id="edge12" class="edge"><title>Node4&#45;&gt;Node6</title>
<path fill="none" stroke="#9a32cd" stroke-dasharray="5,2" d="M245.953,-129.047C258.889,-116.111 276.643,-98.3567 287.159,-87.8411"/>
<polygon fill="#9a32cd" stroke="#9a32cd" points="243.225,-126.826 238.628,-136.372 248.174,-131.775 243.225,-126.826"/>
<text text-anchor="middle" x="290.5" y="-109.5" font-family="Helvetica,sans-Serif" font-size="10.00"> elements</text>
</g>
<!-- Node5 -->
<g id="node8" class="node"><title>Node5</title>
<a xlink:href="../../db/d4b/structsPTE.xhtml" target="_top" xlink:title="A struct representing a single page table entry.">
<polygon fill="white" stroke="black" points="209.5,-204.5 209.5,-223.5 250.5,-223.5 250.5,-204.5 209.5,-204.5"/>
<text text-anchor="middle" x="230" y="-211.5" font-family="Helvetica,sans-Serif" font-size="10.00">sPTE</text>
</a>
</g>
<!-- Node5&#45;&gt;Node4 -->
<g id="edge8" class="edge"><title>Node5&#45;&gt;Node4</title>
<path fill="none" stroke="#9a32cd" stroke-dasharray="5,2" d="M230,-194.041C230,-181.472 230,-165.563 230,-155.841"/>
<polygon fill="#9a32cd" stroke="#9a32cd" points="226.5,-194.372 230,-204.372 233.5,-194.372 226.5,-194.372"/>
<text text-anchor="middle" x="242.5" y="-177.5" font-family="Helvetica,sans-Serif" font-size="10.00"> page</text>
</g>
<!-- Node6&#45;&gt;Node1 -->
<g id="edge10" class="edge"><title>Node6&#45;&gt;Node1</title>
<path fill="none" stroke="#9a32cd" stroke-dasharray="5,2" d="M278.237,-61.7744C263.081,-48.7837 241.814,-30.5551 229.315,-19.8411"/>
<polygon fill="#9a32cd" stroke="#9a32cd" points="276.063,-64.5211 285.934,-68.3717 280.619,-59.2063 276.063,-64.5211"/>
<text text-anchor="middle" x="302.5" y="-41.5" font-family="Helvetica,sans-Serif" font-size="10.00"> pteowner_cache</text>
</g>
<!-- Node7 -->
<g id="node13" class="node"><title>Node7</title>
<a xlink:href="../../d3/dd2/classcFrameAllocPolicy.xhtml" target="_top" xlink:title="An abstract class for allocating frames to processes.">
<polygon fill="white" stroke="black" points="384,-68.5 384,-87.5 482,-87.5 482,-68.5 384,-68.5"/>
<text text-anchor="middle" x="433" y="-75.5" font-family="Helvetica,sans-Serif" font-size="10.00">cFrameAllocPolicy</text>
</a>
</g>
<!-- Node7&#45;&gt;Node1 -->
<g id="edge14" class="edge"><title>Node7&#45;&gt;Node1</title>
<path fill="none" stroke="#9a32cd" stroke-dasharray="5,2" d="M407.32,-64.1071C389.823,-55.7339 365.94,-45.0972 344,-38 310.201,-27.0665 269.823,-19.253 244.292,-14.9304"/>
<polygon fill="#9a32cd" stroke="#9a32cd" points="405.807,-67.2631 416.331,-68.4891 408.869,-60.9681 405.807,-67.2631"/>
<text text-anchor="middle" x="396.5" y="-41.5" font-family="Helvetica,sans-Serif" font-size="10.00"> FAPolicy</text>
</g>
</g>
</svg>
