<?xml version="1.0" encoding="UTF-8" standalone="no"?>
<!DOCTYPE svg PUBLIC "-//W3C//DTD SVG 1.1//EN"
 "http://www.w3.org/Graphics/SVG/1.1/DTD/svg11.dtd">
<!-- Generated by graphviz version 2.28.0 (20111025.1818)
 -->
<!-- Title: G Pages: 1 -->
<!--zoomable 364 -->
<svg id="main" version="1.1" xmlns="http://www.w3.org/2000/svg" xmlns:xlink="http://www.w3.org/1999/xlink" xml:space="preserve" onload="init(evt)">
        <defs>
                <circle id="rim" cx="0" cy="0" r="7"/>
                <circle id="rim2" cx="0" cy="0" r="3.5"/>
                <g id="zoomPlus">
                        <use xlink:href="#rim" fill="#404040">
                                <set attributeName="fill" to="#808080" begin="zoomplus.mouseover" end="zoomplus.mouseout"/>
                        </use>
                        <path d="M-4,0h8M0,-4v8" fill="none" stroke="white" stroke-width="1.5" pointer-events="none"/>
                </g>
                <g id="zoomMin">
                        <use xlink:href="#rim" fill="#404040">
                                <set attributeName="fill" to="#808080" begin="zoomminus.mouseover" end="zoomminus.mouseout"/>
                        </use>
                        <path d="M-4,0h8" fill="none" stroke="white" stroke-width="1.5" pointer-events="none"/>
                </g>
                <g id="dirArrow">
                        <path fill="none" stroke="white" stroke-width="1.5" d="M0,-3.0v7 M-2.5,-0.5L0,-3.0L2.5,-0.5"/>
                </g>
               <g id="resetDef">
                       <use xlink:href="#rim2" fill="#404040">
                               <set attributeName="fill" to="#808080" begin="reset.mouseover" end="reset.mouseout"/>
                       </use>
               </g>
        </defs>

<script type="text/javascript">
var viewWidth = 1467;
var viewHeight = 364;
var sectionId = 'dynsection-0';
</script>
<script xlink:href="../../svgpan.js"/>
<svg id="graph" class="graph">
<g id="viewport">
<title>G</title>
<polygon fill="white" stroke="white" points="-4,5 -4,-360 1464,-360 1464,5 -4,5"/>
<!-- Node1 -->
<g id="node1" class="node"><title>Node1</title>
<polygon fill="#bfbfbf" stroke="black" points="250.5,-336.5 250.5,-355.5 411.5,-355.5 411.5,-336.5 250.5,-336.5"/>
<text text-anchor="middle" x="331" y="-343.5" font-family="Helvetica,sans-Serif" font-size="10.00">include/Policy/cleaningDaemon.h</text>
</g>
<!-- Node2 -->
<g id="node3" class="node"><title>Node2</title>
<a xlink:href="../../d5/dfd/iniReader_8h.xhtml" target="_top" xlink:title="iniReader.h">
<polygon fill="white" stroke="black" points="356,-56.5 356,-75.5 422,-75.5 422,-56.5 356,-56.5"/>
<text text-anchor="middle" x="389" y="-63.5" font-family="Helvetica,sans-Serif" font-size="10.00">iniReader.h</text>
</a>
</g>
<!-- Node1&#45;&gt;Node2 -->
<g id="edge2" class="edge"><title>Node1&#45;&gt;Node2</title>
<path fill="none" stroke="midnightblue" d="M263.618,-336.495C166.839,-322.366 0,-290.03 0,-235 0,-235 0,-235 0,-177 0,-159.189 244.669,-100.442 345.925,-76.8927"/>
<polygon fill="midnightblue" stroke="midnightblue" points="346.884,-80.2633 355.834,-74.594 345.302,-73.4444 346.884,-80.2633"/>
</g>
<!-- Node10 -->
<g id="node19" class="node"><title>Node10</title>
<a xlink:href="../../dc/dff/frameAlloc_8h_source.xhtml" target="_top" xlink:title="Policy/frameAlloc.h">
<polygon fill="white" stroke="black" points="367.5,-112.5 367.5,-131.5 468.5,-131.5 468.5,-112.5 367.5,-112.5"/>
<text text-anchor="middle" x="418" y="-119.5" font-family="Helvetica,sans-Serif" font-size="10.00">Policy/frameAlloc.h</text>
</a>
</g>
<!-- Node1&#45;&gt;Node10 -->
<g id="edge18" class="edge"><title>Node1&#45;&gt;Node10</title>
<path fill="none" stroke="midnightblue" d="M331.994,-336.213C334.498,-315.871 342.042,-264.212 358,-224 370.478,-192.558 391.973,-159.462 405.563,-140.053"/>
<polygon fill="midnightblue" stroke="midnightblue" points="408.569,-141.866 411.525,-131.692 402.87,-137.802 408.569,-141.866"/>
</g>
<!-- Node16 -->
<g id="node38" class="node"><title>Node16</title>
<a xlink:href="../../d4/d9a/vmm__core_8h.xhtml" target="_top" xlink:title="vmm_core.h">
<polygon fill="white" stroke="black" points="474.5,-280.5 474.5,-299.5 545.5,-299.5 545.5,-280.5 474.5,-280.5"/>
<text text-anchor="middle" x="510" y="-287.5" font-family="Helvetica,sans-Serif" font-size="10.00">vmm_core.h</text>
</a>
</g>
<!-- Node1&#45;&gt;Node16 -->
<g id="edge44" class="edge"><title>Node1&#45;&gt;Node16</title>
<path fill="none" stroke="midnightblue" d="M354.274,-336.444C382.762,-327.241 431.241,-312.562 466.626,-302.388"/>
<polygon fill="midnightblue" stroke="midnightblue" points="468.034,-305.626 476.69,-299.516 466.113,-298.895 468.034,-305.626"/>
</g>
<!-- Node3 -->
<g id="node5" class="node"><title>Node3</title>
<polygon fill="white" stroke="#bfbfbf" points="313,-0.5 313,-19.5 361,-19.5 361,-0.5 313,-0.5"/>
<text text-anchor="middle" x="337" y="-7.5" font-family="Helvetica,sans-Serif" font-size="10.00">stdlib.h</text>
</g>
<!-- Node2&#45;&gt;Node3 -->
<g id="edge4" class="edge"><title>Node2&#45;&gt;Node3</title>
<path fill="none" stroke="midnightblue" d="M380.413,-56.083C372.841,-48.2195 361.622,-36.5688 352.486,-27.0813"/>
<polygon fill="midnightblue" stroke="midnightblue" points="354.885,-24.5266 345.427,-19.7511 349.842,-29.3821 354.885,-24.5266"/>
</g>
<!-- Node4 -->
<g id="node7" class="node"><title>Node4</title>
<polygon fill="white" stroke="#bfbfbf" points="882.5,-0.5 882.5,-19.5 923.5,-19.5 923.5,-0.5 882.5,-0.5"/>
<text text-anchor="middle" x="903" y="-7.5" font-family="Helvetica,sans-Serif" font-size="10.00">string</text>
</g>
<!-- Node2&#45;&gt;Node4 -->
<g id="edge6" class="edge"><title>Node2&#45;&gt;Node4</title>
<path fill="none" stroke="midnightblue" d="M422.406,-57.476C425.305,-56.9342 428.199,-56.4321 431,-56 596.16,-30.5192 796.206,-17.1521 871.937,-12.7105"/>
<polygon fill="midnightblue" stroke="midnightblue" points="872.408,-16.1893 882.19,-12.1195 872.005,-9.20085 872.408,-16.1893"/>
</g>
<!-- Node5 -->
<g id="node9" class="node"><title>Node5</title>
<polygon fill="white" stroke="#bfbfbf" points="379.5,-0.5 379.5,-19.5 414.5,-19.5 414.5,-0.5 379.5,-0.5"/>
<text text-anchor="middle" x="397" y="-7.5" font-family="Helvetica,sans-Serif" font-size="10.00">map</text>
</g>
<!-- Node2&#45;&gt;Node5 -->
<g id="edge8" class="edge"><title>Node2&#45;&gt;Node5</title>
<path fill="none" stroke="midnightblue" d="M390.321,-56.083C391.381,-48.9272 392.906,-38.6353 394.231,-29.6911"/>
<polygon fill="midnightblue" stroke="midnightblue" points="397.7,-30.1561 395.704,-19.7511 390.776,-29.1302 397.7,-30.1561"/>
</g>
<!-- Node6 -->
<g id="node11" class="node"><title>Node6</title>
<polygon fill="white" stroke="#bfbfbf" points="442,-0.5 442,-19.5 486,-19.5 486,-0.5 442,-0.5"/>
<text text-anchor="middle" x="464" y="-7.5" font-family="Helvetica,sans-Serif" font-size="10.00">vector</text>
</g>
<!-- Node2&#45;&gt;Node6 -->
<g id="edge10" class="edge"><title>Node2&#45;&gt;Node6</title>
<path fill="none" stroke="midnightblue" d="M401.05,-56.324C412.463,-48.1066 429.831,-35.6017 443.435,-25.8069"/>
<polygon fill="midnightblue" stroke="midnightblue" points="445.66,-28.5174 451.731,-19.8339 441.57,-22.8366 445.66,-28.5174"/>
</g>
<!-- Node7 -->
<g id="node13" class="node"><title>Node7</title>
<polygon fill="white" stroke="#bfbfbf" points="520,-0.5 520,-19.5 574,-19.5 574,-0.5 520,-0.5"/>
<text text-anchor="middle" x="547" y="-7.5" font-family="Helvetica,sans-Serif" font-size="10.00">iostream</text>
</g>
<!-- Node2&#45;&gt;Node7 -->
<g id="edge12" class="edge"><title>Node2&#45;&gt;Node7</title>
<path fill="none" stroke="midnightblue" d="M414.036,-56.4435C440.616,-47.3591 482.809,-32.9388 512.523,-22.7831"/>
<polygon fill="midnightblue" stroke="midnightblue" points="513.751,-26.0625 522.082,-19.5164 511.487,-19.4386 513.751,-26.0625"/>
</g>
<!-- Node8 -->
<g id="node15" class="node"><title>Node8</title>
<polygon fill="white" stroke="#bfbfbf" points="1126,-0.5 1126,-19.5 1178,-19.5 1178,-0.5 1126,-0.5"/>
<text text-anchor="middle" x="1152" y="-7.5" font-family="Helvetica,sans-Serif" font-size="10.00">sstream</text>
</g>
<!-- Node2&#45;&gt;Node8 -->
<g id="edge14" class="edge"><title>Node2&#45;&gt;Node8</title>
<path fill="none" stroke="midnightblue" d="M422.388,-57.3556C425.291,-56.8399 428.191,-56.3767 431,-56 716.444,-17.7121 791.122,-45.399 1078,-20 1090.26,-18.9142 1103.63,-17.3925 1115.59,-15.9089"/>
<polygon fill="midnightblue" stroke="midnightblue" points="1116.19,-19.3604 1125.67,-14.6268 1115.31,-12.4163 1116.19,-19.3604"/>
</g>
<!-- Node9 -->
<g id="node17" class="node"><title>Node9</title>
<polygon fill="white" stroke="#bfbfbf" points="624,-0.5 624,-19.5 674,-19.5 674,-0.5 624,-0.5"/>
<text text-anchor="middle" x="649" y="-7.5" font-family="Helvetica,sans-Serif" font-size="10.00">fstream</text>
</g>
<!-- Node2&#45;&gt;Node9 -->
<g id="edge16" class="edge"><title>Node2&#45;&gt;Node9</title>
<path fill="none" stroke="midnightblue" d="M422.01,-57.9019C425.049,-57.2559 428.081,-56.614 431,-56 495.459,-42.4411 570.722,-26.989 613.828,-18.1753"/>
<polygon fill="midnightblue" stroke="midnightblue" points="614.714,-21.5667 623.811,-16.1354 613.313,-14.7084 614.714,-21.5667"/>
</g>
<!-- Node10&#45;&gt;Node2 -->
<g id="edge22" class="edge"><title>Node10&#45;&gt;Node2</title>
<path fill="none" stroke="midnightblue" d="M413.211,-112.083C409.242,-104.691 403.475,-93.9533 398.565,-84.8111"/>
<polygon fill="midnightblue" stroke="midnightblue" points="401.514,-82.9051 393.7,-75.7511 395.347,-86.217 401.514,-82.9051"/>
</g>
<!-- Node11 -->
<g id="node21" class="node"><title>Node11</title>
<polygon fill="white" stroke="#bfbfbf" points="210,-56.5 210,-75.5 338,-75.5 338,-56.5 210,-56.5"/>
<text text-anchor="middle" x="274" y="-63.5" font-family="Helvetica,sans-Serif" font-size="10.00">boost/dynamic_bitset.hpp</text>
</g>
<!-- Node10&#45;&gt;Node11 -->
<g id="edge20" class="edge"><title>Node10&#45;&gt;Node11</title>
<path fill="none" stroke="midnightblue" d="M395.183,-112.444C371.168,-103.438 333.171,-89.1891 306.131,-79.049"/>
<polygon fill="midnightblue" stroke="midnightblue" points="307.303,-75.7506 296.71,-75.5164 304.845,-82.3049 307.303,-75.7506"/>
</g>
<!-- Node12 -->
<g id="node24" class="node"><title>Node12</title>
<a xlink:href="../../d5/dee/data__structs_8h.xhtml" target="_top" xlink:title="data_structs.h">
<polygon fill="white" stroke="black" points="507.5,-56.5 507.5,-75.5 586.5,-75.5 586.5,-56.5 507.5,-56.5"/>
<text text-anchor="middle" x="547" y="-63.5" font-family="Helvetica,sans-Serif" font-size="10.00">data_structs.h</text>
</a>
</g>
<!-- Node10&#45;&gt;Node12 -->
<g id="edge24" class="edge"><title>Node10&#45;&gt;Node12</title>
<path fill="none" stroke="midnightblue" d="M438.44,-112.444C459.67,-103.557 493.099,-89.5632 517.255,-79.4514"/>
<polygon fill="midnightblue" stroke="midnightblue" points="518.782,-82.6064 526.655,-75.5164 516.079,-76.1493 518.782,-82.6064"/>
</g>
<!-- Node14 -->
<g id="node32" class="node"><title>Node14</title>
<a xlink:href="../../d1/d8c/logger_8h.xhtml" target="_top" xlink:title="utility/logger.h">
<polygon fill="white" stroke="black" points="643.5,-56.5 643.5,-75.5 720.5,-75.5 720.5,-56.5 643.5,-56.5"/>
<text text-anchor="middle" x="682" y="-63.5" font-family="Helvetica,sans-Serif" font-size="10.00">utility/logger.h</text>
</a>
</g>
<!-- Node10&#45;&gt;Node14 -->
<g id="edge36" class="edge"><title>Node10&#45;&gt;Node14</title>
<path fill="none" stroke="midnightblue" d="M459.832,-112.444C507.031,-102.789 583.693,-87.1082 633.481,-76.9243"/>
<polygon fill="midnightblue" stroke="midnightblue" points="634.275,-80.3346 643.37,-74.9015 632.872,-73.4766 634.275,-80.3346"/>
</g>
<!-- Node12&#45;&gt;Node4 -->
<g id="edge28" class="edge"><title>Node12&#45;&gt;Node4</title>
<path fill="none" stroke="midnightblue" d="M586.801,-58.9627C658.472,-48.0914 807.761,-25.4463 872.244,-15.6653"/>
<polygon fill="midnightblue" stroke="midnightblue" points="872.834,-19.1158 882.196,-14.1556 871.784,-12.195 872.834,-19.1158"/>
</g>
<!-- Node12&#45;&gt;Node6 -->
<g id="edge26" class="edge"><title>Node12&#45;&gt;Node6</title>
<path fill="none" stroke="midnightblue" d="M533.665,-56.324C520.838,-47.979 501.215,-35.2122 486.06,-25.3524"/>
<polygon fill="midnightblue" stroke="midnightblue" points="487.593,-22.1742 477.302,-19.6545 483.776,-28.0417 487.593,-22.1742"/>
</g>
<!-- Node12&#45;&gt;Node7 -->
<g id="edge32" class="edge"><title>Node12&#45;&gt;Node7</title>
<path fill="none" stroke="midnightblue" d="M547,-56.083C547,-49.0059 547,-38.8611 547,-29.9865"/>
<polygon fill="midnightblue" stroke="midnightblue" points="550.5,-29.751 547,-19.7511 543.5,-29.7511 550.5,-29.751"/>
</g>
<!-- Node12&#45;&gt;Node8 -->
<g id="edge30" class="edge"><title>Node12&#45;&gt;Node8</title>
<path fill="none" stroke="midnightblue" d="M586.828,-60.6924C601.633,-59.1406 618.577,-57.4228 634,-56 831.144,-37.8128 881.027,-39.9553 1078,-20 1090.25,-18.759 1103.61,-17.1975 1115.57,-15.7251"/>
<polygon fill="midnightblue" stroke="midnightblue" points="1116.17,-19.1779 1125.66,-14.4643 1115.3,-12.232 1116.17,-19.1779"/>
</g>
<!-- Node13 -->
<g id="node30" class="node"><title>Node13</title>
<polygon fill="white" stroke="#bfbfbf" points="152.5,-0.5 152.5,-19.5 211.5,-19.5 211.5,-0.5 152.5,-0.5"/>
<text text-anchor="middle" x="182" y="-7.5" font-family="Helvetica,sans-Serif" font-size="10.00">inttypes.h</text>
</g>
<!-- Node12&#45;&gt;Node13 -->
<g id="edge34" class="edge"><title>Node12&#45;&gt;Node13</title>
<path fill="none" stroke="midnightblue" d="M507.443,-57.5935C504.251,-57.0388 501.073,-56.5008 498,-56 398.937,-39.8556 281.868,-24.0299 221.861,-16.1535"/>
<polygon fill="midnightblue" stroke="midnightblue" points="222.055,-12.6492 211.686,-14.8224 221.147,-19.5901 222.055,-12.6492"/>
</g>
<!-- Node14&#45;&gt;Node7 -->
<g id="edge40" class="edge"><title>Node14&#45;&gt;Node7</title>
<path fill="none" stroke="midnightblue" d="M660.609,-56.4435C638.293,-47.5171 603.097,-33.4387 577.792,-23.3168"/>
<polygon fill="midnightblue" stroke="midnightblue" points="578.876,-19.9807 568.291,-19.5164 576.276,-26.4801 578.876,-19.9807"/>
</g>
<!-- Node14&#45;&gt;Node9 -->
<g id="edge42" class="edge"><title>Node14&#45;&gt;Node9</title>
<path fill="none" stroke="midnightblue" d="M676.551,-56.083C671.986,-48.6127 665.332,-37.7244 659.707,-28.5199"/>
<polygon fill="midnightblue" stroke="midnightblue" points="662.549,-26.4588 654.348,-19.7511 656.576,-30.109 662.549,-26.4588"/>
</g>
<!-- Node15 -->
<g id="node34" class="node"><title>Node15</title>
<polygon fill="white" stroke="#bfbfbf" points="1017,-0.5 1017,-19.5 1069,-19.5 1069,-0.5 1017,-0.5"/>
<text text-anchor="middle" x="1043" y="-7.5" font-family="Helvetica,sans-Serif" font-size="10.00">assert.h</text>
</g>
<!-- Node14&#45;&gt;Node15 -->
<g id="edge38" class="edge"><title>Node14&#45;&gt;Node15</title>
<path fill="none" stroke="midnightblue" d="M720.748,-57.5884C723.875,-57.0348 726.989,-56.4985 730,-56 829.937,-39.4547 948.416,-23.3823 1006.79,-15.6965"/>
<polygon fill="midnightblue" stroke="midnightblue" points="1007.51,-19.1318 1016.97,-14.3608 1006.6,-12.1913 1007.51,-19.1318"/>
</g>
<!-- Node16&#45;&gt;Node1 -->
<g id="edge174" class="edge"><title>Node16&#45;&gt;Node1</title>
<path fill="none" stroke="midnightblue" d="M486.85,-299.516C458.298,-308.743 409.535,-323.507 374.073,-333.699"/>
<polygon fill="midnightblue" stroke="midnightblue" points="373.108,-330.334 364.452,-336.444 375.028,-337.066 373.108,-330.334"/>
</g>
<!-- Node16&#45;&gt;Node2 -->
<g id="edge88" class="edge"><title>Node16&#45;&gt;Node2</title>
<path fill="none" stroke="midnightblue" d="M474.456,-285.387C436.897,-280.391 376.871,-268.977 331,-244 268.341,-209.882 243.006,-198.037 216,-132 212.635,-123.772 210.563,-119.032 216,-112 220.062,-106.746 296.066,-88.3929 345.97,-76.8113"/>
<polygon fill="midnightblue" stroke="midnightblue" points="346.925,-80.1828 355.88,-74.5205 345.349,-73.3626 346.925,-80.1828"/>
</g>
<!-- Node16&#45;&gt;Node4 -->
<g id="edge54" class="edge"><title>Node16&#45;&gt;Node4</title>
<path fill="none" stroke="midnightblue" d="M545.525,-287.959C598.592,-285.344 700.894,-276.169 781,-244 889.359,-200.486 948.704,-187.62 983,-76 985.611,-67.5031 987.488,-63.673 983,-56 972.275,-37.6621 951.026,-26.22 933.121,-19.4646"/>
<polygon fill="midnightblue" stroke="midnightblue" points="934.202,-16.1348 923.607,-16.1797 931.917,-22.7516 934.202,-16.1348"/>
</g>
<!-- Node16&#45;&gt;Node6 -->
<g id="edge48" class="edge"><title>Node16&#45;&gt;Node6</title>
<path fill="none" stroke="midnightblue" d="M474.228,-289.432C423.084,-288.601 327.468,-281.569 257,-244 159.671,-192.11 21.3853,-138.136 95,-56 143.94,-1.39504 350.642,-31.8778 423,-20 425.899,-19.5241 428.902,-18.9749 431.903,-18.3874"/>
<polygon fill="midnightblue" stroke="midnightblue" points="432.879,-21.7594 441.954,-16.2923 431.45,-14.9067 432.879,-21.7594"/>
</g>
<!-- Node16&#45;&gt;Node8 -->
<g id="edge60" class="edge"><title>Node16&#45;&gt;Node8</title>
<path fill="none" stroke="midnightblue" d="M545.896,-289.101C684.528,-289.176 1184.82,-286.437 1337,-244 1396.18,-227.497 1459,-240.438 1459,-179 1459,-179 1459,-179 1459,-121 1459,-64.1069 1269.79,-28.7474 1188.45,-16.1757"/>
<polygon fill="midnightblue" stroke="midnightblue" points="1188.59,-12.6563 1178.17,-14.6203 1187.54,-19.5775 1188.59,-12.6563"/>
</g>
<!-- Node16&#45;&gt;Node10 -->
<g id="edge172" class="edge"><title>Node16&#45;&gt;Node10</title>
<path fill="none" stroke="midnightblue" d="M495.616,-280.385C483.424,-272.386 466.323,-259.412 456,-244 434.429,-211.796 424.556,-166.665 420.493,-141.614"/>
<polygon fill="midnightblue" stroke="midnightblue" points="423.942,-141.015 419.013,-131.636 417.018,-142.041 423.942,-141.015"/>
</g>
<!-- Node16&#45;&gt;Node11 -->
<g id="edge62" class="edge"><title>Node16&#45;&gt;Node11</title>
<path fill="none" stroke="midnightblue" d="M474.491,-287.456C429.692,-284.248 351.34,-274.376 292,-244 259.24,-227.23 251.818,-218.35 231,-188 211.109,-159.002 192.68,-143.148 209,-112 216.279,-98.1082 230.009,-87.6523 242.983,-80.3328"/>
<polygon fill="midnightblue" stroke="midnightblue" points="244.928,-83.2662 252.192,-75.553 241.704,-77.0532 244.928,-83.2662"/>
</g>
<!-- Node16&#45;&gt;Node12 -->
<g id="edge86" class="edge"><title>Node16&#45;&gt;Node12</title>
<path fill="none" stroke="midnightblue" d="M511.45,-280.297C516.895,-247.633 536.189,-131.866 543.84,-85.9573"/>
<polygon fill="midnightblue" stroke="midnightblue" points="547.328,-86.3231 545.519,-75.8837 540.423,-85.1723 547.328,-86.3231"/>
</g>
<!-- Node16&#45;&gt;Node13 -->
<g id="edge58" class="edge"><title>Node16&#45;&gt;Node13</title>
<path fill="none" stroke="midnightblue" d="M474.136,-288.306C363.988,-285.214 38,-268.504 38,-179 38,-179 38,-179 38,-121 38,-68.1731 99.9565,-37.3206 142.59,-22.3438"/>
<polygon fill="midnightblue" stroke="midnightblue" points="143.797,-25.6307 152.163,-19.13 141.569,-18.9947 143.797,-25.6307"/>
</g>
<!-- Node17 -->
<g id="node40" class="node"><title>Node17</title>
<polygon fill="white" stroke="#bfbfbf" points="367.5,-224.5 367.5,-243.5 408.5,-243.5 408.5,-224.5 367.5,-224.5"/>
<text text-anchor="middle" x="388" y="-231.5" font-family="Helvetica,sans-Serif" font-size="10.00">ctime</text>
</g>
<!-- Node16&#45;&gt;Node17 -->
<g id="edge46" class="edge"><title>Node16&#45;&gt;Node17</title>
<path fill="none" stroke="midnightblue" d="M490.669,-280.444C470.68,-271.596 439.257,-257.687 416.436,-247.586"/>
<polygon fill="midnightblue" stroke="midnightblue" points="417.802,-244.363 407.241,-243.516 414.968,-250.764 417.802,-244.363"/>
</g>
<!-- Node18 -->
<g id="node43" class="node"><title>Node18</title>
<polygon fill="white" stroke="#bfbfbf" points="1204.5,-56.5 1204.5,-75.5 1247.5,-75.5 1247.5,-56.5 1204.5,-56.5"/>
<text text-anchor="middle" x="1226" y="-63.5" font-family="Helvetica,sans-Serif" font-size="10.00">queue</text>
</g>
<!-- Node16&#45;&gt;Node18 -->
<g id="edge50" class="edge"><title>Node16&#45;&gt;Node18</title>
<path fill="none" stroke="midnightblue" d="M545.589,-288.664C677.477,-287.151 1138.05,-279.393 1280,-244 1337.89,-229.566 1369.79,-238.222 1402,-188 1441.07,-127.07 1318.22,-88.7063 1257.67,-73.9218"/>
<polygon fill="midnightblue" stroke="midnightblue" points="1258.37,-70.4902 1247.83,-71.5928 1256.76,-77.302 1258.37,-70.4902"/>
</g>
<!-- Node19 -->
<g id="node45" class="node"><title>Node19</title>
<polygon fill="white" stroke="#bfbfbf" points="465.5,-224.5 465.5,-243.5 506.5,-243.5 506.5,-224.5 465.5,-224.5"/>
<text text-anchor="middle" x="486" y="-231.5" font-family="Helvetica,sans-Serif" font-size="10.00">bitset</text>
</g>
<!-- Node16&#45;&gt;Node19 -->
<g id="edge52" class="edge"><title>Node16&#45;&gt;Node19</title>
<path fill="none" stroke="midnightblue" d="M506.037,-280.083C502.787,-272.77 498.081,-262.181 494.046,-253.103"/>
<polygon fill="midnightblue" stroke="midnightblue" points="497.149,-251.468 489.889,-243.751 490.752,-254.311 497.149,-251.468"/>
</g>
<!-- Node20 -->
<g id="node48" class="node"><title>Node20</title>
<polygon fill="white" stroke="#bfbfbf" points="104.5,-56.5 104.5,-75.5 153.5,-75.5 153.5,-56.5 104.5,-56.5"/>
<text text-anchor="middle" x="129" y="-63.5" font-family="Helvetica,sans-Serif" font-size="10.00">string.h</text>
</g>
<!-- Node16&#45;&gt;Node20 -->
<g id="edge56" class="edge"><title>Node16&#45;&gt;Node20</title>
<path fill="none" stroke="midnightblue" d="M474.486,-285.865C413.759,-279.987 293.03,-265.892 257,-244 193.581,-205.466 152.326,-122.423 136.407,-85.4297"/>
<polygon fill="midnightblue" stroke="midnightblue" points="139.515,-83.7905 132.436,-75.908 133.055,-86.4848 139.515,-83.7905"/>
</g>
<!-- Node21 -->
<g id="node53" class="node"><title>Node21</title>
<a xlink:href="../../dc/da7/cpu_8h.xhtml" target="_top" xlink:title="cpu.h">
<polygon fill="white" stroke="black" points="280.5,-168.5 280.5,-187.5 321.5,-187.5 321.5,-168.5 280.5,-168.5"/>
<text text-anchor="middle" x="301" y="-175.5" font-family="Helvetica,sans-Serif" font-size="10.00">cpu.h</text>
</a>
</g>
<!-- Node16&#45;&gt;Node21 -->
<g id="edge64" class="edge"><title>Node16&#45;&gt;Node21</title>
<path fill="none" stroke="midnightblue" d="M474.257,-285.311C439.65,-280.168 387.362,-268.554 349,-244 329.896,-231.772 313.483,-211.329 305.093,-196.632"/>
<polygon fill="midnightblue" stroke="midnightblue" points="308.182,-194.98 300.633,-187.546 301.898,-198.065 308.182,-194.98"/>
</g>
<!-- Node24 -->
<g id="node69" class="node"><title>Node24</title>
<a xlink:href="../../d4/d03/exceptions_8h.xhtml" target="_top" xlink:title="exceptions.h">
<polygon fill="white" stroke="black" points="739,-56.5 739,-75.5 811,-75.5 811,-56.5 739,-56.5"/>
<text text-anchor="middle" x="775" y="-63.5" font-family="Helvetica,sans-Serif" font-size="10.00">exceptions.h</text>
</a>
</g>
<!-- Node16&#45;&gt;Node24 -->
<g id="edge90" class="edge"><title>Node16&#45;&gt;Node24</title>
<path fill="none" stroke="midnightblue" d="M545.886,-286.897C593.054,-283.076 677.688,-272.532 744,-244 783.201,-227.133 802.518,-225.97 822,-188 840.417,-152.106 810.094,-107.244 790.191,-83.5079"/>
<polygon fill="midnightblue" stroke="midnightblue" points="792.653,-81.0058 783.44,-75.7747 787.38,-85.6096 792.653,-81.0058"/>
</g>
<!-- Node25 -->
<g id="node71" class="node"><title>Node25</title>
<a xlink:href="../../d9/dd2/round__robin_8h.xhtml" target="_top" xlink:title="round_robin.h">
<polygon fill="white" stroke="black" points="738.5,-168.5 738.5,-187.5 813.5,-187.5 813.5,-168.5 738.5,-168.5"/>
<text text-anchor="middle" x="776" y="-175.5" font-family="Helvetica,sans-Serif" font-size="10.00">round_robin.h</text>
</a>
</g>
<!-- Node16&#45;&gt;Node25 -->
<g id="edge92" class="edge"><title>Node16&#45;&gt;Node25</title>
<path fill="none" stroke="midnightblue" d="M545.678,-287.791C588.913,-284.914 662.706,-275.369 717,-244 737.326,-232.256 754.552,-211.113 765.05,-196.133"/>
<polygon fill="midnightblue" stroke="midnightblue" points="768.015,-197.994 770.684,-187.741 762.204,-194.092 768.015,-197.994"/>
</g>
<!-- Node29 -->
<g id="node85" class="node"><title>Node29</title>
<a xlink:href="../../d7/d62/io__control_8h_source.xhtml" target="_top" xlink:title="io_control.h">
<polygon fill="white" stroke="black" points="639.5,-112.5 639.5,-131.5 706.5,-131.5 706.5,-112.5 639.5,-112.5"/>
<text text-anchor="middle" x="673" y="-119.5" font-family="Helvetica,sans-Serif" font-size="10.00">io_control.h</text>
</a>
</g>
<!-- Node16&#45;&gt;Node29 -->
<g id="edge112" class="edge"><title>Node16&#45;&gt;Node29</title>
<path fill="none" stroke="midnightblue" d="M543.317,-280.488C584.569,-267.959 653.043,-240.179 683,-188 691.245,-173.64 686.938,-154.688 681.655,-140.957"/>
<polygon fill="midnightblue" stroke="midnightblue" points="684.804,-139.421 677.617,-131.636 678.381,-142.204 684.804,-139.421"/>
</g>
<!-- Node30 -->
<g id="node94" class="node"><title>Node30</title>
<a xlink:href="../../d1/df8/allPR_8h_source.xhtml" target="_top" xlink:title="Policy/allPR.h">
<polygon fill="white" stroke="black" points="1135.5,-224.5 1135.5,-243.5 1214.5,-243.5 1214.5,-224.5 1135.5,-224.5"/>
<text text-anchor="middle" x="1175" y="-231.5" font-family="Helvetica,sans-Serif" font-size="10.00">Policy/allPR.h</text>
</a>
</g>
<!-- Node16&#45;&gt;Node30 -->
<g id="edge128" class="edge"><title>Node16&#45;&gt;Node30</title>
<path fill="none" stroke="midnightblue" d="M545.579,-287.521C639.745,-283.36 903.185,-270.117 1121,-244 1122.3,-243.844 1123.62,-243.679 1124.95,-243.506"/>
<polygon fill="midnightblue" stroke="midnightblue" points="1125.84,-246.915 1135.25,-242.05 1124.86,-239.984 1125.84,-246.915"/>
</g>
<!-- Node37 -->
<g id="node121" class="node"><title>Node37</title>
<a xlink:href="../../de/d9a/strConv_8h_source.xhtml" target="_top" xlink:title="utility/strConv.h">
<polygon fill="white" stroke="black" points="993,-224.5 993,-243.5 1079,-243.5 1079,-224.5 993,-224.5"/>
<text text-anchor="middle" x="1036" y="-231.5" font-family="Helvetica,sans-Serif" font-size="10.00">utility/strConv.h</text>
</a>
</g>
<!-- Node16&#45;&gt;Node37 -->
<g id="edge168" class="edge"><title>Node16&#45;&gt;Node37</title>
<path fill="none" stroke="midnightblue" d="M545.678,-286.323C624.177,-280.271 817.719,-264.451 979,-244 980.258,-243.84 981.531,-243.675 982.814,-243.504"/>
<polygon fill="midnightblue" stroke="midnightblue" points="983.362,-246.961 992.78,-242.108 982.391,-240.029 983.362,-246.961"/>
</g>
<!-- Node21&#45;&gt;Node2 -->
<g id="edge80" class="edge"><title>Node21&#45;&gt;Node2</title>
<path fill="none" stroke="midnightblue" d="M302.51,-168.196C305.151,-154.884 311.649,-129.351 325,-112 334.931,-99.0931 349.599,-88.4052 362.387,-80.689"/>
<polygon fill="midnightblue" stroke="midnightblue" points="364.33,-83.6097 371.273,-75.6063 360.855,-77.5336 364.33,-83.6097"/>
</g>
<!-- Node21&#45;&gt;Node12 -->
<g id="edge78" class="edge"><title>Node21&#45;&gt;Node12</title>
<path fill="none" stroke="midnightblue" d="M306.091,-168.31C314.834,-154.193 334.089,-126.408 358,-112 369.951,-104.799 445.414,-88.1063 497.292,-77.2009"/>
<polygon fill="midnightblue" stroke="midnightblue" points="498.256,-80.5751 507.328,-75.1015 496.823,-73.7234 498.256,-80.5751"/>
</g>
<!-- Node21&#45;&gt;Node14 -->
<g id="edge82" class="edge"><title>Node21&#45;&gt;Node14</title>
<path fill="none" stroke="midnightblue" d="M321.683,-176.337C401.782,-173.558 688.445,-161.598 715,-132 727.979,-117.534 713.512,-97.0346 699.857,-82.9451"/>
<polygon fill="midnightblue" stroke="midnightblue" points="702.153,-80.2965 692.534,-75.8561 697.285,-85.3261 702.153,-80.2965"/>
</g>
<!-- Node21&#45;&gt;Node16 -->
<g id="edge84" class="edge"><title>Node21&#45;&gt;Node16</title>
<path fill="none" stroke="midnightblue" d="M311.729,-187.546C324.051,-201.457 343.487,-228.95 367,-244 396.755,-263.045 434.887,-274.305 464.379,-280.798"/>
<polygon fill="midnightblue" stroke="midnightblue" points="463.918,-284.278 474.423,-282.901 465.353,-277.426 463.918,-284.278"/>
</g>
<!-- Node22 -->
<g id="node55" class="node"><title>Node22</title>
<a xlink:href="../../d2/df1/mmu_8h.xhtml" target="_top" xlink:title="mmu.h">
<polygon fill="white" stroke="black" points="225.5,-112.5 225.5,-131.5 272.5,-131.5 272.5,-112.5 225.5,-112.5"/>
<text text-anchor="middle" x="249" y="-119.5" font-family="Helvetica,sans-Serif" font-size="10.00">mmu.h</text>
</a>
</g>
<!-- Node21&#45;&gt;Node22 -->
<g id="edge66" class="edge"><title>Node21&#45;&gt;Node22</title>
<path fill="none" stroke="midnightblue" d="M292.413,-168.083C284.841,-160.22 273.622,-148.569 264.486,-139.081"/>
<polygon fill="midnightblue" stroke="midnightblue" points="266.885,-136.527 257.427,-131.751 261.842,-141.382 266.885,-136.527"/>
</g>
<!-- Node22&#45;&gt;Node2 -->
<g id="edge76" class="edge"><title>Node22&#45;&gt;Node2</title>
<path fill="none" stroke="midnightblue" d="M271.183,-112.444C294.428,-103.478 331.149,-89.314 357.415,-79.1827"/>
<polygon fill="midnightblue" stroke="midnightblue" points="358.85,-82.3807 366.92,-75.5164 356.331,-75.8497 358.85,-82.3807"/>
</g>
<!-- Node22&#45;&gt;Node12 -->
<g id="edge74" class="edge"><title>Node22&#45;&gt;Node12</title>
<path fill="none" stroke="midnightblue" d="M272.693,-116.741C315.362,-109.067 408.206,-92.3455 497.408,-76.1036"/>
<polygon fill="midnightblue" stroke="midnightblue" points="498.211,-79.5151 507.421,-74.2795 496.956,-72.6284 498.211,-79.5151"/>
</g>
<!-- Node22&#45;&gt;Node13 -->
<g id="edge72" class="edge"><title>Node22&#45;&gt;Node13</title>
<path fill="none" stroke="midnightblue" d="M236.598,-112.399C225.709,-104.228 210.21,-90.9875 201,-76 192.248,-61.7573 187.357,-43.284 184.737,-29.6734"/>
<polygon fill="midnightblue" stroke="midnightblue" points="188.15,-28.863 183.037,-19.5838 181.248,-30.0265 188.15,-28.863"/>
</g>
<!-- Node22&#45;&gt;Node20 -->
<g id="edge70" class="edge"><title>Node22&#45;&gt;Node20</title>
<path fill="none" stroke="midnightblue" d="M229.986,-112.444C210.412,-103.636 179.692,-89.8116 157.271,-79.722"/>
<polygon fill="midnightblue" stroke="midnightblue" points="158.481,-76.4284 147.925,-75.5164 155.608,-82.8119 158.481,-76.4284"/>
</g>
<!-- Node23 -->
<g id="node57" class="node"><title>Node23</title>
<polygon fill="white" stroke="#bfbfbf" points="440.5,-56.5 440.5,-75.5 489.5,-75.5 489.5,-56.5 440.5,-56.5"/>
<text text-anchor="middle" x="465" y="-63.5" font-family="Helvetica,sans-Serif" font-size="10.00">cassert</text>
</g>
<!-- Node22&#45;&gt;Node23 -->
<g id="edge68" class="edge"><title>Node22&#45;&gt;Node23</title>
<path fill="none" stroke="midnightblue" d="M272.59,-115.298C305.626,-107.285 367.784,-92.1052 430.792,-76.0204"/>
<polygon fill="midnightblue" stroke="midnightblue" points="431.678,-79.4065 440.498,-73.5369 429.943,-72.6249 431.678,-79.4065"/>
</g>
<!-- Node25&#45;&gt;Node2 -->
<g id="edge96" class="edge"><title>Node25&#45;&gt;Node2</title>
<path fill="none" stroke="midnightblue" d="M739.5,-168.464C703.214,-159.828 646.04,-145.815 597,-132 535.94,-114.799 465.634,-92.2457 424.389,-78.7306"/>
<polygon fill="midnightblue" stroke="midnightblue" points="425.394,-75.3767 414.801,-75.58 423.209,-82.0269 425.394,-75.3767"/>
</g>
<!-- Node25&#45;&gt;Node12 -->
<g id="edge98" class="edge"><title>Node25&#45;&gt;Node12</title>
<path fill="none" stroke="midnightblue" d="M738.237,-169.369C707.858,-162.302 664.671,-150.124 630,-132 604.585,-118.715 579.188,-97.3419 563.307,-82.7588"/>
<polygon fill="midnightblue" stroke="midnightblue" points="565.609,-80.1189 555.921,-75.8304 560.82,-85.2244 565.609,-80.1189"/>
</g>
<!-- Node25&#45;&gt;Node14 -->
<g id="edge110" class="edge"><title>Node25&#45;&gt;Node14</title>
<path fill="none" stroke="midnightblue" d="M776.985,-168.098C777.994,-154.66 778.003,-128.963 766,-112 755.295,-96.8723 737.876,-86.3675 721.668,-79.3363"/>
<polygon fill="midnightblue" stroke="midnightblue" points="722.908,-76.063 712.324,-75.5892 720.303,-82.56 722.908,-76.063"/>
</g>
<!-- Node25&#45;&gt;Node15 -->
<g id="edge94" class="edge"><title>Node25&#45;&gt;Node15</title>
<path fill="none" stroke="midnightblue" d="M813.639,-173.738C849.804,-169.12 904.745,-158.095 945,-132 986.435,-105.14 1018.63,-55.0067 1033.68,-28.4875"/>
<polygon fill="midnightblue" stroke="midnightblue" points="1036.83,-30.0251 1038.59,-19.5778 1030.7,-26.646 1036.83,-30.0251"/>
</g>
<!-- Node26 -->
<g id="node76" class="node"><title>Node26</title>
<a xlink:href="../../df/db9/id_8h.xhtml" target="_top" xlink:title="utility/id.h">
<polygon fill="white" stroke="black" points="877.5,-112.5 877.5,-131.5 936.5,-131.5 936.5,-112.5 877.5,-112.5"/>
<text text-anchor="middle" x="907" y="-119.5" font-family="Helvetica,sans-Serif" font-size="10.00">utility/id.h</text>
</a>
</g>
<!-- Node25&#45;&gt;Node26 -->
<g id="edge100" class="edge"><title>Node25&#45;&gt;Node26</title>
<path fill="none" stroke="midnightblue" d="M796.757,-168.444C818.316,-159.557 852.263,-145.563 876.794,-135.451"/>
<polygon fill="midnightblue" stroke="midnightblue" points="878.428,-138.563 886.34,-131.516 875.761,-132.092 878.428,-138.563"/>
</g>
<!-- Node26&#45;&gt;Node4 -->
<g id="edge106" class="edge"><title>Node26&#45;&gt;Node4</title>
<path fill="none" stroke="midnightblue" d="M906.686,-112.368C906.041,-94.617 904.552,-53.6664 903.676,-29.5974"/>
<polygon fill="midnightblue" stroke="midnightblue" points="907.174,-29.4576 903.312,-19.5914 900.178,-29.712 907.174,-29.4576"/>
</g>
<!-- Node26&#45;&gt;Node18 -->
<g id="edge108" class="edge"><title>Node26&#45;&gt;Node18</title>
<path fill="none" stroke="midnightblue" d="M936.724,-115.968C996.964,-105.771 1132.94,-82.7527 1194.58,-72.3193"/>
<polygon fill="midnightblue" stroke="midnightblue" points="1195.22,-75.7598 1204.5,-70.6398 1194.05,-68.858 1195.22,-75.7598"/>
</g>
<!-- Node27 -->
<g id="node78" class="node"><title>Node27</title>
<polygon fill="white" stroke="#bfbfbf" points="931.5,-56.5 931.5,-75.5 974.5,-75.5 974.5,-56.5 931.5,-56.5"/>
<text text-anchor="middle" x="953" y="-63.5" font-family="Helvetica,sans-Serif" font-size="10.00">cstdio</text>
</g>
<!-- Node26&#45;&gt;Node27 -->
<g id="edge102" class="edge"><title>Node26&#45;&gt;Node27</title>
<path fill="none" stroke="midnightblue" d="M914.596,-112.083C921.227,-104.298 931.021,-92.8015 939.058,-83.3665"/>
<polygon fill="midnightblue" stroke="midnightblue" points="941.725,-85.6332 945.545,-75.7511 936.396,-81.0939 941.725,-85.6332"/>
</g>
<!-- Node28 -->
<g id="node80" class="node"><title>Node28</title>
<polygon fill="white" stroke="#bfbfbf" points="829.5,-56.5 829.5,-75.5 874.5,-75.5 874.5,-56.5 829.5,-56.5"/>
<text text-anchor="middle" x="852" y="-63.5" font-family="Helvetica,sans-Serif" font-size="10.00">climits</text>
</g>
<!-- Node26&#45;&gt;Node28 -->
<g id="edge104" class="edge"><title>Node26&#45;&gt;Node28</title>
<path fill="none" stroke="midnightblue" d="M897.918,-112.083C889.829,-104.141 877.805,-92.3354 868.09,-82.7973"/>
<polygon fill="midnightblue" stroke="midnightblue" points="870.501,-80.2595 860.913,-75.7511 865.597,-85.2545 870.501,-80.2595"/>
</g>
<!-- Node29&#45;&gt;Node2 -->
<g id="edge120" class="edge"><title>Node29&#45;&gt;Node2</title>
<path fill="none" stroke="midnightblue" d="M639.276,-115.028C594.383,-107.014 512.262,-92.1258 432.651,-76.291"/>
<polygon fill="midnightblue" stroke="midnightblue" points="432.945,-72.7806 422.454,-74.2545 431.575,-79.6451 432.945,-72.7806"/>
</g>
<!-- Node29&#45;&gt;Node6 -->
<g id="edge116" class="edge"><title>Node29&#45;&gt;Node6</title>
<path fill="none" stroke="midnightblue" d="M664.668,-112.244C651.192,-98.5302 623.262,-71.9131 595,-56 563.413,-38.2149 523.604,-25.772 496.207,-18.5466"/>
<polygon fill="midnightblue" stroke="midnightblue" points="496.913,-15.1146 486.358,-16.0326 495.182,-21.8972 496.913,-15.1146"/>
</g>
<!-- Node29&#45;&gt;Node12 -->
<g id="edge124" class="edge"><title>Node29&#45;&gt;Node12</title>
<path fill="none" stroke="midnightblue" d="M653.035,-112.444C632.391,-103.596 599.937,-89.6875 576.368,-79.5865"/>
<polygon fill="midnightblue" stroke="midnightblue" points="577.442,-76.2387 566.872,-75.5164 574.684,-82.6727 577.442,-76.2387"/>
</g>
<!-- Node29&#45;&gt;Node14 -->
<g id="edge126" class="edge"><title>Node29&#45;&gt;Node14</title>
<path fill="none" stroke="midnightblue" d="M674.486,-112.083C675.679,-104.927 677.394,-94.6353 678.885,-85.6911"/>
<polygon fill="midnightblue" stroke="midnightblue" points="682.35,-86.1904 680.541,-75.7511 675.445,-85.0396 682.35,-86.1904"/>
</g>
<!-- Node29&#45;&gt;Node18 -->
<g id="edge118" class="edge"><title>Node29&#45;&gt;Node18</title>
<path fill="none" stroke="midnightblue" d="M706.76,-117.703C806.325,-107.981 1097.83,-79.5157 1194.47,-70.0791"/>
<polygon fill="midnightblue" stroke="midnightblue" points="1194.88,-73.5555 1204.49,-69.1001 1194.2,-66.5886 1194.88,-73.5555"/>
</g>
<!-- Node29&#45;&gt;Node23 -->
<g id="edge114" class="edge"><title>Node29&#45;&gt;Node23</title>
<path fill="none" stroke="midnightblue" d="M639.414,-112.518C606.152,-104.084 553.516,-90.646 499.581,-76.3953"/>
<polygon fill="midnightblue" stroke="midnightblue" points="500.419,-72.9965 489.856,-73.8205 498.627,-79.7634 500.419,-72.9965"/>
</g>
<!-- Node29&#45;&gt;Node24 -->
<g id="edge122" class="edge"><title>Node29&#45;&gt;Node24</title>
<path fill="none" stroke="midnightblue" d="M689.388,-112.324C705.671,-103.703 730.867,-90.3643 749.716,-80.3855"/>
<polygon fill="midnightblue" stroke="midnightblue" points="751.452,-83.4267 758.653,-75.6545 748.177,-77.2402 751.452,-83.4267"/>
</g>
<!-- Node31 -->
<g id="node96" class="node"><title>Node31</title>
<a xlink:href="../../d3/d2c/pageReplace_8h.xhtml" target="_top" xlink:title="Policy/pageReplace.h">
<polygon fill="white" stroke="black" points="563,-168.5 563,-187.5 675,-187.5 675,-168.5 563,-168.5"/>
<text text-anchor="middle" x="619" y="-175.5" font-family="Helvetica,sans-Serif" font-size="10.00">Policy/pageReplace.h</text>
</a>
</g>
<!-- Node30&#45;&gt;Node31 -->
<g id="edge130" class="edge"><title>Node30&#45;&gt;Node31</title>
<path fill="none" stroke="midnightblue" d="M1135.16,-228.816C1120.35,-227.277 1103.41,-225.537 1088,-224 944.576,-209.701 776.392,-193.766 685.484,-185.222"/>
<polygon fill="midnightblue" stroke="midnightblue" points="685.607,-181.719 675.324,-184.268 684.953,-188.688 685.607,-181.719"/>
</g>
<!-- Node32 -->
<g id="node101" class="node"><title>Node32</title>
<a xlink:href="../../d3/ded/pr__fifo_8h_source.xhtml" target="_top" xlink:title="Policy/pr_fifo.h">
<polygon fill="white" stroke="black" points="1311,-168.5 1311,-187.5 1393,-187.5 1393,-168.5 1311,-168.5"/>
<text text-anchor="middle" x="1352" y="-175.5" font-family="Helvetica,sans-Serif" font-size="10.00">Policy/pr_fifo.h</text>
</a>
</g>
<!-- Node30&#45;&gt;Node32 -->
<g id="edge138" class="edge"><title>Node30&#45;&gt;Node32</title>
<path fill="none" stroke="midnightblue" d="M1203.05,-224.444C1233.08,-215.28 1280.91,-200.688 1314.24,-190.519"/>
<polygon fill="midnightblue" stroke="midnightblue" points="1315.54,-193.782 1324.09,-187.516 1313.5,-187.087 1315.54,-193.782"/>
</g>
<!-- Node33 -->
<g id="node106" class="node"><title>Node33</title>
<a xlink:href="../../db/d16/pr__lru_8h_source.xhtml" target="_top" xlink:title="Policy/pr_lru.h">
<polygon fill="white" stroke="black" points="1085.5,-168.5 1085.5,-187.5 1164.5,-187.5 1164.5,-168.5 1085.5,-168.5"/>
<text text-anchor="middle" x="1125" y="-175.5" font-family="Helvetica,sans-Serif" font-size="10.00">Policy/pr_lru.h</text>
</a>
</g>
<!-- Node30&#45;&gt;Node33 -->
<g id="edge146" class="edge"><title>Node30&#45;&gt;Node33</title>
<path fill="none" stroke="midnightblue" d="M1166.74,-224.083C1159.54,-216.298 1148.89,-204.801 1140.15,-195.367"/>
<polygon fill="midnightblue" stroke="midnightblue" points="1142.47,-192.711 1133.1,-187.751 1137.33,-197.467 1142.47,-192.711"/>
</g>
<!-- Node36 -->
<g id="node115" class="node"><title>Node36</title>
<a xlink:href="../../d6/d53/pr__lruApprox_8h_source.xhtml" target="_top" xlink:title="Policy/pr_lruApprox.h">
<polygon fill="white" stroke="black" points="1183,-168.5 1183,-187.5 1293,-187.5 1293,-168.5 1183,-168.5"/>
<text text-anchor="middle" x="1238" y="-175.5" font-family="Helvetica,sans-Serif" font-size="10.00">Policy/pr_lruApprox.h</text>
</a>
</g>
<!-- Node30&#45;&gt;Node36 -->
<g id="edge158" class="edge"><title>Node30&#45;&gt;Node36</title>
<path fill="none" stroke="midnightblue" d="M1185.12,-224.324C1194.53,-216.263 1208.74,-204.077 1220.07,-194.369"/>
<polygon fill="midnightblue" stroke="midnightblue" points="1222.38,-196.999 1227.69,-187.834 1217.82,-191.684 1222.38,-196.999"/>
</g>
<!-- Node31&#45;&gt;Node2 -->
<g id="edge132" class="edge"><title>Node31&#45;&gt;Node2</title>
<path fill="none" stroke="midnightblue" d="M600.952,-168.368C560.728,-149.131 463.536,-102.648 416.038,-79.9314"/>
<polygon fill="midnightblue" stroke="midnightblue" points="417.495,-76.7486 406.964,-75.5914 414.475,-83.0635 417.495,-76.7486"/>
</g>
<!-- Node31&#45;&gt;Node10 -->
<g id="edge136" class="edge"><title>Node31&#45;&gt;Node10</title>
<path fill="none" stroke="midnightblue" d="M587.151,-168.444C552.602,-159.162 497.318,-144.309 459.417,-134.127"/>
<polygon fill="midnightblue" stroke="midnightblue" points="460.266,-130.731 449.7,-131.516 458.449,-137.491 460.266,-130.731"/>
</g>
<!-- Node31&#45;&gt;Node14 -->
<g id="edge134" class="edge"><title>Node31&#45;&gt;Node14</title>
<path fill="none" stroke="midnightblue" d="M675.008,-172.362C702.031,-166.975 732.168,-155.638 749,-132 763.44,-111.721 736.428,-92.3756 712.51,-80.1445"/>
<polygon fill="midnightblue" stroke="midnightblue" points="713.779,-76.8704 703.253,-75.6643 710.73,-83.1712 713.779,-76.8704"/>
</g>
<!-- Node32&#45;&gt;Node8 -->
<g id="edge142" class="edge"><title>Node32&#45;&gt;Node8</title>
<path fill="none" stroke="midnightblue" d="M1348.63,-168.329C1339.67,-146.384 1313.18,-88.1072 1273,-56 1248.27,-36.2364 1213.99,-24.5825 1188.23,-18.106"/>
<polygon fill="midnightblue" stroke="midnightblue" points="1189,-14.692 1178.47,-15.7937 1187.39,-21.5037 1189,-14.692"/>
</g>
<!-- Node32&#45;&gt;Node16 -->
<g id="edge144" class="edge"><title>Node32&#45;&gt;Node16</title>
<path fill="none" stroke="midnightblue" d="M1341.8,-187.502C1323.54,-202.142 1283.49,-231.718 1244,-244 1114.79,-284.183 696.297,-288.674 556.188,-289.03"/>
<polygon fill="midnightblue" stroke="midnightblue" points="555.808,-285.531 545.814,-289.05 555.821,-292.531 555.808,-285.531"/>
</g>
<!-- Node32&#45;&gt;Node18 -->
<g id="edge140" class="edge"><title>Node32&#45;&gt;Node18</title>
<path fill="none" stroke="midnightblue" d="M1342.11,-168.368C1320.86,-149.814 1270.57,-105.913 1243.68,-82.4376"/>
<polygon fill="midnightblue" stroke="midnightblue" points="1245.68,-79.5314 1235.84,-75.5914 1241.07,-84.8046 1245.68,-79.5314"/>
</g>
<!-- Node33&#45;&gt;Node8 -->
<g id="edge152" class="edge"><title>Node33&#45;&gt;Node8</title>
<path fill="none" stroke="midnightblue" d="M1117.85,-168.364C1111.23,-159.763 1101.84,-145.873 1098,-132 1095.63,-123.434 1095.84,-120.622 1098,-112 1106.01,-80.01 1126.31,-47.0762 1139.61,-27.8497"/>
<polygon fill="midnightblue" stroke="midnightblue" points="1142.55,-29.7546 1145.49,-19.5765 1136.85,-25.6983 1142.55,-29.7546"/>
</g>
<!-- Node33&#45;&gt;Node16 -->
<g id="edge154" class="edge"><title>Node33&#45;&gt;Node16</title>
<path fill="none" stroke="midnightblue" d="M1122.92,-187.553C1118.9,-201.996 1108.61,-230.919 1088,-244 1043.52,-272.229 685.202,-284.383 556.128,-287.874"/>
<polygon fill="midnightblue" stroke="midnightblue" points="555.701,-284.384 545.798,-288.148 555.887,-291.382 555.701,-284.384"/>
</g>
<!-- Node33&#45;&gt;Node18 -->
<g id="edge150" class="edge"><title>Node33&#45;&gt;Node18</title>
<path fill="none" stroke="midnightblue" d="M1132.93,-168.368C1149.81,-149.974 1189.57,-106.671 1211.26,-83.0519"/>
<polygon fill="midnightblue" stroke="midnightblue" points="1213.93,-85.3246 1218.11,-75.5914 1208.77,-80.5903 1213.93,-85.3246"/>
</g>
<!-- Node34 -->
<g id="node108" class="node"><title>Node34</title>
<polygon fill="white" stroke="#bfbfbf" points="1211.5,-112.5 1211.5,-131.5 1240.5,-131.5 1240.5,-112.5 1211.5,-112.5"/>
<text text-anchor="middle" x="1226" y="-119.5" font-family="Helvetica,sans-Serif" font-size="10.00">list</text>
</g>
<!-- Node33&#45;&gt;Node34 -->
<g id="edge148" class="edge"><title>Node33&#45;&gt;Node34</title>
<path fill="none" stroke="midnightblue" d="M1141.23,-168.324C1157.83,-159.448 1183.78,-145.571 1202.6,-135.509"/>
<polygon fill="midnightblue" stroke="midnightblue" points="1204.28,-138.58 1211.45,-130.778 1200.98,-132.407 1204.28,-138.58"/>
</g>
<!-- Node35 -->
<g id="node113" class="node"><title>Node35</title>
<polygon fill="white" stroke="#bfbfbf" points="1107,-112.5 1107,-131.5 1155,-131.5 1155,-112.5 1107,-112.5"/>
<text text-anchor="middle" x="1131" y="-119.5" font-family="Helvetica,sans-Serif" font-size="10.00">limits.h</text>
</g>
<!-- Node33&#45;&gt;Node35 -->
<g id="edge156" class="edge"><title>Node33&#45;&gt;Node35</title>
<path fill="none" stroke="midnightblue" d="M1125.99,-168.083C1126.79,-160.927 1127.93,-150.635 1128.92,-141.691"/>
<polygon fill="midnightblue" stroke="midnightblue" points="1132.4,-142.076 1130.03,-131.751 1125.44,-141.303 1132.4,-142.076"/>
</g>
<!-- Node36&#45;&gt;Node8 -->
<g id="edge164" class="edge"><title>Node36&#45;&gt;Node8</title>
<path fill="none" stroke="midnightblue" d="M1244.89,-168.319C1251.27,-159.684 1260.31,-145.77 1264,-132 1269.52,-111.41 1259.69,-60.8331 1256,-56 1239.67,-34.6162 1211.11,-23.2371 1188.04,-17.276"/>
<polygon fill="midnightblue" stroke="midnightblue" points="1188.76,-13.8485 1178.22,-14.9707 1187.16,-20.6633 1188.76,-13.8485"/>
</g>
<!-- Node36&#45;&gt;Node16 -->
<g id="edge166" class="edge"><title>Node36&#45;&gt;Node16</title>
<path fill="none" stroke="midnightblue" d="M1238.93,-187.796C1239.9,-202.066 1239.43,-230.065 1223,-244 1172.26,-287.046 705.553,-289.545 555.93,-289.227"/>
<polygon fill="midnightblue" stroke="midnightblue" points="555.724,-285.727 545.715,-289.2 555.705,-292.727 555.724,-285.727"/>
</g>
<!-- Node36&#45;&gt;Node18 -->
<g id="edge162" class="edge"><title>Node36&#45;&gt;Node18</title>
<path fill="none" stroke="midnightblue" d="M1241.77,-168.091C1246.59,-155.494 1253.77,-131.807 1249,-112 1246.69,-102.418 1241.98,-92.5813 1237.42,-84.5579"/>
<polygon fill="midnightblue" stroke="midnightblue" points="1240.29,-82.537 1232.1,-75.8095 1234.31,-86.1727 1240.29,-82.537"/>
</g>
<!-- Node36&#45;&gt;Node34 -->
<g id="edge160" class="edge"><title>Node36&#45;&gt;Node34</title>
<path fill="none" stroke="midnightblue" d="M1236.02,-168.083C1234.43,-160.927 1232.14,-150.635 1230.15,-141.691"/>
<polygon fill="midnightblue" stroke="midnightblue" points="1233.53,-140.754 1227.94,-131.751 1226.7,-142.272 1233.53,-140.754"/>
</g>
<!-- Node37&#45;&gt;Node4 -->
<g id="edge170" class="edge"><title>Node37&#45;&gt;Node4</title>
<path fill="none" stroke="midnightblue" d="M1037.95,-224.129C1043.55,-196.126 1056.89,-108.37 1017,-56 997.197,-29.9978 960.114,-18.9981 933.618,-14.3588"/>
<polygon fill="midnightblue" stroke="midnightblue" points="934.108,-10.8931 923.692,-12.8273 933.041,-17.8113 934.108,-10.8931"/>
</g>
</g>
</svg>
        <g id="navigator" transform="translate(0 0)" fill="#404254">
                <rect fill="#f2f5e9" fill-opacity="0.5" stroke="#606060" stroke-width=".5" x="0" y="0" width="60" height="60"/>
                <use id="zoomplus" xlink:href="#zoomPlus" x="17" y="9" onmousedown="handleZoom(evt,'in')"/>
                <use id="zoomminus" xlink:href="#zoomMin" x="42" y="9" onmousedown="handleZoom(evt,'out')"/>
                <use id="reset" xlink:href="#resetDef" x="30" y="36" onmousedown="handleReset()"/>
                <g id="arrowUp" xlink:href="#dirArrow" transform="translate(30 24)" onmousedown="handlePan(0,-1)">
                  <use xlink:href="#rim" fill="#404040">
                        <set attributeName="fill" to="#808080" begin="arrowUp.mouseover" end="arrowUp.mouseout"/>
                  </use>
                  <path fill="none" stroke="white" stroke-width="1.5" d="M0,-3.0v7 M-2.5,-0.5L0,-3.0L2.5,-0.5"/>
                </g>
                <g id="arrowRight" xlink:href="#dirArrow" transform="rotate(90) translate(36 -43)" onmousedown="handlePan(1,0)">
                  <use xlink:href="#rim" fill="#404040">
                        <set attributeName="fill" to="#808080" begin="arrowRight.mouseover" end="arrowRight.mouseout"/>
                  </use>
                  <path fill="none" stroke="white" stroke-width="1.5" d="M0,-3.0v7 M-2.5,-0.5L0,-3.0L2.5,-0.5"/>
                </g>
                <g id="arrowDown" xlink:href="#dirArrow" transform="rotate(180) translate(-30 -48)" onmousedown="handlePan(0,1)">
                  <use xlink:href="#rim" fill="#404040">
                        <set attributeName="fill" to="#808080" begin="arrowDown.mouseover" end="arrowDown.mouseout"/>
                  </use>
                  <path fill="none" stroke="white" stroke-width="1.5" d="M0,-3.0v7 M-2.5,-0.5L0,-3.0L2.5,-0.5"/>
                </g>
                <g id="arrowLeft" xlink:href="#dirArrow" transform="rotate(270) translate(-36 17)" onmousedown="handlePan(-1,0)">
                  <use xlink:href="#rim" fill="#404040">
                        <set attributeName="fill" to="#808080" begin="arrowLeft.mouseover" end="arrowLeft.mouseout"/>
                  </use>
                  <path fill="none" stroke="white" stroke-width="1.5" d="M0,-3.0v7 M-2.5,-0.5L0,-3.0L2.5,-0.5"/>
                </g>
        </g>
</svg>
