<?xml version="1.0" encoding="UTF-8" standalone="no"?>
<!DOCTYPE svg PUBLIC "-//W3C//DTD SVG 1.1//EN"
 "http://www.w3.org/Graphics/SVG/1.1/DTD/svg11.dtd">
<!-- Generated by graphviz version 2.28.0 (20111025.1818)
 -->
<!-- Title: G Pages: 1 -->
<svg width="156pt" height="140pt"
 viewBox="0.00 0.00 156.00 140.00" xmlns="http://www.w3.org/2000/svg" xmlns:xlink="http://www.w3.org/1999/xlink">
<g id="graph1" class="graph" transform="scale(1 1) rotate(0) translate(4 136)">
<title>G</title>
<polygon fill="white" stroke="white" points="-4,5 -4,-136 153,-136 153,5 -4,5"/>
<!-- Node1 -->
<g id="node1" class="node"><title>Node1</title>
<polygon fill="#bfbfbf" stroke="black" points="0,-112.5 0,-131.5 148,-131.5 148,-112.5 0,-112.5"/>
<text text-anchor="middle" x="74" y="-119.5" font-family="Helvetica,sans-Serif" font-size="10.00">include/devices/char_device.h</text>
</g>
<!-- Node2 -->
<g id="node3" class="node"><title>Node2</title>
<a xlink:href="../../d0/d8f/abstract__device_8h_source.xhtml" target="_top" xlink:title="devices/abstract_device.h">
<polygon fill="white" stroke="black" points="8.5,-56.5 8.5,-75.5 139.5,-75.5 139.5,-56.5 8.5,-56.5"/>
<text text-anchor="middle" x="74" y="-63.5" font-family="Helvetica,sans-Serif" font-size="10.00">devices/abstract_device.h</text>
</a>
</g>
<!-- Node1&#45;&gt;Node2 -->
<g id="edge2" class="edge"><title>Node1&#45;&gt;Node2</title>
<path fill="none" stroke="midnightblue" d="M74,-112.083C74,-105.006 74,-94.8611 74,-85.9865"/>
<polygon fill="midnightblue" stroke="midnightblue" points="77.5001,-85.751 74,-75.7511 70.5001,-85.7511 77.5001,-85.751"/>
</g>
<!-- Node3 -->
<g id="node5" class="node"><title>Node3</title>
<polygon fill="white" stroke="#bfbfbf" points="20,-0.5 20,-19.5 64,-19.5 64,-0.5 20,-0.5"/>
<text text-anchor="middle" x="42" y="-7.5" font-family="Helvetica,sans-Serif" font-size="10.00">time.h</text>
</g>
<!-- Node2&#45;&gt;Node3 -->
<g id="edge4" class="edge"><title>Node2&#45;&gt;Node3</title>
<path fill="none" stroke="midnightblue" d="M68.7159,-56.083C64.289,-48.6127 57.8367,-37.7244 52.3821,-28.5199"/>
<polygon fill="midnightblue" stroke="midnightblue" points="55.2949,-26.5697 47.1858,-19.7511 49.2729,-30.1383 55.2949,-26.5697"/>
</g>
<!-- Node4 -->
<g id="node7" class="node"><title>Node4</title>
<polygon fill="white" stroke="#bfbfbf" points="82,-0.5 82,-19.5 132,-19.5 132,-0.5 82,-0.5"/>
<text text-anchor="middle" x="107" y="-7.5" font-family="Helvetica,sans-Serif" font-size="10.00">signal.h</text>
</g>
<!-- Node2&#45;&gt;Node4 -->
<g id="edge6" class="edge"><title>Node2&#45;&gt;Node4</title>
<path fill="none" stroke="midnightblue" d="M79.4493,-56.083C84.0145,-48.6127 90.6684,-37.7244 96.2934,-28.5199"/>
<polygon fill="midnightblue" stroke="midnightblue" points="99.4241,-30.109 101.652,-19.7511 93.4511,-26.4588 99.4241,-30.109"/>
</g>
</g>
</svg>
