<?xml version="1.0" encoding="UTF-8" standalone="no"?>
<!DOCTYPE svg PUBLIC "-//W3C//DTD SVG 1.1//EN"
 "http://www.w3.org/Graphics/SVG/1.1/DTD/svg11.dtd">
<!-- Generated by graphviz version 2.28.0 (20111025.1818)
 -->
<!-- Title: G Pages: 1 -->
<!--zoomable 196 -->
<svg id="main" version="1.1" xmlns="http://www.w3.org/2000/svg" xmlns:xlink="http://www.w3.org/1999/xlink" xml:space="preserve" onload="init(evt)">
        <defs>
                <circle id="rim" cx="0" cy="0" r="7"/>
                <circle id="rim2" cx="0" cy="0" r="3.5"/>
                <g id="zoomPlus">
                        <use xlink:href="#rim" fill="#404040">
                                <set attributeName="fill" to="#808080" begin="zoomplus.mouseover" end="zoomplus.mouseout"/>
                        </use>
                        <path d="M-4,0h8M0,-4v8" fill="none" stroke="white" stroke-width="1.5" pointer-events="none"/>
                </g>
                <g id="zoomMin">
                        <use xlink:href="#rim" fill="#404040">
                                <set attributeName="fill" to="#808080" begin="zoomminus.mouseover" end="zoomminus.mouseout"/>
                        </use>
                        <path d="M-4,0h8" fill="none" stroke="white" stroke-width="1.5" pointer-events="none"/>
                </g>
                <g id="dirArrow">
                        <path fill="none" stroke="white" stroke-width="1.5" d="M0,-3.0v7 M-2.5,-0.5L0,-3.0L2.5,-0.5"/>
                </g>
               <g id="resetDef">
                       <use xlink:href="#rim2" fill="#404040">
                               <set attributeName="fill" to="#808080" begin="reset.mouseover" end="reset.mouseout"/>
                       </use>
               </g>
        </defs>

<script type="text/javascript">
var viewWidth = 594;
var viewHeight = 196;
var sectionId = 'dynsection-0';
</script>
<script xlink:href="../../svgpan.js"/>
<svg id="graph" class="graph">
<g id="viewport">
<title>G</title>
<polygon fill="white" stroke="white" points="-4,5 -4,-192 591,-192 591,5 -4,5"/>
<!-- Node1 -->
<g id="node1" class="node"><title>Node1</title>
<polygon fill="#bfbfbf" stroke="black" points="164,-168.5 164,-187.5 312,-187.5 312,-168.5 164,-168.5"/>
<text text-anchor="middle" x="238" y="-175.5" font-family="Helvetica,sans-Serif" font-size="10.00">include/devices/char_device.h</text>
</g>
<!-- Node2 -->
<g id="node3" class="node"><title>Node2</title>
<polygon fill="white" stroke="#bfbfbf" points="165.5,-112.5 165.5,-131.5 208.5,-131.5 208.5,-112.5 165.5,-112.5"/>
<text text-anchor="middle" x="187" y="-119.5" font-family="Helvetica,sans-Serif" font-size="10.00">cstdio</text>
</g>
<!-- Node1&#45;&gt;Node2 -->
<g id="edge2" class="edge"><title>Node1&#45;&gt;Node2</title>
<path fill="none" stroke="midnightblue" d="M229.578,-168.083C222.152,-160.22 211.148,-148.569 202.188,-139.081"/>
<polygon fill="midnightblue" stroke="midnightblue" points="204.676,-136.618 195.265,-131.751 199.587,-141.424 204.676,-136.618"/>
</g>
<!-- Node3 -->
<g id="node5" class="node"><title>Node3</title>
<a xlink:href="../../dd/d9e/queued__device_8h.xhtml" target="_top" xlink:title="devices/queued_device.h">
<polygon fill="white" stroke="black" points="226.5,-112.5 226.5,-131.5 353.5,-131.5 353.5,-112.5 226.5,-112.5"/>
<text text-anchor="middle" x="290" y="-119.5" font-family="Helvetica,sans-Serif" font-size="10.00">devices/queued_device.h</text>
</a>
</g>
<!-- Node1&#45;&gt;Node3 -->
<g id="edge4" class="edge"><title>Node1&#45;&gt;Node3</title>
<path fill="none" stroke="midnightblue" d="M246.587,-168.083C254.159,-160.22 265.378,-148.569 274.514,-139.081"/>
<polygon fill="midnightblue" stroke="midnightblue" points="277.158,-141.382 281.573,-131.751 272.115,-136.527 277.158,-141.382"/>
</g>
<!-- Node4 -->
<g id="node7" class="node"><title>Node4</title>
<polygon fill="white" stroke="#bfbfbf" points="0,-56.5 0,-75.5 44,-75.5 44,-56.5 0,-56.5"/>
<text text-anchor="middle" x="22" y="-63.5" font-family="Helvetica,sans-Serif" font-size="10.00">time.h</text>
</g>
<!-- Node3&#45;&gt;Node4 -->
<g id="edge6" class="edge"><title>Node3&#45;&gt;Node4</title>
<path fill="none" stroke="midnightblue" d="M237.45,-112.496C191.482,-104.725 122.742,-92.3053 54.3665,-76.1537"/>
<polygon fill="midnightblue" stroke="midnightblue" points="54.8233,-72.6643 44.2836,-73.7437 53.196,-79.4726 54.8233,-72.6643"/>
</g>
<!-- Node5 -->
<g id="node9" class="node"><title>Node5</title>
<polygon fill="white" stroke="#bfbfbf" points="62,-56.5 62,-75.5 112,-75.5 112,-56.5 62,-56.5"/>
<text text-anchor="middle" x="87" y="-63.5" font-family="Helvetica,sans-Serif" font-size="10.00">signal.h</text>
</g>
<!-- Node3&#45;&gt;Node5 -->
<g id="edge8" class="edge"><title>Node3&#45;&gt;Node5</title>
<path fill="none" stroke="midnightblue" d="M257.834,-112.444C220.786,-102.588 160.13,-86.4533 121.946,-76.2961"/>
<polygon fill="midnightblue" stroke="midnightblue" points="122.845,-72.9135 112.281,-73.7251 121.045,-79.6782 122.845,-72.9135"/>
</g>
<!-- Node6 -->
<g id="node11" class="node"><title>Node6</title>
<polygon fill="white" stroke="#bfbfbf" points="130,-56.5 130,-75.5 182,-75.5 182,-56.5 130,-56.5"/>
<text text-anchor="middle" x="156" y="-63.5" font-family="Helvetica,sans-Serif" font-size="10.00">assert.h</text>
</g>
<!-- Node3&#45;&gt;Node6 -->
<g id="edge10" class="edge"><title>Node3&#45;&gt;Node6</title>
<path fill="none" stroke="midnightblue" d="M268.767,-112.444C246.616,-103.517 211.681,-89.4387 186.564,-79.3168"/>
<polygon fill="midnightblue" stroke="midnightblue" points="187.717,-76.0079 177.133,-75.5164 185.1,-82.5006 187.717,-76.0079"/>
</g>
<!-- Node7 -->
<g id="node13" class="node"><title>Node7</title>
<polygon fill="white" stroke="#bfbfbf" points="200.5,-56.5 200.5,-75.5 247.5,-75.5 247.5,-56.5 200.5,-56.5"/>
<text text-anchor="middle" x="224" y="-63.5" font-family="Helvetica,sans-Serif" font-size="10.00">errno.h</text>
</g>
<!-- Node3&#45;&gt;Node7 -->
<g id="edge12" class="edge"><title>Node3&#45;&gt;Node7</title>
<path fill="none" stroke="midnightblue" d="M279.396,-112.324C269.544,-104.263 254.649,-92.0765 242.785,-82.3695"/>
<polygon fill="midnightblue" stroke="midnightblue" points="244.753,-79.4575 234.797,-75.8339 240.32,-84.8752 244.753,-79.4575"/>
</g>
<!-- Node8 -->
<g id="node15" class="node"><title>Node8</title>
<polygon fill="white" stroke="#bfbfbf" points="265.5,-56.5 265.5,-75.5 314.5,-75.5 314.5,-56.5 265.5,-56.5"/>
<text text-anchor="middle" x="290" y="-63.5" font-family="Helvetica,sans-Serif" font-size="10.00">string.h</text>
</g>
<!-- Node3&#45;&gt;Node8 -->
<g id="edge14" class="edge"><title>Node3&#45;&gt;Node8</title>
<path fill="none" stroke="midnightblue" d="M290,-112.083C290,-105.006 290,-94.8611 290,-85.9865"/>
<polygon fill="midnightblue" stroke="midnightblue" points="293.5,-85.751 290,-75.7511 286.5,-85.7511 293.5,-85.751"/>
</g>
<!-- Node9 -->
<g id="node17" class="node"><title>Node9</title>
<polygon fill="white" stroke="#bfbfbf" points="332.5,-56.5 332.5,-75.5 373.5,-75.5 373.5,-56.5 332.5,-56.5"/>
<text text-anchor="middle" x="353" y="-63.5" font-family="Helvetica,sans-Serif" font-size="10.00">string</text>
</g>
<!-- Node3&#45;&gt;Node9 -->
<g id="edge16" class="edge"><title>Node3&#45;&gt;Node9</title>
<path fill="none" stroke="midnightblue" d="M300.122,-112.324C309.526,-104.263 323.744,-92.0765 335.069,-82.3695"/>
<polygon fill="midnightblue" stroke="midnightblue" points="337.379,-84.9993 342.694,-75.8339 332.823,-79.6844 337.379,-84.9993"/>
</g>
<!-- Node10 -->
<g id="node19" class="node"><title>Node10</title>
<polygon fill="white" stroke="#bfbfbf" points="391.5,-56.5 391.5,-75.5 434.5,-75.5 434.5,-56.5 391.5,-56.5"/>
<text text-anchor="middle" x="413" y="-63.5" font-family="Helvetica,sans-Serif" font-size="10.00">queue</text>
</g>
<!-- Node3&#45;&gt;Node10 -->
<g id="edge18" class="edge"><title>Node3&#45;&gt;Node10</title>
<path fill="none" stroke="midnightblue" d="M309.49,-112.444C329.642,-103.596 361.323,-89.6875 384.331,-79.5865"/>
<polygon fill="midnightblue" stroke="midnightblue" points="385.852,-82.7411 393.601,-75.5164 383.038,-76.3316 385.852,-82.7411"/>
</g>
<!-- Node11 -->
<g id="node21" class="node"><title>Node11</title>
<polygon fill="white" stroke="#bfbfbf" points="452.5,-56.5 452.5,-75.5 509.5,-75.5 509.5,-56.5 452.5,-56.5"/>
<text text-anchor="middle" x="481" y="-63.5" font-family="Helvetica,sans-Serif" font-size="10.00">pthread.h</text>
</g>
<!-- Node3&#45;&gt;Node11 -->
<g id="edge20" class="edge"><title>Node3&#45;&gt;Node11</title>
<path fill="none" stroke="midnightblue" d="M320.265,-112.444C353.436,-103.065 406.722,-88.0001 442.761,-77.8112"/>
<polygon fill="midnightblue" stroke="midnightblue" points="443.766,-81.1641 452.437,-75.0755 441.862,-74.4281 443.766,-81.1641"/>
</g>
<!-- Node12 -->
<g id="node23" class="node"><title>Node12</title>
<a xlink:href="../../da/d42/process_8h.xhtml" target="_top" xlink:title="process.h">
<polygon fill="white" stroke="black" points="527.5,-56.5 527.5,-75.5 586.5,-75.5 586.5,-56.5 527.5,-56.5"/>
<text text-anchor="middle" x="557" y="-63.5" font-family="Helvetica,sans-Serif" font-size="10.00">process.h</text>
</a>
</g>
<!-- Node3&#45;&gt;Node12 -->
<g id="edge22" class="edge"><title>Node3&#45;&gt;Node12</title>
<path fill="none" stroke="midnightblue" d="M335.509,-112.461C379.433,-104.121 448.064,-90.829 517.036,-76.1524"/>
<polygon fill="midnightblue" stroke="midnightblue" points="518.164,-79.4904 527.211,-73.9774 516.701,-72.645 518.164,-79.4904"/>
</g>
<!-- Node13 -->
<g id="node25" class="node"><title>Node13</title>
<polygon fill="white" stroke="#bfbfbf" points="527.5,-0.5 527.5,-19.5 586.5,-19.5 586.5,-0.5 527.5,-0.5"/>
<text text-anchor="middle" x="557" y="-7.5" font-family="Helvetica,sans-Serif" font-size="10.00">inttypes.h</text>
</g>
<!-- Node12&#45;&gt;Node13 -->
<g id="edge24" class="edge"><title>Node12&#45;&gt;Node13</title>
<path fill="none" stroke="midnightblue" d="M557,-56.083C557,-49.0059 557,-38.8611 557,-29.9865"/>
<polygon fill="midnightblue" stroke="midnightblue" points="560.5,-29.751 557,-19.7511 553.5,-29.7511 560.5,-29.751"/>
</g>
</g>
</svg>
        <g id="navigator" transform="translate(0 0)" fill="#404254">
                <rect fill="#f2f5e9" fill-opacity="0.5" stroke="#606060" stroke-width=".5" x="0" y="0" width="60" height="60"/>
                <use id="zoomplus" xlink:href="#zoomPlus" x="17" y="9" onmousedown="handleZoom(evt,'in')"/>
                <use id="zoomminus" xlink:href="#zoomMin" x="42" y="9" onmousedown="handleZoom(evt,'out')"/>
                <use id="reset" xlink:href="#resetDef" x="30" y="36" onmousedown="handleReset()"/>
                <g id="arrowUp" xlink:href="#dirArrow" transform="translate(30 24)" onmousedown="handlePan(0,-1)">
                  <use xlink:href="#rim" fill="#404040">
                        <set attributeName="fill" to="#808080" begin="arrowUp.mouseover" end="arrowUp.mouseout"/>
                  </use>
                  <path fill="none" stroke="white" stroke-width="1.5" d="M0,-3.0v7 M-2.5,-0.5L0,-3.0L2.5,-0.5"/>
                </g>
                <g id="arrowRight" xlink:href="#dirArrow" transform="rotate(90) translate(36 -43)" onmousedown="handlePan(1,0)">
                  <use xlink:href="#rim" fill="#404040">
                        <set attributeName="fill" to="#808080" begin="arrowRight.mouseover" end="arrowRight.mouseout"/>
                  </use>
                  <path fill="none" stroke="white" stroke-width="1.5" d="M0,-3.0v7 M-2.5,-0.5L0,-3.0L2.5,-0.5"/>
                </g>
                <g id="arrowDown" xlink:href="#dirArrow" transform="rotate(180) translate(-30 -48)" onmousedown="handlePan(0,1)">
                  <use xlink:href="#rim" fill="#404040">
                        <set attributeName="fill" to="#808080" begin="arrowDown.mouseover" end="arrowDown.mouseout"/>
                  </use>
                  <path fill="none" stroke="white" stroke-width="1.5" d="M0,-3.0v7 M-2.5,-0.5L0,-3.0L2.5,-0.5"/>
                </g>
                <g id="arrowLeft" xlink:href="#dirArrow" transform="rotate(270) translate(-36 17)" onmousedown="handlePan(-1,0)">
                  <use xlink:href="#rim" fill="#404040">
                        <set attributeName="fill" to="#808080" begin="arrowLeft.mouseover" end="arrowLeft.mouseout"/>
                  </use>
                  <path fill="none" stroke="white" stroke-width="1.5" d="M0,-3.0v7 M-2.5,-0.5L0,-3.0L2.5,-0.5"/>
                </g>
        </g>
</svg>
