<?xml version="1.0" encoding="UTF-8" standalone="no"?>
<!DOCTYPE svg PUBLIC "-//W3C//DTD SVG 1.1//EN"
 "http://www.w3.org/Graphics/SVG/1.1/DTD/svg11.dtd">
<!-- Generated by graphviz version 2.28.0 (20111025.1818)
 -->
<!-- Title: G Pages: 1 -->
<!--zoomable 196 -->
<svg id="main" version="1.1" xmlns="http://www.w3.org/2000/svg" xmlns:xlink="http://www.w3.org/1999/xlink" xml:space="preserve" onload="init(evt)">
        <defs>
                <circle id="rim" cx="0" cy="0" r="7"/>
                <circle id="rim2" cx="0" cy="0" r="3.5"/>
                <g id="zoomPlus">
                        <use xlink:href="#rim" fill="#404040">
                                <set attributeName="fill" to="#808080" begin="zoomplus.mouseover" end="zoomplus.mouseout"/>
                        </use>
                        <path d="M-4,0h8M0,-4v8" fill="none" stroke="white" stroke-width="1.5" pointer-events="none"/>
                </g>
                <g id="zoomMin">
                        <use xlink:href="#rim" fill="#404040">
                                <set attributeName="fill" to="#808080" begin="zoomminus.mouseover" end="zoomminus.mouseout"/>
                        </use>
                        <path d="M-4,0h8" fill="none" stroke="white" stroke-width="1.5" pointer-events="none"/>
                </g>
                <g id="dirArrow">
                        <path fill="none" stroke="white" stroke-width="1.5" d="M0,-3.0v7 M-2.5,-0.5L0,-3.0L2.5,-0.5"/>
                </g>
               <g id="resetDef">
                       <use xlink:href="#rim2" fill="#404040">
                               <set attributeName="fill" to="#808080" begin="reset.mouseover" end="reset.mouseout"/>
                       </use>
               </g>
        </defs>

<script type="text/javascript">
var viewWidth = 593;
var viewHeight = 196;
var sectionId = 'dynsection-0';
</script>
<script xlink:href="../../svgpan.js"/>
<svg id="graph" class="graph">
<g id="viewport">
<title>G</title>
<polygon fill="white" stroke="white" points="-4,5 -4,-192 590,-192 590,5 -4,5"/>
<!-- Node1 -->
<g id="node1" class="node"><title>Node1</title>
<polygon fill="#bfbfbf" stroke="black" points="215,-168.5 215,-187.5 363,-187.5 363,-168.5 215,-168.5"/>
<text text-anchor="middle" x="289" y="-175.5" font-family="Helvetica,sans-Serif" font-size="10.00">include/devices/char_device.h</text>
</g>
<!-- Node2 -->
<g id="node3" class="node"><title>Node2</title>
<a xlink:href="../../dd/d9e/queued__device_8h.xhtml" target="_top" xlink:title="devices/queued_device.h">
<polygon fill="white" stroke="black" points="225.5,-112.5 225.5,-131.5 352.5,-131.5 352.5,-112.5 225.5,-112.5"/>
<text text-anchor="middle" x="289" y="-119.5" font-family="Helvetica,sans-Serif" font-size="10.00">devices/queued_device.h</text>
</a>
</g>
<!-- Node1&#45;&gt;Node2 -->
<g id="edge2" class="edge"><title>Node1&#45;&gt;Node2</title>
<path fill="none" stroke="midnightblue" d="M289,-168.083C289,-161.006 289,-150.861 289,-141.986"/>
<polygon fill="midnightblue" stroke="midnightblue" points="292.5,-141.751 289,-131.751 285.5,-141.751 292.5,-141.751"/>
</g>
<!-- Node3 -->
<g id="node5" class="node"><title>Node3</title>
<polygon fill="white" stroke="#bfbfbf" points="-1,-56.5 -1,-75.5 43,-75.5 43,-56.5 -1,-56.5"/>
<text text-anchor="middle" x="21" y="-63.5" font-family="Helvetica,sans-Serif" font-size="10.00">time.h</text>
</g>
<!-- Node2&#45;&gt;Node3 -->
<g id="edge4" class="edge"><title>Node2&#45;&gt;Node3</title>
<path fill="none" stroke="midnightblue" d="M236.45,-112.496C190.482,-104.725 121.742,-92.3053 53.3665,-76.1537"/>
<polygon fill="midnightblue" stroke="midnightblue" points="53.8233,-72.6643 43.2836,-73.7437 52.196,-79.4726 53.8233,-72.6643"/>
</g>
<!-- Node4 -->
<g id="node7" class="node"><title>Node4</title>
<polygon fill="white" stroke="#bfbfbf" points="61,-56.5 61,-75.5 111,-75.5 111,-56.5 61,-56.5"/>
<text text-anchor="middle" x="86" y="-63.5" font-family="Helvetica,sans-Serif" font-size="10.00">signal.h</text>
</g>
<!-- Node2&#45;&gt;Node4 -->
<g id="edge6" class="edge"><title>Node2&#45;&gt;Node4</title>
<path fill="none" stroke="midnightblue" d="M256.834,-112.444C219.786,-102.588 159.13,-86.4533 120.946,-76.2961"/>
<polygon fill="midnightblue" stroke="midnightblue" points="121.845,-72.9135 111.281,-73.7251 120.045,-79.6782 121.845,-72.9135"/>
</g>
<!-- Node5 -->
<g id="node9" class="node"><title>Node5</title>
<polygon fill="white" stroke="#bfbfbf" points="129,-56.5 129,-75.5 181,-75.5 181,-56.5 129,-56.5"/>
<text text-anchor="middle" x="155" y="-63.5" font-family="Helvetica,sans-Serif" font-size="10.00">assert.h</text>
</g>
<!-- Node2&#45;&gt;Node5 -->
<g id="edge8" class="edge"><title>Node2&#45;&gt;Node5</title>
<path fill="none" stroke="midnightblue" d="M267.767,-112.444C245.616,-103.517 210.681,-89.4387 185.564,-79.3168"/>
<polygon fill="midnightblue" stroke="midnightblue" points="186.717,-76.0079 176.133,-75.5164 184.1,-82.5006 186.717,-76.0079"/>
</g>
<!-- Node6 -->
<g id="node11" class="node"><title>Node6</title>
<polygon fill="white" stroke="#bfbfbf" points="199.5,-56.5 199.5,-75.5 246.5,-75.5 246.5,-56.5 199.5,-56.5"/>
<text text-anchor="middle" x="223" y="-63.5" font-family="Helvetica,sans-Serif" font-size="10.00">errno.h</text>
</g>
<!-- Node2&#45;&gt;Node6 -->
<g id="edge10" class="edge"><title>Node2&#45;&gt;Node6</title>
<path fill="none" stroke="midnightblue" d="M278.396,-112.324C268.544,-104.263 253.649,-92.0765 241.785,-82.3695"/>
<polygon fill="midnightblue" stroke="midnightblue" points="243.753,-79.4575 233.797,-75.8339 239.32,-84.8752 243.753,-79.4575"/>
</g>
<!-- Node7 -->
<g id="node13" class="node"><title>Node7</title>
<polygon fill="white" stroke="#bfbfbf" points="264.5,-56.5 264.5,-75.5 313.5,-75.5 313.5,-56.5 264.5,-56.5"/>
<text text-anchor="middle" x="289" y="-63.5" font-family="Helvetica,sans-Serif" font-size="10.00">string.h</text>
</g>
<!-- Node2&#45;&gt;Node7 -->
<g id="edge12" class="edge"><title>Node2&#45;&gt;Node7</title>
<path fill="none" stroke="midnightblue" d="M289,-112.083C289,-105.006 289,-94.8611 289,-85.9865"/>
<polygon fill="midnightblue" stroke="midnightblue" points="292.5,-85.751 289,-75.7511 285.5,-85.7511 292.5,-85.751"/>
</g>
<!-- Node8 -->
<g id="node15" class="node"><title>Node8</title>
<polygon fill="white" stroke="#bfbfbf" points="331.5,-56.5 331.5,-75.5 372.5,-75.5 372.5,-56.5 331.5,-56.5"/>
<text text-anchor="middle" x="352" y="-63.5" font-family="Helvetica,sans-Serif" font-size="10.00">string</text>
</g>
<!-- Node2&#45;&gt;Node8 -->
<g id="edge14" class="edge"><title>Node2&#45;&gt;Node8</title>
<path fill="none" stroke="midnightblue" d="M299.122,-112.324C308.526,-104.263 322.744,-92.0765 334.069,-82.3695"/>
<polygon fill="midnightblue" stroke="midnightblue" points="336.379,-84.9993 341.694,-75.8339 331.823,-79.6844 336.379,-84.9993"/>
</g>
<!-- Node9 -->
<g id="node17" class="node"><title>Node9</title>
<polygon fill="white" stroke="#bfbfbf" points="390.5,-56.5 390.5,-75.5 433.5,-75.5 433.5,-56.5 390.5,-56.5"/>
<text text-anchor="middle" x="412" y="-63.5" font-family="Helvetica,sans-Serif" font-size="10.00">queue</text>
</g>
<!-- Node2&#45;&gt;Node9 -->
<g id="edge16" class="edge"><title>Node2&#45;&gt;Node9</title>
<path fill="none" stroke="midnightblue" d="M308.49,-112.444C328.642,-103.596 360.323,-89.6875 383.331,-79.5865"/>
<polygon fill="midnightblue" stroke="midnightblue" points="384.852,-82.7411 392.601,-75.5164 382.038,-76.3316 384.852,-82.7411"/>
</g>
<!-- Node10 -->
<g id="node19" class="node"><title>Node10</title>
<polygon fill="white" stroke="#bfbfbf" points="451.5,-56.5 451.5,-75.5 508.5,-75.5 508.5,-56.5 451.5,-56.5"/>
<text text-anchor="middle" x="480" y="-63.5" font-family="Helvetica,sans-Serif" font-size="10.00">pthread.h</text>
</g>
<!-- Node2&#45;&gt;Node10 -->
<g id="edge18" class="edge"><title>Node2&#45;&gt;Node10</title>
<path fill="none" stroke="midnightblue" d="M319.265,-112.444C352.436,-103.065 405.722,-88.0001 441.761,-77.8112"/>
<polygon fill="midnightblue" stroke="midnightblue" points="442.766,-81.1641 451.437,-75.0755 440.862,-74.4281 442.766,-81.1641"/>
</g>
<!-- Node11 -->
<g id="node21" class="node"><title>Node11</title>
<a xlink:href="../../da/d42/process_8h.xhtml" target="_top" xlink:title="process.h">
<polygon fill="white" stroke="black" points="526.5,-56.5 526.5,-75.5 585.5,-75.5 585.5,-56.5 526.5,-56.5"/>
<text text-anchor="middle" x="556" y="-63.5" font-family="Helvetica,sans-Serif" font-size="10.00">process.h</text>
</a>
</g>
<!-- Node2&#45;&gt;Node11 -->
<g id="edge20" class="edge"><title>Node2&#45;&gt;Node11</title>
<path fill="none" stroke="midnightblue" d="M334.509,-112.461C378.433,-104.121 447.064,-90.829 516.036,-76.1524"/>
<polygon fill="midnightblue" stroke="midnightblue" points="517.164,-79.4904 526.211,-73.9774 515.701,-72.645 517.164,-79.4904"/>
</g>
<!-- Node12 -->
<g id="node23" class="node"><title>Node12</title>
<polygon fill="white" stroke="#bfbfbf" points="526.5,-0.5 526.5,-19.5 585.5,-19.5 585.5,-0.5 526.5,-0.5"/>
<text text-anchor="middle" x="556" y="-7.5" font-family="Helvetica,sans-Serif" font-size="10.00">inttypes.h</text>
</g>
<!-- Node11&#45;&gt;Node12 -->
<g id="edge22" class="edge"><title>Node11&#45;&gt;Node12</title>
<path fill="none" stroke="midnightblue" d="M556,-56.083C556,-49.0059 556,-38.8611 556,-29.9865"/>
<polygon fill="midnightblue" stroke="midnightblue" points="559.5,-29.751 556,-19.7511 552.5,-29.7511 559.5,-29.751"/>
</g>
</g>
</svg>
        <g id="navigator" transform="translate(0 0)" fill="#404254">
                <rect fill="#f2f5e9" fill-opacity="0.5" stroke="#606060" stroke-width=".5" x="0" y="0" width="60" height="60"/>
                <use id="zoomplus" xlink:href="#zoomPlus" x="17" y="9" onmousedown="handleZoom(evt,'in')"/>
                <use id="zoomminus" xlink:href="#zoomMin" x="42" y="9" onmousedown="handleZoom(evt,'out')"/>
                <use id="reset" xlink:href="#resetDef" x="30" y="36" onmousedown="handleReset()"/>
                <g id="arrowUp" xlink:href="#dirArrow" transform="translate(30 24)" onmousedown="handlePan(0,-1)">
                  <use xlink:href="#rim" fill="#404040">
                        <set attributeName="fill" to="#808080" begin="arrowUp.mouseover" end="arrowUp.mouseout"/>
                  </use>
                  <path fill="none" stroke="white" stroke-width="1.5" d="M0,-3.0v7 M-2.5,-0.5L0,-3.0L2.5,-0.5"/>
                </g>
                <g id="arrowRight" xlink:href="#dirArrow" transform="rotate(90) translate(36 -43)" onmousedown="handlePan(1,0)">
                  <use xlink:href="#rim" fill="#404040">
                        <set attributeName="fill" to="#808080" begin="arrowRight.mouseover" end="arrowRight.mouseout"/>
                  </use>
                  <path fill="none" stroke="white" stroke-width="1.5" d="M0,-3.0v7 M-2.5,-0.5L0,-3.0L2.5,-0.5"/>
                </g>
                <g id="arrowDown" xlink:href="#dirArrow" transform="rotate(180) translate(-30 -48)" onmousedown="handlePan(0,1)">
                  <use xlink:href="#rim" fill="#404040">
                        <set attributeName="fill" to="#808080" begin="arrowDown.mouseover" end="arrowDown.mouseout"/>
                  </use>
                  <path fill="none" stroke="white" stroke-width="1.5" d="M0,-3.0v7 M-2.5,-0.5L0,-3.0L2.5,-0.5"/>
                </g>
                <g id="arrowLeft" xlink:href="#dirArrow" transform="rotate(270) translate(-36 17)" onmousedown="handlePan(-1,0)">
                  <use xlink:href="#rim" fill="#404040">
                        <set attributeName="fill" to="#808080" begin="arrowLeft.mouseover" end="arrowLeft.mouseout"/>
                  </use>
                  <path fill="none" stroke="white" stroke-width="1.5" d="M0,-3.0v7 M-2.5,-0.5L0,-3.0L2.5,-0.5"/>
                </g>
        </g>
</svg>
