<?xml version="1.0" encoding="UTF-8" standalone="no"?>
<!DOCTYPE svg PUBLIC "-//W3C//DTD SVG 1.1//EN"
 "http://www.w3.org/Graphics/SVG/1.1/DTD/svg11.dtd">
<!-- Generated by graphviz version 2.28.0 (20111025.1818)
 -->
<!-- Title: G Pages: 1 -->
<!--zoomable 364 -->
<svg id="main" version="1.1" xmlns="http://www.w3.org/2000/svg" xmlns:xlink="http://www.w3.org/1999/xlink" xml:space="preserve" onload="init(evt)">
        <defs>
                <circle id="rim" cx="0" cy="0" r="7"/>
                <circle id="rim2" cx="0" cy="0" r="3.5"/>
                <g id="zoomPlus">
                        <use xlink:href="#rim" fill="#404040">
                                <set attributeName="fill" to="#808080" begin="zoomplus.mouseover" end="zoomplus.mouseout"/>
                        </use>
                        <path d="M-4,0h8M0,-4v8" fill="none" stroke="white" stroke-width="1.5" pointer-events="none"/>
                </g>
                <g id="zoomMin">
                        <use xlink:href="#rim" fill="#404040">
                                <set attributeName="fill" to="#808080" begin="zoomminus.mouseover" end="zoomminus.mouseout"/>
                        </use>
                        <path d="M-4,0h8" fill="none" stroke="white" stroke-width="1.5" pointer-events="none"/>
                </g>
                <g id="dirArrow">
                        <path fill="none" stroke="white" stroke-width="1.5" d="M0,-3.0v7 M-2.5,-0.5L0,-3.0L2.5,-0.5"/>
                </g>
               <g id="resetDef">
                       <use xlink:href="#rim2" fill="#404040">
                               <set attributeName="fill" to="#808080" begin="reset.mouseover" end="reset.mouseout"/>
                       </use>
               </g>
        </defs>

<script type="text/javascript">
var viewWidth = 617;
var viewHeight = 364;
var sectionId = 'dynsection-1';
</script>
<script xlink:href="../../svgpan.js"/>
<svg id="graph" class="graph">
<g id="viewport">
<title>G</title>
<polygon fill="white" stroke="white" points="-4,5 -4,-360 614,-360 614,5 -4,5"/>
<!-- Node1 -->
<g id="node1" class="node"><title>Node1</title>
<polygon fill="#bfbfbf" stroke="black" points="111,-336.5 111,-355.5 203,-355.5 203,-336.5 111,-336.5"/>
<text text-anchor="middle" x="157" y="-343.5" font-family="Helvetica,sans-Serif" font-size="10.00">include/utility/id.h</text>
</g>
<!-- Node2 -->
<g id="node3" class="node"><title>Node2</title>
<a xlink:href="../../db/dc3/lottery_8h.xhtml" target="_top" xlink:title="include/scheduler/lottery.h">
<polygon fill="white" stroke="black" points="-0.5,-168.5 -0.5,-187.5 130.5,-187.5 130.5,-168.5 -0.5,-168.5"/>
<text text-anchor="middle" x="65" y="-175.5" font-family="Helvetica,sans-Serif" font-size="10.00">include/scheduler/lottery.h</text>
</a>
</g>
<!-- Node1&#45;&gt;Node2 -->
<g id="edge2" class="edge"><title>Node1&#45;&gt;Node2</title>
<path fill="none" stroke="midnightblue" d="M147.197,-327.312C127.583,-291.921 84.1562,-213.565 69.7486,-187.568"/>
<polygon fill="midnightblue" stroke="midnightblue" points="144.145,-329.025 152.054,-336.075 150.267,-325.632 144.145,-329.025"/>
</g>
<!-- Node6 -->
<g id="node11" class="node"><title>Node6</title>
<a xlink:href="../../d2/dd8/scheduler_8h_source.xhtml" target="_top" xlink:title="include/scheduler/scheduler.h">
<polygon fill="white" stroke="black" points="136,-224.5 136,-243.5 282,-243.5 282,-224.5 136,-224.5"/>
<text text-anchor="middle" x="209" y="-231.5" font-family="Helvetica,sans-Serif" font-size="10.00">include/scheduler/scheduler.h</text>
</a>
</g>
<!-- Node1&#45;&gt;Node6 -->
<g id="edge10" class="edge"><title>Node1&#45;&gt;Node6</title>
<path fill="none" stroke="midnightblue" d="M160.639,-326.326C163.67,-312.977 168.681,-294.825 176,-280 182.776,-266.274 193.758,-252.35 201.174,-243.7"/>
<polygon fill="midnightblue" stroke="midnightblue" points="157.189,-325.726 158.553,-336.233 164.039,-327.169 157.189,-325.726"/>
</g>
<!-- Node10 -->
<g id="node23" class="node"><title>Node10</title>
<a xlink:href="../../dd/d00/process__logger_8h.xhtml" target="_top" xlink:title="include/utility/process_logger.h">
<polygon fill="white" stroke="black" points="185.5,-280.5 185.5,-299.5 336.5,-299.5 336.5,-280.5 185.5,-280.5"/>
<text text-anchor="middle" x="261" y="-287.5" font-family="Helvetica,sans-Serif" font-size="10.00">include/utility/process_logger.h</text>
</a>
</g>
<!-- Node1&#45;&gt;Node10 -->
<g id="edge26" class="edge"><title>Node1&#45;&gt;Node10</title>
<path fill="none" stroke="midnightblue" d="M182.828,-331.59C202.057,-321.605 227.745,-308.267 244.332,-299.655"/>
<polygon fill="midnightblue" stroke="midnightblue" points="180.971,-328.61 173.709,-336.324 184.197,-334.822 180.971,-328.61"/>
</g>
<!-- Node3 -->
<g id="node5" class="node"><title>Node3</title>
<a xlink:href="../../d5/d8b/allSchedulers_8h_source.xhtml" target="_top" xlink:title="include/scheduler/allSchedulers.h">
<polygon fill="white" stroke="black" points="204,-112.5 204,-131.5 366,-131.5 366,-112.5 204,-112.5"/>
<text text-anchor="middle" x="285" y="-119.5" font-family="Helvetica,sans-Serif" font-size="10.00">include/scheduler/allSchedulers.h</text>
</a>
</g>
<!-- Node2&#45;&gt;Node3 -->
<g id="edge4" class="edge"><title>Node2&#45;&gt;Node3</title>
<path fill="none" stroke="midnightblue" d="M109.718,-166.024C151.276,-155.823 212.313,-140.841 250.303,-131.516"/>
<polygon fill="midnightblue" stroke="midnightblue" points="108.737,-162.661 99.8597,-168.444 110.406,-169.459 108.737,-162.661"/>
</g>
<!-- Node4 -->
<g id="node7" class="node"><title>Node4</title>
<a xlink:href="../../d0/daa/kernel_8h.xhtml" target="_top" xlink:title="include/kernel.h">
<polygon fill="white" stroke="black" points="242.5,-56.5 242.5,-75.5 327.5,-75.5 327.5,-56.5 242.5,-56.5"/>
<text text-anchor="middle" x="285" y="-63.5" font-family="Helvetica,sans-Serif" font-size="10.00">include/kernel.h</text>
</a>
</g>
<!-- Node3&#45;&gt;Node4 -->
<g id="edge6" class="edge"><title>Node3&#45;&gt;Node4</title>
<path fill="none" stroke="midnightblue" d="M285,-101.805C285,-92.9102 285,-82.7798 285,-75.7511"/>
<polygon fill="midnightblue" stroke="midnightblue" points="281.5,-102.083 285,-112.083 288.5,-102.083 281.5,-102.083"/>
</g>
<!-- Node5 -->
<g id="node9" class="node"><title>Node5</title>
<a xlink:href="../../d8/dc0/init_8h_source.xhtml" target="_top" xlink:title="include/init.h">
<polygon fill="white" stroke="black" points="249.5,-0.5 249.5,-19.5 320.5,-19.5 320.5,-0.5 249.5,-0.5"/>
<text text-anchor="middle" x="285" y="-7.5" font-family="Helvetica,sans-Serif" font-size="10.00">include/init.h</text>
</a>
</g>
<!-- Node4&#45;&gt;Node5 -->
<g id="edge8" class="edge"><title>Node4&#45;&gt;Node5</title>
<path fill="none" stroke="midnightblue" d="M285,-45.8045C285,-36.9102 285,-26.7798 285,-19.7511"/>
<polygon fill="midnightblue" stroke="midnightblue" points="281.5,-46.083 285,-56.083 288.5,-46.083 281.5,-46.083"/>
</g>
<!-- Node6&#45;&gt;Node2 -->
<g id="edge16" class="edge"><title>Node6&#45;&gt;Node2</title>
<path fill="none" stroke="midnightblue" d="M176.749,-220.906C149.676,-210.754 111.683,-196.506 87.7105,-187.516"/>
<polygon fill="midnightblue" stroke="midnightblue" points="175.591,-224.209 186.183,-224.444 178.048,-217.655 175.591,-224.209"/>
</g>
<!-- Node7 -->
<g id="node13" class="node"><title>Node7</title>
<a xlink:href="../../db/d41/fcfs_8h.xhtml" target="_top" xlink:title="include/scheduler/fcfs.h">
<polygon fill="white" stroke="black" points="149,-168.5 149,-187.5 269,-187.5 269,-168.5 149,-168.5"/>
<text text-anchor="middle" x="209" y="-175.5" font-family="Helvetica,sans-Serif" font-size="10.00">include/scheduler/fcfs.h</text>
</a>
</g>
<!-- Node6&#45;&gt;Node7 -->
<g id="edge12" class="edge"><title>Node6&#45;&gt;Node7</title>
<path fill="none" stroke="midnightblue" d="M209,-213.805C209,-204.91 209,-194.78 209,-187.751"/>
<polygon fill="midnightblue" stroke="midnightblue" points="205.5,-214.083 209,-224.083 212.5,-214.083 205.5,-214.083"/>
</g>
<!-- Node8 -->
<g id="node17" class="node"><title>Node8</title>
<a xlink:href="../../de/da3/multi__level_8h_source.xhtml" target="_top" xlink:title="include/scheduler/multi_level.h">
<polygon fill="white" stroke="black" points="287,-168.5 287,-187.5 437,-187.5 437,-168.5 287,-168.5"/>
<text text-anchor="middle" x="362" y="-175.5" font-family="Helvetica,sans-Serif" font-size="10.00">include/scheduler/multi_level.h</text>
</a>
</g>
<!-- Node6&#45;&gt;Node8 -->
<g id="edge18" class="edge"><title>Node6&#45;&gt;Node8</title>
<path fill="none" stroke="midnightblue" d="M242.889,-221.039C271.677,-210.879 312.287,-196.546 337.87,-187.516"/>
<polygon fill="midnightblue" stroke="midnightblue" points="241.508,-217.815 233.243,-224.444 243.838,-224.416 241.508,-217.815"/>
</g>
<!-- Node9 -->
<g id="node20" class="node"><title>Node9</title>
<a xlink:href="../../d9/dd2/round__robin_8h.xhtml" target="_top" xlink:title="include/scheduler/round_robin.h">
<polygon fill="white" stroke="black" points="455,-168.5 455,-187.5 609,-187.5 609,-168.5 455,-168.5"/>
<text text-anchor="middle" x="532" y="-175.5" font-family="Helvetica,sans-Serif" font-size="10.00">include/scheduler/round_robin.h</text>
</a>
</g>
<!-- Node6&#45;&gt;Node9 -->
<g id="edge22" class="edge"><title>Node6&#45;&gt;Node9</title>
<path fill="none" stroke="midnightblue" d="M270.067,-222.791C331.1,-212.587 423.867,-197.078 481.059,-187.516"/>
<polygon fill="midnightblue" stroke="midnightblue" points="269.466,-219.342 260.18,-224.444 270.621,-226.247 269.466,-219.342"/>
</g>
<!-- Node7&#45;&gt;Node3 -->
<g id="edge14" class="edge"><title>Node7&#45;&gt;Node3</title>
<path fill="none" stroke="midnightblue" d="M229.576,-162.38C243.312,-152.62 260.925,-140.106 272.567,-131.834"/>
<polygon fill="midnightblue" stroke="midnightblue" points="227.335,-159.679 221.211,-168.324 231.39,-165.385 227.335,-159.679"/>
</g>
<!-- Node8&#45;&gt;Node3 -->
<g id="edge20" class="edge"><title>Node8&#45;&gt;Node3</title>
<path fill="none" stroke="midnightblue" d="M341.099,-162.342C327.089,-152.517 309.117,-139.913 297.341,-131.655"/>
<polygon fill="midnightblue" stroke="midnightblue" points="339.432,-165.448 349.629,-168.324 343.451,-159.717 339.432,-165.448"/>
</g>
<!-- Node9&#45;&gt;Node3 -->
<g id="edge24" class="edge"><title>Node9&#45;&gt;Node3</title>
<path fill="none" stroke="midnightblue" d="M482.973,-166.281C436.296,-156.077 366.969,-140.92 323.955,-131.516"/>
<polygon fill="midnightblue" stroke="midnightblue" points="482.345,-169.727 492.862,-168.444 483.84,-162.888 482.345,-169.727"/>
</g>
<!-- Node10&#45;&gt;Node6 -->
<g id="edge28" class="edge"><title>Node10&#45;&gt;Node6</title>
<path fill="none" stroke="midnightblue" d="M245.321,-272.718C236.155,-263.2 224.947,-251.561 217.427,-243.751"/>
<polygon fill="midnightblue" stroke="midnightblue" points="242.956,-275.308 252.413,-280.083 247.998,-270.452 242.956,-275.308"/>
</g>
<!-- Node11 -->
<g id="node26" class="node"><title>Node11</title>
<a xlink:href="../../db/db5/top_8h_source.xhtml" target="_top" xlink:title="include/top.h">
<polygon fill="white" stroke="black" points="300,-224.5 300,-243.5 372,-243.5 372,-224.5 300,-224.5"/>
<text text-anchor="middle" x="336" y="-231.5" font-family="Helvetica,sans-Serif" font-size="10.00">include/top.h</text>
</a>
</g>
<!-- Node10&#45;&gt;Node11 -->
<g id="edge30" class="edge"><title>Node10&#45;&gt;Node11</title>
<path fill="none" stroke="midnightblue" d="M281.305,-274.38C294.861,-264.62 312.242,-252.106 323.731,-243.834"/>
<polygon fill="midnightblue" stroke="midnightblue" points="279.12,-271.641 273.05,-280.324 283.21,-277.321 279.12,-271.641"/>
</g>
</g>
</svg>
        <g id="navigator" transform="translate(0 0)" fill="#404254">
                <rect fill="#f2f5e9" fill-opacity="0.5" stroke="#606060" stroke-width=".5" x="0" y="0" width="60" height="60"/>
                <use id="zoomplus" xlink:href="#zoomPlus" x="17" y="9" onmousedown="handleZoom(evt,'in')"/>
                <use id="zoomminus" xlink:href="#zoomMin" x="42" y="9" onmousedown="handleZoom(evt,'out')"/>
                <use id="reset" xlink:href="#resetDef" x="30" y="36" onmousedown="handleReset()"/>
                <g id="arrowUp" xlink:href="#dirArrow" transform="translate(30 24)" onmousedown="handlePan(0,-1)">
                  <use xlink:href="#rim" fill="#404040">
                        <set attributeName="fill" to="#808080" begin="arrowUp.mouseover" end="arrowUp.mouseout"/>
                  </use>
                  <path fill="none" stroke="white" stroke-width="1.5" d="M0,-3.0v7 M-2.5,-0.5L0,-3.0L2.5,-0.5"/>
                </g>
                <g id="arrowRight" xlink:href="#dirArrow" transform="rotate(90) translate(36 -43)" onmousedown="handlePan(1,0)">
                  <use xlink:href="#rim" fill="#404040">
                        <set attributeName="fill" to="#808080" begin="arrowRight.mouseover" end="arrowRight.mouseout"/>
                  </use>
                  <path fill="none" stroke="white" stroke-width="1.5" d="M0,-3.0v7 M-2.5,-0.5L0,-3.0L2.5,-0.5"/>
                </g>
                <g id="arrowDown" xlink:href="#dirArrow" transform="rotate(180) translate(-30 -48)" onmousedown="handlePan(0,1)">
                  <use xlink:href="#rim" fill="#404040">
                        <set attributeName="fill" to="#808080" begin="arrowDown.mouseover" end="arrowDown.mouseout"/>
                  </use>
                  <path fill="none" stroke="white" stroke-width="1.5" d="M0,-3.0v7 M-2.5,-0.5L0,-3.0L2.5,-0.5"/>
                </g>
                <g id="arrowLeft" xlink:href="#dirArrow" transform="rotate(270) translate(-36 17)" onmousedown="handlePan(-1,0)">
                  <use xlink:href="#rim" fill="#404040">
                        <set attributeName="fill" to="#808080" begin="arrowLeft.mouseover" end="arrowLeft.mouseout"/>
                  </use>
                  <path fill="none" stroke="white" stroke-width="1.5" d="M0,-3.0v7 M-2.5,-0.5L0,-3.0L2.5,-0.5"/>
                </g>
        </g>
</svg>
