<?xml version="1.0" encoding="UTF-8" standalone="no"?>
<!DOCTYPE svg PUBLIC "-//W3C//DTD SVG 1.1//EN"
 "http://www.w3.org/Graphics/SVG/1.1/DTD/svg11.dtd">
<!-- Generated by graphviz version 2.28.0 (20111025.1818)
 -->
<!-- Title: G Pages: 1 -->
<svg width="326pt" height="196pt"
 viewBox="0.00 0.00 326.00 196.00" xmlns="http://www.w3.org/2000/svg" xmlns:xlink="http://www.w3.org/1999/xlink">
<g id="graph1" class="graph" transform="scale(1 1) rotate(0) translate(4 192)">
<title>G</title>
<polygon fill="white" stroke="white" points="-4,5 -4,-192 323,-192 323,5 -4,5"/>
<!-- Node1 -->
<g id="node1" class="node"><title>Node1</title>
<polygon fill="#bfbfbf" stroke="black" points="79.5,-168.5 79.5,-187.5 240.5,-187.5 240.5,-168.5 79.5,-168.5"/>
<text text-anchor="middle" x="160" y="-175.5" font-family="Helvetica,sans-Serif" font-size="10.00">include/devices/queued_device.h</text>
</g>
<!-- Node2 -->
<g id="node3" class="node"><title>Node2</title>
<a xlink:href="../../db/d9a/block__device_8h.xhtml" target="_top" xlink:title="include/devices/block_device.h">
<polygon fill="white" stroke="black" points="0,-112.5 0,-131.5 152,-131.5 152,-112.5 0,-112.5"/>
<text text-anchor="middle" x="76" y="-119.5" font-family="Helvetica,sans-Serif" font-size="10.00">include/devices/block_device.h</text>
</a>
</g>
<!-- Node1&#45;&gt;Node2 -->
<g id="edge2" class="edge"><title>Node1&#45;&gt;Node2</title>
<path fill="none" stroke="midnightblue" d="M138.068,-162.901C122.665,-152.999 102.554,-140.071 89.4626,-131.655"/>
<polygon fill="midnightblue" stroke="midnightblue" points="136.199,-165.86 146.504,-168.324 139.985,-159.972 136.199,-165.86"/>
</g>
<!-- Node5 -->
<g id="node9" class="node"><title>Node5</title>
<a xlink:href="../../d7/d59/char__device_8h.xhtml" target="_top" xlink:title="include/devices/char_device.h">
<polygon fill="white" stroke="black" points="170,-112.5 170,-131.5 318,-131.5 318,-112.5 170,-112.5"/>
<text text-anchor="middle" x="244" y="-119.5" font-family="Helvetica,sans-Serif" font-size="10.00">include/devices/char_device.h</text>
</a>
</g>
<!-- Node1&#45;&gt;Node5 -->
<g id="edge8" class="edge"><title>Node1&#45;&gt;Node5</title>
<path fill="none" stroke="midnightblue" d="M181.932,-162.901C197.335,-152.999 217.446,-140.071 230.537,-131.655"/>
<polygon fill="midnightblue" stroke="midnightblue" points="180.015,-159.972 173.496,-168.324 183.801,-165.86 180.015,-159.972"/>
</g>
<!-- Node3 -->
<g id="node5" class="node"><title>Node3</title>
<a xlink:href="../../d0/daa/kernel_8h.xhtml" target="_top" xlink:title="include/kernel.h">
<polygon fill="white" stroke="black" points="117.5,-56.5 117.5,-75.5 202.5,-75.5 202.5,-56.5 117.5,-56.5"/>
<text text-anchor="middle" x="160" y="-63.5" font-family="Helvetica,sans-Serif" font-size="10.00">include/kernel.h</text>
</a>
</g>
<!-- Node2&#45;&gt;Node3 -->
<g id="edge4" class="edge"><title>Node2&#45;&gt;Node3</title>
<path fill="none" stroke="midnightblue" d="M97.9325,-106.901C113.335,-96.9986 133.446,-84.0705 146.537,-75.6545"/>
<polygon fill="midnightblue" stroke="midnightblue" points="96.0152,-103.972 89.4961,-112.324 99.8005,-109.86 96.0152,-103.972"/>
</g>
<!-- Node4 -->
<g id="node7" class="node"><title>Node4</title>
<a xlink:href="../../d8/dc0/init_8h_source.xhtml" target="_top" xlink:title="include/init.h">
<polygon fill="white" stroke="black" points="124.5,-0.5 124.5,-19.5 195.5,-19.5 195.5,-0.5 124.5,-0.5"/>
<text text-anchor="middle" x="160" y="-7.5" font-family="Helvetica,sans-Serif" font-size="10.00">include/init.h</text>
</a>
</g>
<!-- Node3&#45;&gt;Node4 -->
<g id="edge6" class="edge"><title>Node3&#45;&gt;Node4</title>
<path fill="none" stroke="midnightblue" d="M160,-45.8045C160,-36.9102 160,-26.7798 160,-19.7511"/>
<polygon fill="midnightblue" stroke="midnightblue" points="156.5,-46.083 160,-56.083 163.5,-46.083 156.5,-46.083"/>
</g>
<!-- Node5&#45;&gt;Node3 -->
<g id="edge10" class="edge"><title>Node5&#45;&gt;Node3</title>
<path fill="none" stroke="midnightblue" d="M222.068,-106.901C206.665,-96.9986 186.554,-84.0705 173.463,-75.6545"/>
<polygon fill="midnightblue" stroke="midnightblue" points="220.199,-109.86 230.504,-112.324 223.985,-103.972 220.199,-109.86"/>
</g>
</g>
</svg>
