<?xml version="1.0" encoding="UTF-8" standalone="no"?>
<!DOCTYPE svg PUBLIC "-//W3C//DTD SVG 1.1//EN"
 "http://www.w3.org/Graphics/SVG/1.1/DTD/svg11.dtd">
<!-- Generated by graphviz version 2.28.0 (20111025.1818)
 -->
<!-- Title: G Pages: 1 -->
<!--zoomable 242 -->
<svg id="main" version="1.1" xmlns="http://www.w3.org/2000/svg" xmlns:xlink="http://www.w3.org/1999/xlink" xml:space="preserve" onload="init(evt)">
        <defs>
                <circle id="rim" cx="0" cy="0" r="7"/>
                <circle id="rim2" cx="0" cy="0" r="3.5"/>
                <g id="zoomPlus">
                        <use xlink:href="#rim" fill="#404040">
                                <set attributeName="fill" to="#808080" begin="zoomplus.mouseover" end="zoomplus.mouseout"/>
                        </use>
                        <path d="M-4,0h8M0,-4v8" fill="none" stroke="white" stroke-width="1.5" pointer-events="none"/>
                </g>
                <g id="zoomMin">
                        <use xlink:href="#rim" fill="#404040">
                                <set attributeName="fill" to="#808080" begin="zoomminus.mouseover" end="zoomminus.mouseout"/>
                        </use>
                        <path d="M-4,0h8" fill="none" stroke="white" stroke-width="1.5" pointer-events="none"/>
                </g>
                <g id="dirArrow">
                        <path fill="none" stroke="white" stroke-width="1.5" d="M0,-3.0v7 M-2.5,-0.5L0,-3.0L2.5,-0.5"/>
                </g>
               <g id="resetDef">
                       <use xlink:href="#rim2" fill="#404040">
                               <set attributeName="fill" to="#808080" begin="reset.mouseover" end="reset.mouseout"/>
                       </use>
               </g>
        </defs>

<script type="text/javascript">
var viewWidth = 609;
var viewHeight = 242;
var sectionId = 'dynsection-0';
</script>
<script xlink:href="../../svgpan.js"/>
<svg id="graph" class="graph">
<g id="viewport">
<title>G</title>
<polygon fill="white" stroke="white" points="-4,5 -4,-238 606,-238 606,5 -4,5"/>
<!-- Node1 -->
<g id="node1" class="node"><title>Node1</title>
<polygon fill="#bfbfbf" stroke="black" points="266,-0.5 266,-19.5 316,-19.5 316,-0.5 266,-0.5"/>
<text text-anchor="middle" x="291" y="-7.5" font-family="Helvetica,sans-Serif" font-size="10.00">cKernel</text>
</g>
<!-- Node1&#45;&gt;Node1 -->
<g id="edge30" class="edge"><title>Node1&#45;&gt;Node1</title>
<path fill="none" stroke="#9a32cd" stroke-dasharray="5,2" d="M326.446,-15.5827C330.996,-14.6126 334,-12.7517 334,-10 334,-5.48438 325.91,-3.36768 316.176,-3.6499"/>
<polygon fill="#9a32cd" stroke="#9a32cd" points="325.887,-12.1146 316.176,-16.3501 326.409,-19.0951 325.887,-12.1146"/>
<text text-anchor="middle" x="370" y="-7.5" font-family="Helvetica,sans-Serif" font-size="10.00"> kernel_instance</text>
</g>
<!-- Node2 -->
<g id="node2" class="node"><title>Node2</title>
<a xlink:href="../../dd/dc8/structProcessInfo.xhtml" target="_top" xlink:title="Structure for containing process state and data.">
<polygon fill="white" stroke="black" points="-0.5,-214.5 -0.5,-233.5 68.5,-233.5 68.5,-214.5 -0.5,-214.5"/>
<text text-anchor="middle" x="34" y="-221.5" font-family="Helvetica,sans-Serif" font-size="10.00">ProcessInfo</text>
</a>
</g>
<!-- Node2&#45;&gt;Node1 -->
<g id="edge2" class="edge"><title>Node2&#45;&gt;Node1</title>
<path fill="none" stroke="#9a32cd" stroke-dasharray="5,2" d="M25.903,-204.58C20.0962,-188.717 14.3676,-165.385 21,-146 36.3703,-101.076 54.3865,-94.1762 94,-68 148.657,-31.8832 226.515,-18.238 265.987,-13.4195"/>
<polygon fill="#9a32cd" stroke="#9a32cd" points="22.8052,-206.258 29.7846,-214.229 29.2994,-203.645 22.8052,-206.258"/>
<text text-anchor="middle" x="70.5" y="-114.5" font-family="Helvetica,sans-Serif" font-size="10.00"> runningProc</text>
</g>
<!-- Node8 -->
<g id="node15" class="node"><title>Node8</title>
<polygon fill="white" stroke="#bfbfbf" points="30,-146.5 30,-165.5 170,-165.5 170,-146.5 30,-146.5"/>
<text text-anchor="middle" x="100" y="-153.5" font-family="Helvetica,sans-Serif" font-size="10.00">std::queue&lt; ProcessInfo * &gt;</text>
</g>
<!-- Node2&#45;&gt;Node8 -->
<g id="edge18" class="edge"><title>Node2&#45;&gt;Node8</title>
<path fill="none" stroke="#9a32cd" stroke-dasharray="5,2" d="M49.9526,-207.047C62.8889,-194.111 80.6433,-176.357 91.1589,-165.841"/>
<polygon fill="#9a32cd" stroke="#9a32cd" points="47.2246,-204.826 42.6283,-214.372 52.1743,-209.775 47.2246,-204.826"/>
<text text-anchor="middle" x="94.5" y="-187.5" font-family="Helvetica,sans-Serif" font-size="10.00"> elements</text>
</g>
<!-- Node3 -->
<g id="node4" class="node"><title>Node3</title>
<a xlink:href="../../d8/d4f/classCharDevice.xhtml" target="_top" xlink:title="CharDevice">
<polygon fill="white" stroke="black" points="169,-68.5 169,-87.5 237,-87.5 237,-68.5 169,-68.5"/>
<text text-anchor="middle" x="203" y="-75.5" font-family="Helvetica,sans-Serif" font-size="10.00">CharDevice</text>
</a>
</g>
<!-- Node3&#45;&gt;Node1 -->
<g id="edge4" class="edge"><title>Node3&#45;&gt;Node1</title>
<path fill="none" stroke="#9a32cd" stroke-dasharray="5,2" d="M219.034,-61.5665C227.133,-54.0935 237.282,-45.2025 247,-38 256.073,-31.2759 266.873,-24.6302 275.503,-19.6145"/>
<polygon fill="#9a32cd" stroke="#9a32cd" points="216.599,-59.0521 211.711,-68.4519 221.394,-64.152 216.599,-59.0521"/>
<text text-anchor="middle" x="267" y="-41.5" font-family="Helvetica,sans-Serif" font-size="10.00"> cDevice</text>
</g>
<!-- Node4 -->
<g id="node6" class="node"><title>Node4</title>
<a xlink:href="../../db/d0e/classAbstractDevice.xhtml" target="_top" xlink:title="AbstractDevice">
<polygon fill="white" stroke="black" points="272,-146.5 272,-165.5 356,-165.5 356,-146.5 272,-146.5"/>
<text text-anchor="middle" x="314" y="-153.5" font-family="Helvetica,sans-Serif" font-size="10.00">AbstractDevice</text>
</a>
</g>
<!-- Node4&#45;&gt;Node3 -->
<g id="edge6" class="edge"><title>Node4&#45;&gt;Node3</title>
<path fill="none" stroke="midnightblue" d="M292.921,-140.568C270.084,-124.931 234.399,-100.498 215.585,-87.6165"/>
<polygon fill="midnightblue" stroke="midnightblue" points="291.038,-143.52 301.267,-146.282 294.993,-137.744 291.038,-143.52"/>
</g>
<!-- Node5 -->
<g id="node8" class="node"><title>Node5</title>
<a xlink:href="../../db/d6d/classBlockDevice.xhtml" target="_top" xlink:title="BlockDevice">
<polygon fill="white" stroke="black" points="255,-68.5 255,-87.5 327,-87.5 327,-68.5 255,-68.5"/>
<text text-anchor="middle" x="291" y="-75.5" font-family="Helvetica,sans-Serif" font-size="10.00">BlockDevice</text>
</a>
</g>
<!-- Node4&#45;&gt;Node5 -->
<g id="edge10" class="edge"><title>Node4&#45;&gt;Node5</title>
<path fill="none" stroke="midnightblue" d="M308.454,-136.674C303.745,-121.113 297.196,-99.4722 293.608,-87.6165"/>
<polygon fill="midnightblue" stroke="midnightblue" points="305.115,-137.724 311.362,-146.282 311.815,-135.697 305.115,-137.724"/>
</g>
<!-- Node9 -->
<g id="node18" class="node"><title>Node9</title>
<a xlink:href="../../dc/d14/classClockDevice.xhtml" target="_top" xlink:title="ClockDevice">
<polygon fill="white" stroke="black" points="345.5,-68.5 345.5,-87.5 418.5,-87.5 418.5,-68.5 345.5,-68.5"/>
<text text-anchor="middle" x="382" y="-75.5" font-family="Helvetica,sans-Serif" font-size="10.00">ClockDevice</text>
</a>
</g>
<!-- Node4&#45;&gt;Node9 -->
<g id="edge22" class="edge"><title>Node4&#45;&gt;Node9</title>
<path fill="none" stroke="midnightblue" d="M328.815,-138.442C342.818,-122.792 363.275,-99.9282 374.291,-87.6165"/>
<polygon fill="midnightblue" stroke="midnightblue" points="325.86,-136.496 321.8,-146.282 331.077,-141.163 325.86,-136.496"/>
</g>
<!-- Node5&#45;&gt;Node1 -->
<g id="edge8" class="edge"><title>Node5&#45;&gt;Node1</title>
<path fill="none" stroke="#9a32cd" stroke-dasharray="5,2" d="M291,-58.0413C291,-45.4724 291,-29.5631 291,-19.8411"/>
<polygon fill="#9a32cd" stroke="#9a32cd" points="287.5,-58.3716 291,-68.3717 294.5,-58.3717 287.5,-58.3716"/>
<text text-anchor="middle" x="311" y="-41.5" font-family="Helvetica,sans-Serif" font-size="10.00"> bDevice</text>
</g>
<!-- Node6 -->
<g id="node11" class="node"><title>Node6</title>
<a xlink:href="../../d6/dc3/classcFCFS.xhtml" target="_top" xlink:title="cFCFS">
<polygon fill="white" stroke="black" points="103,-68.5 103,-87.5 151,-87.5 151,-68.5 103,-68.5"/>
<text text-anchor="middle" x="127" y="-75.5" font-family="Helvetica,sans-Serif" font-size="10.00">cFCFS</text>
</a>
</g>
<!-- Node6&#45;&gt;Node1 -->
<g id="edge12" class="edge"><title>Node6&#45;&gt;Node1</title>
<path fill="none" stroke="#9a32cd" stroke-dasharray="5,2" d="M145.37,-61.9557C156.079,-53.8403 170.166,-44.238 184,-38 210.722,-25.9508 243.722,-18.6599 265.952,-14.7436"/>
<polygon fill="#9a32cd" stroke="#9a32cd" points="142.964,-59.3947 137.249,-68.3164 147.28,-64.9056 142.964,-59.3947"/>
<text text-anchor="middle" x="207" y="-41.5" font-family="Helvetica,sans-Serif" font-size="10.00"> scheduler</text>
</g>
<!-- Node7 -->
<g id="node13" class="node"><title>Node7</title>
<a xlink:href="../../d0/d21/classcScheduler.xhtml" target="_top" xlink:title="cScheduler">
<polygon fill="white" stroke="black" points="188.5,-146.5 188.5,-165.5 253.5,-165.5 253.5,-146.5 188.5,-146.5"/>
<text text-anchor="middle" x="221" y="-153.5" font-family="Helvetica,sans-Serif" font-size="10.00">cScheduler</text>
</a>
</g>
<!-- Node7&#45;&gt;Node6 -->
<g id="edge14" class="edge"><title>Node7&#45;&gt;Node6</title>
<path fill="none" stroke="midnightblue" d="M211.001,-137.827C204.364,-127.572 194.887,-114.862 184,-106 174.319,-98.1198 161.957,-91.9037 151.221,-87.4323"/>
<polygon fill="midnightblue" stroke="midnightblue" points="208.037,-139.689 216.256,-146.374 213.999,-136.022 208.037,-139.689"/>
</g>
<!-- Node8&#45;&gt;Node6 -->
<g id="edge16" class="edge"><title>Node8&#45;&gt;Node6</title>
<path fill="none" stroke="#9a32cd" stroke-dasharray="5,2" d="M106.51,-136.674C112.039,-121.113 119.727,-99.4722 123.939,-87.6165"/>
<polygon fill="#9a32cd" stroke="#9a32cd" points="103.147,-135.687 103.097,-146.282 109.743,-138.031 103.147,-135.687"/>
<text text-anchor="middle" x="148.5" y="-120" font-family="Helvetica,sans-Serif" font-size="10.00"> readyQueue</text>
<text text-anchor="middle" x="148.5" y="-109" font-family="Helvetica,sans-Serif" font-size="10.00">blockedQueue</text>
</g>
<!-- Node9&#45;&gt;Node1 -->
<g id="edge20" class="edge"><title>Node9&#45;&gt;Node1</title>
<path fill="none" stroke="#9a32cd" stroke-dasharray="5,2" d="M364.667,-61.6117C355.992,-54.1732 345.191,-45.2986 335,-38 325.819,-31.4247 315.017,-24.7812 306.413,-19.7296"/>
<polygon fill="#9a32cd" stroke="#9a32cd" points="362.403,-64.2805 372.244,-68.2052 366.998,-59.0001 362.403,-64.2805"/>
<text text-anchor="middle" x="381.5" y="-41.5" font-family="Helvetica,sans-Serif" font-size="10.00"> clockInterrupt</text>
</g>
<!-- Node10 -->
<g id="node21" class="node"><title>Node10</title>
<a xlink:href="../../d2/dc6/classcCPU.xhtml" target="_top" xlink:title="A class for emulating a simple cpu.">
<polygon fill="white" stroke="black" points="437,-68.5 437,-87.5 481,-87.5 481,-68.5 437,-68.5"/>
<text text-anchor="middle" x="459" y="-75.5" font-family="Helvetica,sans-Serif" font-size="10.00">cCPU</text>
</a>
</g>
<!-- Node10&#45;&gt;Node1 -->
<g id="edge24" class="edge"><title>Node10&#45;&gt;Node1</title>
<path fill="none" stroke="#9a32cd" stroke-dasharray="5,2" d="M445.562,-60.9321C437.977,-52.8727 427.858,-43.6489 417,-38 384.849,-21.2727 342.932,-14.9037 316.484,-12.4817"/>
<polygon fill="#9a32cd" stroke="#9a32cd" points="442.971,-63.2859 452.235,-68.4279 448.2,-58.6315 442.971,-63.2859"/>
<text text-anchor="middle" x="443.5" y="-41.5" font-family="Helvetica,sans-Serif" font-size="10.00"> cpu</text>
</g>
<!-- Node11 -->
<g id="node23" class="node"><title>Node11</title>
<a xlink:href="../../de/dd4/classcIDManager.xhtml" target="_top" xlink:title="cIDManager">
<polygon fill="white" stroke="black" points="499,-68.5 499,-87.5 569,-87.5 569,-68.5 499,-68.5"/>
<text text-anchor="middle" x="534" y="-75.5" font-family="Helvetica,sans-Serif" font-size="10.00">cIDManager</text>
</a>
</g>
<!-- Node11&#45;&gt;Node1 -->
<g id="edge26" class="edge"><title>Node11&#45;&gt;Node1</title>
<path fill="none" stroke="#9a32cd" stroke-dasharray="5,2" d="M511.39,-63.2101C496.454,-54.698 476.167,-44.2464 457,-38 408.557,-22.213 349.026,-15.403 316.032,-12.667"/>
<polygon fill="#9a32cd" stroke="#9a32cd" points="509.968,-66.433 520.367,-68.4599 513.502,-60.3904 509.968,-66.433"/>
<text text-anchor="middle" x="513" y="-41.5" font-family="Helvetica,sans-Serif" font-size="10.00"> idGenerator</text>
</g>
<!-- Node12 -->
<g id="node25" class="node"><title>Node12</title>
<polygon fill="white" stroke="#bfbfbf" points="467.5,-146.5 467.5,-165.5 600.5,-165.5 600.5,-146.5 467.5,-146.5"/>
<text text-anchor="middle" x="534" y="-153.5" font-family="Helvetica,sans-Serif" font-size="10.00">std::queue&lt; unsigned int &gt;</text>
</g>
<!-- Node12&#45;&gt;Node11 -->
<g id="edge28" class="edge"><title>Node12&#45;&gt;Node11</title>
<path fill="none" stroke="#9a32cd" stroke-dasharray="5,2" d="M534,-136.224C534,-120.697 534,-99.3582 534,-87.6165"/>
<polygon fill="#9a32cd" stroke="#9a32cd" points="530.5,-136.282 534,-146.282 537.5,-136.282 530.5,-136.282"/>
<text text-anchor="middle" x="549.5" y="-114.5" font-family="Helvetica,sans-Serif" font-size="10.00"> freeID</text>
</g>
</g>
</svg>
        <g id="navigator" transform="translate(0 0)" fill="#404254">
                <rect fill="#f2f5e9" fill-opacity="0.5" stroke="#606060" stroke-width=".5" x="0" y="0" width="60" height="60"/>
                <use id="zoomplus" xlink:href="#zoomPlus" x="17" y="9" onmousedown="handleZoom(evt,'in')"/>
                <use id="zoomminus" xlink:href="#zoomMin" x="42" y="9" onmousedown="handleZoom(evt,'out')"/>
                <use id="reset" xlink:href="#resetDef" x="30" y="36" onmousedown="handleReset()"/>
                <g id="arrowUp" xlink:href="#dirArrow" transform="translate(30 24)" onmousedown="handlePan(0,-1)">
                  <use xlink:href="#rim" fill="#404040">
                        <set attributeName="fill" to="#808080" begin="arrowUp.mouseover" end="arrowUp.mouseout"/>
                  </use>
                  <path fill="none" stroke="white" stroke-width="1.5" d="M0,-3.0v7 M-2.5,-0.5L0,-3.0L2.5,-0.5"/>
                </g>
                <g id="arrowRight" xlink:href="#dirArrow" transform="rotate(90) translate(36 -43)" onmousedown="handlePan(1,0)">
                  <use xlink:href="#rim" fill="#404040">
                        <set attributeName="fill" to="#808080" begin="arrowRight.mouseover" end="arrowRight.mouseout"/>
                  </use>
                  <path fill="none" stroke="white" stroke-width="1.5" d="M0,-3.0v7 M-2.5,-0.5L0,-3.0L2.5,-0.5"/>
                </g>
                <g id="arrowDown" xlink:href="#dirArrow" transform="rotate(180) translate(-30 -48)" onmousedown="handlePan(0,1)">
                  <use xlink:href="#rim" fill="#404040">
                        <set attributeName="fill" to="#808080" begin="arrowDown.mouseover" end="arrowDown.mouseout"/>
                  </use>
                  <path fill="none" stroke="white" stroke-width="1.5" d="M0,-3.0v7 M-2.5,-0.5L0,-3.0L2.5,-0.5"/>
                </g>
                <g id="arrowLeft" xlink:href="#dirArrow" transform="rotate(270) translate(-36 17)" onmousedown="handlePan(-1,0)">
                  <use xlink:href="#rim" fill="#404040">
                        <set attributeName="fill" to="#808080" begin="arrowLeft.mouseover" end="arrowLeft.mouseout"/>
                  </use>
                  <path fill="none" stroke="white" stroke-width="1.5" d="M0,-3.0v7 M-2.5,-0.5L0,-3.0L2.5,-0.5"/>
                </g>
        </g>
</svg>
