<?xml version="1.0" encoding="UTF-8" standalone="no"?>
<!DOCTYPE svg PUBLIC "-//W3C//DTD SVG 1.1//EN"
 "http://www.w3.org/Graphics/SVG/1.1/DTD/svg11.dtd">
<!-- Generated by graphviz version 2.28.0 (20111025.1818)
 -->
<!-- Title: G Pages: 1 -->
<!--zoomable 312 -->
<svg id="main" version="1.1" xmlns="http://www.w3.org/2000/svg" xmlns:xlink="http://www.w3.org/1999/xlink" xml:space="preserve" onload="init(evt)">
        <defs>
                <circle id="rim" cx="0" cy="0" r="7"/>
                <circle id="rim2" cx="0" cy="0" r="3.5"/>
                <g id="zoomPlus">
                        <use xlink:href="#rim" fill="#404040">
                                <set attributeName="fill" to="#808080" begin="zoomplus.mouseover" end="zoomplus.mouseout"/>
                        </use>
                        <path d="M-4,0h8M0,-4v8" fill="none" stroke="white" stroke-width="1.5" pointer-events="none"/>
                </g>
                <g id="zoomMin">
                        <use xlink:href="#rim" fill="#404040">
                                <set attributeName="fill" to="#808080" begin="zoomminus.mouseover" end="zoomminus.mouseout"/>
                        </use>
                        <path d="M-4,0h8" fill="none" stroke="white" stroke-width="1.5" pointer-events="none"/>
                </g>
                <g id="dirArrow">
                        <path fill="none" stroke="white" stroke-width="1.5" d="M0,-3.0v7 M-2.5,-0.5L0,-3.0L2.5,-0.5"/>
                </g>
               <g id="resetDef">
                       <use xlink:href="#rim2" fill="#404040">
                               <set attributeName="fill" to="#808080" begin="reset.mouseover" end="reset.mouseout"/>
                       </use>
               </g>
        </defs>

<script type="text/javascript">
var viewWidth = 867;
var viewHeight = 312;
var sectionId = 'dynsection-0';
</script>
<script xlink:href="../../svgpan.js"/>
<svg id="graph" class="graph">
<g id="viewport">
<title>G</title>
<polygon fill="white" stroke="white" points="-4,5 -4,-308.006 864,-308.006 864,5 -4,5"/>
<!-- Node1 -->
<g id="node1" class="node"><title>Node1</title>
<polygon fill="#bfbfbf" stroke="black" points="798,-154.506 798,-173.506 848,-173.506 848,-154.506 798,-154.506"/>
<text text-anchor="middle" x="823" y="-161.506" font-family="Helvetica,sans-Serif" font-size="10.00">cKernel</text>
</g>
<!-- Node1&#45;&gt;Node1 -->
<g id="edge30" class="edge"><title>Node1&#45;&gt;Node1</title>
<path fill="none" stroke="#9a32cd" stroke-dasharray="5,2" d="M809.372,-183.773C810.443,-188.503 814.985,-192.006 823,-192.006 836.152,-192.006 839.954,-182.572 834.406,-173.763"/>
<polygon fill="#9a32cd" stroke="#9a32cd" points="812.844,-184.284 811.594,-173.763 806.01,-182.767 812.844,-184.284"/>
<text text-anchor="middle" x="823" y="-195.006" font-family="Helvetica,sans-Serif" font-size="10.00"> kernel_instance</text>
</g>
<!-- Node2 -->
<g id="node2" class="node"><title>Node2</title>
<a xlink:href="../../dd/dc8/structProcessInfo.xhtml" target="_top" xlink:title="Structure for containing process state and data.">
<polygon fill="white" stroke="black" points="196.5,-186.506 196.5,-205.506 265.5,-205.506 265.5,-186.506 196.5,-186.506"/>
<text text-anchor="middle" x="231" y="-193.506" font-family="Helvetica,sans-Serif" font-size="10.00">ProcessInfo</text>
</a>
</g>
<!-- Node2&#45;&gt;Node1 -->
<g id="edge2" class="edge"><title>Node2&#45;&gt;Node1</title>
<path fill="none" stroke="#9a32cd" stroke-dasharray="5,2" d="M275.854,-193.628C392.582,-187.297 708.075,-170.185 797.862,-165.316"/>
<polygon fill="#9a32cd" stroke="#9a32cd" points="275.636,-190.134 265.84,-194.171 276.015,-197.124 275.636,-190.134"/>
<text text-anchor="middle" x="564" y="-182.006" font-family="Helvetica,sans-Serif" font-size="10.00"> runningProc</text>
</g>
<!-- Node5 -->
<g id="node8" class="node"><title>Node5</title>
<polygon fill="white" stroke="#bfbfbf" points="378,-208.506 378,-227.506 518,-227.506 518,-208.506 378,-208.506"/>
<text text-anchor="middle" x="448" y="-215.506" font-family="Helvetica,sans-Serif" font-size="10.00">std::queue&lt; ProcessInfo * &gt;</text>
</g>
<!-- Node2&#45;&gt;Node5 -->
<g id="edge10" class="edge"><title>Node2&#45;&gt;Node5</title>
<path fill="none" stroke="#9a32cd" stroke-dasharray="5,2" d="M275.899,-200.498C305.155,-203.492 344.223,-207.49 377.641,-210.909"/>
<polygon fill="#9a32cd" stroke="#9a32cd" points="275.898,-196.98 265.594,-199.444 275.185,-203.944 275.898,-196.98"/>
<text text-anchor="middle" x="338" y="-211.006" font-family="Helvetica,sans-Serif" font-size="10.00"> elements</text>
</g>
<!-- Node3 -->
<g id="node4" class="node"><title>Node3</title>
<a xlink:href="../../dd/d36/classcBlockDevice.xhtml" target="_top" xlink:title="Queued block device.">
<polygon fill="white" stroke="black" points="615.5,-246.506 615.5,-265.506 692.5,-265.506 692.5,-246.506 615.5,-246.506"/>
<text text-anchor="middle" x="654" y="-253.506" font-family="Helvetica,sans-Serif" font-size="10.00">cBlockDevice</text>
</a>
</g>
<!-- Node3&#45;&gt;Node1 -->
<g id="edge4" class="edge"><title>Node3&#45;&gt;Node1</title>
<path fill="none" stroke="#9a32cd" stroke-dasharray="5,2" d="M702.59,-252.822C727.456,-249.225 757.34,-241.692 780,-226.006 799.242,-212.687 812.189,-187.446 818.181,-173.633"/>
<polygon fill="#9a32cd" stroke="#9a32cd" points="702.105,-249.355 692.629,-254.095 702.993,-256.298 702.105,-249.355"/>
<text text-anchor="middle" x="748" y="-252.006" font-family="Helvetica,sans-Serif" font-size="10.00"> bDevice</text>
</g>
<!-- Node4 -->
<g id="node6" class="node"><title>Node4</title>
<a xlink:href="../../d7/d38/classcAbsQueuedDevice.xhtml" target="_top" xlink:title="Abstract class for a device which queues requests.">
<polygon fill="white" stroke="black" points="396,-278.506 396,-297.506 500,-297.506 500,-278.506 396,-278.506"/>
<text text-anchor="middle" x="448" y="-285.506" font-family="Helvetica,sans-Serif" font-size="10.00">cAbsQueuedDevice</text>
</a>
</g>
<!-- Node4&#45;&gt;Node3 -->
<g id="edge6" class="edge"><title>Node4&#45;&gt;Node3</title>
<path fill="none" stroke="midnightblue" d="M510.105,-278.421C544.294,-273.058 585.827,-266.543 615.286,-261.922"/>
<polygon fill="midnightblue" stroke="midnightblue" points="509.551,-274.965 500.214,-279.973 510.636,-281.881 509.551,-274.965"/>
</g>
<!-- Node7 -->
<g id="node13" class="node"><title>Node7</title>
<a xlink:href="../../d9/de9/classcCharDevice.xhtml" target="_top" xlink:title="Queued char device.">
<polygon fill="white" stroke="black" points="617,-284.506 617,-303.506 691,-303.506 691,-284.506 617,-284.506"/>
<text text-anchor="middle" x="654" y="-291.506" font-family="Helvetica,sans-Serif" font-size="10.00">cCharDevice</text>
</a>
</g>
<!-- Node4&#45;&gt;Node7 -->
<g id="edge16" class="edge"><title>Node4&#45;&gt;Node7</title>
<path fill="none" stroke="midnightblue" d="M510.273,-289.809C545.049,-290.831 587.383,-292.077 616.876,-292.944"/>
<polygon fill="midnightblue" stroke="midnightblue" points="510.313,-286.308 500.214,-289.513 510.107,-293.305 510.313,-286.308"/>
</g>
<!-- Node5&#45;&gt;Node3 -->
<g id="edge8" class="edge"><title>Node5&#45;&gt;Node3</title>
<path fill="none" stroke="#9a32cd" stroke-dasharray="5,2" d="M503.744,-207.24C531.335,-204.343 564.65,-204.826 592,-217.006 602.924,-221.872 600.316,-229.99 610,-237.006 615.023,-240.646 620.853,-243.799 626.569,-246.434"/>
<polygon fill="#9a32cd" stroke="#9a32cd" points="502.974,-203.808 493.474,-208.498 503.825,-210.756 502.974,-203.808"/>
<text text-anchor="middle" x="564" y="-220.006" font-family="Helvetica,sans-Serif" font-size="10.00"> waitQueue</text>
</g>
<!-- Node5&#45;&gt;Node7 -->
<g id="edge18" class="edge"><title>Node5&#45;&gt;Node7</title>
<path fill="none" stroke="#9a32cd" stroke-dasharray="5,2" d="M484.381,-231.188C525.175,-246.385 591.237,-270.997 627.373,-284.459"/>
<polygon fill="#9a32cd" stroke="#9a32cd" points="485.429,-227.843 474.837,-227.632 482.986,-234.403 485.429,-227.843"/>
<text text-anchor="middle" x="564" y="-272.006" font-family="Helvetica,sans-Serif" font-size="10.00"> waitQueue</text>
</g>
<!-- Node6 -->
<g id="node11" class="node"><title>Node6</title>
<a xlink:href="../../d0/d21/classcScheduler.xhtml" target="_top" xlink:title="Abstract Interface for Schedulers.">
<polygon fill="white" stroke="black" points="621.5,-208.506 621.5,-227.506 686.5,-227.506 686.5,-208.506 621.5,-208.506"/>
<text text-anchor="middle" x="654" y="-215.506" font-family="Helvetica,sans-Serif" font-size="10.00">cScheduler</text>
</a>
</g>
<!-- Node6&#45;&gt;Node1 -->
<g id="edge12" class="edge"><title>Node6&#45;&gt;Node1</title>
<path fill="none" stroke="#9a32cd" stroke-dasharray="5,2" d="M696.883,-214.509C721.805,-211.331 753.609,-205.319 780,-194.006 791.695,-188.993 803.338,-180.311 811.389,-173.573"/>
<polygon fill="#9a32cd" stroke="#9a32cd" points="696.184,-211.066 686.659,-215.704 696.997,-218.019 696.184,-211.066"/>
<text text-anchor="middle" x="748" y="-214.006" font-family="Helvetica,sans-Serif" font-size="10.00"> scheduler</text>
</g>
<!-- Node7&#45;&gt;Node1 -->
<g id="edge14" class="edge"><title>Node7&#45;&gt;Node1</title>
<path fill="none" stroke="#9a32cd" stroke-dasharray="5,2" d="M701.512,-292.842C727.254,-289.939 758.326,-282.424 780,-264.006 808.268,-239.985 817.901,-193.716 820.84,-173.665"/>
<polygon fill="#9a32cd" stroke="#9a32cd" points="700.848,-289.388 691.214,-293.796 701.494,-296.359 700.848,-289.388"/>
<text text-anchor="middle" x="748" y="-293.006" font-family="Helvetica,sans-Serif" font-size="10.00"> cDevice</text>
</g>
<!-- Node8 -->
<g id="node17" class="node"><title>Node8</title>
<a xlink:href="../../dc/d14/classClockDevice.xhtml" target="_top" xlink:title="Device for generating repeated clock interrupts.">
<polygon fill="white" stroke="black" points="617.5,-132.506 617.5,-151.506 690.5,-151.506 690.5,-132.506 617.5,-132.506"/>
<text text-anchor="middle" x="654" y="-139.506" font-family="Helvetica,sans-Serif" font-size="10.00">ClockDevice</text>
</a>
</g>
<!-- Node8&#45;&gt;Node1 -->
<g id="edge20" class="edge"><title>Node8&#45;&gt;Node1</title>
<path fill="none" stroke="#9a32cd" stroke-dasharray="5,2" d="M700.821,-145.583C724.535,-147.734 753.908,-150.866 780,-155.006 785.745,-155.918 791.888,-157.11 797.653,-158.326"/>
<polygon fill="#9a32cd" stroke="#9a32cd" points="700.962,-142.082 690.694,-144.692 700.349,-149.055 700.962,-142.082"/>
<text text-anchor="middle" x="748" y="-158.006" font-family="Helvetica,sans-Serif" font-size="10.00"> clockInterrupt</text>
</g>
<!-- Node9 -->
<g id="node19" class="node"><title>Node9</title>
<a xlink:href="../../db/d0e/classAbstractDevice.xhtml" target="_top" xlink:title="An abstract device class.">
<polygon fill="white" stroke="black" points="406,-132.506 406,-151.506 490,-151.506 490,-132.506 406,-132.506"/>
<text text-anchor="middle" x="448" y="-139.506" font-family="Helvetica,sans-Serif" font-size="10.00">AbstractDevice</text>
</a>
</g>
<!-- Node9&#45;&gt;Node8 -->
<g id="edge22" class="edge"><title>Node9&#45;&gt;Node8</title>
<path fill="none" stroke="midnightblue" d="M500.71,-142.006C537.134,-142.006 584.971,-142.006 617.232,-142.006"/>
<polygon fill="midnightblue" stroke="midnightblue" points="500.282,-138.507 490.282,-142.006 500.282,-145.507 500.282,-138.507"/>
</g>
<!-- Node10 -->
<g id="node21" class="node"><title>Node10</title>
<a xlink:href="../../d2/dc6/classcCPU.xhtml" target="_top" xlink:title="A class for emulating a simple cpu.">
<polygon fill="white" stroke="black" points="632,-94.5064 632,-113.506 676,-113.506 676,-94.5064 632,-94.5064"/>
<text text-anchor="middle" x="654" y="-101.506" font-family="Helvetica,sans-Serif" font-size="10.00">cCPU</text>
</a>
</g>
<!-- Node10&#45;&gt;Node1 -->
<g id="edge24" class="edge"><title>Node10&#45;&gt;Node1</title>
<path fill="none" stroke="#9a32cd" stroke-dasharray="5,2" d="M686.296,-107.233C712.335,-110.79 749.876,-117.982 780,-132.006 792.133,-137.655 804.088,-147.269 812.121,-154.488"/>
<polygon fill="#9a32cd" stroke="#9a32cd" points="686.598,-103.743 676.238,-105.961 685.72,-110.688 686.598,-103.743"/>
<text text-anchor="middle" x="748" y="-135.006" font-family="Helvetica,sans-Serif" font-size="10.00"> cpu</text>
</g>
<!-- Node11 -->
<g id="node23" class="node"><title>Node11</title>
<a xlink:href="../../de/dd4/classcIDManager.xhtml" target="_top" xlink:title="A class for managing unique IDs.">
<polygon fill="white" stroke="black" points="413,-0.506424 413,-19.5064 483,-19.5064 483,-0.506424 413,-0.506424"/>
<text text-anchor="middle" x="448" y="-7.50642" font-family="Helvetica,sans-Serif" font-size="10.00">cIDManager</text>
</a>
</g>
<!-- Node11&#45;&gt;Node1 -->
<g id="edge26" class="edge"><title>Node11&#45;&gt;Node1</title>
<path fill="none" stroke="#9a32cd" stroke-dasharray="5,2" d="M493.565,-3.63522C564.314,3.76094 702.257,6.6622 780,-68.0064 805.585,-92.5795 816.562,-135.418 820.34,-154.438"/>
<polygon fill="#9a32cd" stroke="#9a32cd" points="492.764,-0.203234 483.218,-4.79991 493.547,-7.15931 492.764,-0.203234"/>
<text text-anchor="middle" x="654" y="-22.0064" font-family="Helvetica,sans-Serif" font-size="10.00"> idGenerator</text>
</g>
<!-- Node13 -->
<g id="node28" class="node"><title>Node13</title>
<a xlink:href="../../db/d63/classcProcessLogger.xhtml" target="_top" xlink:title="Class specifically for logging process state information.">
<polygon fill="white" stroke="black" points="610.5,-56.5064 610.5,-75.5064 697.5,-75.5064 697.5,-56.5064 610.5,-56.5064"/>
<text text-anchor="middle" x="654" y="-63.5064" font-family="Helvetica,sans-Serif" font-size="10.00">cProcessLogger</text>
</a>
</g>
<!-- Node11&#45;&gt;Node13 -->
<g id="edge42" class="edge"><title>Node11&#45;&gt;Node13</title>
<path fill="none" stroke="#9a32cd" stroke-dasharray="5,2" d="M493.185,-18.6081C521.65,-24.5398 559.311,-33.1202 592,-43.0064 604.675,-46.8397 618.506,-51.9734 629.789,-56.418"/>
<polygon fill="#9a32cd" stroke="#9a32cd" points="493.641,-15.1286 483.141,-16.545 492.232,-21.9854 493.641,-15.1286"/>
<text text-anchor="middle" x="564" y="-46.0064" font-family="Helvetica,sans-Serif" font-size="10.00"> lineIDs</text>
</g>
<!-- Node12 -->
<g id="node25" class="node"><title>Node12</title>
<polygon fill="white" stroke="#bfbfbf" points="164.5,-0.506424 164.5,-19.5064 297.5,-19.5064 297.5,-0.506424 164.5,-0.506424"/>
<text text-anchor="middle" x="231" y="-7.50642" font-family="Helvetica,sans-Serif" font-size="10.00">std::queue&lt; unsigned int &gt;</text>
</g>
<!-- Node12&#45;&gt;Node11 -->
<g id="edge28" class="edge"><title>Node12&#45;&gt;Node11</title>
<path fill="none" stroke="#9a32cd" stroke-dasharray="5,2" d="M308.11,-10.0064C343.908,-10.0064 384.795,-10.0064 412.888,-10.0064"/>
<polygon fill="#9a32cd" stroke="#9a32cd" points="307.675,-6.50652 297.675,-10.0064 307.675,-13.5065 307.675,-6.50652"/>
<text text-anchor="middle" x="338" y="-13.0064" font-family="Helvetica,sans-Serif" font-size="10.00"> freeID</text>
</g>
<!-- Node13&#45;&gt;Node1 -->
<g id="edge32" class="edge"><title>Node13&#45;&gt;Node1</title>
<path fill="none" stroke="#9a32cd" stroke-dasharray="5,2" d="M707.729,-70.0786C731.6,-74.0654 759.087,-81.8553 780,-97.0064 800.234,-111.666 812.926,-139.345 818.573,-154.123"/>
<polygon fill="#9a32cd" stroke="#9a32cd" points="708.155,-66.6036 697.749,-68.5924 707.124,-73.5273 708.155,-66.6036"/>
<text text-anchor="middle" x="748" y="-100.006" font-family="Helvetica,sans-Serif" font-size="10.00"> procLogger</text>
</g>
<!-- Node14 -->
<g id="node30" class="node"><title>Node14</title>
<polygon fill="white" stroke="#bfbfbf" points="395.5,-42.5064 395.5,-61.5064 500.5,-61.5064 500.5,-42.5064 395.5,-42.5064"/>
<text text-anchor="middle" x="448" y="-49.5064" font-family="Helvetica,sans-Serif" font-size="10.00">std::vector&lt; string &gt;</text>
</g>
<!-- Node14&#45;&gt;Node13 -->
<g id="edge34" class="edge"><title>Node14&#45;&gt;Node13</title>
<path fill="none" stroke="#9a32cd" stroke-dasharray="5,2" d="M510.929,-56.2564C543.049,-58.4608 581.474,-61.0978 610.259,-63.0732"/>
<polygon fill="#9a32cd" stroke="#9a32cd" points="510.958,-52.7503 500.742,-55.5573 510.478,-59.7339 510.958,-52.7503"/>
<text text-anchor="middle" x="564" y="-64.0064" font-family="Helvetica,sans-Serif" font-size="10.00"> procNames</text>
</g>
<!-- Node15 -->
<g id="node32" class="node"><title>Node15</title>
<a xlink:title="STL class.">
<polygon fill="white" stroke="#bfbfbf" points="201,-75.5064 201,-94.5064 261,-94.5064 261,-75.5064 201,-75.5064"/>
<text text-anchor="middle" x="231" y="-82.5064" font-family="Helvetica,sans-Serif" font-size="10.00">std::string</text>
</a>
</g>
<!-- Node15&#45;&gt;Node13 -->
<g id="edge40" class="edge"><title>Node15&#45;&gt;Node13</title>
<path fill="none" stroke="#9a32cd" stroke-dasharray="5,2" d="M271.418,-85.9094C337.768,-87.0071 475.897,-87.4773 592,-76.0064 597.981,-75.4155 604.264,-74.6047 610.431,-73.6983"/>
<polygon fill="#9a32cd" stroke="#9a32cd" points="271.082,-82.4029 261.02,-85.7223 270.956,-89.4018 271.082,-82.4029"/>
<text text-anchor="middle" x="448" y="-89.0064" font-family="Helvetica,sans-Serif" font-size="10.00"> nameFile</text>
</g>
<!-- Node15&#45;&gt;Node14 -->
<g id="edge36" class="edge"><title>Node15&#45;&gt;Node14</title>
<path fill="none" stroke="#9a32cd" stroke-dasharray="5,2" d="M271.693,-78.914C306.476,-73.5752 357.264,-65.7798 395.232,-59.9522"/>
<polygon fill="#9a32cd" stroke="#9a32cd" points="270.797,-75.5104 261.444,-80.4871 271.859,-82.4294 270.797,-75.5104"/>
<text text-anchor="middle" x="338" y="-74.0064" font-family="Helvetica,sans-Serif" font-size="10.00"> elements</text>
</g>
<!-- Node16 -->
<g id="node34" class="node"><title>Node16</title>
<a xlink:title="STL class.">
<polygon fill="white" stroke="#bfbfbf" points="0.5,-75.5064 0.5,-94.5064 125.5,-94.5064 125.5,-75.5064 0.5,-75.5064"/>
<text text-anchor="middle" x="63" y="-82.5064" font-family="Helvetica,sans-Serif" font-size="10.00">std::basic_string&lt; char &gt;</text>
</a>
</g>
<!-- Node16&#45;&gt;Node15 -->
<g id="edge38" class="edge"><title>Node16&#45;&gt;Node15</title>
<path fill="none" stroke="midnightblue" d="M135.843,-85.0064C158.66,-85.0064 182.622,-85.0064 200.663,-85.0064"/>
<polygon fill="midnightblue" stroke="midnightblue" points="135.812,-81.5065 125.812,-85.0064 135.812,-88.5065 135.812,-81.5065"/>
</g>
</g>
</svg>
        <g id="navigator" transform="translate(0 0)" fill="#404254">
                <rect fill="#f2f5e9" fill-opacity="0.5" stroke="#606060" stroke-width=".5" x="0" y="0" width="60" height="60"/>
                <use id="zoomplus" xlink:href="#zoomPlus" x="17" y="9" onmousedown="handleZoom(evt,'in')"/>
                <use id="zoomminus" xlink:href="#zoomMin" x="42" y="9" onmousedown="handleZoom(evt,'out')"/>
                <use id="reset" xlink:href="#resetDef" x="30" y="36" onmousedown="handleReset()"/>
                <g id="arrowUp" xlink:href="#dirArrow" transform="translate(30 24)" onmousedown="handlePan(0,-1)">
                  <use xlink:href="#rim" fill="#404040">
                        <set attributeName="fill" to="#808080" begin="arrowUp.mouseover" end="arrowUp.mouseout"/>
                  </use>
                  <path fill="none" stroke="white" stroke-width="1.5" d="M0,-3.0v7 M-2.5,-0.5L0,-3.0L2.5,-0.5"/>
                </g>
                <g id="arrowRight" xlink:href="#dirArrow" transform="rotate(90) translate(36 -43)" onmousedown="handlePan(1,0)">
                  <use xlink:href="#rim" fill="#404040">
                        <set attributeName="fill" to="#808080" begin="arrowRight.mouseover" end="arrowRight.mouseout"/>
                  </use>
                  <path fill="none" stroke="white" stroke-width="1.5" d="M0,-3.0v7 M-2.5,-0.5L0,-3.0L2.5,-0.5"/>
                </g>
                <g id="arrowDown" xlink:href="#dirArrow" transform="rotate(180) translate(-30 -48)" onmousedown="handlePan(0,1)">
                  <use xlink:href="#rim" fill="#404040">
                        <set attributeName="fill" to="#808080" begin="arrowDown.mouseover" end="arrowDown.mouseout"/>
                  </use>
                  <path fill="none" stroke="white" stroke-width="1.5" d="M0,-3.0v7 M-2.5,-0.5L0,-3.0L2.5,-0.5"/>
                </g>
                <g id="arrowLeft" xlink:href="#dirArrow" transform="rotate(270) translate(-36 17)" onmousedown="handlePan(-1,0)">
                  <use xlink:href="#rim" fill="#404040">
                        <set attributeName="fill" to="#808080" begin="arrowLeft.mouseover" end="arrowLeft.mouseout"/>
                  </use>
                  <path fill="none" stroke="white" stroke-width="1.5" d="M0,-3.0v7 M-2.5,-0.5L0,-3.0L2.5,-0.5"/>
                </g>
        </g>
</svg>
