<?xml version="1.0" encoding="UTF-8" standalone="no"?>
<!DOCTYPE svg PUBLIC "-//W3C//DTD SVG 1.1//EN"
 "http://www.w3.org/Graphics/SVG/1.1/DTD/svg11.dtd">
<!-- Generated by graphviz version 2.28.0 (20111025.1818)
 -->
<!-- Title: G Pages: 1 -->
<!--zoomable 232 -->
<svg id="main" version="1.1" xmlns="http://www.w3.org/2000/svg" xmlns:xlink="http://www.w3.org/1999/xlink" xml:space="preserve" onload="init(evt)">
        <defs>
                <circle id="rim" cx="0" cy="0" r="7"/>
                <circle id="rim2" cx="0" cy="0" r="3.5"/>
                <g id="zoomPlus">
                        <use xlink:href="#rim" fill="#404040">
                                <set attributeName="fill" to="#808080" begin="zoomplus.mouseover" end="zoomplus.mouseout"/>
                        </use>
                        <path d="M-4,0h8M0,-4v8" fill="none" stroke="white" stroke-width="1.5" pointer-events="none"/>
                </g>
                <g id="zoomMin">
                        <use xlink:href="#rim" fill="#404040">
                                <set attributeName="fill" to="#808080" begin="zoomminus.mouseover" end="zoomminus.mouseout"/>
                        </use>
                        <path d="M-4,0h8" fill="none" stroke="white" stroke-width="1.5" pointer-events="none"/>
                </g>
                <g id="dirArrow">
                        <path fill="none" stroke="white" stroke-width="1.5" d="M0,-3.0v7 M-2.5,-0.5L0,-3.0L2.5,-0.5"/>
                </g>
               <g id="resetDef">
                       <use xlink:href="#rim2" fill="#404040">
                               <set attributeName="fill" to="#808080" begin="reset.mouseover" end="reset.mouseout"/>
                       </use>
               </g>
        </defs>

<script type="text/javascript">
var viewWidth = 924;
var viewHeight = 232;
var sectionId = 'dynsection-0';
</script>
<script xlink:href="../../svgpan.js"/>
<svg id="graph" class="graph">
<g id="viewport">
<title>G</title>
<polygon fill="white" stroke="white" points="-4,5 -4,-228 921.151,-228 921.151,5 -4,5"/>
<!-- Node1 -->
<g id="node1" class="node"><title>Node1</title>
<polygon fill="#bfbfbf" stroke="black" points="613.151,-0.5 613.151,-19.5 663.151,-19.5 663.151,-0.5 613.151,-0.5"/>
<text text-anchor="middle" x="638.151" y="-7.5" font-family="Helvetica,sans-Serif" font-size="10.00">cKernel</text>
</g>
<!-- Node1&#45;&gt;Node1 -->
<g id="edge38" class="edge"><title>Node1&#45;&gt;Node1</title>
<path fill="none" stroke="#9a32cd" stroke-dasharray="5,2" d="M673.597,-15.5827C678.146,-14.6126 681.151,-12.7517 681.151,-10 681.151,-5.48438 673.06,-3.36768 663.326,-3.6499"/>
<polygon fill="#9a32cd" stroke="#9a32cd" points="673.038,-12.1146 663.326,-16.3501 673.559,-19.0951 673.038,-12.1146"/>
<text text-anchor="middle" x="717.151" y="-7.5" font-family="Helvetica,sans-Serif" font-size="10.00"> kernel_instance</text>
</g>
<!-- Node2 -->
<g id="node2" class="node"><title>Node2</title>
<a xlink:href="../../dd/dc8/structProcessInfo.xhtml" target="_top" xlink:title="Structure for containing process state and data.">
<polygon fill="white" stroke="black" points="41.6507,-204.5 41.6507,-223.5 110.651,-223.5 110.651,-204.5 41.6507,-204.5"/>
<text text-anchor="middle" x="76.1507" y="-211.5" font-family="Helvetica,sans-Serif" font-size="10.00">ProcessInfo</text>
</a>
</g>
<!-- Node2&#45;&gt;Node1 -->
<g id="edge2" class="edge"><title>Node2&#45;&gt;Node1</title>
<path fill="none" stroke="#9a32cd" stroke-dasharray="5,2" d="M52.1864,-198.377C47.4587,-194.745 42.829,-190.568 39.1507,-186 15.3341,-156.424 -15.4722,-134.908 9.1507,-106 88.9088,-12.3611 506.087,-9.75096 613.111,-10.6526"/>
<polygon fill="#9a32cd" stroke="#9a32cd" points="50.4214,-201.414 60.6177,-204.292 54.4421,-195.684 50.4214,-201.414"/>
<text text-anchor="middle" x="36.6507" y="-109.5" font-family="Helvetica,sans-Serif" font-size="10.00"> runningProc</text>
</g>
<!-- Node6 -->
<g id="node11" class="node"><title>Node6</title>
<a xlink:href="../../d6/dc3/classcFCFS.xhtml" target="_top" xlink:title="cFCFS">
<polygon fill="white" stroke="black" points="345.151,-68.5 345.151,-87.5 393.151,-87.5 393.151,-68.5 345.151,-68.5"/>
<text text-anchor="middle" x="369.151" y="-75.5" font-family="Helvetica,sans-Serif" font-size="10.00">cFCFS</text>
</a>
</g>
<!-- Node2&#45;&gt;Node6 -->
<g id="edge16" class="edge"><title>Node2&#45;&gt;Node6</title>
<path fill="none" stroke="#9a32cd" stroke-dasharray="5,2" d="M59.141,-196.707C43.8233,-180.063 25.8786,-154.155 41.1507,-136 80.2175,-89.5587 275.906,-80.9541 344.97,-79.3614"/>
<polygon fill="#9a32cd" stroke="#9a32cd" points="56.811,-199.332 66.2925,-204.059 61.8287,-194.451 56.811,-199.332"/>
<text text-anchor="middle" x="68.6507" y="-143.5" font-family="Helvetica,sans-Serif" font-size="10.00"> runningProc</text>
</g>
<!-- Node8 -->
<g id="node16" class="node"><title>Node8</title>
<polygon fill="white" stroke="#bfbfbf" points="105.151,-136.5 105.151,-155.5 245.151,-155.5 245.151,-136.5 105.151,-136.5"/>
<text text-anchor="middle" x="175.151" y="-143.5" font-family="Helvetica,sans-Serif" font-size="10.00">std::queue&lt; ProcessInfo * &gt;</text>
</g>
<!-- Node2&#45;&gt;Node8 -->
<g id="edge20" class="edge"><title>Node2&#45;&gt;Node8</title>
<path fill="none" stroke="#9a32cd" stroke-dasharray="5,2" d="M97.4338,-198.811C117.121,-185.686 145.75,-166.6 162.205,-155.63"/>
<polygon fill="#9a32cd" stroke="#9a32cd" points="95.4723,-195.912 89.0932,-204.372 99.3552,-201.737 95.4723,-195.912"/>
<text text-anchor="middle" x="156.651" y="-177.5" font-family="Helvetica,sans-Serif" font-size="10.00"> elements</text>
</g>
<!-- Node11 -->
<g id="node23" class="node"><title>Node11</title>
<polygon fill="white" stroke="#bfbfbf" points="263.151,-136.5 263.151,-155.5 403.151,-155.5 403.151,-136.5 263.151,-136.5"/>
<text text-anchor="middle" x="333.151" y="-143.5" font-family="Helvetica,sans-Serif" font-size="10.00">std::vector&lt; ProcessInfo * &gt;</text>
</g>
<!-- Node2&#45;&gt;Node11 -->
<g id="edge28" class="edge"><title>Node2&#45;&gt;Node11</title>
<path fill="none" stroke="#9a32cd" stroke-dasharray="5,2" d="M119.973,-201.873C139.075,-197.013 161.724,-191.239 182.151,-186 222.802,-175.573 269.582,-163.475 300.168,-155.553"/>
<polygon fill="#9a32cd" stroke="#9a32cd" points="118.881,-198.539 110.052,-204.395 120.606,-205.323 118.881,-198.539"/>
<text text-anchor="middle" x="249.651" y="-177.5" font-family="Helvetica,sans-Serif" font-size="10.00"> elements</text>
</g>
<!-- Node3 -->
<g id="node4" class="node"><title>Node3</title>
<a xlink:href="../../d8/d4f/classCharDevice.xhtml" target="_top" xlink:title="CharDevice">
<polygon fill="white" stroke="black" points="604.151,-68.5 604.151,-87.5 672.151,-87.5 672.151,-68.5 604.151,-68.5"/>
<text text-anchor="middle" x="638.151" y="-75.5" font-family="Helvetica,sans-Serif" font-size="10.00">CharDevice</text>
</a>
</g>
<!-- Node3&#45;&gt;Node1 -->
<g id="edge4" class="edge"><title>Node3&#45;&gt;Node1</title>
<path fill="none" stroke="#9a32cd" stroke-dasharray="5,2" d="M638.151,-58.0413C638.151,-45.4724 638.151,-29.5631 638.151,-19.8411"/>
<polygon fill="#9a32cd" stroke="#9a32cd" points="634.651,-58.3716 638.151,-68.3717 641.651,-58.3717 634.651,-58.3716"/>
<text text-anchor="middle" x="658.151" y="-41.5" font-family="Helvetica,sans-Serif" font-size="10.00"> cDevice</text>
</g>
<!-- Node4 -->
<g id="node6" class="node"><title>Node4</title>
<a xlink:href="../../db/d0e/classAbstractDevice.xhtml" target="_top" xlink:title="AbstractDevice">
<polygon fill="white" stroke="black" points="684.151,-136.5 684.151,-155.5 768.151,-155.5 768.151,-136.5 684.151,-136.5"/>
<text text-anchor="middle" x="726.151" y="-143.5" font-family="Helvetica,sans-Serif" font-size="10.00">AbstractDevice</text>
</a>
</g>
<!-- Node4&#45;&gt;Node3 -->
<g id="edge6" class="edge"><title>Node4&#45;&gt;Node3</title>
<path fill="none" stroke="midnightblue" d="M706.279,-130.096C688.819,-117.001 664.021,-98.4028 649.658,-87.6305"/>
<polygon fill="midnightblue" stroke="midnightblue" points="704.546,-133.172 714.646,-136.372 708.746,-127.572 704.546,-133.172"/>
</g>
<!-- Node5 -->
<g id="node8" class="node"><title>Node5</title>
<a xlink:href="../../db/d6d/classBlockDevice.xhtml" target="_top" xlink:title="BlockDevice">
<polygon fill="white" stroke="black" points="690.151,-68.5 690.151,-87.5 762.151,-87.5 762.151,-68.5 690.151,-68.5"/>
<text text-anchor="middle" x="726.151" y="-75.5" font-family="Helvetica,sans-Serif" font-size="10.00">BlockDevice</text>
</a>
</g>
<!-- Node4&#45;&gt;Node5 -->
<g id="edge10" class="edge"><title>Node4&#45;&gt;Node5</title>
<path fill="none" stroke="midnightblue" d="M726.151,-126.041C726.151,-113.472 726.151,-97.5631 726.151,-87.8411"/>
<polygon fill="midnightblue" stroke="midnightblue" points="722.651,-126.372 726.151,-136.372 729.651,-126.372 722.651,-126.372"/>
</g>
<!-- Node12 -->
<g id="node26" class="node"><title>Node12</title>
<a xlink:href="../../dc/d14/classClockDevice.xhtml" target="_top" xlink:title="ClockDevice">
<polygon fill="white" stroke="black" points="780.651,-68.5 780.651,-87.5 853.651,-87.5 853.651,-68.5 780.651,-68.5"/>
<text text-anchor="middle" x="817.151" y="-75.5" font-family="Helvetica,sans-Serif" font-size="10.00">ClockDevice</text>
</a>
</g>
<!-- Node4&#45;&gt;Node12 -->
<g id="edge32" class="edge"><title>Node4&#45;&gt;Node12</title>
<path fill="none" stroke="midnightblue" d="M746.205,-130.455C764.284,-117.343 790.262,-98.5016 805.251,-87.6305"/>
<polygon fill="midnightblue" stroke="midnightblue" points="744.088,-127.667 738.047,-136.372 748.197,-133.334 744.088,-127.667"/>
</g>
<!-- Node5&#45;&gt;Node1 -->
<g id="edge8" class="edge"><title>Node5&#45;&gt;Node1</title>
<path fill="none" stroke="#9a32cd" stroke-dasharray="5,2" d="M710.117,-61.5665C702.018,-54.0935 691.869,-45.2025 682.151,-38 673.078,-31.2759 662.277,-24.6302 653.648,-19.6145"/>
<polygon fill="#9a32cd" stroke="#9a32cd" points="707.757,-64.152 717.44,-68.4519 712.552,-59.0521 707.757,-64.152"/>
<text text-anchor="middle" x="716.151" y="-41.5" font-family="Helvetica,sans-Serif" font-size="10.00"> bDevice</text>
</g>
<!-- Node6&#45;&gt;Node1 -->
<g id="edge12" class="edge"><title>Node6&#45;&gt;Node1</title>
<path fill="none" stroke="#9a32cd" stroke-dasharray="5,2" d="M397.468,-64.5129C417.88,-55.9503 446.278,-44.9271 472.151,-38 521.227,-24.8606 580.278,-17.1092 613.072,-13.4916"/>
<polygon fill="#9a32cd" stroke="#9a32cd" points="395.962,-61.35 388.134,-68.4901 398.706,-67.7897 395.962,-61.35"/>
<text text-anchor="middle" x="495.151" y="-41.5" font-family="Helvetica,sans-Serif" font-size="10.00"> scheduler</text>
</g>
<!-- Node7 -->
<g id="node13" class="node"><title>Node7</title>
<a xlink:href="../../d0/d21/classcScheduler.xhtml" target="_top" xlink:title="cScheduler">
<polygon fill="white" stroke="black" points="421.651,-136.5 421.651,-155.5 486.651,-155.5 486.651,-136.5 421.651,-136.5"/>
<text text-anchor="middle" x="454.151" y="-143.5" font-family="Helvetica,sans-Serif" font-size="10.00">cScheduler</text>
</a>
</g>
<!-- Node7&#45;&gt;Node6 -->
<g id="edge14" class="edge"><title>Node7&#45;&gt;Node6</title>
<path fill="none" stroke="midnightblue" d="M442.496,-127.797C436.938,-120.455 429.828,-112.176 422.151,-106 412.736,-98.4271 400.857,-92.1366 390.732,-87.5382"/>
<polygon fill="midnightblue" stroke="midnightblue" points="439.964,-130.273 448.632,-136.366 445.655,-126.198 439.964,-130.273"/>
</g>
<!-- Node8&#45;&gt;Node6 -->
<g id="edge18" class="edge"><title>Node8&#45;&gt;Node6</title>
<path fill="none" stroke="#9a32cd" stroke-dasharray="5,2" d="M209.53,-133.029C231.905,-125.264 261.733,-114.961 288.151,-106 307.242,-99.5239 328.909,-92.3085 345.027,-86.9671"/>
<polygon fill="#9a32cd" stroke="#9a32cd" points="208.112,-129.816 199.814,-136.404 210.409,-136.429 208.112,-129.816"/>
<text text-anchor="middle" x="316.151" y="-109.5" font-family="Helvetica,sans-Serif" font-size="10.00"> readyQueue</text>
</g>
<!-- Node9 -->
<g id="node19" class="node"><title>Node9</title>
<a xlink:href="../../de/dd4/classcIDManager.xhtml" target="_top" xlink:title="cIDManager">
<polygon fill="white" stroke="black" points="505.151,-136.5 505.151,-155.5 575.151,-155.5 575.151,-136.5 505.151,-136.5"/>
<text text-anchor="middle" x="540.151" y="-143.5" font-family="Helvetica,sans-Serif" font-size="10.00">cIDManager</text>
</a>
</g>
<!-- Node9&#45;&gt;Node1 -->
<g id="edge36" class="edge"><title>Node9&#45;&gt;Node1</title>
<path fill="none" stroke="#9a32cd" stroke-dasharray="5,2" d="M535.502,-126.145C532.52,-109.658 530.893,-85.6583 541.151,-68 556.554,-41.4831 589.547,-26.0524 612.762,-18.0833"/>
<polygon fill="#9a32cd" stroke="#9a32cd" points="532.136,-127.143 537.653,-136.188 538.981,-125.677 532.136,-127.143"/>
<text text-anchor="middle" x="568.151" y="-75.5" font-family="Helvetica,sans-Serif" font-size="10.00"> idGenerator</text>
</g>
<!-- Node9&#45;&gt;Node6 -->
<g id="edge22" class="edge"><title>Node9&#45;&gt;Node6</title>
<path fill="none" stroke="#9a32cd" stroke-dasharray="5,2" d="M507.839,-132.822C495.952,-128.266 482.404,-122.987 470.151,-118 457.61,-112.896 454.726,-111.017 442.151,-106 425.96,-99.5412 407.55,-92.7358 393.269,-87.5731"/>
<polygon fill="#9a32cd" stroke="#9a32cd" points="506.778,-136.163 517.369,-136.455 509.272,-129.622 506.778,-136.163"/>
<text text-anchor="middle" x="494.151" y="-109.5" font-family="Helvetica,sans-Serif" font-size="10.00"> blockedID</text>
</g>
<!-- Node10 -->
<g id="node21" class="node"><title>Node10</title>
<polygon fill="white" stroke="#bfbfbf" points="473.651,-204.5 473.651,-223.5 606.651,-223.5 606.651,-204.5 473.651,-204.5"/>
<text text-anchor="middle" x="540.151" y="-211.5" font-family="Helvetica,sans-Serif" font-size="10.00">std::queue&lt; unsigned int &gt;</text>
</g>
<!-- Node10&#45;&gt;Node9 -->
<g id="edge24" class="edge"><title>Node10&#45;&gt;Node9</title>
<path fill="none" stroke="#9a32cd" stroke-dasharray="5,2" d="M540.151,-194.041C540.151,-181.472 540.151,-165.563 540.151,-155.841"/>
<polygon fill="#9a32cd" stroke="#9a32cd" points="536.651,-194.372 540.151,-204.372 543.651,-194.372 536.651,-194.372"/>
<text text-anchor="middle" x="555.651" y="-177.5" font-family="Helvetica,sans-Serif" font-size="10.00"> freeID</text>
</g>
<!-- Node11&#45;&gt;Node6 -->
<g id="edge26" class="edge"><title>Node11&#45;&gt;Node6</title>
<path fill="none" stroke="#9a32cd" stroke-dasharray="5,2" d="M342.662,-127.563C349.634,-114.781 358.809,-97.9599 364.328,-87.8411"/>
<polygon fill="#9a32cd" stroke="#9a32cd" points="339.573,-125.917 337.857,-136.372 345.718,-129.269 339.573,-125.917"/>
<text text-anchor="middle" x="388.151" y="-109.5" font-family="Helvetica,sans-Serif" font-size="10.00"> blockedVector</text>
</g>
<!-- Node12&#45;&gt;Node1 -->
<g id="edge30" class="edge"><title>Node12&#45;&gt;Node1</title>
<path fill="none" stroke="#9a32cd" stroke-dasharray="5,2" d="M793.49,-63.3808C778.552,-55.1981 758.646,-45.0421 740.151,-38 714.643,-28.288 684.274,-20.7348 663.344,-16.1175"/>
<polygon fill="#9a32cd" stroke="#9a32cd" points="792.086,-66.6054 802.524,-68.4205 795.496,-60.4923 792.086,-66.6054"/>
<text text-anchor="middle" x="798.651" y="-41.5" font-family="Helvetica,sans-Serif" font-size="10.00"> clockInterrupt</text>
</g>
<!-- Node13 -->
<g id="node29" class="node"><title>Node13</title>
<a xlink:href="../../d2/dc6/classcCPU.xhtml" target="_top" xlink:title="A class for emulating a simple cpu.">
<polygon fill="white" stroke="black" points="872.151,-68.5 872.151,-87.5 916.151,-87.5 916.151,-68.5 872.151,-68.5"/>
<text text-anchor="middle" x="894.151" y="-75.5" font-family="Helvetica,sans-Serif" font-size="10.00">cCPU</text>
</a>
</g>
<!-- Node13&#45;&gt;Node1 -->
<g id="edge34" class="edge"><title>Node13&#45;&gt;Node1</title>
<path fill="none" stroke="#9a32cd" stroke-dasharray="5,2" d="M875.697,-61.939C864.382,-53.5167 849.216,-43.6129 834.151,-38 775.73,-16.2344 701.627,-11.76 663.444,-10.999"/>
<polygon fill="#9a32cd" stroke="#9a32cd" points="873.821,-64.9124 883.871,-68.2657 878.105,-59.3769 873.821,-64.9124"/>
<text text-anchor="middle" x="866.651" y="-41.5" font-family="Helvetica,sans-Serif" font-size="10.00"> cpu</text>
</g>
</g>
</svg>
        <g id="navigator" transform="translate(0 0)" fill="#404254">
                <rect fill="#f2f5e9" fill-opacity="0.5" stroke="#606060" stroke-width=".5" x="0" y="0" width="60" height="60"/>
                <use id="zoomplus" xlink:href="#zoomPlus" x="17" y="9" onmousedown="handleZoom(evt,'in')"/>
                <use id="zoomminus" xlink:href="#zoomMin" x="42" y="9" onmousedown="handleZoom(evt,'out')"/>
                <use id="reset" xlink:href="#resetDef" x="30" y="36" onmousedown="handleReset()"/>
                <g id="arrowUp" xlink:href="#dirArrow" transform="translate(30 24)" onmousedown="handlePan(0,-1)">
                  <use xlink:href="#rim" fill="#404040">
                        <set attributeName="fill" to="#808080" begin="arrowUp.mouseover" end="arrowUp.mouseout"/>
                  </use>
                  <path fill="none" stroke="white" stroke-width="1.5" d="M0,-3.0v7 M-2.5,-0.5L0,-3.0L2.5,-0.5"/>
                </g>
                <g id="arrowRight" xlink:href="#dirArrow" transform="rotate(90) translate(36 -43)" onmousedown="handlePan(1,0)">
                  <use xlink:href="#rim" fill="#404040">
                        <set attributeName="fill" to="#808080" begin="arrowRight.mouseover" end="arrowRight.mouseout"/>
                  </use>
                  <path fill="none" stroke="white" stroke-width="1.5" d="M0,-3.0v7 M-2.5,-0.5L0,-3.0L2.5,-0.5"/>
                </g>
                <g id="arrowDown" xlink:href="#dirArrow" transform="rotate(180) translate(-30 -48)" onmousedown="handlePan(0,1)">
                  <use xlink:href="#rim" fill="#404040">
                        <set attributeName="fill" to="#808080" begin="arrowDown.mouseover" end="arrowDown.mouseout"/>
                  </use>
                  <path fill="none" stroke="white" stroke-width="1.5" d="M0,-3.0v7 M-2.5,-0.5L0,-3.0L2.5,-0.5"/>
                </g>
                <g id="arrowLeft" xlink:href="#dirArrow" transform="rotate(270) translate(-36 17)" onmousedown="handlePan(-1,0)">
                  <use xlink:href="#rim" fill="#404040">
                        <set attributeName="fill" to="#808080" begin="arrowLeft.mouseover" end="arrowLeft.mouseout"/>
                  </use>
                  <path fill="none" stroke="white" stroke-width="1.5" d="M0,-3.0v7 M-2.5,-0.5L0,-3.0L2.5,-0.5"/>
                </g>
        </g>
</svg>
