<?xml version="1.0" encoding="UTF-8" standalone="no"?>
<!DOCTYPE svg PUBLIC "-//W3C//DTD SVG 1.1//EN"
 "http://www.w3.org/Graphics/SVG/1.1/DTD/svg11.dtd">
<!-- Generated by graphviz version 2.28.0 (20111025.1818)
 -->
<!-- Title: G Pages: 1 -->
<!--zoomable 252 -->
<svg id="main" version="1.1" xmlns="http://www.w3.org/2000/svg" xmlns:xlink="http://www.w3.org/1999/xlink" xml:space="preserve" onload="init(evt)">
        <defs>
                <circle id="rim" cx="0" cy="0" r="7"/>
                <circle id="rim2" cx="0" cy="0" r="3.5"/>
                <g id="zoomPlus">
                        <use xlink:href="#rim" fill="#404040">
                                <set attributeName="fill" to="#808080" begin="zoomplus.mouseover" end="zoomplus.mouseout"/>
                        </use>
                        <path d="M-4,0h8M0,-4v8" fill="none" stroke="white" stroke-width="1.5" pointer-events="none"/>
                </g>
                <g id="zoomMin">
                        <use xlink:href="#rim" fill="#404040">
                                <set attributeName="fill" to="#808080" begin="zoomminus.mouseover" end="zoomminus.mouseout"/>
                        </use>
                        <path d="M-4,0h8" fill="none" stroke="white" stroke-width="1.5" pointer-events="none"/>
                </g>
                <g id="dirArrow">
                        <path fill="none" stroke="white" stroke-width="1.5" d="M0,-3.0v7 M-2.5,-0.5L0,-3.0L2.5,-0.5"/>
                </g>
               <g id="resetDef">
                       <use xlink:href="#rim2" fill="#404040">
                               <set attributeName="fill" to="#808080" begin="reset.mouseover" end="reset.mouseout"/>
                       </use>
               </g>
        </defs>

<script type="text/javascript">
var viewWidth = 743;
var viewHeight = 252;
var sectionId = 'dynsection-0';
</script>
<script xlink:href="../../svgpan.js"/>
<svg id="graph" class="graph">
<g id="viewport">
<title>G</title>
<polygon fill="white" stroke="white" points="-4,5 -4,-248 740.174,-248 740.174,5 -4,5"/>
<!-- Node1 -->
<g id="node1" class="node"><title>Node1</title>
<polygon fill="#bfbfbf" stroke="black" points="229,-224.5 229,-243.5 335,-243.5 335,-224.5 229,-224.5"/>
<text text-anchor="middle" x="282" y="-231.5" font-family="Helvetica,sans-Serif" font-size="10.00">include/exceptions.h</text>
</g>
<!-- Node2 -->
<g id="node3" class="node"><title>Node2</title>
<a xlink:href="../../d4/d9a/vmm__core_8h.xhtml" target="_top" xlink:title="include/vmm_core.h">
<polygon fill="white" stroke="black" points="230,-112.5 230,-131.5 334,-131.5 334,-112.5 230,-112.5"/>
<text text-anchor="middle" x="282" y="-119.5" font-family="Helvetica,sans-Serif" font-size="10.00">include/vmm_core.h</text>
</a>
</g>
<!-- Node1&#45;&gt;Node2 -->
<g id="edge2" class="edge"><title>Node1&#45;&gt;Node2</title>
<path fill="none" stroke="midnightblue" d="M272.075,-215.302C268.101,-207.238 263.997,-197.409 262,-188 257.637,-167.442 269.011,-144.047 276.346,-131.7"/>
<polygon fill="midnightblue" stroke="midnightblue" points="269.113,-217.19 276.87,-224.407 275.307,-213.928 269.113,-217.19"/>
</g>
<!-- Node10 -->
<g id="node26" class="node"><title>Node10</title>
<a xlink:href="../../d7/d62/io__control_8h_source.xhtml" target="_top" xlink:title="include/io_control.h">
<polygon fill="white" stroke="black" points="271.5,-168.5 271.5,-187.5 372.5,-187.5 372.5,-168.5 271.5,-168.5"/>
<text text-anchor="middle" x="322" y="-175.5" font-family="Helvetica,sans-Serif" font-size="10.00">include/io_control.h</text>
</a>
</g>
<!-- Node1&#45;&gt;Node10 -->
<g id="edge32" class="edge"><title>Node1&#45;&gt;Node10</title>
<path fill="none" stroke="midnightblue" d="M294.7,-215.855C301.626,-206.505 309.906,-195.327 315.518,-187.751"/>
<polygon fill="midnightblue" stroke="midnightblue" points="291.745,-213.964 288.605,-224.083 297.37,-218.131 291.745,-213.964"/>
</g>
<!-- Node3 -->
<g id="node5" class="node"><title>Node3</title>
<a xlink:href="../../dc/da7/cpu_8h.xhtml" target="_top" xlink:title="include/cpu.h">
<polygon fill="white" stroke="black" points="0,-56.5 0,-75.5 74,-75.5 74,-56.5 0,-56.5"/>
<text text-anchor="middle" x="37" y="-63.5" font-family="Helvetica,sans-Serif" font-size="10.00">include/cpu.h</text>
</a>
</g>
<!-- Node2&#45;&gt;Node3 -->
<g id="edge4" class="edge"><title>Node2&#45;&gt;Node3</title>
<path fill="none" stroke="midnightblue" d="M228.159,-110.346C180.063,-100.141 111.238,-84.94 70.5594,-75.5164"/>
<polygon fill="midnightblue" stroke="midnightblue" points="227.583,-113.801 238.09,-112.444 229.03,-106.952 227.583,-113.801"/>
</g>
<!-- Node4 -->
<g id="node8" class="node"><title>Node4</title>
<a xlink:href="../../de/d7e/cleaningDaemon_8h_source.xhtml" target="_top" xlink:title="include/Policy/cleaningDaemon.h">
<polygon fill="white" stroke="black" points="92.5,-56.5 92.5,-75.5 253.5,-75.5 253.5,-56.5 92.5,-56.5"/>
<text text-anchor="middle" x="173" y="-63.5" font-family="Helvetica,sans-Serif" font-size="10.00">include/Policy/cleaningDaemon.h</text>
</a>
</g>
<!-- Node2&#45;&gt;Node4 -->
<g id="edge8" class="edge"><title>Node2&#45;&gt;Node4</title>
<path fill="none" stroke="midnightblue" d="M250.392,-108.232C228.57,-98.1312 200.922,-84.3091 185.111,-75.5164"/>
<polygon fill="midnightblue" stroke="midnightblue" points="249.089,-111.484 259.64,-112.444 251.99,-105.114 249.089,-111.484"/>
</g>
<!-- Node5 -->
<g id="node11" class="node"><title>Node5</title>
<a xlink:href="../../d4/dbf/main_8h_source.xhtml" target="_top" xlink:title="include/main.h">
<polygon fill="white" stroke="black" points="242,-0.5 242,-19.5 322,-19.5 322,-0.5 242,-0.5"/>
<text text-anchor="middle" x="282" y="-7.5" font-family="Helvetica,sans-Serif" font-size="10.00">include/main.h</text>
</a>
</g>
<!-- Node2&#45;&gt;Node5 -->
<g id="edge14" class="edge"><title>Node2&#45;&gt;Node5</title>
<path fill="none" stroke="midnightblue" d="M282,-102.348C282,-78.2538 282,-37.3079 282,-19.5914"/>
<polygon fill="midnightblue" stroke="midnightblue" points="278.5,-102.368 282,-112.368 285.5,-102.369 278.5,-102.368"/>
</g>
<!-- Node6 -->
<g id="node14" class="node"><title>Node6</title>
<a xlink:href="../../d3/ded/pr__fifo_8h_source.xhtml" target="_top" xlink:title="include/Policy/pr_fifo.h">
<polygon fill="white" stroke="black" points="310,-56.5 310,-75.5 426,-75.5 426,-56.5 310,-56.5"/>
<text text-anchor="middle" x="368" y="-63.5" font-family="Helvetica,sans-Serif" font-size="10.00">include/Policy/pr_fifo.h</text>
</a>
</g>
<!-- Node2&#45;&gt;Node6 -->
<g id="edge16" class="edge"><title>Node2&#45;&gt;Node6</title>
<path fill="none" stroke="midnightblue" d="M304.455,-106.901C320.224,-96.9986 340.814,-84.0705 354.217,-75.6545"/>
<polygon fill="midnightblue" stroke="midnightblue" points="302.425,-104.042 295.817,-112.324 306.148,-109.97 302.425,-104.042"/>
</g>
<!-- Node8 -->
<g id="node20" class="node"><title>Node8</title>
<a xlink:href="../../db/d16/pr__lru_8h_source.xhtml" target="_top" xlink:title="include/Policy/pr_lru.h">
<polygon fill="white" stroke="black" points="444.5,-56.5 444.5,-75.5 557.5,-75.5 557.5,-56.5 444.5,-56.5"/>
<text text-anchor="middle" x="501" y="-63.5" font-family="Helvetica,sans-Serif" font-size="10.00">include/Policy/pr_lru.h</text>
</a>
</g>
<!-- Node2&#45;&gt;Node8 -->
<g id="edge24" class="edge"><title>Node2&#45;&gt;Node8</title>
<path fill="none" stroke="midnightblue" d="M326.515,-110.024C367.884,-99.8232 428.643,-84.8414 466.461,-75.5164"/>
<polygon fill="midnightblue" stroke="midnightblue" points="325.572,-106.651 316.701,-112.444 327.248,-113.448 325.572,-106.651"/>
</g>
<!-- Node9 -->
<g id="node23" class="node"><title>Node9</title>
<a xlink:href="../../d6/d53/pr__lruApprox_8h_source.xhtml" target="_top" xlink:title="include/Policy/pr_lruApprox.h">
<polygon fill="white" stroke="black" points="575.5,-56.5 575.5,-75.5 718.5,-75.5 718.5,-56.5 575.5,-56.5"/>
<text text-anchor="middle" x="647" y="-63.5" font-family="Helvetica,sans-Serif" font-size="10.00">include/Policy/pr_lruApprox.h</text>
</a>
</g>
<!-- Node2&#45;&gt;Node9 -->
<g id="edge28" class="edge"><title>Node2&#45;&gt;Node9</title>
<path fill="none" stroke="midnightblue" d="M344.544,-111.747C413.257,-101.581 522.694,-85.3905 589.382,-75.5243"/>
<polygon fill="midnightblue" stroke="midnightblue" points="343.676,-108.337 334.296,-113.263 344.7,-115.262 343.676,-108.337"/>
</g>
<!-- Node3&#45;&gt;Node2 -->
<g id="edge6" class="edge"><title>Node3&#45;&gt;Node2</title>
<path fill="none" stroke="midnightblue" d="M83.9982,-76.2068C132.133,-86.3585 205.591,-102.559 248.268,-112.444"/>
<polygon fill="midnightblue" stroke="midnightblue" points="84.6369,-72.7647 74.1313,-74.1368 83.1996,-79.6156 84.6369,-72.7647"/>
</g>
<!-- Node4&#45;&gt;Node2 -->
<g id="edge10" class="edge"><title>Node4&#45;&gt;Node2</title>
<path fill="none" stroke="midnightblue" d="M204.768,-79.8421C226.434,-89.8754 253.784,-103.546 269.602,-112.324"/>
<polygon fill="midnightblue" stroke="midnightblue" points="206.13,-76.6166 195.579,-75.6545 203.228,-82.9864 206.13,-76.6166"/>
</g>
<!-- Node4&#45;&gt;Node5 -->
<g id="edge12" class="edge"><title>Node4&#45;&gt;Node5</title>
<path fill="none" stroke="midnightblue" d="M199.519,-51.8622C219.73,-41.8492 246.987,-28.3458 264.531,-19.6545"/>
<polygon fill="midnightblue" stroke="midnightblue" points="197.92,-48.7485 190.513,-56.324 201.027,-55.0209 197.92,-48.7485"/>
</g>
<!-- Node6&#45;&gt;Node5 -->
<g id="edge22" class="edge"><title>Node6&#45;&gt;Node5</title>
<path fill="none" stroke="midnightblue" d="M345.545,-50.9005C329.776,-40.9986 309.186,-28.0705 295.783,-19.6545"/>
<polygon fill="midnightblue" stroke="midnightblue" points="343.852,-53.9704 354.183,-56.324 347.575,-48.0421 343.852,-53.9704"/>
</g>
<!-- Node7 -->
<g id="node16" class="node"><title>Node7</title>
<a xlink:href="../../d1/df8/allPR_8h_source.xhtml" target="_top" xlink:title="include/Policy/allPR.h">
<polygon fill="white" stroke="black" points="517.5,-0.5 517.5,-19.5 630.5,-19.5 630.5,-0.5 517.5,-0.5"/>
<text text-anchor="middle" x="574" y="-7.5" font-family="Helvetica,sans-Serif" font-size="10.00">include/Policy/allPR.h</text>
</a>
</g>
<!-- Node6&#45;&gt;Node7 -->
<g id="edge18" class="edge"><title>Node6&#45;&gt;Node7</title>
<path fill="none" stroke="midnightblue" d="M410.615,-53.8291C449.51,-43.6333 506.164,-28.7823 541.511,-19.5164"/>
<polygon fill="midnightblue" stroke="midnightblue" points="409.427,-50.5222 400.641,-56.4435 411.202,-57.2934 409.427,-50.5222"/>
</g>
<!-- Node7&#45;&gt;Node2 -->
<g id="edge20" class="edge"><title>Node7&#45;&gt;Node2</title>
<path fill="none" stroke="midnightblue" d="M640.561,-17.8582C694.504,-25.966 757.017,-42.795 727,-76 701.062,-104.694 445.927,-115.982 334.085,-119.576"/>
<polygon fill="midnightblue" stroke="midnightblue" points="641.006,-14.3864 630.613,-16.4438 640.02,-21.3167 641.006,-14.3864"/>
</g>
<!-- Node8&#45;&gt;Node7 -->
<g id="edge26" class="edge"><title>Node8&#45;&gt;Node7</title>
<path fill="none" stroke="midnightblue" d="M521.142,-50.1008C534.279,-40.3824 550.982,-28.0269 562.058,-19.8339"/>
<polygon fill="midnightblue" stroke="midnightblue" points="518.687,-47.5631 512.729,-56.324 522.85,-53.1907 518.687,-47.5631"/>
</g>
<!-- Node9&#45;&gt;Node7 -->
<g id="edge30" class="edge"><title>Node9&#45;&gt;Node7</title>
<path fill="none" stroke="midnightblue" d="M626.858,-50.1008C613.721,-40.3824 597.018,-28.0269 585.942,-19.8339"/>
<polygon fill="midnightblue" stroke="midnightblue" points="625.15,-53.1907 635.271,-56.324 629.313,-47.5631 625.15,-53.1907"/>
</g>
<!-- Node10&#45;&gt;Node2 -->
<g id="edge34" class="edge"><title>Node10&#45;&gt;Node2</title>
<path fill="none" stroke="midnightblue" d="M309.3,-159.855C302.374,-150.505 294.094,-139.327 288.482,-131.751"/>
<polygon fill="midnightblue" stroke="midnightblue" points="306.63,-162.131 315.395,-168.083 312.255,-157.964 306.63,-162.131"/>
</g>
</g>
</svg>
        <g id="navigator" transform="translate(0 0)" fill="#404254">
                <rect fill="#f2f5e9" fill-opacity="0.5" stroke="#606060" stroke-width=".5" x="0" y="0" width="60" height="60"/>
                <use id="zoomplus" xlink:href="#zoomPlus" x="17" y="9" onmousedown="handleZoom(evt,'in')"/>
                <use id="zoomminus" xlink:href="#zoomMin" x="42" y="9" onmousedown="handleZoom(evt,'out')"/>
                <use id="reset" xlink:href="#resetDef" x="30" y="36" onmousedown="handleReset()"/>
                <g id="arrowUp" xlink:href="#dirArrow" transform="translate(30 24)" onmousedown="handlePan(0,-1)">
                  <use xlink:href="#rim" fill="#404040">
                        <set attributeName="fill" to="#808080" begin="arrowUp.mouseover" end="arrowUp.mouseout"/>
                  </use>
                  <path fill="none" stroke="white" stroke-width="1.5" d="M0,-3.0v7 M-2.5,-0.5L0,-3.0L2.5,-0.5"/>
                </g>
                <g id="arrowRight" xlink:href="#dirArrow" transform="rotate(90) translate(36 -43)" onmousedown="handlePan(1,0)">
                  <use xlink:href="#rim" fill="#404040">
                        <set attributeName="fill" to="#808080" begin="arrowRight.mouseover" end="arrowRight.mouseout"/>
                  </use>
                  <path fill="none" stroke="white" stroke-width="1.5" d="M0,-3.0v7 M-2.5,-0.5L0,-3.0L2.5,-0.5"/>
                </g>
                <g id="arrowDown" xlink:href="#dirArrow" transform="rotate(180) translate(-30 -48)" onmousedown="handlePan(0,1)">
                  <use xlink:href="#rim" fill="#404040">
                        <set attributeName="fill" to="#808080" begin="arrowDown.mouseover" end="arrowDown.mouseout"/>
                  </use>
                  <path fill="none" stroke="white" stroke-width="1.5" d="M0,-3.0v7 M-2.5,-0.5L0,-3.0L2.5,-0.5"/>
                </g>
                <g id="arrowLeft" xlink:href="#dirArrow" transform="rotate(270) translate(-36 17)" onmousedown="handlePan(-1,0)">
                  <use xlink:href="#rim" fill="#404040">
                        <set attributeName="fill" to="#808080" begin="arrowLeft.mouseover" end="arrowLeft.mouseout"/>
                  </use>
                  <path fill="none" stroke="white" stroke-width="1.5" d="M0,-3.0v7 M-2.5,-0.5L0,-3.0L2.5,-0.5"/>
                </g>
        </g>
</svg>
