<?xml version="1.0" encoding="UTF-8" standalone="no"?>
<!DOCTYPE svg PUBLIC "-//W3C//DTD SVG 1.1//EN"
 "http://www.w3.org/Graphics/SVG/1.1/DTD/svg11.dtd">
<!-- Generated by graphviz version 2.28.0 (20111025.1818)
 -->
<!-- Title: G Pages: 1 -->
<svg width="441pt" height="84pt"
 viewBox="0.00 0.00 441.00 84.00" xmlns="http://www.w3.org/2000/svg" xmlns:xlink="http://www.w3.org/1999/xlink">
<g id="graph1" class="graph" transform="scale(1 1) rotate(0) translate(4 80)">
<title>G</title>
<polygon fill="white" stroke="white" points="-4,5 -4,-80 438,-80 438,5 -4,5"/>
<!-- Node1 -->
<g id="node1" class="node"><title>Node1</title>
<polygon fill="#bfbfbf" stroke="black" points="151,-56.5 151,-75.5 251,-75.5 251,-56.5 151,-56.5"/>
<text text-anchor="middle" x="201" y="-63.5" font-family="Helvetica,sans-Serif" font-size="10.00">include/iniReader.h</text>
</g>
<!-- Node2 -->
<g id="node3" class="node"><title>Node2</title>
<polygon fill="white" stroke="#bfbfbf" points="0,-0.5 0,-19.5 48,-19.5 48,-0.5 0,-0.5"/>
<text text-anchor="middle" x="24" y="-7.5" font-family="Helvetica,sans-Serif" font-size="10.00">stdlib.h</text>
</g>
<!-- Node1&#45;&gt;Node2 -->
<g id="edge2" class="edge"><title>Node1&#45;&gt;Node2</title>
<path fill="none" stroke="midnightblue" d="M172.954,-56.4435C141.77,-46.9297 91.4033,-31.5637 57.9996,-21.3728"/>
<polygon fill="midnightblue" stroke="midnightblue" points="58.8037,-17.9589 48.2176,-18.3884 56.761,-24.6542 58.8037,-17.9589"/>
</g>
<!-- Node3 -->
<g id="node5" class="node"><title>Node3</title>
<polygon fill="white" stroke="#bfbfbf" points="66.5,-0.5 66.5,-19.5 107.5,-19.5 107.5,-0.5 66.5,-0.5"/>
<text text-anchor="middle" x="87" y="-7.5" font-family="Helvetica,sans-Serif" font-size="10.00">string</text>
</g>
<!-- Node1&#45;&gt;Node3 -->
<g id="edge4" class="edge"><title>Node1&#45;&gt;Node3</title>
<path fill="none" stroke="midnightblue" d="M182.936,-56.4435C164.425,-47.6751 135.419,-33.9355 114.145,-23.8579"/>
<polygon fill="midnightblue" stroke="midnightblue" points="115.515,-20.6343 104.979,-19.5164 112.518,-26.9604 115.515,-20.6343"/>
</g>
<!-- Node4 -->
<g id="node7" class="node"><title>Node4</title>
<polygon fill="white" stroke="#bfbfbf" points="125.5,-0.5 125.5,-19.5 160.5,-19.5 160.5,-0.5 125.5,-0.5"/>
<text text-anchor="middle" x="143" y="-7.5" font-family="Helvetica,sans-Serif" font-size="10.00">map</text>
</g>
<!-- Node1&#45;&gt;Node4 -->
<g id="edge6" class="edge"><title>Node1&#45;&gt;Node4</title>
<path fill="none" stroke="midnightblue" d="M191.681,-56.324C183.107,-48.3414 170.188,-36.3128 159.812,-26.6529"/>
<polygon fill="midnightblue" stroke="midnightblue" points="162.192,-24.0865 152.488,-19.8339 157.422,-29.2098 162.192,-24.0865"/>
</g>
<!-- Node5 -->
<g id="node9" class="node"><title>Node5</title>
<polygon fill="white" stroke="#bfbfbf" points="179,-0.5 179,-19.5 223,-19.5 223,-0.5 179,-0.5"/>
<text text-anchor="middle" x="201" y="-7.5" font-family="Helvetica,sans-Serif" font-size="10.00">vector</text>
</g>
<!-- Node1&#45;&gt;Node5 -->
<g id="edge8" class="edge"><title>Node1&#45;&gt;Node5</title>
<path fill="none" stroke="midnightblue" d="M201,-56.083C201,-49.0059 201,-38.8611 201,-29.9865"/>
<polygon fill="midnightblue" stroke="midnightblue" points="204.5,-29.751 201,-19.7511 197.5,-29.7511 204.5,-29.751"/>
</g>
<!-- Node6 -->
<g id="node11" class="node"><title>Node6</title>
<polygon fill="white" stroke="#bfbfbf" points="241,-0.5 241,-19.5 295,-19.5 295,-0.5 241,-0.5"/>
<text text-anchor="middle" x="268" y="-7.5" font-family="Helvetica,sans-Serif" font-size="10.00">iostream</text>
</g>
<!-- Node1&#45;&gt;Node6 -->
<g id="edge10" class="edge"><title>Node1&#45;&gt;Node6</title>
<path fill="none" stroke="midnightblue" d="M211.765,-56.324C221.766,-48.2631 236.887,-36.0765 248.93,-26.3695"/>
<polygon fill="midnightblue" stroke="midnightblue" points="251.45,-28.8343 257.039,-19.8339 247.057,-23.3841 251.45,-28.8343"/>
</g>
<!-- Node7 -->
<g id="node13" class="node"><title>Node7</title>
<polygon fill="white" stroke="#bfbfbf" points="313,-0.5 313,-19.5 365,-19.5 365,-0.5 313,-0.5"/>
<text text-anchor="middle" x="339" y="-7.5" font-family="Helvetica,sans-Serif" font-size="10.00">sstream</text>
</g>
<!-- Node1&#45;&gt;Node7 -->
<g id="edge12" class="edge"><title>Node1&#45;&gt;Node7</title>
<path fill="none" stroke="midnightblue" d="M222.867,-56.4435C245.779,-47.4776 281.975,-33.314 307.866,-23.1827"/>
<polygon fill="midnightblue" stroke="midnightblue" points="309.199,-26.4198 317.236,-19.5164 306.648,-19.9011 309.199,-26.4198"/>
</g>
<!-- Node8 -->
<g id="node15" class="node"><title>Node8</title>
<polygon fill="white" stroke="#bfbfbf" points="383,-0.5 383,-19.5 433,-19.5 433,-0.5 383,-0.5"/>
<text text-anchor="middle" x="408" y="-7.5" font-family="Helvetica,sans-Serif" font-size="10.00">fstream</text>
</g>
<!-- Node1&#45;&gt;Node8 -->
<g id="edge14" class="edge"><title>Node1&#45;&gt;Node8</title>
<path fill="none" stroke="midnightblue" d="M233.854,-56.4988C266.69,-47.9925 318.884,-34.4451 372.99,-20.2576"/>
<polygon fill="midnightblue" stroke="midnightblue" points="373.968,-23.6195 382.752,-17.6961 372.191,-16.8486 373.968,-23.6195"/>
</g>
</g>
</svg>
