<?xml version="1.0" encoding="UTF-8" standalone="no"?>
<!DOCTYPE svg PUBLIC "-//W3C//DTD SVG 1.1//EN"
 "http://www.w3.org/Graphics/SVG/1.1/DTD/svg11.dtd">
<!-- Generated by graphviz version 2.28.0 (20111025.1818)
 -->
<!-- Title: G Pages: 1 -->
<!--zoomable 252 -->
<svg id="main" version="1.1" xmlns="http://www.w3.org/2000/svg" xmlns:xlink="http://www.w3.org/1999/xlink" xml:space="preserve" onload="init(evt)">
        <defs>
                <circle id="rim" cx="0" cy="0" r="7"/>
                <circle id="rim2" cx="0" cy="0" r="3.5"/>
                <g id="zoomPlus">
                        <use xlink:href="#rim" fill="#404040">
                                <set attributeName="fill" to="#808080" begin="zoomplus.mouseover" end="zoomplus.mouseout"/>
                        </use>
                        <path d="M-4,0h8M0,-4v8" fill="none" stroke="white" stroke-width="1.5" pointer-events="none"/>
                </g>
                <g id="zoomMin">
                        <use xlink:href="#rim" fill="#404040">
                                <set attributeName="fill" to="#808080" begin="zoomminus.mouseover" end="zoomminus.mouseout"/>
                        </use>
                        <path d="M-4,0h8" fill="none" stroke="white" stroke-width="1.5" pointer-events="none"/>
                </g>
                <g id="dirArrow">
                        <path fill="none" stroke="white" stroke-width="1.5" d="M0,-3.0v7 M-2.5,-0.5L0,-3.0L2.5,-0.5"/>
                </g>
               <g id="resetDef">
                       <use xlink:href="#rim2" fill="#404040">
                               <set attributeName="fill" to="#808080" begin="reset.mouseover" end="reset.mouseout"/>
                       </use>
               </g>
        </defs>

<script type="text/javascript">
var viewWidth = 650;
var viewHeight = 252;
var sectionId = 'dynsection-1';
</script>
<script xlink:href="../../svgpan.js"/>
<svg id="graph" class="graph">
<g id="viewport">
<title>G</title>
<polygon fill="white" stroke="white" points="-4,5 -4,-248 647.008,-248 647.008,5 -4,5"/>
<!-- Node1 -->
<g id="node1" class="node"><title>Node1</title>
<polygon fill="#bfbfbf" stroke="black" points="235,-224.5 235,-243.5 315,-243.5 315,-224.5 235,-224.5"/>
<text text-anchor="middle" x="275" y="-231.5" font-family="Helvetica,sans-Serif" font-size="10.00">include/mmu.h</text>
</g>
<!-- Node2 -->
<g id="node3" class="node"><title>Node2</title>
<a xlink:href="../../dc/da7/cpu_8h.xhtml" target="_top" xlink:title="include/cpu.h">
<polygon fill="white" stroke="black" points="238,-168.5 238,-187.5 312,-187.5 312,-168.5 238,-168.5"/>
<text text-anchor="middle" x="275" y="-175.5" font-family="Helvetica,sans-Serif" font-size="10.00">include/cpu.h</text>
</a>
</g>
<!-- Node1&#45;&gt;Node2 -->
<g id="edge2" class="edge"><title>Node1&#45;&gt;Node2</title>
<path fill="none" stroke="midnightblue" d="M275,-213.805C275,-204.91 275,-194.78 275,-187.751"/>
<polygon fill="midnightblue" stroke="midnightblue" points="271.5,-214.083 275,-224.083 278.5,-214.083 271.5,-214.083"/>
</g>
<!-- Node3 -->
<g id="node5" class="node"><title>Node3</title>
<a xlink:href="../../d4/d9a/vmm__core_8h.xhtml" target="_top" xlink:title="include/vmm_core.h">
<polygon fill="white" stroke="black" points="223,-112.5 223,-131.5 327,-131.5 327,-112.5 223,-112.5"/>
<text text-anchor="middle" x="275" y="-119.5" font-family="Helvetica,sans-Serif" font-size="10.00">include/vmm_core.h</text>
</a>
</g>
<!-- Node2&#45;&gt;Node3 -->
<g id="edge4" class="edge"><title>Node2&#45;&gt;Node3</title>
<path fill="none" stroke="midnightblue" d="M268.528,-158.101C267.896,-149.136 268.343,-138.858 269.869,-131.751"/>
<polygon fill="midnightblue" stroke="midnightblue" points="265.066,-158.622 269.834,-168.083 272.007,-157.713 265.066,-158.622"/>
</g>
<!-- Node3&#45;&gt;Node2 -->
<g id="edge6" class="edge"><title>Node3&#45;&gt;Node2</title>
<path fill="none" stroke="midnightblue" d="M281.458,-141.691C282.106,-150.635 281.676,-160.927 280.166,-168.083"/>
<polygon fill="midnightblue" stroke="midnightblue" points="284.923,-141.2 280.131,-131.751 277.985,-142.126 284.923,-141.2"/>
</g>
<!-- Node4 -->
<g id="node8" class="node"><title>Node4</title>
<a xlink:href="../../de/d7e/cleaningDaemon_8h.xhtml" target="_top" xlink:title="include/Policy/cleaningDaemon.h">
<polygon fill="white" stroke="black" points="-0.5,-56.5 -0.5,-75.5 160.5,-75.5 160.5,-56.5 -0.5,-56.5"/>
<text text-anchor="middle" x="80" y="-63.5" font-family="Helvetica,sans-Serif" font-size="10.00">include/Policy/cleaningDaemon.h</text>
</a>
</g>
<!-- Node3&#45;&gt;Node4 -->
<g id="edge8" class="edge"><title>Node3&#45;&gt;Node4</title>
<path fill="none" stroke="midnightblue" d="M229.071,-109.829C190.551,-99.6333 137.093,-84.7823 105.674,-75.5164"/>
<polygon fill="midnightblue" stroke="midnightblue" points="228.452,-113.285 239.013,-112.444 230.232,-106.515 228.452,-113.285"/>
</g>
<!-- Node5 -->
<g id="node11" class="node"><title>Node5</title>
<a xlink:href="../../d4/dbf/main_8h_source.xhtml" target="_top" xlink:title="include/main.h">
<polygon fill="white" stroke="black" points="149,-0.5 149,-19.5 229,-19.5 229,-0.5 149,-0.5"/>
<text text-anchor="middle" x="189" y="-7.5" font-family="Helvetica,sans-Serif" font-size="10.00">include/main.h</text>
</a>
</g>
<!-- Node3&#45;&gt;Node5 -->
<g id="edge14" class="edge"><title>Node3&#45;&gt;Node5</title>
<path fill="none" stroke="midnightblue" d="M246.308,-107.619C232.923,-100.057 217.818,-89.4125 208,-76 195.361,-58.7337 191.09,-33.1649 189.677,-19.8256"/>
<polygon fill="midnightblue" stroke="midnightblue" points="244.741,-110.75 255.213,-112.358 248.029,-104.571 244.741,-110.75"/>
</g>
<!-- Node6 -->
<g id="node14" class="node"><title>Node6</title>
<a xlink:href="../../d3/ded/pr__fifo_8h_source.xhtml" target="_top" xlink:title="include/Policy/pr_fifo.h">
<polygon fill="white" stroke="black" points="217,-56.5 217,-75.5 333,-75.5 333,-56.5 217,-56.5"/>
<text text-anchor="middle" x="275" y="-63.5" font-family="Helvetica,sans-Serif" font-size="10.00">include/Policy/pr_fifo.h</text>
</a>
</g>
<!-- Node3&#45;&gt;Node6 -->
<g id="edge16" class="edge"><title>Node3&#45;&gt;Node6</title>
<path fill="none" stroke="midnightblue" d="M275,-101.805C275,-92.9102 275,-82.7798 275,-75.7511"/>
<polygon fill="midnightblue" stroke="midnightblue" points="271.5,-102.083 275,-112.083 278.5,-102.083 271.5,-102.083"/>
</g>
<!-- Node8 -->
<g id="node20" class="node"><title>Node8</title>
<a xlink:href="../../db/d16/pr__lru_8h_source.xhtml" target="_top" xlink:title="include/Policy/pr_lru.h">
<polygon fill="white" stroke="black" points="351.5,-56.5 351.5,-75.5 464.5,-75.5 464.5,-56.5 351.5,-56.5"/>
<text text-anchor="middle" x="408" y="-63.5" font-family="Helvetica,sans-Serif" font-size="10.00">include/Policy/pr_lru.h</text>
</a>
</g>
<!-- Node3&#45;&gt;Node8 -->
<g id="edge24" class="edge"><title>Node3&#45;&gt;Node8</title>
<path fill="none" stroke="midnightblue" d="M305.448,-108.638C330.407,-98.504 365.077,-84.4274 387.024,-75.5164"/>
<polygon fill="midnightblue" stroke="midnightblue" points="304.023,-105.439 296.074,-112.444 306.656,-111.924 304.023,-105.439"/>
</g>
<!-- Node9 -->
<g id="node23" class="node"><title>Node9</title>
<a xlink:href="../../d6/d53/pr__lruApprox_8h_source.xhtml" target="_top" xlink:title="include/Policy/pr_lruApprox.h">
<polygon fill="white" stroke="black" points="482.5,-56.5 482.5,-75.5 625.5,-75.5 625.5,-56.5 482.5,-56.5"/>
<text text-anchor="middle" x="554" y="-63.5" font-family="Helvetica,sans-Serif" font-size="10.00">include/Policy/pr_lruApprox.h</text>
</a>
</g>
<!-- Node3&#45;&gt;Node9 -->
<g id="edge28" class="edge"><title>Node3&#45;&gt;Node9</title>
<path fill="none" stroke="midnightblue" d="M329.058,-110.537C381.787,-100.332 461.004,-84.9992 509.998,-75.5164"/>
<polygon fill="midnightblue" stroke="midnightblue" points="328.361,-107.107 319.208,-112.444 329.691,-113.979 328.361,-107.107"/>
</g>
<!-- Node4&#45;&gt;Node3 -->
<g id="edge10" class="edge"><title>Node4&#45;&gt;Node3</title>
<path fill="none" stroke="midnightblue" d="M125.763,-78.127C164.239,-88.3093 217.708,-103.162 249.19,-112.444"/>
<polygon fill="midnightblue" stroke="midnightblue" points="126.395,-74.6742 115.834,-75.5164 124.615,-81.4442 126.395,-74.6742"/>
</g>
<!-- Node4&#45;&gt;Node5 -->
<g id="edge12" class="edge"><title>Node4&#45;&gt;Node5</title>
<path fill="none" stroke="midnightblue" d="M106.519,-51.8622C126.73,-41.8492 153.987,-28.3458 171.531,-19.6545"/>
<polygon fill="midnightblue" stroke="midnightblue" points="104.92,-48.7485 97.5127,-56.324 108.027,-55.0209 104.92,-48.7485"/>
</g>
<!-- Node6&#45;&gt;Node5 -->
<g id="edge22" class="edge"><title>Node6&#45;&gt;Node5</title>
<path fill="none" stroke="midnightblue" d="M252.545,-50.9005C236.776,-40.9986 216.186,-28.0705 202.783,-19.6545"/>
<polygon fill="midnightblue" stroke="midnightblue" points="250.852,-53.9704 261.183,-56.324 254.575,-48.0421 250.852,-53.9704"/>
</g>
<!-- Node7 -->
<g id="node16" class="node"><title>Node7</title>
<a xlink:href="../../d1/df8/allPR_8h_source.xhtml" target="_top" xlink:title="include/Policy/allPR.h">
<polygon fill="white" stroke="black" points="424.5,-0.5 424.5,-19.5 537.5,-19.5 537.5,-0.5 424.5,-0.5"/>
<text text-anchor="middle" x="481" y="-7.5" font-family="Helvetica,sans-Serif" font-size="10.00">include/Policy/allPR.h</text>
</a>
</g>
<!-- Node6&#45;&gt;Node7 -->
<g id="edge18" class="edge"><title>Node6&#45;&gt;Node7</title>
<path fill="none" stroke="midnightblue" d="M317.615,-53.8291C356.51,-43.6333 413.164,-28.7823 448.511,-19.5164"/>
<polygon fill="midnightblue" stroke="midnightblue" points="316.427,-50.5222 307.641,-56.4435 318.202,-57.2934 316.427,-50.5222"/>
</g>
<!-- Node7&#45;&gt;Node3 -->
<g id="edge20" class="edge"><title>Node7&#45;&gt;Node3</title>
<path fill="none" stroke="midnightblue" d="M547.62,-17.7285C601.378,-25.7358 663.572,-42.4893 634,-76 614.05,-98.6068 422.088,-112.616 327.353,-118.208"/>
<polygon fill="midnightblue" stroke="midnightblue" points="548.095,-14.2609 537.704,-16.3331 547.119,-21.1926 548.095,-14.2609"/>
</g>
<!-- Node8&#45;&gt;Node7 -->
<g id="edge26" class="edge"><title>Node8&#45;&gt;Node7</title>
<path fill="none" stroke="midnightblue" d="M428.142,-50.1008C441.279,-40.3824 457.982,-28.0269 469.058,-19.8339"/>
<polygon fill="midnightblue" stroke="midnightblue" points="425.687,-47.5631 419.729,-56.324 429.85,-53.1907 425.687,-47.5631"/>
</g>
<!-- Node9&#45;&gt;Node7 -->
<g id="edge30" class="edge"><title>Node9&#45;&gt;Node7</title>
<path fill="none" stroke="midnightblue" d="M533.858,-50.1008C520.721,-40.3824 504.018,-28.0269 492.942,-19.8339"/>
<polygon fill="midnightblue" stroke="midnightblue" points="532.15,-53.1907 542.271,-56.324 536.313,-47.5631 532.15,-53.1907"/>
</g>
</g>
</svg>
        <g id="navigator" transform="translate(0 0)" fill="#404254">
                <rect fill="#f2f5e9" fill-opacity="0.5" stroke="#606060" stroke-width=".5" x="0" y="0" width="60" height="60"/>
                <use id="zoomplus" xlink:href="#zoomPlus" x="17" y="9" onmousedown="handleZoom(evt,'in')"/>
                <use id="zoomminus" xlink:href="#zoomMin" x="42" y="9" onmousedown="handleZoom(evt,'out')"/>
                <use id="reset" xlink:href="#resetDef" x="30" y="36" onmousedown="handleReset()"/>
                <g id="arrowUp" xlink:href="#dirArrow" transform="translate(30 24)" onmousedown="handlePan(0,-1)">
                  <use xlink:href="#rim" fill="#404040">
                        <set attributeName="fill" to="#808080" begin="arrowUp.mouseover" end="arrowUp.mouseout"/>
                  </use>
                  <path fill="none" stroke="white" stroke-width="1.5" d="M0,-3.0v7 M-2.5,-0.5L0,-3.0L2.5,-0.5"/>
                </g>
                <g id="arrowRight" xlink:href="#dirArrow" transform="rotate(90) translate(36 -43)" onmousedown="handlePan(1,0)">
                  <use xlink:href="#rim" fill="#404040">
                        <set attributeName="fill" to="#808080" begin="arrowRight.mouseover" end="arrowRight.mouseout"/>
                  </use>
                  <path fill="none" stroke="white" stroke-width="1.5" d="M0,-3.0v7 M-2.5,-0.5L0,-3.0L2.5,-0.5"/>
                </g>
                <g id="arrowDown" xlink:href="#dirArrow" transform="rotate(180) translate(-30 -48)" onmousedown="handlePan(0,1)">
                  <use xlink:href="#rim" fill="#404040">
                        <set attributeName="fill" to="#808080" begin="arrowDown.mouseover" end="arrowDown.mouseout"/>
                  </use>
                  <path fill="none" stroke="white" stroke-width="1.5" d="M0,-3.0v7 M-2.5,-0.5L0,-3.0L2.5,-0.5"/>
                </g>
                <g id="arrowLeft" xlink:href="#dirArrow" transform="rotate(270) translate(-36 17)" onmousedown="handlePan(-1,0)">
                  <use xlink:href="#rim" fill="#404040">
                        <set attributeName="fill" to="#808080" begin="arrowLeft.mouseover" end="arrowLeft.mouseout"/>
                  </use>
                  <path fill="none" stroke="white" stroke-width="1.5" d="M0,-3.0v7 M-2.5,-0.5L0,-3.0L2.5,-0.5"/>
                </g>
        </g>
</svg>
