<?xml version="1.0" encoding="UTF-8" standalone="no"?>
<!DOCTYPE svg PUBLIC "-//W3C//DTD SVG 1.1//EN"
 "http://www.w3.org/Graphics/SVG/1.1/DTD/svg11.dtd">
<!-- Generated by graphviz version 2.28.0 (20111025.1818)
 -->
<!-- Title: G Pages: 1 -->
<!--zoomable 196 -->
<svg id="main" version="1.1" xmlns="http://www.w3.org/2000/svg" xmlns:xlink="http://www.w3.org/1999/xlink" xml:space="preserve" onload="init(evt)">
        <defs>
                <circle id="rim" cx="0" cy="0" r="7"/>
                <circle id="rim2" cx="0" cy="0" r="3.5"/>
                <g id="zoomPlus">
                        <use xlink:href="#rim" fill="#404040">
                                <set attributeName="fill" to="#808080" begin="zoomplus.mouseover" end="zoomplus.mouseout"/>
                        </use>
                        <path d="M-4,0h8M0,-4v8" fill="none" stroke="white" stroke-width="1.5" pointer-events="none"/>
                </g>
                <g id="zoomMin">
                        <use xlink:href="#rim" fill="#404040">
                                <set attributeName="fill" to="#808080" begin="zoomminus.mouseover" end="zoomminus.mouseout"/>
                        </use>
                        <path d="M-4,0h8" fill="none" stroke="white" stroke-width="1.5" pointer-events="none"/>
                </g>
                <g id="dirArrow">
                        <path fill="none" stroke="white" stroke-width="1.5" d="M0,-3.0v7 M-2.5,-0.5L0,-3.0L2.5,-0.5"/>
                </g>
               <g id="resetDef">
                       <use xlink:href="#rim2" fill="#404040">
                               <set attributeName="fill" to="#808080" begin="reset.mouseover" end="reset.mouseout"/>
                       </use>
               </g>
        </defs>

<script type="text/javascript">
var viewWidth = 615;
var viewHeight = 196;
var sectionId = 'dynsection-1';
</script>
<script xlink:href="../../svgpan.js"/>
<svg id="graph" class="graph">
<g id="viewport">
<title>G</title>
<polygon fill="white" stroke="white" points="-4,5 -4,-192 612,-192 612,5 -4,5"/>
<!-- Node1 -->
<g id="node1" class="node"><title>Node1</title>
<polygon fill="#bfbfbf" stroke="black" points="243.5,-168.5 243.5,-187.5 404.5,-187.5 404.5,-168.5 243.5,-168.5"/>
<text text-anchor="middle" x="324" y="-175.5" font-family="Helvetica,sans-Serif" font-size="10.00">include/Policy/cleaningDaemon.h</text>
</g>
<!-- Node2 -->
<g id="node3" class="node"><title>Node2</title>
<a xlink:href="../../d4/d9a/vmm__core_8h.xhtml" target="_top" xlink:title="include/vmm_core.h">
<polygon fill="white" stroke="black" points="272,-112.5 272,-131.5 376,-131.5 376,-112.5 272,-112.5"/>
<text text-anchor="middle" x="324" y="-119.5" font-family="Helvetica,sans-Serif" font-size="10.00">include/vmm_core.h</text>
</a>
</g>
<!-- Node1&#45;&gt;Node2 -->
<g id="edge2" class="edge"><title>Node1&#45;&gt;Node2</title>
<path fill="none" stroke="midnightblue" d="M317.528,-158.101C316.896,-149.136 317.343,-138.858 318.869,-131.751"/>
<polygon fill="midnightblue" stroke="midnightblue" points="314.066,-158.622 318.834,-168.083 321.007,-157.713 314.066,-158.622"/>
</g>
<!-- Node4 -->
<g id="node9" class="node"><title>Node4</title>
<a xlink:href="../../d4/dbf/main_8h_source.xhtml" target="_top" xlink:title="include/main.h">
<polygon fill="white" stroke="black" points="0,-0.5 0,-19.5 80,-19.5 80,-0.5 0,-0.5"/>
<text text-anchor="middle" x="40" y="-7.5" font-family="Helvetica,sans-Serif" font-size="10.00">include/main.h</text>
</a>
</g>
<!-- Node1&#45;&gt;Node4 -->
<g id="edge28" class="edge"><title>Node1&#45;&gt;Node4</title>
<path fill="none" stroke="midnightblue" d="M233.307,-170.117C169.111,-160.035 86.9119,-135.482 43,-76 30.6546,-59.2773 34.5059,-33.0144 37.6488,-19.5643"/>
<polygon fill="midnightblue" stroke="midnightblue" points="233.043,-173.616 243.447,-171.614 234.066,-166.691 233.043,-173.616"/>
</g>
<!-- Node2&#45;&gt;Node1 -->
<g id="edge8" class="edge"><title>Node2&#45;&gt;Node1</title>
<path fill="none" stroke="midnightblue" d="M330.458,-141.691C331.106,-150.635 330.676,-160.927 329.166,-168.083"/>
<polygon fill="midnightblue" stroke="midnightblue" points="333.923,-141.2 329.131,-131.751 326.985,-142.126 333.923,-141.2"/>
</g>
<!-- Node3 -->
<g id="node5" class="node"><title>Node3</title>
<a xlink:href="../../dc/da7/cpu_8h.xhtml" target="_top" xlink:title="include/cpu.h">
<polygon fill="white" stroke="black" points="402,-56.5 402,-75.5 476,-75.5 476,-56.5 402,-56.5"/>
<text text-anchor="middle" x="439" y="-63.5" font-family="Helvetica,sans-Serif" font-size="10.00">include/cpu.h</text>
</a>
</g>
<!-- Node2&#45;&gt;Node3 -->
<g id="edge4" class="edge"><title>Node2&#45;&gt;Node3</title>
<path fill="none" stroke="midnightblue" d="M346.363,-107.726C366.31,-97.7271 395.156,-84.3065 415.459,-75.6545"/>
<polygon fill="midnightblue" stroke="midnightblue" points="344.675,-104.658 337.362,-112.324 347.86,-110.892 344.675,-104.658"/>
</g>
<!-- Node2&#45;&gt;Node4 -->
<g id="edge10" class="edge"><title>Node2&#45;&gt;Node4</title>
<path fill="none" stroke="midnightblue" d="M261.53,-117.913C192.812,-113.25 88.2183,-102.007 59,-76 42.6654,-61.4608 40.037,-33.7359 39.821,-19.6608"/>
<polygon fill="midnightblue" stroke="midnightblue" points="261.609,-121.425 271.814,-118.58 262.062,-114.44 261.609,-121.425"/>
</g>
<!-- Node5 -->
<g id="node11" class="node"><title>Node5</title>
<a xlink:href="../../d3/ded/pr__fifo_8h_source.xhtml" target="_top" xlink:title="include/Policy/pr_fifo.h">
<polygon fill="white" stroke="black" points="68,-56.5 68,-75.5 184,-75.5 184,-56.5 68,-56.5"/>
<text text-anchor="middle" x="126" y="-63.5" font-family="Helvetica,sans-Serif" font-size="10.00">include/Policy/pr_fifo.h</text>
</a>
</g>
<!-- Node2&#45;&gt;Node5 -->
<g id="edge12" class="edge"><title>Node2&#45;&gt;Node5</title>
<path fill="none" stroke="midnightblue" d="M282.562,-109.699C245.193,-99.507 191.057,-84.7429 157.227,-75.5164"/>
<polygon fill="midnightblue" stroke="midnightblue" points="282.058,-113.189 292.626,-112.444 283.9,-106.436 282.058,-113.189"/>
</g>
<!-- Node7 -->
<g id="node17" class="node"><title>Node7</title>
<a xlink:href="../../db/d16/pr__lru_8h_source.xhtml" target="_top" xlink:title="include/Policy/pr_lru.h">
<polygon fill="white" stroke="black" points="494.5,-56.5 494.5,-75.5 607.5,-75.5 607.5,-56.5 494.5,-56.5"/>
<text text-anchor="middle" x="551" y="-63.5" font-family="Helvetica,sans-Serif" font-size="10.00">include/Policy/pr_lru.h</text>
</a>
</g>
<!-- Node2&#45;&gt;Node7 -->
<g id="edge20" class="edge"><title>Node2&#45;&gt;Node7</title>
<path fill="none" stroke="midnightblue" d="M369.869,-110.088C412.755,-99.8865 475.917,-84.8612 515.199,-75.5164"/>
<polygon fill="midnightblue" stroke="midnightblue" points="368.887,-106.724 359.969,-112.444 370.507,-113.534 368.887,-106.724"/>
</g>
<!-- Node8 -->
<g id="node20" class="node"><title>Node8</title>
<a xlink:href="../../d6/d53/pr__lruApprox_8h_source.xhtml" target="_top" xlink:title="include/Policy/pr_lruApprox.h">
<polygon fill="white" stroke="black" points="202.5,-56.5 202.5,-75.5 345.5,-75.5 345.5,-56.5 202.5,-56.5"/>
<text text-anchor="middle" x="274" y="-63.5" font-family="Helvetica,sans-Serif" font-size="10.00">include/Policy/pr_lruApprox.h</text>
</a>
</g>
<!-- Node2&#45;&gt;Node8 -->
<g id="edge24" class="edge"><title>Node2&#45;&gt;Node8</title>
<path fill="none" stroke="midnightblue" d="M308.924,-104.718C300.111,-95.1997 289.334,-83.5608 282.103,-75.7511"/>
<polygon fill="midnightblue" stroke="midnightblue" points="306.381,-107.123 315.744,-112.083 311.518,-102.367 306.381,-107.123"/>
</g>
<!-- Node3&#45;&gt;Node2 -->
<g id="edge6" class="edge"><title>Node3&#45;&gt;Node2</title>
<path fill="none" stroke="midnightblue" d="M416.922,-80.1312C396.89,-90.1826 367.722,-103.754 347.311,-112.444"/>
<polygon fill="midnightblue" stroke="midnightblue" points="418.634,-83.1866 425.943,-75.5164 415.446,-76.9546 418.634,-83.1866"/>
</g>
<!-- Node5&#45;&gt;Node4 -->
<g id="edge18" class="edge"><title>Node5&#45;&gt;Node4</title>
<path fill="none" stroke="midnightblue" d="M103.545,-50.9005C87.7756,-40.9986 67.1864,-28.0705 53.7831,-19.6545"/>
<polygon fill="midnightblue" stroke="midnightblue" points="101.852,-53.9704 112.183,-56.324 105.575,-48.0421 101.852,-53.9704"/>
</g>
<!-- Node6 -->
<g id="node13" class="node"><title>Node6</title>
<a xlink:href="../../d1/df8/allPR_8h_source.xhtml" target="_top" xlink:title="include/Policy/allPR.h">
<polygon fill="white" stroke="black" points="267.5,-0.5 267.5,-19.5 380.5,-19.5 380.5,-0.5 267.5,-0.5"/>
<text text-anchor="middle" x="324" y="-7.5" font-family="Helvetica,sans-Serif" font-size="10.00">include/Policy/allPR.h</text>
</a>
</g>
<!-- Node5&#45;&gt;Node6 -->
<g id="edge14" class="edge"><title>Node5&#45;&gt;Node6</title>
<path fill="none" stroke="midnightblue" d="M167.438,-53.6986C204.807,-43.507 258.943,-28.7429 292.773,-19.5164"/>
<polygon fill="midnightblue" stroke="midnightblue" points="166.1,-50.4356 157.374,-56.4435 167.942,-57.189 166.1,-50.4356"/>
</g>
<!-- Node6&#45;&gt;Node2 -->
<g id="edge16" class="edge"><title>Node6&#45;&gt;Node2</title>
<path fill="none" stroke="midnightblue" d="M338.499,-27.6023C344.548,-35.612 350.883,-45.7048 354,-56 360.411,-77.1738 343.403,-100.328 332.443,-112.471"/>
<polygon fill="midnightblue" stroke="midnightblue" points="341.219,-25.3995 332.214,-19.8175 335.772,-29.7968 341.219,-25.3995"/>
</g>
<!-- Node7&#45;&gt;Node6 -->
<g id="edge22" class="edge"><title>Node7&#45;&gt;Node6</title>
<path fill="none" stroke="midnightblue" d="M505.131,-54.0884C462.245,-43.8865 399.083,-28.8612 359.801,-19.5164"/>
<polygon fill="midnightblue" stroke="midnightblue" points="504.493,-57.5342 515.031,-56.4435 506.113,-50.7242 504.493,-57.5342"/>
</g>
<!-- Node8&#45;&gt;Node6 -->
<g id="edge26" class="edge"><title>Node8&#45;&gt;Node6</title>
<path fill="none" stroke="midnightblue" d="M289.076,-48.7175C297.889,-39.1997 308.666,-27.5608 315.897,-19.7511"/>
<polygon fill="midnightblue" stroke="midnightblue" points="286.482,-46.3674 282.256,-56.083 291.619,-51.1233 286.482,-46.3674"/>
</g>
</g>
</svg>
        <g id="navigator" transform="translate(0 0)" fill="#404254">
                <rect fill="#f2f5e9" fill-opacity="0.5" stroke="#606060" stroke-width=".5" x="0" y="0" width="60" height="60"/>
                <use id="zoomplus" xlink:href="#zoomPlus" x="17" y="9" onmousedown="handleZoom(evt,'in')"/>
                <use id="zoomminus" xlink:href="#zoomMin" x="42" y="9" onmousedown="handleZoom(evt,'out')"/>
                <use id="reset" xlink:href="#resetDef" x="30" y="36" onmousedown="handleReset()"/>
                <g id="arrowUp" xlink:href="#dirArrow" transform="translate(30 24)" onmousedown="handlePan(0,-1)">
                  <use xlink:href="#rim" fill="#404040">
                        <set attributeName="fill" to="#808080" begin="arrowUp.mouseover" end="arrowUp.mouseout"/>
                  </use>
                  <path fill="none" stroke="white" stroke-width="1.5" d="M0,-3.0v7 M-2.5,-0.5L0,-3.0L2.5,-0.5"/>
                </g>
                <g id="arrowRight" xlink:href="#dirArrow" transform="rotate(90) translate(36 -43)" onmousedown="handlePan(1,0)">
                  <use xlink:href="#rim" fill="#404040">
                        <set attributeName="fill" to="#808080" begin="arrowRight.mouseover" end="arrowRight.mouseout"/>
                  </use>
                  <path fill="none" stroke="white" stroke-width="1.5" d="M0,-3.0v7 M-2.5,-0.5L0,-3.0L2.5,-0.5"/>
                </g>
                <g id="arrowDown" xlink:href="#dirArrow" transform="rotate(180) translate(-30 -48)" onmousedown="handlePan(0,1)">
                  <use xlink:href="#rim" fill="#404040">
                        <set attributeName="fill" to="#808080" begin="arrowDown.mouseover" end="arrowDown.mouseout"/>
                  </use>
                  <path fill="none" stroke="white" stroke-width="1.5" d="M0,-3.0v7 M-2.5,-0.5L0,-3.0L2.5,-0.5"/>
                </g>
                <g id="arrowLeft" xlink:href="#dirArrow" transform="rotate(270) translate(-36 17)" onmousedown="handlePan(-1,0)">
                  <use xlink:href="#rim" fill="#404040">
                        <set attributeName="fill" to="#808080" begin="arrowLeft.mouseover" end="arrowLeft.mouseout"/>
                  </use>
                  <path fill="none" stroke="white" stroke-width="1.5" d="M0,-3.0v7 M-2.5,-0.5L0,-3.0L2.5,-0.5"/>
                </g>
        </g>
</svg>
