<?xml version="1.0" encoding="UTF-8" standalone="no"?>
<!DOCTYPE svg PUBLIC "-//W3C//DTD SVG 1.1//EN"
 "http://www.w3.org/Graphics/SVG/1.1/DTD/svg11.dtd">
<!-- Generated by graphviz version 2.28.0 (20111025.1818)
 -->
<!-- Title: G Pages: 1 -->
<!--zoomable 252 -->
<svg id="main" version="1.1" xmlns="http://www.w3.org/2000/svg" xmlns:xlink="http://www.w3.org/1999/xlink" xml:space="preserve" onload="init(evt)">
        <defs>
                <circle id="rim" cx="0" cy="0" r="7"/>
                <circle id="rim2" cx="0" cy="0" r="3.5"/>
                <g id="zoomPlus">
                        <use xlink:href="#rim" fill="#404040">
                                <set attributeName="fill" to="#808080" begin="zoomplus.mouseover" end="zoomplus.mouseout"/>
                        </use>
                        <path d="M-4,0h8M0,-4v8" fill="none" stroke="white" stroke-width="1.5" pointer-events="none"/>
                </g>
                <g id="zoomMin">
                        <use xlink:href="#rim" fill="#404040">
                                <set attributeName="fill" to="#808080" begin="zoomminus.mouseover" end="zoomminus.mouseout"/>
                        </use>
                        <path d="M-4,0h8" fill="none" stroke="white" stroke-width="1.5" pointer-events="none"/>
                </g>
                <g id="dirArrow">
                        <path fill="none" stroke="white" stroke-width="1.5" d="M0,-3.0v7 M-2.5,-0.5L0,-3.0L2.5,-0.5"/>
                </g>
               <g id="resetDef">
                       <use xlink:href="#rim2" fill="#404040">
                               <set attributeName="fill" to="#808080" begin="reset.mouseover" end="reset.mouseout"/>
                       </use>
               </g>
        </defs>

<script type="text/javascript">
var viewWidth = 1074;
var viewHeight = 252;
var sectionId = 'dynsection-0';
</script>
<script xlink:href="../../svgpan.js"/>
<svg id="graph" class="graph">
<g id="viewport">
<title>G</title>
<polygon fill="white" stroke="white" points="-4,5 -4,-248 1071,-248 1071,5 -4,5"/>
<!-- Node1 -->
<g id="node1" class="node"><title>Node1</title>
<polygon fill="#bfbfbf" stroke="black" points="729.5,-224.5 729.5,-243.5 860.5,-243.5 860.5,-224.5 729.5,-224.5"/>
<text text-anchor="middle" x="795" y="-231.5" font-family="Helvetica,sans-Serif" font-size="10.00">include/scheduler/lottery.h</text>
</g>
<!-- Node2 -->
<g id="node3" class="node"><title>Node2</title>
<polygon fill="white" stroke="#bfbfbf" points="874,-56.5 874,-75.5 926,-75.5 926,-56.5 874,-56.5"/>
<text text-anchor="middle" x="900" y="-63.5" font-family="Helvetica,sans-Serif" font-size="10.00">assert.h</text>
</g>
<!-- Node1&#45;&gt;Node2 -->
<g id="edge2" class="edge"><title>Node1&#45;&gt;Node2</title>
<path fill="none" stroke="midnightblue" d="M800.645,-224.075C817.388,-197.606 866.976,-119.209 889.114,-84.2097"/>
<polygon fill="midnightblue" stroke="midnightblue" points="892.193,-85.8904 894.58,-75.5681 886.277,-82.1484 892.193,-85.8904"/>
</g>
<!-- Node3 -->
<g id="node5" class="node"><title>Node3</title>
<polygon fill="white" stroke="#bfbfbf" points="76.5,-56.5 76.5,-75.5 133.5,-75.5 133.5,-56.5 76.5,-56.5"/>
<text text-anchor="middle" x="105" y="-63.5" font-family="Helvetica,sans-Serif" font-size="10.00">pthread.h</text>
</g>
<!-- Node1&#45;&gt;Node3 -->
<g id="edge4" class="edge"><title>Node1&#45;&gt;Node3</title>
<path fill="none" stroke="midnightblue" d="M729.391,-227.597C660.318,-221.152 548.675,-208.584 454,-188 370.885,-169.93 351.326,-159.971 271,-132 222.791,-115.213 167.795,-93.0752 134.77,-79.4501"/>
<polygon fill="midnightblue" stroke="midnightblue" points="135.836,-76.1034 125.258,-75.5103 133.157,-82.5706 135.836,-76.1034"/>
</g>
<!-- Node4 -->
<g id="node7" class="node"><title>Node4</title>
<polygon fill="white" stroke="#bfbfbf" points="861,-168.5 861,-187.5 905,-187.5 905,-168.5 861,-168.5"/>
<text text-anchor="middle" x="883" y="-175.5" font-family="Helvetica,sans-Serif" font-size="10.00">time.h</text>
</g>
<!-- Node1&#45;&gt;Node4 -->
<g id="edge6" class="edge"><title>Node1&#45;&gt;Node4</title>
<path fill="none" stroke="midnightblue" d="M809.139,-224.324C822.866,-215.9 843.936,-202.971 860.064,-193.074"/>
<polygon fill="midnightblue" stroke="midnightblue" points="862.204,-195.868 868.896,-187.655 858.543,-189.902 862.204,-195.868"/>
</g>
<!-- Node5 -->
<g id="node9" class="node"><title>Node5</title>
<a xlink:href="../../d2/dd8/scheduler_8h_source.xhtml" target="_top" xlink:title="scheduler/scheduler.h">
<polygon fill="white" stroke="black" points="463,-168.5 463,-187.5 575,-187.5 575,-168.5 463,-168.5"/>
<text text-anchor="middle" x="519" y="-175.5" font-family="Helvetica,sans-Serif" font-size="10.00">scheduler/scheduler.h</text>
</a>
</g>
<!-- Node1&#45;&gt;Node5 -->
<g id="edge8" class="edge"><title>Node1&#45;&gt;Node5</title>
<path fill="none" stroke="midnightblue" d="M751.267,-224.444C702.817,-214.964 624.671,-199.675 572.582,-189.483"/>
<polygon fill="midnightblue" stroke="midnightblue" points="573.014,-186.002 562.528,-187.516 571.67,-192.871 573.014,-186.002"/>
</g>
<!-- Node22 -->
<g id="node48" class="node"><title>Node22</title>
<a xlink:href="../../df/db9/id_8h.xhtml" target="_top" xlink:title="utility/id.h">
<polygon fill="white" stroke="black" points="796.5,-56.5 796.5,-75.5 855.5,-75.5 855.5,-56.5 796.5,-56.5"/>
<text text-anchor="middle" x="826" y="-63.5" font-family="Helvetica,sans-Serif" font-size="10.00">utility/id.h</text>
</a>
</g>
<!-- Node1&#45;&gt;Node22 -->
<g id="edge64" class="edge"><title>Node1&#45;&gt;Node22</title>
<path fill="none" stroke="midnightblue" d="M796.667,-224.075C801.546,-197.945 815.876,-121.211 822.531,-85.577"/>
<polygon fill="midnightblue" stroke="midnightblue" points="826.005,-86.0407 824.4,-75.5681 819.124,-84.7556 826.005,-86.0407"/>
</g>
<!-- Node5&#45;&gt;Node3 -->
<g id="edge12" class="edge"><title>Node5&#45;&gt;Node3</title>
<path fill="none" stroke="midnightblue" d="M486.859,-168.46C411.614,-148.467 224.281,-98.6931 143.299,-77.176"/>
<polygon fill="midnightblue" stroke="midnightblue" points="144.072,-73.7602 133.509,-74.5748 142.275,-80.5254 144.072,-73.7602"/>
</g>
<!-- Node6 -->
<g id="node11" class="node"><title>Node6</title>
<polygon fill="white" stroke="#bfbfbf" points="397.5,-112.5 397.5,-131.5 442.5,-131.5 442.5,-112.5 397.5,-112.5"/>
<text text-anchor="middle" x="420" y="-119.5" font-family="Helvetica,sans-Serif" font-size="10.00">cstdlib</text>
</g>
<!-- Node5&#45;&gt;Node6 -->
<g id="edge10" class="edge"><title>Node5&#45;&gt;Node6</title>
<path fill="none" stroke="midnightblue" d="M503.094,-168.324C487.362,-159.743 463.058,-146.486 444.791,-136.522"/>
<polygon fill="midnightblue" stroke="midnightblue" points="446.322,-133.37 435.867,-131.655 442.97,-139.516 446.322,-133.37"/>
</g>
<!-- Node7 -->
<g id="node14" class="node"><title>Node7</title>
<a xlink:href="../../da/d42/process_8h.xhtml" target="_top" xlink:title="process.h">
<polygon fill="white" stroke="black" points="-0.5,-56.5 -0.5,-75.5 58.5,-75.5 58.5,-56.5 -0.5,-56.5"/>
<text text-anchor="middle" x="29" y="-63.5" font-family="Helvetica,sans-Serif" font-size="10.00">process.h</text>
</a>
</g>
<!-- Node5&#45;&gt;Node7 -->
<g id="edge14" class="edge"><title>Node5&#45;&gt;Node7</title>
<path fill="none" stroke="midnightblue" d="M464.555,-168.455C414.133,-160.226 337.177,-146.865 271,-132 198.635,-115.745 115.323,-92.3121 67.7416,-78.471"/>
<polygon fill="midnightblue" stroke="midnightblue" points="68.4434,-75.0298 57.8632,-75.5858 66.4808,-81.7491 68.4434,-75.0298"/>
</g>
<!-- Node9 -->
<g id="node18" class="node"><title>Node9</title>
<a xlink:href="../../d1/d8c/logger_8h.xhtml" target="_top" xlink:title="utility/logger.h">
<polygon fill="white" stroke="black" points="895.5,-112.5 895.5,-131.5 972.5,-131.5 972.5,-112.5 895.5,-112.5"/>
<text text-anchor="middle" x="934" y="-119.5" font-family="Helvetica,sans-Serif" font-size="10.00">utility/logger.h</text>
</a>
</g>
<!-- Node5&#45;&gt;Node9 -->
<g id="edge18" class="edge"><title>Node5&#45;&gt;Node9</title>
<path fill="none" stroke="midnightblue" d="M575.401,-169.661C657.376,-158.994 808.069,-139.386 885.405,-129.323"/>
<polygon fill="midnightblue" stroke="midnightblue" points="885.9,-132.788 895.365,-128.027 884.997,-125.847 885.9,-132.788"/>
</g>
<!-- Node12 -->
<g id="node25" class="node"><title>Node12</title>
<a xlink:href="../../dd/d00/process__logger_8h.xhtml" target="_top" xlink:title="utility/process_logger.h">
<polygon fill="white" stroke="black" points="460.5,-112.5 460.5,-131.5 577.5,-131.5 577.5,-112.5 460.5,-112.5"/>
<text text-anchor="middle" x="519" y="-119.5" font-family="Helvetica,sans-Serif" font-size="10.00">utility/process_logger.h</text>
</a>
</g>
<!-- Node5&#45;&gt;Node12 -->
<g id="edge26" class="edge"><title>Node5&#45;&gt;Node12</title>
<path fill="none" stroke="midnightblue" d="M519,-168.083C519,-161.006 519,-150.861 519,-141.986"/>
<polygon fill="midnightblue" stroke="midnightblue" points="522.5,-141.751 519,-131.751 515.5,-141.751 522.5,-141.751"/>
</g>
<!-- Node5&#45;&gt;Node22 -->
<g id="edge62" class="edge"><title>Node5&#45;&gt;Node22</title>
<path fill="none" stroke="midnightblue" d="M542.834,-168.46C597.016,-149.047 729.571,-101.551 792.187,-79.1153"/>
<polygon fill="midnightblue" stroke="midnightblue" points="793.736,-82.2784 801.969,-75.6104 791.375,-75.6886 793.736,-82.2784"/>
</g>
<!-- Node8 -->
<g id="node16" class="node"><title>Node8</title>
<polygon fill="white" stroke="#bfbfbf" points="-0.5,-0.5 -0.5,-19.5 58.5,-19.5 58.5,-0.5 -0.5,-0.5"/>
<text text-anchor="middle" x="29" y="-7.5" font-family="Helvetica,sans-Serif" font-size="10.00">inttypes.h</text>
</g>
<!-- Node7&#45;&gt;Node8 -->
<g id="edge16" class="edge"><title>Node7&#45;&gt;Node8</title>
<path fill="none" stroke="midnightblue" d="M29,-56.083C29,-49.0059 29,-38.8611 29,-29.9865"/>
<polygon fill="midnightblue" stroke="midnightblue" points="32.5001,-29.751 29,-19.7511 25.5001,-29.7511 32.5001,-29.751"/>
</g>
<!-- Node9&#45;&gt;Node2 -->
<g id="edge20" class="edge"><title>Node9&#45;&gt;Node2</title>
<path fill="none" stroke="midnightblue" d="M928.386,-112.083C923.633,-104.534 916.682,-93.4948 910.848,-84.2298"/>
<polygon fill="midnightblue" stroke="midnightblue" points="913.8,-82.3486 905.51,-75.7511 907.876,-86.0783 913.8,-82.3486"/>
</g>
<!-- Node10 -->
<g id="node21" class="node"><title>Node10</title>
<polygon fill="white" stroke="#bfbfbf" points="1012,-56.5 1012,-75.5 1066,-75.5 1066,-56.5 1012,-56.5"/>
<text text-anchor="middle" x="1039" y="-63.5" font-family="Helvetica,sans-Serif" font-size="10.00">iostream</text>
</g>
<!-- Node9&#45;&gt;Node10 -->
<g id="edge22" class="edge"><title>Node9&#45;&gt;Node10</title>
<path fill="none" stroke="midnightblue" d="M950.87,-112.324C967.709,-103.664 993.807,-90.2424 1013.24,-80.249"/>
<polygon fill="midnightblue" stroke="midnightblue" points="1014.88,-83.3405 1022.17,-75.6545 1011.68,-77.1155 1014.88,-83.3405"/>
</g>
<!-- Node11 -->
<g id="node23" class="node"><title>Node11</title>
<polygon fill="white" stroke="#bfbfbf" points="944,-56.5 944,-75.5 994,-75.5 994,-56.5 944,-56.5"/>
<text text-anchor="middle" x="969" y="-63.5" font-family="Helvetica,sans-Serif" font-size="10.00">fstream</text>
</g>
<!-- Node9&#45;&gt;Node11 -->
<g id="edge24" class="edge"><title>Node9&#45;&gt;Node11</title>
<path fill="none" stroke="midnightblue" d="M939.78,-112.083C944.672,-104.534 951.827,-93.4948 957.833,-84.2298"/>
<polygon fill="midnightblue" stroke="midnightblue" points="960.826,-86.0463 963.328,-75.7511 954.952,-82.239 960.826,-86.0463"/>
</g>
<!-- Node12&#45;&gt;Node2 -->
<g id="edge36" class="edge"><title>Node12&#45;&gt;Node2</title>
<path fill="none" stroke="midnightblue" d="M577.622,-115.435C644.44,-108.626 757.073,-95.7385 863.759,-75.8244"/>
<polygon fill="midnightblue" stroke="midnightblue" points="864.556,-79.2358 873.731,-73.9387 863.255,-72.3576 864.556,-79.2358"/>
</g>
<!-- Node12&#45;&gt;Node3 -->
<g id="edge42" class="edge"><title>Node12&#45;&gt;Node3</title>
<path fill="none" stroke="midnightblue" d="M460.402,-113.185C457.222,-112.78 454.073,-112.382 451,-112 317.011,-95.329 279.824,-100.142 143.592,-76.1072"/>
<polygon fill="midnightblue" stroke="midnightblue" points="144.069,-72.637 133.61,-74.3261 142.839,-79.5282 144.069,-72.637"/>
</g>
<!-- Node12&#45;&gt;Node7 -->
<g id="edge50" class="edge"><title>Node12&#45;&gt;Node7</title>
<path fill="none" stroke="midnightblue" d="M460.412,-113.102C457.23,-112.718 454.077,-112.348 451,-112 283.913,-93.1175 237.884,-103.409 68.7807,-76.1028"/>
<polygon fill="midnightblue" stroke="midnightblue" points="69.2254,-72.6291 58.7916,-74.4695 68.0958,-79.5373 69.2254,-72.6291"/>
</g>
<!-- Node13 -->
<g id="node27" class="node"><title>Node13</title>
<polygon fill="white" stroke="#bfbfbf" points="534,-56.5 534,-75.5 580,-75.5 580,-56.5 534,-56.5"/>
<text text-anchor="middle" x="557" y="-63.5" font-family="Helvetica,sans-Serif" font-size="10.00">stdio.h</text>
</g>
<!-- Node12&#45;&gt;Node13 -->
<g id="edge28" class="edge"><title>Node12&#45;&gt;Node13</title>
<path fill="none" stroke="midnightblue" d="M525.275,-112.083C530.642,-104.455 538.518,-93.2645 545.079,-83.9408"/>
<polygon fill="midnightblue" stroke="midnightblue" points="547.949,-85.9434 550.842,-75.7511 542.225,-81.9149 547.949,-85.9434"/>
</g>
<!-- Node14 -->
<g id="node29" class="node"><title>Node14</title>
<polygon fill="white" stroke="#bfbfbf" points="598,-56.5 598,-75.5 646,-75.5 646,-56.5 598,-56.5"/>
<text text-anchor="middle" x="622" y="-63.5" font-family="Helvetica,sans-Serif" font-size="10.00">stdlib.h</text>
</g>
<!-- Node12&#45;&gt;Node14 -->
<g id="edge30" class="edge"><title>Node12&#45;&gt;Node14</title>
<path fill="none" stroke="midnightblue" d="M535.549,-112.324C551.992,-103.703 577.435,-90.3643 596.468,-80.3855"/>
<polygon fill="midnightblue" stroke="midnightblue" points="598.261,-83.3977 605.492,-75.6545 595.011,-77.198 598.261,-83.3977"/>
</g>
<!-- Node15 -->
<g id="node31" class="node"><title>Node15</title>
<polygon fill="white" stroke="#bfbfbf" points="664.5,-56.5 664.5,-75.5 715.5,-75.5 715.5,-56.5 664.5,-56.5"/>
<text text-anchor="middle" x="690" y="-63.5" font-family="Helvetica,sans-Serif" font-size="10.00">unistd.h</text>
</g>
<!-- Node12&#45;&gt;Node15 -->
<g id="edge32" class="edge"><title>Node12&#45;&gt;Node15</title>
<path fill="none" stroke="midnightblue" d="M546.095,-112.444C575.413,-103.185 622.279,-88.3854 654.516,-78.2054"/>
<polygon fill="midnightblue" stroke="midnightblue" points="655.946,-81.4244 664.428,-75.0755 653.838,-74.7493 655.946,-81.4244"/>
</g>
<!-- Node16 -->
<g id="node33" class="node"><title>Node16</title>
<polygon fill="white" stroke="#bfbfbf" points="734,-56.5 734,-75.5 778,-75.5 778,-56.5 734,-56.5"/>
<text text-anchor="middle" x="756" y="-63.5" font-family="Helvetica,sans-Serif" font-size="10.00">fcntl.h</text>
</g>
<!-- Node12&#45;&gt;Node16 -->
<g id="edge34" class="edge"><title>Node12&#45;&gt;Node16</title>
<path fill="none" stroke="midnightblue" d="M561.177,-112.489C600.629,-104.361 661.409,-91.4146 723.663,-75.9616"/>
<polygon fill="midnightblue" stroke="midnightblue" points="724.813,-79.2821 733.665,-73.4603 723.114,-72.4912 724.813,-79.2821"/>
</g>
<!-- Node17 -->
<g id="node36" class="node"><title>Node17</title>
<polygon fill="white" stroke="#bfbfbf" points="151.5,-56.5 151.5,-75.5 198.5,-75.5 198.5,-56.5 151.5,-56.5"/>
<text text-anchor="middle" x="175" y="-63.5" font-family="Helvetica,sans-Serif" font-size="10.00">errno.h</text>
</g>
<!-- Node12&#45;&gt;Node17 -->
<g id="edge38" class="edge"><title>Node12&#45;&gt;Node17</title>
<path fill="none" stroke="midnightblue" d="M460.246,-112.949C383.445,-102.367 254.108,-84.3219 208.576,-75.9795"/>
<polygon fill="midnightblue" stroke="midnightblue" points="209.167,-72.5289 198.68,-74.0327 207.816,-79.3972 209.167,-72.5289"/>
</g>
<!-- Node18 -->
<g id="node38" class="node"><title>Node18</title>
<polygon fill="white" stroke="#bfbfbf" points="216.5,-56.5 216.5,-75.5 265.5,-75.5 265.5,-56.5 216.5,-56.5"/>
<text text-anchor="middle" x="241" y="-63.5" font-family="Helvetica,sans-Serif" font-size="10.00">string.h</text>
</g>
<!-- Node12&#45;&gt;Node18 -->
<g id="edge40" class="edge"><title>Node12&#45;&gt;Node18</title>
<path fill="none" stroke="midnightblue" d="M466.408,-112.495C419.06,-104.569 347.368,-91.9041 275.908,-76.0628"/>
<polygon fill="midnightblue" stroke="midnightblue" points="276.352,-72.5756 265.829,-73.8066 274.823,-79.4065 276.352,-72.5756"/>
</g>
<!-- Node19 -->
<g id="node41" class="node"><title>Node19</title>
<polygon fill="white" stroke="#bfbfbf" points="284,-56.5 284,-75.5 352,-75.5 352,-56.5 284,-56.5"/>
<text text-anchor="middle" x="318" y="-63.5" font-family="Helvetica,sans-Serif" font-size="10.00">sys/types.h</text>
</g>
<!-- Node12&#45;&gt;Node19 -->
<g id="edge44" class="edge"><title>Node12&#45;&gt;Node19</title>
<path fill="none" stroke="midnightblue" d="M487.151,-112.444C452.602,-103.162 397.318,-88.3093 359.417,-78.127"/>
<polygon fill="midnightblue" stroke="midnightblue" points="360.266,-74.7309 349.7,-75.5164 358.449,-81.4912 360.266,-74.7309"/>
</g>
<!-- Node20 -->
<g id="node43" class="node"><title>Node20</title>
<polygon fill="white" stroke="#bfbfbf" points="370.5,-56.5 370.5,-75.5 443.5,-75.5 443.5,-56.5 370.5,-56.5"/>
<text text-anchor="middle" x="407" y="-63.5" font-family="Helvetica,sans-Serif" font-size="10.00">sys/socket.h</text>
</g>
<!-- Node12&#45;&gt;Node20 -->
<g id="edge46" class="edge"><title>Node12&#45;&gt;Node20</title>
<path fill="none" stroke="midnightblue" d="M501.005,-112.324C482.962,-103.625 454.953,-90.1202 434.197,-80.113"/>
<polygon fill="midnightblue" stroke="midnightblue" points="435.478,-76.8449 424.95,-75.6545 432.438,-83.1502 435.478,-76.8449"/>
</g>
<!-- Node21 -->
<g id="node45" class="node"><title>Node21</title>
<polygon fill="white" stroke="#bfbfbf" points="462,-56.5 462,-75.5 516,-75.5 516,-56.5 462,-56.5"/>
<text text-anchor="middle" x="489" y="-63.5" font-family="Helvetica,sans-Serif" font-size="10.00">sys/un.h</text>
</g>
<!-- Node12&#45;&gt;Node21 -->
<g id="edge48" class="edge"><title>Node12&#45;&gt;Node21</title>
<path fill="none" stroke="midnightblue" d="M514.046,-112.083C509.896,-104.613 503.847,-93.7244 498.733,-84.5199"/>
<polygon fill="midnightblue" stroke="midnightblue" points="501.778,-82.7929 493.862,-75.7511 495.659,-86.1924 501.778,-82.7929"/>
</g>
<!-- Node12&#45;&gt;Node22 -->
<g id="edge52" class="edge"><title>Node12&#45;&gt;Node22</title>
<path fill="none" stroke="midnightblue" d="M574.901,-112.484C629.033,-104.025 713.353,-90.2837 786,-76 786.105,-75.9794 786.21,-75.9587 786.315,-75.938"/>
<polygon fill="midnightblue" stroke="midnightblue" points="787.248,-79.319 796.331,-73.864 785.829,-72.4644 787.248,-79.319"/>
</g>
<!-- Node23 -->
<g id="node50" class="node"><title>Node23</title>
<polygon fill="white" stroke="#bfbfbf" points="895.5,-0.5 895.5,-19.5 938.5,-19.5 938.5,-0.5 895.5,-0.5"/>
<text text-anchor="middle" x="917" y="-7.5" font-family="Helvetica,sans-Serif" font-size="10.00">cstdio</text>
</g>
<!-- Node22&#45;&gt;Node23 -->
<g id="edge54" class="edge"><title>Node22&#45;&gt;Node23</title>
<path fill="none" stroke="midnightblue" d="M840.621,-56.324C854.949,-47.8215 877.013,-34.7288 893.749,-24.7975"/>
<polygon fill="midnightblue" stroke="midnightblue" points="895.602,-27.7677 902.416,-19.6545 892.03,-21.7478 895.602,-27.7677"/>
</g>
<!-- Node24 -->
<g id="node52" class="node"><title>Node24</title>
<polygon fill="white" stroke="#bfbfbf" points="712.5,-0.5 712.5,-19.5 757.5,-19.5 757.5,-0.5 712.5,-0.5"/>
<text text-anchor="middle" x="735" y="-7.5" font-family="Helvetica,sans-Serif" font-size="10.00">climits</text>
</g>
<!-- Node22&#45;&gt;Node24 -->
<g id="edge56" class="edge"><title>Node22&#45;&gt;Node24</title>
<path fill="none" stroke="midnightblue" d="M811.379,-56.324C797.051,-47.8215 774.987,-34.7288 758.251,-24.7975"/>
<polygon fill="midnightblue" stroke="midnightblue" points="759.97,-21.7478 749.584,-19.6545 756.398,-27.7677 759.97,-21.7478"/>
</g>
<!-- Node25 -->
<g id="node54" class="node"><title>Node25</title>
<polygon fill="white" stroke="#bfbfbf" points="775.5,-0.5 775.5,-19.5 816.5,-19.5 816.5,-0.5 775.5,-0.5"/>
<text text-anchor="middle" x="796" y="-7.5" font-family="Helvetica,sans-Serif" font-size="10.00">string</text>
</g>
<!-- Node22&#45;&gt;Node25 -->
<g id="edge58" class="edge"><title>Node22&#45;&gt;Node25</title>
<path fill="none" stroke="midnightblue" d="M821.046,-56.083C816.896,-48.6127 810.847,-37.7244 805.733,-28.5199"/>
<polygon fill="midnightblue" stroke="midnightblue" points="808.778,-26.7929 800.862,-19.7511 802.659,-30.1924 808.778,-26.7929"/>
</g>
<!-- Node26 -->
<g id="node56" class="node"><title>Node26</title>
<polygon fill="white" stroke="#bfbfbf" points="834.5,-0.5 834.5,-19.5 877.5,-19.5 877.5,-0.5 834.5,-0.5"/>
<text text-anchor="middle" x="856" y="-7.5" font-family="Helvetica,sans-Serif" font-size="10.00">queue</text>
</g>
<!-- Node22&#45;&gt;Node26 -->
<g id="edge60" class="edge"><title>Node22&#45;&gt;Node26</title>
<path fill="none" stroke="midnightblue" d="M830.954,-56.083C835.104,-48.6127 841.153,-37.7244 846.267,-28.5199"/>
<polygon fill="midnightblue" stroke="midnightblue" points="849.341,-30.1924 851.138,-19.7511 843.222,-26.7929 849.341,-30.1924"/>
</g>
</g>
</svg>
        <g id="navigator" transform="translate(0 0)" fill="#404254">
                <rect fill="#f2f5e9" fill-opacity="0.5" stroke="#606060" stroke-width=".5" x="0" y="0" width="60" height="60"/>
                <use id="zoomplus" xlink:href="#zoomPlus" x="17" y="9" onmousedown="handleZoom(evt,'in')"/>
                <use id="zoomminus" xlink:href="#zoomMin" x="42" y="9" onmousedown="handleZoom(evt,'out')"/>
                <use id="reset" xlink:href="#resetDef" x="30" y="36" onmousedown="handleReset()"/>
                <g id="arrowUp" xlink:href="#dirArrow" transform="translate(30 24)" onmousedown="handlePan(0,-1)">
                  <use xlink:href="#rim" fill="#404040">
                        <set attributeName="fill" to="#808080" begin="arrowUp.mouseover" end="arrowUp.mouseout"/>
                  </use>
                  <path fill="none" stroke="white" stroke-width="1.5" d="M0,-3.0v7 M-2.5,-0.5L0,-3.0L2.5,-0.5"/>
                </g>
                <g id="arrowRight" xlink:href="#dirArrow" transform="rotate(90) translate(36 -43)" onmousedown="handlePan(1,0)">
                  <use xlink:href="#rim" fill="#404040">
                        <set attributeName="fill" to="#808080" begin="arrowRight.mouseover" end="arrowRight.mouseout"/>
                  </use>
                  <path fill="none" stroke="white" stroke-width="1.5" d="M0,-3.0v7 M-2.5,-0.5L0,-3.0L2.5,-0.5"/>
                </g>
                <g id="arrowDown" xlink:href="#dirArrow" transform="rotate(180) translate(-30 -48)" onmousedown="handlePan(0,1)">
                  <use xlink:href="#rim" fill="#404040">
                        <set attributeName="fill" to="#808080" begin="arrowDown.mouseover" end="arrowDown.mouseout"/>
                  </use>
                  <path fill="none" stroke="white" stroke-width="1.5" d="M0,-3.0v7 M-2.5,-0.5L0,-3.0L2.5,-0.5"/>
                </g>
                <g id="arrowLeft" xlink:href="#dirArrow" transform="rotate(270) translate(-36 17)" onmousedown="handlePan(-1,0)">
                  <use xlink:href="#rim" fill="#404040">
                        <set attributeName="fill" to="#808080" begin="arrowLeft.mouseover" end="arrowLeft.mouseout"/>
                  </use>
                  <path fill="none" stroke="white" stroke-width="1.5" d="M0,-3.0v7 M-2.5,-0.5L0,-3.0L2.5,-0.5"/>
                </g>
        </g>
</svg>
