<?xml version="1.0" encoding="UTF-8" standalone="no"?>
<!DOCTYPE svg PUBLIC "-//W3C//DTD SVG 1.1//EN"
 "http://www.w3.org/Graphics/SVG/1.1/DTD/svg11.dtd">
<!-- Generated by graphviz version 2.28.0 (20111025.1818)
 -->
<!-- Title: G Pages: 1 -->
<!--zoomable 232 -->
<svg id="main" version="1.1" xmlns="http://www.w3.org/2000/svg" xmlns:xlink="http://www.w3.org/1999/xlink" xml:space="preserve" onload="init(evt)">
        <defs>
                <circle id="rim" cx="0" cy="0" r="7"/>
                <circle id="rim2" cx="0" cy="0" r="3.5"/>
                <g id="zoomPlus">
                        <use xlink:href="#rim" fill="#404040">
                                <set attributeName="fill" to="#808080" begin="zoomplus.mouseover" end="zoomplus.mouseout"/>
                        </use>
                        <path d="M-4,0h8M0,-4v8" fill="none" stroke="white" stroke-width="1.5" pointer-events="none"/>
                </g>
                <g id="zoomMin">
                        <use xlink:href="#rim" fill="#404040">
                                <set attributeName="fill" to="#808080" begin="zoomminus.mouseover" end="zoomminus.mouseout"/>
                        </use>
                        <path d="M-4,0h8" fill="none" stroke="white" stroke-width="1.5" pointer-events="none"/>
                </g>
                <g id="dirArrow">
                        <path fill="none" stroke="white" stroke-width="1.5" d="M0,-3.0v7 M-2.5,-0.5L0,-3.0L2.5,-0.5"/>
                </g>
               <g id="resetDef">
                       <use xlink:href="#rim2" fill="#404040">
                               <set attributeName="fill" to="#808080" begin="reset.mouseover" end="reset.mouseout"/>
                       </use>
               </g>
        </defs>

<script type="text/javascript">
var viewWidth = 882;
var viewHeight = 232;
var sectionId = 'dynsection-1';
</script>
<script xlink:href="../../svgpan.js"/>
<svg id="graph" class="graph">
<g id="viewport">
<title>G</title>
<polygon fill="white" stroke="white" points="-4,5 -4,-228 879,-228 879,5 -4,5"/>
<!-- Node1 -->
<g id="node1" class="node"><title>Node1</title>
<polygon fill="#bfbfbf" stroke="black" points="822,-99.5 822,-118.5 874,-118.5 874,-99.5 822,-99.5"/>
<text text-anchor="middle" x="848" y="-106.5" font-family="Helvetica,sans-Serif" font-size="10.00">cLottery</text>
</g>
<!-- Node2 -->
<g id="node2" class="node"><title>Node2</title>
<a xlink:href="../../d0/d21/classcScheduler.xhtml" target="_top" xlink:title="Abstract Interface for Schedulers.">
<polygon fill="white" stroke="black" points="611.5,-204.5 611.5,-223.5 676.5,-223.5 676.5,-204.5 611.5,-204.5"/>
<text text-anchor="middle" x="644" y="-211.5" font-family="Helvetica,sans-Serif" font-size="10.00">cScheduler</text>
</a>
</g>
<!-- Node2&#45;&gt;Node1 -->
<g id="edge2" class="edge"><title>Node2&#45;&gt;Node1</title>
<path fill="none" stroke="midnightblue" d="M686.943,-217.165C721.401,-217.632 769.915,-213.168 804,-189 828.439,-171.671 840.288,-135.997 844.773,-118.755"/>
<polygon fill="midnightblue" stroke="midnightblue" points="686.826,-213.661 676.732,-216.878 686.63,-220.658 686.826,-213.661"/>
</g>
<!-- Node3 -->
<g id="node4" class="node"><title>Node3</title>
<a xlink:href="../../dd/dc8/structProcessInfo.xhtml" target="_top" xlink:title="Structure for containing process state and data.">
<polygon fill="white" stroke="black" points="396.5,-147.5 396.5,-166.5 465.5,-166.5 465.5,-147.5 396.5,-147.5"/>
<text text-anchor="middle" x="431" y="-154.5" font-family="Helvetica,sans-Serif" font-size="10.00">ProcessInfo</text>
</a>
</g>
<!-- Node3&#45;&gt;Node1 -->
<g id="edge4" class="edge"><title>Node3&#45;&gt;Node1</title>
<path fill="none" stroke="#9a32cd" stroke-dasharray="5,2" d="M476.061,-159.902C484.659,-160.36 493.609,-160.76 502,-161 525.99,-161.685 532.011,-161.725 556,-161 666.373,-157.665 701.679,-187.519 804,-146 818.419,-140.149 831.419,-127.426 839.259,-118.543"/>
<polygon fill="#9a32cd" stroke="#9a32cd" points="475.989,-156.392 465.807,-159.322 475.594,-163.381 475.989,-156.392"/>
<text text-anchor="middle" x="644" y="-171" font-family="Helvetica,sans-Serif" font-size="10.00"> runningProc</text>
</g>
<!-- Node7 -->
<g id="node12" class="node"><title>Node7</title>
<polygon fill="white" stroke="#bfbfbf" points="574,-119.5 574,-138.5 714,-138.5 714,-119.5 574,-119.5"/>
<text text-anchor="middle" x="644" y="-126.5" font-family="Helvetica,sans-Serif" font-size="10.00">std::vector&lt; ProcessInfo * &gt;</text>
</g>
<!-- Node3&#45;&gt;Node7 -->
<g id="edge14" class="edge"><title>Node3&#45;&gt;Node7</title>
<path fill="none" stroke="#9a32cd" stroke-dasharray="5,2" d="M475.883,-151.177C504.166,-147.423 541.546,-142.463 573.781,-138.186"/>
<polygon fill="#9a32cd" stroke="#9a32cd" points="475.353,-147.716 465.901,-152.501 476.274,-154.655 475.353,-147.716"/>
<text text-anchor="middle" x="529" y="-150" font-family="Helvetica,sans-Serif" font-size="10.00"> elements</text>
</g>
<!-- Node4 -->
<g id="node6" class="node"><title>Node4</title>
<polygon fill="white" stroke="#bfbfbf" points="586.5,-81.5 586.5,-100.5 701.5,-100.5 701.5,-81.5 586.5,-81.5"/>
<text text-anchor="middle" x="644" y="-88.5" font-family="Helvetica,sans-Serif" font-size="10.00">std::queue&lt; pidType &gt;</text>
</g>
<!-- Node4&#45;&gt;Node1 -->
<g id="edge6" class="edge"><title>Node4&#45;&gt;Node1</title>
<path fill="none" stroke="#9a32cd" stroke-dasharray="5,2" d="M711.995,-87.589C740.55,-87.3382 774.108,-88.6454 804,-94 810.537,-95.1711 817.414,-97.1886 823.704,-99.371"/>
<polygon fill="#9a32cd" stroke="#9a32cd" points="711.662,-84.0936 701.717,-87.7473 711.77,-91.0928 711.662,-84.0936"/>
<text text-anchor="middle" x="768" y="-97" font-family="Helvetica,sans-Serif" font-size="10.00"> traceUnblocked</text>
</g>
<!-- Node5 -->
<g id="node8" class="node"><title>Node5</title>
<a xlink:href="../../de/dd4/classcIDManager.xhtml" target="_top" xlink:title="A class for managing unique IDs.">
<polygon fill="white" stroke="black" points="396,-0.5 396,-19.5 466,-19.5 466,-0.5 396,-0.5"/>
<text text-anchor="middle" x="431" y="-7.5" font-family="Helvetica,sans-Serif" font-size="10.00">cIDManager</text>
</a>
</g>
<!-- Node5&#45;&gt;Node1 -->
<g id="edge8" class="edge"><title>Node5&#45;&gt;Node1</title>
<path fill="none" stroke="#9a32cd" stroke-dasharray="5,2" d="M476.599,-5.00579C532.668,0.0653915 631.562,4.99469 714,-12 756.525,-20.7666 769.974,-23.0286 804,-50 821.482,-63.8572 835.25,-86.5475 842.148,-99.3756"/>
<polygon fill="#9a32cd" stroke="#9a32cd" points="475.933,-1.55322 466.308,-5.98222 476.594,-8.52192 475.933,-1.55322"/>
<text text-anchor="middle" x="644" y="-26" font-family="Helvetica,sans-Serif" font-size="10.00"> readyID</text>
<text text-anchor="middle" x="644" y="-15" font-family="Helvetica,sans-Serif" font-size="10.00">blockedID</text>
</g>
<!-- Node8 -->
<g id="node15" class="node"><title>Node8</title>
<a xlink:href="../../db/d63/classcProcessLogger.xhtml" target="_top" xlink:title="Class specifically for logging process state information.">
<polygon fill="white" stroke="black" points="600.5,-43.5 600.5,-62.5 687.5,-62.5 687.5,-43.5 600.5,-43.5"/>
<text text-anchor="middle" x="644" y="-50.5" font-family="Helvetica,sans-Serif" font-size="10.00">cProcessLogger</text>
</a>
</g>
<!-- Node5&#45;&gt;Node8 -->
<g id="edge26" class="edge"><title>Node5&#45;&gt;Node8</title>
<path fill="none" stroke="#9a32cd" stroke-dasharray="5,2" d="M476.241,-19.0159C512.732,-26.4525 564.185,-36.9382 600.258,-44.2896"/>
<polygon fill="#9a32cd" stroke="#9a32cd" points="476.868,-15.5718 466.37,-17.0044 475.47,-22.4309 476.868,-15.5718"/>
<text text-anchor="middle" x="529" y="-38" font-family="Helvetica,sans-Serif" font-size="10.00"> lineIDs</text>
</g>
<!-- Node6 -->
<g id="node10" class="node"><title>Node6</title>
<polygon fill="white" stroke="#bfbfbf" points="164.5,-0.5 164.5,-19.5 297.5,-19.5 297.5,-0.5 164.5,-0.5"/>
<text text-anchor="middle" x="231" y="-7.5" font-family="Helvetica,sans-Serif" font-size="10.00">std::queue&lt; unsigned int &gt;</text>
</g>
<!-- Node6&#45;&gt;Node5 -->
<g id="edge10" class="edge"><title>Node6&#45;&gt;Node5</title>
<path fill="none" stroke="#9a32cd" stroke-dasharray="5,2" d="M307.825,-10C338.213,-10 371.687,-10 395.901,-10"/>
<polygon fill="#9a32cd" stroke="#9a32cd" points="307.656,-6.5001 297.656,-10 307.656,-13.5001 307.656,-6.5001"/>
<text text-anchor="middle" x="338" y="-13" font-family="Helvetica,sans-Serif" font-size="10.00"> freeID</text>
</g>
<!-- Node7&#45;&gt;Node1 -->
<g id="edge12" class="edge"><title>Node7&#45;&gt;Node1</title>
<path fill="none" stroke="#9a32cd" stroke-dasharray="5,2" d="M724.408,-121.138C759.173,-117.696 797.518,-113.899 821.907,-111.484"/>
<polygon fill="#9a32cd" stroke="#9a32cd" points="723.841,-117.677 714.234,-122.145 724.531,-124.643 723.841,-117.677"/>
<text text-anchor="middle" x="768" y="-134" font-family="Helvetica,sans-Serif" font-size="10.00"> blockedVector</text>
<text text-anchor="middle" x="768" y="-123" font-family="Helvetica,sans-Serif" font-size="10.00">readyVector</text>
</g>
<!-- Node8&#45;&gt;Node1 -->
<g id="edge16" class="edge"><title>Node8&#45;&gt;Node1</title>
<path fill="none" stroke="#9a32cd" stroke-dasharray="5,2" d="M697.652,-51.663C729.633,-52.6733 770.595,-57.2925 804,-72 818.061,-78.1908 830.953,-90.576 838.879,-99.3074"/>
<polygon fill="#9a32cd" stroke="#9a32cd" points="697.676,-48.1629 687.606,-51.4536 697.53,-55.1613 697.676,-48.1629"/>
<text text-anchor="middle" x="768" y="-75" font-family="Helvetica,sans-Serif" font-size="10.00"> procLogger</text>
</g>
<!-- Node9 -->
<g id="node17" class="node"><title>Node9</title>
<polygon fill="white" stroke="#bfbfbf" points="378.5,-42.5 378.5,-61.5 483.5,-61.5 483.5,-42.5 378.5,-42.5"/>
<text text-anchor="middle" x="431" y="-49.5" font-family="Helvetica,sans-Serif" font-size="10.00">std::vector&lt; string &gt;</text>
</g>
<!-- Node9&#45;&gt;Node8 -->
<g id="edge18" class="edge"><title>Node9&#45;&gt;Node8</title>
<path fill="none" stroke="#9a32cd" stroke-dasharray="5,2" d="M493.984,-52.2938C528.222,-52.456 569.875,-52.6534 600.43,-52.7982"/>
<polygon fill="#9a32cd" stroke="#9a32cd" points="493.633,-48.7922 483.616,-52.2446 493.6,-55.7921 493.633,-48.7922"/>
<text text-anchor="middle" x="529" y="-55" font-family="Helvetica,sans-Serif" font-size="10.00"> procNames</text>
</g>
<!-- Node10 -->
<g id="node19" class="node"><title>Node10</title>
<a xlink:title="STL class.">
<polygon fill="white" stroke="#bfbfbf" points="201,-61.5 201,-80.5 261,-80.5 261,-61.5 201,-61.5"/>
<text text-anchor="middle" x="231" y="-68.5" font-family="Helvetica,sans-Serif" font-size="10.00">std::string</text>
</a>
</g>
<!-- Node10&#45;&gt;Node8 -->
<g id="edge24" class="edge"><title>Node10&#45;&gt;Node8</title>
<path fill="none" stroke="#9a32cd" stroke-dasharray="5,2" d="M271.45,-74.4005C285.5,-75.4573 301.446,-76.4809 316,-77 422.691,-80.8056 449.857,-78.4572 556,-67 570.45,-65.4403 586.156,-63.1102 600.196,-60.7963"/>
<polygon fill="#9a32cd" stroke="#9a32cd" points="271.371,-70.8838 261.129,-73.5937 270.825,-77.8625 271.371,-70.8838"/>
<text text-anchor="middle" x="431" y="-81" font-family="Helvetica,sans-Serif" font-size="10.00"> nameFile</text>
</g>
<!-- Node10&#45;&gt;Node9 -->
<g id="edge20" class="edge"><title>Node10&#45;&gt;Node9</title>
<path fill="none" stroke="#9a32cd" stroke-dasharray="5,2" d="M271.525,-67.2072C302.199,-64.2637 344.977,-60.1588 378.358,-56.9556"/>
<polygon fill="#9a32cd" stroke="#9a32cd" points="270.836,-63.7572 261.216,-68.1965 271.504,-70.7252 270.836,-63.7572"/>
<text text-anchor="middle" x="338" y="-65" font-family="Helvetica,sans-Serif" font-size="10.00"> elements</text>
</g>
<!-- Node11 -->
<g id="node21" class="node"><title>Node11</title>
<a xlink:title="STL class.">
<polygon fill="white" stroke="#bfbfbf" points="0.5,-61.5 0.5,-80.5 125.5,-80.5 125.5,-61.5 0.5,-61.5"/>
<text text-anchor="middle" x="63" y="-68.5" font-family="Helvetica,sans-Serif" font-size="10.00">std::basic_string&lt; char &gt;</text>
</a>
</g>
<!-- Node11&#45;&gt;Node10 -->
<g id="edge22" class="edge"><title>Node11&#45;&gt;Node10</title>
<path fill="none" stroke="midnightblue" d="M135.843,-71C158.66,-71 182.622,-71 200.663,-71"/>
<polygon fill="midnightblue" stroke="midnightblue" points="135.812,-67.5001 125.812,-71 135.812,-74.5001 135.812,-67.5001"/>
</g>
</g>
</svg>
        <g id="navigator" transform="translate(0 0)" fill="#404254">
                <rect fill="#f2f5e9" fill-opacity="0.5" stroke="#606060" stroke-width=".5" x="0" y="0" width="60" height="60"/>
                <use id="zoomplus" xlink:href="#zoomPlus" x="17" y="9" onmousedown="handleZoom(evt,'in')"/>
                <use id="zoomminus" xlink:href="#zoomMin" x="42" y="9" onmousedown="handleZoom(evt,'out')"/>
                <use id="reset" xlink:href="#resetDef" x="30" y="36" onmousedown="handleReset()"/>
                <g id="arrowUp" xlink:href="#dirArrow" transform="translate(30 24)" onmousedown="handlePan(0,-1)">
                  <use xlink:href="#rim" fill="#404040">
                        <set attributeName="fill" to="#808080" begin="arrowUp.mouseover" end="arrowUp.mouseout"/>
                  </use>
                  <path fill="none" stroke="white" stroke-width="1.5" d="M0,-3.0v7 M-2.5,-0.5L0,-3.0L2.5,-0.5"/>
                </g>
                <g id="arrowRight" xlink:href="#dirArrow" transform="rotate(90) translate(36 -43)" onmousedown="handlePan(1,0)">
                  <use xlink:href="#rim" fill="#404040">
                        <set attributeName="fill" to="#808080" begin="arrowRight.mouseover" end="arrowRight.mouseout"/>
                  </use>
                  <path fill="none" stroke="white" stroke-width="1.5" d="M0,-3.0v7 M-2.5,-0.5L0,-3.0L2.5,-0.5"/>
                </g>
                <g id="arrowDown" xlink:href="#dirArrow" transform="rotate(180) translate(-30 -48)" onmousedown="handlePan(0,1)">
                  <use xlink:href="#rim" fill="#404040">
                        <set attributeName="fill" to="#808080" begin="arrowDown.mouseover" end="arrowDown.mouseout"/>
                  </use>
                  <path fill="none" stroke="white" stroke-width="1.5" d="M0,-3.0v7 M-2.5,-0.5L0,-3.0L2.5,-0.5"/>
                </g>
                <g id="arrowLeft" xlink:href="#dirArrow" transform="rotate(270) translate(-36 17)" onmousedown="handlePan(-1,0)">
                  <use xlink:href="#rim" fill="#404040">
                        <set attributeName="fill" to="#808080" begin="arrowLeft.mouseover" end="arrowLeft.mouseout"/>
                  </use>
                  <path fill="none" stroke="white" stroke-width="1.5" d="M0,-3.0v7 M-2.5,-0.5L0,-3.0L2.5,-0.5"/>
                </g>
        </g>
</svg>
