<?xml version="1.0" encoding="UTF-8" standalone="no"?>
<!DOCTYPE svg PUBLIC "-//W3C//DTD SVG 1.1//EN"
 "http://www.w3.org/Graphics/SVG/1.1/DTD/svg11.dtd">
<!-- Generated by graphviz version 2.28.0 (20111025.1818)
 -->
<!-- Title: G Pages: 1 -->
<!--zoomable 189 -->
<svg id="main" version="1.1" xmlns="http://www.w3.org/2000/svg" xmlns:xlink="http://www.w3.org/1999/xlink" xml:space="preserve" onload="init(evt)">
        <defs>
                <circle id="rim" cx="0" cy="0" r="7"/>
                <circle id="rim2" cx="0" cy="0" r="3.5"/>
                <g id="zoomPlus">
                        <use xlink:href="#rim" fill="#404040">
                                <set attributeName="fill" to="#808080" begin="zoomplus.mouseover" end="zoomplus.mouseout"/>
                        </use>
                        <path d="M-4,0h8M0,-4v8" fill="none" stroke="white" stroke-width="1.5" pointer-events="none"/>
                </g>
                <g id="zoomMin">
                        <use xlink:href="#rim" fill="#404040">
                                <set attributeName="fill" to="#808080" begin="zoomminus.mouseover" end="zoomminus.mouseout"/>
                        </use>
                        <path d="M-4,0h8" fill="none" stroke="white" stroke-width="1.5" pointer-events="none"/>
                </g>
                <g id="dirArrow">
                        <path fill="none" stroke="white" stroke-width="1.5" d="M0,-3.0v7 M-2.5,-0.5L0,-3.0L2.5,-0.5"/>
                </g>
               <g id="resetDef">
                       <use xlink:href="#rim2" fill="#404040">
                               <set attributeName="fill" to="#808080" begin="reset.mouseover" end="reset.mouseout"/>
                       </use>
               </g>
        </defs>

<script type="text/javascript">
var viewWidth = 512;
var viewHeight = 189;
var sectionId = 'dynsection-1';
</script>
<script xlink:href="../../svgpan.js"/>
<svg id="graph" class="graph">
<g id="viewport">
<title>G</title>
<polygon fill="white" stroke="white" points="-4,5 -4,-185 509,-185 509,5 -4,5"/>
<!-- Node1 -->
<g id="node1" class="node"><title>Node1</title>
<polygon fill="#bfbfbf" stroke="black" points="456,-76.5 456,-95.5 504,-95.5 504,-76.5 456,-76.5"/>
<text text-anchor="middle" x="480" y="-83.5" font-family="Helvetica,sans-Serif" font-size="10.00">cFCFS</text>
</g>
<!-- Node2 -->
<g id="node2" class="node"><title>Node2</title>
<a xlink:href="../../d0/d21/classcScheduler.xhtml" target="_top" xlink:title="cScheduler">
<polygon fill="white" stroke="black" points="251.5,-161.5 251.5,-180.5 316.5,-180.5 316.5,-161.5 251.5,-161.5"/>
<text text-anchor="middle" x="284" y="-168.5" font-family="Helvetica,sans-Serif" font-size="10.00">cScheduler</text>
</a>
</g>
<!-- Node2&#45;&gt;Node1 -->
<g id="edge2" class="edge"><title>Node2&#45;&gt;Node1</title>
<path fill="none" stroke="midnightblue" d="M326.684,-172.81C359.354,-172.304 404.703,-167.186 438,-146 457.16,-133.809 469.646,-109.099 475.371,-95.5012"/>
<polygon fill="midnightblue" stroke="midnightblue" points="326.547,-169.31 316.553,-172.827 326.559,-176.31 326.547,-169.31"/>
</g>
<!-- Node3 -->
<g id="node4" class="node"><title>Node3</title>
<a xlink:href="../../dd/dc8/structProcessInfo.xhtml" target="_top" xlink:title="Structure for containing process state and data.">
<polygon fill="white" stroke="black" points="32.5,-76.5 32.5,-95.5 101.5,-95.5 101.5,-76.5 32.5,-76.5"/>
<text text-anchor="middle" x="67" y="-83.5" font-family="Helvetica,sans-Serif" font-size="10.00">ProcessInfo</text>
</a>
</g>
<!-- Node3&#45;&gt;Node1 -->
<g id="edge4" class="edge"><title>Node3&#45;&gt;Node1</title>
<path fill="none" stroke="#9a32cd" stroke-dasharray="5,2" d="M111.82,-94.7843C124.718,-97.1096 138.887,-99.4113 152,-101 278.188,-116.288 313.401,-126.148 438,-101 444.241,-99.7404 450.801,-97.6924 456.798,-95.509"/>
<polygon fill="#9a32cd" stroke="#9a32cd" points="112.263,-91.3069 101.793,-92.9276 110.988,-98.1899 112.263,-91.3069"/>
<text text-anchor="middle" x="284" y="-119" font-family="Helvetica,sans-Serif" font-size="10.00"> runningProc</text>
</g>
<!-- Node4 -->
<g id="node6" class="node"><title>Node4</title>
<polygon fill="white" stroke="#bfbfbf" points="214,-76.5 214,-95.5 354,-95.5 354,-76.5 214,-76.5"/>
<text text-anchor="middle" x="284" y="-83.5" font-family="Helvetica,sans-Serif" font-size="10.00">std::queue&lt; ProcessInfo * &gt;</text>
</g>
<!-- Node3&#45;&gt;Node4 -->
<g id="edge8" class="edge"><title>Node3&#45;&gt;Node4</title>
<path fill="none" stroke="#9a32cd" stroke-dasharray="5,2" d="M111.899,-86C141.155,-86 180.223,-86 213.641,-86"/>
<polygon fill="#9a32cd" stroke="#9a32cd" points="111.594,-82.5001 101.594,-86 111.594,-89.5001 111.594,-82.5001"/>
<text text-anchor="middle" x="174" y="-89" font-family="Helvetica,sans-Serif" font-size="10.00"> elements</text>
</g>
<!-- Node7 -->
<g id="node13" class="node"><title>Node7</title>
<polygon fill="white" stroke="#bfbfbf" points="214,-38.5 214,-57.5 354,-57.5 354,-38.5 214,-38.5"/>
<text text-anchor="middle" x="284" y="-45.5" font-family="Helvetica,sans-Serif" font-size="10.00">std::vector&lt; ProcessInfo * &gt;</text>
</g>
<!-- Node3&#45;&gt;Node7 -->
<g id="edge16" class="edge"><title>Node3&#45;&gt;Node7</title>
<path fill="none" stroke="#9a32cd" stroke-dasharray="5,2" d="M111.614,-78.187C124.607,-75.8661 138.878,-73.3235 152,-71 177.125,-66.5511 204.967,-61.6577 228.499,-57.5323"/>
<polygon fill="#9a32cd" stroke="#9a32cd" points="110.742,-74.7873 101.514,-79.9924 111.974,-81.6781 110.742,-74.7873"/>
<text text-anchor="middle" x="174" y="-74" font-family="Helvetica,sans-Serif" font-size="10.00"> elements</text>
</g>
<!-- Node4&#45;&gt;Node1 -->
<g id="edge6" class="edge"><title>Node4&#45;&gt;Node1</title>
<path fill="none" stroke="#9a32cd" stroke-dasharray="5,2" d="M364.319,-86C397.218,-86 432.926,-86 455.606,-86"/>
<polygon fill="#9a32cd" stroke="#9a32cd" points="364.217,-82.5001 354.217,-86 364.217,-89.5001 364.217,-82.5001"/>
<text text-anchor="middle" x="405" y="-89" font-family="Helvetica,sans-Serif" font-size="10.00"> readyQueue</text>
</g>
<!-- Node5 -->
<g id="node9" class="node"><title>Node5</title>
<a xlink:href="../../de/dd4/classcIDManager.xhtml" target="_top" xlink:title="cIDManager">
<polygon fill="white" stroke="black" points="249,-0.5 249,-19.5 319,-19.5 319,-0.5 249,-0.5"/>
<text text-anchor="middle" x="284" y="-7.5" font-family="Helvetica,sans-Serif" font-size="10.00">cIDManager</text>
</a>
</g>
<!-- Node5&#45;&gt;Node1 -->
<g id="edge10" class="edge"><title>Node5&#45;&gt;Node1</title>
<path fill="none" stroke="#9a32cd" stroke-dasharray="5,2" d="M329.614,-12.651C361.524,-16.1537 404.564,-24.2612 438,-43 452.577,-51.1694 465.124,-66.2188 472.372,-76.1693"/>
<polygon fill="#9a32cd" stroke="#9a32cd" points="329.544,-9.12724 319.25,-11.6309 328.859,-16.0936 329.544,-9.12724"/>
<text text-anchor="middle" x="405" y="-46" font-family="Helvetica,sans-Serif" font-size="10.00"> blockedID</text>
</g>
<!-- Node6 -->
<g id="node11" class="node"><title>Node6</title>
<polygon fill="white" stroke="#bfbfbf" points="0.5,-0.5 0.5,-19.5 133.5,-19.5 133.5,-0.5 0.5,-0.5"/>
<text text-anchor="middle" x="67" y="-7.5" font-family="Helvetica,sans-Serif" font-size="10.00">std::queue&lt; unsigned int &gt;</text>
</g>
<!-- Node6&#45;&gt;Node5 -->
<g id="edge12" class="edge"><title>Node6&#45;&gt;Node5</title>
<path fill="none" stroke="#9a32cd" stroke-dasharray="5,2" d="M144.11,-10C179.908,-10 220.795,-10 248.888,-10"/>
<polygon fill="#9a32cd" stroke="#9a32cd" points="143.675,-6.5001 133.675,-10 143.675,-13.5001 143.675,-6.5001"/>
<text text-anchor="middle" x="174" y="-13" font-family="Helvetica,sans-Serif" font-size="10.00"> freeID</text>
</g>
<!-- Node7&#45;&gt;Node1 -->
<g id="edge14" class="edge"><title>Node7&#45;&gt;Node1</title>
<path fill="none" stroke="#9a32cd" stroke-dasharray="5,2" d="M364.23,-56.8117C388.137,-60.2992 414.316,-64.9533 438,-71 443.875,-72.5 450.082,-74.5273 455.84,-76.6059"/>
<polygon fill="#9a32cd" stroke="#9a32cd" points="364.528,-53.3191 354.137,-55.3878 363.55,-60.2505 364.528,-53.3191"/>
<text text-anchor="middle" x="405" y="-74" font-family="Helvetica,sans-Serif" font-size="10.00"> blockedVector</text>
</g>
</g>
</svg>
        <g id="navigator" transform="translate(0 0)" fill="#404254">
                <rect fill="#f2f5e9" fill-opacity="0.5" stroke="#606060" stroke-width=".5" x="0" y="0" width="60" height="60"/>
                <use id="zoomplus" xlink:href="#zoomPlus" x="17" y="9" onmousedown="handleZoom(evt,'in')"/>
                <use id="zoomminus" xlink:href="#zoomMin" x="42" y="9" onmousedown="handleZoom(evt,'out')"/>
                <use id="reset" xlink:href="#resetDef" x="30" y="36" onmousedown="handleReset()"/>
                <g id="arrowUp" xlink:href="#dirArrow" transform="translate(30 24)" onmousedown="handlePan(0,-1)">
                  <use xlink:href="#rim" fill="#404040">
                        <set attributeName="fill" to="#808080" begin="arrowUp.mouseover" end="arrowUp.mouseout"/>
                  </use>
                  <path fill="none" stroke="white" stroke-width="1.5" d="M0,-3.0v7 M-2.5,-0.5L0,-3.0L2.5,-0.5"/>
                </g>
                <g id="arrowRight" xlink:href="#dirArrow" transform="rotate(90) translate(36 -43)" onmousedown="handlePan(1,0)">
                  <use xlink:href="#rim" fill="#404040">
                        <set attributeName="fill" to="#808080" begin="arrowRight.mouseover" end="arrowRight.mouseout"/>
                  </use>
                  <path fill="none" stroke="white" stroke-width="1.5" d="M0,-3.0v7 M-2.5,-0.5L0,-3.0L2.5,-0.5"/>
                </g>
                <g id="arrowDown" xlink:href="#dirArrow" transform="rotate(180) translate(-30 -48)" onmousedown="handlePan(0,1)">
                  <use xlink:href="#rim" fill="#404040">
                        <set attributeName="fill" to="#808080" begin="arrowDown.mouseover" end="arrowDown.mouseout"/>
                  </use>
                  <path fill="none" stroke="white" stroke-width="1.5" d="M0,-3.0v7 M-2.5,-0.5L0,-3.0L2.5,-0.5"/>
                </g>
                <g id="arrowLeft" xlink:href="#dirArrow" transform="rotate(270) translate(-36 17)" onmousedown="handlePan(-1,0)">
                  <use xlink:href="#rim" fill="#404040">
                        <set attributeName="fill" to="#808080" begin="arrowLeft.mouseover" end="arrowLeft.mouseout"/>
                  </use>
                  <path fill="none" stroke="white" stroke-width="1.5" d="M0,-3.0v7 M-2.5,-0.5L0,-3.0L2.5,-0.5"/>
                </g>
        </g>
</svg>
