<?xml version="1.0" encoding="UTF-8" standalone="no"?>
<!DOCTYPE svg PUBLIC "-//W3C//DTD SVG 1.1//EN"
 "http://www.w3.org/Graphics/SVG/1.1/DTD/svg11.dtd">
<!-- Generated by graphviz version 2.28.0 (20111025.1818)
 -->
<!-- Title: G Pages: 1 -->
<!--zoomable 280 -->
<svg id="main" version="1.1" xmlns="http://www.w3.org/2000/svg" xmlns:xlink="http://www.w3.org/1999/xlink" xml:space="preserve" onload="init(evt)">
        <defs>
                <circle id="rim" cx="0" cy="0" r="7"/>
                <circle id="rim2" cx="0" cy="0" r="3.5"/>
                <g id="zoomPlus">
                        <use xlink:href="#rim" fill="#404040">
                                <set attributeName="fill" to="#808080" begin="zoomplus.mouseover" end="zoomplus.mouseout"/>
                        </use>
                        <path d="M-4,0h8M0,-4v8" fill="none" stroke="white" stroke-width="1.5" pointer-events="none"/>
                </g>
                <g id="zoomMin">
                        <use xlink:href="#rim" fill="#404040">
                                <set attributeName="fill" to="#808080" begin="zoomminus.mouseover" end="zoomminus.mouseout"/>
                        </use>
                        <path d="M-4,0h8" fill="none" stroke="white" stroke-width="1.5" pointer-events="none"/>
                </g>
                <g id="dirArrow">
                        <path fill="none" stroke="white" stroke-width="1.5" d="M0,-3.0v7 M-2.5,-0.5L0,-3.0L2.5,-0.5"/>
                </g>
               <g id="resetDef">
                       <use xlink:href="#rim2" fill="#404040">
                               <set attributeName="fill" to="#808080" begin="reset.mouseover" end="reset.mouseout"/>
                       </use>
               </g>
        </defs>

<script type="text/javascript">
var viewWidth = 878;
var viewHeight = 280;
var sectionId = 'dynsection-1';
</script>
<script xlink:href="../../svgpan.js"/>
<svg id="graph" class="graph">
<g id="viewport">
<title>G</title>
<polygon fill="white" stroke="white" points="-4,5 -4,-276 875,-276 875,5 -4,5"/>
<!-- Node1 -->
<g id="node1" class="node"><title>Node1</title>
<polygon fill="#bfbfbf" stroke="black" points="822,-129.5 822,-148.5 870,-148.5 870,-129.5 822,-129.5"/>
<text text-anchor="middle" x="846" y="-136.5" font-family="Helvetica,sans-Serif" font-size="10.00">cFCFS</text>
</g>
<!-- Node2 -->
<g id="node2" class="node"><title>Node2</title>
<a xlink:href="../../d0/d21/classcScheduler.xhtml" target="_top" xlink:title="Abstract Interface for Schedulers.">
<polygon fill="white" stroke="black" points="611.5,-252.5 611.5,-271.5 676.5,-271.5 676.5,-252.5 611.5,-252.5"/>
<text text-anchor="middle" x="644" y="-259.5" font-family="Helvetica,sans-Serif" font-size="10.00">cScheduler</text>
</a>
</g>
<!-- Node2&#45;&gt;Node1 -->
<g id="edge2" class="edge"><title>Node2&#45;&gt;Node1</title>
<path fill="none" stroke="midnightblue" d="M686.94,-265.989C721.817,-267.033 770.927,-262.948 804,-237 832.585,-214.573 841.455,-168.629 844.025,-148.643"/>
<polygon fill="midnightblue" stroke="midnightblue" points="686.755,-262.477 676.606,-265.519 686.437,-269.47 686.755,-262.477"/>
</g>
<!-- Node3 -->
<g id="node4" class="node"><title>Node3</title>
<a xlink:href="../../dd/dc8/structProcessInfo.xhtml" target="_top" xlink:title="Structure for containing process state and data.">
<polygon fill="white" stroke="black" points="396.5,-167.5 396.5,-186.5 465.5,-186.5 465.5,-167.5 396.5,-167.5"/>
<text text-anchor="middle" x="431" y="-174.5" font-family="Helvetica,sans-Serif" font-size="10.00">ProcessInfo</text>
</a>
</g>
<!-- Node3&#45;&gt;Node1 -->
<g id="edge4" class="edge"><title>Node3&#45;&gt;Node1</title>
<path fill="none" stroke="#9a32cd" stroke-dasharray="5,2" d="M475.61,-187.439C484.31,-189.212 493.412,-190.848 502,-192 595.403,-204.525 620.082,-203.773 714,-196 754.414,-192.655 768.055,-199.773 804,-181 818.632,-173.358 831.164,-158.569 838.394,-148.739"/>
<polygon fill="#9a32cd" stroke="#9a32cd" points="476.148,-183.975 465.638,-185.317 474.691,-190.822 476.148,-183.975"/>
<text text-anchor="middle" x="644" y="-204" font-family="Helvetica,sans-Serif" font-size="10.00"> runningProc</text>
</g>
<!-- Node5 -->
<g id="node8" class="node"><title>Node5</title>
<polygon fill="white" stroke="#bfbfbf" points="574,-167.5 574,-186.5 714,-186.5 714,-167.5 574,-167.5"/>
<text text-anchor="middle" x="644" y="-174.5" font-family="Helvetica,sans-Serif" font-size="10.00">std::queue&lt; ProcessInfo * &gt;</text>
</g>
<!-- Node3&#45;&gt;Node5 -->
<g id="edge10" class="edge"><title>Node3&#45;&gt;Node5</title>
<path fill="none" stroke="#9a32cd" stroke-dasharray="5,2" d="M476.256,-177C504.494,-177 541.688,-177 573.781,-177"/>
<polygon fill="#9a32cd" stroke="#9a32cd" points="475.901,-173.5 465.901,-177 475.901,-180.5 475.901,-173.5"/>
<text text-anchor="middle" x="529" y="-180" font-family="Helvetica,sans-Serif" font-size="10.00"> elements</text>
</g>
<!-- Node8 -->
<g id="node15" class="node"><title>Node8</title>
<polygon fill="white" stroke="#bfbfbf" points="574,-129.5 574,-148.5 714,-148.5 714,-129.5 574,-129.5"/>
<text text-anchor="middle" x="644" y="-136.5" font-family="Helvetica,sans-Serif" font-size="10.00">std::vector&lt; ProcessInfo * &gt;</text>
</g>
<!-- Node3&#45;&gt;Node8 -->
<g id="edge18" class="edge"><title>Node3&#45;&gt;Node8</title>
<path fill="none" stroke="#9a32cd" stroke-dasharray="5,2" d="M475.727,-167.282C484.416,-165.449 493.485,-163.606 502,-162 527.592,-157.174 555.91,-152.437 580.414,-148.529"/>
<polygon fill="#9a32cd" stroke="#9a32cd" points="474.803,-163.901 465.756,-169.414 476.267,-170.746 474.803,-163.901"/>
<text text-anchor="middle" x="529" y="-165" font-family="Helvetica,sans-Serif" font-size="10.00"> elements</text>
</g>
<!-- Node4 -->
<g id="node6" class="node"><title>Node4</title>
<polygon fill="white" stroke="#bfbfbf" points="586.5,-91.5 586.5,-110.5 701.5,-110.5 701.5,-91.5 586.5,-91.5"/>
<text text-anchor="middle" x="644" y="-98.5" font-family="Helvetica,sans-Serif" font-size="10.00">std::queue&lt; pidType &gt;</text>
</g>
<!-- Node4&#45;&gt;Node1 -->
<g id="edge6" class="edge"><title>Node4&#45;&gt;Node1</title>
<path fill="none" stroke="#9a32cd" stroke-dasharray="5,2" d="M712.138,-107.585C740.717,-111.192 774.254,-116.494 804,-124 809.879,-125.484 816.088,-127.505 821.846,-129.583"/>
<polygon fill="#9a32cd" stroke="#9a32cd" points="712.199,-104.067 701.849,-106.333 711.353,-111.016 712.199,-104.067"/>
<text text-anchor="middle" x="768" y="-127" font-family="Helvetica,sans-Serif" font-size="10.00"> traceUnblocked</text>
</g>
<!-- Node5&#45;&gt;Node1 -->
<g id="edge8" class="edge"><title>Node5&#45;&gt;Node1</title>
<path fill="none" stroke="#9a32cd" stroke-dasharray="5,2" d="M724.071,-167.914C749.756,-164.206 778.262,-159.283 804,-153 809.846,-151.573 816.042,-149.671 821.798,-147.729"/>
<polygon fill="#9a32cd" stroke="#9a32cd" points="723.421,-164.47 714.005,-169.326 724.394,-171.402 723.421,-164.47"/>
<text text-anchor="middle" x="768" y="-169" font-family="Helvetica,sans-Serif" font-size="10.00"> readyQueue</text>
</g>
<!-- Node6 -->
<g id="node11" class="node"><title>Node6</title>
<a xlink:href="../../de/dd4/classcIDManager.xhtml" target="_top" xlink:title="A class for managing unique IDs.">
<polygon fill="white" stroke="black" points="396,-0.5 396,-19.5 466,-19.5 466,-0.5 396,-0.5"/>
<text text-anchor="middle" x="431" y="-7.5" font-family="Helvetica,sans-Serif" font-size="10.00">cIDManager</text>
</a>
</g>
<!-- Node6&#45;&gt;Node1 -->
<g id="edge12" class="edge"><title>Node6&#45;&gt;Node1</title>
<path fill="none" stroke="#9a32cd" stroke-dasharray="5,2" d="M476.586,-9.94516C532.641,-10.7157 631.521,-14.8666 714,-33 755.61,-42.1483 771.559,-38.3829 804,-66 824.365,-83.3372 836.636,-113.464 841.928,-129.039"/>
<polygon fill="#9a32cd" stroke="#9a32cd" points="476.334,-6.44237 466.297,-9.83546 476.259,-13.442 476.334,-6.44237"/>
<text text-anchor="middle" x="644" y="-36" font-family="Helvetica,sans-Serif" font-size="10.00"> blockedID</text>
</g>
<!-- Node9 -->
<g id="node18" class="node"><title>Node9</title>
<a xlink:href="../../db/d63/classcProcessLogger.xhtml" target="_top" xlink:title="Class specifically for logging process state information.">
<polygon fill="white" stroke="black" points="600.5,-53.5 600.5,-72.5 687.5,-72.5 687.5,-53.5 600.5,-53.5"/>
<text text-anchor="middle" x="644" y="-60.5" font-family="Helvetica,sans-Serif" font-size="10.00">cProcessLogger</text>
</a>
</g>
<!-- Node6&#45;&gt;Node9 -->
<g id="edge30" class="edge"><title>Node6&#45;&gt;Node9</title>
<path fill="none" stroke="#9a32cd" stroke-dasharray="5,2" d="M476.029,-20.4136C499.752,-26.0845 529.509,-33.2946 556,-40 572.963,-44.2937 591.736,-49.2327 607.488,-53.4306"/>
<polygon fill="#9a32cd" stroke="#9a32cd" points="476.798,-16.9989 466.259,-18.0834 475.174,-23.8079 476.798,-16.9989"/>
<text text-anchor="middle" x="529" y="-43" font-family="Helvetica,sans-Serif" font-size="10.00"> lineIDs</text>
</g>
<!-- Node7 -->
<g id="node13" class="node"><title>Node7</title>
<polygon fill="white" stroke="#bfbfbf" points="164.5,-0.5 164.5,-19.5 297.5,-19.5 297.5,-0.5 164.5,-0.5"/>
<text text-anchor="middle" x="231" y="-7.5" font-family="Helvetica,sans-Serif" font-size="10.00">std::queue&lt; unsigned int &gt;</text>
</g>
<!-- Node7&#45;&gt;Node6 -->
<g id="edge14" class="edge"><title>Node7&#45;&gt;Node6</title>
<path fill="none" stroke="#9a32cd" stroke-dasharray="5,2" d="M307.825,-10C338.213,-10 371.687,-10 395.901,-10"/>
<polygon fill="#9a32cd" stroke="#9a32cd" points="307.656,-6.5001 297.656,-10 307.656,-13.5001 307.656,-6.5001"/>
<text text-anchor="middle" x="338" y="-13" font-family="Helvetica,sans-Serif" font-size="10.00"> freeID</text>
</g>
<!-- Node8&#45;&gt;Node1 -->
<g id="edge16" class="edge"><title>Node8&#45;&gt;Node1</title>
<path fill="none" stroke="#9a32cd" stroke-dasharray="5,2" d="M724.35,-139C759.341,-139 797.859,-139 821.741,-139"/>
<polygon fill="#9a32cd" stroke="#9a32cd" points="724.109,-135.5 714.109,-139 724.109,-142.5 724.109,-135.5"/>
<text text-anchor="middle" x="768" y="-142" font-family="Helvetica,sans-Serif" font-size="10.00"> blockedVector</text>
</g>
<!-- Node9&#45;&gt;Node1 -->
<g id="edge20" class="edge"><title>Node9&#45;&gt;Node1</title>
<path fill="none" stroke="#9a32cd" stroke-dasharray="5,2" d="M697.796,-65.4721C730.175,-68.9026 771.508,-76.8404 804,-95 818.948,-103.354 831.57,-119.062 838.712,-129.273"/>
<polygon fill="#9a32cd" stroke="#9a32cd" points="697.906,-61.967 687.621,-64.5095 697.246,-68.9358 697.906,-61.967"/>
<text text-anchor="middle" x="768" y="-98" font-family="Helvetica,sans-Serif" font-size="10.00"> procLogger</text>
</g>
<!-- Node10 -->
<g id="node20" class="node"><title>Node10</title>
<polygon fill="white" stroke="#bfbfbf" points="378.5,-42.5 378.5,-61.5 483.5,-61.5 483.5,-42.5 378.5,-42.5"/>
<text text-anchor="middle" x="431" y="-49.5" font-family="Helvetica,sans-Serif" font-size="10.00">std::vector&lt; string &gt;</text>
</g>
<!-- Node10&#45;&gt;Node9 -->
<g id="edge22" class="edge"><title>Node10&#45;&gt;Node9</title>
<path fill="none" stroke="#9a32cd" stroke-dasharray="5,2" d="M493.984,-55.2314C528.222,-57.0163 569.875,-59.1878 600.43,-60.7807"/>
<polygon fill="#9a32cd" stroke="#9a32cd" points="493.785,-51.7164 483.616,-54.6909 493.421,-58.7069 493.785,-51.7164"/>
<text text-anchor="middle" x="529" y="-61" font-family="Helvetica,sans-Serif" font-size="10.00"> procNames</text>
</g>
<!-- Node11 -->
<g id="node22" class="node"><title>Node11</title>
<a xlink:title="STL class.">
<polygon fill="white" stroke="#bfbfbf" points="201,-61.5 201,-80.5 261,-80.5 261,-61.5 201,-61.5"/>
<text text-anchor="middle" x="231" y="-68.5" font-family="Helvetica,sans-Serif" font-size="10.00">std::string</text>
</a>
</g>
<!-- Node11&#45;&gt;Node9 -->
<g id="edge28" class="edge"><title>Node11&#45;&gt;Node9</title>
<path fill="none" stroke="#9a32cd" stroke-dasharray="5,2" d="M271.45,-74.4005C285.5,-75.4573 301.446,-76.4809 316,-77 382.617,-79.3762 484.107,-77.8546 556,-73 570.411,-72.0269 586.107,-70.3989 600.15,-68.7361"/>
<polygon fill="#9a32cd" stroke="#9a32cd" points="271.371,-70.8838 261.129,-73.5937 270.825,-77.8625 271.371,-70.8838"/>
<text text-anchor="middle" x="431" y="-81" font-family="Helvetica,sans-Serif" font-size="10.00"> nameFile</text>
</g>
<!-- Node11&#45;&gt;Node10 -->
<g id="edge24" class="edge"><title>Node11&#45;&gt;Node10</title>
<path fill="none" stroke="#9a32cd" stroke-dasharray="5,2" d="M271.525,-67.2072C302.199,-64.2637 344.977,-60.1588 378.358,-56.9556"/>
<polygon fill="#9a32cd" stroke="#9a32cd" points="270.836,-63.7572 261.216,-68.1965 271.504,-70.7252 270.836,-63.7572"/>
<text text-anchor="middle" x="338" y="-65" font-family="Helvetica,sans-Serif" font-size="10.00"> elements</text>
</g>
<!-- Node12 -->
<g id="node24" class="node"><title>Node12</title>
<a xlink:title="STL class.">
<polygon fill="white" stroke="#bfbfbf" points="0.5,-61.5 0.5,-80.5 125.5,-80.5 125.5,-61.5 0.5,-61.5"/>
<text text-anchor="middle" x="63" y="-68.5" font-family="Helvetica,sans-Serif" font-size="10.00">std::basic_string&lt; char &gt;</text>
</a>
</g>
<!-- Node12&#45;&gt;Node11 -->
<g id="edge26" class="edge"><title>Node12&#45;&gt;Node11</title>
<path fill="none" stroke="midnightblue" d="M135.843,-71C158.66,-71 182.622,-71 200.663,-71"/>
<polygon fill="midnightblue" stroke="midnightblue" points="135.812,-67.5001 125.812,-71 135.812,-74.5001 135.812,-67.5001"/>
</g>
</g>
</svg>
        <g id="navigator" transform="translate(0 0)" fill="#404254">
                <rect fill="#f2f5e9" fill-opacity="0.5" stroke="#606060" stroke-width=".5" x="0" y="0" width="60" height="60"/>
                <use id="zoomplus" xlink:href="#zoomPlus" x="17" y="9" onmousedown="handleZoom(evt,'in')"/>
                <use id="zoomminus" xlink:href="#zoomMin" x="42" y="9" onmousedown="handleZoom(evt,'out')"/>
                <use id="reset" xlink:href="#resetDef" x="30" y="36" onmousedown="handleReset()"/>
                <g id="arrowUp" xlink:href="#dirArrow" transform="translate(30 24)" onmousedown="handlePan(0,-1)">
                  <use xlink:href="#rim" fill="#404040">
                        <set attributeName="fill" to="#808080" begin="arrowUp.mouseover" end="arrowUp.mouseout"/>
                  </use>
                  <path fill="none" stroke="white" stroke-width="1.5" d="M0,-3.0v7 M-2.5,-0.5L0,-3.0L2.5,-0.5"/>
                </g>
                <g id="arrowRight" xlink:href="#dirArrow" transform="rotate(90) translate(36 -43)" onmousedown="handlePan(1,0)">
                  <use xlink:href="#rim" fill="#404040">
                        <set attributeName="fill" to="#808080" begin="arrowRight.mouseover" end="arrowRight.mouseout"/>
                  </use>
                  <path fill="none" stroke="white" stroke-width="1.5" d="M0,-3.0v7 M-2.5,-0.5L0,-3.0L2.5,-0.5"/>
                </g>
                <g id="arrowDown" xlink:href="#dirArrow" transform="rotate(180) translate(-30 -48)" onmousedown="handlePan(0,1)">
                  <use xlink:href="#rim" fill="#404040">
                        <set attributeName="fill" to="#808080" begin="arrowDown.mouseover" end="arrowDown.mouseout"/>
                  </use>
                  <path fill="none" stroke="white" stroke-width="1.5" d="M0,-3.0v7 M-2.5,-0.5L0,-3.0L2.5,-0.5"/>
                </g>
                <g id="arrowLeft" xlink:href="#dirArrow" transform="rotate(270) translate(-36 17)" onmousedown="handlePan(-1,0)">
                  <use xlink:href="#rim" fill="#404040">
                        <set attributeName="fill" to="#808080" begin="arrowLeft.mouseover" end="arrowLeft.mouseout"/>
                  </use>
                  <path fill="none" stroke="white" stroke-width="1.5" d="M0,-3.0v7 M-2.5,-0.5L0,-3.0L2.5,-0.5"/>
                </g>
        </g>
</svg>
