<?xml version="1.0" encoding="UTF-8" standalone="no"?>
<!DOCTYPE svg PUBLIC "-//W3C//DTD SVG 1.1//EN"
 "http://www.w3.org/Graphics/SVG/1.1/DTD/svg11.dtd">
<!-- Generated by graphviz version 2.28.0 (20111025.1818)
 -->
<!-- Title: G Pages: 1 -->
<svg width="231pt" height="174pt"
 viewBox="0.00 0.00 231.00 174.00" xmlns="http://www.w3.org/2000/svg" xmlns:xlink="http://www.w3.org/1999/xlink">
<g id="graph1" class="graph" transform="scale(1 1) rotate(0) translate(4 170)">
<title>G</title>
<polygon fill="white" stroke="white" points="-4,5 -4,-170 228,-170 228,5 -4,5"/>
<!-- Node1 -->
<g id="node1" class="node"><title>Node1</title>
<polygon fill="#bfbfbf" stroke="black" points="46,-0.5 46,-19.5 94,-19.5 94,-0.5 46,-0.5"/>
<text text-anchor="middle" x="70" y="-7.5" font-family="Helvetica,sans-Serif" font-size="10.00">cFCFS</text>
</g>
<!-- Node2 -->
<g id="node2" class="node"><title>Node2</title>
<a xlink:href="../../d0/d21/classcScheduler.xhtml" target="_top" xlink:title="cScheduler">
<polygon fill="white" stroke="black" points="-0.5,-78.5 -0.5,-97.5 64.5,-97.5 64.5,-78.5 -0.5,-78.5"/>
<text text-anchor="middle" x="32" y="-85.5" font-family="Helvetica,sans-Serif" font-size="10.00">cScheduler</text>
</a>
</g>
<!-- Node2&#45;&gt;Node1 -->
<g id="edge2" class="edge"><title>Node2&#45;&gt;Node1</title>
<path fill="none" stroke="midnightblue" d="M40.9392,-69.1216C48.7351,-53.5297 59.7069,-31.5862 65.6918,-19.6165"/>
<polygon fill="midnightblue" stroke="midnightblue" points="37.7008,-67.7723 36.3591,-78.2818 43.9618,-70.9028 37.7008,-67.7723"/>
</g>
<!-- Node3 -->
<g id="node4" class="node"><title>Node3</title>
<polygon fill="white" stroke="#bfbfbf" points="83,-78.5 83,-97.5 223,-97.5 223,-78.5 83,-78.5"/>
<text text-anchor="middle" x="153" y="-85.5" font-family="Helvetica,sans-Serif" font-size="10.00">std::queue&lt; ProcessInfo * &gt;</text>
</g>
<!-- Node3&#45;&gt;Node1 -->
<g id="edge4" class="edge"><title>Node3&#45;&gt;Node1</title>
<path fill="none" stroke="#9a32cd" stroke-dasharray="5,2" d="M135.858,-71.3041C118.754,-55.6422 93.1047,-32.1562 79.4101,-19.6165"/>
<polygon fill="#9a32cd" stroke="#9a32cd" points="133.74,-74.1099 143.479,-78.2818 138.467,-68.9472 133.74,-74.1099"/>
<text text-anchor="middle" x="152.5" y="-52" font-family="Helvetica,sans-Serif" font-size="10.00"> readyQueue</text>
<text text-anchor="middle" x="152.5" y="-41" font-family="Helvetica,sans-Serif" font-size="10.00">blockedQueue</text>
</g>
<!-- Node4 -->
<g id="node6" class="node"><title>Node4</title>
<a xlink:href="../../dd/dc8/structProcessInfo.xhtml" target="_top" xlink:title="Structure for containing process state and data.">
<polygon fill="white" stroke="black" points="118.5,-146.5 118.5,-165.5 187.5,-165.5 187.5,-146.5 118.5,-146.5"/>
<text text-anchor="middle" x="153" y="-153.5" font-family="Helvetica,sans-Serif" font-size="10.00">ProcessInfo</text>
</a>
</g>
<!-- Node4&#45;&gt;Node3 -->
<g id="edge6" class="edge"><title>Node4&#45;&gt;Node3</title>
<path fill="none" stroke="#9a32cd" stroke-dasharray="5,2" d="M153,-136.041C153,-123.472 153,-107.563 153,-97.8411"/>
<polygon fill="#9a32cd" stroke="#9a32cd" points="149.5,-136.372 153,-146.372 156.5,-136.372 149.5,-136.372"/>
<text text-anchor="middle" x="174.5" y="-119.5" font-family="Helvetica,sans-Serif" font-size="10.00"> elements</text>
</g>
</g>
</svg>
