<?xml version="1.0" encoding="UTF-8" standalone="no"?>
<!DOCTYPE svg PUBLIC "-//W3C//DTD SVG 1.1//EN"
 "http://www.w3.org/Graphics/SVG/1.1/DTD/svg11.dtd">
<!-- Generated by graphviz version 2.28.0 (20111025.1818)
 -->
<!-- Title: G Pages: 1 -->
<svg width="261pt" height="84pt"
 viewBox="0.00 0.00 261.00 84.00" xmlns="http://www.w3.org/2000/svg" xmlns:xlink="http://www.w3.org/1999/xlink">
<g id="graph1" class="graph" transform="scale(1 1) rotate(0) translate(4 80)">
<title>G</title>
<polygon fill="white" stroke="white" points="-4,5 -4,-80 258,-80 258,5 -4,5"/>
<!-- Node1 -->
<g id="node1" class="node"><title>Node1</title>
<polygon fill="#bfbfbf" stroke="black" points="79,-56.5 79,-75.5 153,-75.5 153,-56.5 79,-56.5"/>
<text text-anchor="middle" x="116" y="-63.5" font-family="Helvetica,sans-Serif" font-size="10.00">include/cpu.h</text>
</g>
<!-- Node2 -->
<g id="node3" class="node"><title>Node2</title>
<polygon fill="white" stroke="#bfbfbf" points="-0.5,-0.5 -0.5,-19.5 42.5,-19.5 42.5,-0.5 -0.5,-0.5"/>
<text text-anchor="middle" x="21" y="-7.5" font-family="Helvetica,sans-Serif" font-size="10.00">cstdio</text>
</g>
<!-- Node1&#45;&gt;Node2 -->
<g id="edge2" class="edge"><title>Node1&#45;&gt;Node2</title>
<path fill="none" stroke="midnightblue" d="M100.737,-56.324C85.7786,-47.8215 62.7452,-34.7288 45.2733,-24.7975"/>
<polygon fill="midnightblue" stroke="midnightblue" points="46.6488,-21.5534 36.2255,-19.6545 43.1896,-27.639 46.6488,-21.5534"/>
</g>
<!-- Node3 -->
<g id="node5" class="node"><title>Node3</title>
<polygon fill="white" stroke="#bfbfbf" points="60.5,-0.5 60.5,-19.5 105.5,-19.5 105.5,-0.5 60.5,-0.5"/>
<text text-anchor="middle" x="83" y="-7.5" font-family="Helvetica,sans-Serif" font-size="10.00">cstdlib</text>
</g>
<!-- Node1&#45;&gt;Node3 -->
<g id="edge4" class="edge"><title>Node1&#45;&gt;Node3</title>
<path fill="none" stroke="midnightblue" d="M110.551,-56.083C105.986,-48.6127 99.3316,-37.7244 93.7066,-28.5199"/>
<polygon fill="midnightblue" stroke="midnightblue" points="96.5489,-26.4588 88.3479,-19.7511 90.5759,-30.109 96.5489,-26.4588"/>
</g>
<!-- Node4 -->
<g id="node7" class="node"><title>Node4</title>
<polygon fill="white" stroke="#bfbfbf" points="124,-0.5 124,-19.5 176,-19.5 176,-0.5 124,-0.5"/>
<text text-anchor="middle" x="150" y="-7.5" font-family="Helvetica,sans-Serif" font-size="10.00">assert.h</text>
</g>
<!-- Node1&#45;&gt;Node4 -->
<g id="edge6" class="edge"><title>Node1&#45;&gt;Node4</title>
<path fill="none" stroke="midnightblue" d="M121.614,-56.083C126.367,-48.5341 133.318,-37.4948 139.152,-28.2298"/>
<polygon fill="midnightblue" stroke="midnightblue" points="142.124,-30.0783 144.49,-19.7511 136.2,-26.3486 142.124,-30.0783"/>
</g>
<!-- Node5 -->
<g id="node9" class="node"><title>Node5</title>
<polygon fill="white" stroke="#bfbfbf" points="194.5,-0.5 194.5,-19.5 253.5,-19.5 253.5,-0.5 194.5,-0.5"/>
<text text-anchor="middle" x="224" y="-7.5" font-family="Helvetica,sans-Serif" font-size="10.00">inttypes.h</text>
</g>
<!-- Node1&#45;&gt;Node5 -->
<g id="edge8" class="edge"><title>Node1&#45;&gt;Node5</title>
<path fill="none" stroke="midnightblue" d="M133.352,-56.324C150.672,-47.6641 177.515,-34.2424 197.502,-24.249"/>
<polygon fill="midnightblue" stroke="midnightblue" points="199.312,-27.2572 206.691,-19.6545 196.181,-20.9962 199.312,-27.2572"/>
</g>
</g>
</svg>
