<?xml version="1.0" encoding="UTF-8" standalone="no"?>
<!DOCTYPE svg PUBLIC "-//W3C//DTD SVG 1.1//EN"
 "http://www.w3.org/Graphics/SVG/1.1/DTD/svg11.dtd">
<!-- Generated by graphviz version 2.28.0 (20111025.1818)
 -->
<!-- Title: G Pages: 1 -->
<svg width="346pt" height="140pt"
 viewBox="0.00 0.00 346.00 140.00" xmlns="http://www.w3.org/2000/svg" xmlns:xlink="http://www.w3.org/1999/xlink">
<g id="graph1" class="graph" transform="scale(1 1) rotate(0) translate(4 136)">
<title>G</title>
<polygon fill="white" stroke="white" points="-4,5 -4,-136 343,-136 343,5 -4,5"/>
<!-- Node1 -->
<g id="node1" class="node"><title>Node1</title>
<polygon fill="#bfbfbf" stroke="black" points="97,-112.5 97,-131.5 171,-131.5 171,-112.5 97,-112.5"/>
<text text-anchor="middle" x="134" y="-119.5" font-family="Helvetica,sans-Serif" font-size="10.00">include/cpu.h</text>
</g>
<!-- Node2 -->
<g id="node3" class="node"><title>Node2</title>
<polygon fill="white" stroke="#bfbfbf" points="-0.5,-56.5 -0.5,-75.5 42.5,-75.5 42.5,-56.5 -0.5,-56.5"/>
<text text-anchor="middle" x="21" y="-63.5" font-family="Helvetica,sans-Serif" font-size="10.00">cstdio</text>
</g>
<!-- Node1&#45;&gt;Node2 -->
<g id="edge2" class="edge"><title>Node1&#45;&gt;Node2</title>
<path fill="none" stroke="midnightblue" d="M116.095,-112.444C97.746,-103.675 68.9946,-89.9355 47.9064,-79.8579"/>
<polygon fill="midnightblue" stroke="midnightblue" points="49.3532,-76.6703 38.8214,-75.5164 46.335,-82.9862 49.3532,-76.6703"/>
</g>
<!-- Node3 -->
<g id="node5" class="node"><title>Node3</title>
<polygon fill="white" stroke="#bfbfbf" points="60.5,-56.5 60.5,-75.5 105.5,-75.5 105.5,-56.5 60.5,-56.5"/>
<text text-anchor="middle" x="83" y="-63.5" font-family="Helvetica,sans-Serif" font-size="10.00">cstdlib</text>
</g>
<!-- Node1&#45;&gt;Node3 -->
<g id="edge4" class="edge"><title>Node1&#45;&gt;Node3</title>
<path fill="none" stroke="midnightblue" d="M125.578,-112.083C118.152,-104.22 107.148,-92.5688 98.1878,-83.0813"/>
<polygon fill="midnightblue" stroke="midnightblue" points="100.676,-80.618 91.2649,-75.7511 95.5866,-85.4244 100.676,-80.618"/>
</g>
<!-- Node4 -->
<g id="node7" class="node"><title>Node4</title>
<polygon fill="white" stroke="#bfbfbf" points="127,-0.5 127,-19.5 179,-19.5 179,-0.5 127,-0.5"/>
<text text-anchor="middle" x="153" y="-7.5" font-family="Helvetica,sans-Serif" font-size="10.00">assert.h</text>
</g>
<!-- Node1&#45;&gt;Node4 -->
<g id="edge6" class="edge"><title>Node1&#45;&gt;Node4</title>
<path fill="none" stroke="midnightblue" d="M135.491,-112.368C138.557,-94.617 145.63,-53.6664 149.788,-29.5974"/>
<polygon fill="midnightblue" stroke="midnightblue" points="153.263,-30.0413 151.516,-19.5914 146.365,-28.8498 153.263,-30.0413"/>
</g>
<!-- Node5 -->
<g id="node9" class="node"><title>Node5</title>
<polygon fill="white" stroke="#bfbfbf" points="162.5,-56.5 162.5,-75.5 221.5,-75.5 221.5,-56.5 162.5,-56.5"/>
<text text-anchor="middle" x="192" y="-63.5" font-family="Helvetica,sans-Serif" font-size="10.00">inttypes.h</text>
</g>
<!-- Node1&#45;&gt;Node5 -->
<g id="edge8" class="edge"><title>Node1&#45;&gt;Node5</title>
<path fill="none" stroke="midnightblue" d="M143.319,-112.324C151.893,-104.341 164.812,-92.3128 175.188,-82.6529"/>
<polygon fill="midnightblue" stroke="midnightblue" points="177.578,-85.2098 182.512,-75.8339 172.808,-80.0865 177.578,-85.2098"/>
</g>
<!-- Node6 -->
<g id="node11" class="node"><title>Node6</title>
<a xlink:href="../../d1/d8c/logger_8h_source.xhtml" target="_top" xlink:title="utility/logger.h">
<polygon fill="white" stroke="black" points="239.5,-56.5 239.5,-75.5 316.5,-75.5 316.5,-56.5 239.5,-56.5"/>
<text text-anchor="middle" x="278" y="-63.5" font-family="Helvetica,sans-Serif" font-size="10.00">utility/logger.h</text>
</a>
</g>
<!-- Node1&#45;&gt;Node6 -->
<g id="edge10" class="edge"><title>Node1&#45;&gt;Node6</title>
<path fill="none" stroke="midnightblue" d="M156.817,-112.444C180.832,-103.438 218.829,-89.1891 245.869,-79.049"/>
<polygon fill="midnightblue" stroke="midnightblue" points="247.155,-82.3049 255.29,-75.5164 244.697,-75.7506 247.155,-82.3049"/>
</g>
<!-- Node6&#45;&gt;Node4 -->
<g id="edge12" class="edge"><title>Node6&#45;&gt;Node4</title>
<path fill="none" stroke="midnightblue" d="M258.193,-56.4435C237.713,-47.5961 205.517,-33.6875 182.135,-23.5865"/>
<polygon fill="midnightblue" stroke="midnightblue" points="183.282,-20.2692 172.714,-19.5164 180.506,-26.6953 183.282,-20.2692"/>
</g>
<!-- Node7 -->
<g id="node14" class="node"><title>Node7</title>
<polygon fill="white" stroke="#bfbfbf" points="216,-0.5 216,-19.5 270,-19.5 270,-0.5 216,-0.5"/>
<text text-anchor="middle" x="243" y="-7.5" font-family="Helvetica,sans-Serif" font-size="10.00">iostream</text>
</g>
<!-- Node6&#45;&gt;Node7 -->
<g id="edge14" class="edge"><title>Node6&#45;&gt;Node7</title>
<path fill="none" stroke="midnightblue" d="M272.22,-56.083C267.328,-48.5341 260.173,-37.4948 254.167,-28.2298"/>
<polygon fill="midnightblue" stroke="midnightblue" points="257.048,-26.239 248.672,-19.7511 251.174,-30.0463 257.048,-26.239"/>
</g>
<!-- Node8 -->
<g id="node16" class="node"><title>Node8</title>
<polygon fill="white" stroke="#bfbfbf" points="288,-0.5 288,-19.5 338,-19.5 338,-0.5 288,-0.5"/>
<text text-anchor="middle" x="313" y="-7.5" font-family="Helvetica,sans-Serif" font-size="10.00">fstream</text>
</g>
<!-- Node6&#45;&gt;Node8 -->
<g id="edge16" class="edge"><title>Node6&#45;&gt;Node8</title>
<path fill="none" stroke="midnightblue" d="M283.78,-56.083C288.672,-48.5341 295.827,-37.4948 301.833,-28.2298"/>
<polygon fill="midnightblue" stroke="midnightblue" points="304.826,-30.0463 307.328,-19.7511 298.952,-26.239 304.826,-30.0463"/>
</g>
</g>
</svg>
