<?xml version="1.0" encoding="UTF-8" standalone="no"?>
<!DOCTYPE svg PUBLIC "-//W3C//DTD SVG 1.1//EN"
 "http://www.w3.org/Graphics/SVG/1.1/DTD/svg11.dtd">
<!-- Generated by graphviz version 2.28.0 (20111025.1818)
 -->
<!-- Title: G Pages: 1 -->
<svg width="127pt" height="96pt"
 viewBox="0.00 0.00 127.00 96.00" xmlns="http://www.w3.org/2000/svg" xmlns:xlink="http://www.w3.org/1999/xlink">
<g id="graph1" class="graph" transform="scale(1 1) rotate(0) translate(4 92)">
<title>G</title>
<polygon fill="white" stroke="white" points="-4,5 -4,-92 124,-92 124,5 -4,5"/>
<!-- Node1 -->
<g id="node1" class="node"><title>Node1</title>
<polygon fill="#bfbfbf" stroke="black" points="-0.5,-0.5 -0.5,-19.5 66.5,-19.5 66.5,-0.5 -0.5,-0.5"/>
<text text-anchor="middle" x="33" y="-7.5" font-family="Helvetica,sans-Serif" font-size="10.00">sIOContext</text>
</g>
<!-- Node1&#45;&gt;Node1 -->
<g id="edge4" class="edge"><title>Node1&#45;&gt;Node1</title>
<path fill="none" stroke="#9a32cd" stroke-dasharray="5,2" d="M76.8662,-15.2033C81.2258,-14.1624 84,-12.428 84,-10 84,-6.01562 76.5293,-3.89893 66.8407,-3.6499"/>
<polygon fill="#9a32cd" stroke="#9a32cd" points="76.3782,-11.7362 66.8407,-16.3501 77.1737,-18.6909 76.3782,-11.7362"/>
<text text-anchor="middle" x="101.5" y="-7.5" font-family="Helvetica,sans-Serif" font-size="10.00"> release</text>
</g>
<!-- Node2 -->
<g id="node2" class="node"><title>Node2</title>
<a xlink:href="../../db/d4b/structsPTE.xhtml" target="_top" xlink:title="A struct representing a single page table entry.">
<polygon fill="white" stroke="black" points="12.5,-68.5 12.5,-87.5 53.5,-87.5 53.5,-68.5 12.5,-68.5"/>
<text text-anchor="middle" x="33" y="-75.5" font-family="Helvetica,sans-Serif" font-size="10.00">sPTE</text>
</a>
</g>
<!-- Node2&#45;&gt;Node1 -->
<g id="edge2" class="edge"><title>Node2&#45;&gt;Node1</title>
<path fill="none" stroke="#9a32cd" stroke-dasharray="5,2" d="M33,-58.0413C33,-45.4724 33,-29.5631 33,-19.8411"/>
<polygon fill="#9a32cd" stroke="#9a32cd" points="29.5001,-58.3716 33,-68.3717 36.5001,-58.3717 29.5001,-58.3716"/>
<text text-anchor="middle" x="45.5" y="-41.5" font-family="Helvetica,sans-Serif" font-size="10.00"> page</text>
</g>
</g>
</svg>
