<?xml version="1.0" encoding="UTF-8" standalone="no"?>
<!DOCTYPE svg PUBLIC "-//W3C//DTD SVG 1.1//EN"
 "http://www.w3.org/Graphics/SVG/1.1/DTD/svg11.dtd">
<!-- Generated by graphviz version 2.28.0 (20111025.1818)
 -->
<!-- Title: G Pages: 1 -->
<svg width="132pt" height="164pt"
 viewBox="0.00 0.00 132.00 164.00" xmlns="http://www.w3.org/2000/svg" xmlns:xlink="http://www.w3.org/1999/xlink">
<g id="graph1" class="graph" transform="scale(1 1) rotate(0) translate(4 160)">
<title>G</title>
<polygon fill="white" stroke="white" points="-4,5 -4,-160 129,-160 129,5 -4,5"/>
<!-- Node1 -->
<g id="node1" class="node"><title>Node1</title>
<polygon fill="#bfbfbf" stroke="black" points="29.5,-0.5 29.5,-19.5 94.5,-19.5 94.5,-0.5 29.5,-0.5"/>
<text text-anchor="middle" x="62" y="-7.5" font-family="Helvetica,sans-Serif" font-size="10.00">KeyRecord</text>
</g>
<!-- Node2 -->
<g id="node2" class="node"><title>Node2</title>
<a xlink:title="STL class.">
<polygon fill="white" stroke="#bfbfbf" points="32,-78.5 32,-97.5 92,-97.5 92,-78.5 32,-78.5"/>
<text text-anchor="middle" x="62" y="-85.5" font-family="Helvetica,sans-Serif" font-size="10.00">std::string</text>
</a>
</g>
<!-- Node2&#45;&gt;Node1 -->
<g id="edge2" class="edge"><title>Node2&#45;&gt;Node1</title>
<path fill="none" stroke="#9a32cd" stroke-dasharray="5,2" d="M62,-68.2239C62,-52.6974 62,-31.3582 62,-19.6165"/>
<polygon fill="#9a32cd" stroke="#9a32cd" points="58.5001,-68.2818 62,-78.2818 65.5001,-68.2819 58.5001,-68.2818"/>
<text text-anchor="middle" x="84" y="-52" font-family="Helvetica,sans-Serif" font-size="10.00"> comment</text>
<text text-anchor="middle" x="84" y="-41" font-family="Helvetica,sans-Serif" font-size="10.00">value</text>
</g>
<!-- Node3 -->
<g id="node4" class="node"><title>Node3</title>
<a xlink:title="STL class.">
<polygon fill="white" stroke="#bfbfbf" points="-0.5,-136.5 -0.5,-155.5 124.5,-155.5 124.5,-136.5 -0.5,-136.5"/>
<text text-anchor="middle" x="62" y="-143.5" font-family="Helvetica,sans-Serif" font-size="10.00">std::basic_string&lt; char &gt;</text>
</a>
</g>
<!-- Node3&#45;&gt;Node2 -->
<g id="edge4" class="edge"><title>Node3&#45;&gt;Node2</title>
<path fill="none" stroke="midnightblue" d="M62,-125.953C62,-116.287 62,-105.031 62,-97.5052"/>
<polygon fill="midnightblue" stroke="midnightblue" points="58.5001,-126.25 62,-136.25 65.5001,-126.25 58.5001,-126.25"/>
</g>
</g>
</svg>
