<?xml version="1.0" encoding="UTF-8" standalone="no"?>
<!DOCTYPE svg PUBLIC "-//W3C//DTD SVG 1.1//EN"
 "http://www.w3.org/Graphics/SVG/1.1/DTD/svg11.dtd">
<!-- Generated by graphviz version 2.28.0 (20111025.1818)
 -->
<!-- Title: G Pages: 1 -->
<svg width="257pt" height="84pt"
 viewBox="0.00 0.00 257.00 84.00" xmlns="http://www.w3.org/2000/svg" xmlns:xlink="http://www.w3.org/1999/xlink">
<g id="graph1" class="graph" transform="scale(1 1) rotate(0) translate(4 80)">
<title>G</title>
<polygon fill="white" stroke="white" points="-4,5 -4,-80 254,-80 254,5 -4,5"/>
<!-- Node1 -->
<g id="node1" class="node"><title>Node1</title>
<polygon fill="#bfbfbf" stroke="black" points="82,-56.5 82,-75.5 166,-75.5 166,-56.5 82,-56.5"/>
<text text-anchor="middle" x="124" y="-63.5" font-family="Helvetica,sans-Serif" font-size="10.00">AbstractDevice</text>
</g>
<!-- Node2 -->
<g id="node3" class="node"><title>Node2</title>
<a xlink:href="../../db/d6d/classBlockDevice.xhtml" target="_top" xlink:title="BlockDevice">
<polygon fill="white" stroke="black" points="0,-0.5 0,-19.5 72,-19.5 72,-0.5 0,-0.5"/>
<text text-anchor="middle" x="36" y="-7.5" font-family="Helvetica,sans-Serif" font-size="10.00">BlockDevice</text>
</a>
</g>
<!-- Node1&#45;&gt;Node2 -->
<g id="edge2" class="edge"><title>Node1&#45;&gt;Node2</title>
<path fill="none" stroke="midnightblue" d="M101.023,-50.9005C84.8866,-40.9986 63.8187,-28.0705 50.1036,-19.6545"/>
<polygon fill="midnightblue" stroke="midnightblue" points="99.5075,-54.0769 109.861,-56.324 103.169,-48.1106 99.5075,-54.0769"/>
</g>
<!-- Node3 -->
<g id="node5" class="node"><title>Node3</title>
<a xlink:href="../../d8/d4f/classCharDevice.xhtml" target="_top" xlink:title="CharDevice">
<polygon fill="white" stroke="black" points="90,-0.5 90,-19.5 158,-19.5 158,-0.5 90,-0.5"/>
<text text-anchor="middle" x="124" y="-7.5" font-family="Helvetica,sans-Serif" font-size="10.00">CharDevice</text>
</a>
</g>
<!-- Node1&#45;&gt;Node3 -->
<g id="edge4" class="edge"><title>Node1&#45;&gt;Node3</title>
<path fill="none" stroke="midnightblue" d="M124,-45.8045C124,-36.9102 124,-26.7798 124,-19.7511"/>
<polygon fill="midnightblue" stroke="midnightblue" points="120.5,-46.083 124,-56.083 127.5,-46.083 120.5,-46.083"/>
</g>
<!-- Node4 -->
<g id="node7" class="node"><title>Node4</title>
<a xlink:href="../../dc/d14/classClockDevice.xhtml" target="_top" xlink:title="ClockDevice">
<polygon fill="white" stroke="black" points="176.5,-0.5 176.5,-19.5 249.5,-19.5 249.5,-0.5 176.5,-0.5"/>
<text text-anchor="middle" x="213" y="-7.5" font-family="Helvetica,sans-Serif" font-size="10.00">ClockDevice</text>
</a>
</g>
<!-- Node1&#45;&gt;Node4 -->
<g id="edge6" class="edge"><title>Node1&#45;&gt;Node4</title>
<path fill="none" stroke="midnightblue" d="M147.238,-50.9005C163.558,-40.9986 184.865,-28.0705 198.736,-19.6545"/>
<polygon fill="midnightblue" stroke="midnightblue" points="145.033,-48.1444 138.299,-56.324 148.664,-54.1289 145.033,-48.1444"/>
</g>
</g>
</svg>
