<?xml version="1.0" encoding="UTF-8" standalone="no"?>
<!DOCTYPE svg PUBLIC "-//W3C//DTD SVG 1.1//EN"
 "http://www.w3.org/Graphics/SVG/1.1/DTD/svg11.dtd">
<!-- Generated by graphviz version 2.28.0 (20111025.1818)
 -->
<!-- Title: G Pages: 1 -->
<svg width="188pt" height="104pt"
 viewBox="0.00 0.00 188.00 104.00" xmlns="http://www.w3.org/2000/svg" xmlns:xlink="http://www.w3.org/1999/xlink">
<g id="graph1" class="graph" transform="scale(1 1) rotate(0) translate(4 100)">
<title>G</title>
<polygon fill="white" stroke="white" points="-4,5 -4,-100 185,-100 185,5 -4,5"/>
<!-- Node1 -->
<g id="node1" class="node"><title>Node1</title>
<a xlink:href="d7/df0/classcPRPolicy.xhtml" target="_top" xlink:title="Abstract Page Replacement Policy.">
<polygon fill="white" stroke="black" points="0.5,-38.5 0.5,-57.5 63.5,-57.5 63.5,-38.5 0.5,-38.5"/>
<text text-anchor="middle" x="32" y="-45.5" font-family="Helvetica,sans-Serif" font-size="10.00">cPRPolicy</text>
</a>
</g>
<!-- Node2 -->
<g id="node3" class="node"><title>Node2</title>
<a xlink:href="db/d3a/classcPRFifo.xhtml" target="_top" xlink:title="cPRFifo">
<polygon fill="white" stroke="black" points="113.5,-76.5 113.5,-95.5 166.5,-95.5 166.5,-76.5 113.5,-76.5"/>
<text text-anchor="middle" x="140" y="-83.5" font-family="Helvetica,sans-Serif" font-size="10.00">cPRFifo</text>
</a>
</g>
<!-- Node1&#45;&gt;Node2 -->
<g id="edge2" class="edge"><title>Node1&#45;&gt;Node2</title>
<path fill="none" stroke="midnightblue" d="M69.4085,-61.0521C83.8731,-66.2375 100.171,-72.0803 113.357,-76.8073"/>
<polygon fill="midnightblue" stroke="midnightblue" points="70.3428,-57.669 59.7483,-57.589 67.9805,-64.2584 70.3428,-57.669"/>
</g>
<!-- Node3 -->
<g id="node5" class="node"><title>Node3</title>
<a xlink:href="da/da5/classcPRLru.xhtml" target="_top" xlink:title="cPRLru">
<polygon fill="white" stroke="black" points="115,-38.5 115,-57.5 165,-57.5 165,-38.5 115,-38.5"/>
<text text-anchor="middle" x="140" y="-45.5" font-family="Helvetica,sans-Serif" font-size="10.00">cPRLru</text>
</a>
</g>
<!-- Node1&#45;&gt;Node3 -->
<g id="edge4" class="edge"><title>Node1&#45;&gt;Node3</title>
<path fill="none" stroke="midnightblue" d="M73.9292,-48C87.7404,-48 102.707,-48 114.8,-48"/>
<polygon fill="midnightblue" stroke="midnightblue" points="73.6596,-44.5001 63.6596,-48 73.6596,-51.5001 73.6596,-44.5001"/>
</g>
<!-- Node4 -->
<g id="node7" class="node"><title>Node4</title>
<a xlink:href="d1/d58/classcPRLruApprox.xhtml" target="_top" xlink:title="cPRLruApprox">
<polygon fill="white" stroke="black" points="100,-0.5 100,-19.5 180,-19.5 180,-0.5 100,-0.5"/>
<text text-anchor="middle" x="140" y="-7.5" font-family="Helvetica,sans-Serif" font-size="10.00">cPRLruApprox</text>
</a>
</g>
<!-- Node1&#45;&gt;Node4 -->
<g id="edge6" class="edge"><title>Node1&#45;&gt;Node4</title>
<path fill="none" stroke="midnightblue" d="M69.1845,-35.0282C83.3066,-29.9656 99.2056,-24.2659 112.26,-19.5859"/>
<polygon fill="midnightblue" stroke="midnightblue" points="67.9805,-31.7416 59.7483,-38.411 70.3428,-38.331 67.9805,-31.7416"/>
</g>
</g>
</svg>
