<?xml version="1.0" encoding="UTF-8" standalone="no"?>
<!DOCTYPE svg PUBLIC "-//W3C//DTD SVG 1.1//EN"
 "http://www.w3.org/Graphics/SVG/1.1/DTD/svg11.dtd">
<!-- Generated by graphviz version 2.28.0 (20111025.1818)
 -->
<!-- Title: G Pages: 1 -->
<svg width="172pt" height="104pt"
 viewBox="0.00 0.00 172.00 104.00" xmlns="http://www.w3.org/2000/svg" xmlns:xlink="http://www.w3.org/1999/xlink">
<g id="graph1" class="graph" transform="scale(1 1) rotate(0) translate(4 100)">
<title>G</title>
<polygon fill="white" stroke="white" points="-4,5 -4,-100 169,-100 169,5 -4,5"/>
<!-- Node1 -->
<g id="node1" class="node"><title>Node1</title>
<a xlink:href="d3/d42/classcException.xhtml" target="_top" xlink:title="Generic exception class.">
<polygon fill="white" stroke="black" points="0.5,-38.5 0.5,-57.5 65.5,-57.5 65.5,-38.5 0.5,-38.5"/>
<text text-anchor="middle" x="33" y="-45.5" font-family="Helvetica,sans-Serif" font-size="10.00">cException</text>
</a>
</g>
<!-- Node2 -->
<g id="node3" class="node"><title>Node2</title>
<a xlink:href="d3/dbc/classcIOExc.xhtml" target="_top" xlink:title="Class handling exceptions in the I/O system.">
<polygon fill="white" stroke="black" points="108,-76.5 108,-95.5 158,-95.5 158,-76.5 108,-76.5"/>
<text text-anchor="middle" x="133" y="-83.5" font-family="Helvetica,sans-Serif" font-size="10.00">cIOExc</text>
</a>
</g>
<!-- Node1&#45;&gt;Node2 -->
<g id="edge2" class="edge"><title>Node1&#45;&gt;Node2</title>
<path fill="none" stroke="midnightblue" d="M68.3589,-61.3228C81.4327,-66.3923 96.0378,-72.0555 107.956,-76.6768"/>
<polygon fill="midnightblue" stroke="midnightblue" points="69.3185,-57.9411 58.7295,-57.589 66.7878,-64.4676 69.3185,-57.9411"/>
</g>
<!-- Node3 -->
<g id="node5" class="node"><title>Node3</title>
<a xlink:href="d5/d34/classcPRExc.xhtml" target="_top" xlink:title="Exception specific to the PR module.">
<polygon fill="white" stroke="black" points="106.5,-38.5 106.5,-57.5 159.5,-57.5 159.5,-38.5 106.5,-38.5"/>
<text text-anchor="middle" x="133" y="-45.5" font-family="Helvetica,sans-Serif" font-size="10.00">cPRExc</text>
</a>
</g>
<!-- Node1&#45;&gt;Node3 -->
<g id="edge4" class="edge"><title>Node1&#45;&gt;Node3</title>
<path fill="none" stroke="midnightblue" d="M75.744,-48C86.1618,-48 97.0271,-48 106.4,-48"/>
<polygon fill="midnightblue" stroke="midnightblue" points="75.5473,-44.5001 65.5473,-48 75.5472,-51.5001 75.5473,-44.5001"/>
</g>
<!-- Node4 -->
<g id="node7" class="node"><title>Node4</title>
<a xlink:href="d7/d66/classcVMMExc.xhtml" target="_top" xlink:title="A class handling exceptions in the VMM Core.">
<polygon fill="white" stroke="black" points="102,-0.5 102,-19.5 164,-19.5 164,-0.5 102,-0.5"/>
<text text-anchor="middle" x="133" y="-7.5" font-family="Helvetica,sans-Serif" font-size="10.00">cVMMExc</text>
</a>
</g>
<!-- Node1&#45;&gt;Node4 -->
<g id="edge6" class="edge"><title>Node1&#45;&gt;Node4</title>
<path fill="none" stroke="midnightblue" d="M68.2086,-34.7354C81.0742,-29.7467 95.4411,-24.1759 107.278,-19.5859"/>
<polygon fill="midnightblue" stroke="midnightblue" points="66.7878,-31.5324 58.7295,-38.411 69.3185,-38.0589 66.7878,-31.5324"/>
</g>
</g>
</svg>
