<?xml version="1.0" encoding="UTF-8" standalone="no"?>
<!DOCTYPE svg PUBLIC "-//W3C//DTD SVG 1.1//EN"
 "http://www.w3.org/Graphics/SVG/1.1/DTD/svg11.dtd">
<!-- Generated by graphviz version 2.28.0 (20111025.1818)
 -->
<!-- Title: G Pages: 1 -->
<!--zoomable 218 -->
<svg id="main" version="1.1" xmlns="http://www.w3.org/2000/svg" xmlns:xlink="http://www.w3.org/1999/xlink" xml:space="preserve" onload="init(evt)">
        <defs>
                <circle id="rim" cx="0" cy="0" r="7"/>
                <circle id="rim2" cx="0" cy="0" r="3.5"/>
                <g id="zoomPlus">
                        <use xlink:href="#rim" fill="#404040">
                                <set attributeName="fill" to="#808080" begin="zoomplus.mouseover" end="zoomplus.mouseout"/>
                        </use>
                        <path d="M-4,0h8M0,-4v8" fill="none" stroke="white" stroke-width="1.5" pointer-events="none"/>
                </g>
                <g id="zoomMin">
                        <use xlink:href="#rim" fill="#404040">
                                <set attributeName="fill" to="#808080" begin="zoomminus.mouseover" end="zoomminus.mouseout"/>
                        </use>
                        <path d="M-4,0h8" fill="none" stroke="white" stroke-width="1.5" pointer-events="none"/>
                </g>
                <g id="dirArrow">
                        <path fill="none" stroke="white" stroke-width="1.5" d="M0,-3.0v7 M-2.5,-0.5L0,-3.0L2.5,-0.5"/>
                </g>
               <g id="resetDef">
                       <use xlink:href="#rim2" fill="#404040">
                               <set attributeName="fill" to="#808080" begin="reset.mouseover" end="reset.mouseout"/>
                       </use>
               </g>
        </defs>

<script type="text/javascript">
var viewWidth = 1398;
var viewHeight = 218;
var sectionId = 'dynsection-0';
</script>
<script xlink:href="../../svgpan.js"/>
<svg id="graph" class="graph">
<g id="viewport">
<title>G</title>
<polygon fill="white" stroke="white" points="-4,5 -4,-214 1395,-214 1395,5 -4,5"/>
<!-- Node1 -->
<g id="node1" class="node"><title>Node1</title>
<polygon fill="#bfbfbf" stroke="black" points="1346,-52.5 1346,-71.5 1390,-71.5 1390,-52.5 1346,-52.5"/>
<text text-anchor="middle" x="1368" y="-59.5" font-family="Helvetica,sans-Serif" font-size="10.00">cCPU</text>
</g>
<!-- Node2 -->
<g id="node2" class="node"><title>Node2</title>
<a xlink:href="../../d4/d8e/structsProc.xhtml" target="_top" xlink:title="Struct representing a process.">
<polygon fill="white" stroke="black" points="1228,-52.5 1228,-71.5 1270,-71.5 1270,-52.5 1228,-52.5"/>
<text text-anchor="middle" x="1249" y="-59.5" font-family="Helvetica,sans-Serif" font-size="10.00">sProc</text>
</a>
</g>
<!-- Node2&#45;&gt;Node1 -->
<g id="edge2" class="edge"><title>Node2&#45;&gt;Node1</title>
<path fill="none" stroke="#9a32cd" stroke-dasharray="5,2" d="M1280.26,-62C1300.87,-62 1327.65,-62 1345.97,-62"/>
<polygon fill="#9a32cd" stroke="#9a32cd" points="1280.11,-58.5001 1270.11,-62 1280.11,-65.5001 1280.11,-58.5001"/>
<text text-anchor="middle" x="1309" y="-65" font-family="Helvetica,sans-Serif" font-size="10.00"> curProc</text>
</g>
<!-- Node3 -->
<g id="node4" class="node"><title>Node3</title>
<a xlink:href="../../db/d4b/structsPTE.xhtml" target="_top" xlink:title="A struct representing a single page table entry.">
<polygon fill="white" stroke="black" points="1090.5,-104.5 1090.5,-123.5 1131.5,-123.5 1131.5,-104.5 1090.5,-104.5"/>
<text text-anchor="middle" x="1111" y="-111.5" font-family="Helvetica,sans-Serif" font-size="10.00">sPTE</text>
</a>
</g>
<!-- Node3&#45;&gt;Node2 -->
<g id="edge4" class="edge"><title>Node3&#45;&gt;Node2</title>
<path fill="none" stroke="#9a32cd" stroke-dasharray="5,2" d="M1141.16,-102.851C1167.25,-92.8745 1204.82,-78.5092 1227.76,-69.7402"/>
<polygon fill="#9a32cd" stroke="#9a32cd" points="1139.87,-99.5981 1131.78,-106.439 1142.37,-106.136 1139.87,-99.5981"/>
<text text-anchor="middle" x="1191" y="-92" font-family="Helvetica,sans-Serif" font-size="10.00"> PTptr</text>
</g>
<!-- Node11 -->
<g id="node20" class="node"><title>Node11</title>
<a xlink:href="../../df/deb/classcMMU.xhtml" target="_top" xlink:title="Class representing an MMU in the CPU.">
<polygon fill="white" stroke="black" points="1226,-136.5 1226,-155.5 1272,-155.5 1272,-136.5 1226,-136.5"/>
<text text-anchor="middle" x="1249" y="-143.5" font-family="Helvetica,sans-Serif" font-size="10.00">cMMU</text>
</a>
</g>
<!-- Node3&#45;&gt;Node11 -->
<g id="edge22" class="edge"><title>Node3&#45;&gt;Node11</title>
<path fill="none" stroke="#9a32cd" stroke-dasharray="5,2" d="M1141.44,-120.018C1160.48,-124.015 1185.78,-129.518 1208,-135 1213.73,-136.415 1219.9,-138.051 1225.63,-139.623"/>
<polygon fill="#9a32cd" stroke="#9a32cd" points="1142.06,-116.573 1131.56,-117.962 1140.64,-123.426 1142.06,-116.573"/>
<text text-anchor="middle" x="1191" y="-138" font-family="Helvetica,sans-Serif" font-size="10.00"> ptbr</text>
</g>
<!-- Node4 -->
<g id="node6" class="node"><title>Node4</title>
<a xlink:title="STL class.">
<polygon fill="white" stroke="#bfbfbf" points="956,-52.5 956,-71.5 1048,-71.5 1048,-52.5 956,-52.5"/>
<text text-anchor="middle" x="1002" y="-59.5" font-family="Helvetica,sans-Serif" font-size="10.00">std::istringstream</text>
</a>
</g>
<!-- Node4&#45;&gt;Node2 -->
<g id="edge6" class="edge"><title>Node4&#45;&gt;Node2</title>
<path fill="none" stroke="#9a32cd" stroke-dasharray="5,2" d="M1058.32,-62C1112.24,-62 1191.3,-62 1227.96,-62"/>
<polygon fill="#9a32cd" stroke="#9a32cd" points="1058.22,-58.5001 1048.22,-62 1058.22,-65.5001 1058.22,-58.5001"/>
<text text-anchor="middle" x="1111" y="-65" font-family="Helvetica,sans-Serif" font-size="10.00"> data</text>
</g>
<!-- Node5 -->
<g id="node8" class="node"><title>Node5</title>
<a xlink:title="STL class.">
<polygon fill="white" stroke="#bfbfbf" points="606,-95.5 606,-114.5 764,-114.5 764,-95.5 606,-95.5"/>
<text text-anchor="middle" x="685" y="-102.5" font-family="Helvetica,sans-Serif" font-size="10.00">std::basic_istringstream&lt; char &gt;</text>
</a>
</g>
<!-- Node5&#45;&gt;Node4 -->
<g id="edge8" class="edge"><title>Node5&#45;&gt;Node4</title>
<path fill="none" stroke="midnightblue" d="M766.12,-94.0629C826.171,-85.8656 906.19,-74.9424 955.617,-68.1952"/>
<polygon fill="midnightblue" stroke="midnightblue" points="765.343,-90.6364 755.909,-95.4569 766.29,-97.5721 765.343,-90.6364"/>
</g>
<!-- Node6 -->
<g id="node10" class="node"><title>Node6</title>
<a xlink:title="STL class.">
<polygon fill="white" stroke="#bfbfbf" points="270,-116.5 270,-135.5 406,-135.5 406,-116.5 270,-116.5"/>
<text text-anchor="middle" x="338" y="-123.5" font-family="Helvetica,sans-Serif" font-size="10.00">std::basic_istream&lt; Char &gt;</text>
</a>
</g>
<!-- Node6&#45;&gt;Node5 -->
<g id="edge10" class="edge"><title>Node6&#45;&gt;Node5</title>
<path fill="none" stroke="midnightblue" d="M416.652,-121.273C473.162,-117.834 549.38,-113.194 605.977,-109.749"/>
<polygon fill="midnightblue" stroke="midnightblue" points="416.107,-117.8 406.338,-121.901 416.533,-124.787 416.107,-117.8"/>
</g>
<!-- Node15 -->
<g id="node29" class="node"><title>Node15</title>
<a xlink:title="STL class.">
<polygon fill="white" stroke="#bfbfbf" points="446.5,-154.5 446.5,-173.5 587.5,-173.5 587.5,-154.5 446.5,-154.5"/>
<text text-anchor="middle" x="517" y="-161.5" font-family="Helvetica,sans-Serif" font-size="10.00">std::basic_iostream&lt; Char &gt;</text>
</a>
</g>
<!-- Node6&#45;&gt;Node15 -->
<g id="edge32" class="edge"><title>Node6&#45;&gt;Node15</title>
<path fill="none" stroke="midnightblue" d="M393.742,-137.753C418.77,-143.126 448.035,-149.409 471.657,-154.48"/>
<polygon fill="midnightblue" stroke="midnightblue" points="394.176,-134.266 383.665,-135.589 392.707,-141.11 394.176,-134.266"/>
</g>
<!-- Node7 -->
<g id="node12" class="node"><title>Node7</title>
<a xlink:title="STL class.">
<polygon fill="white" stroke="#bfbfbf" points="114,-136.5 114,-155.5 230,-155.5 230,-136.5 114,-136.5"/>
<text text-anchor="middle" x="172" y="-143.5" font-family="Helvetica,sans-Serif" font-size="10.00">std::basic_ios&lt; Char &gt;</text>
</a>
</g>
<!-- Node7&#45;&gt;Node6 -->
<g id="edge12" class="edge"><title>Node7&#45;&gt;Node6</title>
<path fill="none" stroke="midnightblue" d="M240.369,-137.784C250.096,-136.598 260.106,-135.377 269.829,-134.192"/>
<polygon fill="midnightblue" stroke="midnightblue" points="239.862,-134.32 230.359,-139.005 240.709,-141.269 239.862,-134.32"/>
</g>
<!-- Node16 -->
<g id="node32" class="node"><title>Node16</title>
<a xlink:title="STL class.">
<polygon fill="white" stroke="#bfbfbf" points="268.5,-154.5 268.5,-173.5 407.5,-173.5 407.5,-154.5 268.5,-154.5"/>
<text text-anchor="middle" x="338" y="-161.5" font-family="Helvetica,sans-Serif" font-size="10.00">std::basic_ostream&lt; Char &gt;</text>
</a>
</g>
<!-- Node7&#45;&gt;Node16 -->
<g id="edge36" class="edge"><title>Node7&#45;&gt;Node16</title>
<path fill="none" stroke="midnightblue" d="M240.594,-153.419C249.775,-154.427 259.205,-155.461 268.403,-156.471"/>
<polygon fill="midnightblue" stroke="midnightblue" points="240.681,-149.908 230.359,-152.296 239.918,-156.866 240.681,-149.908"/>
</g>
<!-- Node8 -->
<g id="node14" class="node"><title>Node8</title>
<a xlink:title="STL class.">
<polygon fill="white" stroke="#bfbfbf" points="0.5,-136.5 0.5,-155.5 75.5,-155.5 75.5,-136.5 0.5,-136.5"/>
<text text-anchor="middle" x="38" y="-143.5" font-family="Helvetica,sans-Serif" font-size="10.00">std::ios_base</text>
</a>
</g>
<!-- Node8&#45;&gt;Node7 -->
<g id="edge14" class="edge"><title>Node8&#45;&gt;Node7</title>
<path fill="none" stroke="midnightblue" d="M85.7791,-146C94.8829,-146 104.521,-146 113.914,-146"/>
<polygon fill="midnightblue" stroke="midnightblue" points="85.7694,-142.5 75.7694,-146 85.7693,-149.5 85.7694,-142.5"/>
</g>
<!-- Node9 -->
<g id="node16" class="node"><title>Node9</title>
<a xlink:title="STL class.">
<polygon fill="white" stroke="#bfbfbf" points="1081,-0.5 1081,-19.5 1141,-19.5 1141,-0.5 1081,-0.5"/>
<text text-anchor="middle" x="1111" y="-7.5" font-family="Helvetica,sans-Serif" font-size="10.00">std::string</text>
</a>
</g>
<!-- Node9&#45;&gt;Node1 -->
<g id="edge38" class="edge"><title>Node9&#45;&gt;Node1</title>
<path fill="none" stroke="#9a32cd" stroke-dasharray="5,2" d="M1151.14,-9.03138C1183.88,-9.08666 1231.59,-11.1955 1272,-21 1300.45,-27.9042 1331.19,-42.6382 1349.76,-52.4322"/>
<polygon fill="#9a32cd" stroke="#9a32cd" points="1151.04,-5.53168 1141.06,-9.07844 1151.08,-12.5316 1151.04,-5.53168"/>
<text text-anchor="middle" x="1249" y="-35" font-family="Helvetica,sans-Serif" font-size="10.00"> addr</text>
<text text-anchor="middle" x="1249" y="-24" font-family="Helvetica,sans-Serif" font-size="10.00">opCode</text>
</g>
<!-- Node9&#45;&gt;Node2 -->
<g id="edge16" class="edge"><title>Node9&#45;&gt;Node2</title>
<path fill="none" stroke="#9a32cd" stroke-dasharray="5,2" d="M1151.33,-18.3743C1169.05,-22.824 1190,-29.0391 1208,-37 1217.44,-41.1733 1227.27,-47.2948 1234.83,-52.4356"/>
<polygon fill="#9a32cd" stroke="#9a32cd" points="1151.85,-14.9005 1141.31,-15.9584 1150.21,-21.7054 1151.85,-14.9005"/>
<text text-anchor="middle" x="1191" y="-40" font-family="Helvetica,sans-Serif" font-size="10.00"> rline</text>
</g>
<!-- Node10 -->
<g id="node18" class="node"><title>Node10</title>
<a xlink:title="STL class.">
<polygon fill="white" stroke="#bfbfbf" points="797.5,-0.5 797.5,-19.5 922.5,-19.5 922.5,-0.5 797.5,-0.5"/>
<text text-anchor="middle" x="860" y="-7.5" font-family="Helvetica,sans-Serif" font-size="10.00">std::basic_string&lt; char &gt;</text>
</a>
</g>
<!-- Node10&#45;&gt;Node9 -->
<g id="edge18" class="edge"><title>Node10&#45;&gt;Node9</title>
<path fill="none" stroke="midnightblue" d="M932.825,-10C981.998,-10 1044.61,-10 1080.72,-10"/>
<polygon fill="midnightblue" stroke="midnightblue" points="932.551,-6.5001 922.551,-10 932.551,-13.5001 932.551,-6.5001"/>
</g>
<!-- Node11&#45;&gt;Node1 -->
<g id="edge20" class="edge"><title>Node11&#45;&gt;Node1</title>
<path fill="none" stroke="#9a32cd" stroke-dasharray="5,2" d="M1271.58,-130.505C1295.62,-113.245 1333.73,-85.8871 1353.74,-71.5235"/>
<polygon fill="#9a32cd" stroke="#9a32cd" points="1269.5,-127.689 1263.42,-136.364 1273.59,-133.375 1269.5,-127.689"/>
<text text-anchor="middle" x="1309" y="-119" font-family="Helvetica,sans-Serif" font-size="10.00"> mmu</text>
</g>
<!-- Node12 -->
<g id="node23" class="node"><title>Node12</title>
<a xlink:href="../../d2/deb/structsTLBE.xhtml" target="_top" xlink:title="Struct representing a single entry in the TLB.">
<polygon fill="white" stroke="black" points="1087.5,-152.5 1087.5,-171.5 1134.5,-171.5 1134.5,-152.5 1087.5,-152.5"/>
<text text-anchor="middle" x="1111" y="-159.5" font-family="Helvetica,sans-Serif" font-size="10.00">sTLBE</text>
</a>
</g>
<!-- Node12&#45;&gt;Node11 -->
<g id="edge24" class="edge"><title>Node12&#45;&gt;Node11</title>
<path fill="none" stroke="#9a32cd" stroke-dasharray="5,2" d="M1144.89,-158.131C1169.9,-155.188 1203.65,-151.218 1225.61,-148.634"/>
<polygon fill="#9a32cd" stroke="#9a32cd" points="1144.29,-154.677 1134.76,-159.322 1145.1,-161.629 1144.29,-154.677"/>
<text text-anchor="middle" x="1191" y="-157" font-family="Helvetica,sans-Serif" font-size="10.00"> TLB</text>
</g>
<!-- Node13 -->
<g id="node25" class="node"><title>Node13</title>
<a xlink:title="STL class.">
<polygon fill="white" stroke="#bfbfbf" points="1066,-190.5 1066,-209.5 1156,-209.5 1156,-190.5 1066,-190.5"/>
<text text-anchor="middle" x="1111" y="-197.5" font-family="Helvetica,sans-Serif" font-size="10.00">std::stringstream</text>
</a>
</g>
<!-- Node13&#45;&gt;Node11 -->
<g id="edge26" class="edge"><title>Node13&#45;&gt;Node11</title>
<path fill="none" stroke="#9a32cd" stroke-dasharray="5,2" d="M1157.56,-187.43C1173.76,-182.403 1191.95,-176.109 1208,-169 1216.64,-165.171 1225.82,-159.985 1233.19,-155.507"/>
<polygon fill="#9a32cd" stroke="#9a32cd" points="1156.33,-184.146 1147.77,-190.392 1158.35,-190.847 1156.33,-184.146"/>
<text text-anchor="middle" x="1191" y="-184" font-family="Helvetica,sans-Serif" font-size="10.00"> ssAddr</text>
</g>
<!-- Node14 -->
<g id="node27" class="node"><title>Node14</title>
<a xlink:title="STL class.">
<polygon fill="white" stroke="#bfbfbf" points="782.5,-186.5 782.5,-205.5 937.5,-205.5 937.5,-186.5 782.5,-186.5"/>
<text text-anchor="middle" x="860" y="-193.5" font-family="Helvetica,sans-Serif" font-size="10.00">std::basic_stringstream&lt; char &gt;</text>
</a>
</g>
<!-- Node14&#45;&gt;Node13 -->
<g id="edge28" class="edge"><title>Node14&#45;&gt;Node13</title>
<path fill="none" stroke="midnightblue" d="M947.985,-197.397C987.752,-198.036 1033.15,-198.765 1065.76,-199.289"/>
<polygon fill="midnightblue" stroke="midnightblue" points="947.795,-193.894 937.74,-197.233 947.682,-200.893 947.795,-193.894"/>
</g>
<!-- Node15&#45;&gt;Node14 -->
<g id="edge30" class="edge"><title>Node15&#45;&gt;Node14</title>
<path fill="none" stroke="midnightblue" d="M598.008,-171.508C653.697,-176.734 727.52,-183.662 782.439,-188.815"/>
<polygon fill="midnightblue" stroke="midnightblue" points="598.113,-168.003 587.829,-170.553 597.459,-174.972 598.113,-168.003"/>
</g>
<!-- Node16&#45;&gt;Node15 -->
<g id="edge34" class="edge"><title>Node16&#45;&gt;Node15</title>
<path fill="none" stroke="midnightblue" d="M417.931,-164C427.446,-164 437.11,-164 446.477,-164"/>
<polygon fill="midnightblue" stroke="midnightblue" points="417.686,-160.5 407.686,-164 417.686,-167.5 417.686,-160.5"/>
</g>
</g>
</svg>
        <g id="navigator" transform="translate(0 0)" fill="#404254">
                <rect fill="#f2f5e9" fill-opacity="0.5" stroke="#606060" stroke-width=".5" x="0" y="0" width="60" height="60"/>
                <use id="zoomplus" xlink:href="#zoomPlus" x="17" y="9" onmousedown="handleZoom(evt,'in')"/>
                <use id="zoomminus" xlink:href="#zoomMin" x="42" y="9" onmousedown="handleZoom(evt,'out')"/>
                <use id="reset" xlink:href="#resetDef" x="30" y="36" onmousedown="handleReset()"/>
                <g id="arrowUp" xlink:href="#dirArrow" transform="translate(30 24)" onmousedown="handlePan(0,-1)">
                  <use xlink:href="#rim" fill="#404040">
                        <set attributeName="fill" to="#808080" begin="arrowUp.mouseover" end="arrowUp.mouseout"/>
                  </use>
                  <path fill="none" stroke="white" stroke-width="1.5" d="M0,-3.0v7 M-2.5,-0.5L0,-3.0L2.5,-0.5"/>
                </g>
                <g id="arrowRight" xlink:href="#dirArrow" transform="rotate(90) translate(36 -43)" onmousedown="handlePan(1,0)">
                  <use xlink:href="#rim" fill="#404040">
                        <set attributeName="fill" to="#808080" begin="arrowRight.mouseover" end="arrowRight.mouseout"/>
                  </use>
                  <path fill="none" stroke="white" stroke-width="1.5" d="M0,-3.0v7 M-2.5,-0.5L0,-3.0L2.5,-0.5"/>
                </g>
                <g id="arrowDown" xlink:href="#dirArrow" transform="rotate(180) translate(-30 -48)" onmousedown="handlePan(0,1)">
                  <use xlink:href="#rim" fill="#404040">
                        <set attributeName="fill" to="#808080" begin="arrowDown.mouseover" end="arrowDown.mouseout"/>
                  </use>
                  <path fill="none" stroke="white" stroke-width="1.5" d="M0,-3.0v7 M-2.5,-0.5L0,-3.0L2.5,-0.5"/>
                </g>
                <g id="arrowLeft" xlink:href="#dirArrow" transform="rotate(270) translate(-36 17)" onmousedown="handlePan(-1,0)">
                  <use xlink:href="#rim" fill="#404040">
                        <set attributeName="fill" to="#808080" begin="arrowLeft.mouseover" end="arrowLeft.mouseout"/>
                  </use>
                  <path fill="none" stroke="white" stroke-width="1.5" d="M0,-3.0v7 M-2.5,-0.5L0,-3.0L2.5,-0.5"/>
                </g>
        </g>
</svg>
