<?xml version="1.0" encoding="UTF-8" standalone="no"?>
<!DOCTYPE svg PUBLIC "-//W3C//DTD SVG 1.1//EN"
 "http://www.w3.org/Graphics/SVG/1.1/DTD/svg11.dtd">
<!-- Generated by graphviz version 2.28.0 (20111025.1818)
 -->
<!-- Title: G Pages: 1 -->
<!--zoomable 140 -->
<svg id="main" version="1.1" xmlns="http://www.w3.org/2000/svg" xmlns:xlink="http://www.w3.org/1999/xlink" xml:space="preserve" onload="init(evt)">
        <defs>
                <circle id="rim" cx="0" cy="0" r="7"/>
                <circle id="rim2" cx="0" cy="0" r="3.5"/>
                <g id="zoomPlus">
                        <use xlink:href="#rim" fill="#404040">
                                <set attributeName="fill" to="#808080" begin="zoomplus.mouseover" end="zoomplus.mouseout"/>
                        </use>
                        <path d="M-4,0h8M0,-4v8" fill="none" stroke="white" stroke-width="1.5" pointer-events="none"/>
                </g>
                <g id="zoomMin">
                        <use xlink:href="#rim" fill="#404040">
                                <set attributeName="fill" to="#808080" begin="zoomminus.mouseover" end="zoomminus.mouseout"/>
                        </use>
                        <path d="M-4,0h8" fill="none" stroke="white" stroke-width="1.5" pointer-events="none"/>
                </g>
                <g id="dirArrow">
                        <path fill="none" stroke="white" stroke-width="1.5" d="M0,-3.0v7 M-2.5,-0.5L0,-3.0L2.5,-0.5"/>
                </g>
               <g id="resetDef">
                       <use xlink:href="#rim2" fill="#404040">
                               <set attributeName="fill" to="#808080" begin="reset.mouseover" end="reset.mouseout"/>
                       </use>
               </g>
        </defs>

<script type="text/javascript">
var viewWidth = 773;
var viewHeight = 140;
var sectionId = 'dynsection-0';
</script>
<script xlink:href="../../svgpan.js"/>
<svg id="graph" class="graph">
<g id="viewport">
<title>G</title>
<polygon fill="white" stroke="white" points="-4,5 -4,-136 770,-136 770,5 -4,5"/>
<!-- Node1 -->
<g id="node1" class="node"><title>Node1</title>
<polygon fill="#bfbfbf" stroke="black" points="230.5,-112.5 230.5,-131.5 339.5,-131.5 339.5,-112.5 230.5,-112.5"/>
<text text-anchor="middle" x="285" y="-119.5" font-family="Helvetica,sans-Serif" font-size="10.00">include/round_robin.h</text>
</g>
<!-- Node2 -->
<g id="node3" class="node"><title>Node2</title>
<polygon fill="white" stroke="#bfbfbf" points="0,-0.5 0,-19.5 52,-19.5 52,-0.5 0,-0.5"/>
<text text-anchor="middle" x="26" y="-7.5" font-family="Helvetica,sans-Serif" font-size="10.00">assert.h</text>
</g>
<!-- Node1&#45;&gt;Node2 -->
<g id="edge2" class="edge"><title>Node1&#45;&gt;Node2</title>
<path fill="none" stroke="midnightblue" d="M230.158,-115.289C191.207,-109.508 138.646,-98.1134 97,-76 74.0503,-63.8141 52.7871,-42.453 39.6277,-27.5573"/>
<polygon fill="midnightblue" stroke="midnightblue" points="42.025,-24.9754 32.8645,-19.6522 36.706,-29.5261 42.025,-24.9754"/>
</g>
<!-- Node3 -->
<g id="node5" class="node"><title>Node3</title>
<a xlink:href="../../d5/dfd/iniReader_8h.xhtml" target="_top" xlink:title="iniReader.h">
<polygon fill="white" stroke="black" points="252,-56.5 252,-75.5 318,-75.5 318,-56.5 252,-56.5"/>
<text text-anchor="middle" x="285" y="-63.5" font-family="Helvetica,sans-Serif" font-size="10.00">iniReader.h</text>
</a>
</g>
<!-- Node1&#45;&gt;Node3 -->
<g id="edge4" class="edge"><title>Node1&#45;&gt;Node3</title>
<path fill="none" stroke="midnightblue" d="M285,-112.083C285,-105.006 285,-94.8611 285,-85.9865"/>
<polygon fill="midnightblue" stroke="midnightblue" points="288.5,-85.751 285,-75.7511 281.5,-85.7511 288.5,-85.751"/>
</g>
<!-- Node11 -->
<g id="node21" class="node"><title>Node11</title>
<a xlink:href="../../d5/dee/data__structs_8h.xhtml" target="_top" xlink:title="data_structs.h">
<polygon fill="white" stroke="black" points="357.5,-56.5 357.5,-75.5 436.5,-75.5 436.5,-56.5 357.5,-56.5"/>
<text text-anchor="middle" x="397" y="-63.5" font-family="Helvetica,sans-Serif" font-size="10.00">data_structs.h</text>
</a>
</g>
<!-- Node1&#45;&gt;Node11 -->
<g id="edge20" class="edge"><title>Node1&#45;&gt;Node11</title>
<path fill="none" stroke="midnightblue" d="M302.995,-112.324C321.038,-103.625 349.047,-90.1202 369.803,-80.113"/>
<polygon fill="midnightblue" stroke="midnightblue" points="371.562,-83.1502 379.05,-75.6545 368.522,-76.8449 371.562,-83.1502"/>
</g>
<!-- Node13 -->
<g id="node29" class="node"><title>Node13</title>
<a xlink:href="../../df/db9/id_8h.xhtml" target="_top" xlink:title="utility/id.h">
<polygon fill="white" stroke="black" points="590.5,-56.5 590.5,-75.5 649.5,-75.5 649.5,-56.5 590.5,-56.5"/>
<text text-anchor="middle" x="620" y="-63.5" font-family="Helvetica,sans-Serif" font-size="10.00">utility/id.h</text>
</a>
</g>
<!-- Node1&#45;&gt;Node13 -->
<g id="edge32" class="edge"><title>Node1&#45;&gt;Node13</title>
<path fill="none" stroke="midnightblue" d="M338.082,-112.444C405.402,-101.592 519.956,-83.1265 580.226,-73.4113"/>
<polygon fill="midnightblue" stroke="midnightblue" points="580.806,-76.8631 590.121,-71.8162 579.692,-69.9523 580.806,-76.8631"/>
</g>
<!-- Node17 -->
<g id="node38" class="node"><title>Node17</title>
<a xlink:href="../../d1/d8c/logger_8h.xhtml" target="_top" xlink:title="utility/logger.h">
<polygon fill="white" stroke="black" points="106.5,-56.5 106.5,-75.5 183.5,-75.5 183.5,-56.5 106.5,-56.5"/>
<text text-anchor="middle" x="145" y="-63.5" font-family="Helvetica,sans-Serif" font-size="10.00">utility/logger.h</text>
</a>
</g>
<!-- Node1&#45;&gt;Node17 -->
<g id="edge42" class="edge"><title>Node1&#45;&gt;Node17</title>
<path fill="none" stroke="midnightblue" d="M262.817,-112.444C239.572,-103.478 202.851,-89.314 176.585,-79.1827"/>
<polygon fill="midnightblue" stroke="midnightblue" points="177.669,-75.8497 167.08,-75.5164 175.15,-82.3807 177.669,-75.8497"/>
</g>
<!-- Node4 -->
<g id="node7" class="node"><title>Node4</title>
<polygon fill="white" stroke="#bfbfbf" points="138,-0.5 138,-19.5 186,-19.5 186,-0.5 138,-0.5"/>
<text text-anchor="middle" x="162" y="-7.5" font-family="Helvetica,sans-Serif" font-size="10.00">stdlib.h</text>
</g>
<!-- Node3&#45;&gt;Node4 -->
<g id="edge6" class="edge"><title>Node3&#45;&gt;Node4</title>
<path fill="none" stroke="midnightblue" d="M265.51,-56.4435C245.358,-47.5961 213.677,-33.6875 190.669,-23.5865"/>
<polygon fill="midnightblue" stroke="midnightblue" points="191.962,-20.3316 181.399,-19.5164 189.148,-26.7411 191.962,-20.3316"/>
</g>
<!-- Node5 -->
<g id="node9" class="node"><title>Node5</title>
<polygon fill="white" stroke="#bfbfbf" points="462.5,-0.5 462.5,-19.5 503.5,-19.5 503.5,-0.5 462.5,-0.5"/>
<text text-anchor="middle" x="483" y="-7.5" font-family="Helvetica,sans-Serif" font-size="10.00">string</text>
</g>
<!-- Node3&#45;&gt;Node5 -->
<g id="edge8" class="edge"><title>Node3&#45;&gt;Node5</title>
<path fill="none" stroke="midnightblue" d="M317.915,-56.4927C349.855,-48.1692 399.93,-34.9407 452.521,-20.0724"/>
<polygon fill="midnightblue" stroke="midnightblue" points="453.703,-23.3754 462.367,-17.2778 451.791,-16.6415 453.703,-23.3754"/>
</g>
<!-- Node6 -->
<g id="node11" class="node"><title>Node6</title>
<polygon fill="white" stroke="#bfbfbf" points="204.5,-0.5 204.5,-19.5 239.5,-19.5 239.5,-0.5 204.5,-0.5"/>
<text text-anchor="middle" x="222" y="-7.5" font-family="Helvetica,sans-Serif" font-size="10.00">map</text>
</g>
<!-- Node3&#45;&gt;Node6 -->
<g id="edge10" class="edge"><title>Node3&#45;&gt;Node6</title>
<path fill="none" stroke="midnightblue" d="M274.878,-56.324C265.474,-48.2631 251.256,-36.0765 239.931,-26.3695"/>
<polygon fill="midnightblue" stroke="midnightblue" points="242.177,-23.6844 232.306,-19.8339 237.621,-28.9993 242.177,-23.6844"/>
</g>
<!-- Node7 -->
<g id="node13" class="node"><title>Node7</title>
<polygon fill="white" stroke="#bfbfbf" points="330,-0.5 330,-19.5 374,-19.5 374,-0.5 330,-0.5"/>
<text text-anchor="middle" x="352" y="-7.5" font-family="Helvetica,sans-Serif" font-size="10.00">vector</text>
</g>
<!-- Node3&#45;&gt;Node7 -->
<g id="edge12" class="edge"><title>Node3&#45;&gt;Node7</title>
<path fill="none" stroke="midnightblue" d="M295.765,-56.324C305.766,-48.2631 320.887,-36.0765 332.93,-26.3695"/>
<polygon fill="midnightblue" stroke="midnightblue" points="335.45,-28.8343 341.039,-19.8339 331.057,-23.3841 335.45,-28.8343"/>
</g>
<!-- Node8 -->
<g id="node15" class="node"><title>Node8</title>
<polygon fill="white" stroke="#bfbfbf" points="258,-0.5 258,-19.5 312,-19.5 312,-0.5 258,-0.5"/>
<text text-anchor="middle" x="285" y="-7.5" font-family="Helvetica,sans-Serif" font-size="10.00">iostream</text>
</g>
<!-- Node3&#45;&gt;Node8 -->
<g id="edge14" class="edge"><title>Node3&#45;&gt;Node8</title>
<path fill="none" stroke="midnightblue" d="M285,-56.083C285,-49.0059 285,-38.8611 285,-29.9865"/>
<polygon fill="midnightblue" stroke="midnightblue" points="288.5,-29.751 285,-19.7511 281.5,-29.7511 288.5,-29.751"/>
</g>
<!-- Node9 -->
<g id="node17" class="node"><title>Node9</title>
<polygon fill="white" stroke="#bfbfbf" points="392,-0.5 392,-19.5 444,-19.5 444,-0.5 392,-0.5"/>
<text text-anchor="middle" x="418" y="-7.5" font-family="Helvetica,sans-Serif" font-size="10.00">sstream</text>
</g>
<!-- Node3&#45;&gt;Node9 -->
<g id="edge16" class="edge"><title>Node3&#45;&gt;Node9</title>
<path fill="none" stroke="midnightblue" d="M306.074,-56.4435C328.06,-47.5171 362.734,-33.4387 387.664,-23.3168"/>
<polygon fill="midnightblue" stroke="midnightblue" points="389.076,-26.5213 397.024,-19.5164 386.442,-20.0355 389.076,-26.5213"/>
</g>
<!-- Node10 -->
<g id="node19" class="node"><title>Node10</title>
<polygon fill="white" stroke="#bfbfbf" points="70,-0.5 70,-19.5 120,-19.5 120,-0.5 70,-0.5"/>
<text text-anchor="middle" x="95" y="-7.5" font-family="Helvetica,sans-Serif" font-size="10.00">fstream</text>
</g>
<!-- Node3&#45;&gt;Node10 -->
<g id="edge18" class="edge"><title>Node3&#45;&gt;Node10</title>
<path fill="none" stroke="midnightblue" d="M254.894,-56.4435C220.989,-46.8075 165.961,-31.168 130.124,-20.9826"/>
<polygon fill="midnightblue" stroke="midnightblue" points="130.687,-17.5041 120.111,-18.1368 128.773,-24.2374 130.687,-17.5041"/>
</g>
<!-- Node11&#45;&gt;Node5 -->
<g id="edge24" class="edge"><title>Node11&#45;&gt;Node5</title>
<path fill="none" stroke="midnightblue" d="M410.817,-56.324C424.233,-47.9002 444.824,-34.9709 460.586,-25.0741"/>
<polygon fill="midnightblue" stroke="midnightblue" points="462.609,-27.9364 469.217,-19.6545 458.887,-22.0081 462.609,-27.9364"/>
</g>
<!-- Node11&#45;&gt;Node7 -->
<g id="edge22" class="edge"><title>Node11&#45;&gt;Node7</title>
<path fill="none" stroke="midnightblue" d="M389.569,-56.083C383.147,-48.3768 373.694,-37.0333 365.878,-27.6531"/>
<polygon fill="midnightblue" stroke="midnightblue" points="368.383,-25.1927 359.293,-19.7511 363.006,-29.674 368.383,-25.1927"/>
</g>
<!-- Node11&#45;&gt;Node8 -->
<g id="edge28" class="edge"><title>Node11&#45;&gt;Node8</title>
<path fill="none" stroke="midnightblue" d="M379.005,-56.324C360.962,-47.6247 332.953,-34.1202 312.197,-24.113"/>
<polygon fill="midnightblue" stroke="midnightblue" points="313.478,-20.8449 302.95,-19.6545 310.438,-27.1502 313.478,-20.8449"/>
</g>
<!-- Node11&#45;&gt;Node9 -->
<g id="edge26" class="edge"><title>Node11&#45;&gt;Node9</title>
<path fill="none" stroke="midnightblue" d="M400.468,-56.083C403.312,-48.77 407.429,-38.1814 410.96,-29.1034"/>
<polygon fill="midnightblue" stroke="midnightblue" points="414.234,-30.3397 414.597,-19.7511 407.71,-27.8025 414.234,-30.3397"/>
</g>
<!-- Node12 -->
<g id="node27" class="node"><title>Node12</title>
<polygon fill="white" stroke="#bfbfbf" points="521.5,-0.5 521.5,-19.5 580.5,-19.5 580.5,-0.5 521.5,-0.5"/>
<text text-anchor="middle" x="551" y="-7.5" font-family="Helvetica,sans-Serif" font-size="10.00">inttypes.h</text>
</g>
<!-- Node11&#45;&gt;Node12 -->
<g id="edge30" class="edge"><title>Node11&#45;&gt;Node12</title>
<path fill="none" stroke="midnightblue" d="M421.402,-56.4435C447.197,-47.3986 488.077,-33.064 517.018,-22.9158"/>
<polygon fill="midnightblue" stroke="midnightblue" points="518.434,-26.1283 526.712,-19.5164 516.118,-19.5226 518.434,-26.1283"/>
</g>
<!-- Node13&#45;&gt;Node5 -->
<g id="edge38" class="edge"><title>Node13&#45;&gt;Node5</title>
<path fill="none" stroke="midnightblue" d="M598.292,-56.4435C575.379,-47.4121 539.086,-33.1067 513.346,-22.9612"/>
<polygon fill="midnightblue" stroke="midnightblue" points="514.297,-19.5738 503.71,-19.1629 511.73,-26.0862 514.297,-19.5738"/>
</g>
<!-- Node14 -->
<g id="node31" class="node"><title>Node14</title>
<polygon fill="white" stroke="#bfbfbf" points="598.5,-0.5 598.5,-19.5 641.5,-19.5 641.5,-0.5 598.5,-0.5"/>
<text text-anchor="middle" x="620" y="-7.5" font-family="Helvetica,sans-Serif" font-size="10.00">cstdio</text>
</g>
<!-- Node13&#45;&gt;Node14 -->
<g id="edge34" class="edge"><title>Node13&#45;&gt;Node14</title>
<path fill="none" stroke="midnightblue" d="M620,-56.083C620,-49.0059 620,-38.8611 620,-29.9865"/>
<polygon fill="midnightblue" stroke="midnightblue" points="623.5,-29.751 620,-19.7511 616.5,-29.7511 623.5,-29.751"/>
</g>
<!-- Node15 -->
<g id="node33" class="node"><title>Node15</title>
<polygon fill="white" stroke="#bfbfbf" points="659.5,-0.5 659.5,-19.5 704.5,-19.5 704.5,-0.5 659.5,-0.5"/>
<text text-anchor="middle" x="682" y="-7.5" font-family="Helvetica,sans-Serif" font-size="10.00">climits</text>
</g>
<!-- Node13&#45;&gt;Node15 -->
<g id="edge36" class="edge"><title>Node13&#45;&gt;Node15</title>
<path fill="none" stroke="midnightblue" d="M629.961,-56.324C639.127,-48.3414 652.937,-36.3128 664.028,-26.6529"/>
<polygon fill="midnightblue" stroke="midnightblue" points="666.615,-29.041 671.857,-19.8339 662.018,-23.7624 666.615,-29.041"/>
</g>
<!-- Node16 -->
<g id="node36" class="node"><title>Node16</title>
<polygon fill="white" stroke="#bfbfbf" points="722.5,-0.5 722.5,-19.5 765.5,-19.5 765.5,-0.5 722.5,-0.5"/>
<text text-anchor="middle" x="744" y="-7.5" font-family="Helvetica,sans-Serif" font-size="10.00">queue</text>
</g>
<!-- Node13&#45;&gt;Node16 -->
<g id="edge40" class="edge"><title>Node13&#45;&gt;Node16</title>
<path fill="none" stroke="midnightblue" d="M639.648,-56.4435C659.965,-47.5961 691.903,-33.6875 715.098,-23.5865"/>
<polygon fill="midnightblue" stroke="midnightblue" points="716.673,-26.7181 724.444,-19.5164 713.878,-20.3002 716.673,-26.7181"/>
</g>
<!-- Node17&#45;&gt;Node2 -->
<g id="edge44" class="edge"><title>Node17&#45;&gt;Node2</title>
<path fill="none" stroke="midnightblue" d="M126.144,-56.4435C106.734,-47.6356 76.2699,-33.8116 54.0355,-23.722"/>
<polygon fill="midnightblue" stroke="midnightblue" points="55.3203,-20.4615 44.7677,-19.5164 52.4277,-26.836 55.3203,-20.4615"/>
</g>
<!-- Node17&#45;&gt;Node8 -->
<g id="edge46" class="edge"><title>Node17&#45;&gt;Node8</title>
<path fill="none" stroke="midnightblue" d="M167.183,-56.4435C190.428,-47.4776 227.149,-33.314 253.415,-23.1827"/>
<polygon fill="midnightblue" stroke="midnightblue" points="254.85,-26.3807 262.92,-19.5164 252.331,-19.8497 254.85,-26.3807"/>
</g>
<!-- Node17&#45;&gt;Node10 -->
<g id="edge48" class="edge"><title>Node17&#45;&gt;Node10</title>
<path fill="none" stroke="midnightblue" d="M136.744,-56.083C129.535,-48.2982 118.89,-36.8015 110.154,-27.3665"/>
<polygon fill="midnightblue" stroke="midnightblue" points="112.465,-24.7108 103.103,-19.7511 107.329,-29.4666 112.465,-24.7108"/>
</g>
</g>
</svg>
        <g id="navigator" transform="translate(0 0)" fill="#404254">
                <rect fill="#f2f5e9" fill-opacity="0.5" stroke="#606060" stroke-width=".5" x="0" y="0" width="60" height="60"/>
                <use id="zoomplus" xlink:href="#zoomPlus" x="17" y="9" onmousedown="handleZoom(evt,'in')"/>
                <use id="zoomminus" xlink:href="#zoomMin" x="42" y="9" onmousedown="handleZoom(evt,'out')"/>
                <use id="reset" xlink:href="#resetDef" x="30" y="36" onmousedown="handleReset()"/>
                <g id="arrowUp" xlink:href="#dirArrow" transform="translate(30 24)" onmousedown="handlePan(0,-1)">
                  <use xlink:href="#rim" fill="#404040">
                        <set attributeName="fill" to="#808080" begin="arrowUp.mouseover" end="arrowUp.mouseout"/>
                  </use>
                  <path fill="none" stroke="white" stroke-width="1.5" d="M0,-3.0v7 M-2.5,-0.5L0,-3.0L2.5,-0.5"/>
                </g>
                <g id="arrowRight" xlink:href="#dirArrow" transform="rotate(90) translate(36 -43)" onmousedown="handlePan(1,0)">
                  <use xlink:href="#rim" fill="#404040">
                        <set attributeName="fill" to="#808080" begin="arrowRight.mouseover" end="arrowRight.mouseout"/>
                  </use>
                  <path fill="none" stroke="white" stroke-width="1.5" d="M0,-3.0v7 M-2.5,-0.5L0,-3.0L2.5,-0.5"/>
                </g>
                <g id="arrowDown" xlink:href="#dirArrow" transform="rotate(180) translate(-30 -48)" onmousedown="handlePan(0,1)">
                  <use xlink:href="#rim" fill="#404040">
                        <set attributeName="fill" to="#808080" begin="arrowDown.mouseover" end="arrowDown.mouseout"/>
                  </use>
                  <path fill="none" stroke="white" stroke-width="1.5" d="M0,-3.0v7 M-2.5,-0.5L0,-3.0L2.5,-0.5"/>
                </g>
                <g id="arrowLeft" xlink:href="#dirArrow" transform="rotate(270) translate(-36 17)" onmousedown="handlePan(-1,0)">
                  <use xlink:href="#rim" fill="#404040">
                        <set attributeName="fill" to="#808080" begin="arrowLeft.mouseover" end="arrowLeft.mouseout"/>
                  </use>
                  <path fill="none" stroke="white" stroke-width="1.5" d="M0,-3.0v7 M-2.5,-0.5L0,-3.0L2.5,-0.5"/>
                </g>
        </g>
</svg>
