<?xml version="1.0" encoding="UTF-8" standalone="no"?>
<!DOCTYPE svg PUBLIC "-//W3C//DTD SVG 1.1//EN"
 "http://www.w3.org/Graphics/SVG/1.1/DTD/svg11.dtd">
<!-- Generated by graphviz version 2.28.0 (20111025.1818)
 -->
<!-- Title: G Pages: 1 -->
<!--zoomable 466 -->
<svg id="main" version="1.1" xmlns="http://www.w3.org/2000/svg" xmlns:xlink="http://www.w3.org/1999/xlink" xml:space="preserve" onload="init(evt)">
        <defs>
                <circle id="rim" cx="0" cy="0" r="7"/>
                <circle id="rim2" cx="0" cy="0" r="3.5"/>
                <g id="zoomPlus">
                        <use xlink:href="#rim" fill="#404040">
                                <set attributeName="fill" to="#808080" begin="zoomplus.mouseover" end="zoomplus.mouseout"/>
                        </use>
                        <path d="M-4,0h8M0,-4v8" fill="none" stroke="white" stroke-width="1.5" pointer-events="none"/>
                </g>
                <g id="zoomMin">
                        <use xlink:href="#rim" fill="#404040">
                                <set attributeName="fill" to="#808080" begin="zoomminus.mouseover" end="zoomminus.mouseout"/>
                        </use>
                        <path d="M-4,0h8" fill="none" stroke="white" stroke-width="1.5" pointer-events="none"/>
                </g>
                <g id="dirArrow">
                        <path fill="none" stroke="white" stroke-width="1.5" d="M0,-3.0v7 M-2.5,-0.5L0,-3.0L2.5,-0.5"/>
                </g>
               <g id="resetDef">
                       <use xlink:href="#rim2" fill="#404040">
                               <set attributeName="fill" to="#808080" begin="reset.mouseover" end="reset.mouseout"/>
                       </use>
               </g>
        </defs>

<script type="text/javascript">
var viewWidth = 1984;
var viewHeight = 466;
var sectionId = 'dynsection-0';
</script>
<script xlink:href="../../svgpan.js"/>
<svg id="graph" class="graph">
<g id="viewport">
<title>G</title>
<polygon fill="white" stroke="white" points="-4,5 -4,-461.81 1981,-461.81 1981,5 -4,5"/>
<!-- Node1 -->
<g id="node1" class="node"><title>Node1</title>
<polygon fill="#bfbfbf" stroke="black" points="1930.5,-283.31 1930.5,-302.31 1975.5,-302.31 1975.5,-283.31 1930.5,-283.31"/>
<text text-anchor="middle" x="1953" y="-290.31" font-family="Helvetica,sans-Serif" font-size="10.00">cVMM</text>
</g>
<!-- Node2 -->
<g id="node2" class="node"><title>Node2</title>
<a xlink:href="../../d7/df0/classcPRPolicy.xhtml" target="_top" xlink:title="Abstract Page Replacement Policy.">
<polygon fill="white" stroke="black" points="1770.5,-388.31 1770.5,-407.31 1833.5,-407.31 1833.5,-388.31 1770.5,-388.31"/>
<text text-anchor="middle" x="1802" y="-395.31" font-family="Helvetica,sans-Serif" font-size="10.00">cPRPolicy</text>
</a>
</g>
<!-- Node2&#45;&gt;Node1 -->
<g id="edge2" class="edge"><title>Node2&#45;&gt;Node1</title>
<path fill="none" stroke="#9a32cd" stroke-dasharray="5,2" d="M1843.32,-390.788C1865.46,-385.312 1892.33,-375.843 1912,-359.81 1931.11,-344.229 1943.26,-316.938 1948.7,-302.463"/>
<polygon fill="#9a32cd" stroke="#9a32cd" points="1842.49,-387.388 1833.52,-393.032 1844.05,-394.211 1842.49,-387.388"/>
<text text-anchor="middle" x="1887" y="-387.81" font-family="Helvetica,sans-Serif" font-size="10.00"> PRModule</text>
</g>
<!-- Node3 -->
<g id="node4" class="node"><title>Node3</title>
<a xlink:href="../../dc/dcc/classcRoundRobin.xhtml" target="_top" xlink:title="Round Robin Scheduler.">
<polygon fill="white" stroke="black" points="1764,-350.31 1764,-369.31 1840,-369.31 1840,-350.31 1764,-350.31"/>
<text text-anchor="middle" x="1802" y="-357.31" font-family="Helvetica,sans-Serif" font-size="10.00">cRoundRobin</text>
</a>
</g>
<!-- Node3&#45;&gt;Node1 -->
<g id="edge4" class="edge"><title>Node3&#45;&gt;Node1</title>
<path fill="none" stroke="#9a32cd" stroke-dasharray="5,2" d="M1849.93,-348.789C1869.76,-343.119 1892.68,-335.185 1912,-324.81 1923.28,-318.752 1934.53,-309.384 1942.21,-302.347"/>
<polygon fill="#9a32cd" stroke="#9a32cd" points="1848.9,-345.443 1840.18,-351.469 1850.75,-352.193 1848.9,-345.443"/>
<text text-anchor="middle" x="1887" y="-347.81" font-family="Helvetica,sans-Serif" font-size="10.00"> scheduler</text>
</g>
<!-- Node4 -->
<g id="node6" class="node"><title>Node4</title>
<a xlink:href="../../d4/d8e/structsProc.xhtml" target="_top" xlink:title="Struct representing a process.">
<polygon fill="white" stroke="black" points="1212,-332.31 1212,-351.31 1254,-351.31 1254,-332.31 1212,-332.31"/>
<text text-anchor="middle" x="1233" y="-339.31" font-family="Helvetica,sans-Serif" font-size="10.00">sProc</text>
</a>
</g>
<!-- Node4&#45;&gt;Node3 -->
<g id="edge6" class="edge"><title>Node4&#45;&gt;Node3</title>
<path fill="none" stroke="#9a32cd" stroke-dasharray="5,2" d="M1264.23,-346.068C1280.69,-348.197 1301.42,-350.578 1320,-351.81 1485.21,-362.762 1683,-361.549 1763.83,-360.444"/>
<polygon fill="#9a32cd" stroke="#9a32cd" points="1264.48,-342.569 1254.11,-344.719 1263.56,-349.508 1264.48,-342.569"/>
<text text-anchor="middle" x="1567" y="-363.81" font-family="Helvetica,sans-Serif" font-size="10.00"> runningProc</text>
</g>
<!-- Node15 -->
<g id="node28" class="node"><title>Node15</title>
<polygon fill="white" stroke="#bfbfbf" points="1510.5,-399.31 1510.5,-418.31 1623.5,-418.31 1623.5,-399.31 1510.5,-399.31"/>
<text text-anchor="middle" x="1567" y="-406.31" font-family="Helvetica,sans-Serif" font-size="10.00">std::queue&lt; sProc * &gt;</text>
</g>
<!-- Node4&#45;&gt;Node15 -->
<g id="edge30" class="edge"><title>Node4&#45;&gt;Node15</title>
<path fill="none" stroke="#9a32cd" stroke-dasharray="5,2" d="M1258.55,-356.705C1275.27,-366.103 1298.23,-377.601 1320,-383.81 1383.58,-401.939 1459.68,-407.303 1510.24,-408.7"/>
<polygon fill="#9a32cd" stroke="#9a32cd" points="1259.9,-353.441 1249.49,-351.47 1256.4,-359.503 1259.9,-353.441"/>
<text text-anchor="middle" x="1389" y="-407.81" font-family="Helvetica,sans-Serif" font-size="10.00"> elements</text>
</g>
<!-- Node16 -->
<g id="node31" class="node"><title>Node16</title>
<polygon fill="white" stroke="#bfbfbf" points="1510.5,-314.31 1510.5,-333.31 1623.5,-333.31 1623.5,-314.31 1510.5,-314.31"/>
<text text-anchor="middle" x="1567" y="-321.31" font-family="Helvetica,sans-Serif" font-size="10.00">std::vector&lt; sProc * &gt;</text>
</g>
<!-- Node4&#45;&gt;Node16 -->
<g id="edge34" class="edge"><title>Node4&#45;&gt;Node16</title>
<path fill="none" stroke="#9a32cd" stroke-dasharray="5,2" d="M1264.57,-340.153C1320.45,-337.122 1439.86,-330.649 1510.46,-326.821"/>
<polygon fill="#9a32cd" stroke="#9a32cd" points="1264.06,-336.675 1254.27,-340.711 1264.44,-343.664 1264.06,-336.675"/>
<text text-anchor="middle" x="1389" y="-339.81" font-family="Helvetica,sans-Serif" font-size="10.00"> elements</text>
</g>
<!-- Node19 -->
<g id="node38" class="node"><title>Node19</title>
<a xlink:href="../../d2/dc6/classcCPU.xhtml" target="_top" xlink:title="Very Simple CPU.">
<polygon fill="white" stroke="black" points="1545,-218.31 1545,-237.31 1589,-237.31 1589,-218.31 1545,-218.31"/>
<text text-anchor="middle" x="1567" y="-225.31" font-family="Helvetica,sans-Serif" font-size="10.00">cCPU</text>
</a>
</g>
<!-- Node4&#45;&gt;Node19 -->
<g id="edge42" class="edge"><title>Node4&#45;&gt;Node19</title>
<path fill="none" stroke="#9a32cd" stroke-dasharray="5,2" d="M1263.95,-331.62C1280.39,-326.228 1301.19,-319.726 1320,-314.81 1380.64,-298.96 1408.98,-324.864 1458,-285.81 1472.93,-273.914 1461.07,-258.713 1476,-246.81 1495.6,-231.177 1525.01,-227.573 1544.83,-227.123"/>
<polygon fill="#9a32cd" stroke="#9a32cd" points="1262.73,-328.338 1254.34,-334.809 1264.94,-334.982 1262.73,-328.338"/>
<text text-anchor="middle" x="1389" y="-317.81" font-family="Helvetica,sans-Serif" font-size="10.00"> curProc</text>
</g>
<!-- Node5 -->
<g id="node8" class="node"><title>Node5</title>
<a xlink:href="../../db/d4b/structsPTE.xhtml" target="_top" xlink:title="A struct representing a single page table entry.">
<polygon fill="white" stroke="black" points="699.5,-146.31 699.5,-165.31 740.5,-165.31 740.5,-146.31 699.5,-146.31"/>
<text text-anchor="middle" x="720" y="-153.31" font-family="Helvetica,sans-Serif" font-size="10.00">sPTE</text>
</a>
</g>
<!-- Node5&#45;&gt;Node4 -->
<g id="edge8" class="edge"><title>Node5&#45;&gt;Node4</title>
<path fill="none" stroke="#9a32cd" stroke-dasharray="5,2" d="M750.614,-165.612C803.963,-183.389 919.636,-222.479 1016,-258.81 1082.41,-283.849 1097.46,-294.095 1164,-318.81 1180.01,-324.755 1198.35,-330.924 1211.96,-335.375"/>
<polygon fill="#9a32cd" stroke="#9a32cd" points="751.393,-162.182 740.799,-162.347 749.184,-168.824 751.393,-162.182"/>
<text text-anchor="middle" x="971" y="-261.81" font-family="Helvetica,sans-Serif" font-size="10.00"> PTptr</text>
</g>
<!-- Node20 -->
<g id="node41" class="node"><title>Node20</title>
<a xlink:href="../../df/deb/classcMMU.xhtml" target="_top" xlink:title="Class representing an MMU in the CPU.">
<polygon fill="white" stroke="black" points="1210,-198.31 1210,-217.31 1256,-217.31 1256,-198.31 1210,-198.31"/>
<text text-anchor="middle" x="1233" y="-205.31" font-family="Helvetica,sans-Serif" font-size="10.00">cMMU</text>
</a>
</g>
<!-- Node5&#45;&gt;Node20 -->
<g id="edge46" class="edge"><title>Node5&#45;&gt;Node20</title>
<path fill="none" stroke="#9a32cd" stroke-dasharray="5,2" d="M750.865,-158.849C844.049,-168.331 1128.09,-197.236 1209.8,-205.55"/>
<polygon fill="#9a32cd" stroke="#9a32cd" points="751.022,-155.347 740.719,-157.816 750.313,-162.311 751.022,-155.347"/>
<text text-anchor="middle" x="971" y="-187.81" font-family="Helvetica,sans-Serif" font-size="10.00"> ptbr</text>
</g>
<!-- Node29 -->
<g id="node63" class="node"><title>Node29</title>
<a xlink:href="../../de/d05/structsIOContext.xhtml" target="_top" xlink:title="Struct for holding the context of an I/O operation.">
<polygon fill="white" stroke="black" points="937.5,-68.3097 937.5,-87.3097 1004.5,-87.3097 1004.5,-68.3097 937.5,-68.3097"/>
<text text-anchor="middle" x="971" y="-75.3097" font-family="Helvetica,sans-Serif" font-size="10.00">sIOContext</text>
</a>
</g>
<!-- Node5&#45;&gt;Node29 -->
<g id="edge72" class="edge"><title>Node5&#45;&gt;Node29</title>
<path fill="none" stroke="#9a32cd" stroke-dasharray="5,2" d="M750.218,-146.657C797.733,-131.773 891.284,-102.468 939.569,-87.3423"/>
<polygon fill="#9a32cd" stroke="#9a32cd" points="749.035,-143.36 740.539,-149.689 751.128,-150.04 749.035,-143.36"/>
<text text-anchor="middle" x="862" y="-125.81" font-family="Helvetica,sans-Serif" font-size="10.00"> page</text>
</g>
<!-- Node31 -->
<g id="node69" class="node"><title>Node31</title>
<polygon fill="white" stroke="#bfbfbf" points="1034,-8.30972 1034,-27.3097 1146,-27.3097 1146,-8.30972 1034,-8.30972"/>
<text text-anchor="middle" x="1090" y="-15.3097" font-family="Helvetica,sans-Serif" font-size="10.00">std::queue&lt; sPTE * &gt;</text>
</g>
<!-- Node5&#45;&gt;Node31 -->
<g id="edge80" class="edge"><title>Node5&#45;&gt;Node31</title>
<path fill="none" stroke="#9a32cd" stroke-dasharray="5,2" d="M738.002,-139.413C755.972,-122.976 785.84,-98.1142 816,-83.8097 887.152,-50.0628 977.18,-32.6281 1033.95,-24.3549"/>
<polygon fill="#9a32cd" stroke="#9a32cd" points="735.543,-136.92 730.623,-146.304 740.321,-142.036 735.543,-136.92"/>
<text text-anchor="middle" x="862" y="-86.8097" font-family="Helvetica,sans-Serif" font-size="10.00"> elements</text>
</g>
<!-- Node6 -->
<g id="node10" class="node"><title>Node6</title>
<a xlink:title="STL class.">
<polygon fill="white" stroke="#bfbfbf" points="816,-361.31 816,-380.31 908,-380.31 908,-361.31 816,-361.31"/>
<text text-anchor="middle" x="862" y="-368.31" font-family="Helvetica,sans-Serif" font-size="10.00">std::istringstream</text>
</a>
</g>
<!-- Node6&#45;&gt;Node4 -->
<g id="edge10" class="edge"><title>Node6&#45;&gt;Node4</title>
<path fill="none" stroke="#9a32cd" stroke-dasharray="5,2" d="M918.376,-367.45C975.459,-363.857 1067.01,-357.732 1146,-350.81 1168.58,-348.831 1194.44,-346.055 1211.86,-344.111"/>
<polygon fill="#9a32cd" stroke="#9a32cd" points="917.892,-363.973 908.13,-368.091 918.329,-370.96 917.892,-363.973"/>
<text text-anchor="middle" x="971" y="-369.81" font-family="Helvetica,sans-Serif" font-size="10.00"> data</text>
</g>
<!-- Node7 -->
<g id="node12" class="node"><title>Node7</title>
<a xlink:title="STL class.">
<polygon fill="white" stroke="#bfbfbf" points="446,-343.31 446,-362.31 604,-362.31 604,-343.31 446,-343.31"/>
<text text-anchor="middle" x="525" y="-350.31" font-family="Helvetica,sans-Serif" font-size="10.00">std::basic_istringstream&lt; char &gt;</text>
</a>
</g>
<!-- Node7&#45;&gt;Node6 -->
<g id="edge12" class="edge"><title>Node7&#45;&gt;Node6</title>
<path fill="none" stroke="midnightblue" d="M614.327,-357.556C679.073,-361.035 764.317,-365.615 815.763,-368.379"/>
<polygon fill="midnightblue" stroke="midnightblue" points="614.293,-354.049 604.12,-357.007 613.918,-361.039 614.293,-354.049"/>
</g>
<!-- Node8 -->
<g id="node14" class="node"><title>Node8</title>
<a xlink:title="STL class.">
<polygon fill="white" stroke="#bfbfbf" points="270,-325.31 270,-344.31 406,-344.31 406,-325.31 270,-325.31"/>
<text text-anchor="middle" x="338" y="-332.31" font-family="Helvetica,sans-Serif" font-size="10.00">std::basic_istream&lt; Char &gt;</text>
</a>
</g>
<!-- Node8&#45;&gt;Node7 -->
<g id="edge14" class="edge"><title>Node8&#45;&gt;Node7</title>
<path fill="none" stroke="midnightblue" d="M416.172,-342.318C425.985,-343.273 436.035,-344.251 445.863,-345.207"/>
<polygon fill="midnightblue" stroke="midnightblue" points="416.343,-338.819 406.051,-341.334 415.665,-345.786 416.343,-338.819"/>
</g>
<!-- Node24 -->
<g id="node50" class="node"><title>Node24</title>
<a xlink:title="STL class.">
<polygon fill="white" stroke="#bfbfbf" points="454.5,-287.31 454.5,-306.31 595.5,-306.31 595.5,-287.31 454.5,-287.31"/>
<text text-anchor="middle" x="525" y="-294.31" font-family="Helvetica,sans-Serif" font-size="10.00">std::basic_iostream&lt; Char &gt;</text>
</a>
</g>
<!-- Node8&#45;&gt;Node24 -->
<g id="edge56" class="edge"><title>Node8&#45;&gt;Node24</title>
<path fill="none" stroke="midnightblue" d="M395.52,-323.2C421.831,-317.796 452.743,-311.446 477.652,-306.33"/>
<polygon fill="midnightblue" stroke="midnightblue" points="394.775,-319.78 385.683,-325.221 396.183,-326.637 394.775,-319.78"/>
</g>
<!-- Node9 -->
<g id="node16" class="node"><title>Node9</title>
<a xlink:title="STL class.">
<polygon fill="white" stroke="#bfbfbf" points="114,-307.31 114,-326.31 230,-326.31 230,-307.31 114,-307.31"/>
<text text-anchor="middle" x="172" y="-314.31" font-family="Helvetica,sans-Serif" font-size="10.00">std::basic_ios&lt; Char &gt;</text>
</a>
</g>
<!-- Node9&#45;&gt;Node8 -->
<g id="edge16" class="edge"><title>Node9&#45;&gt;Node8</title>
<path fill="none" stroke="midnightblue" d="M240.369,-324.204C250.096,-325.271 260.106,-326.37 269.829,-327.437"/>
<polygon fill="midnightblue" stroke="midnightblue" points="240.681,-320.717 230.359,-323.105 239.918,-327.675 240.681,-320.717"/>
</g>
<!-- Node25 -->
<g id="node53" class="node"><title>Node25</title>
<a xlink:title="STL class.">
<polygon fill="white" stroke="#bfbfbf" points="268.5,-287.31 268.5,-306.31 407.5,-306.31 407.5,-287.31 268.5,-287.31"/>
<text text-anchor="middle" x="338" y="-294.31" font-family="Helvetica,sans-Serif" font-size="10.00">std::basic_ostream&lt; Char &gt;</text>
</a>
</g>
<!-- Node9&#45;&gt;Node25 -->
<g id="edge60" class="edge"><title>Node9&#45;&gt;Node25</title>
<path fill="none" stroke="midnightblue" d="M240.298,-308.603C249.572,-307.472 259.106,-306.309 268.403,-305.175"/>
<polygon fill="midnightblue" stroke="midnightblue" points="239.862,-305.13 230.359,-309.815 240.709,-312.078 239.862,-305.13"/>
</g>
<!-- Node10 -->
<g id="node18" class="node"><title>Node10</title>
<a xlink:title="STL class.">
<polygon fill="white" stroke="#bfbfbf" points="0.5,-307.31 0.5,-326.31 75.5,-326.31 75.5,-307.31 0.5,-307.31"/>
<text text-anchor="middle" x="38" y="-314.31" font-family="Helvetica,sans-Serif" font-size="10.00">std::ios_base</text>
</a>
</g>
<!-- Node10&#45;&gt;Node9 -->
<g id="edge18" class="edge"><title>Node10&#45;&gt;Node9</title>
<path fill="none" stroke="midnightblue" d="M85.7791,-316.81C94.8829,-316.81 104.521,-316.81 113.914,-316.81"/>
<polygon fill="midnightblue" stroke="midnightblue" points="85.7694,-313.31 75.7694,-316.81 85.7693,-320.31 85.7694,-313.31"/>
</g>
<!-- Node11 -->
<g id="node20" class="node"><title>Node11</title>
<a xlink:title="STL class.">
<polygon fill="white" stroke="#bfbfbf" points="941,-317.31 941,-336.31 1001,-336.31 1001,-317.31 941,-317.31"/>
<text text-anchor="middle" x="971" y="-324.31" font-family="Helvetica,sans-Serif" font-size="10.00">std::string</text>
</a>
</g>
<!-- Node11&#45;&gt;Node4 -->
<g id="edge20" class="edge"><title>Node11&#45;&gt;Node4</title>
<path fill="none" stroke="#9a32cd" stroke-dasharray="5,2" d="M1011.36,-329.081C1067.66,-332.328 1169.08,-338.18 1211.98,-340.655"/>
<polygon fill="#9a32cd" stroke="#9a32cd" points="1011.25,-325.569 1001.07,-328.487 1010.85,-332.557 1011.25,-325.569"/>
<text text-anchor="middle" x="1090" y="-338.81" font-family="Helvetica,sans-Serif" font-size="10.00"> rline</text>
</g>
<!-- Node11&#45;&gt;Node19 -->
<g id="edge62" class="edge"><title>Node11&#45;&gt;Node19</title>
<path fill="none" stroke="#9a32cd" stroke-dasharray="5,2" d="M1011.13,-320.288C1125.67,-301.198 1457.67,-245.865 1544.83,-231.337"/>
<polygon fill="#9a32cd" stroke="#9a32cd" points="1010.34,-316.871 1001.05,-321.968 1011.49,-323.776 1010.34,-316.871"/>
<text text-anchor="middle" x="1233" y="-306.81" font-family="Helvetica,sans-Serif" font-size="10.00"> addr</text>
<text text-anchor="middle" x="1233" y="-295.81" font-family="Helvetica,sans-Serif" font-size="10.00">opCode</text>
</g>
<!-- Node12 -->
<g id="node22" class="node"><title>Node12</title>
<a xlink:title="STL class.">
<polygon fill="white" stroke="#bfbfbf" points="657.5,-317.31 657.5,-336.31 782.5,-336.31 782.5,-317.31 657.5,-317.31"/>
<text text-anchor="middle" x="720" y="-324.31" font-family="Helvetica,sans-Serif" font-size="10.00">std::basic_string&lt; char &gt;</text>
</a>
</g>
<!-- Node12&#45;&gt;Node11 -->
<g id="edge22" class="edge"><title>Node12&#45;&gt;Node11</title>
<path fill="none" stroke="midnightblue" d="M792.825,-326.81C841.998,-326.81 904.611,-326.81 940.716,-326.81"/>
<polygon fill="midnightblue" stroke="midnightblue" points="792.551,-323.31 782.551,-326.81 792.551,-330.31 792.551,-323.31"/>
</g>
<!-- Node13 -->
<g id="node24" class="node"><title>Node13</title>
<a xlink:href="../../de/dd4/classcIDManager.xhtml" target="_top" xlink:title="A class for managing unique IDs.">
<polygon fill="white" stroke="black" points="1532,-437.31 1532,-456.31 1602,-456.31 1602,-437.31 1532,-437.31"/>
<text text-anchor="middle" x="1567" y="-444.31" font-family="Helvetica,sans-Serif" font-size="10.00">cIDManager</text>
</a>
</g>
<!-- Node13&#45;&gt;Node3 -->
<g id="edge24" class="edge"><title>Node13&#45;&gt;Node3</title>
<path fill="none" stroke="#9a32cd" stroke-dasharray="5,2" d="M1612.27,-447.505C1650.09,-445.957 1704.21,-438.432 1742,-410.81 1755.17,-401.18 1748.02,-389.887 1760,-378.81 1764.03,-375.082 1768.93,-371.972 1773.91,-369.421"/>
<polygon fill="#9a32cd" stroke="#9a32cd" points="1611.96,-444.012 1602.07,-447.795 1612.16,-451.009 1611.96,-444.012"/>
<text text-anchor="middle" x="1709" y="-441.81" font-family="Helvetica,sans-Serif" font-size="10.00"> blockedID</text>
</g>
<!-- Node14 -->
<g id="node26" class="node"><title>Node14</title>
<polygon fill="white" stroke="#bfbfbf" points="1166.5,-437.31 1166.5,-456.31 1299.5,-456.31 1299.5,-437.31 1166.5,-437.31"/>
<text text-anchor="middle" x="1233" y="-444.31" font-family="Helvetica,sans-Serif" font-size="10.00">std::queue&lt; unsigned int &gt;</text>
</g>
<!-- Node14&#45;&gt;Node13 -->
<g id="edge26" class="edge"><title>Node14&#45;&gt;Node13</title>
<path fill="none" stroke="#9a32cd" stroke-dasharray="5,2" d="M1309.64,-446.81C1379.29,-446.81 1479.48,-446.81 1531.58,-446.81"/>
<polygon fill="#9a32cd" stroke="#9a32cd" points="1309.59,-443.31 1299.59,-446.81 1309.59,-450.31 1309.59,-443.31"/>
<text text-anchor="middle" x="1389" y="-449.81" font-family="Helvetica,sans-Serif" font-size="10.00"> freeID</text>
</g>
<!-- Node15&#45;&gt;Node3 -->
<g id="edge28" class="edge"><title>Node15&#45;&gt;Node3</title>
<path fill="none" stroke="#9a32cd" stroke-dasharray="5,2" d="M1633.53,-403.211C1666.46,-399.438 1706.76,-393.355 1742,-383.81 1755.34,-380.196 1769.72,-374.389 1780.94,-369.393"/>
<polygon fill="#9a32cd" stroke="#9a32cd" points="1633.11,-399.735 1623.55,-404.309 1633.88,-406.693 1633.11,-399.735"/>
<text text-anchor="middle" x="1709" y="-398.81" font-family="Helvetica,sans-Serif" font-size="10.00"> readyQueue</text>
</g>
<!-- Node16&#45;&gt;Node1 -->
<g id="edge88" class="edge"><title>Node16&#45;&gt;Node1</title>
<path fill="none" stroke="#9a32cd" stroke-dasharray="5,2" d="M1634.06,-319.045C1703.34,-313.95 1815.37,-305.432 1912,-296.81 1917.98,-296.276 1924.45,-295.65 1930.42,-295.053"/>
<polygon fill="#9a32cd" stroke="#9a32cd" points="1633.46,-315.58 1623.74,-319.802 1633.97,-322.561 1633.46,-315.58"/>
<text text-anchor="middle" x="1802" y="-311.81" font-family="Helvetica,sans-Serif" font-size="10.00"> procs</text>
</g>
<!-- Node16&#45;&gt;Node3 -->
<g id="edge32" class="edge"><title>Node16&#45;&gt;Node3</title>
<path fill="none" stroke="#9a32cd" stroke-dasharray="5,2" d="M1633.86,-329.737C1666.54,-333.19 1706.51,-338.185 1742,-344.81 1750,-346.303 1758.53,-348.255 1766.54,-350.255"/>
<polygon fill="#9a32cd" stroke="#9a32cd" points="1633.83,-326.215 1623.52,-328.67 1633.11,-333.178 1633.83,-326.215"/>
<text text-anchor="middle" x="1709" y="-347.81" font-family="Helvetica,sans-Serif" font-size="10.00"> blockedVector</text>
</g>
<!-- Node17 -->
<g id="node34" class="node"><title>Node17</title>
<a xlink:href="../../d3/d6f/classcCleanDaemon.xhtml" target="_top" xlink:title="Cleaning Daemon for system.">
<polygon fill="white" stroke="black" points="1760,-255.31 1760,-274.31 1844,-274.31 1844,-255.31 1760,-255.31"/>
<text text-anchor="middle" x="1802" y="-262.31" font-family="Helvetica,sans-Serif" font-size="10.00">cCleanDaemon</text>
</a>
</g>
<!-- Node17&#45;&gt;Node1 -->
<g id="edge36" class="edge"><title>Node17&#45;&gt;Node1</title>
<path fill="none" stroke="#9a32cd" stroke-dasharray="5,2" d="M1854.21,-274.433C1880.22,-279.322 1910.45,-285.002 1930.33,-288.738"/>
<polygon fill="#9a32cd" stroke="#9a32cd" points="1854.58,-270.942 1844.11,-272.535 1853.29,-277.822 1854.58,-270.942"/>
<text text-anchor="middle" x="1887" y="-286.81" font-family="Helvetica,sans-Serif" font-size="10.00"> cDaemon</text>
</g>
<!-- Node18 -->
<g id="node36" class="node"><title>Node18</title>
<a xlink:href="../../d3/dd2/classcFrameAllocPolicy.xhtml" target="_top" xlink:title="An abstract class for allocating frames to processes.">
<polygon fill="white" stroke="black" points="1518,-256.31 1518,-275.31 1616,-275.31 1616,-256.31 1518,-256.31"/>
<text text-anchor="middle" x="1567" y="-263.31" font-family="Helvetica,sans-Serif" font-size="10.00">cFrameAllocPolicy</text>
</a>
</g>
<!-- Node18&#45;&gt;Node17 -->
<g id="edge38" class="edge"><title>Node18&#45;&gt;Node17</title>
<path fill="none" stroke="#9a32cd" stroke-dasharray="5,2" d="M1626.53,-265.559C1668.07,-265.38 1722.79,-265.145 1759.79,-264.987"/>
<polygon fill="#9a32cd" stroke="#9a32cd" points="1626.26,-262.06 1616.28,-265.603 1626.29,-269.059 1626.26,-262.06"/>
<text text-anchor="middle" x="1709" y="-267.81" font-family="Helvetica,sans-Serif" font-size="10.00"> FAPolicy</text>
</g>
<!-- Node19&#45;&gt;Node1 -->
<g id="edge40" class="edge"><title>Node19&#45;&gt;Node1</title>
<path fill="none" stroke="#9a32cd" stroke-dasharray="5,2" d="M1599.47,-223.952C1651.42,-218.608 1757.92,-211.994 1844,-234.81 1881.03,-244.625 1919.38,-269.312 1938.89,-283.105"/>
<polygon fill="#9a32cd" stroke="#9a32cd" points="1598.81,-220.503 1589.24,-225.062 1599.56,-227.462 1598.81,-220.503"/>
<text text-anchor="middle" x="1802" y="-237.81" font-family="Helvetica,sans-Serif" font-size="10.00"> cpu</text>
</g>
<!-- Node20&#45;&gt;Node19 -->
<g id="edge44" class="edge"><title>Node20&#45;&gt;Node19</title>
<path fill="none" stroke="#9a32cd" stroke-dasharray="5,2" d="M1266.07,-209.742C1333.39,-213.797 1487.9,-223.105 1544.61,-226.521"/>
<polygon fill="#9a32cd" stroke="#9a32cd" points="1266.23,-206.245 1256.04,-209.137 1265.81,-213.233 1266.23,-206.245"/>
<text text-anchor="middle" x="1389" y="-222.81" font-family="Helvetica,sans-Serif" font-size="10.00"> mmu</text>
</g>
<!-- Node21 -->
<g id="node44" class="node"><title>Node21</title>
<a xlink:href="../../d2/deb/structsTLBE.xhtml" target="_top" xlink:title="Struct representing a single entry in the TLB.">
<polygon fill="white" stroke="black" points="947.5,-135.31 947.5,-154.31 994.5,-154.31 994.5,-135.31 947.5,-135.31"/>
<text text-anchor="middle" x="971" y="-142.31" font-family="Helvetica,sans-Serif" font-size="10.00">sTLBE</text>
</a>
</g>
<!-- Node21&#45;&gt;Node20 -->
<g id="edge48" class="edge"><title>Node21&#45;&gt;Node20</title>
<path fill="none" stroke="#9a32cd" stroke-dasharray="5,2" d="M1005,-145.532C1040.49,-147.055 1098.27,-151.71 1146,-165.81 1171.97,-173.482 1199.74,-188.411 1216.48,-198.246"/>
<polygon fill="#9a32cd" stroke="#9a32cd" points="1004.85,-142.024 994.732,-145.152 1004.6,-149.019 1004.85,-142.024"/>
<text text-anchor="middle" x="1090" y="-168.81" font-family="Helvetica,sans-Serif" font-size="10.00"> TLB</text>
</g>
<!-- Node22 -->
<g id="node46" class="node"><title>Node22</title>
<a xlink:title="STL class.">
<polygon fill="white" stroke="#bfbfbf" points="926,-279.31 926,-298.31 1016,-298.31 1016,-279.31 926,-279.31"/>
<text text-anchor="middle" x="971" y="-286.31" font-family="Helvetica,sans-Serif" font-size="10.00">std::stringstream</text>
</a>
</g>
<!-- Node22&#45;&gt;Node20 -->
<g id="edge50" class="edge"><title>Node22&#45;&gt;Node20</title>
<path fill="none" stroke="#9a32cd" stroke-dasharray="5,2" d="M1000.83,-274.141C1005.99,-271.221 1011.23,-268.051 1016,-264.81 1024.61,-258.955 1024.63,-254.357 1034,-249.81 1093.27,-221.04 1171.94,-211.883 1209.79,-209.042"/>
<polygon fill="#9a32cd" stroke="#9a32cd" points="998.863,-271.226 991.76,-279.087 1002.21,-277.371 998.863,-271.226"/>
<text text-anchor="middle" x="1090" y="-252.81" font-family="Helvetica,sans-Serif" font-size="10.00"> ssAddr</text>
</g>
<!-- Node23 -->
<g id="node48" class="node"><title>Node23</title>
<a xlink:title="STL class.">
<polygon fill="white" stroke="#bfbfbf" points="642.5,-279.31 642.5,-298.31 797.5,-298.31 797.5,-279.31 642.5,-279.31"/>
<text text-anchor="middle" x="720" y="-286.31" font-family="Helvetica,sans-Serif" font-size="10.00">std::basic_stringstream&lt; char &gt;</text>
</a>
</g>
<!-- Node23&#45;&gt;Node22 -->
<g id="edge52" class="edge"><title>Node23&#45;&gt;Node22</title>
<path fill="none" stroke="midnightblue" d="M807.985,-288.81C847.752,-288.81 893.152,-288.81 925.755,-288.81"/>
<polygon fill="midnightblue" stroke="midnightblue" points="807.74,-285.31 797.74,-288.81 807.74,-292.31 807.74,-285.31"/>
</g>
<!-- Node24&#45;&gt;Node23 -->
<g id="edge54" class="edge"><title>Node24&#45;&gt;Node23</title>
<path fill="none" stroke="midnightblue" d="M605.717,-293.505C617.791,-293.005 630.227,-292.489 642.236,-291.992"/>
<polygon fill="midnightblue" stroke="midnightblue" points="605.524,-290.01 595.677,-293.922 605.814,-297.004 605.524,-290.01"/>
</g>
<!-- Node25&#45;&gt;Node24 -->
<g id="edge58" class="edge"><title>Node25&#45;&gt;Node24</title>
<path fill="none" stroke="midnightblue" d="M417.726,-296.81C429.864,-296.81 442.327,-296.81 454.251,-296.81"/>
<polygon fill="midnightblue" stroke="midnightblue" points="417.624,-293.31 407.624,-296.81 417.624,-300.31 417.624,-293.31"/>
</g>
<!-- Node26 -->
<g id="node57" class="node"><title>Node26</title>
<a xlink:href="../../da/d8f/classcIOControl.xhtml" target="_top" xlink:title="Class representing an I/O controller.">
<polygon fill="white" stroke="black" points="1770,-87.3097 1770,-106.31 1834,-106.31 1834,-87.3097 1770,-87.3097"/>
<text text-anchor="middle" x="1802" y="-94.3097" font-family="Helvetica,sans-Serif" font-size="10.00">cIOControl</text>
</a>
</g>
<!-- Node26&#45;&gt;Node1 -->
<g id="edge64" class="edge"><title>Node26&#45;&gt;Node1</title>
<path fill="none" stroke="#9a32cd" stroke-dasharray="5,2" d="M1824.11,-112.646C1848.03,-131.475 1886.93,-164.901 1912,-200.81 1931.04,-228.085 1943.94,-265.873 1949.26,-283.304"/>
<polygon fill="#9a32cd" stroke="#9a32cd" points="1826.08,-109.744 1816.03,-106.391 1821.79,-115.28 1826.08,-109.744"/>
<text text-anchor="middle" x="1887" y="-203.81" font-family="Helvetica,sans-Serif" font-size="10.00"> ioCtrl</text>
</g>
<!-- Node27 -->
<g id="node59" class="node"><title>Node27</title>
<polygon fill="white" stroke="#bfbfbf" points="1476,-64.3097 1476,-83.3097 1658,-83.3097 1658,-64.3097 1476,-64.3097"/>
<text text-anchor="middle" x="1567" y="-71.3097" font-family="Helvetica,sans-Serif" font-size="10.00">std::vector&lt; queue&lt; sIOContext * &gt; &gt;</text>
</g>
<!-- Node27&#45;&gt;Node26 -->
<g id="edge66" class="edge"><title>Node27&#45;&gt;Node26</title>
<path fill="none" stroke="#9a32cd" stroke-dasharray="5,2" d="M1668.39,-76.8434C1692.56,-78.328 1718.26,-80.534 1742,-83.8097 1751.14,-85.0716 1760.97,-87.002 1769.94,-88.9923"/>
<polygon fill="#9a32cd" stroke="#9a32cd" points="1668.31,-73.3334 1658.13,-76.2502 1667.91,-80.3217 1668.31,-73.3334"/>
<text text-anchor="middle" x="1709" y="-97.8097" font-family="Helvetica,sans-Serif" font-size="10.00"> io_out</text>
<text text-anchor="middle" x="1709" y="-86.8097" font-family="Helvetica,sans-Serif" font-size="10.00">out_iter</text>
</g>
<!-- Node28 -->
<g id="node61" class="node"><title>Node28</title>
<polygon fill="white" stroke="#bfbfbf" points="1164.5,-68.3097 1164.5,-87.3097 1301.5,-87.3097 1301.5,-68.3097 1164.5,-68.3097"/>
<text text-anchor="middle" x="1233" y="-75.3097" font-family="Helvetica,sans-Serif" font-size="10.00">std::queue&lt; sIOContext * &gt;</text>
</g>
<!-- Node28&#45;&gt;Node26 -->
<g id="edge82" class="edge"><title>Node28&#45;&gt;Node26</title>
<path fill="none" stroke="#9a32cd" stroke-dasharray="5,2" d="M1296.2,-88.8555C1304.19,-90.0032 1312.27,-91.0319 1320,-91.8097 1477.55,-107.671 1517.69,-102.698 1676,-105.81 1705.33,-106.386 1712.75,-108.028 1742,-105.81 1751.09,-105.12 1760.91,-103.841 1769.87,-102.46"/>
<polygon fill="#9a32cd" stroke="#9a32cd" points="1296.57,-85.3725 1286.17,-87.348 1295.53,-92.2949 1296.57,-85.3725"/>
<text text-anchor="middle" x="1567" y="-119.81" font-family="Helvetica,sans-Serif" font-size="10.00"> context_cache</text>
<text text-anchor="middle" x="1567" y="-108.81" font-family="Helvetica,sans-Serif" font-size="10.00">io_in</text>
</g>
<!-- Node28&#45;&gt;Node27 -->
<g id="edge68" class="edge"><title>Node28&#45;&gt;Node27</title>
<path fill="none" stroke="#9a32cd" stroke-dasharray="5,2" d="M1311.83,-76.872C1360.94,-76.2803 1424.54,-75.514 1475.84,-74.896"/>
<polygon fill="#9a32cd" stroke="#9a32cd" points="1311.54,-73.3751 1301.59,-76.9954 1311.63,-80.3746 1311.54,-73.3751"/>
<text text-anchor="middle" x="1389" y="-79.8097" font-family="Helvetica,sans-Serif" font-size="10.00"> elements</text>
</g>
<!-- Node29&#45;&gt;Node28 -->
<g id="edge70" class="edge"><title>Node29&#45;&gt;Node28</title>
<path fill="none" stroke="#9a32cd" stroke-dasharray="5,2" d="M1014.78,-77.8097C1055.42,-77.8097 1117.18,-77.8097 1164.47,-77.8097"/>
<polygon fill="#9a32cd" stroke="#9a32cd" points="1014.67,-74.3098 1004.67,-77.8097 1014.67,-81.3098 1014.67,-74.3098"/>
<text text-anchor="middle" x="1090" y="-80.8097" font-family="Helvetica,sans-Serif" font-size="10.00"> elements</text>
</g>
<!-- Node29&#45;&gt;Node29 -->
<g id="edge74" class="edge"><title>Node29&#45;&gt;Node29</title>
<path fill="none" stroke="#9a32cd" stroke-dasharray="5,2" d="M951.001,-97.2098C952.337,-102.124 959.003,-105.81 971,-105.81 990.195,-105.81 995.744,-96.375 987.646,-87.5668"/>
<polygon fill="#9a32cd" stroke="#9a32cd" points="954.376,-98.1616 954.354,-87.5668 947.764,-95.8625 954.376,-98.1616"/>
<text text-anchor="middle" x="971" y="-108.81" font-family="Helvetica,sans-Serif" font-size="10.00"> release</text>
</g>
<!-- Node32 -->
<g id="node73" class="node"><title>Node32</title>
<polygon fill="white" stroke="#bfbfbf" points="1320,-152.31 1320,-171.31 1458,-171.31 1458,-152.31 1320,-152.31"/>
<text text-anchor="middle" x="1389" y="-159.31" font-family="Helvetica,sans-Serif" font-size="10.00">std::vector&lt; sIOContext * &gt;</text>
</g>
<!-- Node29&#45;&gt;Node32 -->
<g id="edge86" class="edge"><title>Node29&#45;&gt;Node32</title>
<path fill="none" stroke="#9a32cd" stroke-dasharray="5,2" d="M1014.72,-88.4099C1021.17,-89.9337 1027.75,-91.4457 1034,-92.8097 1140.44,-116.047 1265.73,-139.573 1335.07,-152.259"/>
<polygon fill="#9a32cd" stroke="#9a32cd" points="1015.3,-84.9501 1004.76,-86.0254 1013.67,-91.7577 1015.3,-84.9501"/>
<text text-anchor="middle" x="1090" y="-119.81" font-family="Helvetica,sans-Serif" font-size="10.00"> elements</text>
</g>
<!-- Node30 -->
<g id="node67" class="node"><title>Node30</title>
<polygon fill="white" stroke="#bfbfbf" points="1509.5,-26.3097 1509.5,-45.3097 1624.5,-45.3097 1624.5,-26.3097 1509.5,-26.3097"/>
<text text-anchor="middle" x="1567" y="-33.3097" font-family="Helvetica,sans-Serif" font-size="10.00">std::queue&lt; uint64_t &gt;</text>
</g>
<!-- Node30&#45;&gt;Node26 -->
<g id="edge76" class="edge"><title>Node30&#45;&gt;Node26</title>
<path fill="none" stroke="#9a32cd" stroke-dasharray="5,2" d="M1634.53,-40.3401C1667.56,-44.0316 1707.64,-50.7167 1742,-62.8097 1758.73,-68.6962 1776.11,-79.3574 1787.63,-87.1771"/>
<polygon fill="#9a32cd" stroke="#9a32cd" points="1634.84,-36.8528 1624.53,-39.2879 1634.11,-43.8144 1634.84,-36.8528"/>
<text text-anchor="middle" x="1709" y="-65.8097" font-family="Helvetica,sans-Serif" font-size="10.00"> finished</text>
</g>
<!-- Node31&#45;&gt;Node26 -->
<g id="edge78" class="edge"><title>Node31&#45;&gt;Node26</title>
<path fill="none" stroke="#9a32cd" stroke-dasharray="5,2" d="M1156.36,-11.3152C1262.38,-2.20687 1478.09,10.397 1658,-16.8097 1696.64,-22.6532 1708.1,-23.3684 1742,-42.8097 1762.72,-54.6908 1782.23,-74.9832 1792.8,-87.0208"/>
<polygon fill="#9a32cd" stroke="#9a32cd" points="1155.8,-7.85123 1146.14,-12.2119 1156.41,-14.8244 1155.8,-7.85123"/>
<text text-anchor="middle" x="1389" y="-4.80972" font-family="Helvetica,sans-Serif" font-size="10.00"> finishedPTE</text>
</g>
<!-- Node32&#45;&gt;Node26 -->
<g id="edge84" class="edge"><title>Node32&#45;&gt;Node26</title>
<path fill="none" stroke="#9a32cd" stroke-dasharray="5,2" d="M1468.18,-167.387C1541.25,-169.894 1652.24,-166.676 1742,-133.81 1759.71,-127.324 1777.75,-115.004 1789.13,-106.367"/>
<polygon fill="#9a32cd" stroke="#9a32cd" points="1468.26,-163.887 1458.13,-166.998 1467.98,-170.882 1468.26,-163.887"/>
<text text-anchor="middle" x="1567" y="-181.81" font-family="Helvetica,sans-Serif" font-size="10.00"> io_in_wait</text>
<text text-anchor="middle" x="1567" y="-170.81" font-family="Helvetica,sans-Serif" font-size="10.00">in_wait_iter</text>
</g>
</g>
</svg>
        <g id="navigator" transform="translate(0 0)" fill="#404254">
                <rect fill="#f2f5e9" fill-opacity="0.5" stroke="#606060" stroke-width=".5" x="0" y="0" width="60" height="60"/>
                <use id="zoomplus" xlink:href="#zoomPlus" x="17" y="9" onmousedown="handleZoom(evt,'in')"/>
                <use id="zoomminus" xlink:href="#zoomMin" x="42" y="9" onmousedown="handleZoom(evt,'out')"/>
                <use id="reset" xlink:href="#resetDef" x="30" y="36" onmousedown="handleReset()"/>
                <g id="arrowUp" xlink:href="#dirArrow" transform="translate(30 24)" onmousedown="handlePan(0,-1)">
                  <use xlink:href="#rim" fill="#404040">
                        <set attributeName="fill" to="#808080" begin="arrowUp.mouseover" end="arrowUp.mouseout"/>
                  </use>
                  <path fill="none" stroke="white" stroke-width="1.5" d="M0,-3.0v7 M-2.5,-0.5L0,-3.0L2.5,-0.5"/>
                </g>
                <g id="arrowRight" xlink:href="#dirArrow" transform="rotate(90) translate(36 -43)" onmousedown="handlePan(1,0)">
                  <use xlink:href="#rim" fill="#404040">
                        <set attributeName="fill" to="#808080" begin="arrowRight.mouseover" end="arrowRight.mouseout"/>
                  </use>
                  <path fill="none" stroke="white" stroke-width="1.5" d="M0,-3.0v7 M-2.5,-0.5L0,-3.0L2.5,-0.5"/>
                </g>
                <g id="arrowDown" xlink:href="#dirArrow" transform="rotate(180) translate(-30 -48)" onmousedown="handlePan(0,1)">
                  <use xlink:href="#rim" fill="#404040">
                        <set attributeName="fill" to="#808080" begin="arrowDown.mouseover" end="arrowDown.mouseout"/>
                  </use>
                  <path fill="none" stroke="white" stroke-width="1.5" d="M0,-3.0v7 M-2.5,-0.5L0,-3.0L2.5,-0.5"/>
                </g>
                <g id="arrowLeft" xlink:href="#dirArrow" transform="rotate(270) translate(-36 17)" onmousedown="handlePan(-1,0)">
                  <use xlink:href="#rim" fill="#404040">
                        <set attributeName="fill" to="#808080" begin="arrowLeft.mouseover" end="arrowLeft.mouseout"/>
                  </use>
                  <path fill="none" stroke="white" stroke-width="1.5" d="M0,-3.0v7 M-2.5,-0.5L0,-3.0L2.5,-0.5"/>
                </g>
        </g>
</svg>
